<?xml version="1.0" encoding="UTF-8" standalone="no"?>
<!-- Created with Inkscape (http://www.inkscape.org/) -->

<svg
   xmlns:dc="http://purl.org/dc/elements/1.1/"
   xmlns:cc="http://creativecommons.org/ns#"
   xmlns:rdf="http://www.w3.org/1999/02/22-rdf-syntax-ns#"
   xmlns:svg="http://www.w3.org/2000/svg"
   xmlns="http://www.w3.org/2000/svg"
   xmlns:sodipodi="http://sodipodi.sourceforge.net/DTD/sodipodi-0.dtd"
   xmlns:inkscape="http://www.inkscape.org/namespaces/inkscape"
   id="svg2"
   version="1.1"
   inkscape:version="0.91 r13725"
   width="156"
   height="180"
   xml:space="preserve"
   sodipodi:docname="berlin-opendata.svg"><metadata
     id="metadata8"><rdf:RDF><cc:Work
         rdf:about=""><dc:format>image/svg+xml</dc:format><dc:type
           rdf:resource="http://purl.org/dc/dcmitype/StillImage" /><dc:title /></cc:Work></rdf:RDF></metadata><defs
     id="defs6" /><sodipodi:namedview
     pagecolor="#ffffff"
     bordercolor="#666666"
     borderopacity="1"
     objecttolerance="10"
     gridtolerance="10"
     guidetolerance="10"
     inkscape:pageopacity="0"
     inkscape:pageshadow="2"
     inkscape:window-width="1440"
     inkscape:window-height="800"
     id="namedview4"
     showgrid="false"
     inkscape:zoom="2.9129789"
     inkscape:cx="113.45774"
     inkscape:cy="84.883568"
     inkscape:window-x="0"
     inkscape:window-y="1"
     inkscape:window-maximized="1"
     inkscape:current-layer="g10" /><g
     id="g10"
     inkscape:groupmode="layer"
     inkscape:label="Codefor_Hex_sticker_ALL"
     transform="matrix(1.25,0,0,-1.25,0,180)"><g
       id="g4297"><path
         inkscape:connector-curvature="0"
         d="M 62.4,72.001553 0,108.00078 l 0,0 L 62.4,144 c 0,0 0.0287,-71.998424 0,-71.998447 z"
         style="fill:#9699a0;fill-opacity:1;fill-rule:nonzero;stroke:none"
         id="path3176"
         sodipodi:nodetypes="ccccc" /><path
         sodipodi:nodetypes="ccccc"
         id="path3178"
         style="fill:#9b9ea5;fill-opacity:1;fill-rule:nonzero;stroke:none"
         d="m 62.39997,72.001553 62.4,35.999227 0,0 -62.4,35.99922 c -0.30094,0 -0.29888,-71.998424 0,-71.998447 z"
         inkscape:connector-curvature="0" /><path
         sodipodi:nodetypes="ccccc"
         id="path2988"
         style="fill:#8b8f97;fill-opacity:1;fill-rule:nonzero;stroke:none"
         d="M 62.4,0.00311092 0,36.002332 l 0,0 62.4,35.999221 c 0,0 0.0287,-71.99841928 0,-71.99844208 z"
         inkscape:connector-curvature="0" /><path
         sodipodi:nodetypes="ccccc"
         id="path3180"
         style="fill:#90949c;fill-opacity:1;fill-rule:nonzero;stroke:none"
         d="M 62.37679,72.006648 C 42.64437,58.945827 22.55171,46.245093 0,36.002332 l 0,0 0.0231,71.968698 c 1.20063,1.2001 64.00993,-34.298343 62.3537,-35.964382 z"
         inkscape:connector-curvature="0" /><path
         inkscape:connector-curvature="0"
         d="m 62.4234,71.996459 c 19.73242,13.060822 39.82508,25.761555 62.37679,36.004321 l 0,0 -0.0231,-71.968698 c -1.20063,-1.200104 -64.00993,34.298339 -62.3537,35.964377 z"
         style="fill:#9699a0;fill-opacity:1;fill-rule:nonzero;stroke:none"
         id="path3182"
         sodipodi:nodetypes="ccccc" /><path
         inkscape:connector-curvature="0"
         d="m 62.39997,0.00311092 62.4,35.99922108 0,0 -62.4,35.999221 c -1.49897,-1.124204 -0.7564,-72.54415217 0,-71.99844208 z"
         style="fill:#90949c;fill-opacity:1;fill-rule:nonzero;stroke:none"
         id="path3174"
         sodipodi:nodetypes="ccccc" /></g><path
       id="path30"
       style="fill:#2c2b2b;fill-opacity:1;fill-rule:nonzero;stroke:none"
       d="m 28.340902,89.49509 -8.430852,0 0,-5.069509 7.225893,0 c 0.724858,0 1.399865,0.0056 2.027591,0.01583 0.06248,0.0013 0.123234,0.0056 0.185279,0.0072 l 0.522248,5.333734 c -0.165169,-0.07702 -0.34082,-0.137995 -0.531449,-0.180357 -0.313434,-0.07232 -0.645694,-0.106976 -0.998709,-0.106976 m -8.430852,-35.028925 7.369881,0 0.342532,5.100105 -7.712413,0 0,-5.100105 z m 21.477427,38.94461 4.5049,0 0,2.085142 4.483718,-5.970447 -8.988617,0 0,3.885305 z m 0,8.680953 6.816826,0 0,0.004 c 0.627939,6.5e-4 1.192763,8.7e-4 1.501704,8.7e-4 0.977958,0 2.198535,-0.0546 2.674999,-0.1656 0.475821,-0.11168 0.893234,-0.28861 1.252881,-0.53187 0.360075,-0.24241 0.645269,-0.5614 0.857077,-0.95614 0.211382,-0.39473 0.317714,-0.876114 0.317714,-1.442438 0,-1.17372 -0.375907,-2.00855 -1.127295,-2.505336 -0.750959,-0.495935 -1.697038,-0.744115 -2.839523,-0.744115 l -4.949483,0 0,2.788822 -4.5049,0 0,3.551107 z M 32.66052,85.215051 c 0.547496,0.26273 1.105901,0.647623 1.674147,1.154038 0.685706,0.586647 1.195117,1.330118 1.528661,2.230413 0.05414,0.146127 0.101625,0.29311 0.147198,0.439664 l 0,-4.612942 14.365569,0 0,5.098605 3.829035,-5.099248 6.982422,0 -6.474294,7.773818 c 0.930461,0.141419 1.766144,0.430036 2.507262,0.86542 0.740689,0.435386 1.364777,0.971969 1.872691,1.609536 0.507058,0.637566 0.893235,1.355791 1.158102,2.15617 0.264013,0.799103 0.396232,1.634143 0.396232,2.504912 0,1.194473 -0.248392,2.343373 -0.744755,3.447143 -0.498072,1.1029 -1.233412,2.03892 -2.206236,2.80828 -0.508127,0.38447 -1.057761,0.68271 -1.649328,0.89559 -0.593707,0.21224 -1.206454,0.3742 -1.842095,0.48652 -0.634357,0.11018 -1.274705,0.17629 -1.919331,0.19683 -0.645483,0.0199 -1.275562,0.0304 -1.888524,0.0304 l -5.204725,0 0,-0.009 -9.182025,0 0,-13.690342 c -0.143131,0.39773 -0.329481,0.767432 -0.559261,1.108253 -0.606973,0.900509 -1.517964,1.563749 -2.732336,1.988437 0.841673,0.464905 1.483733,1.108464 1.924681,1.927891 0.440733,0.818566 0.660887,1.714151 0.660887,2.686121 0,0.70753 -0.108042,1.37099 -0.323277,1.98823 -0.215874,0.61724 -0.557764,1.18826 -1.027809,1.71457 -0.470258,0.54643 -0.97539,0.97155 -1.513899,1.27514 -0.538721,0.30316 -1.106327,0.52588 -1.7041,0.66773 -0.597344,0.14185 -1.215227,0.22785 -1.851081,0.2576 -0.636711,0.031 -1.287969,0.0462 -1.953778,0.0462 l -7.020503,0 0,-5.09945 7.784941,0 c 0.293538,0 0.572098,-0.0212 0.836753,-0.0612 0.264226,-0.0411 0.499569,-0.12666 0.70496,-0.2576 0.205818,-0.13222 0.367135,-0.31429 0.484594,-0.54642 0.118099,-0.23321 0.176722,-0.53167 0.176722,-0.89538 0,-0.708816 -0.215234,-1.184209 -0.64634,-1.426824 -0.431106,-0.242613 -0.959772,-0.364356 -1.587069,-0.364356 l -7.754561,0 0,-4.85684 8.430851,0 c 0.332048,0 0.660889,-0.02546 0.984164,-0.07637 0.323063,-0.04985 0.606972,-0.146556 0.851943,-0.287547 0.24497,-0.141634 0.441162,-0.344243 0.587288,-0.606757 0.147411,-0.263157 0.220795,-0.597987 0.220795,-1.002349 0,-0.424475 -0.07339,-0.779201 -0.220795,-1.062255 -0.146126,-0.283908 -0.342318,-0.506201 -0.587288,-0.667733 -0.09627,-0.06333 -0.198973,-0.118099 -0.305946,-0.167948 l 0.575949,-5.235747 c 0.175651,0.02632 0.350874,0.05584 0.523531,0.09178 0.578303,0.121736 1.140986,0.313434 1.689979,0.57659 M 43.860723,48.243687 c 0,1.274492 -0.156397,2.514538 -0.469831,3.718425 -0.313434,1.203674 -0.832473,2.332467 -1.557116,3.384665 -0.627725,0.889813 -1.30316,1.613386 -2.027162,2.170079 -0.725285,0.556052 -1.494642,0.986944 -2.307221,1.290323 -0.813002,0.303379 -1.674573,0.505774 -2.585779,0.606758 -0.842958,0.09307 -1.725709,0.142062 -2.644617,0.148908 l 0.353228,-5.09668 0.21994,0 c 0.940087,0 1.7486,-0.161745 2.424676,-0.485021 0.67565,-0.324131 1.228492,-0.764437 1.659384,-1.320917 0.430679,-0.556694 0.749463,-1.218865 0.955493,-1.987581 0.205392,-0.770001 0.308087,-1.609748 0.308087,-2.5201 0,-0.910137 -0.0982,-1.750312 -0.29311,-2.519456 -0.196404,-0.770002 -0.510481,-1.431316 -0.940731,-1.988224 -0.43132,-0.556693 -0.984589,-0.98673 -1.66024,-1.290108 -0.51861,-0.232563 -1.121304,-0.374196 -1.805938,-0.427897 l 0.351944,-5.076569 c 2.979447,0.219083 5.330527,1.16773 7.051314,2.849151 1.978809,1.93174 2.96768,4.780465 2.96768,8.544244 m -2.51903,23.752132 c 0,6.407541 -4.776186,11.271231 -10.793057,11.627029 l 0.621947,-5.656584 c 2.816632,-0.624516 4.596468,-3.203237 4.596468,-5.967451 0,-2.543205 -1.535507,-4.925735 -3.960828,-5.747511 l 0.39174,-5.666425 c 5.218204,1.068459 9.14373,5.631339 9.14373,11.410942 m -20.653087,7.056448 c -0.613176,-0.765293 -1.128577,-1.664305 -1.41805,-2.495708 -0.612749,-1.564178 -0.870556,-3.12921 -0.870556,-4.793944 0,-5.721409 4.082779,-10.226093 9.288358,-11.212824 l 0.380187,5.670489 c -2.548341,0.779629 -4.093904,3.151676 -4.093904,5.870104 0,2.883598 1.839315,5.40177 4.74345,5.92081 l 0.550062,5.620212 c -3.464466,-0.153401 -6.471726,-1.70624 -8.579546,-4.579139 M 19.910051,36.7998 l 6.185249,0 0.342318,5.099676 -6.527568,0 0,-5.099676 z m 58.599198,41.620677 0,5.226119 -17.321696,0 0,-23.300913 17.321696,0 0,5.226334 -11.81188,0 0,3.961256 6.19937,0 0,5.258209 -6.19937,0 0,3.628995 11.81188,0 z m -20.719199,3.5616 c -1.868625,1.6305 -4.672204,1.697252 -6.991835,1.697252 l -8.701498,0 0,-23.333647 5.605878,0 0,18.140905 3.384879,0 c 1.901359,0 3.834812,-0.299528 3.834812,-2.729126 0,-2.396865 -1.772135,-2.829682 -3.640547,-2.829682 l -2.823692,0 0,-5.259282 3.017101,0 c 2.480946,0 4.639258,0.265939 6.540618,2.063962 1.643123,1.464476 2.416763,3.961684 2.416763,6.12513 0,2.396223 -0.870557,4.659583 -2.642479,6.124489 m 33.535992,-37.259338 0,6.344428 0.08815,0 3.643757,-6.344428 -3.731904,0 z m -0.02931,14.843531 -5.581916,0 0,-22.735447 5.611226,0 0,3.277903 6.406045,0 1.93837,-3.277903 6.729543,0 -15.103271,22.735447 z m -30.10918,-5.099249 9.048522,0 0,-17.667222 5.61358,0 0,17.667222 9.109281,0 0,5.099249 -23.771383,0 0,-5.099249 z m -6.36732,-9.744282 -3.731904,0 3.644184,6.344428 0.08772,0 0,-6.344428 z m -15.073739,-7.891916 6.72932,0 1.939015,3.277903 6.405404,0 0,-3.277903 5.612296,0 0,22.735447 -5.582985,0 -15.10305,-22.735447 z m 53.674962,23.514859 4.906691,0 0,23.300271 -5.170918,0 0,-14.570318 -0.05904,-0.03124 -8.520712,14.601553 -5.308277,0 0,-23.300269 5.690174,0 -4.28e-4,14.13536 0.089,0.06183 8.373514,-14.197191 z m -8.462519,37.891559 0.08901,0.06073 8.373514,-13.871771 4.906692,0 0,22.765399 -5.170918,0 0,-14.236129 -0.05905,-0.03017 -8.520711,14.266299 -5.308275,0 0,-22.765402 5.690174,0 -4.29e-4,13.811021 z m -6.449688,8.954378 -5.612511,0 0,-22.765395 5.612511,0 0,22.765395 z m -6.367107,-17.635982 -5.342507,0 0,17.635982 -5.612081,0 0,-22.765395 10.954588,0 0,5.129413 z"
       inkscape:connector-curvature="0" /></g></svg>