<?xml version="1.0" encoding="UTF-8" standalone="no"?>
<!-- Created with Inkscape (http://www.inkscape.org/) -->

<svg
   xmlns:dc="http://purl.org/dc/elements/1.1/"
   xmlns:cc="http://creativecommons.org/ns#"
   xmlns:rdf="http://www.w3.org/1999/02/22-rdf-syntax-ns#"
   xmlns:svg="http://www.w3.org/2000/svg"
   xmlns="http://www.w3.org/2000/svg"
   xmlns:sodipodi="http://sodipodi.sourceforge.net/DTD/sodipodi-0.dtd"
   xmlns:inkscape="http://www.inkscape.org/namespaces/inkscape"
   id="svg2"
   version="1.1"
   inkscape:version="0.91 r13725"
   width="156"
   height="180"
   xml:space="preserve"
   sodipodi:docname="data.deutschebahn.com.svg"><metadata
     id="metadata8"><rdf:RDF><cc:Work
         rdf:about=""><dc:format>image/svg+xml</dc:format><dc:type
           rdf:resource="http://purl.org/dc/dcmitype/StillImage" /><dc:title /></cc:Work></rdf:RDF></metadata><defs
     id="defs6" /><sodipodi:namedview
     pagecolor="#ffffff"
     bordercolor="#666666"
     borderopacity="1"
     objecttolerance="10"
     gridtolerance="10"
     guidetolerance="10"
     inkscape:pageopacity="0"
     inkscape:pageshadow="2"
     inkscape:window-width="1440"
     inkscape:window-height="800"
     id="namedview4"
     showgrid="false"
     inkscape:zoom="3.3222222"
     inkscape:cx="40.073579"
     inkscape:cy="90"
     inkscape:window-x="0"
     inkscape:window-y="1"
     inkscape:window-maximized="1"
     inkscape:current-layer="g10" /><g
     id="g10"
     inkscape:groupmode="layer"
     inkscape:label="Codefor_Hex_sticker_ALL"
     transform="matrix(1.25,0,0,-1.25,0,180)"><path
       sodipodi:nodetypes="ccccc"
       id="path3176"
       style="fill:#ffffff;fill-opacity:1;fill-rule:nonzero;stroke:none"
       d="M 62.4,72.001553 0,108.00078 l 0,0 L 62.4,144 c 0,0 0.0287,-71.998424 0,-71.998447 z"
       inkscape:connector-curvature="0" /><path
       inkscape:connector-curvature="0"
       d="m 62.39997,72.001553 62.4,35.999227 0,0 -62.4,35.99922 c -0.30094,0 -0.29888,-71.998424 0,-71.998447 z"
       style="fill:#ffffff;fill-opacity:1;fill-rule:nonzero;stroke:none"
       id="path3178"
       sodipodi:nodetypes="ccccc" /><path
       inkscape:connector-curvature="0"
       d="M 62.4,0.00311092 0,36.002332 l 0,0 62.4,35.999221 c 0,0 0.0287,-71.99841928 0,-71.99844208 z"
       style="fill:#ffffff;fill-opacity:1;fill-rule:nonzero;stroke:none"
       id="path2988"
       sodipodi:nodetypes="ccccc" /><path
       inkscape:connector-curvature="0"
       d="M 62.37679,72.006648 C 42.64437,58.945827 22.55171,46.245093 0,36.002332 l 0,0 0.0231,71.968698 c 1.20063,1.2001 64.00993,-34.298343 62.3537,-35.964382 z"
       style="fill:#ffffff;fill-opacity:1;fill-rule:nonzero;stroke:none"
       id="path3180"
       sodipodi:nodetypes="ccccc" /><path
       sodipodi:nodetypes="ccccc"
       id="path3182"
       style="fill:#ffffff;fill-opacity:1;fill-rule:nonzero;stroke:none"
       d="m 62.4234,71.996459 c 19.73242,13.060822 39.82508,25.761555 62.37679,36.004321 l 0,0 -0.0231,-71.968698 c -1.20063,-1.200104 -64.00993,34.298339 -62.3537,35.964377 z"
       inkscape:connector-curvature="0" /><path
       sodipodi:nodetypes="ccccc"
       id="path3174"
       style="fill:#ffffff;fill-opacity:1;fill-rule:nonzero;stroke:none"
       d="m 62.39997,0.00311092 62.4,35.99922108 0,0 -62.4,35.999221 c -1.49897,-1.124204 -0.7564,-72.54415217 0,-71.99844208 z"
       inkscape:connector-curvature="0" /><g
       id="layer1"
       transform="matrix(0.13878126,0,0,-0.13878126,-71.575763,142.4658)"><g
         id="g2504"
         transform="matrix(2.8072397,0,0,2.8072397,-1054.5664,-1311.3148)"><path
           id="path94"
           style="fill:#ffffff;fill-rule:nonzero;stroke:none"
           d="m 829.65558,723.91382 -221.72046,0 0,-151.84851 221.72046,0 0,151.84851 z"
           inkscape:connector-curvature="0" /><path
           id="path96"
           style="fill:#ec1b2d;fill-rule:evenodd;stroke:none"
           d="m 628.05363,591.26554 44.41089,0 c 27.71498,0 43.9934,17.86447 43.9934,56.43183 0,41.07169 -17.0297,57.5171 -43.9934,57.5171 l -44.41089,0 0,-113.94893 z m 100.84272,0 49.67003,0 c 20.78629,0 31.22118,12.52183 31.22118,26.9637 0,18.94974 -11.10277,25.37765 -19.70102,27.2142 l 0,0.50088 c 12.85572,1.66955 24.45928,10.76879 24.45928,28.21597 -0.0834,18.78274 -13.6905,31.05418 -39.06815,31.05418 l -46.58132,0 0,-113.94893 z m -73.37813,17.86447 9.76701,0 c 15.77763,0 24.12549,11.35317 24.12549,38.06648 0,30.63679 -9.76702,39.81952 -23.6246,39.81952 l -10.2679,0 0,-77.886 z m 100.59233,-0.1669 10.51829,0 c 10.76888,0 15.19325,6.01043 15.19325,13.02272 0,8.51485 -4.59137,14.44187 -15.36015,14.44187 l -10.35139,0 0,-27.46459 z m 0,48.91876 12.93922,0 c 12.77232,0 16.19492,6.17742 16.19492,14.27488 0,9.43312 -6.8453,14.85926 -16.02793,14.85926 l -13.10621,0 0,-29.13414 z m -136.98916,-97.33663 200.76717,0 c 14.27488,0 25.87844,11.52007 25.87844,25.79504 l 0,123.21507 c 0,14.27497 -11.60356,25.87853 -25.87844,25.87853 l -200.76717,0 c -14.27497,0 -25.79504,-11.60356 -25.79504,-25.87853 l 0,-123.21507 c 0,-14.27497 11.52007,-25.79504 25.79504,-25.79504 z m 0.33389,17.61408 200.18279,0 c 4.42437,0 8.01397,3.5896 8.01397,8.01397 l 0,123.54905 c 0,4.42437 -3.5896,8.01396 -8.01397,8.01396 l -200.18279,0 c -4.42437,0 -8.01396,-3.58959 -8.01396,-8.01396 l 0,-123.54905 c 0,-4.42437 3.58959,-8.01397 8.01396,-8.01397"
           inkscape:connector-curvature="0" /></g></g></g></svg>