<?xml version="1.0" encoding="UTF-8" standalone="no"?>
<!-- Created with Inkscape (http://www.inkscape.org/) -->

<svg
   xmlns:dc="http://purl.org/dc/elements/1.1/"
   xmlns:cc="http://creativecommons.org/ns#"
   xmlns:rdf="http://www.w3.org/1999/02/22-rdf-syntax-ns#"
   xmlns:svg="http://www.w3.org/2000/svg"
   xmlns="http://www.w3.org/2000/svg"
   xmlns:sodipodi="http://sodipodi.sourceforge.net/DTD/sodipodi-0.dtd"
   xmlns:inkscape="http://www.inkscape.org/namespaces/inkscape"
   id="svg2"
   version="1.1"
   inkscape:version="0.48.5 r10040"
   width="156"
   height="180"
   xml:space="preserve"
   sodipodi:docname="animals.svg"><metadata
     id="metadata8"><rdf:RDF><cc:Work
         rdf:about=""><dc:format>image/svg+xml</dc:format><dc:type
           rdf:resource="http://purl.org/dc/dcmitype/StillImage" /><dc:title /></cc:Work></rdf:RDF></metadata><defs
     id="defs6"><clipPath
       clipPathUnits="userSpaceOnUse"
       id="clipPath24"><path
         d="m 0,198.425 198.425,0 L 198.425,0 0,0 0,198.425 z"
         id="path26"
         inkscape:connector-curvature="0" /></clipPath></defs><sodipodi:namedview
     pagecolor="#ffffff"
     bordercolor="#666666"
     borderopacity="1"
     objecttolerance="10"
     gridtolerance="10"
     guidetolerance="10"
     inkscape:pageopacity="0"
     inkscape:pageshadow="2"
     inkscape:window-width="1324"
     inkscape:window-height="849"
     id="namedview4"
     showgrid="false"
     inkscape:zoom="3.7388889"
     inkscape:cx="80.674591"
     inkscape:cy="87.777177"
     inkscape:window-x="2"
     inkscape:window-y="0"
     inkscape:window-maximized="0"
     inkscape:current-layer="g10"
     showguides="true"
     inkscape:guide-bbox="true" /><g
     id="g10"
     inkscape:groupmode="layer"
     inkscape:label="Codefor_Hex_sticker_ALL"
     transform="matrix(1.25,0,0,-1.25,0,180)"><path
       sodipodi:nodetypes="ccccc"
       id="path3176"
       style="fill:#d2ba5a;fill-opacity:1;fill-rule:nonzero;stroke:none"
       d="M 62.4,72 0,108 l 0,0 62.4,36 c 0,0 0.02874,-71.999977 0,-72 z"
       inkscape:connector-curvature="0" /><path
       inkscape:connector-curvature="0"
       d="m 62.399973,72 62.399997,36 0,0 -62.399997,36 c -0.300945,0 -0.298879,-71.999977 0,-72 z"
       style="fill:#d4bd62;fill-opacity:1;fill-rule:nonzero;stroke:none"
       id="path3178"
       sodipodi:nodetypes="ccccc" /><path
       inkscape:connector-curvature="0"
       d="M 62.4,0 0,36 0,36 62.4,72 c 0,0 0.02874,-71.999977240587 0,-72 z"
       style="fill:#cdb34b;fill-opacity:1;fill-rule:nonzero;stroke:none"
       id="path2988"
       sodipodi:nodetypes="ccccc" /><path
       inkscape:connector-curvature="0"
       d="M 62.376794,72.005095 C 42.644373,58.943991 22.551707,46.242983 0,36 l 0,0 0.02308996,71.97025 C 1.223723,109.17038 64.033024,73.67117 62.376794,72.005095 z"
       style="fill:#d0b752;fill-opacity:1;fill-rule:nonzero;stroke:none"
       id="path3180"
       sodipodi:nodetypes="ccccc" /><path
       sodipodi:nodetypes="ccccc"
       id="path3182"
       style="fill:#d2ba5a;fill-opacity:1;fill-rule:nonzero;stroke:none"
       d="M 62.423396,71.994906 C 82.155817,85.05601 102.24848,97.757018 124.80019,108 l 0,0 -0.0231,-71.970249 c -1.20063,-1.20013 -64.009934,34.29908 -62.353704,35.965155 z"
       inkscape:connector-curvature="0" /><path
       sodipodi:nodetypes="ccccc"
       id="path3174"
       style="fill:#d0b752;fill-opacity:1;fill-rule:nonzero;stroke:none"
       d="m 62.399973,0 62.399997,36 0,0 -62.399997,36 c -1.498971,-1.124229 -0.7564,-72.5457219 0,-72 z"
       inkscape:connector-curvature="0" /><path
       style="font-style:normal;font-variant:normal;font-weight:normal;font-stretch:normal;letter-spacing:normal;word-spacing:normal;text-anchor:start;fill:#ffffff;fill-opacity:1;stroke:none"
       d="m 72.180675,132.3022 c -0.510352,-0.0631 -1.2,-0.9 -1.2,-0.9 l -0.225,-0.525 -0.175,-0.45 -0.95,-1.375 -2.825,-3.55001 c 1.2175,-1.31489 2.750752,-2.27208 4.65,-3.09999 l 0.9,0.725 0.45,0.275 0.225,0 0.625002,-0.325 c 1.46101,-0.7792 3.51885,-0.65414 4.225,1.02499 l 0.15,0.35 c 0.24346,0.58339 0.45614,1.35939 -0.25,1.75 l -0.275,0.025 c -0.65745,0.1461 -1.41302,0.0887 -1.9,0.6 l -0.775,0.825 -0.1,0.125 -0.125,0.125 -0.125,0.125 -0.125,0.125 -0.25,0.25 -0.125,0.125 -0.125,0.125 -0.125,0.1 -0.125,0.12501 -0.125,0.1 -0.125,0.1 -0.125,0.1 -0.125,0.1 -0.100002,0.1 -0.075,0.025 -0.025,0.05 -0.025,0 0.05,0.575 0.150002,0.6 c 0.12175,0.487 -0.18865,1.42984 -0.700002,1.65 -0.06392,0.0274 -0.127096,0.034 -0.2,0.025 z m -24.775,-5.17501 -0.5,-0.025 c -0.754828,0 -0.20875,-3.202 0.4,-5.14999 0.267827,-0.85324 0.72695,-1.22854 0.8,-1.4 l -0.15,-0.15 c -1.582736,-2.1915 -1.135035,-4.41111 -0.575,-6.7 0.170412,-0.7305 0.910035,-1.7377 0.35,-3.15 l -0.35,-0.7 c -0.657455,-1.14445 -0.815883,-3.10945 -0.475,-4.4 l 0.2,-0.85 c 0.26785,-1.1201 0.835103,-2.475 2.15,-2.475 0.560053,0 1.369782,0.2432 1.175,0.925 l -0.7,2.125 c -0.292196,0.85326 -0.0062,4.91879 0.7,4.725 l -0.05,-2.3 c 0.292203,-1.6071 0.946451,-3.81011 1.75,-4.15 l 1.1,-0.475 0.025,0 c 1.484334,-0.62564 1.332891,1.40171 0.8,2.2 l -0.725,1.45 c -0.340883,0.487 -0.37242,1.45648 -0.275,1.7 l 0.1,0.275 1.35,3.5 0.25,1.525 c 0.07307,0.56005 -0.129851,1.40327 0.625,1.525 l 1.6,0.225 c 2.264552,-1.2175 4.278684,-1.7702 7.225,-2.525 l 0.35,-0.95 -0.425,-3.775 -0.15,-1.85 c -0.243504,-1.26721 -0.627852,-3.07137 2.075,-2.975 0.900931,-0.12175 1.802902,0.86849 0.975,1.6 -1.168785,0.60875 -0.944781,1.37145 -0.75,2.175 l 0.925,4.325 0.225,-4.675 0,-0.225 0,-0.425 0,-0.2 0,-0.2 0,-0.175 0,-0.2 0,-0.175 0,-0.2 0.025,-0.175 0.025,-0.15 0.025,-0.175 0.025,-0.15 0.05,-0.15 0.05,-0.125 0.075,-0.125 0.025,-0.075 0.05,-0.05 0.025,-0.075 0.05,-0.05 0.05,-0.05 0.05,-0.05 0.05,-0.05 0.075,-0.05 0.05,-0.025 0.075,-0.05 0.075,-0.025 0.075,-0.05 0.075,-0.025 0.075,-0.025 0.1,-0.025 0.1,-0.025 0.1,-0.025 0.1,0 0.1,-0.025 0.125,0 0.1,-0.025 0.125,0 0.125,0 0.15,0 0.125,0.025 0.15,0 0.15,0.025 0.15,0 0.175,0.025 0.175,0.025 c 0.900936,0.4383 0.587672,1.33253 0.125,1.575 -0.70616,0.21915 -1.248696,0.29905 -1.2,1.2 l -0.05,0.875 c -0.09742,1.8993 0.01106,3.79779 0.425,5.625 l 0.2,1.05 c 0.535704,2.55573 1.185032,3.51441 0.625,7.8 -2.069756,0.75485 -3.3377,1.63835 -4.75,3.07499 l -1.275,-0.77499 c -0.633096,-0.3896 -1.243199,-0.82917 -1.925,-1.025 l -1.95,-0.525 -10.95,0.125 c -1.534049,-0.3409 -1.158801,4.92499 -2.425,4.92499 z"
       id="path12"
       inkscape:connector-curvature="0" /><path
       id="path1891"
       style="fill:#bca034;fill-opacity:1;fill-rule:evenodd;stroke:none"
       d="m 66.651874,37.100551 -9.875689,0 c 0,-1.403885 0.100237,-1.682363 2.425224,-1.682363 -0.37143,-1.114292 -1.881204,-3.810134 -2.720184,-3.810134 -0.742253,0 -1.627741,0.04088 -1.627741,1.734491 0,1.922701 -3.235615,5.022699 -4.020192,3.758006 -1.169233,-1.884735 2.010096,-1.310007 2.010096,-5.855497 0,-6.218468 -3.629109,-5.333208 -3.629109,-8.826945 0,-1.747909 0.482872,-1.983947 0.482872,-3.233632 0,-1.651565 -1.454972,-1.555724 -1.171888,-2.925097 0.195542,-0.945902 0.348571,-1.704466 0.462575,-2.848307 0.08089,-0.811605 0.106679,-1.676637 0.949693,-1.641855 0.990497,0.04086 1.366259,1.784336 2.905857,1.909343 1.536459,0.124752 2.846532,-1.308006 3.441198,-1.103367 0.589653,0.202913 0.404203,1.802531 0.05462,2.938673 -0.549442,1.785684 -1.74791,4.107587 0.436977,4.457169 2.18489,0.349582 5.942895,0.699164 8.652155,4.282379 2.70926,3.583215 2.609246,7.788392 3.67061,9.08913 3.562095,4.365469 7.212323,2.573071 7.212323,6.20508 0,1.626048 -2.755154,2.796655 -3.192131,2.272281 -0.436977,-0.524372 3.713021,-2.086888 -0.930452,-3.932796 -3.967022,-1.577 -4.321151,-1.898922 -5.536813,-0.786559 z"
       inkscape:connector-curvature="0" /><path
       style="fill:#bca034;fill-opacity:1;stroke:none"
       d="m 9.1216833,41.628218 c -0.820484,0.907863 -0.902256,2.325425 -0.43619,3.414524 0.858859,1.545264 2.9735627,1.598358 4.0684157,2.883381 1.901746,2.10738 2.200939,5.145358 3.950567,7.349801 0.859108,1.190428 1.881044,2.315556 2.925725,3.343888 0.47129,0.681707 1.020712,0.421488 0.704488,-0.356971 -0.341436,-1.162321 -1.162578,-2.121121 -1.368738,-3.335951 -0.361196,-0.636076 0.132411,-1.518647 0.783886,-0.724166 0.97143,1.080023 1.940368,2.140721 2.95725,3.170847 0.906692,0.865115 2.219755,0.897462 3.403864,1.067892 0.881942,0.124318 1.85546,-0.06109 2.642044,0.433255 0.321428,0.757294 -0.291338,1.60537 0.05727,2.341487 0.884668,0.713827 0.912955,-1.283875 1.849111,-1.199163 0.688878,-0.02519 0.71302,-0.749667 0.672004,-1.265247 -0.09059,-0.649182 0.698354,-0.766075 0.82762,-1.305119 -0.212007,-0.819805 -1.270401,-0.206098 -1.826961,-0.109646 -0.65597,0.205307 -0.951237,-0.566586 -0.78544,-1.094235 0.129555,-0.70056 0.728597,-1.149666 1.275878,-1.583299 0.608687,-0.532993 1.034769,-1.220775 1.417426,-1.939808 0.322908,-0.803038 1.39243,-0.442349 1.668648,0.184472 0.200943,0.546953 1.040386,0.93114 1.16651,0.128851 -0.182003,-0.584739 -0.116761,-1.22433 0.526762,-1.487229 0.690448,-0.184231 0.493324,-0.854506 0.212869,-1.3066 -0.460253,-0.646928 1.059399,-1.083483 0.171369,-1.46984 -0.74267,-0.204656 -1.238914,0.598489 -1.639503,1.06653 -0.159791,1.029479 -1.324754,0.895538 -1.543677,0.0452 -0.273591,-1.409406 -1.134346,-2.675592 -2.387202,-3.380182 -0.793475,-0.666798 -1.758154,-1.068418 -2.681648,-1.510677 -0.708486,-0.290077 -1.688649,-0.683033 -2.244557,-1.285156 -0.111353,-0.741767 0.865025,-0.537195 1.320073,-0.556519 1.135883,-0.03286 2.268612,0.250865 3.164929,0.969861 0.288303,0.467203 1.048542,1.402028 1.269715,0.377088 -0.08886,-0.808733 -1.032786,-1.062159 -1.518352,-1.593529 -0.989629,-0.784838 -2.246696,-1.318273 -3.440763,-1.703608 -1.559205,-0.539092 -3.241095,-0.28718 -4.856771,-0.156056 -1.69239,0.150776 -3.409595,0.27182 -5.015783,0.889463 -0.778144,0.197184 -1.678472,0.263851 -2.326779,-0.292257 -0.85659,-0.276274 -1.271671,-1.008919 -1.433176,-1.841499 -0.339753,-0.795739 -0.133301,-1.662113 -0.191472,-2.491361 -0.761367,-0.634801 -0.817311,1.374644 -1.381968,1.84366 -0.480375,0.823435 -0.956405,1.647742 -1.7234957,2.229204 0.05531,-0.0059 -0.339557,0.294387 -0.233966,0.248742 z"
       id="path3964"
       inkscape:connector-curvature="0" /><path
       style="fill:#bca034;fill-opacity:1;stroke:none"
       d="m 19.883748,112.9234 c 0.343757,1.29514 2.100447,1.0015 2.690686,0.0807 1.092153,-1.41602 1.80841,-3.05919 2.896234,-4.48053 0.701772,-1.53394 2.779742,-2.39517 2.584172,-4.30794 -0.262302,-1.79216 1.742666,-0.21116 2.608552,-0.87494 1.449657,-0.0684 2.747373,-1.17205 3.329365,-2.49558 0.550732,-1.722347 0.3047,-3.597509 -0.09903,-5.322426 -0.298951,-1.429603 -1.68802,-1.897803 -2.982565,-1.913879 -1.253568,-0.190872 -2.396823,-0.839934 -3.685321,-0.827267 -1.670893,0.132892 -0.112501,-1.289517 -0.44689,-1.75397 -0.70533,0.498213 -3.007553,1.440232 -1.78801,-0.244619 1.23669,-2.02934 2.293576,-4.617684 1.181964,-6.93499 -0.694633,-1.20934 -1.332191,-2.706661 -2.793489,-3.138181 -1.391998,-0.286084 -2.918815,0.0091 -4.177482,0.655742 -1.283282,0.369445 -1.461263,2.008928 -2.041522,2.744187 -0.961211,-0.290509 -1.982649,-0.805468 -2.981098,-0.315398 -1.045886,0.631936 -2.230287,0.865884 -3.431752,0.989261 -1.8729112,0.256086 -3.9189178,0.349239 -5.495154,1.507215 -0.1852582,1.254137 1.5276683,2.077624 2.2038955,3.041996 1.9375453,1.573683 3.7882265,3.355229 6.1770365,4.23033 1.650376,0.706156 3.405196,1.110353 5.141238,1.536684 0.705729,0.451063 -1.256525,1.922134 0.403083,1.779811 1.317447,0.484219 -0.157824,2.293104 -0.236465,3.267224 -0.6131,2.88104 -0.435458,5.86435 -0.217617,8.78161 0.124595,1.39666 0.470738,2.76646 1.160167,3.99501 z"
       id="path6462"
       inkscape:connector-curvature="0" /><path
       style="fill:#bca034;fill-opacity:1;stroke:none"
       d="m 116.14244,89.88845 c 0.75003,-0.993003 0.83626,-2.276647 0.69283,-3.475791 -0.20572,-0.738415 0.0743,-2.348384 -0.15472,-2.521104 -0.81587,1.147441 -1.85924,2.458271 -3.47687,1.942551 -1.73171,-0.455377 -3.44136,-1.509023 -5.29749,-1.032869 -1.74741,0.316707 -3.11506,1.622536 -3.91525,3.154478 -1.24132,1.881093 -2.59306,3.793716 -3.03537,6.048408 -0.966646,-1.223812 -3.106159,-2.453584 -2.848336,-4.049748 0.42447,-0.533298 1.55805,-2.136751 0.28875,-1.139119 -1.14147,1.17571 1.01261,-2.780734 -0.323543,-1.235826 -0.484472,0.418761 -0.37758,2.188853 -0.706916,0.673601 -0.382533,1.22961 0.259247,2.642885 -0.512822,3.774512 0.385258,-0.689266 0.790629,-1.409351 1.380521,-0.443758 0.79867,0.91105 2.127156,2.244171 2.161606,3.238913 -1.612456,1.178746 -2.587463,-1.580587 -3.855521,-2.247412 -1.558445,-0.66635 -0.26465,-2.017424 -0.326881,-3.174127 -0.166257,-0.334822 -0.629053,2.360541 -0.645936,0.803103 0.112936,-0.455008 0.236053,-1.904271 -0.13078,-0.709004 -0.160437,0.706907 0.0044,2.727325 -0.661172,1.071844 -0.524364,-0.527958 -0.0263,1.090454 0.427615,1.356412 0.999894,0.480432 -0.792323,2.312915 0.136838,1.992522 0.19703,-0.965864 0.855051,-1.636476 1.507542,-0.560808 1.006691,0.995741 1.821769,2.736485 3.473495,2.604432 0.81308,-0.03042 0.1981,1.834599 0.38848,2.598019 -0.19161,1.457901 -1.741446,2.410661 -2.099616,3.889981 0.96229,0.42607 2.131046,-1.29326 2.522076,-0.94811 -0.50947,1.37766 -0.1509,3.01257 -1.10641,4.18784 -1.288336,2.14439 -2.209101,4.49882 -2.808452,6.92445 0.210274,0.97612 1.511196,0.003 2.017146,0.87972 1.331896,-0.6097 1.256426,-2.90158 1.976266,-4.20693 0.77182,-2.10332 1.37889,-4.28096 2.30755,-6.317 2.00006,-3.419551 5.35273,-5.763362 7.47438,-9.09681 1.40596,-1.700429 3.55847,-2.497852 5.151,-3.98241 z"
       id="path25264"
       inkscape:connector-curvature="0" /><path
       style="fill:#bca034;fill-opacity:1;stroke:none"
       d="m 106.2599,31.17004 c -1.23284,0.331803 -0.88445,-1.521913 -0.96795,-1.403624 -2.04666,1.180485 -4.48429,1.168021 -6.703244,1.794944 -0.89827,1.277658 0.31042,1.988801 1.552024,2.076764 1.02392,0.182169 2.10712,0.186381 3.0557,0.660953 0.45751,1.296743 -1.05366,2.257404 -1.83771,3.08345 -1.652304,1.22638 -4.155444,1.604397 -4.981974,3.720472 -0.404894,1.534616 -1.348941,2.916566 -2.775246,3.67068 -1.310436,0.661434 -2.427313,1.595273 -3.555879,2.512594 -0.703818,0.734966 -3.717542,-0.107629 -1.972026,1.206331 1.026226,0.92319 2.481657,-0.244945 3.511211,-0.726025 0.83671,-0.450858 2.287905,-1.439868 2.925132,-1.146151 -0.571091,1.664773 -1.636397,3.503914 -0.811279,5.269614 0.945432,-0.639723 1.375658,-1.412763 0.916829,-2.425939 0.407507,-1.330219 0.828374,-4.423065 2.819208,-3.237822 1.19157,0.804024 1.842,2.179499 2.766784,3.257911 0.57978,1.097356 2.00679,1.999332 1.97332,3.240749 -0.51797,1.084176 -0.3373,2.739234 -0.97258,3.506508 -1.760394,0.571399 -3.753294,-0.768978 -5.386337,0.375946 -0.343684,0.739669 -1.909226,2.730641 -0.130569,2.052596 1.028462,-0.25932 1.312022,-1.585088 2.656352,-1.3388 1.40179,-0.05721 2.731184,0.484118 4.112224,0.621941 -0.0311,-0.929843 0.57679,-2.791588 1.48146,-1.906247 0.68486,1.712222 -0.3315,3.493056 -1.49746,4.717074 -1.01355,1.061208 -2.23684,1.886602 -3.322774,2.867449 -0.82333,0.356923 -3.389487,-1.417818 -2.0967,0.150479 0.77448,1.513231 2.5735,0.875399 3.639064,0.104108 1.12039,-0.757439 2.13571,-1.703546 3.41835,-2.186575 1.43228,-0.805169 0.84165,-3.152467 2.54124,-3.608812 0.83525,-0.253326 2.96939,-1.261154 1.80084,0.319592 -0.48469,1.182557 -1.43848,3.419689 0.28418,4.008334 0.36226,-1.159277 0.7357,-3.319642 1.61137,-4.69594 0.73925,-1.602902 1.72602,-3.370167 1.11803,-5.176892 -0.50458,-2.086804 -1.71331,-3.948228 -3.27701,-5.398589 -1.448,-1.471682 -2.63899,-3.564981 -2.09181,-5.682301 0.61168,-1.143958 0.96612,-2.382018 0.91492,-3.688404 0.13118,-1.812424 -0.25228,-3.636599 -1.14605,-5.22155 -0.27408,-0.519361 -0.23339,-1.203857 0.42836,-1.374817 z"
       id="path25270"
       inkscape:connector-curvature="0" /><path
       style="fill:#000000;stroke:#000000;stroke-width:0.00597361"
       inkscape:connector-curvature="0"
       d="m 143.63726,30.688528 c -0.0306,-0.03377 -0.0306,-0.03377 0,0 z"
       id="path25290" /></g></svg>