<?xml version="1.0" encoding="UTF-8" standalone="no"?>
<!-- Created with Inkscape (http://www.inkscape.org/) -->

<svg
   xmlns:dc="http://purl.org/dc/elements/1.1/"
   xmlns:cc="http://creativecommons.org/ns#"
   xmlns:rdf="http://www.w3.org/1999/02/22-rdf-syntax-ns#"
   xmlns:svg="http://www.w3.org/2000/svg"
   xmlns="http://www.w3.org/2000/svg"
   xmlns:sodipodi="http://sodipodi.sourceforge.net/DTD/sodipodi-0.dtd"
   xmlns:inkscape="http://www.inkscape.org/namespaces/inkscape"
   id="svg2"
   version="1.1"
   inkscape:version="0.48.5 r10040"
   width="156"
   height="180"
   xml:space="preserve"
   sodipodi:docname="berlinopendata.svg"><metadata
     id="metadata8"><rdf:RDF><cc:Work
         rdf:about=""><dc:format>image/svg+xml</dc:format><dc:type
           rdf:resource="http://purl.org/dc/dcmitype/StillImage" /><dc:title /></cc:Work></rdf:RDF></metadata><defs
     id="defs6"><clipPath
       clipPathUnits="userSpaceOnUse"
       id="clipPath24"><path
         d="m 0,198.425 198.425,0 L 198.425,0 0,0 0,198.425 z"
         id="path26"
         inkscape:connector-curvature="0" /></clipPath><clipPath
       id="clipPath24-6"
       clipPathUnits="userSpaceOnUse"><path
         id="path26-8"
         d="m 19.842,82.579 411.315,0 0,324.902 -411.315,0 0,-324.902 z" /></clipPath></defs><sodipodi:namedview
     pagecolor="#ffffff"
     bordercolor="#666666"
     borderopacity="1"
     objecttolerance="10"
     gridtolerance="10"
     guidetolerance="10"
     inkscape:pageopacity="0"
     inkscape:pageshadow="2"
     inkscape:window-width="1443"
     inkscape:window-height="1256"
     id="namedview4"
     showgrid="false"
     inkscape:zoom="2.2552022"
     inkscape:cx="121.42298"
     inkscape:cy="12.860874"
     inkscape:window-x="619"
     inkscape:window-y="0"
     inkscape:window-maximized="0"
     inkscape:current-layer="g10" /><g
     id="g10"
     inkscape:groupmode="layer"
     inkscape:label="Codefor_Hex_sticker_ALL"
     transform="matrix(1.25,0,0,-1.25,0,180)"><path
       id="path14"
       style="fill:#ffffff;fill-opacity:1;fill-rule:nonzero;stroke:none"
       d="M 125,36 62.5,0 0,36 l 0,72.001 62.5,36 62.5,-36 L 125,36 z"
       inkscape:connector-curvature="0" /><text
       transform="scale(1,-1)"
       id="text12"
       x="-96.405251"
       y="181.2684"><tspan
         style="font-size:9.5px;font-variant:normal;font-weight:normal;font-stretch:normal;writing-mode:lr-tb;fill:#231f20;fill-opacity:1;fill-rule:nonzero;stroke:none;font-family:BMFChange;-inkscape-font-specification:BMFChange-Regular"
         x="-96.405251"
         y="181.2684"
         id="tspan14">2</tspan></text>
<g
       id="g20"
       transform="matrix(0.24622885,0,0,0.24622885,6.8754928,11.666668)"><g
         id="g22"
         clip-path="url(#clipPath24-6)"><g
           id="g28"
           transform="translate(66.3066,324.726)"><path
             inkscape:connector-curvature="0"
             d="m 0,0 -39.406,0 0,-23.695 33.774,0 c 3.388,0 6.543,0.026 9.477,0.074 0.292,0.006 0.576,0.026 0.866,0.034 L 7.152,1.343 C 6.38,0.983 5.559,0.698 4.668,0.5 3.203,0.162 1.65,0 0,0 m -39.406,-163.726 34.447,0 1.601,23.838 -36.048,0 0,-23.838 z M 60.98,18.302 l 21.056,0 0,9.746 20.957,-27.906 -42.013,0 0,18.16 z m 0,40.575 31.862,0 0,0.02 c 2.935,0.003 5.575,0.006 7.019,0.006 4.571,0 10.276,-0.255 12.503,-0.774 2.224,-0.522 4.175,-1.349 5.856,-2.486 1.683,-1.133 3.016,-2.624 4.006,-4.469 0.988,-1.845 1.485,-4.095 1.485,-6.742 0,-5.486 -1.757,-9.388 -5.269,-11.71 -3.51,-2.318 -7.932,-3.478 -13.272,-3.478 l -23.134,0 0,13.035 -21.056,0 0,16.598 z M 20.19,-20.005 c 2.559,1.228 5.169,3.027 7.825,5.394 3.205,2.742 5.586,6.217 7.145,10.425 0.253,0.683 0.475,1.37 0.688,2.055 l 0,-21.561 67.145,0 0,23.831 17.897,-23.834 32.636,0 -30.261,36.335 c 4.349,0.661 8.255,2.01 11.719,4.045 3.462,2.035 6.379,4.543 8.753,7.523 2.37,2.98 4.175,6.337 5.413,10.078 1.234,3.735 1.852,7.638 1.852,11.708 0,5.583 -1.161,10.953 -3.481,16.112 -2.328,5.155 -5.765,9.53 -10.312,13.126 -2.375,1.797 -4.944,3.191 -7.709,4.186 -2.775,0.992 -5.639,1.749 -8.61,2.274 -2.965,0.515 -5.958,0.824 -8.971,0.92 -3.017,0.093 -5.962,0.142 -8.827,0.142 l -24.327,0 0,-0.04 -42.917,0 0,-63.989 c -0.669,1.859 -1.54,3.587 -2.614,5.18 -2.837,4.209 -7.095,7.309 -12.771,9.294 3.934,2.173 6.935,5.181 8.996,9.011 2.06,3.826 3.089,8.012 3.089,12.555 0,3.307 -0.505,6.408 -1.511,9.293 -1.009,2.885 -2.607,5.554 -4.804,8.014 -2.198,2.554 -4.559,4.541 -7.076,5.96 -2.518,1.417 -5.171,2.458 -7.965,3.121 -2.792,0.663 -5.68,1.065 -8.652,1.204 -2.976,0.145 -6.02,0.216 -9.132,0.216 l -32.814,0 0,-23.835 36.387,0 c 1.372,0 2.674,-0.099 3.911,-0.286 1.235,-0.192 2.335,-0.592 3.295,-1.204 0.962,-0.618 1.716,-1.469 2.265,-2.554 0.552,-1.09 0.826,-2.485 0.826,-4.185 0,-3.313 -1.006,-5.535 -3.021,-6.669 -2.015,-1.134 -4.486,-1.703 -7.418,-1.703 l -36.245,0 0,-22.701 39.406,0 c 1.552,0 3.089,-0.119 4.6,-0.357 1.51,-0.233 2.837,-0.685 3.982,-1.344 1.145,-0.662 2.062,-1.609 2.745,-2.836 0.689,-1.23 1.032,-2.795 1.032,-4.685 0,-1.984 -0.343,-3.642 -1.032,-4.965 C 10.644,3.922 9.727,2.883 8.582,2.128 8.132,1.832 7.652,1.576 7.152,1.343 l 2.692,-24.472 c 0.821,0.123 1.64,0.261 2.447,0.429 2.703,0.569 5.333,1.465 7.899,2.695 M 72.54,-192.81 c 0,5.957 -0.731,11.753 -2.196,17.38 -1.465,5.626 -3.891,10.902 -7.278,15.82 -2.934,4.159 -6.091,7.541 -9.475,10.143 -3.39,2.599 -6.986,4.613 -10.784,6.031 -3.8,1.418 -7.827,2.364 -12.086,2.836 -3.94,0.435 -8.066,0.664 -12.361,0.696 l 1.651,-23.822 1.028,0 c 4.394,0 8.173,-0.756 11.333,-2.267 3.158,-1.515 5.742,-3.573 7.756,-6.174 2.013,-2.602 3.503,-5.697 4.466,-9.29 0.96,-3.599 1.44,-7.524 1.44,-11.779 0,-4.254 -0.459,-8.181 -1.37,-11.776 -0.918,-3.599 -2.386,-6.69 -4.397,-9.293 -2.016,-2.602 -4.602,-4.612 -7.76,-6.03 -2.424,-1.087 -5.241,-1.749 -8.441,-2 l 1.645,-23.728 c 13.926,1.024 24.915,5.458 32.958,13.317 9.249,9.029 13.871,22.344 13.871,39.936 M 60.766,-81.792 c 0,29.949 -22.324,52.682 -50.447,54.345 l 2.907,-26.439 c 13.165,-2.919 21.484,-14.972 21.484,-27.892 0,-11.887 -7.177,-23.023 -18.513,-26.864 l 1.831,-26.485 c 24.39,4.994 42.738,26.321 42.738,53.335 m -96.533,32.982 c -2.866,-3.577 -5.275,-7.779 -6.628,-11.665 -2.864,-7.311 -4.069,-14.626 -4.069,-22.407 0,-26.742 19.083,-47.797 43.414,-52.409 l 1.777,26.504 c -11.911,3.644 -19.135,14.731 -19.135,27.437 0,13.478 8.597,25.248 22.171,27.674 l 2.571,26.269 c -16.193,-0.717 -30.249,-7.975 -40.101,-21.403 m -3.639,-197.489 28.91,0 1.6,23.836 -30.51,0 0,-23.836 z m 273.894,194.536 0,24.427 -80.962,0 0,-108.909 80.962,0 0,24.428 -55.209,0 0,18.515 28.976,0 0,24.577 -28.976,0 0,16.962 55.209,0 z m -96.842,16.647 c -8.734,7.621 -21.838,7.933 -32.68,7.933 l -40.671,0 0,-109.062 26.202,0 0,84.791 15.821,0 c 8.887,0 17.924,-1.4 17.924,-12.756 0,-11.203 -8.283,-13.226 -17.016,-13.226 l -13.198,0 0,-24.582 14.102,0 c 11.596,0 21.684,1.243 30.571,9.647 7.68,6.845 11.296,18.517 11.296,28.629 0,11.2 -4.069,21.779 -12.351,28.626 m 156.748,-174.151 0,29.654 0.412,0 17.031,-29.654 -17.443,0 z m -0.137,69.379 -26.09,0 0,-106.266 26.227,0 0,15.321 29.942,0 9.06,-15.321 31.454,0 -70.593,106.266 z m -140.731,-23.834 42.293,0 0,-82.577 26.238,0 0,82.577 42.577,0 0,23.834 -111.108,0 0,-23.834 z m -29.761,-45.545 -17.443,0 17.033,29.654 0.41,0 0,-29.654 z m -70.455,-36.887 31.453,0 9.063,15.321 29.939,0 0,-15.321 26.232,0 0,106.266 -26.095,0 -70.592,-106.266 z m 250.878,109.909 22.934,0 0,108.906 -24.169,0 0,-68.102 -0.276,-0.146 -39.826,68.248 -24.811,0 0,-108.906 26.596,0 -0.002,66.069 0.416,0.289 39.138,-66.358 z m -39.554,177.106 0.416,0.284 39.138,-64.837 22.934,0 0,106.406 -24.169,0 0,-66.54 -0.276,-0.141 -39.826,66.681 -24.811,0 0,-106.406 26.596,0 -0.002,64.553 z m -30.146,41.853 -26.233,0 0,-106.406 26.233,0 0,106.406 z m -29.76,-82.431 -24.971,0 0,82.431 -26.231,0 0,-106.406 51.202,0 0,23.975 z"
             style="fill:#4f4c4d;fill-opacity:1;fill-rule:nonzero;stroke:none"
             id="path30" /></g></g></g></g></svg>