<?xml version="1.0" encoding="UTF-8" standalone="no"?>
<!-- Created with Inkscape (http://www.inkscape.org/) -->

<svg
   xmlns:dc="http://purl.org/dc/elements/1.1/"
   xmlns:cc="http://creativecommons.org/ns#"
   xmlns:rdf="http://www.w3.org/1999/02/22-rdf-syntax-ns#"
   xmlns:svg="http://www.w3.org/2000/svg"
   xmlns="http://www.w3.org/2000/svg"
   xmlns:sodipodi="http://sodipodi.sourceforge.net/DTD/sodipodi-0.dtd"
   xmlns:inkscape="http://www.inkscape.org/namespaces/inkscape"
   id="svg2"
   version="1.1"
   inkscape:version="0.48.5 r10040"
   width="156"
   height="180"
   xml:space="preserve"
   sodipodi:docname="bicycle.svg"><metadata
     id="metadata8"><rdf:RDF><cc:Work
         rdf:about=""><dc:format>image/svg+xml</dc:format><dc:type
           rdf:resource="http://purl.org/dc/dcmitype/StillImage" /><dc:title /></cc:Work></rdf:RDF></metadata><defs
     id="defs6"><clipPath
       clipPathUnits="userSpaceOnUse"
       id="clipPath24"><path
         d="m 0,198.425 198.425,0 L 198.425,0 0,0 0,198.425 z"
         id="path26"
         inkscape:connector-curvature="0" /></clipPath></defs><sodipodi:namedview
     pagecolor="#ffffff"
     bordercolor="#666666"
     borderopacity="1"
     objecttolerance="10"
     gridtolerance="10"
     guidetolerance="10"
     inkscape:pageopacity="0"
     inkscape:pageshadow="2"
     inkscape:window-width="1308"
     inkscape:window-height="875"
     id="namedview4"
     showgrid="false"
     inkscape:zoom="3.8833333"
     inkscape:cx="98.214592"
     inkscape:cy="90"
     inkscape:window-x="0"
     inkscape:window-y="1"
     inkscape:window-maximized="0"
     inkscape:current-layer="g10" /><g
     id="g10"
     inkscape:groupmode="layer"
     inkscape:label="Codefor_Hex_sticker_ALL"
     transform="matrix(1.25,0,0,-1.25,0,180)"><path
       id="path14"
       style="fill:#2c5aa0;fill-opacity:1;fill-rule:nonzero;stroke:none"
       d="M 124.8,35.99975 62.4,-1.6e-7 0,35.99975 0,108.00025 62.4,144 l 62.4,-35.99975 0,-72.0005 z"
       inkscape:connector-curvature="0" /><path
       style="font-size:medium;font-style:normal;font-variant:normal;font-weight:normal;font-stretch:normal;text-indent:0;text-align:start;text-decoration:none;line-height:normal;letter-spacing:normal;word-spacing:normal;text-transform:none;direction:ltr;block-progression:tb;writing-mode:lr-tb;text-anchor:start;baseline-shift:baseline;color:#000000;fill:#ffffff;fill-opacity:1;stroke:none;stroke-width:3.20000005;marker:none;visibility:visible;display:inline;overflow:visible;enable-background:accumulate;font-family:Sans;-inkscape-font-specification:Sans"
       d="M 62.275012,0.00276029 A 1.5999983,1.6001984 0 0 0 61.587581,0.22151553 L 0.81247351,35.409859 A 1.5999983,1.6001984 0 0 0 5.5621532e-5,36.816143 l 0,70.376687 A 1.5999983,1.6001984 0 0 0 0.81247351,108.59911 L 61.587581,143.78746 a 1.5999983,1.6001984 0 0 0 1.593588,0 l 60.806371,-35.18835 a 1.5999983,1.6001984 0 0 0 0.8124,-1.40628 l 0,-70.376687 a 1.5999983,1.6001984 0 0 0 -0.8124,-1.406284 L 63.181169,0.22151553 A 1.5999983,1.6001984 0 0 0 62.275012,0.00276029 z m 0.124987,3.46883311 59.181521,34.2508206 0,68.564146 -59.181521,34.25082 -59.2127655,-34.28207 0,-68.501645 L 62.399999,3.4715934 z"
       id="path3984"
       inkscape:connector-curvature="0" /><path
       style="font-size:medium;font-style:normal;font-variant:normal;font-weight:normal;font-stretch:normal;text-indent:0;text-align:start;text-decoration:none;line-height:normal;letter-spacing:normal;word-spacing:normal;text-transform:none;direction:ltr;block-progression:tb;writing-mode:lr-tb;text-anchor:start;baseline-shift:baseline;color:#000000;fill:#ffffff;fill-opacity:1;stroke:none;stroke-width:40px;marker:none;visibility:visible;display:inline;overflow:visible;enable-background:accumulate;font-family:Sans;-inkscape-font-specification:Sans"
       d="m 59.284807,126.65073 c -5.659085,-0.0552 -4.701232,0.58465 -7.745887,-9.20016 -0.45488,0.0839 -0.92974,0.12247 -1.408342,0.12247 -4.257197,0 -7.730578,-3.45807 -7.730578,-7.71527 0,-4.25719 3.473381,-7.73057 7.730578,-7.73057 4.257197,0 7.730577,3.47338 7.730577,7.73057 0,3.18081 -1.944496,5.92019 -4.699579,7.10296 0.20556,0.64839 0.319263,0.99297 0.5664,1.76041 11.385586,-12.01068 7.114179,-10.05841 13.241484,-10.30233 0.05177,5e-4 0.08661,-4.4e-4 0.137772,0 0.727819,-3.50892 3.842215,-6.16914 7.562189,-6.16914 4.257198,0 7.730579,3.47338 7.730579,7.73057 0,4.2572 -3.47338,7.73057 -7.730579,7.73057 -0.860534,0 -1.675275,-0.15195 -2.449291,-0.41332 -0.754916,1.67062 -0.954704,2.10901 -2.173747,4.82204 l 0.520475,1.45427 1.821661,0.0306 -0.06123,1.53081 -6.781477,0 c -0.599371,-0.81999 0.242306,-0.82728 3.275928,-1.50019 l -0.535782,-1.48488 -13.532339,-0.0306 c 0.911926,3.18439 0.39691,2.97713 4.500574,2.96977 l 0.03061,1.56143 z m 8.327592,-6.13854 -3.827019,-10.28703 -9.429774,10.25641 13.256793,0.0306 z m 1.59204,-0.64294 1.484884,-3.29123 c -2.225329,-1.35171 -3.724282,-3.78377 -3.73517,-6.56717 l -1.500192,0 3.750479,9.8584 z m 5.464982,-3.87294 c 3.334369,0 6.031383,-2.6817 6.031383,-6.01607 0,-3.33437 -2.697008,-6.01607 -6.031383,-6.01607 -2.791511,0 -5.115055,1.88539 -5.801759,4.45464 6.194048,-0.006 6.816805,-0.3104 6.903942,0.76541 -0.0078,0.28401 -0.825529,2.09716 -2.847302,6.56717 0.55277,0.16639 1.136735,0.24492 1.74512,0.24492 z m -24.538843,-0.12246 c 0.304768,0 0.59551,-0.0332 0.887868,-0.0765 -1.80287,-5.68663 -1.687443,-5.36616 -1.699196,-5.863 -0.0091,-0.42604 0.33324,-0.76711 0.765404,-0.79602 0.761397,0.077 0.742346,0.34068 2.571756,6.18446 2.064655,-0.95201 3.490241,-3.03457 3.490241,-5.46498 0,-3.33437 -2.681703,-6.03138 -6.016073,-6.03138 -3.334371,0 -6.016073,2.69701 -6.016073,6.03138 0,3.33437 2.681702,6.01608 6.016073,6.01608 z m 21.262915,-0.84194 2.265596,-5.03636 -5.005741,0.0153 c 0.01059,2.10991 1.096934,3.95526 2.740145,5.02105 z"
       id="FrontWheel"
       inkscape:connector-curvature="0" /><path
       style="font-size:medium;font-style:normal;font-variant:normal;font-weight:normal;font-stretch:normal;text-indent:0;text-align:start;text-decoration:none;line-height:normal;letter-spacing:normal;word-spacing:normal;text-transform:none;direction:ltr;block-progression:tb;writing-mode:lr-tb;text-anchor:start;baseline-shift:baseline;color:#000000;fill:#2c5aa0;fill-opacity:1;stroke:none;stroke-width:0.80000001;marker:none;visibility:visible;display:inline;overflow:visible;enable-background:accumulate;font-family:Sans;-inkscape-font-specification:Sans"
       d="m 62.244774,0.00321362 c -0.291501,0.02358971 -0.58467,0.13416728 -0.838209,0.2796994 -0.0084,0.004868 -0.02263,-0.004997 -0.03104,0 L 1.0245416,35.276417 C 0.40046965,35.629666 -0.00591283,36.299104 6.5069494e-5,37.016768 l 0,69.987012 C -0.00591241,107.72144 0.40046965,108.39088 1.0245416,108.74412 l 60.3820234,34.99351 c 0.608528,0.34983 1.347292,0.34983 1.955819,0 l 60.413076,-34.99351 c 0.62407,-0.35324 1.03046,-1.02268 1.02447,-1.74034 l 0,-69.987012 c 0.006,-0.717664 -0.4004,-1.387102 -1.02447,-1.740351 L 63.362384,0.28291302 c -0.339259,-0.20010465 -0.72452,-0.30284242 -1.11761,-0.2796994 z m 0.06209,0.8080205 c 0.23235,-0.0136795 0.482453,0.0371097 0.682984,0.15538857 L 123.40292,35.960126 c 0.35795,0.202614 0.59328,0.64501 0.58985,1.056642 l 0,69.987012 c 0.003,0.41162 -0.2319,0.85402 -0.58985,1.05664 l -60.413073,34.9935 c -0.349606,0.20098 -0.861138,0.20098 -1.210745,0 L 1.3970785,108.06042 C 1.0391289,107.8578 0.80379963,107.4154 0.80722838,107.00378 l 0,-69.987012 C 0.80380004,36.605136 1.0391289,36.16274 1.3970785,35.960126 L 61.779102,0.96662269 l 0.03104,0 c 0.15457,-0.0917961 0.317576,-0.14089171 0.496716,-0.15538857 z"
       id="path3820"
       inkscape:connector-curvature="0"
       sodipodi:nodetypes="cccccccccccccccccccccccccccccc" /></g></svg>