<?xml version="1.0" encoding="UTF-8" standalone="no"?>
<!-- Created with Inkscape (http://www.inkscape.org/) -->

<svg
   xmlns:dc="http://purl.org/dc/elements/1.1/"
   xmlns:cc="http://creativecommons.org/ns#"
   xmlns:rdf="http://www.w3.org/1999/02/22-rdf-syntax-ns#"
   xmlns:svg="http://www.w3.org/2000/svg"
   xmlns="http://www.w3.org/2000/svg"
   xmlns:sodipodi="http://sodipodi.sourceforge.net/DTD/sodipodi-0.dtd"
   xmlns:inkscape="http://www.inkscape.org/namespaces/inkscape"
   id="svg2"
   version="1.1"
   inkscape:version="0.91 r13725"
   width="156"
   height="180"
   xml:space="preserve"
   sodipodi:docname="blueprintcard.svg"><metadata
     id="metadata8"><rdf:RDF><cc:Work
         rdf:about=""><dc:format>image/svg+xml</dc:format><dc:type
           rdf:resource="http://purl.org/dc/dcmitype/StillImage" /><dc:title /></cc:Work></rdf:RDF></metadata><defs
     id="defs6"><clipPath
       clipPathUnits="userSpaceOnUse"
       id="clipPath24"><path
         d="m 0,198.425 198.425,0 L 198.425,0 0,0 0,198.425 z"
         id="path26"
         inkscape:connector-curvature="0" /></clipPath><clipPath
       id="clipPath24-9"
       clipPathUnits="userSpaceOnUse"><path
         inkscape:connector-curvature="0"
         id="path26-7"
         d="m 0,198.425 198.425,0 L 198.425,0 0,0 0,198.425 z" /></clipPath><clipPath
       id="clipPath24-3"
       clipPathUnits="userSpaceOnUse"><path
         inkscape:connector-curvature="0"
         id="path26-6"
         d="m 0,198.425 198.425,0 L 198.425,0 0,0 0,198.425 z" /></clipPath></defs><sodipodi:namedview
     pagecolor="#ffffff"
     bordercolor="#666666"
     borderopacity="1"
     objecttolerance="10"
     gridtolerance="10"
     guidetolerance="10"
     inkscape:pageopacity="0"
     inkscape:pageshadow="2"
     inkscape:window-width="1440"
     inkscape:window-height="800"
     id="namedview4"
     showgrid="false"
     inkscape:zoom="3.3222222"
     inkscape:cx="74.086957"
     inkscape:cy="90"
     inkscape:window-x="0"
     inkscape:window-y="1"
     inkscape:window-maximized="1"
     inkscape:current-layer="g10" /><g
     id="g10"
     inkscape:groupmode="layer"
     inkscape:label="Codefor_Hex_sticker_ALL"
     transform="matrix(1.25,0,0,-1.25,0,180)"><path
       id="path14"
       style="fill:#2c71b8;fill-opacity:1;fill-rule:nonzero;stroke:none"
       d="M 124.8,35.99975 62.4,-1.6e-7 0,35.99975 0,108.00025 62.4,144 l 62.4,-35.99975 0,-72.0005 z"
       inkscape:connector-curvature="0" /><path
       style="font-size:medium;font-style:normal;font-variant:normal;font-weight:normal;font-stretch:normal;text-indent:0;text-align:start;text-decoration:none;line-height:normal;letter-spacing:normal;word-spacing:normal;text-transform:none;direction:ltr;block-progression:tb;writing-mode:lr-tb;text-anchor:start;baseline-shift:baseline;color:#000000;fill:#ffffff;fill-opacity:1;stroke:none;stroke-width:3.20000005;marker:none;visibility:visible;display:inline;overflow:visible;enable-background:accumulate;font-family:Sans;-inkscape-font-specification:Sans"
       d="m 62.28125,0 a 1.60016,1.60016 0 0 0 -0.6875,0.21875 L 0.8125,35.40625 A 1.60016,1.60016 0 0 0 0,36.8125 l 0,70.375 a 1.60016,1.60016 0 0 0 0.8125,1.40625 l 60.78125,35.1875 a 1.60016,1.60016 0 0 0 1.59375,0 L 124,108.59375 a 1.60016,1.60016 0 0 0 0.8125,-1.40625 l 0,-70.375 A 1.60016,1.60016 0 0 0 124,35.40625 L 63.1875,0.21875 A 1.60016,1.60016 0 0 0 62.28125,0 z m 0.125,3.46875 59.1875,34.25 0,68.5625 -59.1875,34.25 L 3.1875,106.25 l 0,-68.5 59.21875,-34.28125 z"
       id="path3984"
       inkscape:connector-curvature="0" /><path
       style="color:#000000;font-style:normal;font-variant:normal;font-weight:normal;font-stretch:normal;font-size:medium;line-height:normal;font-family:sans-serif;text-indent:0;text-align:start;text-decoration:none;text-decoration-line:none;text-decoration-style:solid;text-decoration-color:#000000;letter-spacing:normal;word-spacing:normal;text-transform:none;direction:ltr;block-progression:tb;writing-mode:lr-tb;baseline-shift:baseline;text-anchor:start;white-space:normal;clip-rule:nonzero;display:inline;overflow:visible;visibility:visible;opacity:1;isolation:auto;mix-blend-mode:normal;color-interpolation:sRGB;color-interpolation-filters:linearRGB;solid-color:#000000;solid-opacity:1;fill:#ffffff;fill-opacity:1;fill-rule:nonzero;stroke:none;stroke-width:0.80000001;stroke-linecap:butt;stroke-linejoin:miter;stroke-miterlimit:4;stroke-dasharray:3.2, 3.2;stroke-dashoffset:0;stroke-opacity:1;color-rendering:auto;image-rendering:auto;shape-rendering:auto;text-rendering:auto;enable-background:accumulate"
       d="m 7.09375,48.125 0.4257812,0 2.7734378,0 0.427734,0 0,-0.800781 -0.427734,0 -2.7734378,0 -0.4257812,0 z m 6.400391,0 0.425781,0 2.773437,0 0.425782,0 0,-0.800781 -0.425782,0 -2.773437,0 -0.425781,0 z m 6.398437,0 0.427734,0 2.773438,0 0.425781,0 0,-0.800781 -0.425781,0 -2.773438,0 -0.427734,0 z m 6.400391,0 0.427734,0 2.773438,0 0.425781,0 0,-0.800781 -0.425781,0 -2.773438,0 -0.427734,0 z m 6.40039,0 0.425782,0 2.773437,0 0.427734,0 0,-0.800781 -0.427734,0 -2.773437,0 -0.425782,0 z m 6.400391,0 0.425781,0 2.773438,0 0.427734,0 0,-0.800781 -0.427734,0 -2.773438,0 -0.425781,0 z m 6.400391,0 0.425781,0 2.773437,0 0.425782,0 0,-0.800781 -0.425782,0 -2.773437,0 -0.425781,0 z m 6.398437,0 0.427734,0 2.773438,0 0.425781,0 0,-0.800781 -0.425781,0 -2.773438,0 -0.427734,0 z m 6.400391,0 0.427734,0 2.773438,0 0.425781,0 0,-0.800781 -0.425781,0 -2.773438,0 -0.427734,0 z m 6.40039,0 0.425782,0 2.773437,0 0.427734,0 0,-0.800781 -0.427734,0 -2.773437,0 -0.425782,0 z m 6.400391,0 0.425781,0 2.773438,0 0.427734,0 0,-0.800781 -0.427734,0 -2.773438,0 -0.425781,0 z m 6.400391,0 0.425781,0 2.773437,0 0.425782,0 0,-0.800781 -0.425782,0 -2.773437,0 -0.425781,0 z m 6.398437,0 0.427734,0 2.773438,0 0.425781,0 0,-0.800781 -0.425781,0 -2.773438,0 -0.427734,0 z m 6.400391,0 0.427734,0 2.773438,0 0.425781,0 0,-0.800781 -0.425781,0 -2.773438,0 -0.427734,0 z m 6.40039,0 0.425782,0 2.773437,0 0.427732,0 0,-0.800781 -0.427732,0 -2.773437,0 -0.425782,0 z m 6.400391,0 0.42578,0 2.77344,0 0.42773,0 0,-0.800781 -0.42773,0 -2.77344,0 -0.42578,0 z m 6.40039,0 0.42578,0 2.77344,0 0.42578,0 0,-0.800781 -0.42578,0 -2.77344,0 -0.42578,0 z m 6.39844,0 0.42773,0 1.38672,0 0,-0.800781 -1.38672,0 -0.42773,0 z M 7.2011719,61.400391 l 0.080078,0 3.119141,0 0.08203,0 0,-0.800782 -0.08203,0 -3.119141,0 -0.080078,0 z m 6.3984371,0 0.08203,0 3.11914,0 0.08008,0 0,-0.800782 -0.08008,0 -3.11914,0 -0.08203,0 z m 6.400391,0 0.08203,0 3.119141,0 0.08008,0 0,-0.800782 -0.08008,0 -3.119141,0 -0.08203,0 z m 6.400391,0 0.08203,0 3.117187,0 0.08203,0 0,-0.800782 -0.08203,0 -3.117187,0 -0.08203,0 z m 6.40039,0 0.08008,0 3.119141,0 0.08203,0 0,-0.800782 -0.08203,0 -3.119141,0 -0.08008,0 z m 6.400391,0 0.08008,0 3.119141,0 0.08203,0 0,-0.800782 -0.08203,0 -3.119141,0 -0.08008,0 z m 6.398437,0 0.08203,0 3.11914,0 0.08008,0 0,-0.800782 -0.08008,0 -3.11914,0 -0.08203,0 z m 6.400391,0 0.08203,0 3.119141,0 0.08008,0 0,-0.800782 -0.08008,0 -3.119141,0 -0.08203,0 z m 6.400391,0 0.08203,0 3.117187,0 0.08203,0 0,-0.800782 -0.08203,0 -3.117187,0 -0.08203,0 z m 6.40039,0 0.08008,0 3.119141,0 0.08203,0 0,-0.800782 -0.08203,0 -3.119141,0 -0.08008,0 z m 6.400391,0 0.08008,0 3.119141,0 0.08203,0 0,-0.800782 -0.08203,0 -3.119141,0 -0.08008,0 z m 6.398437,0 0.08203,0 3.11914,0 0.08008,0 0,-0.800782 -0.08008,0 -3.11914,0 -0.08203,0 z m 6.400391,0 0.08203,0 3.119141,0 0.08008,0 0,-0.800782 -0.08008,0 -3.119141,0 -0.08203,0 z m 6.400391,0 0.08203,0 3.117187,0 0.08203,0 0,-0.800782 -0.08203,0 -3.117187,0 -0.08203,0 z m 6.40039,0 0.08008,0 3.119141,0 0.082,0 0,-0.800782 -0.082,0 -3.119141,0 -0.08008,0 z m 6.400389,0 0.0801,0 3.11914,0 0.082,0 0,-0.800782 -0.082,0 -3.11914,0 -0.0801,0 z m 6.39844,0 0.082,0 3.11914,0 0.0801,0 0,-0.800782 -0.0801,0 -3.11914,0 -0.082,0 z m 6.40039,0 0.082,0 1.55859,0 0,-0.800782 -1.55859,0 -0.082,0 z m -108.7460938,26.52539 0.060547,0 3.1386719,0 0.06055,0 0,-0.800781 -0.06055,0 -3.1386719,0 -0.060547,0 z m 6.4003908,0 0.06055,0 3.138672,0 0.06055,0 0,-0.800781 -0.06055,0 -3.138672,0 -0.06055,0 z m 6.398437,0 0.0625,0 3.138672,0 0.06055,0 0,-0.800781 -0.06055,0 -3.138672,0 -0.0625,0 z m 6.400391,0 0.06055,0 3.140625,0 0.06055,0 0,-0.800781 -0.06055,0 -3.140625,0 -0.06055,0 z m 6.400391,0 0.06055,0 3.138672,0 0.0625,0 0,-0.800781 -0.0625,0 -3.138672,0 -0.06055,0 z m 6.40039,0 0.06055,0 3.138672,0 0.06055,0 0,-0.800781 -0.06055,0 -3.138672,0 -0.06055,0 z m 6.400391,0 0.06055,0 3.138672,0 0.06055,0 0,-0.800781 -0.06055,0 -3.138672,0 -0.06055,0 z m 6.398437,0 0.0625,0 3.138672,0 0.06055,0 0,-0.800781 -0.06055,0 -3.138672,0 -0.0625,0 z m 6.400391,0 0.06055,0 3.140625,0 0.06055,0 0,-0.800781 -0.06055,0 -3.140625,0 -0.06055,0 z m 6.400391,0 0.06055,0 3.138672,0 0.0625,0 0,-0.800781 -0.0625,0 -3.138672,0 -0.06055,0 z m 6.40039,0 0.06055,0 3.138672,0 0.06055,0 0,-0.800781 -0.06055,0 -3.138672,0 -0.06055,0 z m 6.400391,0 0.06055,0 3.138672,0 0.06055,0 0,-0.800781 -0.06055,0 -3.138672,0 -0.06055,0 z m 6.398437,0 0.0625,0 3.138672,0 0.06055,0 0,-0.800781 -0.06055,0 -3.138672,0 -0.0625,0 z m 6.400391,0 0.06055,0 3.140625,0 0.06055,0 0,-0.800781 -0.06055,0 -3.140625,0 -0.06055,0 z m 6.400391,0 0.06055,0 3.138668,0 0.0625,0 0,-0.800781 -0.0625,0 -3.138668,0 -0.06055,0 z m 6.400394,0 0.0605,0 3.13867,0 0.0606,0 0,-0.800781 -0.0606,0 -3.13867,0 -0.0605,0 z m 6.40039,0 0.0605,0 3.13868,0 0.0605,0 0,-0.800781 -0.0605,0 -3.13868,0 -0.0605,0 z m 6.39843,0 0.0625,0 1.56836,0 0,-0.800781 -1.56836,0 -0.0625,0 z"
       id="path3922"
       inkscape:connector-curvature="0" /><g
       id="Layer_1"
       transform="matrix(0.8,0,0,-0.8,-239.39999,131.01455)" /><g
       id="Layer_3"
       transform="matrix(0.8,0,0,-0.8,-239.39999,131.01455)" /><g
       id="Layer_5"
       transform="matrix(0.8,0,0,-0.8,-239.39999,131.01455)" /><g
       id="Layer_4"
       transform="matrix(0.8,0,0,-0.8,-239.39999,131.01455)" /><g
       id="Layer_6"
       transform="matrix(0.8,0,0,-0.8,-239.39999,131.01455)"><g
         id="g5378" /><g
         id="g5380" /><g
         id="g5382" /><g
         id="g5384" /><g
         id="g5386" /><g
         id="g5388" /></g><path
       style="color:#000000;font-style:normal;font-variant:normal;font-weight:normal;font-stretch:normal;font-size:medium;line-height:normal;font-family:sans-serif;text-indent:0;text-align:start;text-decoration:none;text-decoration-line:none;text-decoration-style:solid;text-decoration-color:#000000;letter-spacing:normal;word-spacing:normal;text-transform:none;direction:ltr;block-progression:tb;writing-mode:lr-tb;baseline-shift:baseline;text-anchor:start;white-space:normal;clip-rule:nonzero;display:inline;overflow:visible;visibility:visible;opacity:1;isolation:auto;mix-blend-mode:normal;color-interpolation:sRGB;color-interpolation-filters:linearRGB;solid-color:#000000;solid-opacity:1;fill:#ffffff;fill-opacity:1;fill-rule:nonzero;stroke:none;stroke-width:0.80000001;stroke-linecap:round;stroke-linejoin:round;stroke-miterlimit:4;stroke-dasharray:3.2, 3.2;stroke-dashoffset:0;stroke-opacity:1;color-rendering:auto;image-rendering:auto;shape-rendering:auto;text-rendering:auto;enable-background:accumulate"
       d="m 60.785156,133.42188 -0.04102,-0.004 -1.478516,-0.22656 0.119141,-0.78907 1.46289,0.22266 1.554688,0.0781 0.08398,-0.004 0.03906,0.79883 -0.105469,0.004 -0.04102,0 z m 4.796875,-1.0586 1.339844,-0.3457 1.400391,-0.51172 0.01172,-0.004 0.210938,-0.10351 0.345703,0.7207 -0.244141,0.11914 -0.03711,0.0137 -1.433594,0.52539 -0.03711,0.0117 -1.357422,0.34961 z m -10.791015,-0.7832 -0.03516,-0.0176 -1.285156,-0.78125 -0.0332,-0.0215 -0.193359,-0.14454 0.480468,-0.64062 0.183594,0.13672 0.0098,0.008 1.220703,0.74024 0.0059,0.002 1.302735,0.6289 -0.347657,0.72071 z m 16.455078,-1.73242 0.808594,-0.60352 0.0098,-0.008 1.083985,-0.98438 0.427734,-0.47265 0.591797,0.53711 -0.441407,0.48632 -0.02734,0.0274 -1.107422,1.00586 -0.0293,0.0254 -0.837891,0.62695 z m -21.179688,-2.15235 -0.02539,-0.0293 -0.896485,-1.20118 -0.02148,-0.0312 -0.337891,-0.55468 0.683594,-0.41602 0.330078,0.54102 0.871094,1.16406 0.695312,0.76758 -0.591796,0.53906 z m 25.375,-2.41406 0.322266,-0.5293 0.634766,-1.31445 0.0039,-0.0117 0.353515,-0.9668 0.751953,0.2754 -0.357421,0.97851 -0.01563,0.0352 -0.658204,1.36523 -0.01758,0.0332 -0.333984,0.55079 z M 47.125,122.2793 l -0.01172,-0.0371 -0.382812,-1.4961 -0.0098,-0.0391 -0.144531,-0.94922 0.791016,-0.11914 0.140624,0.92578 0.375,1.45508 0.234376,0.63867 -0.751954,0.27539 z m 30.339844,-2.85157 0.05664,-0.37304 0.07617,-1.55078 -0.07617,-1.55274 -0.232422,-1.51953 -0.002,-0.008 0,-0.004 0.03711,-0.006 0.736328,-0.18945 0.0098,0.0352 0.0078,0.0391 0.236328,1.54883 0.0039,0.041 0.08203,1.59375 -0.400391,0.0215 0.400391,0.0195 -0.08203,1.5957 -0.0039,0.0391 -0.05859,0.39063 z m -31.013672,-2.93945 0.0293,-0.59961 0.0039,-0.041 0.236328,-1.54883 0.0098,-0.0391 0.255859,-1 0.775391,0.19921 -0.253907,0.98243 -0.230468,1.50976 -0.02734,0.57813 z m 29.3125,-6.23437 -0.748047,-1.23243 -0.0078,-0.01 -0.201171,-0.26953 0.640625,-0.47852 0.208984,0.27735 0.02148,0.0332 0.78125,1.28516 0.01758,0.0352 0.585938,1.21289 -0.720703,0.34766 z m -27.59375,-0.043 0.152344,-0.31641 0.01953,-0.0352 0.78125,-1.28516 0.02148,-0.0332 0.804688,-1.07618 0.640625,0.48047 -0.796875,1.06641 -0.0078,0.01 -0.755859,1.24805 -0.0039,0.006 -0.134766,0.2832 z m 23.894531,-4.44141 -0.0098,-0.008 -1.154297,-0.85938 -0.63086,-0.38476 0.416016,-0.6836 0.644531,0.39258 0.03125,0.0215 1.201172,0.89648 0.0293,0.0254 0.701172,0.63672 -0.539063,0.5918 z m -19.787109,-0.6543 1.160156,-0.86718 0.0332,-0.0215 1.285156,-0.7832 0.03516,-0.0176 0.220703,-0.10742 0.347656,0.7207 -0.214844,0.10547 -0.0059,0.002 -1.220703,0.74219 -0.0098,0.008 -1.152344,0.85938 z m 14.644531,-2.12695 -1.462891,-0.37695 -1.029296,-0.15625 0.121093,-0.79102 1.052735,0.16016 0.03906,0.008 1.496094,0.38477 0.03711,0.0117 0.554688,0.20312 -0.275391,0.75195 z m -8.867187,-0.87305 1.101562,-0.2832 0.03906,-0.008 1.548829,-0.23633 0.04102,-0.004 0.494141,-0.0254 0.04102,0.79883 -0.472656,0.0234 -1.509765,0.23047 -1.083985,0.27929 z"
       id="path4628"
       inkscape:connector-curvature="0" /></g></svg>