<?xml version="1.0" encoding="UTF-8" standalone="no"?>
<!-- Created with Inkscape (http://www.inkscape.org/) -->

<svg
   xmlns:dc="http://purl.org/dc/elements/1.1/"
   xmlns:cc="http://creativecommons.org/ns#"
   xmlns:rdf="http://www.w3.org/1999/02/22-rdf-syntax-ns#"
   xmlns:svg="http://www.w3.org/2000/svg"
   xmlns="http://www.w3.org/2000/svg"
   xmlns:sodipodi="http://sodipodi.sourceforge.net/DTD/sodipodi-0.dtd"
   xmlns:inkscape="http://www.inkscape.org/namespaces/inkscape"
   id="svg2"
   version="1.1"
   inkscape:version="0.48.5 r10040"
   width="156"
   height="180"
   xml:space="preserve"
   sodipodi:docname="codeforberlin.svg"><metadata
     id="metadata8"><rdf:RDF><cc:Work
         rdf:about=""><dc:format>image/svg+xml</dc:format><dc:type
           rdf:resource="http://purl.org/dc/dcmitype/StillImage" /><dc:title /></cc:Work></rdf:RDF></metadata><defs
     id="defs6"><clipPath
       clipPathUnits="userSpaceOnUse"
       id="clipPath24"><path
         d="m 0,198.425 198.425,0 L 198.425,0 0,0 0,198.425 z"
         id="path26"
         inkscape:connector-curvature="0" /></clipPath><clipPath
       clipPathUnits="userSpaceOnUse"
       id="clipPath24-9"><path
         d="m 0,198.425 198.425,0 L 198.425,0 0,0 0,198.425 z"
         id="path26-1"
         inkscape:connector-curvature="0" /></clipPath><clipPath
       clipPathUnits="userSpaceOnUse"
       id="clipPath24-1"><path
         d="m 0,198.425 198.425,0 L 198.425,0 0,0 0,198.425 z"
         id="path26-3"
         inkscape:connector-curvature="0" /></clipPath><clipPath
       id="clipPath24-6"
       clipPathUnits="userSpaceOnUse"><path
         id="path26-8"
         d="m 19.842,82.579 411.315,0 0,324.902 -411.315,0 0,-324.902 z" /></clipPath><clipPath
       id="clipPath24-67"
       clipPathUnits="userSpaceOnUse"><path
         inkscape:connector-curvature="0"
         id="path26-9"
         d="m 0,198.425 198.425,0 L 198.425,0 0,0 0,198.425 z" /></clipPath></defs><sodipodi:namedview
     pagecolor="#ffffff"
     bordercolor="#666666"
     borderopacity="1"
     objecttolerance="10"
     gridtolerance="10"
     guidetolerance="10"
     inkscape:pageopacity="0"
     inkscape:pageshadow="2"
     inkscape:window-width="1443"
     inkscape:window-height="1256"
     id="namedview4"
     showgrid="false"
     inkscape:zoom="4.35429"
     inkscape:cx="133.20197"
     inkscape:cy="78.083912"
     inkscape:window-x="467"
     inkscape:window-y="0"
     inkscape:window-maximized="0"
     inkscape:current-layer="g10" /><g
     id="g10"
     inkscape:groupmode="layer"
     inkscape:label="Codefor_Hex_sticker_ALL"
     transform="matrix(1.25,0,0,-1.25,0,180)"><g
       id="g3190"
       transform="matrix(1,0,0,0.99997837,-134.1206,-1.4891536)"><path
         inkscape:connector-curvature="0"
         d="m 196.5206,73.492297 -62.4,36.000003 0,0 62.4,36 c 0,0 0.0287,-71.99998 0,-72.000003 z"
         style="fill:#f15964;fill-opacity:1;fill-rule:nonzero;stroke:none"
         id="path3176"
         sodipodi:nodetypes="ccccc" /><path
         sodipodi:nodetypes="ccccc"
         id="path3178"
         style="fill:#f2626c;fill-opacity:1;fill-rule:nonzero;stroke:none"
         d="m 196.52057,73.492297 62.4,36.000003 0,0 -62.4,36 c -0.30094,0 -0.29888,-71.99998 0,-72.000003 z"
         inkscape:connector-curvature="0" /><path
         sodipodi:nodetypes="ccccc"
         id="path2988"
         style="fill:#f04652;fill-opacity:1;fill-rule:nonzero;stroke:none"
         d="m 196.5206,1.4922972 -62.4,35.9999998 0,0 62.4,36 c 0,0 0.0287,-71.999977 0,-71.9999998 z"
         inkscape:connector-curvature="0" /><path
         sodipodi:nodetypes="ccccc"
         id="path3180"
         style="fill:#f0505b;fill-opacity:1;fill-rule:nonzero;stroke:none"
         d="M 196.49739,73.497392 C 176.76497,60.436288 156.67231,47.73528 134.1206,37.492297 l 0,0 0.0231,71.970253 c 1.20063,1.20013 64.00993,-34.299083 62.3537,-35.965158 z"
         inkscape:connector-curvature="0" /><path
         inkscape:connector-curvature="0"
         d="m 196.544,73.487203 c 19.73242,13.061104 39.82508,25.762112 62.37679,36.005097 l 0,0 -0.0231,-71.970252 c -1.20063,-1.20013 -64.00993,34.29908 -62.3537,35.965155 z"
         style="fill:#f15964;fill-opacity:1;fill-rule:nonzero;stroke:none"
         id="path3182"
         sodipodi:nodetypes="ccccc" /><path
         inkscape:connector-curvature="0"
         d="m 196.52057,1.4922972 62.4,35.9999998 0,0 -62.4,36 c -1.49897,-1.124229 -0.7564,-72.5457217 0,-71.9999998 z"
         style="fill:#f0505b;fill-opacity:1;fill-rule:nonzero;stroke:none"
         id="path3174"
         sodipodi:nodetypes="ccccc" /></g><g
       id="g16"
       transform="translate(121,38.167)"><path
         inkscape:connector-curvature="0"
         d="M 0,0 -58.5,-33.834 -117,0 -117,67.667 -58.5,101.5 0,67.667 0,0 z"
         style="fill:none;stroke:#ffffff;stroke-width:2;stroke-linecap:butt;stroke-linejoin:miter;stroke-miterlimit:10;stroke-opacity:1;stroke-dasharray:none"
         id="path18" /></g><g
       id="g20"
       transform="translate(-36.4824,-27.2119)"><g
         id="g22"
         clip-path="url(#clipPath24)"><g
           id="g28"
           transform="translate(114.0762,130.1846)"><path
             inkscape:connector-curvature="0"
             d="m 0,0 c 12.069,-3.06 23.554,-9.859 33.8,-20.104 4.263,-4.265 4.263,-11.179 0,-15.445 -2.133,-2.133 -4.928,-3.199 -7.723,-3.199 -2.795,0 -5.592,1.066 -7.723,3.199 -10.182,10.182 -21.651,15.563 -33.166,15.563 -11.516,0 -22.985,-5.381 -33.167,-15.563 -4.264,-4.265 -11.179,-4.265 -15.445,0 -4.264,4.266 -4.264,11.18 0,15.445 10.33,10.33 21.923,17.158 34.103,20.179"
             style="fill:none;stroke:#ffffff;stroke-width:2;stroke-linecap:butt;stroke-linejoin:miter;stroke-miterlimit:10;stroke-opacity:1;stroke-dasharray:none"
             id="path30" /></g><g
           id="g32"
           transform="translate(102.5234,131.9521)"><path
             inkscape:connector-curvature="0"
             d="M 0,0 C 1.471,-0.08 2.936,-0.215 4.396,-0.402"
             style="fill:none;stroke:#ffffff;stroke-width:2;stroke-linecap:butt;stroke-linejoin:miter;stroke-miterlimit:10;stroke-opacity:1;stroke-dasharray:none"
             id="path34" /></g><g
           id="g36"
           transform="translate(91.5449,131.542)"><path
             inkscape:connector-curvature="0"
             d="M 0,0 C 1.16,0.15 2.324,0.267 3.49,0.35"
             style="fill:none;stroke:#ffffff;stroke-width:2;stroke-linecap:butt;stroke-linejoin:miter;stroke-miterlimit:10;stroke-opacity:1;stroke-dasharray:none"
             id="path38" /></g><g
           id="g40"
           transform="translate(58.9673,108.3311)"><path
             inkscape:connector-curvature="0"
             d="M 0,0 C 3.595,4.458 7.574,8.331 14.989,10.603"
             style="fill:none;stroke:#ffffff;stroke-width:2;stroke-linecap:butt;stroke-linejoin:miter;stroke-miterlimit:10;stroke-opacity:1;stroke-dasharray:none"
             id="path42" /></g><g
           id="g44"
           transform="translate(95.4824,110.4248)"><path
             inkscape:connector-curvature="0"
             d="m 0,0 0,-9.853 c 0,-1.205 -0.794,-2.183 -2,-2.183 -1.206,0 -2,0.978 -2,2.183 L -4,-1"
             style="fill:none;stroke:#ffffff;stroke-width:2;stroke-linecap:butt;stroke-linejoin:miter;stroke-miterlimit:10;stroke-opacity:1;stroke-dasharray:none"
             id="path46" /></g><g
           id="g48"
           transform="translate(106.4824,109.4248)"><path
             inkscape:connector-curvature="0"
             d="m 0,0 0,-8.853 c 0,-1.205 -0.794,-2.183 -2,-2.183 -1.206,0 -2,0.978 -2,2.183 L -4,1"
             style="fill:none;stroke:#ffffff;stroke-width:2;stroke-linecap:butt;stroke-linejoin:miter;stroke-miterlimit:10;stroke-opacity:1;stroke-dasharray:none"
             id="path50" /></g><g
           id="g52"
           transform="translate(95.4824,122.4248)"><path
             inkscape:connector-curvature="0"
             d="M 0,0 0,18 7,18 7,0"
             style="fill:none;stroke:#ffffff;stroke-width:2;stroke-linecap:butt;stroke-linejoin:miter;stroke-miterlimit:10;stroke-opacity:1;stroke-dasharray:none"
             id="path54" /></g><g
           id="g56"
           transform="translate(84.4824,122.4248)"><path
             inkscape:connector-curvature="0"
             d="m 0,0 0,14.518 c 0,0 0.425,2.429 3.136,3.578 C 4.854,18.824 7,18.824 7,18.824 L 7,0"
             style="fill:none;stroke:#ffffff;stroke-width:2;stroke-linecap:butt;stroke-linejoin:miter;stroke-miterlimit:10;stroke-opacity:1;stroke-dasharray:none"
             id="path58" /></g><g
           id="g60"
           transform="translate(113.4824,122.4248)"><path
             inkscape:connector-curvature="0"
             d="m 0,0 0,14.518 c 0,0 -0.815,2.226 -3.136,3.578 C -5.09,19.234 -7,18.824 -7,18.824 L -7,0"
             style="fill:none;stroke:#ffffff;stroke-width:2;stroke-linecap:butt;stroke-linejoin:miter;stroke-miterlimit:10;stroke-opacity:1;stroke-dasharray:none"
             id="path62" /></g><g
           id="g64"
           transform="translate(93.4824,56.4248)"><path
             inkscape:connector-curvature="0"
             d="m 0,0 0,19.393 c 0,4.375 -2.739,6.294 -5.319,8.013 C -8.868,29.768 -9,33.59 -9,33.59 L -9,50"
             style="fill:none;stroke:#ffffff;stroke-width:2;stroke-linecap:butt;stroke-linejoin:miter;stroke-miterlimit:10;stroke-opacity:1;stroke-dasharray:none"
             id="path66" /></g><g
           id="g68"
           transform="translate(104.4824,56.4248)"><path
             inkscape:connector-curvature="0"
             d="m 0,0 0,19.393 c 0,4.375 2.738,6.294 5.318,8.013 C 8.868,29.768 9,33.59 9,33.59 L 9,50"
             style="fill:none;stroke:#ffffff;stroke-width:2;stroke-linecap:butt;stroke-linejoin:miter;stroke-miterlimit:10;stroke-opacity:1;stroke-dasharray:none"
             id="path70" /></g><g
           id="g72"
           transform="translate(148.5967,94.3955)"><path
             inkscape:connector-curvature="0"
             d="m 0,0 c 2.857,-1.775 4.559,-4.555 4.283,-7.568 l -5.074,0.464 c 0.084,0.936 -0.564,3.471 -1.789,5.489"
             style="fill:none;stroke:#ffffff;stroke-width:2;stroke-linecap:butt;stroke-linejoin:miter;stroke-miterlimit:10;stroke-opacity:1;stroke-dasharray:none"
             id="path74" /></g><g
           id="g76"
           transform="translate(49.8516,97.3096)"><path
             inkscape:connector-curvature="0"
             d="m 0,0 c -2.855,-1.777 -4.559,-4.557 -4.281,-7.568 l 5.074,0.463 c -0.085,0.935 -0.019,2.3 0.562,3.47"
             style="fill:none;stroke:#ffffff;stroke-width:2;stroke-linecap:butt;stroke-linejoin:miter;stroke-miterlimit:10;stroke-opacity:1;stroke-dasharray:none"
             id="path78" /></g><g
           id="g80"
           transform="translate(88.1841,49.8701)"><path
             inkscape:connector-curvature="0"
             d="m 0,0 0,-2.158 1.349,0 c 0.81,0 1.23,0.379 1.23,1.078 0,0.7 -0.42,1.08 -1.23,1.08 L 0,0 z m 0,2.758 0,-1.719 1.279,0 c 0.62,0 0.96,0.29 0.96,0.859 0,0.571 -0.34,0.86 -0.96,0.86 L 0,2.758 z m 1.379,1.04 c 1.16,0 1.959,-0.62 1.959,-1.829 0,-0.539 -0.3,-1.129 -0.71,-1.35 0.66,-0.279 1.07,-0.949 1.07,-1.758 0,-1.31 -0.82,-2.059 -2.199,-2.059 l -2.599,0 0,6.996 2.479,0 z"
             style="fill:#ffffff;fill-opacity:1;fill-rule:nonzero;stroke:none"
             id="path82" /></g><g
           id="g84"
           transform="translate(93.9238,49.7705)"><path
             inkscape:connector-curvature="0"
             d="M 0,0 2.449,0 C 2.359,0.56 1.979,1.1 1.229,1.1 0.54,1.1 0.11,0.629 0,0 m 3.548,-0.869 -3.568,0 c 0,-0.74 0.43,-1.391 1.249,-1.391 0.54,0 1.06,0.301 1.32,0.85 L 3.438,-1.76 C 2.949,-2.709 2.379,-3.179 1.229,-3.179 c -1.659,0 -2.348,1.4 -2.348,2.599 0,1.199 0.689,2.599 2.348,2.599 1.61,0 2.319,-1.31 2.319,-2.439 l 0,-0.449 z"
             style="fill:#ffffff;fill-opacity:1;fill-rule:nonzero;stroke:none"
             id="path86" /></g><g
           id="g88"
           transform="translate(98.5444,46.6719)"><path
             inkscape:connector-curvature="0"
             d="m 0,0 0,5.037 1.04,0 0,-0.839 c 0.349,0.6 0.949,0.919 1.489,0.919 0.27,0 0.49,-0.059 0.639,-0.12 L 2.988,4.048 C 2.829,4.147 2.609,4.198 2.399,4.198 1.729,4.198 1.04,3.458 1.04,1.869 L 1.04,0 0,0 z"
             style="fill:#ffffff;fill-opacity:1;fill-rule:nonzero;stroke:none"
             id="path90" /></g><path
           inkscape:connector-curvature="0"
           d="m 103.664,46.672 -1.04,0 0,7.076 1.04,0 0,-7.076 z"
           style="fill:#ffffff;fill-opacity:1;fill-rule:nonzero;stroke:none"
           id="path92" /><path
           inkscape:connector-curvature="0"
           d="m 106.014,46.672 -1.04,0 0,5.037 1.04,0 0,-5.037 z m -0.52,7.186 c 0.41,0 0.72,-0.33 0.72,-0.73 0,-0.399 -0.31,-0.709 -0.72,-0.709 -0.41,0 -0.719,0.31 -0.719,0.709 0,0.4 0.309,0.73 0.719,0.73"
           style="fill:#ffffff;fill-opacity:1;fill-rule:nonzero;stroke:none"
           id="path94" /><g
           id="g96"
           transform="translate(108.4038,51.709)"><path
             inkscape:connector-curvature="0"
             d="m 0,0 0,-0.859 c 0.36,0.599 0.959,0.939 1.629,0.939 0.88,0 1.479,-0.53 1.479,-1.509 l 0,-3.608 -1.039,0 0,3.278 c 0,0.68 -0.31,0.92 -0.779,0.92 C 0.64,-0.839 0,-1.608 0,-2.998 l 0,-2.039 -1.04,0 L -1.04,0 0,0 z"
             style="fill:#ffffff;fill-opacity:1;fill-rule:nonzero;stroke:none"
             id="path98" /></g><g
           id="g100"
           transform="translate(53.6152,132.6279)"><path
             inkscape:connector-curvature="0"
             d="M 0,0 7.297,-6.884"
             style="fill:none;stroke:#ffffff;stroke-width:2;stroke-linecap:butt;stroke-linejoin:miter;stroke-miterlimit:10;stroke-opacity:1;stroke-dasharray:none"
             id="path102" /></g><g
           id="g104"
           transform="translate(62.3379,139.7764)"><path
             inkscape:connector-curvature="0"
             d="M 0,0 5.41,-9.151"
             style="fill:none;stroke:#ffffff;stroke-width:2;stroke-linecap:butt;stroke-linejoin:miter;stroke-miterlimit:10;stroke-opacity:1;stroke-dasharray:none"
             id="path106" /></g><g
           id="g108"
           transform="translate(73.0625,144.4053)"><path
             inkscape:connector-curvature="0"
             d="M 0,0 2.063,-9.815"
             style="fill:none;stroke:#ffffff;stroke-width:2;stroke-linecap:butt;stroke-linejoin:miter;stroke-miterlimit:10;stroke-opacity:1;stroke-dasharray:none"
             id="path110" /></g><g
           id="g112"
           transform="translate(124.8545,142.1475)"><path
             inkscape:connector-curvature="0"
             d="M 0,0 -2.292,-9.766"
             style="fill:none;stroke:#ffffff;stroke-width:2;stroke-linecap:butt;stroke-linejoin:miter;stroke-miterlimit:10;stroke-opacity:1;stroke-dasharray:none"
             id="path114" /></g><g
           id="g116"
           transform="translate(135.415,138.1924)"><path
             inkscape:connector-curvature="0"
             d="M 0,0 -5.197,-9.273"
             style="fill:none;stroke:#ffffff;stroke-width:2;stroke-linecap:butt;stroke-linejoin:miter;stroke-miterlimit:10;stroke-opacity:1;stroke-dasharray:none"
             id="path118" /></g><g
           id="g120"
           transform="translate(144.8018,131.2422)"><path
             inkscape:connector-curvature="0"
             d="M 0,0 -7.453,-6.712"
             style="fill:none;stroke:#ffffff;stroke-width:2;stroke-linecap:butt;stroke-linejoin:miter;stroke-miterlimit:10;stroke-opacity:1;stroke-dasharray:none"
             id="path122" /></g><g
           id="g124"
           transform="translate(93.4824,43.4248)"><path
             inkscape:connector-curvature="0"
             d="M 0,0 0,-9"
             style="fill:none;stroke:#ffffff;stroke-width:2;stroke-linecap:butt;stroke-linejoin:miter;stroke-miterlimit:10;stroke-opacity:1;stroke-dasharray:none"
             id="path126" /></g><g
           id="g128"
           transform="translate(104.4824,43.4248)"><path
             inkscape:connector-curvature="0"
             d="M 0,0 0,-9"
             style="fill:none;stroke:#ffffff;stroke-width:2;stroke-linecap:butt;stroke-linejoin:miter;stroke-miterlimit:10;stroke-opacity:1;stroke-dasharray:none"
             id="path130" /></g><g
           id="g132"
           transform="translate(40.7241,70.249)"><path
             inkscape:connector-curvature="0"
             d="m 0,0 8.191,0 0,8.168 9.86,0 0,5.946 23.422,0 0,-11.421 4.756,0 5.984,-6.068"
             style="fill:none;stroke:#ffffff;stroke-width:2;stroke-linecap:square;stroke-linejoin:miter;stroke-miterlimit:10;stroke-opacity:1;stroke-dasharray:none"
             id="path134" /></g><g
           id="g136"
           transform="translate(58.7847,77.5986)"><path
             inkscape:connector-curvature="0"
             d="M 0,0 0,-21.491"
             style="fill:none;stroke:#ffffff;stroke-width:2;stroke-linecap:square;stroke-linejoin:miter;stroke-miterlimit:10;stroke-opacity:1;stroke-dasharray:none"
             id="path138" /></g><g
           id="g140"
           transform="translate(63.4824,76.4248)"><path
             inkscape:connector-curvature="0"
             d="M 0,0 13,0"
             style="fill:none;stroke:#ffffff;stroke-width:2;stroke-linecap:square;stroke-linejoin:miter;stroke-miterlimit:10;stroke-opacity:1;stroke-dasharray:none"
             id="path142" /></g><g
           id="g144"
           transform="translate(63.4824,71.4248)"><path
             inkscape:connector-curvature="0"
             d="M 0,0 13,0"
             style="fill:none;stroke:#ffffff;stroke-width:2;stroke-linecap:square;stroke-linejoin:miter;stroke-miterlimit:10;stroke-opacity:1;stroke-dasharray:none"
             id="path146" /></g><g
           id="g148"
           transform="translate(63.4824,66.4248)"><path
             inkscape:connector-curvature="0"
             d="M 0,0 13,0"
             style="fill:none;stroke:#ffffff;stroke-width:2;stroke-linecap:square;stroke-linejoin:miter;stroke-miterlimit:10;stroke-opacity:1;stroke-dasharray:none"
             id="path150" /></g><g
           id="g152"
           transform="translate(63.4824,61.4248)"><path
             inkscape:connector-curvature="0"
             d="M 0,0 13,0"
             style="fill:none;stroke:#ffffff;stroke-width:2;stroke-linecap:square;stroke-linejoin:miter;stroke-miterlimit:10;stroke-opacity:1;stroke-dasharray:none"
             id="path154" /></g><g
           id="g156"
           transform="translate(157.2773,70.249)"><path
             inkscape:connector-curvature="0"
             d="m 0,0 -7.533,0 0,8.168 -9.86,0 0,5.946 -23.422,0 0,-11.421 -4.756,0 -5.982,-6.068"
             style="fill:none;stroke:#ffffff;stroke-width:2;stroke-linecap:square;stroke-linejoin:miter;stroke-miterlimit:10;stroke-opacity:1;stroke-dasharray:none"
             id="path158" /></g><g
           id="g160"
           transform="translate(139.875,77.5986)"><path
             inkscape:connector-curvature="0"
             d="M 0,0 0,-21.491"
             style="fill:none;stroke:#ffffff;stroke-width:2;stroke-linecap:square;stroke-linejoin:miter;stroke-miterlimit:10;stroke-opacity:1;stroke-dasharray:none"
             id="path162" /></g><g
           id="g164"
           transform="translate(134.4824,76.4248)"><path
             inkscape:connector-curvature="0"
             d="M 0,0 -13,0"
             style="fill:none;stroke:#ffffff;stroke-width:2;stroke-linecap:square;stroke-linejoin:miter;stroke-miterlimit:10;stroke-opacity:1;stroke-dasharray:none"
             id="path166" /></g><g
           id="g168"
           transform="translate(134.4824,71.4248)"><path
             inkscape:connector-curvature="0"
             d="M 0,0 -13,0"
             style="fill:none;stroke:#ffffff;stroke-width:2;stroke-linecap:square;stroke-linejoin:miter;stroke-miterlimit:10;stroke-opacity:1;stroke-dasharray:none"
             id="path170" /></g><g
           id="g172"
           transform="translate(134.4824,66.4248)"><path
             inkscape:connector-curvature="0"
             d="M 0,0 -13,0"
             style="fill:none;stroke:#ffffff;stroke-width:2;stroke-linecap:square;stroke-linejoin:miter;stroke-miterlimit:10;stroke-opacity:1;stroke-dasharray:none"
             id="path174" /></g><g
           id="g176"
           transform="translate(134.4824,61.4248)"><path
             inkscape:connector-curvature="0"
             d="M 0,0 -13,0"
             style="fill:none;stroke:#ffffff;stroke-width:2;stroke-linecap:square;stroke-linejoin:miter;stroke-miterlimit:10;stroke-opacity:1;stroke-dasharray:none"
             id="path178" /></g><path
           inkscape:connector-curvature="0"
           d="m 113.982,43.925 -30,0 0,12 30,0 0,-12 z"
           style="fill:none;stroke:#ffffff;stroke-width:1;stroke-linecap:butt;stroke-linejoin:miter;stroke-miterlimit:10;stroke-opacity:1;stroke-dasharray:none"
           id="path180" /><g
           id="g182"
           transform="translate(96.6865,148.9087)"><path
             inkscape:connector-curvature="0"
             d="m 0,0 c -0.186,0.12 -0.324,0.162 -0.486,0.162 -0.287,0 -0.444,-0.18 -0.444,-0.57 l 0,-0.197 1.176,0 0,-0.457 -1.176,0 0,-2.566 -0.503,0 0,2.566 -0.852,0 0,0.457 0.852,0 0,0.185 c 0,0.732 0.353,1.038 0.929,1.038 0.276,0 0.462,-0.072 0.63,-0.174 L 0,0 z"
             style="fill:#ffffff;fill-opacity:1;fill-rule:nonzero;stroke:none"
             id="path184" /></g><g
           id="g186"
           transform="translate(99.1108,145.6885)"><path
             inkscape:connector-curvature="0"
             d="M 0,0 C 0.618,0 0.972,0.522 0.972,1.104 0.972,1.685 0.618,2.207 0,2.207 -0.618,2.207 -0.971,1.685 -0.971,1.104 -0.971,0.522 -0.618,0 0,0 m 0,2.663 c 0.923,0 1.487,-0.726 1.487,-1.559 0,-0.834 -0.564,-1.56 -1.487,-1.56 -0.923,0 -1.487,0.726 -1.487,1.56 0,0.833 0.564,1.559 1.487,1.559"
             style="fill:#ffffff;fill-opacity:1;fill-rule:nonzero;stroke:none"
             id="path188" /></g><g
           id="g190"
           transform="translate(103.52,147.3437)"><path
             inkscape:connector-curvature="0"
             d="m 0,0 c -0.042,0.348 -0.222,0.552 -0.582,0.552 -0.527,0 -1.025,-0.498 -1.025,-1.524 l 0,-1.091 -0.504,0 0,3.022 0.504,0 0,-0.557 c 0.233,0.366 0.611,0.605 1.115,0.605 0.6,0 0.96,-0.36 0.995,-1.007 L 0,0 z"
             style="fill:#ffffff;fill-opacity:1;fill-rule:nonzero;stroke:none"
             id="path192" /></g><g
           id="g194"
           transform="translate(95.1665,158.4741)"><path
             inkscape:connector-curvature="0"
             d="m 0,0 0,-0.1 0,-6.375 0.532,0 0.15,0 0.127,0 L 0.809,0 0,0 z"
             style="fill:#ffffff;fill-opacity:1;fill-rule:nonzero;stroke:none"
             id="path196" /></g><g
           id="g198"
           transform="translate(98.3755,151.3926)"><path
             inkscape:connector-curvature="0"
             d="m 0,0 c 0.056,0 0.129,0.05 0.129,0.105 l 0,7.584 C 0.129,7.745 0.056,7.79 0,7.79 l -2.527,0 c -0.056,0 -0.076,-0.023 -0.076,-0.051 l 0,-0.151 0,-0.505 c 0,-0.056 0.02,-0.103 0.076,-0.103 l 1.718,0 c 0.056,0 0.129,-0.044 0.129,-0.1 l 0,-5.965 C -0.68,0.859 -0.753,0.81 -0.809,0.81 l -1.718,0 c -0.056,0 -0.076,-0.019 -0.076,-0.047 l 0,-0.152 0,-0.506 C -2.603,0.05 -2.583,0 -2.527,0 L 0,0 z"
             style="fill:#ffffff;fill-opacity:1;fill-rule:nonzero;stroke:none"
             id="path200" /></g><g
           id="g202"
           transform="translate(99.5161,158.4741)"><path
             inkscape:connector-curvature="0"
             d="m 0,0 0,-0.1 0,-6.375 0.68,0 0.13,0 L 0.81,0 0,0 z"
             style="fill:#ffffff;fill-opacity:1;fill-rule:nonzero;stroke:none"
             id="path204" /></g><g
           id="g206"
           transform="translate(100.2241,151.397)"><path
             inkscape:connector-curvature="0"
             d="m 0,0 0,0.809 c 1.113,0 1.89,1.383 1.89,3.084 0,1.7 -0.777,3.084 -1.89,3.084 L 0,7.786 C 1.519,7.786 2.698,6.04 2.698,3.893 2.698,1.747 1.519,0 0,0"
             style="fill:#ffffff;fill-opacity:1;fill-rule:nonzero;stroke:none"
             id="path208" /></g><g
           id="g210"
           transform="translate(91.8276,153.8843)"><path
             inkscape:connector-curvature="0"
             d="m 0,0 0,-1.115 0,-0.359 c 0,-0.605 0.388,-1.018 0.999,-1.018 l 0.172,0 0.496,0 0.584,0 c 0.028,0 0.075,0.051 0.075,0.106 l 0,0.607 c 0,0.055 -0.07,0.097 -0.126,0.097 l -0.581,0 -0.297,0 -0.183,0 c -0.261,0 -0.329,0.111 -0.329,0.41 l 0,0.178 0,0.973 0,0.594 c 0,0.61 -0.248,0.835 -0.551,0.945 0.303,0.11 0.551,0.335 0.551,0.944 l 0,0.422 0,1.069 0,0.254 c 0,0.294 0.058,0.382 0.329,0.382 l 0.228,0 0.29,0 0.594,0 c 0.028,0 0.075,0.046 0.075,0.101 l 0,0.607 c 0,0.056 -0.07,0.101 -0.126,0.101 l -0.486,0 -0.458,0 -0.257,0 C 0.388,5.298 0,4.902 0,4.31 L 0,3.992 0,2.669 C 0,2.669 -0.021,2.366 -0.035,2.262 -0.073,1.989 -0.408,1.754 -0.616,1.757 l -0.318,0 c -0.056,0 -0.078,-0.043 -0.078,-0.099 l 0,-0.607 c 0,-0.055 0.022,-0.103 0.078,-0.103 l 0.29,0 c 0.265,0.004 0.6,-0.219 0.625,-0.552 C -0.011,0.299 0,0 0,0"
             style="fill:#ffffff;fill-opacity:1;fill-rule:nonzero;stroke:none"
             id="path212" /></g><g
           id="g214"
           transform="translate(95.8481,159.1826)"><path
             inkscape:connector-curvature="0"
             d="m 0,0 -0.287,0 -0.319,0 c -0.057,0 -0.077,-0.046 -0.077,-0.101 l 0,-0.187 0,-0.42 0,-0.102 0.077,0 0.606,0 0.127,0 0,0.102 0,0.607 L 0.127,0 0,0 z"
             style="fill:#ffffff;fill-opacity:1;fill-rule:nonzero;stroke:none"
             id="path216" /></g><g
           id="g218"
           transform="translate(95.1665,152.105)"><path
             inkscape:connector-curvature="0"
             d="m 0,0 0,-0.287 0,-0.32 c 0,-0.055 0.019,-0.105 0.075,-0.105 l 0.187,0 0.42,0 0.127,0 0,0.105 0,0.607 0,0.097 -0.127,0 -0.607,0 L 0,0.097 0,0 z"
             style="fill:#ffffff;fill-opacity:1;fill-rule:nonzero;stroke:none"
             id="path220" /></g><g
           id="g222"
           transform="translate(100.1958,159.1826)"><path
             inkscape:connector-curvature="0"
             d="m 0,0 -0.286,0 -0.32,0 C -0.663,0 -0.68,-0.046 -0.68,-0.101 l 0,-0.187 0,-0.42 0,-0.102 0.074,0 0.606,0 0.13,0 0,0.102 0,0.607 L 0.13,0 0,0 z"
             style="fill:#ffffff;fill-opacity:1;fill-rule:nonzero;stroke:none"
             id="path224" /></g><g
           id="g226"
           transform="translate(99.5161,152.105)"><path
             inkscape:connector-curvature="0"
             d="m 0,0 0,-0.287 0,-0.32 c 0,-0.055 0.017,-0.105 0.073,-0.105 l 0.187,0 0.42,0 0.13,0 0,0.105 0,0.607 0,0.097 -0.13,0 -0.607,0 L 0,0.097 0,0 z"
             style="fill:#ffffff;fill-opacity:1;fill-rule:nonzero;stroke:none"
             id="path228" /></g><g
           id="g230"
           transform="translate(104.5747,153.8843)"><path
             inkscape:connector-curvature="0"
             d="m 0,0 0,-1.115 0,-0.359 c 0,-0.605 0.38,-1.018 0.992,-1.018 l 0.172,0 0.495,0 0.584,0 c 0.028,0 0.083,0.051 0.083,0.106 l 0,0.607 c 0,0.055 -0.077,0.097 -0.133,0.097 l -0.581,0 -0.297,0 -0.183,0 c -0.262,0 -0.323,0.111 -0.323,0.41 l 0,0.178 0,0.973 0,0.594 c 0,0.196 -0.057,0.374 -0.102,0.475 l -1.358,0 C -0.278,0.847 -0.119,0.713 -0.042,0.389 -0.004,0.227 0,0 0,0"
             style="fill:#ffffff;fill-opacity:1;fill-rule:nonzero;stroke:none"
             id="path232" /></g><g
           id="g234"
           transform="translate(104.5171,156.147)"><path
             inkscape:connector-curvature="0"
             d="m 0,0 c -0.078,-0.265 -0.254,-0.404 -0.565,-0.505 l 1.274,0 c 0.078,0.202 0.157,0.337 0.157,0.605 l 0,0.421 0,1.069 0,0.254 c 0,0.295 0.052,0.382 0.323,0.382 l 0.229,0 0.289,0 0.594,0 c 0.028,0 0.083,0.046 0.083,0.102 l 0,0.607 c 0,0.055 -0.077,0.101 -0.133,0.101 l -0.486,0 -0.458,0 -0.257,0 C 0.437,3.036 0.058,2.639 0.058,2.047 l 0,-0.318 0,-1.322 C 0.058,0.407 0.039,0.132 0,0"
             style="fill:#ffffff;fill-opacity:1;fill-rule:nonzero;stroke:none"
             id="path236" /></g><g
           id="g238"
           transform="translate(104.7144,155.231)"><path
             inkscape:connector-curvature="0"
             d="m 0,0 c 0.205,-0.075 0.429,-0.196 0.567,-0.398 l 1.487,0 c 0.055,0 0.133,0.047 0.133,0.103 l 0,0.607 c 0,0.056 -0.078,0.099 -0.133,0.099 l -1.542,0 C 0.41,0.208 0.169,0.062 0,0"
             style="fill:#ffffff;fill-opacity:1;fill-rule:nonzero;stroke:none"
             id="path240" /></g><g
           id="g242"
           transform="translate(103.6333,155.6416)"><path
             inkscape:connector-curvature="0"
             d="m 0,0 c -0.056,0 -0.07,-0.043 -0.07,-0.099 l 0,-0.607 c 0,-0.055 0.014,-0.104 0.07,-0.104 l 0.29,0 1.358,0 C 1.557,-0.607 1.331,-0.468 1.169,-0.405 1.338,-0.343 1.491,-0.202 1.593,0 L 0.318,0 0,0 z"
             style="fill:#ffffff;fill-opacity:1;fill-rule:nonzero;stroke:none"
             id="path244" /></g></g></g></g></svg>