<?xml version="1.0" encoding="UTF-8" standalone="no"?>
<!-- Created with Inkscape (http://www.inkscape.org/) -->

<svg
   xmlns:dc="http://purl.org/dc/elements/1.1/"
   xmlns:cc="http://creativecommons.org/ns#"
   xmlns:rdf="http://www.w3.org/1999/02/22-rdf-syntax-ns#"
   xmlns:svg="http://www.w3.org/2000/svg"
   xmlns="http://www.w3.org/2000/svg"
   xmlns:sodipodi="http://sodipodi.sourceforge.net/DTD/sodipodi-0.dtd"
   xmlns:inkscape="http://www.inkscape.org/namespaces/inkscape"
   id="svg2"
   version="1.1"
   inkscape:version="0.48.5 r10040"
   width="156"
   height="180"
   xml:space="preserve"
   sodipodi:docname="coin.svg"><metadata
     id="metadata8"><rdf:RDF><cc:Work
         rdf:about=""><dc:format>image/svg+xml</dc:format><dc:type
           rdf:resource="http://purl.org/dc/dcmitype/StillImage" /><dc:title /></cc:Work></rdf:RDF></metadata><defs
     id="defs6" /><sodipodi:namedview
     pagecolor="#ffffff"
     bordercolor="#666666"
     borderopacity="1"
     objecttolerance="10"
     gridtolerance="10"
     guidetolerance="10"
     inkscape:pageopacity="0"
     inkscape:pageshadow="2"
     inkscape:window-width="1262"
     inkscape:window-height="891"
     id="namedview4"
     showgrid="false"
     inkscape:zoom="4.0833333"
     inkscape:cx="78"
     inkscape:cy="90"
     inkscape:window-x="0"
     inkscape:window-y="1"
     inkscape:window-maximized="0"
     inkscape:current-layer="g10" /><g
     id="g10"
     inkscape:groupmode="layer"
     inkscape:label="Codefor_Hex_sticker_ALL"
     transform="matrix(1.25,0,0,-1.25,0,180)"><path
       style="fill:#eed964;fill-opacity:1;stroke:none;stroke-width:1.70879996;stroke-miterlimit:4;stroke-dasharray:none;stroke-opacity:1"
       d="M 78 0 L 0 45 L 0 135 L 78 180 L 156 135 L 156 45 L 78 0 z "
       id="path2092"
       transform="matrix(0.8,0,0,-0.8,0,144)" /><path
       style="font-style:italic;font-weight:normal;font-size:5.62450027000000041px;font-family:Utopia;display:inline;fill:#e4c519;fill-opacity:1;stroke:none;stroke-width:0.68047267000000000;stroke-miterlimit:4;stroke-opacity:1"
       d="M 145.62109 86.417969 C 141.22257 86.417969 138.65825 88.899584 137.34375 91.511719 L 137.3418 91.511719 C 136.0589 94.083894 135.96094 96.367648 135.96094 97.658203 C 135.96094 99.806686 136.61686 101.63931 137.91992 102.91797 C 139.22297 104.19663 141.14593 104.89844 143.58203 104.89844 C 147.94652 104.89844 150.26993 102.57403 151.55469 99.998047 C 152.78951 97.526017 152.98438 95.210119 152.98438 93.875 C 152.98438 91.322784 152.19105 89.426249 150.85156 88.195312 C 149.51209 86.964375 147.66529 86.417969 145.62109 86.417969 z M 145.9707 88.390625 C 146.90242 88.390625 147.40099 88.709699 147.75195 89.277344 C 148.10293 89.844989 148.26367 90.717456 148.26367 91.75 C 148.26367 94.057306 147.76012 96.922612 146.84375 99.164062 C 146.38556 100.28479 145.82287 101.24925 145.19727 101.91016 C 144.57167 102.57106 143.91051 102.92188 143.18359 102.92188 C 142.29952 102.92188 141.7299 102.64244 141.32227 102.08984 C 140.91463 101.53724 140.67969 100.65535 140.67969 99.464844 C 140.67969 97.591399 141.13789 94.743248 142.05859 92.417969 C 142.51896 91.255329 143.09595 90.224804 143.75977 89.507812 C 144.42358 88.79082 145.14363 88.390625 145.9707 88.390625 z "
       transform="matrix(0.8,0,0,-0.8,0,144)"
       id="text27012" /><ellipse
       transform="scale(1,-1)"
       id="path4777"
       style="fill:#ececec;fill-opacity:1;stroke:none;stroke-width:0.53417093;stroke-miterlimit:4;stroke-dasharray:none;stroke-opacity:1"
       cx="62.160511"
       cy="-73.576599"
       rx="49.208344"
       ry="48.978268" /><path
       style="color:#000000;font-style:normal;font-variant:normal;font-weight:normal;font-stretch:normal;font-size:medium;line-height:normal;font-family:sans-serif;text-indent:0;text-align:start;text-decoration:none;text-decoration-line:none;text-decoration-style:solid;text-decoration-color:#000000;letter-spacing:normal;word-spacing:normal;text-transform:none;direction:ltr;block-progression:tb;writing-mode:lr-tb;baseline-shift:baseline;text-anchor:start;white-space:normal;clip-rule:nonzero;display:inline;overflow:visible;visibility:visible;opacity:1;isolation:auto;mix-blend-mode:normal;color-interpolation:sRGB;color-interpolation-filters:linearRGB;solid-color:#000000;solid-opacity:1;fill:#d5c56b;fill-opacity:1;fill-rule:nonzero;stroke:none;stroke-width:0.53417093;stroke-linecap:butt;stroke-linejoin:miter;stroke-miterlimit:4;stroke-dasharray:none;stroke-dashoffset:0;stroke-opacity:1;color-rendering:auto;image-rendering:auto;shape-rendering:auto;text-rendering:auto;enable-background:accumulate"
       d="m 62.160156,122.82227 c -27.320686,0 -49.474609,-22.05113 -49.474609,-49.246098 0,-27.194972 22.153923,-49.244141 49.474609,-49.244141 27.320687,0 49.476564,22.049169 49.476564,49.244141 0,27.194968 -22.155877,49.246098 -49.476564,49.246098 z m 0,-0.53516 c 27.033349,0 48.941404,-21.80601 48.941404,-48.710938 0,-26.904929 -21.908055,-48.710938 -48.941404,-48.710938 -27.033349,0 -48.941406,21.806009 -48.941406,48.710938 0,26.904928 21.908057,48.710938 48.941406,48.710938 z"
       id="ellipse5410"
       inkscape:connector-curvature="0" /><g
       id="Layer_1"
       transform="matrix(0.8,0,0,-0.8,-239.39999,131.01455)" /><g
       id="Layer_3"
       transform="matrix(0.8,0,0,-0.8,-239.39999,131.01455)" /><g
       id="Layer_5"
       transform="matrix(0.8,0,0,-0.8,-239.39999,131.01455)" /><g
       id="Layer_4"
       transform="matrix(0.8,0,0,-0.8,-239.39999,131.01455)" /><g
       id="Layer_6"
       transform="matrix(0.8,0,0,-0.8,-239.39999,131.01455)"><g
         id="g5378" /><g
         id="g5380" /><g
         id="g5382" /><g
         id="g5384" /><g
         id="g5386" /><g
         id="g5388" /></g><path
       style="display:inline;opacity:1;fill:#d2d2d2;fill-rule:evenodd;stroke:none;stroke-width:0.5;stroke-linecap:round;stroke-linejoin:round;stroke-miterlimit:4;stroke-dasharray:none;stroke-opacity:1;fill-opacity:1"
       d="M 68.808594 34.746094 A 1.0633444 1.0633444 0 0 0 68.101562 35.019531 C 68.101562 35.019531 65.104181 37.779203 57.851562 40.236328 C 50.594644 42.694903 37.923828 45.210938 37.923828 45.210938 A 1.0633444 1.0633444 0 0 0 37.244141 45.675781 L 35.224609 48.783203 A 1.0633444 1.0633444 0 0 0 36.222656 50.419922 L 47.974609 49.306641 L 48.748047 52.146484 L 37.134766 109.23828 C 37.049197 109.38886 34.305908 114.21395 29.361328 116.33203 C 26.595599 117.51678 25.14328 117.90236 24.410156 118.02734 L 23.4375 118.02734 A 1.0633444 1.0633444 0 0 0 22.607422 119.75391 C 22.607422 119.75391 22.711929 119.87002 22.773438 119.91992 C 22.83495 119.96982 22.902679 120.01554 22.972656 120.05273 C 23.112609 120.12712 23.26335 120.17375 23.421875 120.20312 C 23.738927 120.26186 24.092484 120.25773 24.601562 120.17773 C 24.613812 120.17586 24.655556 120.15437 24.667969 120.15234 L 62.603516 120.26172 A 1.0633444 1.0633444 0 0 0 63.142578 118.27539 L 57.195312 114.79492 C 55.171665 112.96694 54.451499 111.68136 54.189453 110.41016 C 53.928619 109.14486 54.136481 107.6976 54.238281 105.73242 L 69.855469 36.041016 A 1.0633444 1.0633444 0 0 0 68.808594 34.746094 z "
       transform="matrix(0.8,0,0,-0.8,0,144)"
       id="path5727" /><path
       style="color:#000000;font-style:normal;font-variant:normal;font-weight:normal;font-stretch:normal;font-size:medium;line-height:normal;font-family:sans-serif;text-indent:0;text-align:start;text-decoration:none;text-decoration-line:none;text-decoration-style:solid;text-decoration-color:#000000;letter-spacing:normal;word-spacing:normal;text-transform:none;direction:ltr;block-progression:tb;writing-mode:lr-tb;baseline-shift:baseline;text-anchor:start;white-space:normal;clip-rule:nonzero;display:inline;overflow:visible;visibility:visible;opacity:1;isolation:auto;mix-blend-mode:normal;color-interpolation:sRGB;color-interpolation-filters:linearRGB;solid-color:#000000;solid-opacity:1;fill:#e4c519;fill-opacity:1;fill-rule:evenodd;stroke:none;stroke-width:0.68047254999999995;stroke-linecap:round;stroke-linejoin:round;stroke-miterlimit:4;stroke-dasharray:none;stroke-dashoffset:0;stroke-opacity:1;color-rendering:auto;image-rendering:auto;shape-rendering:auto;text-rendering:auto;enable-background:accumulate"
       d="M 108.08203 18.507812 C 107.84197 18.512712 107.65359 18.715294 107.66602 18.955078 L 107.66602 23.837891 C 107.66402 24.071638 107.85026 24.263536 108.08398 24.267578 C 108.24604 24.269778 108.39525 24.179608 108.46875 24.035156 C 108.54005 24.17524 108.6827 24.264614 108.83984 24.267578 C 109.07816 24.270078 109.27198 24.076209 109.26953 23.837891 L 109.26953 18.955078 C 109.28823 18.502564 108.68086 18.338121 108.46875 18.738281 C 108.39445 18.593945 108.24436 18.50453 108.08203 18.507812 z M 113.50977 21.78125 C 113.27052 21.78625 113.08246 21.987525 113.09375 22.226562 L 113.09375 26.765625 C 113.09175 27.000125 113.27918 27.192339 113.51367 27.195312 C 113.67347 27.196713 113.82059 27.108472 113.89453 26.966797 C 113.96713 27.105982 114.11059 27.19383 114.26758 27.195312 C 114.50666 27.198912 114.70169 27.004718 114.69922 26.765625 L 114.69922 22.226562 C 114.69822 21.787122 114.11307 21.636938 113.90039 22.021484 C 113.82819 21.872061 113.67569 21.778269 113.50977 21.78125 z M 119.84766 25.078125 C 119.68738 25.081125 119.5424 25.174015 119.47266 25.318359 C 119.25947 24.932903 118.67296 25.084909 118.67383 25.525391 L 118.67383 30.794922 C 118.66883 31.030939 118.85771 31.225554 119.09375 31.228516 C 119.25608 31.231816 119.40612 31.142386 119.48047 30.998047 C 119.55157 31.136162 119.69236 31.224515 119.84766 31.228516 C 120.08906 31.233216 120.28598 31.036321 120.28125 30.794922 L 120.28125 25.525391 C 120.29405 25.278674 120.09466 25.073001 119.84766 25.078125 z M 108.30469 25.136719 A 0.20430162 0.22137881 0 0 0 108.125 25.302734 L 107.61719 27.404297 L 105.50195 27.505859 A 0.20430162 0.22137881 0 0 0 105.40234 27.914062 L 107.08984 29.085938 L 106.52539 31.296875 A 0.20430162 0.22137881 0 0 0 106.85156 31.527344 L 108.4043 30.150391 L 110.16797 31.414062 A 0.20430162 0.22137881 0 0 0 110.47266 31.148438 L 109.74219 29.125 L 111.39844 27.697266 A 0.20430162 0.22137881 0 0 0 111.25977 27.300781 L 109.25586 27.427734 L 108.51367 25.28125 A 0.20430162 0.22137881 0 0 0 108.32617 25.136719 A 0.20430162 0.22137881 0 0 0 108.30469 25.136719 z M 113.80273 28.126953 A 0.20430162 0.22137881 0 0 0 113.62109 28.292969 L 113.11328 30.394531 L 110.99805 30.498047 A 0.20430162 0.22137881 0 0 0 110.89844 30.904297 L 112.58594 32.078125 L 112.02148 34.289062 A 0.20430162 0.22137881 0 0 0 112.34766 34.519531 L 113.90039 33.140625 L 115.66602 34.404297 A 0.20430162 0.22137881 0 0 0 115.96875 34.140625 L 115.23828 32.115234 L 116.89453 30.6875 A 0.20430162 0.22137881 0 0 0 116.75586 30.292969 L 114.75391 30.417969 L 114.01172 28.271484 A 0.20430162 0.22137881 0 0 0 113.82227 28.126953 A 0.20430162 0.22137881 0 0 0 113.80273 28.126953 z M 125.5625 28.333984 C 125.40222 28.336984 125.25724 28.429874 125.1875 28.574219 C 124.97267 28.194224 124.39334 28.344742 124.39062 28.78125 L 124.39062 36.138672 C 124.38863 36.372423 124.57486 36.564322 124.80859 36.568359 C 124.97022 36.570859 125.11932 36.481589 125.19336 36.337891 C 125.26516 36.477218 125.40774 36.565775 125.56445 36.568359 C 125.80353 36.571959 125.99856 36.377765 125.99609 36.138672 L 125.99609 28.78125 C 126.00889 28.534533 125.8095 28.32886 125.5625 28.333984 z M 131.07812 31.644531 C 130.91784 31.647531 130.77286 31.740421 130.70312 31.884766 C 130.48995 31.499335 129.90345 31.651334 129.9043 32.091797 L 129.9043 42.021484 C 129.9003 42.256743 130.08895 42.450154 130.32422 42.453125 C 130.48655 42.456425 130.63659 42.366995 130.71094 42.222656 C 130.78204 42.360768 130.92282 42.44912 131.07812 42.453125 C 131.31876 42.457825 131.51533 42.262124 131.51172 42.021484 L 131.51172 32.091797 C 131.52452 31.845075 131.32514 31.639401 131.07812 31.644531 z M 119.26758 32.080078 A 0.20430162 0.22137881 0 0 0 119.08789 32.244141 L 118.58008 34.345703 L 116.46484 34.449219 A 0.20430162 0.22137881 0 0 0 116.36523 34.855469 L 118.05273 36.029297 L 117.48828 38.240234 A 0.20430162 0.22137881 0 0 0 117.81445 38.470703 L 119.36719 37.09375 L 121.13086 38.357422 A 0.20430162 0.22137881 0 0 0 121.43555 38.091797 L 120.70508 36.066406 L 122.36133 34.638672 A 0.20430162 0.22137881 0 0 0 122.22266 34.244141 L 120.21875 34.369141 L 119.47656 32.222656 A 0.20430162 0.22137881 0 0 0 119.28906 32.080078 A 0.20430162 0.22137881 0 0 0 119.26758 32.080078 z M 136.79297 34.869141 C 136.63312 34.871741 136.48826 34.963831 136.41797 35.107422 C 136.20429 34.721025 135.61622 34.87487 135.61914 35.316406 L 135.61914 51.134766 C 135.61414 51.370782 135.80302 51.565397 136.03906 51.568359 C 136.20139 51.571659 136.35143 51.482229 136.42578 51.337891 C 136.49728 51.47661 136.63891 51.565064 136.79492 51.568359 C 137.03556 51.571959 137.23126 51.375384 137.22656 51.134766 L 137.22656 35.316406 C 137.23936 35.069688 137.03997 34.864017 136.79297 34.869141 z M 125.04102 37.433594 A 0.20430162 0.22137881 0 0 0 124.86133 37.597656 L 124.35352 39.701172 L 122.23828 39.802734 A 0.20430162 0.22137881 0 0 0 122.13867 40.208984 L 123.82617 41.382812 L 123.26172 43.59375 A 0.20430162 0.22137881 0 0 0 123.58789 43.824219 L 125.14062 42.447266 L 126.90625 43.710938 A 0.20430162 0.22137881 0 0 0 127.20898 43.445312 L 126.47852 41.421875 L 128.13477 39.992188 A 0.20430162 0.22137881 0 0 0 127.99609 39.597656 L 125.99219 39.724609 L 125.25195 37.578125 A 0.20430162 0.22137881 0 0 0 125.0625 37.433594 A 0.20430162 0.22137881 0 0 0 125.04102 37.433594 z M 130.62305 43.433594 A 0.20430162 0.22137881 0 0 0 130.44336 43.597656 L 129.93555 45.701172 L 127.82031 45.802734 A 0.20430162 0.22137881 0 0 0 127.7207 46.208984 L 129.4082 47.382812 L 128.84375 49.59375 A 0.20430162 0.22137881 0 0 0 129.16992 49.824219 L 130.72266 48.447266 L 132.48828 49.710938 A 0.20430162 0.22137881 0 0 0 132.79102 49.445312 L 132.06055 47.421875 L 133.7168 45.992188 A 0.20430162 0.22137881 0 0 0 133.57812 45.597656 L 131.57422 45.724609 L 130.83398 43.576172 A 0.20430162 0.22137881 0 0 0 130.64453 43.433594 A 0.20430162 0.22137881 0 0 0 130.62305 43.433594 z M 136.25781 52.429688 A 0.20430162 0.22137881 0 0 0 136.07812 52.59375 L 135.57031 54.695312 L 133.45508 54.798828 A 0.20430162 0.22137881 0 0 0 133.35547 55.205078 L 135.04297 56.378906 L 134.47852 58.589844 A 0.20430162 0.22137881 0 0 0 134.80469 58.820312 L 136.35742 57.443359 L 138.12109 58.707031 A 0.20430162 0.22137881 0 0 0 138.42578 58.441406 L 137.69531 56.416016 L 139.35156 54.988281 A 0.20430162 0.22137881 0 0 0 139.21289 54.59375 L 137.20898 54.720703 L 136.4668 52.572266 A 0.20430162 0.22137881 0 0 0 136.2793 52.429688 A 0.20430162 0.22137881 0 0 0 136.25781 52.429688 z M 136.47266 117.29102 A 0.20430162 0.22137881 0 0 0 136.29102 117.45703 L 135.7832 119.55859 L 133.66992 119.66016 A 0.20430162 0.22137881 0 0 0 133.56836 120.06836 L 135.25586 121.24023 L 134.69141 123.45117 A 0.20430162 0.22137881 0 0 0 135.01758 123.68164 L 136.57031 122.30469 L 138.33594 123.56836 A 0.20430162 0.22137881 0 0 0 138.63867 123.30273 L 137.9082 121.2793 L 139.56445 119.85156 A 0.20430162 0.22137881 0 0 0 139.42578 119.45703 L 137.42383 119.58203 L 136.68164 117.43555 A 0.20430162 0.22137881 0 0 0 136.49219 117.29102 A 0.20430162 0.22137881 0 0 0 136.47266 117.29102 z M 136.27344 124.61523 C 136.03338 124.62023 135.84499 124.82271 135.85742 125.0625 L 135.85742 144.6582 C 135.85342 144.89346 136.04207 145.08687 136.27734 145.08984 C 136.43671 145.09184 136.58372 145.00414 136.6582 144.86328 C 136.7314 145.00171 136.87468 145.08874 137.03125 145.08984 C 137.27111 145.09384 137.46647 144.89806 137.46289 144.6582 L 137.46289 125.0625 C 137.46189 124.62306 136.87674 124.47287 136.66406 124.85742 C 136.59246 124.70723 136.43981 124.61261 136.27344 124.61523 z M 130.9668 124.63867 A 0.20430162 0.22137881 0 0 0 130.78711 124.80469 L 130.2793 126.90625 L 128.16406 127.00977 A 0.20430162 0.22137881 0 0 0 128.06445 127.41602 L 129.75195 128.58984 L 129.1875 130.80078 A 0.20430162 0.22137881 0 0 0 129.51367 131.03125 L 131.06445 129.65234 L 132.83008 130.91797 A 0.20430162 0.22137881 0 0 0 133.13281 130.65234 L 132.4043 128.62695 L 134.06055 127.19922 A 0.20430162 0.22137881 0 0 0 133.92188 126.80469 L 131.91797 126.92969 L 131.17578 124.7832 A 0.20430162 0.22137881 0 0 0 130.98633 124.63867 A 0.20430162 0.22137881 0 0 0 130.9668 124.63867 z M 125.33008 130.95898 A 0.20430162 0.22137881 0 0 0 125.15039 131.125 L 124.64258 133.22656 L 122.52734 133.32812 A 0.20430162 0.22137881 0 0 0 122.42578 133.73633 L 124.11328 134.9082 L 123.55078 137.11914 A 0.20430162 0.22137881 0 0 0 123.875 137.34961 L 125.42773 135.97266 L 127.19336 137.23633 A 0.20430162 0.22137881 0 0 0 127.49609 136.9707 L 126.76562 134.94727 L 128.42383 133.51758 A 0.20430162 0.22137881 0 0 0 128.2832 133.12305 L 126.28125 133.25 L 125.53906 131.10352 A 0.20430162 0.22137881 0 0 0 125.34961 130.95898 A 0.20430162 0.22137881 0 0 0 125.33008 130.95898 z M 131.45312 131.70898 C 131.29355 131.71298 131.1495 131.80548 131.08008 131.94922 C 130.8674 131.56467 130.2824 131.71486 130.28125 132.1543 L 130.28125 147.85938 C 130.27725 148.09464 130.4659 148.28805 130.70117 148.29102 C 130.8628 148.29402 131.0119 148.20422 131.08594 148.06055 C 131.15744 148.19927 131.29907 148.28773 131.45508 148.29102 C 131.69494 148.29502 131.8903 148.09922 131.88672 147.85938 L 131.88672 132.1543 C 131.89832 131.90834 131.69932 131.70392 131.45312 131.70898 z M 119.91602 136.29297 A 0.20430162 0.22137881 0 0 0 119.73438 136.45703 L 119.22852 138.56055 L 117.11328 138.66211 A 0.20430162 0.22137881 0 0 0 117.01172 139.06836 L 118.69922 140.24219 L 118.13672 142.45312 A 0.20430162 0.22137881 0 0 0 118.46094 142.68359 L 120.01367 141.30664 L 121.7793 142.57031 A 0.20430162 0.22137881 0 0 0 122.08203 142.30469 L 121.35156 140.28125 L 123.00781 138.85156 A 0.20430162 0.22137881 0 0 0 122.86914 138.45703 L 120.86719 138.58398 L 120.125 136.43555 A 0.20430162 0.22137881 0 0 0 119.93555 136.29297 A 0.20430162 0.22137881 0 0 0 119.91602 136.29297 z M 125.82812 137.98242 C 125.66855 137.98642 125.5245 138.07892 125.45508 138.22266 C 125.24189 137.8372 124.65538 137.98921 124.65625 138.42969 L 124.65625 151.13477 C 124.65225 151.37003 124.8409 151.56344 125.07617 151.56641 C 125.2378 151.56941 125.3869 151.47961 125.46094 151.33594 C 125.53244 151.47466 125.67407 151.56312 125.83008 151.56641 C 126.06994 151.57041 126.2653 151.37463 126.26172 151.13477 L 126.26172 138.42969 C 126.27452 138.18297 126.07513 137.97729 125.82812 137.98242 z M 114.33398 141.14648 A 0.20430162 0.22137881 0 0 0 114.15234 141.3125 L 113.64648 143.41406 L 111.53125 143.51562 A 0.20430162 0.22137881 0 0 0 111.42969 143.92383 L 113.11719 145.0957 L 112.55469 147.30859 A 0.20430162 0.22137881 0 0 0 112.87891 147.53906 L 114.43164 146.16016 L 116.19727 147.42383 A 0.20430162 0.22137881 0 0 0 116.5 147.16016 L 115.76953 145.13477 L 117.42578 143.70703 A 0.20430162 0.22137881 0 0 0 117.28711 143.3125 L 115.28516 143.4375 L 114.54297 141.29102 A 0.20430162 0.22137881 0 0 0 114.35352 141.14648 A 0.20430162 0.22137881 0 0 0 114.33398 141.14648 z M 120.37891 143.31836 C 120.21933 143.32236 120.07528 143.41486 120.00586 143.55859 C 119.79267 143.17313 119.20616 143.32516 119.20703 143.76562 L 119.20703 154.41797 C 119.20503 154.65247 119.39246 154.84469 119.62695 154.84766 C 119.78831 154.84866 119.93658 154.75906 120.00977 154.61523 C 120.08107 154.75531 120.22372 154.8447 120.38086 154.84766 C 120.61994 154.85166 120.81497 154.65706 120.8125 154.41797 L 120.8125 143.76562 C 120.8253 143.5189 120.6259 143.31324 120.37891 143.31836 z M 108.31836 144.32617 A 0.20430162 0.22137881 0 0 0 108.13672 144.49023 L 107.63086 146.5918 L 105.51562 146.69531 A 0.20430162 0.22137881 0 0 0 105.41406 147.10156 L 107.10156 148.27539 L 106.53906 150.48633 A 0.20430162 0.22137881 0 0 0 106.86328 150.7168 L 108.41602 149.33984 L 110.18164 150.60352 A 0.20430162 0.22137881 0 0 0 110.48438 150.33789 L 109.75391 148.3125 L 111.41016 146.88477 A 0.20430162 0.22137881 0 0 0 111.27148 146.49023 L 109.26953 146.61719 L 108.52734 144.46875 A 0.20430162 0.22137881 0 0 0 108.33789 144.32617 A 0.20430162 0.22137881 0 0 0 108.31836 144.32617 z M 114.04102 148.07812 C 113.80096 148.08312 113.61257 148.2856 113.625 148.52539 L 113.625 157.64062 C 113.621 157.87515 113.80847 158.06823 114.04297 158.07227 C 114.2046 158.07527 114.35369 157.98547 114.42773 157.8418 C 114.49983 157.98174 114.64336 158.07041 114.80078 158.07227 C 115.04064 158.07627 115.236 157.88049 115.23242 157.64062 L 115.23242 148.52539 C 115.23329 148.08491 114.64678 147.9329 114.43359 148.31836 C 114.36109 148.16828 114.20764 148.07439 114.04102 148.07812 z M 108.08203 151.39844 C 107.84197 151.40344 107.65359 151.60591 107.66602 151.8457 L 107.66602 161.0625 C 107.66202 161.297 107.84948 161.4901 108.08398 161.49414 C 108.24561 161.49714 108.39471 161.40734 108.46875 161.26367 C 108.54055 161.403 108.68313 161.49156 108.83984 161.49414 C 109.07893 161.49614 109.27309 161.30158 109.26953 161.0625 L 109.26953 151.8457 C 109.28823 151.39318 108.68086 151.22875 108.46875 151.62891 C 108.39445 151.48457 108.24436 151.39516 108.08203 151.39844 z "
       transform="matrix(0.8,0,0,-0.8,0,144)"
       id="path6620" /><path
       style="color:#000000;font-style:normal;font-variant:normal;font-weight:normal;font-stretch:normal;font-size:medium;line-height:normal;font-family:sans-serif;text-indent:0;text-align:start;text-decoration:none;text-decoration-line:none;text-decoration-style:solid;text-decoration-color:#000000;letter-spacing:normal;word-spacing:normal;text-transform:none;direction:ltr;block-progression:tb;writing-mode:lr-tb;baseline-shift:baseline;text-anchor:start;white-space:normal;clip-rule:nonzero;display:inline;overflow:visible;visibility:visible;opacity:1;isolation:auto;mix-blend-mode:normal;color-interpolation:sRGB;color-interpolation-filters:linearRGB;solid-color:#000000;solid-opacity:1;fill:#d2d2d2;fill-opacity:1;fill-rule:evenodd;stroke:none;stroke-width:0.68047255;stroke-linecap:round;stroke-linejoin:round;stroke-miterlimit:4;stroke-dasharray:none;stroke-dashoffset:0;stroke-opacity:1;color-rendering:auto;image-rendering:auto;shape-rendering:auto;text-rendering:auto;enable-background:accumulate"
       d="m 108.08203,32.314453 c -0.24006,0.0049 -0.42844,0.207481 -0.41601,0.447266 l 0,44.65039 c -0.005,0.235262 0.18269,0.429557 0.41796,0.433594 0.16206,0.0022 0.31127,-0.08797 0.38477,-0.232422 0.0713,0.140084 0.21395,0.229458 0.37109,0.232422 0.23987,0.0025 0.43436,-0.193752 0.42969,-0.433594 l 0,-44.65039 c 0.0187,-0.452514 -0.58867,-0.616957 -0.80078,-0.216797 -0.0743,-0.144337 -0.22439,-0.233753 -0.38672,-0.230469 z m 5.42774,2.818359 c -0.24006,0.0049 -0.42845,0.207477 -0.41602,0.447266 l 0,25.083984 c -0.002,0.2345 0.18543,0.426713 0.41992,0.429688 0.1598,0.0014 0.30692,-0.08684 0.38086,-0.228516 0.0726,0.139185 0.21606,0.227033 0.37305,0.228516 0.23908,0.0036 0.43411,-0.190595 0.43164,-0.429688 l 0,-25.083984 c 8.7e-4,-0.440482 -0.58564,-0.592487 -0.79883,-0.207031 -0.0722,-0.149423 -0.2247,-0.243214 -0.39062,-0.240235 z m 6.33789,3.798829 c -0.16028,0.003 -0.30526,0.09589 -0.375,0.240234 -0.21319,-0.385456 -0.7997,-0.233451 -0.79883,0.207031 l 0,12.404297 c -0.002,0.2345 0.18543,0.426713 0.41992,0.429688 0.16206,0.0022 0.31127,-0.08797 0.38477,-0.232422 0.0709,0.139476 0.21271,0.228746 0.36914,0.232422 0.23984,0.0047 0.43609,-0.189816 0.43359,-0.429688 l 0,-12.404297 c 0.0128,-0.246718 -0.18659,-0.452389 -0.43359,-0.447265 z m 11.23046,11.36914 c -0.16028,0.003 -0.30526,0.09589 -0.375,0.240235 -0.21318,-0.38543 -0.79967,-0.233432 -0.79882,0.207031 l 0,12.259765 c -0.002,0.2345 0.18543,0.426713 0.41992,0.429688 0.16163,0.0025 0.31072,-0.08677 0.38476,-0.230469 0.0715,0.138719 0.21314,0.227174 0.36914,0.230469 0.23984,0.0047 0.4361,-0.189811 0.4336,-0.429688 l 0,-12.259765 c 0.0128,-0.246721 -0.18659,-0.452396 -0.4336,-0.447266 z m 5.71485,9.228516 c -0.15985,0.0026 -0.30471,0.09469 -0.375,0.238281 -0.21319,-0.385459 -0.7997,-0.233453 -0.79883,0.207031 l 0,25.806641 c -0.004,0.235259 0.18465,0.42867 0.41992,0.431641 0.16233,0.0033 0.31237,-0.08613 0.38672,-0.230469 0.0715,0.138719 0.21313,0.227174 0.36914,0.230469 0.23986,0.0036 0.43522,-0.191785 0.43164,-0.431641 l 0,-25.806641 c 0.0116,-0.24596 -0.18741,-0.450363 -0.43359,-0.445312 z m -5.71485,9.365234 c -0.16028,0.003 -0.30526,0.09588 -0.375,0.240235 -0.21269,-0.384521 -0.79766,-0.234344 -0.79882,0.205078 l 0,16.492187 c -0.004,0.235259 0.18465,0.42867 0.41992,0.431641 0.1619,0.0037 0.31183,-0.08494 0.38672,-0.228516 0.0717,0.137356 0.21231,0.224896 0.36718,0.228516 0.24063,0.0047 0.43721,-0.191001 0.4336,-0.431641 l 0,-16.492187 c 0.0116,-0.245964 -0.1874,-0.45037 -0.4336,-0.445313 z M 125.5625,73.25 c -0.16028,0.003 -0.30526,0.09588 -0.375,0.240234 -0.21483,-0.379995 -0.79417,-0.229476 -0.79688,0.207032 l 0,12.089843 c -0.004,0.234509 0.18347,0.427605 0.41797,0.431641 0.1619,0.0037 0.31183,-0.08494 0.38672,-0.228516 0.072,0.137963 0.21356,0.225605 0.36914,0.228516 0.23986,0.0036 0.43522,-0.191785 0.43164,-0.431641 l 0,-12.089843 c 0.0128,-0.246717 -0.18659,-0.45239 -0.43359,-0.447266 z m -5.71484,8.820312 c -0.16028,0.003 -0.30526,0.09589 -0.375,0.240235 -0.21319,-0.385456 -0.7997,-0.233451 -0.79883,0.207031 l 0,3.269531 c -0.004,0.235259 0.18465,0.42867 0.41992,0.431641 0.1619,0.0037 0.31183,-0.08494 0.38672,-0.228516 0.0717,0.137359 0.21231,0.224899 0.36719,0.228516 0.24062,0.0047 0.4372,-0.191005 0.43359,-0.431641 l 0,-3.269531 c 0.0128,-0.246717 -0.18659,-0.45239 -0.43359,-0.447266 z m -6.33789,1.328126 c -0.24006,0.0049 -0.42845,0.207477 -0.41602,0.447265 l 0,1.994141 c -0.002,0.234501 0.18543,0.426712 0.41992,0.429687 0.1598,0.0014 0.30692,-0.08684 0.38086,-0.228515 0.0726,0.139185 0.21606,0.227032 0.37305,0.228515 0.23908,0.0036 0.43411,-0.190594 0.43164,-0.429687 l 0,-1.994141 c -10e-4,-0.439441 -0.58615,-0.589624 -0.79883,-0.205078 -0.0716,-0.150184 -0.22425,-0.244812 -0.39062,-0.242187 z m 12.31835,25.652342 c -0.15957,0.004 -0.30362,0.0965 -0.37304,0.24024 -0.21268,-0.38454 -0.79768,-0.23437 -0.79883,0.20507 l 0,1.50977 c -0.004,0.23526 0.18465,0.42867 0.41992,0.43164 0.1612,0.003 0.31019,-0.0856 0.38477,-0.22852 0.072,0.13796 0.21355,0.22561 0.36914,0.22852 0.23986,0.004 0.43522,-0.19178 0.43164,-0.43164 l 0,-1.50977 c 0.0116,-0.24596 -0.18741,-0.45037 -0.4336,-0.44531 z m 10.44532,0.0332 c -0.24006,0.005 -0.42845,0.20748 -0.41602,0.44727 l 0,5.9707 c -0.005,0.23602 0.18388,0.43064 0.41992,0.4336 0.16023,10e-4 0.30745,-0.088 0.38086,-0.23047 0.0721,0.13994 0.21563,0.22861 0.37305,0.23047 0.24064,0.004 0.43634,-0.19298 0.43164,-0.4336 l 0,-5.9707 c -10e-4,-0.43944 -0.58615,-0.58963 -0.79883,-0.20508 -0.0716,-0.15019 -0.22425,-0.24481 -0.39062,-0.24219 z m -15.89453,0.0977 c -0.15958,0.004 -0.30363,0.0965 -0.37305,0.24024 -0.21319,-0.38546 -0.7997,-0.23345 -0.79883,0.20703 l 0,6.69531 c -0.004,0.23526 0.18465,0.42867 0.41992,0.43164 0.16163,0.003 0.31073,-0.0868 0.38477,-0.23047 0.0715,0.13872 0.21313,0.22718 0.36914,0.23047 0.23986,0.004 0.43522,-0.19178 0.43164,-0.43164 l 0,-6.69531 c 0.0128,-0.24672 -0.18659,-0.45239 -0.43359,-0.44727 z m -12.29688,4.53125 c -0.24006,0.005 -0.42844,0.20748 -0.41601,0.44727 l 0,28.5332 c -0.004,0.2345 0.18346,0.4276 0.41796,0.43164 0.16163,0.003 0.31073,-0.0868 0.38477,-0.23047 0.0718,0.13933 0.21438,0.22789 0.37109,0.23047 0.23909,0.002 0.43325,-0.19256 0.42969,-0.43164 l 0,-28.5332 c 0.0187,-0.45251 -0.58867,-0.61696 -0.80078,-0.2168 -0.0743,-0.14434 -0.22439,-0.23375 -0.38672,-0.23047 z m 23.37109,0.40234 c -0.15957,0.004 -0.30362,0.0965 -0.37304,0.24024 -0.21319,-0.38546 -0.79971,-0.23346 -0.79883,0.20703 l 0,8.38086 c -0.002,0.2345 0.18543,0.42672 0.41992,0.42969 0.16163,0.003 0.31073,-0.0868 0.38477,-0.23047 0.0715,0.13872 0.21313,0.22718 0.36914,0.23047 0.23908,0.004 0.43411,-0.1906 0.43164,-0.42969 l 0,-8.38086 c 0.0128,-0.24672 -0.1866,-0.4524 -0.4336,-0.44727 z m -11.07421,5.00782 c -0.15958,0.004 -0.30363,0.0965 -0.37305,0.24023 -0.21319,-0.38546 -0.7997,-0.23345 -0.79883,0.20703 l 0,14.98242 c -0.004,0.23526 0.18465,0.42868 0.41992,0.43165 0.16163,0.003 0.31073,-0.0868 0.38477,-0.23047 0.0715,0.13872 0.21313,0.22718 0.36914,0.23047 0.23986,0.004 0.43522,-0.19179 0.43164,-0.43165 l 0,-14.98242 c 0.0128,-0.24672 -0.18659,-0.45238 -0.43359,-0.44726 z m 5.44921,2.49609 c -0.15957,0.004 -0.30362,0.0965 -0.37304,0.24024 -0.21319,-0.38546 -0.7997,-0.23345 -0.79883,0.20703 l 0,7.16992 c -0.002,0.2345 0.18543,0.42672 0.41992,0.42969 0.16093,0.002 0.30909,-0.0874 0.38281,-0.23047 0.0718,0.13933 0.21438,0.22789 0.3711,0.23047 0.23908,0.004 0.43411,-0.1906 0.43164,-0.42969 l 0,-7.16992 c 0.0128,-0.24672 -0.18659,-0.4524 -0.4336,-0.44727 z m -11.7871,4.44922 c -0.24006,0.005 -0.42845,0.20748 -0.41602,0.44726 l 0,12.89258 c -0.004,0.23451 0.18347,0.4276 0.41797,0.43164 0.16163,0.003 0.31072,-0.0868 0.38476,-0.23046 0.0721,0.13993 0.21563,0.2286 0.37305,0.23046 0.23986,0.004 0.43522,-0.19178 0.43164,-0.43164 l 0,-12.89258 c 8.7e-4,-0.44047 -0.58564,-0.59249 -0.79883,-0.20703 -0.0725,-0.15008 -0.22595,-0.24398 -0.39257,-0.24023 z"
       transform="matrix(0.8,0,0,-0.8,0,144)"
       id="path23152"
       inkscape:connector-curvature="0"
       sodipodi:nodetypes="cccccccccccccccccccccccccccccccccccccccccccccccccccccccccccccccccccccccccccccccccccccccccccccccccccccccccccccccccccccccccccccccccccccccccccccccccccccccccccccccccccccccccc" /><path
       style="opacity:1;fill:#dedede;fill-opacity:1;fill-rule:evenodd;stroke:none;stroke-width:0.61625427;stroke-linecap:butt;stroke-linejoin:miter;stroke-miterlimit:4;stroke-dasharray:none;stroke-opacity:0.78431373"
       d="M 124.87305 50.621094 L 121.51562 53.691406 L 123.00781 57.144531 L 122.26172 61.367188 L 123.00781 61.367188 L 123.00781 62.519531 L 121.14062 65.972656 L 121.51562 69.8125 L 121.88867 71.347656 L 124.12695 72.882812 L 127.48633 71.347656 L 130.09961 68.277344 L 131.21875 65.205078 L 129.35352 63.287109 L 128.97852 60.599609 L 127.85938 59.832031 L 127.85938 55.994141 L 126.36719 53.306641 L 125.99414 51.003906 L 124.87305 50.621094 z M 120.76758 52.347656 L 117.03516 55.417969 L 115.54297 60.791016 L 114.42383 61.943359 L 114.79688 63.863281 L 112.55664 66.548828 L 112.92969 71.154297 L 111.4375 75.376953 L 111.4375 77.296875 L 113.67773 78.447266 L 113.30273 80.367188 L 113.67773 81.902344 L 115.16992 83.054688 L 117.7832 81.134766 L 118.5293 75.376953 L 119.64844 74.226562 L 119.64844 71.923828 L 117.7832 70.386719 L 118.90234 67.701172 L 118.90234 65.78125 L 122.26172 60.791016 L 122.63477 56.570312 L 120.76758 52.347656 z M 90.353516 70.832031 C 90.353516 70.832031 88.243164 76.532839 89.298828 75.175781 C 90.354491 73.818733 91.9375 71.917969 91.9375 71.917969 L 90.353516 70.832031 z M 93.521484 71.375 L 91.410156 75.71875 L 91.9375 78.160156 L 94.048828 78.974609 L 93.521484 82.232422 L 90.882812 84.402344 L 90.353516 87.117188 L 87.714844 89.289062 L 90.353516 89.832031 L 96.6875 88.746094 L 98.271484 85.488281 L 97.216797 82.775391 L 96.951172 78.431641 L 95.369141 76.804688 L 95.896484 73.003906 L 93.521484 71.375 z M 121.32812 76.144531 L 119.83594 76.529297 L 119.83594 79.214844 L 119.08789 79.984375 L 119.83594 81.519531 L 121.32812 79.599609 L 121.32812 76.144531 z M 87.978516 77.076172 L 84.8125 78.703125 L 83.755859 81.417969 L 82.171875 83.046875 L 81.644531 85.216797 L 85.867188 85.216797 L 87.451172 84.132812 L 90.089844 80.332031 L 87.978516 77.076172 z M 108.45117 78.640625 L 106.21289 79.791016 L 106.95898 84.78125 L 108.45117 84.398438 L 108.82422 80.943359 L 109.57031 79.791016 L 108.45117 78.640625 z M 111.99609 82.232422 L 110.93945 83.318359 L 109.88477 86.574219 L 109.88477 83.318359 L 108.82812 83.318359 L 108.82812 87.660156 L 107.77344 86.574219 L 104.60547 87.660156 L 100.38281 89.832031 L 94.048828 94.173828 L 91.9375 95.259766 L 88.771484 94.173828 L 88.771484 96.345703 L 91.9375 98.517578 L 91.9375 103.94531 L 89.826172 105.03125 L 83.492188 103.94531 L 81.380859 102.85938 L 78.214844 105.03125 L 72.935547 116.97266 L 76.103516 116.97266 L 77.158203 120.23047 L 86.660156 120.23047 L 89.826172 115.88672 L 89.826172 113.71484 L 96.160156 111.54492 L 97.216797 108.28711 L 100.38281 109.37305 L 105.66211 108.28711 L 106.7168 111.54492 L 115.16211 118.05859 L 115.16211 121.31445 L 111.99609 122.40039 L 110.93945 119.14453 L 108.82812 122.40039 L 115.16211 125.6582 L 115.16211 122.40039 L 118.33008 119.14453 L 119.38477 118.05859 L 114.10742 112.63086 L 113.05078 109.37305 L 109.88477 109.37305 L 110.93945 106.11523 L 111.99609 102.85938 L 115.16211 103.94531 L 115.16211 98.517578 L 111.99609 98.517578 L 111.99609 95.259766 L 115.16211 95.259766 L 115.16211 89.832031 L 111.99609 86.574219 L 111.99609 82.232422 z M 104.71875 111.26562 L 103.59961 112.0332 L 104.3457 112.80078 L 104.71875 113.95312 L 106.21289 113.95312 L 106.58594 112.41797 L 104.71875 111.26562 z M 128.97852 111.65039 L 123.75391 112.41797 L 121.88867 116.25586 L 123.75391 117.79102 L 126.74023 117.79102 L 123.75391 120.09375 L 128.23242 121.62891 L 127.48633 117.79102 L 129.72656 117.79102 L 127.48633 115.48828 L 131.21875 113.18555 L 133.45898 112.41797 L 128.97852 111.65039 z M 106.45312 114.80078 L 103.28516 115.34375 L 102.75781 119.6875 L 104.3418 119.6875 L 106.45312 116.97266 L 106.45312 114.80078 z M 97.480469 115.34375 L 95.369141 116.42969 L 96.951172 118.60156 L 98.535156 116.97266 L 97.480469 115.34375 z M 81.644531 127.82812 L 79.533203 130.54297 L 81.117188 131.62891 L 83.228516 129.45703 L 81.644531 127.82812 z M 88.505859 127.82812 L 85.339844 130.54297 L 86.923828 132.17188 L 90.617188 130.54297 L 88.505859 127.82812 z M 83.755859 130 L 81.644531 132.17188 L 85.339844 132.17188 L 83.755859 130 z "
       id="path9602"
       transform="matrix(0.8,0,0,-0.8,0,144)" /><path
       style="font-style:italic;font-weight:normal;font-size:5.62449932px;font-family:Utopia;display:inline;fill:#d2d2d2;fill-opacity:1;stroke:none;stroke-width:0.68047267;stroke-miterlimit:4;stroke-opacity:0.78431373"
       d="M 104.26758 86.785156 L 104.26758 87.208984 L 103.85547 87.113281 L 103.57812 88.298828 L 105.44922 88.464844 C 105.63382 88.481569 105.60813 88.482778 105.62695 88.525391 C 105.64578 88.568004 105.67242 88.777359 105.58789 89.140625 L 103.62109 97.761719 C 103.05238 100.27037 103.4128 102.10724 104.53125 103.2793 C 105.6497 104.45136 107.41685 104.89844 109.49414 104.89844 L 109.49414 104.89648 C 111.11926 104.89648 112.75113 104.71975 114.15039 103.75781 C 115.54965 102.79588 116.65547 101.07642 117.31445 98.167969 L 119.30664 89.328125 C 119.39541 88.935123 119.49155 88.704709 119.56836 88.607422 C 119.64517 88.510128 119.69097 88.483281 119.91211 88.464844 L 119.91406 88.464844 L 121.50977 88.3125 L 121.51172 88.3125 L 123.22266 88.464844 C 123.40725 88.481569 123.38157 88.482778 123.40039 88.525391 C 123.41922 88.568004 123.44585 88.77736 123.36133 89.140625 L 123.36133 89.142578 L 120.54883 101.98828 C 120.46103 102.38844 120.36116 102.60583 120.28711 102.69336 C 120.21306 102.78089 120.16077 102.80908 119.94141 102.82812 L 119.9375 102.82812 L 118.33203 103.00977 L 118.03125 104.53125 L 125.32031 104.53125 L 125.61914 103.01562 L 123.76758 102.85156 L 123.76367 102.85156 C 123.66109 102.84265 123.60813 102.82162 123.5918 102.8125 C 123.57542 102.80338 123.585 102.81666 123.57812 102.80078 C 123.56436 102.76904 123.5408 102.55328 123.62695 102.17188 L 123.62695 102.16992 L 124.8457 96.570312 L 125.9082 96.570312 C 126.65474 96.570313 127.26472 96.685106 127.44531 96.810547 L 127.45508 96.818359 L 127.46875 96.826172 C 127.75379 97.000861 127.94216 97.288803 128.01953 97.732422 C 128.07716 98.096852 128.07086 98.784952 128.06836 99.591797 C 128.06536 100.40076 128.07252 101.34072 128.18164 102.27539 L 128.18164 102.27734 L 128.18164 102.2832 C 128.27299 102.96307 128.53359 103.55248 129.01562 103.95117 C 129.49766 104.34986 130.15847 104.53125 130.9707 104.53125 L 133.11523 104.53125 L 133.56445 103.02344 L 133.04883 102.97461 C 132.07608 102.88247 131.69641 102.66626 131.50391 102.33203 C 131.36968 102.09303 131.20955 101.20136 131.23242 99.962891 L 131.23242 99.960938 L 131.23242 99.958984 C 131.24416 98.977518 131.2503 98.030213 130.93555 97.189453 C 130.70836 96.582588 130.20388 96.107867 129.54883 95.734375 C 130.62952 95.448775 131.70633 95.134483 132.42383 94.474609 C 133.35043 93.622444 133.9043 92.464664 133.9043 91.140625 C 133.9043 90.214453 133.70539 89.104484 132.875 88.232422 C 132.04461 87.360358 130.63145 86.785156 128.36914 86.785156 L 122.04102 86.785156 L 122.04102 87.208984 L 121.78125 87.148438 L 121.86523 86.785156 L 114.57031 86.785156 L 114.21875 88.298828 L 116.08789 88.464844 C 116.27249 88.481569 116.24875 88.482778 116.26758 88.525391 C 116.2864 88.568004 116.31304 88.777357 116.22852 89.140625 L 114.32812 97.664062 C 113.96999 99.264837 113.50674 100.67703 112.78516 101.65039 C 112.06358 102.62375 111.12642 103.19141 109.61133 103.19141 C 108.39181 103.19141 107.51415 102.8675 107.00195 102.06836 C 106.48975 101.26922 106.31355 99.867331 106.81641 97.628906 L 108.66602 89.328125 C 108.75498 88.934249 108.85346 88.696559 108.93359 88.591797 C 109.01325 88.487654 109.05757 88.457428 109.26953 88.439453 L 109.27344 88.439453 L 110.86914 88.318359 L 111.22656 86.785156 L 104.26758 86.785156 z M 89.5 87.15625 L 89.5 87.582031 L 89.498047 87.582031 L 89.083984 87.484375 L 88.808594 88.679688 L 90.703125 88.810547 C 90.90038 88.828409 90.874719 88.833588 90.886719 88.859375 C 90.898681 88.88516 90.927297 89.086256 90.841797 89.464844 L 90.841797 89.466797 L 88.029297 102.35742 C 87.940728 102.74955 87.844247 102.97349 87.771484 103.06445 C 87.698728 103.15541 87.658076 103.17879 87.445312 103.19727 L 87.441406 103.20117 L 85.816406 103.38086 L 85.511719 104.90234 L 98.585938 104.90234 L 100.01953 99.755859 L 98.466797 99.755859 L 98.361328 100.02148 C 97.776974 101.48975 97.255948 102.25369 96.595703 102.66797 C 95.935457 103.08224 95.042727 103.19922 93.623047 103.19922 C 93.057914 103.19922 92.489305 103.17914 92.039062 103.13281 C 91.813942 103.10965 91.616431 103.07916 91.474609 103.04492 C 91.336243 103.01151 91.255581 102.96444 91.269531 102.97656 C 91.160391 102.88568 91.146641 102.87884 91.134766 102.69531 C 91.122768 102.50986 91.1707 102.15344 91.296875 101.5918 L 92.416016 96.578125 L 95.146484 96.578125 C 95.644446 96.578125 96.009609 96.611059 96.248047 96.669922 C 96.486484 96.728788 96.581691 96.797622 96.642578 96.873047 C 96.764391 97.023887 96.806116 97.443943 96.759766 98.228516 L 96.732422 98.677734 L 98.232422 98.677734 L 99.492188 92.722656 L 97.966797 92.722656 L 97.863281 93.003906 C 97.561562 93.838098 97.356815 94.269819 97.082031 94.482422 C 96.807246 94.695017 96.338299 94.800781 95.333984 94.800781 L 92.792969 94.800781 L 94.015625 89.230469 L 94.015625 89.228516 C 94.0689 88.962034 94.133156 88.860859 94.128906 88.865234 C 94.12465 88.869609 94.100096 88.861328 94.255859 88.861328 L 97.091797 88.861328 C 97.805406 88.861328 98.316926 88.926569 98.654297 89.035156 C 98.991669 89.143744 99.144562 89.273124 99.25 89.445312 C 99.460875 89.789689 99.445131 90.522219 99.339844 91.619141 L 99.294922 92.083984 L 100.80859 92.083984 L 101.88477 87.15625 L 89.5 87.15625 z M 128.08789 88.488281 C 128.78365 88.488281 129.41587 88.654716 129.85547 89.013672 C 130.29506 89.372627 130.59375 89.928242 130.59375 90.896484 C 130.59375 92.261174 130.18414 93.218414 129.45508 93.865234 C 128.72603 94.512053 127.63122 94.865234 126.18945 94.865234 L 125.2168 94.865234 L 126.48633 89.085938 L 126.48633 89.082031 C 126.5262 88.910398 126.56172 88.791334 126.58984 88.732422 C 126.61847 88.672747 126.62231 88.666303 126.67969 88.634766 C 126.79434 88.571694 127.21482 88.488281 128.08789 88.488281 z M 138.96289 89.279297 C 138.96289 89.279297 136.29618 93.102852 136.00781 96.371094 C 135.56453 101.39514 137.18945 102.2832 137.18945 102.2832 L 138.96289 89.279297 z "
       id="text27000"
       transform="matrix(0.8,0,0,-0.8,0,144)" /></g></svg>