<?xml version="1.0" encoding="UTF-8" standalone="no"?>
<!-- Created with Inkscape (http://www.inkscape.org/) -->

<svg
   xmlns:dc="http://purl.org/dc/elements/1.1/"
   xmlns:cc="http://creativecommons.org/ns#"
   xmlns:rdf="http://www.w3.org/1999/02/22-rdf-syntax-ns#"
   xmlns:svg="http://www.w3.org/2000/svg"
   xmlns="http://www.w3.org/2000/svg"
   xmlns:sodipodi="http://sodipodi.sourceforge.net/DTD/sodipodi-0.dtd"
   xmlns:inkscape="http://www.inkscape.org/namespaces/inkscape"
   id="svg2"
   version="1.1"
   inkscape:version="0.91 r13725"
   width="156"
   height="180"
   xml:space="preserve"
   sodipodi:docname="coin.svg"><metadata
     id="metadata8"><rdf:RDF><cc:Work
         rdf:about=""><dc:format>image/svg+xml</dc:format><dc:type
           rdf:resource="http://purl.org/dc/dcmitype/StillImage" /><dc:title /></cc:Work></rdf:RDF></metadata><defs
     id="defs6" /><sodipodi:namedview
     pagecolor="#ffffff"
     bordercolor="#666666"
     borderopacity="1"
     objecttolerance="10"
     gridtolerance="10"
     guidetolerance="10"
     inkscape:pageopacity="0"
     inkscape:pageshadow="2"
     inkscape:window-width="1440"
     inkscape:window-height="800"
     id="namedview4"
     showgrid="false"
     inkscape:zoom="3.3222222"
     inkscape:cx="78"
     inkscape:cy="90"
     inkscape:window-x="0"
     inkscape:window-y="1"
     inkscape:window-maximized="1"
     inkscape:current-layer="g10" /><g
     id="g10"
     inkscape:groupmode="layer"
     inkscape:label="Codefor_Hex_sticker_ALL"
     transform="matrix(1.25,0,0,-1.25,0,180)"><path
       style="fill:#eed964;fill-opacity:1;stroke:none;stroke-width:1.70879996;stroke-miterlimit:4;stroke-dasharray:none;stroke-opacity:1"
       d="M 78 0 L 0 45 L 0 135 L 78 180 L 156 135 L 156 45 L 78 0 z "
       id="path2092"
       transform="matrix(0.8,0,0,-0.8,0,144)" /><g
       id="Layer_1"
       transform="matrix(0.8,0,0,-0.8,-239.39999,131.01455)" /><g
       id="Layer_3"
       transform="matrix(0.8,0,0,-0.8,-239.39999,131.01455)" /><g
       id="Layer_5"
       transform="matrix(0.8,0,0,-0.8,-239.39999,131.01455)" /><g
       id="Layer_4"
       transform="matrix(0.8,0,0,-0.8,-239.39999,131.01455)" /><g
       id="Layer_6"
       transform="matrix(0.8,0,0,-0.8,-239.39999,131.01455)"><g
         id="g5378" /><g
         id="g5380" /><g
         id="g5382" /><g
         id="g5384" /><g
         id="g5386" /><g
         id="g5388" /></g><path
       style="color:#000000;font-style:normal;font-variant:normal;font-weight:normal;font-stretch:normal;font-size:medium;line-height:normal;font-family:sans-serif;text-indent:0;text-align:start;text-decoration:none;text-decoration-line:none;text-decoration-style:solid;text-decoration-color:#000000;letter-spacing:normal;word-spacing:normal;text-transform:none;direction:ltr;block-progression:tb;writing-mode:lr-tb;baseline-shift:baseline;text-anchor:start;white-space:normal;clip-rule:nonzero;display:inline;overflow:visible;visibility:visible;opacity:1;isolation:auto;mix-blend-mode:normal;color-interpolation:sRGB;color-interpolation-filters:linearRGB;solid-color:#000000;solid-opacity:1;fill:#d5c56b;fill-opacity:1;fill-rule:evenodd;stroke:none;stroke-width:0.68047255;stroke-linecap:round;stroke-linejoin:round;stroke-miterlimit:4;stroke-dasharray:none;stroke-dashoffset:0;stroke-opacity:1;color-rendering:auto;image-rendering:auto;shape-rendering:auto;text-rendering:auto;enable-background:accumulate"
       d="m 108.08203,18.507812 c -0.24006,0.0049 -0.42844,0.207482 -0.41601,0.447266 l 0,6.882813 c -0.002,0.233747 0.18424,0.425645 0.41796,0.429687 0.16206,0.0022 0.31127,-0.08797 0.38477,-0.232422 0.0713,0.140084 0.21395,0.229458 0.37109,0.232422 0.23832,0.0025 0.43214,-0.191369 0.42969,-0.429687 l 0,-6.882813 c 0.0187,-0.452514 -0.58867,-0.616957 -0.80078,-0.216797 -0.0743,-0.144336 -0.22439,-0.233751 -0.38672,-0.230469 z m 5.42774,3.273438 c -0.23925,0.005 -0.42731,0.206275 -0.41602,0.445312 l 0,6.539063 c -0.002,0.2345 0.18543,0.426714 0.41992,0.429687 0.1598,0.0014 0.30692,-0.08684 0.38086,-0.228515 0.0726,0.139185 0.21606,0.227033 0.37305,0.228515 0.23908,0.0036 0.43411,-0.190594 0.43164,-0.429687 l 0,-6.539063 c -10e-4,-0.43944 -0.58615,-0.589624 -0.79883,-0.205078 -0.0722,-0.149423 -0.2247,-0.243215 -0.39062,-0.240234 z m 6.33789,3.296875 c -0.16028,0.003 -0.30526,0.09589 -0.375,0.240234 -0.21319,-0.385456 -0.7997,-0.23345 -0.79883,0.207032 l 0,7.269531 c -0.005,0.236017 0.18388,0.430632 0.41992,0.433594 0.16233,0.0033 0.31237,-0.08613 0.38672,-0.230469 0.0711,0.138115 0.21189,0.226468 0.36719,0.230469 0.2414,0.0047 0.43832,-0.192195 0.43359,-0.433594 l 0,-7.269531 c 0.0128,-0.246717 -0.18659,-0.45239 -0.43359,-0.447266 z m -11.54297,2.058594 c -0.0863,0.0084 -0.15836,0.07497 -0.17969,0.166015 l -0.50781,2.101563 -2.11524,0.101562 c -0.19946,0.0102 -0.26835,0.292503 -0.0996,0.408203 l 1.6875,1.171876 -0.56445,2.210937 c -0.0531,0.208055 0.1719,0.367058 0.32617,0.230469 l 1.55274,-1.376953 1.76367,1.263671 c 0.16691,0.123515 0.38029,-0.06251 0.30469,-0.265624 l -0.73047,-2.023438 1.65625,-1.427734 c 0.1607,-0.13358 0.0634,-0.411871 -0.13867,-0.396485 l -2.00391,0.126953 -0.74219,-2.146484 c -0.0291,-0.08536 -0.10352,-0.142699 -0.1875,-0.144531 -0.007,-4.08e-4 -0.0143,-4.08e-4 -0.0215,0 z m 5.49804,2.990234 c -0.0871,0.0076 -0.16007,0.07429 -0.18164,0.166016 l -0.50781,2.101562 -2.11523,0.103516 c -0.19644,0.01276 -0.2643,0.289524 -0.0996,0.40625 l 1.6875,1.173828 -0.56446,2.210937 c -0.0531,0.208066 0.17191,0.367082 0.32618,0.230469 l 1.55273,-1.378906 1.76563,1.263672 c 0.16548,0.116967 0.37257,-0.0634 0.30273,-0.263672 l -0.73047,-2.025391 1.65625,-1.427734 c 0.15645,-0.134305 0.0606,-0.407025 -0.13867,-0.394531 l -2.00195,0.125 -0.74219,-2.146485 c -0.0294,-0.08607 -0.10476,-0.143564 -0.18945,-0.144531 -0.007,-3.38e-4 -0.013,-3.38e-4 -0.0195,0 z m 11.75977,-1.792969 c -0.16028,0.003 -0.30526,0.09589 -0.375,0.240235 -0.21483,-0.379995 -0.79416,-0.229477 -0.79688,0.207031 l 0,9.357422 c -0.002,0.233751 0.18424,0.42565 0.41797,0.429687 0.16163,0.0025 0.31073,-0.08677 0.38477,-0.230468 0.0718,0.139327 0.21438,0.227884 0.37109,0.230468 0.23908,0.0036 0.43411,-0.190594 0.43164,-0.429687 l 0,-9.357422 c 0.0128,-0.246717 -0.18659,-0.45239 -0.43359,-0.447266 z m 5.51562,3.310547 c -0.16028,0.003 -0.30526,0.09589 -0.375,0.240235 -0.21317,-0.385431 -0.79967,-0.233432 -0.79882,0.207031 l 0,11.929687 c -0.004,0.235259 0.18465,0.42867 0.41992,0.431641 0.16233,0.0033 0.31237,-0.08613 0.38672,-0.230469 0.0711,0.138112 0.21188,0.226464 0.36718,0.230469 0.24064,0.0047 0.43721,-0.191001 0.4336,-0.431641 l 0,-11.929687 c 0.0128,-0.246722 -0.18658,-0.452396 -0.4336,-0.447266 z m -11.81054,2.435547 c -0.0858,0.0082 -0.15771,0.07379 -0.17969,0.164063 l -0.50781,2.101562 -2.11524,0.103516 c -0.19644,0.01276 -0.2643,0.289524 -0.0996,0.40625 l 1.6875,1.173828 -0.56445,2.210937 c -0.0531,0.208055 0.1719,0.367058 0.32617,0.230469 l 1.55274,-1.376953 1.76367,1.263672 c 0.16691,0.123516 0.3803,-0.06251 0.30469,-0.265625 l -0.73047,-2.025391 1.65625,-1.427734 c 0.15645,-0.134305 0.0606,-0.407025 -0.13867,-0.394531 l -2.00391,0.125 -0.74219,-2.146485 c -0.0297,-0.08459 -0.10398,-0.141058 -0.1875,-0.142578 -0.007,-4.08e-4 -0.0143,-4.08e-4 -0.0215,0 z m 17.52539,0.789063 c -0.15985,0.0026 -0.30471,0.09469 -0.375,0.238281 -0.21368,-0.386397 -0.80175,-0.232552 -0.79883,0.208984 l 0,17.81836 c -0.005,0.236016 0.18388,0.430631 0.41992,0.433593 0.16233,0.0033 0.31237,-0.08613 0.38672,-0.230468 0.0715,0.138719 0.21313,0.227173 0.36914,0.230468 0.24064,0.0036 0.43634,-0.192975 0.43164,-0.433593 l 0,-17.81836 c 0.0128,-0.246718 -0.18659,-0.452389 -0.43359,-0.447265 z m -11.75195,4.564453 c -0.0858,0.0082 -0.15771,0.07379 -0.17969,0.164062 l -0.50781,2.103516 -2.11524,0.101562 c -0.19644,0.01276 -0.2643,0.289524 -0.0996,0.40625 l 1.6875,1.173828 -0.56445,2.210938 c -0.0531,0.208055 0.1719,0.367058 0.32617,0.230469 l 1.55273,-1.376953 1.76563,1.263672 c 0.16647,0.119068 0.37559,-0.06442 0.30273,-0.265626 l -0.73046,-2.023437 1.65625,-1.429687 c 0.15645,-0.134308 0.0606,-0.407039 -0.13868,-0.394532 l -2.0039,0.126953 -0.74024,-2.146484 c -0.0294,-0.08607 -0.10476,-0.143564 -0.18945,-0.144531 -0.007,-4.08e-4 -0.0143,-4.08e-4 -0.0215,0 z m 5.58203,6 c -0.0858,0.0082 -0.15771,0.07379 -0.17969,0.164062 l -0.50781,2.103516 -2.11524,0.101562 c -0.19644,0.01276 -0.2643,0.289524 -0.0996,0.40625 l 1.6875,1.173828 -0.56445,2.210938 c -0.0531,0.208055 0.1719,0.367058 0.32617,0.230469 l 1.55274,-1.376953 1.76562,1.263672 c 0.16647,0.11909 0.37562,-0.06441 0.30274,-0.265626 l -0.73047,-2.023437 1.65625,-1.429687 c 0.15645,-0.134308 0.0606,-0.407039 -0.13868,-0.394532 l -2.0039,0.126953 -0.74024,-2.148437 c -0.03,-0.0853 -0.10521,-0.14192 -0.18945,-0.142578 -0.007,-4.08e-4 -0.0143,-4.08e-4 -0.0215,0 z m 5.63476,8.996094 c -0.0858,0.0082 -0.15771,0.07379 -0.17969,0.164062 l -0.50781,2.101562 -2.11523,0.103516 c -0.19644,0.01276 -0.2643,0.289524 -0.0996,0.40625 l 1.6875,1.173828 -0.56445,2.210938 c -0.0531,0.208054 0.1719,0.367056 0.32617,0.230468 l 1.55273,-1.376953 1.76367,1.263672 c 0.16691,0.123516 0.3803,-0.06251 0.30469,-0.265625 l -0.73047,-2.02539 1.65625,-1.427735 c 0.15645,-0.134305 0.0606,-0.407025 -0.13867,-0.394531 l -2.00391,0.126953 -0.74218,-2.148437 c -0.0297,-0.08459 -0.10398,-0.141058 -0.1875,-0.142578 -0.007,-4.09e-4 -0.0143,-4.09e-4 -0.0215,0 z m 0.21485,64.861332 c -0.0871,0.008 -0.16007,0.0743 -0.18164,0.16601 l -0.50782,2.10156 -2.11328,0.10157 c -0.20039,0.008 -0.27094,0.29187 -0.10156,0.4082 l 1.6875,1.17187 -0.56445,2.21094 c -0.0531,0.20806 0.1719,0.36706 0.32617,0.23047 l 1.55273,-1.37695 1.76563,1.26367 c 0.16647,0.11907 0.3756,-0.0644 0.30273,-0.26563 l -0.73047,-2.02343 1.65625,-1.42774 c 0.15644,-0.13431 0.0606,-0.40702 -0.13867,-0.39453 l -2.00195,0.125 -0.74219,-2.14648 c -0.0294,-0.0861 -0.10476,-0.14356 -0.18945,-0.14453 -0.007,-3.4e-4 -0.013,-3.4e-4 -0.0195,0 z m -0.19922,7.32421 c -0.24006,0.005 -0.42845,0.20748 -0.41602,0.44727 l 0,17.5957 c -0.004,0.23526 0.18465,0.42867 0.41992,0.43164 0.15937,0.002 0.30638,-0.0857 0.38086,-0.22656 0.0732,0.13843 0.21648,0.22546 0.37305,0.22656 0.23986,0.004 0.43522,-0.19178 0.43164,-0.43164 l 0,-17.5957 c -10e-4,-0.43944 -0.58615,-0.58963 -0.79883,-0.20508 -0.0716,-0.15019 -0.22425,-0.24481 -0.39062,-0.24219 z m -5.30664,0.0234 c -0.0863,0.008 -0.15836,0.075 -0.17969,0.16602 l -0.50781,2.10156 -2.11524,0.10352 c -0.19644,0.0128 -0.2643,0.28952 -0.0996,0.40625 l 1.6875,1.17382 -0.56445,2.21094 c -0.0531,0.20806 0.1719,0.36706 0.32617,0.23047 l 1.55078,-1.37891 1.76563,1.26563 c 0.16647,0.11907 0.3756,-0.0644 0.30273,-0.26563 l -0.72851,-2.02539 1.65625,-1.42773 c 0.15644,-0.13431 0.0606,-0.40702 -0.13867,-0.39453 l -2.00391,0.125 -0.74219,-2.14649 c -0.0294,-0.0861 -0.10476,-0.14356 -0.18945,-0.14453 -0.007,-3.4e-4 -0.013,-3.4e-4 -0.0195,0 z m -5.63672,6.32031 c -0.0863,0.008 -0.15836,0.075 -0.17969,0.16602 l -0.50781,2.10156 -2.11524,0.10156 c -0.20041,0.008 -0.27096,0.29188 -0.10156,0.40821 l 1.6875,1.17187 -0.5625,2.21094 c -0.0505,0.20582 0.1701,0.36262 0.32422,0.23047 l 1.55273,-1.37695 1.76563,1.26367 c 0.16647,0.11907 0.3756,-0.0644 0.30273,-0.26563 l -0.73047,-2.02343 1.65821,-1.42969 c 0.15752,-0.13494 0.0597,-0.40937 -0.14063,-0.39453 l -2.00195,0.12695 -0.74219,-2.14648 c -0.0294,-0.0861 -0.10475,-0.14357 -0.18945,-0.14454 -0.007,-3.4e-4 -0.013,-3.4e-4 -0.0195,0 z m 6.12304,0.75 c -0.15957,0.004 -0.30362,0.0965 -0.37304,0.24024 -0.21268,-0.38455 -0.79768,-0.23436 -0.79883,0.20508 l 0,13.70508 c -0.004,0.23526 0.18465,0.42867 0.41992,0.43164 0.16163,0.003 0.31073,-0.0868 0.38477,-0.23047 0.0715,0.13872 0.21313,0.22718 0.36914,0.23047 0.23986,0.004 0.43522,-0.1918 0.43164,-0.43164 l 0,-13.70508 c 0.0116,-0.24596 -0.1874,-0.45038 -0.4336,-0.44532 z m -11.5371,4.58399 c -0.0866,0.007 -0.15942,0.0731 -0.18164,0.16406 l -0.50586,2.10352 -2.11524,0.10156 c -0.19736,0.0109 -0.26684,0.28888 -0.10156,0.40625 l 1.6875,1.17383 -0.5625,2.21093 c -0.0505,0.20582 0.1701,0.36262 0.32422,0.23047 l 1.55273,-1.37695 1.76563,1.26367 c 0.16647,0.11906 0.37558,-0.0644 0.30273,-0.26562 l -0.73047,-2.02344 1.65625,-1.42969 c 0.15644,-0.13431 0.0606,-0.40702 -0.13867,-0.39453 l -2.00195,0.12695 -0.74219,-2.14843 c -0.03,-0.0853 -0.10521,-0.14192 -0.18945,-0.14258 -0.007,-3.4e-4 -0.013,-3.4e-4 -0.0195,0 z m 5.9121,1.68945 c -0.15957,0.004 -0.30362,0.0965 -0.37304,0.24024 -0.21319,-0.38546 -0.7997,-0.23345 -0.79883,0.20703 l 0,10.70508 c -0.004,0.23526 0.18465,0.42867 0.41992,0.43164 0.16163,0.003 0.31073,-0.0868 0.38477,-0.23047 0.0715,0.13872 0.21313,0.22718 0.36914,0.23047 0.23986,0.004 0.43522,-0.19178 0.43164,-0.43164 l 0,-10.70508 c 0.0128,-0.24672 -0.18659,-0.4524 -0.4336,-0.44727 z m -11.49414,3.16406 c -0.0871,0.008 -0.16008,0.0743 -0.18164,0.16602 l -0.50586,2.10156 -2.11523,0.10156 c -0.20041,0.008 -0.27096,0.29188 -0.10156,0.40821 l 1.6875,1.17187 -0.5625,2.21289 c -0.0505,0.20582 0.1701,0.36262 0.32422,0.23047 l 1.55273,-1.3789 1.76563,1.26367 c 0.16548,0.11697 0.37257,-0.0634 0.30273,-0.26367 l -0.73047,-2.02539 1.65625,-1.42774 c 0.15644,-0.13431 0.0606,-0.40702 -0.13867,-0.39453 l -2.00195,0.125 -0.74219,-2.14648 c -0.0294,-0.0861 -0.10475,-0.14357 -0.18945,-0.14454 -0.007,-3.4e-4 -0.013,-3.4e-4 -0.0195,0 z m 6.04493,2.17188 c -0.15958,0.004 -0.30363,0.0965 -0.37305,0.24023 -0.21319,-0.38546 -0.7997,-0.23343 -0.79883,0.20703 l 0,8.65235 c -0.002,0.2345 0.18543,0.42672 0.41992,0.42969 0.16136,0.001 0.30963,-0.0886 0.38282,-0.23243 0.0713,0.14008 0.21395,0.22947 0.37109,0.23243 0.23908,0.004 0.43411,-0.1906 0.43164,-0.42969 l 0,-8.65235 c 0.0128,-0.24672 -0.1866,-0.45238 -0.43359,-0.44726 z m -12.06055,1.00781 c -0.0866,0.007 -0.15942,0.0731 -0.18164,0.16406 l -0.50586,2.10157 -2.11524,0.10351 c -0.19736,0.0109 -0.26684,0.28888 -0.10156,0.40625 l 1.6875,1.17383 -0.5625,2.21094 c -0.0505,0.20582 0.1701,0.36262 0.32422,0.23047 l 1.55274,-1.37696 1.76562,1.26368 c 0.16647,0.11909 0.37562,-0.0644 0.30274,-0.26563 l -0.73047,-2.02539 1.65625,-1.42773 c 0.15647,-0.13431 0.0606,-0.40706 -0.13868,-0.39454 l -2.00195,0.12696 -0.74219,-2.14844 c -0.03,-0.0853 -0.10521,-0.14192 -0.18945,-0.14258 -0.007,-3.4e-4 -0.013,-3.4e-4 -0.0195,0 z m 5.72266,3.75195 c -0.24006,0.005 -0.42845,0.20748 -0.41602,0.44727 l 0,7.11523 c -0.004,0.23453 0.18347,0.42761 0.41797,0.43165 0.16163,0.003 0.31072,-0.0868 0.38476,-0.23047 0.0721,0.13994 0.21563,0.22861 0.37305,0.23047 0.23986,0.004 0.43522,-0.19178 0.43164,-0.43165 l 0,-7.11523 c 8.7e-4,-0.44048 -0.58564,-0.59249 -0.79883,-0.20703 -0.0725,-0.15008 -0.22595,-0.24397 -0.39257,-0.24024 z m -5.95899,3.32032 c -0.24006,0.005 -0.42844,0.20747 -0.41601,0.44726 l 0,7.2168 c -0.004,0.2345 0.18346,0.4276 0.41796,0.43164 0.16163,0.003 0.31073,-0.0868 0.38477,-0.23047 0.0718,0.13933 0.21438,0.22789 0.37109,0.23047 0.23909,0.002 0.43325,-0.19256 0.42969,-0.43164 l 0,-7.2168 c 0.0187,-0.45252 -0.58867,-0.61695 -0.80078,-0.21679 -0.0743,-0.14434 -0.22439,-0.23375 -0.38672,-0.23047 z"
       transform="matrix(0.8,0,0,-0.8,0,144)"
       id="path6620"
       inkscape:connector-curvature="0"
       sodipodi:nodetypes="cccccccccccccccccccccccccccccccccccccccccccccccccccccccccccccccccccccccccccccccccccccccccccccccccccccccccccccccccccccccccccccccccccccccccccccccccccccccccccccccccccccccccccccccccccccccccccccccccccccccccccccccccccccccccccccccccccccccccccccccccccccccccccccccccccccccccccccccccccccccccccccccccccccccccccccccccccccccccccccccccccccccccccccccc" /><g
       id="g4153"
       transform="translate(0,-1.5771505)"><path
         transform="matrix(0.8,0,0,-0.8,0,144)"
         id="text27012"
         d="m 145.62109,86.417969 c -4.39852,0 -6.96284,2.481615 -8.27734,5.09375 l -0.002,0 c -1.2829,2.572175 -1.38086,4.855929 -1.38086,6.146484 0,2.148483 0.65592,3.981107 1.95898,5.259767 1.30305,1.27866 3.22601,1.98047 5.66211,1.98047 4.36449,0 6.6879,-2.32441 7.97266,-4.900393 1.23482,-2.47203 1.42969,-4.787928 1.42969,-6.123047 0,-2.552216 -0.79333,-4.448751 -2.13282,-5.679688 -1.33947,-1.230937 -3.18627,-1.777343 -5.23047,-1.777343 z m 0.34961,1.972656 c 0.93172,0 1.43029,0.319074 1.78125,0.886719 0.35098,0.567645 0.51172,1.440112 0.51172,2.472656 0,2.307306 -0.50355,5.172612 -1.41992,7.414062 -0.45819,1.120728 -1.02088,2.085188 -1.64648,2.746098 -0.6256,0.6609 -1.28676,1.01172 -2.01368,1.01172 -0.88407,0 -1.45369,-0.27944 -1.86132,-0.83204 -0.40764,-0.5526 -0.64258,-1.43449 -0.64258,-2.624996 0,-1.873445 0.4582,-4.721596 1.3789,-7.046875 0.46037,-1.16264 1.03736,-2.193165 1.70118,-2.910157 0.66381,-0.716992 1.38386,-1.117187 2.21093,-1.117187 z"
         style="font-style:italic;font-weight:normal;font-size:5.62450027px;font-family:Utopia;display:inline;fill:#d5c56b;fill-opacity:1;stroke:none;stroke-width:0.68047267;stroke-miterlimit:4;stroke-opacity:1"
         inkscape:connector-curvature="0" /><ellipse
         ry="48.978268"
         rx="49.208344"
         cy="-73.576599"
         cx="62.400002"
         style="fill:#ececec;fill-opacity:1;stroke:none;stroke-width:0.53417093;stroke-miterlimit:4;stroke-dasharray:none;stroke-opacity:1"
         id="path4777"
         transform="scale(1,-1)" /><path
         inkscape:connector-curvature="0"
         id="ellipse5410"
         d="m 62.160156,122.82227 c -27.320686,0 -49.474609,-22.05113 -49.474609,-49.246098 0,-27.194972 22.153923,-49.244141 49.474609,-49.244141 27.320687,0 49.476564,22.049169 49.476564,49.244141 0,27.194968 -22.155877,49.246098 -49.476564,49.246098 z m 0,-0.53516 c 27.033349,0 48.941404,-21.80601 48.941404,-48.710938 0,-26.904929 -21.908055,-48.710938 -48.941404,-48.710938 -27.033349,0 -48.941406,21.806009 -48.941406,48.710938 0,26.904928 21.908057,48.710938 48.941406,48.710938 z"
         style="color:#000000;font-style:normal;font-variant:normal;font-weight:normal;font-stretch:normal;font-size:medium;line-height:normal;font-family:sans-serif;text-indent:0;text-align:start;text-decoration:none;text-decoration-line:none;text-decoration-style:solid;text-decoration-color:#000000;letter-spacing:normal;word-spacing:normal;text-transform:none;direction:ltr;block-progression:tb;writing-mode:lr-tb;baseline-shift:baseline;text-anchor:start;white-space:normal;clip-rule:nonzero;display:inline;overflow:visible;visibility:visible;opacity:1;isolation:auto;mix-blend-mode:normal;color-interpolation:sRGB;color-interpolation-filters:linearRGB;solid-color:#000000;solid-opacity:1;fill:#d5c56b;fill-opacity:1;fill-rule:nonzero;stroke:none;stroke-width:0.53417093;stroke-linecap:butt;stroke-linejoin:miter;stroke-miterlimit:4;stroke-dasharray:none;stroke-dashoffset:0;stroke-opacity:1;color-rendering:auto;image-rendering:auto;shape-rendering:auto;text-rendering:auto;enable-background:accumulate" /><path
         transform="matrix(0.8,0,0,-0.8,0,144)"
         id="path5727"
         d="m 68.808594,34.746094 a 1.0633444,1.0633444 0 0 0 -0.707032,0.273437 c 0,0 -2.997381,2.759672 -10.25,5.216797 -7.256918,2.458575 -19.927734,4.97461 -19.927734,4.97461 a 1.0633444,1.0633444 0 0 0 -0.679687,0.464843 l -2.019532,3.107422 a 1.0633444,1.0633444 0 0 0 0.998047,1.636719 l 11.751953,-1.113281 0.773438,2.839843 -11.613281,57.091796 c -0.08557,0.15058 -2.828858,4.97567 -7.773438,7.09375 -2.765729,1.18475 -4.218048,1.57033 -4.951172,1.69531 l -0.972656,0 a 1.0633444,1.0633444 0 0 0 -0.830078,1.72657 c 0,0 0.104507,0.11611 0.166016,0.16601 0.06151,0.0499 0.129241,0.0956 0.199218,0.13281 0.139953,0.0744 0.290694,0.12102 0.449219,0.15039 0.317052,0.0587 0.670609,0.0546 1.179687,-0.0254 0.01225,-0.002 0.05399,-0.0234 0.06641,-0.0254 l 37.935547,0.10938 a 1.0633444,1.0633444 0 0 0 0.539062,-1.98633 l -5.947266,-3.48047 c -2.023647,-1.82798 -2.743813,-3.11356 -3.005859,-4.38476 -0.260834,-1.2653 -0.05297,-2.71256 0.04883,-4.67774 L 69.855469,36.041016 a 1.0633444,1.0633444 0 0 0 -1.046875,-1.294922 z"
         style="display:inline;opacity:1;fill:#d2d2d2;fill-opacity:1;fill-rule:evenodd;stroke:none;stroke-width:0.5;stroke-linecap:round;stroke-linejoin:round;stroke-miterlimit:4;stroke-dasharray:none;stroke-opacity:1"
         inkscape:connector-curvature="0" /><path
         transform="matrix(0.8,0,0,-0.8,0,144)"
         sodipodi:nodetypes="cccccccccccccccccccccccccccccccccccccccccccccccccccccccccccccccccccccccccccccccccccccccccccccccccccccccccccccccccccccccccccccccccccccccccccccccccccccccccccccccccccccccccc"
         inkscape:connector-curvature="0"
         id="path23152"
         d="m 108.08203,32.314453 c -0.24006,0.0049 -0.42844,0.207481 -0.41601,0.447266 l 0,44.65039 c -0.005,0.235262 0.18269,0.429557 0.41796,0.433594 0.16206,0.0022 0.31127,-0.08797 0.38477,-0.232422 0.0713,0.140084 0.21395,0.229458 0.37109,0.232422 0.23987,0.0025 0.43436,-0.193752 0.42969,-0.433594 l 0,-44.65039 c 0.0187,-0.452514 -0.58867,-0.616957 -0.80078,-0.216797 -0.0743,-0.144337 -0.22439,-0.233753 -0.38672,-0.230469 z m 5.42774,2.818359 c -0.24006,0.0049 -0.42845,0.207477 -0.41602,0.447266 l 0,25.083984 c -0.002,0.2345 0.18543,0.426713 0.41992,0.429688 0.1598,0.0014 0.30692,-0.08684 0.38086,-0.228516 0.0726,0.139185 0.21606,0.227033 0.37305,0.228516 0.23908,0.0036 0.43411,-0.190595 0.43164,-0.429688 l 0,-25.083984 c 8.7e-4,-0.440482 -0.58564,-0.592487 -0.79883,-0.207031 -0.0722,-0.149423 -0.2247,-0.243214 -0.39062,-0.240235 z m 6.33789,3.798829 c -0.16028,0.003 -0.30526,0.09589 -0.375,0.240234 -0.21319,-0.385456 -0.7997,-0.233451 -0.79883,0.207031 l 0,12.404297 c -0.002,0.2345 0.18543,0.426713 0.41992,0.429688 0.16206,0.0022 0.31127,-0.08797 0.38477,-0.232422 0.0709,0.139476 0.21271,0.228746 0.36914,0.232422 0.23984,0.0047 0.43609,-0.189816 0.43359,-0.429688 l 0,-12.404297 c 0.0128,-0.246718 -0.18659,-0.452389 -0.43359,-0.447265 z m 11.23046,11.36914 c -0.16028,0.003 -0.30526,0.09589 -0.375,0.240235 -0.21318,-0.38543 -0.79967,-0.233432 -0.79882,0.207031 l 0,12.259765 c -0.002,0.2345 0.18543,0.426713 0.41992,0.429688 0.16163,0.0025 0.31072,-0.08677 0.38476,-0.230469 0.0715,0.138719 0.21314,0.227174 0.36914,0.230469 0.23984,0.0047 0.4361,-0.189811 0.4336,-0.429688 l 0,-12.259765 c 0.0128,-0.246721 -0.18659,-0.452396 -0.4336,-0.447266 z m 5.71485,9.228516 c -0.15985,0.0026 -0.30471,0.09469 -0.375,0.238281 -0.21319,-0.385459 -0.7997,-0.233453 -0.79883,0.207031 l 0,25.806641 c -0.004,0.235259 0.18465,0.42867 0.41992,0.431641 0.16233,0.0033 0.31237,-0.08613 0.38672,-0.230469 0.0715,0.138719 0.21313,0.227174 0.36914,0.230469 0.23986,0.0036 0.43522,-0.191785 0.43164,-0.431641 l 0,-25.806641 c 0.0116,-0.24596 -0.18741,-0.450363 -0.43359,-0.445312 z m -5.71485,9.365234 c -0.16028,0.003 -0.30526,0.09588 -0.375,0.240235 -0.21269,-0.384521 -0.79766,-0.234344 -0.79882,0.205078 l 0,16.492187 c -0.004,0.235259 0.18465,0.42867 0.41992,0.431641 0.1619,0.0037 0.31183,-0.08494 0.38672,-0.228516 0.0717,0.137356 0.21231,0.224896 0.36718,0.228516 0.24063,0.0047 0.43721,-0.191001 0.4336,-0.431641 l 0,-16.492187 c 0.0116,-0.245964 -0.1874,-0.45037 -0.4336,-0.445313 z M 125.5625,73.25 c -0.16028,0.003 -0.30526,0.09588 -0.375,0.240234 -0.21483,-0.379995 -0.79417,-0.229476 -0.79688,0.207032 l 0,12.089843 c -0.004,0.234509 0.18347,0.427605 0.41797,0.431641 0.1619,0.0037 0.31183,-0.08494 0.38672,-0.228516 0.072,0.137963 0.21356,0.225605 0.36914,0.228516 0.23986,0.0036 0.43522,-0.191785 0.43164,-0.431641 l 0,-12.089843 c 0.0128,-0.246717 -0.18659,-0.45239 -0.43359,-0.447266 z m -5.71484,8.820312 c -0.16028,0.003 -0.30526,0.09589 -0.375,0.240235 -0.21319,-0.385456 -0.7997,-0.233451 -0.79883,0.207031 l 0,3.269531 c -0.004,0.235259 0.18465,0.42867 0.41992,0.431641 0.1619,0.0037 0.31183,-0.08494 0.38672,-0.228516 0.0717,0.137359 0.21231,0.224899 0.36719,0.228516 0.24062,0.0047 0.4372,-0.191005 0.43359,-0.431641 l 0,-3.269531 c 0.0128,-0.246717 -0.18659,-0.45239 -0.43359,-0.447266 z m -6.33789,1.328126 c -0.24006,0.0049 -0.42845,0.207477 -0.41602,0.447265 l 0,1.994141 c -0.002,0.234501 0.18543,0.426712 0.41992,0.429687 0.1598,0.0014 0.30692,-0.08684 0.38086,-0.228515 0.0726,0.139185 0.21606,0.227032 0.37305,0.228515 0.23908,0.0036 0.43411,-0.190594 0.43164,-0.429687 l 0,-1.994141 c -10e-4,-0.439441 -0.58615,-0.589624 -0.79883,-0.205078 -0.0716,-0.150184 -0.22425,-0.244812 -0.39062,-0.242187 z m 12.31835,25.652342 c -0.15957,0.004 -0.30362,0.0965 -0.37304,0.24024 -0.21268,-0.38454 -0.79768,-0.23437 -0.79883,0.20507 l 0,1.50977 c -0.004,0.23526 0.18465,0.42867 0.41992,0.43164 0.1612,0.003 0.31019,-0.0856 0.38477,-0.22852 0.072,0.13796 0.21355,0.22561 0.36914,0.22852 0.23986,0.004 0.43522,-0.19178 0.43164,-0.43164 l 0,-1.50977 c 0.0116,-0.24596 -0.18741,-0.45037 -0.4336,-0.44531 z m 10.44532,0.0332 c -0.24006,0.005 -0.42845,0.20748 -0.41602,0.44727 l 0,5.9707 c -0.005,0.23602 0.18388,0.43064 0.41992,0.4336 0.16023,10e-4 0.30745,-0.088 0.38086,-0.23047 0.0721,0.13994 0.21563,0.22861 0.37305,0.23047 0.24064,0.004 0.43634,-0.19298 0.43164,-0.4336 l 0,-5.9707 c -10e-4,-0.43944 -0.58615,-0.58963 -0.79883,-0.20508 -0.0716,-0.15019 -0.22425,-0.24481 -0.39062,-0.24219 z m -15.89453,0.0977 c -0.15958,0.004 -0.30363,0.0965 -0.37305,0.24024 -0.21319,-0.38546 -0.7997,-0.23345 -0.79883,0.20703 l 0,6.69531 c -0.004,0.23526 0.18465,0.42867 0.41992,0.43164 0.16163,0.003 0.31073,-0.0868 0.38477,-0.23047 0.0715,0.13872 0.21313,0.22718 0.36914,0.23047 0.23986,0.004 0.43522,-0.19178 0.43164,-0.43164 l 0,-6.69531 c 0.0128,-0.24672 -0.18659,-0.45239 -0.43359,-0.44727 z m -12.29688,4.53125 c -0.24006,0.005 -0.42844,0.20748 -0.41601,0.44727 l 0,28.5332 c -0.004,0.2345 0.18346,0.4276 0.41796,0.43164 0.16163,0.003 0.31073,-0.0868 0.38477,-0.23047 0.0718,0.13933 0.21438,0.22789 0.37109,0.23047 0.23909,0.002 0.43325,-0.19256 0.42969,-0.43164 l 0,-28.5332 c 0.0187,-0.45251 -0.58867,-0.61696 -0.80078,-0.2168 -0.0743,-0.14434 -0.22439,-0.23375 -0.38672,-0.23047 z m 23.37109,0.40234 c -0.15957,0.004 -0.30362,0.0965 -0.37304,0.24024 -0.21319,-0.38546 -0.79971,-0.23346 -0.79883,0.20703 l 0,8.38086 c -0.002,0.2345 0.18543,0.42672 0.41992,0.42969 0.16163,0.003 0.31073,-0.0868 0.38477,-0.23047 0.0715,0.13872 0.21313,0.22718 0.36914,0.23047 0.23908,0.004 0.43411,-0.1906 0.43164,-0.42969 l 0,-8.38086 c 0.0128,-0.24672 -0.1866,-0.4524 -0.4336,-0.44727 z m -11.07421,5.00782 c -0.15958,0.004 -0.30363,0.0965 -0.37305,0.24023 -0.21319,-0.38546 -0.7997,-0.23345 -0.79883,0.20703 l 0,14.98242 c -0.004,0.23526 0.18465,0.42868 0.41992,0.43165 0.16163,0.003 0.31073,-0.0868 0.38477,-0.23047 0.0715,0.13872 0.21313,0.22718 0.36914,0.23047 0.23986,0.004 0.43522,-0.19179 0.43164,-0.43165 l 0,-14.98242 c 0.0128,-0.24672 -0.18659,-0.45238 -0.43359,-0.44726 z m 5.44921,2.49609 c -0.15957,0.004 -0.30362,0.0965 -0.37304,0.24024 -0.21319,-0.38546 -0.7997,-0.23345 -0.79883,0.20703 l 0,7.16992 c -0.002,0.2345 0.18543,0.42672 0.41992,0.42969 0.16093,0.002 0.30909,-0.0874 0.38281,-0.23047 0.0718,0.13933 0.21438,0.22789 0.3711,0.23047 0.23908,0.004 0.43411,-0.1906 0.43164,-0.42969 l 0,-7.16992 c 0.0128,-0.24672 -0.18659,-0.4524 -0.4336,-0.44727 z m -11.7871,4.44922 c -0.24006,0.005 -0.42845,0.20748 -0.41602,0.44726 l 0,12.89258 c -0.004,0.23451 0.18347,0.4276 0.41797,0.43164 0.16163,0.003 0.31072,-0.0868 0.38476,-0.23046 0.0721,0.13993 0.21563,0.2286 0.37305,0.23046 0.23986,0.004 0.43522,-0.19178 0.43164,-0.43164 l 0,-12.89258 c 8.7e-4,-0.44047 -0.58564,-0.59249 -0.79883,-0.20703 -0.0725,-0.15008 -0.22595,-0.24398 -0.39257,-0.24023 z"
         style="color:#000000;font-style:normal;font-variant:normal;font-weight:normal;font-stretch:normal;font-size:medium;line-height:normal;font-family:sans-serif;text-indent:0;text-align:start;text-decoration:none;text-decoration-line:none;text-decoration-style:solid;text-decoration-color:#000000;letter-spacing:normal;word-spacing:normal;text-transform:none;direction:ltr;block-progression:tb;writing-mode:lr-tb;baseline-shift:baseline;text-anchor:start;white-space:normal;clip-rule:nonzero;display:inline;overflow:visible;visibility:visible;opacity:1;isolation:auto;mix-blend-mode:normal;color-interpolation:sRGB;color-interpolation-filters:linearRGB;solid-color:#000000;solid-opacity:1;fill:#d2d2d2;fill-opacity:1;fill-rule:evenodd;stroke:none;stroke-width:0.68047255;stroke-linecap:round;stroke-linejoin:round;stroke-miterlimit:4;stroke-dasharray:none;stroke-dashoffset:0;stroke-opacity:1;color-rendering:auto;image-rendering:auto;shape-rendering:auto;text-rendering:auto;enable-background:accumulate" /><path
         transform="matrix(0.8,0,0,-0.8,0,144)"
         id="path9602"
         d="m 124.87305,50.621094 -3.35743,3.070312 1.49219,3.453125 -0.74609,4.222657 0.74609,0 0,1.152343 -1.86719,3.453125 0.375,3.839844 0.37305,1.535156 2.23828,1.535156 3.35938,-1.535156 2.61328,-3.070312 1.11914,-3.072266 -1.86523,-1.917969 -0.375,-2.6875 -1.11914,-0.767578 0,-3.83789 -1.49219,-2.6875 -0.37305,-2.302735 -1.12109,-0.382812 z m -4.10547,1.726562 -3.73242,3.070313 -1.49219,5.373047 -1.11914,1.152343 0.37305,1.919922 -2.24024,2.685547 0.37305,4.605469 -1.49219,4.222656 0,1.919922 2.24023,1.150391 -0.375,1.919922 0.375,1.535156 1.49219,1.152344 2.61328,-1.919922 0.7461,-5.757813 1.11914,-1.150391 0,-2.302734 -1.86524,-1.537109 1.11914,-2.685547 0,-1.919922 3.35938,-4.990234 0.37305,-4.220704 -1.86719,-4.222656 z M 90.353516,70.832031 c 0,0 -2.110352,5.700808 -1.054688,4.34375 1.055663,-1.357048 2.638672,-3.257812 2.638672,-3.257812 l -1.583984,-1.085938 z m 3.167968,0.542969 -2.111328,4.34375 0.527344,2.441406 2.111328,0.814453 -0.527344,3.257813 -2.638672,2.169922 -0.529296,2.714844 -2.638672,2.171874 2.638672,0.542969 6.333984,-1.085937 1.583984,-3.257813 -1.054687,-2.71289 -0.265625,-4.34375 -1.582031,-1.626953 0.527343,-3.800782 -2.375,-1.628906 z m 27.806636,4.769531 -1.49218,0.384766 0,2.685547 -0.74805,0.769531 0.74805,1.535156 1.49218,-1.919922 0,-3.455078 z m -33.349604,0.931641 -3.166016,1.626953 -1.056641,2.714844 -1.583984,1.628906 -0.527344,2.169922 4.222657,0 1.583984,-1.083985 2.638672,-3.800781 -2.111328,-3.255859 z m 20.472654,1.564453 -2.23828,1.150391 0.74609,4.990234 1.49219,-0.382812 0.37305,-3.455079 0.74609,-1.152343 -1.11914,-1.150391 z m 3.54492,3.591797 -1.05664,1.085937 -1.05468,3.25586 0,-3.25586 -1.05665,0 0,4.341797 -1.05468,-1.085937 -3.16797,1.085937 -4.22266,2.171875 -6.333982,4.341797 -2.111328,1.085938 -3.166016,-1.085938 0,2.171875 3.166016,2.171875 0,5.427732 -2.111328,1.08594 -6.333984,-1.08594 -2.111329,-1.08593 -3.166015,2.17187 -5.279297,11.94141 3.167969,0 1.054687,3.25781 9.501953,0 3.166016,-4.34375 0,-2.17188 6.333984,-2.16992 1.056641,-3.25781 3.166013,1.08594 5.2793,-1.08594 1.05469,3.25781 8.44531,6.51367 0,3.25586 -3.16602,1.08594 -1.05664,-3.25586 -2.11133,3.25586 6.33399,3.25781 0,-3.25781 3.16797,-3.25586 1.05469,-1.08594 -5.27735,-5.42773 -1.05664,-3.25781 -3.16601,0 1.05468,-3.25782 1.05664,-3.25585 3.16602,1.08593 0,-5.427732 -3.16602,0 0,-3.257812 3.16602,0 0,-5.427735 -3.16602,-3.257812 0,-4.341797 z m -7.27734,29.033198 -1.11914,0.76758 0.74609,0.76758 0.37305,1.15234 1.49414,0 0.37305,-1.53515 -1.86719,-1.15235 z m 24.25977,0.38477 -5.22461,0.76758 -1.86524,3.83789 1.86524,1.53516 2.98632,0 -2.98632,2.30273 4.47851,1.53516 -0.74609,-3.83789 2.24023,0 -2.24023,-2.30274 3.73242,-2.30273 2.24023,-0.76758 -4.48046,-0.76758 z m -22.5254,3.15039 -3.16796,0.54297 -0.52735,4.34375 1.58399,0 2.11132,-2.71484 0,-2.17188 z m -8.972651,0.54297 -2.111328,1.08594 1.582031,2.17187 1.583984,-1.6289 -1.054687,-1.62891 z m -15.835938,12.48437 -2.111328,2.71485 1.583985,1.08594 2.111328,-2.17188 -1.583985,-1.62891 z m 6.861328,0 -3.166015,2.71485 1.583984,1.62891 3.69336,-1.62891 -2.111329,-2.71485 z m -4.75,2.17188 -2.111328,2.17188 3.695313,0 L 83.755859,130 Z"
         style="opacity:1;fill:#dedede;fill-opacity:1;fill-rule:evenodd;stroke:none;stroke-width:0.61625427;stroke-linecap:butt;stroke-linejoin:miter;stroke-miterlimit:4;stroke-dasharray:none;stroke-opacity:0.78431373"
         inkscape:connector-curvature="0" /><path
         transform="matrix(0.8,0,0,-0.8,0,144)"
         id="text27000"
         d="m 104.26758,86.785156 0,0.423828 -0.41211,-0.0957 -0.27735,1.185547 1.8711,0.166016 c 0.1846,0.01672 0.15891,0.01793 0.17773,0.06055 0.0188,0.04261 0.0455,0.251968 -0.0391,0.615234 l -1.9668,8.621094 c -0.56871,2.508651 -0.20829,4.345521 0.91016,5.517581 1.11845,1.17206 2.8856,1.61914 4.96289,1.61914 l 0,-0.002 c 1.62512,0 3.25699,-0.17673 4.65625,-1.13867 1.39926,-0.96193 2.50508,-2.68139 3.16406,-5.589841 l 1.99219,-8.839844 c 0.0888,-0.393002 0.18491,-0.623416 0.26172,-0.720703 0.0768,-0.09729 0.12261,-0.124141 0.34375,-0.142578 l 0.002,0 1.59571,-0.152344 0.002,0 1.71094,0.152344 c 0.18459,0.01672 0.15891,0.01793 0.17773,0.06055 0.0188,0.04261 0.0455,0.251969 -0.0391,0.615234 l 0,0.002 -2.8125,12.845702 c -0.0878,0.40016 -0.18767,0.61755 -0.26172,0.70508 -0.074,0.0875 -0.12634,0.11572 -0.3457,0.13476 l -0.004,0 -1.60547,0.18165 -0.30078,1.52148 7.28906,0 0.29883,-1.51563 -1.85156,-0.16406 -0.004,0 c -0.10258,-0.009 -0.15554,-0.0299 -0.17187,-0.0391 -0.0164,-0.009 -0.007,0.004 -0.0137,-0.0117 -0.0138,-0.0317 -0.0373,-0.2475 0.0488,-0.6289 l 0,-0.002 1.21875,-5.599608 1.0625,0 c 0.74654,10e-7 1.35652,0.114794 1.53711,0.240235 l 0.01,0.0078 0.0137,0.0078 c 0.28504,0.174689 0.47341,0.462631 0.55078,0.90625 0.0576,0.36443 0.0513,1.05253 0.0488,1.859375 -0.003,0.808963 0.004,1.748923 0.11328,2.683593 l 0,0.002 0,0.006 c 0.0914,0.67987 0.35195,1.26928 0.83398,1.66797 0.48204,0.39869 1.14285,0.58008 1.95508,0.58008 l 2.14453,0 0.44922,-1.50781 -0.51562,-0.0488 c -0.97275,-0.0921 -1.35242,-0.30835 -1.54492,-0.64258 -0.13423,-0.239 -0.29436,-1.13067 -0.27149,-2.369139 l 0,-0.002 0,-0.002 c 0.0117,-0.981466 0.0179,-1.928771 -0.29687,-2.769531 -0.22719,-0.606865 -0.73167,-1.081586 -1.38672,-1.455078 1.08069,-0.2856 2.1575,-0.599892 2.875,-1.259766 0.9266,-0.852165 1.48047,-2.009945 1.48047,-3.333984 0,-0.926172 -0.19891,-2.036141 -1.0293,-2.908203 -0.83039,-0.872064 -2.24355,-1.447266 -4.50586,-1.447266 l -6.32812,0 0,0.423828 -0.25977,-0.06055 0.084,-0.363282 -7.29492,0 -0.35156,1.513672 1.86914,0.166016 c 0.1846,0.01672 0.16086,0.01793 0.17969,0.06055 0.0188,0.04261 0.0455,0.251966 -0.0391,0.615234 l -1.9004,8.523437 c -0.35813,1.600775 -0.82138,3.012968 -1.54296,3.986328 -0.72158,0.97336 -1.65874,1.54102 -3.17383,1.54102 -1.21952,0 -2.09718,-0.32391 -2.60938,-1.12305 -0.5122,-0.79914 -0.6884,-2.201029 -0.18554,-4.439454 l 1.84961,-8.300781 c 0.089,-0.393876 0.18744,-0.631566 0.26757,-0.736328 0.0797,-0.104143 0.12398,-0.134369 0.33594,-0.152344 l 0.004,0 1.5957,-0.121094 0.35742,-1.533203 -6.95898,0 z M 89.5,87.15625 l 0,0.425781 -0.002,0 -0.414063,-0.09766 -0.27539,1.195313 1.894531,0.130859 c 0.197255,0.01786 0.171594,0.02304 0.183594,0.04883 0.01196,0.02578 0.04058,0.226881 -0.04492,0.605469 l 0,0.002 -2.8125,12.890623 c -0.08857,0.39213 -0.18505,0.61607 -0.257813,0.70703 -0.07276,0.091 -0.113408,0.11434 -0.326172,0.13282 l -0.0039,0.004 -1.625,0.17969 -0.304687,1.52148 13.074219,0 1.433592,-5.146481 -1.552733,0 -0.105469,0.265621 c -0.584354,1.46827 -1.10538,2.23221 -1.765625,2.64649 -0.660246,0.41427 -1.552976,0.53125 -2.972656,0.53125 -0.565133,0 -1.133742,-0.0201 -1.583985,-0.0664 -0.22512,-0.0232 -0.422631,-0.0537 -0.564453,-0.0879 -0.138366,-0.0334 -0.219028,-0.0805 -0.205078,-0.0684 -0.10914,-0.0909 -0.12289,-0.0977 -0.134765,-0.28125 -0.012,-0.18545 0.03593,-0.54187 0.162109,-1.10351 l 1.119141,-5.013675 2.730468,0 c 0.497962,0 0.863125,0.03293 1.101563,0.0918 0.238437,0.05887 0.333644,0.1277 0.394531,0.203125 0.121813,0.15084 0.163538,0.570896 0.117188,1.355469 l -0.02734,0.449218 1.5,0 1.259766,-5.955078 -1.525391,0 -0.103516,0.28125 c -0.301719,0.834192 -0.506466,1.265913 -0.78125,1.478516 -0.274785,0.212595 -0.743732,0.318359 -1.748047,0.318359 l -2.541015,0 1.222656,-5.570312 0,-0.002 c 0.05327,-0.266482 0.117531,-0.367657 0.113281,-0.363282 -0.0043,0.0044 -0.02881,-0.0039 0.126953,-0.0039 l 2.835938,0 c 0.713609,0 1.225129,0.06524 1.5625,0.173828 0.337372,0.108588 0.490265,0.237968 0.595703,0.410156 0.210875,0.344377 0.195131,1.076907 0.08984,2.173829 l -0.04492,0.464843 1.513668,0 1.07618,-4.927734 -12.38477,0 z m 38.58789,1.332031 c 0.69576,0 1.32798,0.166435 1.76758,0.525391 0.43959,0.358955 0.73828,0.91457 0.73828,1.882812 0,1.36469 -0.40961,2.32193 -1.13867,2.96875 -0.72905,0.646819 -1.82386,1 -3.26563,1 l -0.97265,0 1.26953,-5.779296 0,-0.0039 c 0.0399,-0.171633 0.0754,-0.290697 0.10351,-0.349609 0.0286,-0.05967 0.0325,-0.06612 0.0898,-0.09766 0.11465,-0.06307 0.53513,-0.146485 1.4082,-0.146485 z m 10.875,0.791016 c 0,0 -2.66671,3.823555 -2.95508,7.091797 -0.44328,5.024046 1.18164,5.912106 1.18164,5.912106 l 1.77344,-13.003903 z"
         style="font-style:italic;font-weight:normal;font-size:5.62449932px;font-family:Utopia;display:inline;fill:#d2d2d2;fill-opacity:1;stroke:none;stroke-width:0.68047267;stroke-miterlimit:4;stroke-opacity:0.78431373"
         inkscape:connector-curvature="0" /></g></g></svg>