<?xml version="1.0" encoding="UTF-8" standalone="no"?>
<!-- Created with Inkscape (http://www.inkscape.org/) -->

<svg
   xmlns:dc="http://purl.org/dc/elements/1.1/"
   xmlns:cc="http://creativecommons.org/ns#"
   xmlns:rdf="http://www.w3.org/1999/02/22-rdf-syntax-ns#"
   xmlns:svg="http://www.w3.org/2000/svg"
   xmlns="http://www.w3.org/2000/svg"
   xmlns:sodipodi="http://sodipodi.sourceforge.net/DTD/sodipodi-0.dtd"
   xmlns:inkscape="http://www.inkscape.org/namespaces/inkscape"
   id="svg2"
   version="1.1"
   inkscape:version="0.48.5 r10040"
   width="156"
   height="180"
   xml:space="preserve"
   sodipodi:docname="family.svg"><metadata
     id="metadata8"><rdf:RDF><cc:Work
         rdf:about=""><dc:format>image/svg+xml</dc:format><dc:type
           rdf:resource="http://purl.org/dc/dcmitype/StillImage" /><dc:title /></cc:Work></rdf:RDF></metadata><defs
     id="defs6"><clipPath
       clipPathUnits="userSpaceOnUse"
       id="clipPath24"><path
         d="m 0,198.425 198.425,0 L 198.425,0 0,0 0,198.425 z"
         id="path26"
         inkscape:connector-curvature="0" /></clipPath></defs><sodipodi:namedview
     pagecolor="#ffffff"
     bordercolor="#666666"
     borderopacity="1"
     objecttolerance="10"
     gridtolerance="10"
     guidetolerance="10"
     inkscape:pageopacity="0"
     inkscape:pageshadow="2"
     inkscape:window-width="1172"
     inkscape:window-height="959"
     id="namedview4"
     showgrid="false"
     inkscape:zoom="3.5064103"
     inkscape:cx="78"
     inkscape:cy="90"
     inkscape:window-x="0"
     inkscape:window-y="1"
     inkscape:window-maximized="0"
     inkscape:current-layer="g10"
     showguides="true"
     inkscape:guide-bbox="true" /><g
     id="g10"
     inkscape:groupmode="layer"
     inkscape:label="Codefor_Hex_sticker_ALL"
     transform="matrix(1.25,0,0,-1.25,0,180)"><path
       sodipodi:nodetypes="ccccc"
       id="path3176"
       style="fill:#ff934b;fill-opacity:1;fill-rule:nonzero;stroke:none"
       d="M 62.4,72 0,108 l 0,0 62.4,36 c 0,0 0.02874,-71.999977 0,-72 z"
       inkscape:connector-curvature="0" /><path
       inkscape:connector-curvature="0"
       d="m 62.399973,72 62.399997,36 0,0 -62.399997,36 c -0.300945,0 -0.298879,-71.999977 0,-72 z"
       style="fill:#ff9955;fill-opacity:1;fill-rule:nonzero;stroke:none"
       id="path3178"
       sodipodi:nodetypes="ccccc" /><path
       inkscape:connector-curvature="0"
       d="M 62.4,0 0,36 0,36 62.4,72 c 0,0 0.02874,-71.999977240587 0,-72 z"
       style="fill:#ff8737;fill-opacity:1;fill-rule:nonzero;stroke:none"
       id="path2988"
       sodipodi:nodetypes="ccccc" /><path
       inkscape:connector-curvature="0"
       d="M 62.376794,72.005095 C 42.644373,58.943991 22.551707,46.242983 0,36 l 0,0 0.02308996,71.97025 C 1.223723,109.17038 64.033024,73.67117 62.376794,72.005095 z"
       style="fill:#ff8d41;fill-opacity:1;fill-rule:nonzero;stroke:none"
       id="path3180"
       sodipodi:nodetypes="ccccc" /><path
       sodipodi:nodetypes="ccccc"
       id="path3182"
       style="fill:#ff934b;fill-opacity:1;fill-rule:nonzero;stroke:none"
       d="M 62.423396,71.994906 C 82.155817,85.05601 102.24848,97.757018 124.80019,108 l 0,0 -0.0231,-71.970249 c -1.20063,-1.20013 -64.009934,34.29908 -62.353704,35.965155 z"
       inkscape:connector-curvature="0" /><path
       sodipodi:nodetypes="ccccc"
       id="path3174"
       style="fill:#ff8d41;fill-opacity:1;fill-rule:nonzero;stroke:none"
       d="m 62.399973,0 62.399997,36 0,0 -62.399997,36 c -1.498971,-1.124229 -0.7564,-72.5457219 0,-72 z"
       inkscape:connector-curvature="0" /><g
       id="g3019"
       transform="translate(0,-0.018775)"><circle
         style="fill:#ffffff"
         transform="matrix(0.06605167,0,0,0.06605143,48.561308,101.39248)"
         id="circle3061"
         r="36.305"
         cy="421.263"
         cx="114.141"
         sodipodi:cx="114.141"
         sodipodi:cy="421.263"
         sodipodi:rx="36.305"
         sodipodi:ry="36.305"
         d="m 150.446,421.263 c 0,20.0507 -16.2543,36.305 -36.305,36.305 -20.050699,0 -36.305001,-16.2543 -36.305001,-36.305 0,-20.0507 16.254302,-36.305 36.305001,-36.305 20.0507,0 36.305,16.2543 36.305,36.305 z" /><path
         style="fill:#ffffff"
         id="path3065"
         d="m 55.768469,111.61982 0,-8.3377 c -0.01255,-1.51486 -2.267428,-1.51486 -2.287342,0 l 0,8.3377 -2.951427,0 3.172785,11.14149 -0.51651,0 -1.844625,-6.3455 c -0.466332,-1.40339 -2.364075,-0.83522 -1.918438,0.66408 l 2.066004,6.86202 c 0.237581,0.78799 1.230747,2.1795 2.951426,2.21351 l 3.320378,0 c 1.671107,-0.034 2.668355,-1.43734 2.951386,-2.21351 l 2.784119,-7.09181 c 0.419098,-1.4919 -1.463639,-2.10433 -1.918471,-0.66408 l -2.562713,6.57529 -0.590304,0 3.246571,-11.14149 -3.025166,0 0,-8.3377 c 0.02358,-1.51486 -2.22244,-1.50743 -2.213589,0 l 0,8.3377 z"
         inkscape:connector-curvature="0" /></g><g
       id="g3036"><path
         id="path3029"
         transform="matrix(0.8,0,0,-0.8,0,144)"
         d="M 83.90625 21.625 C 83.905488 21.634764 83.907026 21.646457 83.90625 21.65625 C 82.158092 21.77163 81.388326 22.835028 80.6875 24.9375 L 77.03125 34.0625 C 76.453299 35.79635 78.922049 36.60885 79.5 34.875 L 83 26.4375 L 83.25 26.4375 L 83.25 50.4375 C 83.25 51.424403 83.784148 52.003253 84.4375 52.21875 C 84.525483 52.24777 84.627197 52.297177 84.71875 52.3125 C 84.845701 52.337984 84.964028 52.345259 85.09375 52.34375 C 85.297991 52.33495 85.494561 52.292258 85.6875 52.21875 C 85.90981 52.140944 86.103398 52.007817 86.28125 51.84375 C 86.367364 51.764732 86.460234 51.691898 86.53125 51.59375 C 86.604227 51.490736 86.667177 51.405726 86.71875 51.28125 C 86.823731 51.046937 86.86468 50.747122 86.875 50.4375 L 86.875 36.5 L 87.375 36.5 L 87.375 50.4375 C 87.38016 50.592308 87.406962 50.738959 87.4375 50.875 C 87.517311 51.292551 87.710434 51.605303 87.96875 51.84375 C 88.047086 51.916061 88.130005 52.00687 88.21875 52.0625 C 88.225471 52.06673 88.24323 52.058362 88.25 52.0625 C 88.355702 52.126358 88.446899 52.178291 88.5625 52.21875 C 88.64842 52.248821 88.723325 52.295432 88.8125 52.3125 C 88.942942 52.341482 89.08592 52.342223 89.21875 52.34375 C 89.420537 52.339638 89.623229 52.288443 89.8125 52.21875 C 90.467929 52.004513 91 51.426665 91 50.4375 L 91 26.4375 L 91.25 26.4375 L 94.75 34.875 C 95.327961 36.608875 97.796712 35.765138 97.21875 34.03125 L 93.5625 24.9375 C 92.861661 22.834992 92.09194 21.771633 90.34375 21.65625 C 90.342438 21.643343 90.34507 21.637997 90.34375 21.625 L 90.03125 21.625 L 84.21875 21.625 L 83.90625 21.625 z "
         style="fill:#ffffff" /><circle
         style="fill:#ffffff"
         transform="matrix(0.06605167,0,0,0.06605143,48.561308,101.39248)"
         id="circle3063"
         r="37.2365"
         cy="430.73099"
         cx="320.52399"
         sodipodi:cx="320.52399"
         sodipodi:cy="430.73099"
         sodipodi:rx="37.2365"
         sodipodi:ry="37.2365"
         d="m 357.76049,430.73099 c 0,20.56515 -16.67135,37.2365 -37.2365,37.2365 -20.56515,0 -37.2365,-16.67135 -37.2365,-37.2365 0,-20.56515 16.67135,-37.2365 37.2365,-37.2365 20.56515,0 37.2365,16.67135 37.2365,37.2365 z" /></g><g
       id="g3003"
       transform="matrix(-0.81440062,0,0,0.81440062,126.95656,18.939455)"><circle
         d="m 150.446,421.263 c 0,20.0507 -16.2543,36.305 -36.305,36.305 -20.050699,0 -36.305001,-16.2543 -36.305001,-36.305 0,-20.0507 16.254302,-36.305 36.305001,-36.305 20.0507,0 36.305,16.2543 36.305,36.305 z"
         sodipodi:ry="36.305"
         sodipodi:rx="36.305"
         sodipodi:cy="421.263"
         sodipodi:cx="114.141"
         cx="114.141"
         cy="421.263"
         r="36.305"
         id="circle2999"
         transform="matrix(0.06605167,0,0,0.06605143,48.561308,101.39248)"
         style="fill:#ffffff" /><path
         inkscape:connector-curvature="0"
         d="m 55.768469,111.61982 0,-8.3377 c -0.01255,-1.51486 -2.267428,-1.51486 -2.287342,0 l 0,8.3377 -2.951427,0 3.172785,11.14149 -0.51651,0 -1.844625,-6.3455 c -0.466332,-1.40339 -2.364075,-0.83522 -1.918438,0.66408 l 2.066004,6.86202 c 0.237581,0.78799 1.230747,2.1795 2.951426,2.21351 l 3.320378,0 c 1.671107,-0.034 2.668355,-1.43734 2.951386,-2.21351 l 2.784119,-7.09181 c 0.419098,-1.4919 -1.463639,-2.10433 -1.918471,-0.66408 l -2.562713,6.57529 -0.590304,0 3.246571,-11.14149 -3.025166,0 0,-8.3377 c 0.02358,-1.51486 -2.22244,-1.50743 -2.213589,0 l 0,8.3377 z"
         id="path3001"
         style="fill:#ffffff" /></g><g
       id="g3011"
       transform="matrix(-0.79535511,0,0,0.79535511,99.726638,20.89981)"><circle
         d="m 357.76049,430.73099 c 0,20.56515 -16.67135,37.2365 -37.2365,37.2365 -20.56515,0 -37.2365,-16.67135 -37.2365,-37.2365 0,-20.56515 16.67135,-37.2365 37.2365,-37.2365 20.56515,0 37.2365,16.67135 37.2365,37.2365 z"
         sodipodi:ry="37.2365"
         sodipodi:rx="37.2365"
         sodipodi:cy="430.73099"
         sodipodi:cx="320.52399"
         cx="320.52399"
         cy="430.73099"
         r="37.2365"
         id="circle3007"
         transform="matrix(0.06605167,0,0,0.06605143,48.561308,101.39248)"
         style="fill:#ffffff" /><path
         inkscape:connector-curvature="0"
         d="m 75.444336,115.85774 0,7.59592 c 0,1.58523 -1.254982,3.23652 -3.17048,3.23652 l -4.887823,0 c -1.58524,0 -2.245757,-0.85867 -2.840222,-2.64206 l -2.915003,-7.28578 c -0.462361,-1.38708 1.519189,-2.04759 1.98155,-0.66051 l 2.7829,6.75736 0.264206,0 0,-19.22096 c 0,-2.0476 2.840222,-1.98154 2.840222,0 l 0,11.16269 0.39631,0 0,-11.16269 c 0.06605,-1.98154 2.906273,-2.0476 2.906273,0 l 0,19.22096 0.528414,0 0,-7.00145 c 0,-1.45313 2.113653,-1.45313 2.113653,0 z"
         id="path3009"
         style="fill:#ffffff" /></g><g
       transform="matrix(-0.8660254,-0.5,0.5,-0.8660254,71.109703,164.08865)"
       id="g3818"
       style="fill:#ff6f0f;fill-opacity:1;stroke:none"><circle
         d="m 150.446,421.263 c 0,20.0507 -16.2543,36.305 -36.305,36.305 -20.050699,0 -36.305001,-16.2543 -36.305001,-36.305 0,-20.0507 16.254302,-36.305 36.305001,-36.305 20.0507,0 36.305,16.2543 36.305,36.305 z"
         sodipodi:ry="36.305"
         sodipodi:rx="36.305"
         sodipodi:cy="421.263"
         sodipodi:cx="114.141"
         cx="114.141"
         cy="421.263"
         r="36.305"
         id="circle3820"
         transform="matrix(0.06605167,0,0,0.06605143,48.561308,101.39248)"
         style="fill:#ff6f0f;fill-opacity:1;stroke:none" /><path
         inkscape:connector-curvature="0"
         d="m 55.768469,111.61982 0,-8.3377 c -0.01255,-1.51486 -2.267428,-1.51486 -2.287342,0 l 0,8.3377 -2.951427,0 3.172785,11.14149 -0.51651,0 -1.844625,-6.3455 c -0.466332,-1.40339 -2.364075,-0.83522 -1.918438,0.66408 l 2.066004,6.86202 c 0.237581,0.78799 1.230747,2.1795 2.951426,2.21351 l 3.320378,0 c 1.671107,-0.034 2.668355,-1.43734 2.951386,-2.21351 l 2.784119,-7.09181 c 0.419098,-1.4919 -1.463639,-2.10433 -1.918471,-0.66408 l -2.562713,6.57529 -0.590304,0 3.246571,-11.14149 -3.025166,0 0,-8.3377 c 0.02358,-1.51486 -2.22244,-1.50743 -2.213589,0 l 0,8.3377 z"
         id="path3822"
         style="fill:#ff6f0f;fill-opacity:1;stroke:none" /></g><g
       transform="matrix(0,-0.81440062,-0.81440062,0,115.36359,117.97792)"
       id="g3824"
       style="stroke:none;fill:#ff6f0f;fill-opacity:1"><circle
         style="fill:#ff6f0f;stroke:none;fill-opacity:1"
         transform="matrix(0.06605167,0,0,0.06605143,48.561308,101.39248)"
         id="circle3826"
         r="36.305"
         cy="421.263"
         cx="114.141"
         sodipodi:cx="114.141"
         sodipodi:cy="421.263"
         sodipodi:rx="36.305"
         sodipodi:ry="36.305"
         d="m 150.446,421.263 c 0,20.0507 -16.2543,36.305 -36.305,36.305 -20.050699,0 -36.305001,-16.2543 -36.305001,-36.305 0,-20.0507 16.254302,-36.305 36.305001,-36.305 20.0507,0 36.305,16.2543 36.305,36.305 z" /><path
         style="fill:#ff6f0f;stroke:none;fill-opacity:1"
         id="path3828"
         d="m 55.768469,111.61982 0,-8.3377 c -0.01255,-1.51486 -2.267428,-1.51486 -2.287342,0 l 0,8.3377 -2.951427,0 3.172785,11.14149 -0.51651,0 -1.844625,-6.3455 c -0.466332,-1.40339 -2.364075,-0.83522 -1.918438,0.66408 l 2.066004,6.86202 c 0.237581,0.78799 1.230747,2.1795 2.951426,2.21351 l 3.320378,0 c 1.671107,-0.034 2.668355,-1.43734 2.951386,-2.21351 l 2.784119,-7.09181 c 0.419098,-1.4919 -1.463639,-2.10433 -1.918471,-0.66408 l -2.562713,6.57529 -0.590304,0 3.246571,-11.14149 -3.025166,0 0,-8.3377 c 0.02358,-1.51486 -2.22244,-1.50743 -2.213589,0 l 0,8.3377 z"
         inkscape:connector-curvature="0" /></g><g
       id="g3830"
       transform="matrix(-0.8660254,0.5,-0.5,-0.8660254,159.88827,101.51395)"
       style="fill:#ff6f0f;fill-opacity:1;stroke:none"><path
         style="fill:#ff6f0f;fill-opacity:1;stroke:none"
         d="m 83.90625,21.625 c -7.62e-4,0.0098 7.76e-4,0.02146 0,0.03125 -1.748158,0.11538 -2.517924,1.178778 -3.21875,3.28125 l -3.65625,9.125 c -0.577951,1.73385 1.890799,2.54635 2.46875,0.8125 l 3.5,-8.4375 0.25,0 0,24 c 0,0.986903 0.534148,1.565753 1.1875,1.78125 0.08798,0.02902 0.189697,0.07843 0.28125,0.09375 0.126951,0.02548 0.245278,0.03276 0.375,0.03125 0.204241,-0.0088 0.400811,-0.05149 0.59375,-0.125 0.22231,-0.07781 0.415898,-0.210933 0.59375,-0.375 0.08611,-0.07902 0.178984,-0.151852 0.25,-0.25 0.07298,-0.103014 0.135927,-0.188024 0.1875,-0.3125 0.104981,-0.234313 0.14593,-0.534128 0.15625,-0.84375 l 0,-13.9375 0.5,0 0,13.9375 c 0.0052,0.154808 0.03196,0.301459 0.0625,0.4375 0.07981,0.417551 0.272934,0.730303 0.53125,0.96875 0.07834,0.07231 0.161255,0.16312 0.25,0.21875 0.0067,0.0042 0.02448,-0.0041 0.03125,0 0.105702,0.06386 0.196899,0.115791 0.3125,0.15625 0.08592,0.03007 0.160825,0.07668 0.25,0.09375 0.130442,0.02898 0.27342,0.02972 0.40625,0.03125 0.201787,-0.0041 0.404479,-0.05531 0.59375,-0.125 C 90.467929,52.004513 91,51.426665 91,50.4375 l 0,-24 0.25,0 3.5,8.4375 c 0.577961,1.733875 3.046712,0.890138 2.46875,-0.84375 L 93.5625,24.9375 c -0.700839,-2.102508 -1.47056,-3.165867 -3.21875,-3.28125 -0.0013,-0.01291 0.0013,-0.01825 0,-0.03125 l -0.3125,0 -5.8125,0 -0.3125,0 z"
         transform="matrix(0.8,0,0,-0.8,0,144)"
         id="path3832"
         inkscape:connector-curvature="0" /><circle
         d="m 357.76049,430.73099 c 0,20.56515 -16.67135,37.2365 -37.2365,37.2365 -20.56515,0 -37.2365,-16.67135 -37.2365,-37.2365 0,-20.56515 16.67135,-37.2365 37.2365,-37.2365 20.56515,0 37.2365,16.67135 37.2365,37.2365 z"
         sodipodi:ry="37.2365"
         sodipodi:rx="37.2365"
         sodipodi:cy="430.73099"
         sodipodi:cx="320.52399"
         cx="320.52399"
         cy="430.73099"
         r="37.2365"
         id="circle3834"
         transform="matrix(0.06605167,0,0,0.06605143,48.561308,101.39248)"
         style="fill:#ff6f0f;fill-opacity:1;stroke:none" /></g><g
       transform="matrix(0,0.79535511,0.79535511,0,11.298626,17.515898)"
       id="g3836"
       style="stroke:none;fill:#ff6f0f;fill-opacity:1"><circle
         style="fill:#ff6f0f;stroke:none;fill-opacity:1"
         transform="matrix(0.06605167,0,0,0.06605143,48.561308,101.39248)"
         id="circle3838"
         r="37.2365"
         cy="430.73099"
         cx="320.52399"
         sodipodi:cx="320.52399"
         sodipodi:cy="430.73099"
         sodipodi:rx="37.2365"
         sodipodi:ry="37.2365"
         d="m 357.76049,430.73099 c 0,20.56515 -16.67135,37.2365 -37.2365,37.2365 -20.56515,0 -37.2365,-16.67135 -37.2365,-37.2365 0,-20.56515 16.67135,-37.2365 37.2365,-37.2365 20.56515,0 37.2365,16.67135 37.2365,37.2365 z" /><path
         style="fill:#ff6f0f;stroke:none;fill-opacity:1"
         id="path3840"
         d="m 75.444336,115.85774 0,7.59592 c 0,1.58523 -1.254982,3.23652 -3.17048,3.23652 l -4.887823,0 c -1.58524,0 -2.245757,-0.85867 -2.840222,-2.64206 l -2.915003,-7.28578 c -0.462361,-1.38708 1.519189,-2.04759 1.98155,-0.66051 l 2.7829,6.75736 0.264206,0 0,-19.22096 c 0,-2.0476 2.840222,-1.98154 2.840222,0 l 0,11.16269 0.39631,0 0,-11.16269 c 0.06605,-1.98154 2.906273,-2.0476 2.906273,0 l 0,19.22096 0.528414,0 0,-7.00145 c 0,-1.45313 2.113653,-1.45313 2.113653,0 z"
         inkscape:connector-curvature="0" /></g></g></svg>