<?xml version="1.0" encoding="UTF-8" standalone="no"?>
<!-- Created with Inkscape (http://www.inkscape.org/) -->

<svg
   xmlns:dc="http://purl.org/dc/elements/1.1/"
   xmlns:cc="http://creativecommons.org/ns#"
   xmlns:rdf="http://www.w3.org/1999/02/22-rdf-syntax-ns#"
   xmlns:svg="http://www.w3.org/2000/svg"
   xmlns="http://www.w3.org/2000/svg"
   xmlns:sodipodi="http://sodipodi.sourceforge.net/DTD/sodipodi-0.dtd"
   xmlns:inkscape="http://www.inkscape.org/namespaces/inkscape"
   id="svg2"
   version="1.1"
   inkscape:version="0.48.5 r10040"
   width="156"
   height="180"
   xml:space="preserve"
   sodipodi:docname="gender.svg"><metadata
     id="metadata8"><rdf:RDF><cc:Work
         rdf:about=""><dc:format>image/svg+xml</dc:format><dc:type
           rdf:resource="http://purl.org/dc/dcmitype/StillImage" /><dc:title /></cc:Work></rdf:RDF></metadata><defs
     id="defs6"><clipPath
       clipPathUnits="userSpaceOnUse"
       id="clipPath24"><path
         d="m 0,198.425 198.425,0 L 198.425,0 0,0 0,198.425 z"
         id="path26"
         inkscape:connector-curvature="0" /></clipPath></defs><sodipodi:namedview
     pagecolor="#ffffff"
     bordercolor="#666666"
     borderopacity="1"
     objecttolerance="10"
     gridtolerance="10"
     guidetolerance="10"
     inkscape:pageopacity="0"
     inkscape:pageshadow="2"
     inkscape:window-width="1172"
     inkscape:window-height="959"
     id="namedview4"
     showgrid="false"
     inkscape:zoom="3.6730769"
     inkscape:cx="77.863874"
     inkscape:cy="90"
     inkscape:window-x="0"
     inkscape:window-y="1"
     inkscape:window-maximized="0"
     inkscape:current-layer="g10"
     showguides="true"
     inkscape:guide-bbox="true" /><g
     id="g10"
     inkscape:groupmode="layer"
     inkscape:label="Codefor_Hex_sticker_ALL"
     transform="matrix(1.25,0,0,-1.25,0,180)"><path
       sodipodi:nodetypes="ccccc"
       id="path3176"
       style="fill:#c436a8;fill-opacity:1;fill-rule:nonzero;stroke:none"
       d="M 62.4,72 0,108 l 0,0 62.4,36 c 0,0 0.02874,-71.999977 0,-72 z"
       inkscape:connector-curvature="0" /><path
       inkscape:connector-curvature="0"
       d="m 62.399973,72 62.399997,36 0,0 -62.399997,36 c -0.300945,0 -0.298879,-71.999977 0,-72 z"
       style="fill:#00a8d2;fill-opacity:1;fill-rule:nonzero;stroke:none"
       id="path3178"
       sodipodi:nodetypes="ccccc" /><path
       inkscape:connector-curvature="0"
       d="M 62.4,0 0,36 0,36 62.4,72 c 0,0 0.02874,-71.999977240587 0,-72 z"
       style="fill:#b4329a;fill-opacity:1;fill-rule:nonzero;stroke:none"
       id="path2988"
       sodipodi:nodetypes="ccccc" /><path
       inkscape:connector-curvature="0"
       d="M 62.376794,72.005095 C 42.644373,58.943991 22.551707,46.242983 0,36 l 0,0 0.02308996,71.97025 C 1.223723,109.17038 64.033024,73.67117 62.376794,72.005095 z"
       style="fill:#bc34a1;fill-opacity:1;fill-rule:nonzero;stroke:none"
       id="path3180"
       sodipodi:nodetypes="ccccc" /><path
       sodipodi:nodetypes="ccccc"
       id="path3182"
       style="fill:#00a0c8;fill-opacity:1;fill-rule:nonzero;stroke:none"
       d="M 62.423396,71.994906 C 82.155817,85.05601 102.24848,97.757018 124.80019,108 l 0,0 -0.0231,-71.970249 c -1.20063,-1.20013 -64.009934,34.29908 -62.353704,35.965155 z"
       inkscape:connector-curvature="0" /><path
       sodipodi:nodetypes="ccccc"
       id="path3174"
       style="fill:#0098be;fill-opacity:1;fill-rule:nonzero;stroke:none"
       d="m 62.399973,0 62.399997,36 0,0 -62.399997,36 c -1.498971,-1.124229 -0.7564,-72.5457219 0,-72 z"
       inkscape:connector-curvature="0" /><g
       id="g3084"
       transform="matrix(0.32610839,0,0,0.32610839,49.355665,102.1272)"><circle
         style="fill:#ffffff"
         transform="matrix(0.20254513,0,0,0.2025444,-2.4358686,-2.2529952)"
         id="circle3061"
         r="36.305"
         cy="421.263"
         cx="114.141"
         sodipodi:cx="114.141"
         sodipodi:cy="421.263"
         sodipodi:rx="36.305"
         sodipodi:ry="36.305"
         d="m 150.446,421.263 c 0,20.0507 -16.2543,36.305 -36.305,36.305 -20.050699,0 -36.305001,-16.2543 -36.305001,-36.305 0,-20.0507 16.254302,-36.305 36.305001,-36.305 20.0507,0 36.305,16.2543 36.305,36.305 z" /><circle
         style="fill:#ffffff"
         transform="matrix(0.20254513,0,0,0.2025444,-2.4358686,-2.2529952)"
         id="circle3063"
         r="37.2365"
         cy="430.73099"
         cx="320.52399"
         sodipodi:cx="320.52399"
         sodipodi:cy="430.73099"
         sodipodi:rx="37.2365"
         sodipodi:ry="37.2365"
         d="m 357.76049,430.73099 c 0,20.56515 -16.67135,37.2365 -37.2365,37.2365 -20.56515,0 -37.2365,-16.67135 -37.2365,-37.2365 0,-20.56515 16.67135,-37.2365 37.2365,-37.2365 20.56515,0 37.2365,16.67135 37.2365,37.2365 z" /><path
         style="fill:#ffffff"
         id="path3065"
         d="m 19.664641,29.108777 0,-25.5672605 c -0.03848,-4.6452606 -6.95299,-4.6452606 -7.014057,0 l 0,25.5672605 -9.0504457,0 9.7292347,34.164987 -1.583862,0 L 6.0890331,43.815526 C 4.6590442,39.512065 -1.1603184,41.254352 0.20621109,45.851907 L 6.5415392,66.894043 c 0.7285346,2.416354 3.7740438,6.683357 9.0504458,6.787668 l 10.181822,0 c 5.124392,-0.104311 8.182418,-4.407569 9.050324,-6.787668 L 43.361534,45.147272 C 44.646683,40.572401 38.873336,38.69441 37.47861,43.11089 l -7.858471,20.162874 -1.810146,0 9.955498,-34.164987 -9.276567,0 0,-25.5672605 c 0.07231,-4.6452606 -6.815036,-4.6224642 -6.787895,0 l 0,25.5672605 z"
         inkscape:connector-curvature="0" /><path
         style="fill:#ffffff"
         id="path3067"
         d="m 79.999999,42.104228 0,23.292606 c 0,4.861066 -3.848357,9.924676 -9.722166,9.924676 l -14.98834,0 c -4.861083,0 -6.886534,-2.633077 -8.70944,-8.101776 L 37.641299,44.878157 c -1.417816,-4.253432 4.658538,-6.278876 6.076354,-2.025444 l 8.533664,20.721222 0.81018,0 0,-58.9404206 c 0,-6.2788764 8.709441,-6.076332 8.709441,0 l 0,34.2300036 1.21527,0 0,-34.2300036 c 0.202546,-6.076332 8.911986,-6.2788764 8.911986,0 l 0,58.9404206 1.620361,0 0,-21.469707 c 0,-4.455976 6.481444,-4.455976 6.481444,0 z"
         inkscape:connector-curvature="0" /></g></g></svg>