<?xml version="1.0" encoding="UTF-8" standalone="no"?>
<!-- Created with Inkscape (http://www.inkscape.org/) -->

<svg
   xmlns:dc="http://purl.org/dc/elements/1.1/"
   xmlns:cc="http://creativecommons.org/ns#"
   xmlns:rdf="http://www.w3.org/1999/02/22-rdf-syntax-ns#"
   xmlns:svg="http://www.w3.org/2000/svg"
   xmlns="http://www.w3.org/2000/svg"
   xmlns:sodipodi="http://sodipodi.sourceforge.net/DTD/sodipodi-0.dtd"
   xmlns:inkscape="http://www.inkscape.org/namespaces/inkscape"
   id="svg2"
   version="1.1"
   inkscape:version="0.48.5 r10040"
   width="156"
   height="180"
   xml:space="preserve"
   sodipodi:docname="grassland.svg"><metadata
     id="metadata8"><rdf:RDF><cc:Work
         rdf:about=""><dc:format>image/svg+xml</dc:format><dc:type
           rdf:resource="http://purl.org/dc/dcmitype/StillImage" /><dc:title></dc:title></cc:Work></rdf:RDF></metadata><defs
     id="defs6"><clipPath
       clipPathUnits="userSpaceOnUse"
       id="clipPath24"><path
         d="m 0,198.425 198.425,0 L 198.425,0 0,0 0,198.425 z"
         id="path26"
         inkscape:connector-curvature="0" /></clipPath></defs><sodipodi:namedview
     pagecolor="#ffffff"
     bordercolor="#666666"
     borderopacity="1"
     objecttolerance="10"
     gridtolerance="10"
     guidetolerance="10"
     inkscape:pageopacity="0"
     inkscape:pageshadow="2"
     inkscape:window-width="1600"
     inkscape:window-height="837"
     id="namedview4"
     showgrid="false"
     inkscape:zoom="3.7333074"
     inkscape:cx="53.256111"
     inkscape:cy="89.071187"
     inkscape:window-x="-8"
     inkscape:window-y="-8"
     inkscape:window-maximized="1"
     inkscape:current-layer="g10"
     showguides="true"
     inkscape:guide-bbox="true" /><g
     id="g10"
     inkscape:groupmode="layer"
     inkscape:label="Codefor_Hex_sticker_ALL"
     transform="matrix(1.25,0,0,-1.25,0,180)"><path
       sodipodi:nodetypes="ccccccc"
       id="path14"
       style="fill:#64d0f2;fill-opacity:1;fill-rule:nonzero;stroke:none"
       d="M 124.8,36 62.4,0 0,36 l 0,72 62.4,36 62.4,-36 z"
       inkscape:connector-curvature="0" /><path
       style="fill:none;stroke:#52a9c3;stroke-width:0.80009591999999985;stroke-linecap:round;stroke-linejoin:round;stroke-miterlimit:4;stroke-opacity:0.57915056;stroke-dasharray:none"
       d="m 62.400048,143.59986 0,-72.799812"
       id="path3760"
       inkscape:connector-curvature="0" /><path
       inkscape:connector-curvature="0"
       d="M 124.8,36 62.4,0 0,36 0,36 62.4,72 124.8,36 z"
       style="fill:#65b02b;fill-opacity:1;fill-rule:nonzero;stroke:none"
       id="path2988"
       sodipodi:nodetypes="ccccccc" /><path
       style="fill:#ffffff;fill-opacity:1;stroke:none"
       d="m 45.010723,125.57147 c -3.795533,0 -7.02284,-2.22383 -8.15,-5.3 -0.551458,0.1116 -1.139571,0.15 -1.725,0.15 -4.615554,0 -8.35,-3.62779 -8.35,-8.125 0,-4.4972 3.734446,-8.15 8.35,-8.15 1.592831,0 3.083187,0.44648 4.35,1.2 0.961235,-2.41596 4.416691,-4.19999 8.525,-4.19999 4.258827,0 7.795115,1.92445 8.6,4.47499 0.888739,-0.25738 1.84235,-0.4 2.85,-0.4 4.438034,0 8.05,2.7271 8.05,6.1 0,3.06967 -2.993754,5.59297 -6.875,6.025 -1.295263,1.69859 -3.911957,2.875 -6.95,2.875 -0.177265,0 -0.350675,-0.0172 -0.525,-0.025 -1.102857,3.11371 -4.32473,5.375 -8.15,5.375 z"
       id="path3796"
       inkscape:connector-curvature="0" /><path
       style="fill:#ffffff;fill-opacity:1;stroke:none"
       d="m 92.45709,121.93588 c -1.80591,0 -3.40992,-0.68397 -4.45,-1.75 -0.801763,0.29347 -1.693755,0.45 -2.625003,0.45 -3.6096,0 -6.525,-2.43214 -6.525,-5.45 0,-0.19728 6.16e-4,-0.40812 0.025,-0.6 -1.32804,-0.82439 -2.175,-2.03477 -2.175,-3.375 0,-2.4853 2.874576,-4.5 6.425,-4.5 0.248152,0 0.509168,0.006 0.75,0.025 0.773136,-2.13368 2.894064,-3.675 5.375003,-3.675 2.49916,0 4.61601,1.56677 5.375,3.725 0.34184,-0.0429 0.69376,-0.075 1.05,-0.075 3.84629,0 6.95,2.60462 6.95,5.8 0,2.49277 -1.88943,4.6112 -4.55,5.425 -0.37179,2.25259 -2.74679,4 -5.625,4 z"
       id="path3812"
       inkscape:connector-curvature="0" /></g></svg>