<?xml version="1.0" encoding="UTF-8" standalone="no"?>
<!-- Created with Inkscape (http://www.inkscape.org/) -->

<svg
   xmlns:dc="http://purl.org/dc/elements/1.1/"
   xmlns:cc="http://creativecommons.org/ns#"
   xmlns:rdf="http://www.w3.org/1999/02/22-rdf-syntax-ns#"
   xmlns:svg="http://www.w3.org/2000/svg"
   xmlns="http://www.w3.org/2000/svg"
   xmlns:sodipodi="http://sodipodi.sourceforge.net/DTD/sodipodi-0.dtd"
   xmlns:inkscape="http://www.inkscape.org/namespaces/inkscape"
   id="svg2"
   version="1.1"
   inkscape:version="0.48.5 r10040"
   width="156"
   height="180"
   xml:space="preserve"
   sodipodi:docname="ground.svg"><metadata
     id="metadata8"><rdf:RDF><cc:Work
         rdf:about=""><dc:format>image/svg+xml</dc:format><dc:type
           rdf:resource="http://purl.org/dc/dcmitype/StillImage" /><dc:title /></cc:Work></rdf:RDF></metadata><defs
     id="defs6"><clipPath
       clipPathUnits="userSpaceOnUse"
       id="clipPath24"><path
         d="m 0,198.425 198.425,0 L 198.425,0 0,0 0,198.425 z"
         id="path26"
         inkscape:connector-curvature="0" /></clipPath><filter
       id="filter15895"
       color-interpolation-filters="sRGB"><feGaussianBlur
         id="feGaussianBlur15897"
         stdDeviation="6.24467" /></filter></defs><sodipodi:namedview
     pagecolor="#ffffff"
     bordercolor="#666666"
     borderopacity="1"
     objecttolerance="10"
     gridtolerance="10"
     guidetolerance="10"
     inkscape:pageopacity="0"
     inkscape:pageshadow="2"
     inkscape:window-width="1331"
     inkscape:window-height="799"
     id="namedview4"
     showgrid="false"
     inkscape:zoom="3.4611111"
     inkscape:cx="93.746388"
     inkscape:cy="86.389217"
     inkscape:window-x="0"
     inkscape:window-y="1"
     inkscape:window-maximized="0"
     inkscape:current-layer="g10"
     showguides="true"
     inkscape:guide-bbox="true" /><g
     id="g10"
     inkscape:groupmode="layer"
     inkscape:label="Codefor_Hex_sticker_ALL"
     transform="matrix(1.25,0,0,-1.25,0,180)"><path
       sodipodi:nodetypes="cccccc"
       id="path3176"
       style="fill:#a7dae7;fill-opacity:1;fill-rule:nonzero;stroke:none"
       d="M 0.22536753,102.15372 0,108 l 0,0 62.4,36 c -0.03603,-14.70405 0.01189,-27.73666 0.03439,-41.14281 0,0 -62.09879517,-0.90041 -62.20902247,-0.70347 z"
       inkscape:connector-curvature="0" /><path
       inkscape:connector-curvature="0"
       d="M 62.4,0 0,36 0,36 62.4,72 c 0,0 0.02874,-71.999977240587 0,-72 z"
       style="fill:#864b24;fill-opacity:1;fill-rule:nonzero;stroke:none"
       id="path2988"
       sodipodi:nodetypes="ccccc" /><path
       inkscape:connector-curvature="0"
       d="M 62.376794,72.005095 C 42.644373,58.943991 22.551707,46.242983 0,36 l 0,0 0.02130121,66.39482 c 0.12707549,-0.0653 9.30768949,1.31506 9.30768949,1.31506 C 27.030895,94.442667 63.646467,73.282315 62.376794,72.005095 z"
       style="fill:#8d4f27;fill-opacity:1;fill-rule:nonzero;stroke:none"
       id="path3180"
       sodipodi:nodetypes="cccccc" /><path
       sodipodi:nodetypes="cccccc"
       id="path3182"
       style="fill:#955429;fill-opacity:1;fill-rule:nonzero;stroke:none"
       d="m 62.423396,71.994906 c 16.492845,10.916794 33.237356,21.582023 51.459044,30.770684 -0.18723,-0.0673 10.91575,-0.25511 10.91575,-0.25511 l -0.0213,-66.480729 c -1.20063,-1.20013 -64.009934,34.29908 -62.353704,35.965155 z"
       inkscape:connector-curvature="0" /><path
       sodipodi:nodetypes="ccccc"
       id="path3174"
       style="fill:#8d4f27;fill-opacity:1;fill-rule:nonzero;stroke:none"
       d="m 62.399973,0 62.399997,36 0,0 -62.399997,36 c -1.498971,-1.124229 -0.7564,-72.5457219 0,-72 z"
       inkscape:connector-curvature="0" /><g
       id="Layer_1"
       transform="matrix(0.8,0,0,-0.8,-239.39999,131.01144)" /><g
       id="Layer_3"
       transform="matrix(0.8,0,0,-0.8,-239.39999,131.01144)" /><g
       id="Layer_5"
       transform="matrix(0.8,0,0,-0.8,-239.39999,131.01144)" /><g
       id="Layer_4"
       transform="matrix(0.8,0,0,-0.8,-239.39999,131.01144)" /><g
       id="Layer_6"
       transform="matrix(0.8,0,0,-0.8,-239.39999,131.01144)"><g
         id="g5378" /><g
         id="g5380" /><g
         id="g5382" /><g
         id="g5384" /><g
         id="g5386" /><g
         id="g5388" /></g><path
       inkscape:connector-curvature="0"
       d="M 62.4,72 8.4558373,103.12163 c 0,0 54.0583267,-0.17286 53.9558437,-0.1489 C 62.414245,86.795645 62.413028,72.00001 62.4,72 z"
       style="fill:#955429;fill-opacity:1;fill-rule:nonzero;stroke:none"
       id="path4640"
       sodipodi:nodetypes="cccc" /><g
       id="g3234"
       externalResourcesRequired="false"
       style="fill:#44aa00;fill-opacity:1"
       transform="matrix(0.11252039,0,0,-0.11251974,12.641153,175.50468)" /><g
       id="g3354"
       style="fill:#44aa00;fill-opacity:1"
       transform="matrix(0.11252039,0,0,-0.11251974,12.641153,175.50468)" /><path
       sodipodi:nodetypes="cccc"
       id="path4642"
       style="fill:#9d582b;fill-opacity:1;fill-rule:nonzero;stroke:none"
       d="m 62.399973,72 53.162017,30.6704 c -0.01,0.0425 -53.384918,0.30222 -53.384918,0.30222 C 62.189994,86.795578 62.264487,72.00001 62.399973,72 z"
       inkscape:connector-curvature="0" /><path
       inkscape:connector-curvature="0"
       d="m 124.8,102.80713 c 0.12915,0.13001 0,5.19287 0,5.19287 l 0,0 -62.399997,36 c -0.163873,0 -0.2379,-21.34872 -0.223082,-40.79624 z"
       style="fill:#afdde9;fill-opacity:1;fill-rule:nonzero;stroke:none"
       id="path3178"
       sodipodi:nodetypes="cccccc" /><path
       inkscape:connector-curvature="0"
       id="path4688"
       d="m 117.41195,99.75409 c 0,-1.988226 -1.65419,-3.599999 -3.69474,-3.599999 -2.04055,0 -3.69474,1.611773 -3.69474,3.599999 0,1.98823 1.65419,3.6 3.69474,3.6 2.04055,0 3.69474,-1.61177 3.69474,-3.6 z"
       style="fill:#a55c2d;fill-opacity:1;stroke:none" /><path
       style="fill:#44aa00;fill-opacity:1;fill-rule:evenodd"
       d="M 83 21.0625 C 82.872806 21.143462 82.957527 21.74675 83.15625 22.8125 C 83.35497 23.878263 83.674251 25.430337 84.03125 27.34375 C 84.388246 29.257163 84.78582 31.556538 85.09375 34.1875 C 85.401681 36.818462 85.62275 39.7679 85.6875 42.9375 C 85.692963 43.202137 85.6843 43.482346 85.6875 43.75 C 85.638033 43.453086 85.587926 43.164418 85.53125 42.875 C 85.166959 41.014725 84.647415 39.304663 84.03125 37.84375 C 83.445843 36.472925 82.766171 35.3422 82.09375 34.4375 C 81.859328 34.122091 81.636309 33.821963 81.40625 33.5625 C 81.42751 33.229114 81.432668 32.995258 81.375 32.96875 C 81.32534 32.945953 81.228361 33.070942 81.125 33.28125 C 80.790278 32.92903 80.488758 32.615131 80.1875 32.375 C 79.283648 31.845238 78.656403 31.571679 78.34375 31.5 C 78.222432 31.322685 78.121682 31.132464 78 30.96875 C 77.21991 29.919163 76.42846 29.13455 75.75 28.59375 C 74.272013 27.727475 73.412963 27.346175 73.34375 27.5625 C 73.278314 27.781625 74.003375 28.553237 75.25 29.6875 C 75.503999 29.983524 75.785199 30.343345 76.0625 30.71875 C 76.028924 30.907085 76.001805 31.035873 75.96875 31.28125 C 75.843558 32.210608 75.715812 33.57404 75.59375 35.21875 C 75.548245 35.133026 75.505747 35.073835 75.46875 35.03125 C 75.424593 34.980422 75.405415 34.955897 75.375 34.96875 C 75.25335 35.020125 75.260487 35.559362 75.34375 36.53125 C 75.351995 36.627484 75.365361 36.833284 75.375 36.9375 C 75.328469 36.782768 75.293911 36.570955 75.25 36.4375 C 74.985146 35.632575 74.763936 35.235725 74.65625 35.28125 C 74.54855 35.32675 74.551287 35.827212 74.625 36.6875 C 74.6987 37.547812 74.854886 38.7687 75 40.28125 C 75.072558 41.037506 75.149197 41.858286 75.21875 42.75 C 75.155118 44.650568 75.095615 46.650732 75.125 48.78125 C 75.126126 48.86925 75.15475 48.9435 75.15625 49.03125 C 75.158397 49.176604 75.153193 49.323755 75.15625 49.46875 L 74.3125 49.46875 C 74.298066 47.649367 74.288477 45.819241 74.28125 44.1875 C 74.2715 41.986125 74.244962 39.989888 74.1875 38.3125 C 74.130025 36.635138 74.049529 35.282713 73.9375 34.34375 C 73.825475 33.40475 73.668149 32.875 73.53125 32.875 C 73.462803 32.875 73.408628 33.002617 73.34375 33.25 C 73.30946 33.380748 73.283576 33.619008 73.25 33.8125 C 73.188894 33.561938 73.096053 33.4375 73.03125 33.4375 C 72.910062 33.4375 72.798391 33.89555 72.6875 34.71875 C 72.576612 35.541938 72.482994 36.715225 72.375 38.1875 C 72.267025 39.659775 72.173986 41.415275 72.09375 43.375 C 72.060526 44.186448 72.051578 45.061852 72.03125 45.9375 C 71.7468 44.596529 71.47171 43.301224 71.25 42.03125 C 70.912546 40.098262 70.680919 38.26195 70.53125 36.53125 C 70.429575 35.362712 70.359971 34.230187 70.34375 33.1875 C 70.327538 32.144825 70.352275 31.171362 70.40625 30.28125 C 70.523038 28.3444 70.786286 26.793238 70.96875 25.71875 C 71.059975 25.181525 71.121569 24.765625 71.15625 24.46875 C 71.190925 24.1719 71.180325 24.004963 71.125 23.96875 C 71.118125 23.96375 71.102162 23.96875 71.09375 23.96875 C 71.034837 23.9675 70.937398 24.0417 70.8125 24.25 C 70.669758 24.4881 70.511191 24.865512 70.3125 25.375 C 70.113817 25.884488 69.892041 26.53485 69.6875 27.3125 C 69.48295 28.090175 69.274407 29.001875 69.125 30.03125 C 68.988218 30.975325 68.894473 32.036338 68.84375 33.15625 C 68.793037 34.276188 68.786187 35.465675 68.84375 36.71875 C 68.929625 38.568838 69.158441 40.528763 69.46875 42.5625 C 69.779059 44.596225 70.175954 46.689263 70.65625 48.8125 C 70.70634 49.033939 70.761816 49.25095 70.8125 49.46875 L 69.75 49.46875 C 69.726803 49.365382 69.710906 49.260261 69.6875 49.15625 C 69.283169 47.359612 68.915876 45.63495 68.625 43.96875 C 68.334122 42.302575 68.12901 40.710612 68 39.21875 C 67.912363 38.211512 67.85773 37.242512 67.84375 36.34375 C 67.829775 35.444987 67.859675 34.610975 67.90625 33.84375 C 68.006937 32.1742 68.217721 30.832438 68.375 29.90625 C 68.453625 29.44315 68.501357 29.099625 68.53125 28.84375 C 68.56115 28.58785 68.578937 28.437463 68.53125 28.40625 C 68.52825 28.404375 68.503466 28.4075 68.5 28.40625 C 68.46295 28.40552 68.411935 28.467825 68.34375 28.5625 C 68.398285 28.233669 68.444547 27.89468 68.46875 27.6875 C 68.502525 27.398425 68.491375 27.222763 68.4375 27.1875 C 68.43075 27.1825 68.414463 27.1875 68.40625 27.1875 C 68.348888 27.186262 68.246619 27.265925 68.125 27.46875 C 67.986011 27.700613 67.818471 28.066387 67.625 28.5625 C 67.431529 29.058613 67.230425 29.7115 67.03125 30.46875 C 66.931662 30.847362 66.839977 31.244633 66.75 31.6875 C 66.660023 32.130367 66.572744 32.592569 66.5 33.09375 C 66.36681 34.013037 66.268141 35.03445 66.21875 36.125 C 66.198633 36.569323 66.190959 37.031456 66.1875 37.5 C 65.952556 36.523882 65.744697 35.57136 65.5 34.6875 C 64.906835 32.54495 64.303481 30.687875 63.75 29.15625 C 63.187128 27.598075 62.668065 26.3776 62.28125 25.53125 C 62.08504 25.10075 61.939352 24.795213 61.8125 24.5625 C 61.747663 24.442375 61.669421 24.347075 61.625 24.28125 C 61.59615 24.22075 61.584925 24.205875 61.5625 24.1875 C 61.540087 24.169125 61.521513 24.131 61.5 24.125 C 61.478475 24.11875 61.458275 24.143875 61.4375 24.1875 C 61.416725 24.23075 61.38005 24.317075 61.375 24.375 C 61.364375 24.477375 61.363375 24.596925 61.375 24.75 C 61.397912 25.052563 61.466875 25.483625 61.5625 25.96875 C 61.752762 26.933 62.082905 28.2609 62.46875 29.875 C 63.230441 33.060075 64.259906 37.433738 65.0625 42.59375 C 65.306064 44.161198 65.50309 45.802385 65.6875 47.5 C 65.518974 46.247967 65.308612 45.032431 65.09375 43.875 C 64.668621 41.583025 64.167546 39.471837 63.65625 37.625 C 63.144959 35.778187 62.63333 34.19525 62.15625 32.875 C 61.671055 31.531912 61.239681 30.479538 60.90625 29.75 C 60.737124 29.3789 60.578098 29.106863 60.46875 28.90625 C 60.412875 28.80275 60.382052 28.712987 60.34375 28.65625 C 60.318888 28.604 60.269325 28.6095 60.25 28.59375 C 60.230675 28.577875 60.2373 28.567625 60.21875 28.5625 C 60.200212 28.5575 60.174162 28.556875 60.15625 28.59375 C 60.13835 28.631 60.12935 28.700125 60.125 28.75 C 60.115875 28.83825 60.115 28.961813 60.125 29.09375 C 60.135218 29.228605 60.19016 29.445235 60.21875 29.625 C 60.085286 29.310644 59.926734 28.968693 59.8125 28.71875 C 59.621445 28.29955 59.467279 27.976625 59.34375 27.75 C 59.280612 27.633 59.230763 27.5641 59.1875 27.5 C 59.159413 27.441 59.115575 27.424125 59.09375 27.40625 C 59.071925 27.388375 59.083437 27.38075 59.0625 27.375 C 59.041537 27.36875 58.988975 27.364 58.96875 27.40625 C 58.948525 27.448375 58.942425 27.537363 58.9375 27.59375 C 58.927125 27.6935 58.92625 27.819712 58.9375 27.96875 C 58.959813 28.263362 59.031891 28.652613 59.125 29.125 C 59.310274 30.063925 59.624286 31.365788 60 32.9375 C 60.741708 36.038963 61.749726 40.28795 62.53125 45.3125 C 62.738647 46.647226 62.929539 48.035457 63.09375 49.46875 L 61.3125 49.46875 C 61.226873 47.134074 61.055684 44.906937 60.78125 42.875 C 60.402495 40.0706 59.891969 37.597113 59.40625 35.5625 C 58.920533 33.52785 58.433339 31.954625 58.0625 30.875 C 57.691661 29.795412 57.433325 29.22575 57.3125 29.28125 C 57.191675 29.33675 57.2502 29.99315 57.40625 31.15625 C 57.562303 32.319375 57.812364 33.97855 58.125 36.03125 C 58.281314 37.057594 58.463169 38.20003 58.625 39.40625 C 58.552949 39.082475 58.478335 38.708213 58.40625 38.40625 C 57.987567 36.65245 57.600904 35.274375 57.28125 34.34375 C 56.96159 33.413175 56.729144 32.920937 56.625 32.96875 C 56.520838 33.016625 56.552975 33.591162 56.6875 34.59375 C 56.822016 35.5963 57.043015 37.04315 57.3125 38.8125 C 57.447244 39.697194 57.579255 40.679009 57.71875 41.71875 C 57.496433 40.553488 57.26342 39.472537 57.03125 38.5 C 56.592721 36.663014 56.160472 35.229491 55.8125 34.1875 C 56.075684 32.03698 56.391095 30.11989 56.6875 28.53125 C 57.003521 26.837437 57.292839 25.474662 57.46875 24.53125 C 57.644662 23.5878 57.706346 23.040425 57.59375 22.96875 C 57.48115 22.897125 57.198444 23.314675 56.8125 24.15625 C 56.426553 24.997812 55.91137 26.29305 55.40625 27.96875 C 54.90114 29.64445 54.41826 31.687463 54 34.09375 C 53.812181 35.174282 53.639944 36.358405 53.5 37.5625 C 53.396168 37.712085 53.274118 37.952114 53.125 38.3125 C 52.856256 38.961962 52.517045 39.954075 52.21875 41.21875 C 52.134315 41.576731 52.078604 42.00467 52 42.40625 C 52.083402 41.274211 52.160719 40.211817 52.25 39.28125 C 52.395115 37.768725 52.5513 36.547825 52.625 35.6875 C 52.698713 34.827225 52.70145 34.32675 52.59375 34.28125 C 52.486055 34.235738 52.264853 34.632563 52 35.4375 C 51.735147 36.242463 51.422229 37.45135 51.125 38.96875 C 50.993237 39.641406 50.868909 40.397682 50.75 41.1875 C 50.80281 40.580365 50.847966 39.988633 50.875 39.40625 C 50.924687 38.326112 50.918713 37.27785 50.875 36.3125 C 50.831283 35.34715 50.7429 34.438762 50.625 33.625 C 50.496215 32.737687 50.332563 31.951562 50.15625 31.28125 C 49.979935 30.6109 49.796268 30.064163 49.625 29.625 C 49.453737 29.185825 49.279288 28.861475 49.15625 28.65625 C 49.04859 28.476675 48.988287 28.40525 48.9375 28.40625 C 48.934036 28.4075 48.90925 28.404375 48.90625 28.40625 C 48.858563 28.437463 48.845112 28.58785 48.875 28.84375 C 48.904899 29.099625 48.983863 29.44315 49.0625 29.90625 C 49.219779 30.832438 49.430575 32.1742 49.53125 33.84375 C 49.577838 34.610975 49.607737 35.444987 49.59375 36.34375 C 49.579773 37.242512 49.525125 38.211512 49.4375 39.21875 C 49.308489 40.710612 49.103379 42.302575 48.8125 43.96875 C 48.639509 44.959665 48.436815 45.989469 48.21875 47.03125 C 48.22364 45.328138 48.193606 43.659789 48.15625 42.125 C 48.096018 39.650638 47.981863 37.4259 47.875 35.5625 C 47.768139 33.699112 47.652987 32.197638 47.53125 31.15625 C 47.409511 30.114888 47.291942 29.53125 47.15625 29.53125 C 47.108946 29.53125 47.076997 29.645112 47.03125 29.78125 C 46.955961 28.766143 46.861747 27.844804 46.78125 27.15625 C 46.640016 25.948138 46.501169 25.28125 46.34375 25.28125 C 46.186334 25.28125 46.037964 25.973713 45.90625 27.1875 C 45.774547 28.40125 45.67625 30.144588 45.59375 32.3125 C 45.511253 34.480375 45.45165 37.054587 45.40625 39.90625 C 45.400114 40.291648 45.380993 40.761408 45.375 41.15625 C 45.349515 40.332712 45.312592 39.480894 45.28125 38.71875 C 45.230217 37.477778 45.185363 36.333763 45.125 35.28125 C 45.004276 33.176237 44.887525 31.488912 44.75 30.3125 C 44.612472 29.136112 44.465785 28.46875 44.3125 28.46875 C 44.159223 28.46875 44.003258 29.1306 43.875 30.3125 C 43.746749 31.494388 43.642838 33.201525 43.5625 35.3125 C 43.482168 37.4235 43.419213 39.94195 43.375 42.71875 C 43.341846 44.801401 43.29556 47.142081 43.25 49.46875 L 41.125 49.46875 C 41.352313 48.507989 41.576383 47.541274 41.78125 46.625 C 42.186751 44.811413 42.554491 43.063963 42.8125 41.46875 C 42.963807 40.535538 43.073687 39.650362 43.15625 38.8125 C 43.23881 37.974625 43.268463 37.180387 43.28125 36.46875 C 43.294662 35.764612 43.294875 35.146362 43.25 34.59375 C 43.205123 34.041137 43.13675 33.560675 43.0625 33.1875 C 42.988262 32.814338 42.91465 32.556813 42.84375 32.375 C 42.772845 32.19315 42.701287 32.08 42.65625 32.09375 C 42.611212 32.107575 42.57885 32.23915 42.5625 32.4375 C 42.546137 32.635875 42.54125 32.916775 42.53125 33.28125 C 42.5213 33.645725 42.501288 34.077288 42.46875 34.59375 C 42.436201 35.110187 42.388937 35.7233 42.3125 36.375 C 42.234405 37.034575 42.136287 37.752612 42 38.53125 C 41.863718 39.309863 41.692296 40.1456 41.5 41.03125 C 41.17031 42.546988 40.760773 44.197913 40.3125 45.96875 C 40.06348 46.952443 39.795333 48.035769 39.53125 49.09375 C 39.5633 48.492256 39.576339 47.905492 39.59375 47.3125 C 39.766827 46.574689 39.965523 45.807008 40.125 45.09375 C 40.595425 42.98975 40.98193 41.0069 41.28125 39.15625 C 41.456786 38.073613 41.591725 37.034537 41.6875 36.0625 C 41.783273 35.090475 41.8289 34.169325 41.84375 33.34375 C 41.859313 32.526862 41.864562 31.79735 41.8125 31.15625 C 41.760438 30.515137 41.679887 29.964188 41.59375 29.53125 C 41.507621 29.098363 41.39475 28.77345 41.3125 28.5625 C 41.23025 28.351538 41.177238 28.26525 41.125 28.28125 C 41.07275 28.297275 41.018975 28.426125 41 28.65625 C 40.981025 28.886362 40.98025 29.202175 40.96875 29.625 C 40.957213 30.047825 40.944012 30.557112 40.90625 31.15625 C 40.868499 31.755387 40.807437 32.4627 40.71875 33.21875 C 40.628145 33.983937 40.501859 34.815425 40.34375 35.71875 C 40.195903 36.563461 40.017683 37.45241 39.8125 38.40625 C 39.872496 37.673809 39.926003 36.952117 39.9375 36.3125 C 39.952663 35.517075 39.9257 34.811775 39.875 34.1875 C 39.824302 33.563212 39.740125 33.046538 39.65625 32.625 C 39.572384 32.20345 39.486337 31.861662 39.40625 31.65625 C 39.326156 31.450812 39.269625 31.359375 39.21875 31.375 C 39.167875 31.390587 39.112225 31.5259 39.09375 31.75 C 39.075275 31.974075 39.07375 32.307012 39.0625 32.71875 C 39.051262 33.130487 39.036762 33.6041 39 34.1875 C 38.981048 34.488256 38.937003 34.87508 38.90625 35.21875 C 38.842377 34.799806 38.788461 34.369804 38.71875 33.96875 C 38.300489 31.562462 37.78636 29.4882 37.28125 27.8125 C 36.811 26.252479 36.371558 25.060205 36 24.21875 L 35.28125 24.625 C 35.459018 25.556908 35.732474 26.773592 36.03125 28.375 C 36.347276 30.068775 36.664912 32.10855 36.9375 34.4375 C 37.210086 36.766475 37.411425 39.381738 37.46875 42.1875 C 37.476298 42.553093 37.466098 42.940486 37.46875 43.3125 C 37.190463 44.495673 36.89222 45.728767 36.5625 47.03125 C 36.368784 47.796507 36.17236 48.662894 35.96875 49.46875 L 34.75 49.46875 C 34.892282 48.859534 35.055228 48.216604 35.1875 47.625 C 35.64558 45.57625 36.052294 43.614587 36.34375 41.8125 C 36.514685 40.758275 36.656737 39.759013 36.75 38.8125 C 36.843259 37.865962 36.8918 36.991413 36.90625 36.1875 C 36.921413 35.392075 36.89445 34.655525 36.84375 34.03125 C 36.793052 33.406962 36.708875 32.890287 36.625 32.46875 C 36.541134 32.0472 36.455087 31.736663 36.375 31.53125 C 36.294906 31.325813 36.238375 31.234375 36.1875 31.25 C 36.136625 31.265588 36.080975 31.36965 36.0625 31.59375 C 36.044025 31.817825 36.0425 32.150763 36.03125 32.5625 C 36.020013 32.974238 36.005513 33.4791 35.96875 34.0625 C 35.931985 34.645938 35.867612 35.295063 35.78125 36.03125 C 35.69303 36.776375 35.591456 37.58915 35.4375 38.46875 C 35.283545 39.348325 35.092226 40.312013 34.875 41.3125 C 34.699529 42.119225 34.490709 42.970811 34.28125 43.84375 C 34.26784 43.442546 34.265802 43.010947 34.25 42.625 C 34.169766 40.665275 34.045488 38.909775 33.9375 37.4375 C 33.829512 35.965213 33.735888 34.791938 33.625 33.96875 C 33.514109 33.145538 33.402437 32.6875 33.28125 32.6875 C 33.160071 32.6875 33.036662 33.137563 32.9375 33.96875 C 32.838339 34.799937 32.769625 36.015162 32.71875 37.5 C 32.667875 38.984837 32.633625 40.738812 32.625 42.6875 C 32.616388 44.6362 32.625312 46.774175 32.59375 49 C 32.59275 49.073937 32.594909 49.145 32.59375 49.21875 C 32.592325 49.303587 32.595481 49.384375 32.59375 49.46875 L 30.03125 49.46875 C 30.171936 46.967027 30.192921 44.527036 30.09375 42.21875 C 29.966107 39.260537 29.637011 36.500075 29.21875 34.09375 C 28.865955 32.064109 28.426261 30.354066 28 28.84375 L 26.71875 29.59375 C 26.981378 31.069391 27.248199 32.7094 27.46875 34.59375 C 27.561102 35.382816 27.614134 36.24296 27.6875 37.09375 C 27.540263 35.890723 27.408322 34.71562 27.21875 33.625 C 26.975677 32.226587 26.690794 30.935264 26.40625 29.75 L 24.75 30.71875 C 24.797731 31.024507 24.829146 31.309117 24.875 31.625 C 24.629253 32.215972 24.357378 32.871212 24.0625 33.6875 C 23.585414 35.007725 23.073792 36.621925 22.5625 38.46875 C 22.051209 40.315588 21.550128 42.3955 21.125 44.6875 C 20.910137 45.844919 20.699776 47.060467 20.53125 48.3125 C 20.618886 46.020186 20.623041 43.761487 20.53125 41.625 C 20.405913 38.720168 20.132046 36.034404 19.75 33.59375 L 17.75 34.75 C 17.961353 36.927109 18.105199 39.282242 18.15625 41.78125 C 18.206759 44.227678 18.152866 46.813881 18 49.46875 L 17.125 49.46875 C 17.299576 46.492764 17.305334 43.586359 17.1875 40.84375 C 17.104345 38.916579 16.953307 37.080029 16.75 35.34375 L 14.59375 36.59375 C 14.690819 38.005826 14.750252 39.482715 14.78125 41 C 14.836848 43.693083 14.747829 46.534399 14.5625 49.46875 L 14.4375 49.46875 C 14.363663 47.518808 14.154972 45.623849 13.8125 43.875 C 13.448207 42.014725 12.92867 40.335913 12.3125 38.875 C 12.197669 38.606103 12.058819 38.346209 11.9375 38.09375 L 10.6875 38.8125 C 10.820445 39.125893 10.9716 39.411697 11.09375 39.75 C 11.592396 41.108288 11.990518 42.691137 12.28125 44.40625 C 12.548282 45.981553 12.708288 47.689615 12.78125 49.46875 L 9.875 49.46875 C 9.8744449 49.448063 9.8755942 49.426932 9.875 49.40625 C 9.8073725 47.054775 9.5677775 44.757737 9.15625 42.65625 C 8.9812021 41.762366 8.7632063 40.911934 8.53125 40.09375 L 5.25 41.96875 C 5.2725963 42.156888 5.2865681 42.343096 5.3125 42.53125 C 5.2767237 42.348557 5.225787 42.180108 5.1875 42 L 3.5625 42.9375 C 3.5718137 42.991026 3.5846268 43.039929 3.59375 43.09375 C 3.922185 45.031275 4.1177875 47.172125 4.1875 49.375 C 4.1885006 49.406622 4.1864881 49.437119 4.1875 49.46875 L 3.65625 49.46875 C 3.5838983 47.308853 3.3638953 45.22953 3 43.28125 L 1.3125 44.25 C 1.5619756 45.897804 1.7446266 47.640822 1.8125 49.46875 L 0 49.46875 L 0 53.125 L 156 53.125 L 156 49.46875 L 155.09375 49.46875 C 155.15462 47.924325 155.26779 46.426226 155.40625 45.03125 C 155.4183 44.909833 155.42521 44.807606 155.4375 44.6875 L 152.59375 43.03125 C 152.6144 43.341368 152.63756 43.618241 152.65625 43.9375 C 152.75704 45.658235 152.84299 47.526348 152.90625 49.46875 L 151.4375 49.46875 C 151.43713 49.44791 151.43785 49.427116 151.4375 49.40625 C 151.43626 49.32075 151.43875 49.242037 151.4375 49.15625 C 151.40338 46.750551 151.38513 44.476097 151.375 42.34375 L 149.5625 41.28125 C 149.55524 41.454846 149.53849 41.604546 149.53125 41.78125 C 149.43812 44.054775 149.36974 46.570063 149.40625 49.21875 C 149.4074 49.30675 149.405 49.381 149.40625 49.46875 L 148.40625 49.46875 C 148.33673 48.397311 148.22439 47.365157 148.125 46.375 C 147.8916 44.049538 147.58579 41.964163 147.25 40.25 C 147.2249 40.121861 147.21289 40.030239 147.1875 39.90625 L 145.8125 39.125 C 145.86779 39.664781 145.90865 39.998622 145.96875 40.625 C 146.13268 42.333663 146.30437 44.35125 146.4375 46.625 C 146.49033 47.527708 146.55201 48.496809 146.59375 49.46875 L 145.3125 49.46875 C 145.31228 49.458448 145.31266 49.447941 145.3125 49.4375 C 145.27687 46.92305 145.291 44.513888 145.28125 42.3125 C 145.27524 40.989296 145.23977 39.931527 145.21875 38.78125 L 143.6875 37.90625 C 143.63532 38.6468 143.57314 39.340311 143.53125 40.15625 C 143.49512 39.959788 143.47431 39.719171 143.4375 39.53125 C 143.28814 38.768706 143.15258 38.110643 143 37.5 L 141.84375 36.84375 C 141.93118 37.720393 142.0339 38.599684 142.15625 39.875 C 142.32018 41.583663 142.46063 43.6325 142.59375 45.90625 C 142.65998 47.037895 142.73222 48.231368 142.78125 49.46875 L 141.5625 49.46875 C 141.48987 47.737491 141.40395 46.065146 141.25 44.53125 C 141.04339 42.472713 140.76597 40.611137 140.46875 39.09375 C 140.17151 37.57635 139.82735 36.398687 139.5625 35.59375 C 139.54901 35.552751 139.54435 35.539031 139.53125 35.5 L 137.90625 34.5625 C 137.84697 35.188097 137.77633 35.871186 137.71875 36.65625 C 137.59675 38.319437 137.46564 40.317412 137.375 42.53125 C 137.28812 44.653601 137.22353 47.006882 137.25 49.46875 L 135.625 49.46875 C 135.59755 47.34993 135.60199 45.299367 135.59375 43.4375 C 135.585 41.4888 135.55087 39.734837 135.5 38.25 C 135.44913 36.765175 135.38041 35.549925 135.28125 34.71875 C 135.18213 33.887538 135.05869 33.4375 134.9375 33.4375 C 134.81637 33.4375 134.70465 33.89555 134.59375 34.71875 C 134.48288 35.541938 134.35799 36.715225 134.25 38.1875 C 134.142 39.659775 134.04898 41.415275 133.96875 43.375 C 133.91462 44.696873 133.8875 46.143082 133.875 47.625 C 133.49775 45.904643 133.12495 44.204573 132.84375 42.59375 C 132.50629 40.660763 132.27466 38.82445 132.125 37.09375 C 132.02338 35.925212 131.95371 34.792687 131.9375 33.75 C 131.92291 32.813742 131.95692 31.965517 132 31.15625 L 130.78125 30.4375 C 130.77149 30.502204 130.75953 30.559334 130.75 30.625 C 130.61321 31.569075 130.51946 32.598838 130.46875 33.71875 C 130.418 34.838687 130.41088 36.028175 130.46875 37.28125 C 130.55463 39.131338 130.7522 41.122512 131.0625 43.15625 C 131.37281 45.189975 131.80096 47.283013 132.28125 49.40625 C 132.28581 49.426397 132.27668 49.448644 132.28125 49.46875 L 129.28125 49.46875 C 129.26303 47.486172 129.25783 45.516911 129.25 43.75 C 129.24 41.548625 129.21363 39.552388 129.15625 37.875 C 129.09875 36.197638 128.98702 34.845213 128.875 33.90625 C 128.763 32.96725 128.6369 32.4375 128.5 32.4375 C 128.3631 32.4375 128.25026 32.976287 128.125 33.90625 C 127.99973 34.836187 127.87199 36.149338 127.75 37.8125 C 127.628 39.475687 127.49689 41.473662 127.40625 43.6875 C 127.33322 45.471397 127.28119 47.435223 127.28125 49.46875 L 125.28125 49.46875 C 125.25806 49.365382 125.24216 49.260261 125.21875 49.15625 C 125.15366 48.867035 125.09415 48.599053 125.03125 48.3125 C 125.14312 47.427944 125.27587 46.557828 125.40625 45.71875 C 126.09807 41.270913 126.99969 37.495463 127.65625 34.75 C 127.98884 33.358688 128.24226 32.206163 128.40625 31.375 C 128.48868 30.95685 128.574 30.604575 128.59375 30.34375 C 128.60375 30.211825 128.6025 30.08825 128.59375 30 C 128.58937 29.9501 128.58038 29.881 128.5625 29.84375 C 128.54462 29.806875 128.5185 29.8075 128.5 29.8125 C 128.4815 29.817625 128.45687 29.827875 128.4375 29.84375 C 128.41812 29.859625 128.39988 29.88525 128.375 29.9375 C 128.33675 29.994225 128.27463 30.052625 128.21875 30.15625 C 128.1094 30.356875 127.98163 30.660187 127.8125 31.03125 C 127.47908 31.760812 127.0477 32.781888 126.5625 34.125 C 126.08541 35.445225 125.54254 37.059425 125.03125 38.90625 C 124.67586 40.189904 124.35422 41.620743 124.03125 43.125 C 123.81259 41.770532 123.63796 40.452627 123.53125 39.21875 C 123.44363 38.211512 123.38898 37.242512 123.375 36.34375 C 123.36101 35.444987 123.39091 34.610975 123.4375 33.84375 C 123.53817 32.1742 123.74897 30.832438 123.90625 29.90625 C 123.98489 29.44315 124.06386 29.099625 124.09375 28.84375 C 124.12364 28.58785 124.11016 28.437463 124.0625 28.40625 C 124.0595 28.404375 124.03472 28.4075 124.03125 28.40625 C 123.99023 28.405442 123.95388 28.477362 123.875 28.59375 C 123.93234 28.249158 123.97495 27.901921 124 27.6875 C 124.03377 27.398425 124.02263 27.222763 123.96875 27.1875 C 123.962 27.1825 123.9457 27.1875 123.9375 27.1875 C 123.88012 27.186262 123.80912 27.265925 123.6875 27.46875 C 123.54851 27.700613 123.34973 28.066387 123.15625 28.5625 C 122.96278 29.058613 122.76167 29.7115 122.5625 30.46875 C 122.46291 30.847362 122.37123 31.244633 122.28125 31.6875 C 122.19127 32.130367 122.10399 32.592569 122.03125 33.09375 C 121.89805 34.013037 121.79939 35.03445 121.75 36.125 C 121.73125 36.539041 121.72306 36.971067 121.71875 37.40625 C 121.49121 36.465756 121.26774 35.541724 121.03125 34.6875 C 120.97233 34.474672 120.90284 34.300965 120.84375 34.09375 C 120.83971 34.058092 120.84785 34.003144 120.84375 33.96875 C 120.74459 33.137563 120.62119 32.6875 120.5 32.6875 C 120.48136 32.6875 120.45581 32.697154 120.4375 32.71875 C 120.03841 31.406874 119.65314 30.18538 119.28125 29.15625 C 118.71838 27.598075 118.19932 26.3776 117.8125 25.53125 C 117.61629 25.10075 117.4706 24.795213 117.34375 24.5625 C 117.27892 24.442375 117.23192 24.347075 117.1875 24.28125 C 117.15865 24.22075 117.11617 24.205875 117.09375 24.1875 C 117.07134 24.169125 117.05275 24.131 117.03125 24.125 C 117.00973 24.11875 116.98953 24.143875 116.96875 24.1875 C 116.94797 24.23075 116.94256 24.317075 116.9375 24.375 C 116.92687 24.477375 116.92587 24.596925 116.9375 24.75 C 116.96042 25.052563 117.02938 25.483625 117.125 25.96875 C 117.31527 26.933 117.61415 28.2609 118 29.875 C 118.52761 32.081241 119.19095 34.880255 119.8125 38.09375 C 119.77982 38.567648 119.74952 39.164312 119.71875 39.6875 C 119.54642 38.988402 119.36532 38.267286 119.1875 37.625 C 118.67621 35.778187 118.16459 34.19525 117.6875 32.875 C 117.53413 32.450451 117.39147 32.113869 117.25 31.75 C 117.21264 31.24389 117.16775 30.706463 117.125 30.3125 C 116.99675 29.1306 116.87204 28.46875 116.71875 28.46875 C 116.60379 28.46875 116.48142 28.9456 116.375 29.625 C 116.23879 29.331753 116.12428 29.076927 116.03125 28.90625 C 115.97537 28.80275 115.91329 28.712987 115.875 28.65625 C 115.85014 28.604 115.83184 28.6095 115.8125 28.59375 C 115.79319 28.577875 115.76853 28.567625 115.75 28.5625 C 115.73145 28.5575 115.70542 28.556875 115.6875 28.59375 C 115.66961 28.631 115.6606 28.700125 115.65625 28.75 C 115.64713 28.83825 115.64625 28.961813 115.65625 29.09375 C 115.67601 29.354563 115.73007 29.706838 115.8125 30.125 C 115.88309 30.482756 116.04845 31.094445 116.15625 31.5625 C 116.06224 32.602888 115.96023 33.795173 115.875 35.28125 C 115.77091 37.096239 115.69307 39.25263 115.625 41.59375 C 115.6169 41.05651 115.60203 40.426467 115.59375 39.90625 C 115.54834 37.054587 115.48874 34.480375 115.40625 32.3125 C 115.32376 30.144588 115.22546 28.40125 115.09375 27.1875 C 114.96205 25.973713 114.81366 25.28125 114.65625 25.28125 C 114.49883 25.28125 114.35998 25.948138 114.21875 27.15625 C 114.13825 27.844804 114.04404 28.766143 113.96875 29.78125 C 113.923 29.645112 113.89105 29.53125 113.84375 29.53125 C 113.70806 29.53125 113.59049 30.114888 113.46875 31.15625 C 113.34701 32.197638 113.23187 33.699112 113.125 35.5625 C 113.01814 37.4259 112.90399 39.650638 112.84375 42.125 C 112.80639 43.659789 112.77636 45.328138 112.78125 47.03125 C 112.56319 45.989469 112.36049 44.959665 112.1875 43.96875 C 111.89661 42.302575 111.69152 40.710612 111.5625 39.21875 C 111.47486 38.211512 111.42023 37.242512 111.40625 36.34375 C 111.39226 35.444987 111.42216 34.610975 111.46875 33.84375 C 111.56942 32.1742 111.78022 30.832438 111.9375 29.90625 C 112.01614 29.44315 112.0951 29.099625 112.125 28.84375 C 112.1549 28.58785 112.14142 28.437463 112.09375 28.40625 C 112.09075 28.404375 112.06597 28.4075 112.0625 28.40625 C 112.01171 28.40525 111.95141 28.476675 111.84375 28.65625 C 111.72071 28.861475 111.54626 29.185825 111.375 29.625 C 111.20375 30.064163 111.02006 30.6109 110.84375 31.28125 C 110.66744 31.951562 110.5038 32.737687 110.375 33.625 C 110.25709 34.438762 110.16871 35.34715 110.125 36.3125 C 110.08127 37.27785 110.07531 38.326112 110.125 39.40625 C 110.15203 39.988633 110.19719 40.580365 110.25 41.1875 C 110.13109 40.397682 110.00676 39.641406 109.875 38.96875 C 109.57777 37.45135 109.26485 36.242463 109 35.4375 C 108.73515 34.632563 108.51394 34.235738 108.40625 34.28125 C 108.29856 34.32675 108.33254 34.827225 108.40625 35.6875 C 108.47995 36.547825 108.60489 37.768725 108.75 39.28125 C 108.83928 40.211817 108.9166 41.274211 109 42.40625 C 108.92139 42.00467 108.86569 41.576731 108.78125 41.21875 C 108.48297 39.954075 108.14373 38.961962 107.875 38.3125 C 107.72588 37.952114 107.60384 37.712085 107.5 37.5625 C 107.36006 36.358405 107.21907 35.174282 107.03125 34.09375 C 106.61299 31.687463 106.09887 29.64445 105.59375 27.96875 C 105.08863 26.29305 104.57345 24.997812 104.1875 24.15625 C 103.80156 23.314675 103.51885 22.897125 103.40625 22.96875 C 103.29365 23.040425 103.38658 23.5878 103.5625 24.53125 C 103.7384 25.474662 103.99647 26.837437 104.3125 28.53125 C 104.6089 30.11989 104.92431 32.03698 105.1875 34.1875 C 104.83959 35.229425 104.40714 36.663645 103.96875 38.5 C 103.73658 39.472537 103.50357 40.553488 103.28125 41.71875 C 103.42075 40.679009 103.55276 39.697194 103.6875 38.8125 C 103.957 37.04315 104.17799 35.5963 104.3125 34.59375 C 104.44703 33.591162 104.47916 33.016625 104.375 32.96875 C 104.27085 32.920937 104.03841 33.413175 103.71875 34.34375 C 103.39909 35.274375 103.01243 36.65245 102.59375 38.40625 C 102.52166 38.708213 102.44705 39.082475 102.375 39.40625 C 102.53683 38.20003 102.71868 37.057594 102.875 36.03125 C 103.18764 33.97855 103.46894 32.319375 103.625 31.15625 C 103.78105 29.99315 103.80832 29.33675 103.6875 29.28125 C 103.56666 29.22575 103.30834 29.795412 102.9375 30.875 C 102.56666 31.954625 102.07947 33.52785 101.59375 35.5625 C 101.10804 37.597113 100.62876 40.0706 100.25 42.875 C 99.97557 44.906937 99.773133 47.134074 99.6875 49.46875 L 97.90625 49.46875 C 97.920214 49.346867 97.923184 49.214995 97.9375 49.09375 C 98.091532 47.789195 98.278987 46.533725 98.46875 45.3125 C 99.250278 40.28795 100.2583 36.038963 101 32.9375 C 101.37571 31.365788 101.68973 30.063925 101.875 29.125 C 101.96812 28.652613 102.04018 28.263362 102.0625 27.96875 C 102.07375 27.819712 102.07288 27.6935 102.0625 27.59375 C 102.05757 27.537363 102.05148 27.448375 102.03125 27.40625 C 102.01103 27.364 101.95846 27.36875 101.9375 27.375 C 101.91656 27.38075 101.92809 27.388375 101.90625 27.40625 C 101.88441 27.424125 101.84059 27.441 101.8125 27.5 C 101.76925 27.5641 101.71939 27.633 101.65625 27.75 C 101.53273 27.976625 101.37855 28.29955 101.1875 28.71875 C 100.81082 29.542888 100.32935 30.732738 99.78125 32.25 C 99.465267 33.124397 99.119185 34.133377 98.78125 35.21875 C 98.772172 35.016617 98.796204 34.777903 98.78125 34.59375 C 98.73637 34.041137 98.668 33.560675 98.59375 33.1875 C 98.519502 32.814338 98.4459 32.556813 98.375 32.375 C 98.304098 32.19315 98.232525 32.08 98.1875 32.09375 C 98.142475 32.107575 98.1101 32.23915 98.09375 32.4375 C 98.077388 32.635875 98.0725 32.916775 98.0625 33.28125 C 98.05255 33.645725 98.032538 34.077288 98 34.59375 C 97.967458 35.110187 97.920187 35.7233 97.84375 36.375 C 97.765655 37.034575 97.667531 37.752612 97.53125 38.53125 C 97.39497 39.309863 97.223546 40.1456 97.03125 41.03125 C 96.701566 42.546988 96.292031 44.197913 95.84375 45.96875 C 95.766408 46.274277 95.673272 46.62448 95.59375 46.9375 C 95.61536 46.361224 95.628593 45.782858 95.625 45.21875 C 95.634061 45.178386 95.647244 45.134028 95.65625 45.09375 C 96.126678 42.98975 96.513171 41.0069 96.8125 39.15625 C 96.988039 38.073613 97.122975 37.034537 97.21875 36.0625 C 97.314524 35.090475 97.3914 34.169325 97.40625 33.34375 C 97.421825 32.526862 97.395813 31.79735 97.34375 31.15625 C 97.291684 30.515137 97.211125 29.964188 97.125 29.53125 C 97.038869 29.098363 96.95725 28.77345 96.875 28.5625 C 96.79275 28.351538 96.708488 28.26525 96.65625 28.28125 C 96.604 28.297275 96.581475 28.426125 96.5625 28.65625 C 96.543525 28.886362 96.5115 29.202175 96.5 29.625 C 96.488463 30.047825 96.475262 30.557112 96.4375 31.15625 C 96.399754 31.755387 96.338687 32.4627 96.25 33.21875 C 96.159399 33.983937 96.064361 34.815425 95.90625 35.71875 C 95.761672 36.544781 95.543317 37.413195 95.34375 38.34375 C 95.363813 38.093236 95.39228 37.834033 95.40625 37.59375 C 95.431836 37.153684 95.461525 36.714456 95.46875 36.3125 C 95.483925 35.517075 95.45695 34.811775 95.40625 34.1875 C 95.35555 33.563212 95.271362 33.046538 95.1875 32.625 C 95.103628 32.20345 95.017588 31.861662 94.9375 31.65625 C 94.857411 31.450812 94.800862 31.359375 94.75 31.375 C 94.699138 31.390587 94.674725 31.5259 94.65625 31.75 C 94.637775 31.974075 94.605 32.307012 94.59375 32.71875 C 94.582512 33.130487 94.568025 33.6041 94.53125 34.1875 C 94.497338 34.725633 94.450397 35.361976 94.375 36.03125 C 94.358633 35.972237 94.360338 35.902309 94.34375 35.84375 C 93.757205 33.773087 93.020836 32.004437 92.3125 30.5625 C 91.604159 29.120525 90.916226 28.005425 90.375 27.28125 C 89.833782 26.557075 89.439142 26.2195 89.28125 26.28125 C 89.123349 26.342913 89.222067 26.813163 89.46875 27.625 C 89.715435 28.436837 90.119332 29.573725 90.5625 31.03125 C 91.005664 32.488788 91.49274 34.2459 91.875 36.25 C 91.966837 36.731487 92.045949 37.241353 92.125 37.75 C 91.843336 36.813534 91.531943 35.94166 91.1875 35.125 C 90.526189 33.576425 89.759616 32.272038 89 31.25 C 88.240385 30.227975 87.473146 29.464088 86.8125 28.9375 C 86.489257 28.748039 86.197592 28.608544 85.9375 28.46875 C 85.772588 27.841133 85.635376 27.240281 85.46875 26.6875 C 84.898138 24.794537 84.342242 23.356937 83.90625 22.40625 C 83.470264 21.455562 83.127198 20.9815 83 21.0625 z M 86.34375 30.0625 C 86.877178 30.68579 87.466414 31.463065 88.0625 32.46875 C 88.664012 33.48355 89.266976 34.700713 89.78125 36.125 C 90.344551 37.659437 90.827814 39.437462 91.15625 41.375 C 91.484685 43.312525 91.649038 45.422125 91.71875 47.625 C 91.727432 47.899363 91.743802 48.164606 91.75 48.4375 C 91.665236 48.771266 91.586118 49.127907 91.5 49.46875 L 88.0625 49.46875 C 88.150131 47.176436 88.154291 44.917737 88.0625 42.78125 C 87.918314 39.439487 87.534999 36.343325 87.0625 33.625 C 86.840036 32.345153 86.600887 31.168057 86.34375 30.0625 z M 76.84375 31.90625 C 76.911065 32.014474 76.964003 32.105299 77.03125 32.21875 C 77.47012 32.959181 77.938474 33.794171 78.34375 34.75 C 78.432047 35.631433 78.504433 36.493278 78.625 37.75 C 78.728257 38.826221 78.840997 40.066428 78.9375 41.375 C 78.741442 42.412795 78.535323 43.531676 78.375 44.71875 C 78.237704 45.735306 78.120649 46.794711 78.03125 47.90625 C 77.989357 47.39487 77.955438 46.86507 77.90625 46.375 C 77.694686 44.267157 77.424602 42.395434 77.125 40.78125 C 77.113953 38.77896 77.084545 36.930362 77.03125 35.375 C 76.982252 33.945071 76.932827 32.825681 76.84375 31.90625 z M 79.1875 32.78125 C 79.382131 32.97003 79.505201 33.121019 79.75 33.34375 C 80.036078 33.677179 80.339436 34.07895 80.65625 34.53125 C 80.575736 34.770711 80.495748 35.083858 80.40625 35.375 C 80.34788 35.228821 80.278813 35.079907 80.21875 34.9375 C 79.885309 34.156688 79.557783 33.434359 79.1875 32.78125 z M 25.21875 34.09375 C 25.222586 34.126224 25.214937 34.154925 25.21875 34.1875 C 25.526686 36.818462 25.74775 39.7679 25.8125 42.9375 C 25.855619 45.025988 25.822654 47.222446 25.71875 49.46875 L 22.375 49.46875 C 22.53294 48.021221 22.698427 46.618696 22.90625 45.28125 C 23.598071 40.833413 24.499685 37.057963 25.15625 34.3125 C 25.178064 34.221248 25.197434 34.182841 25.21875 34.09375 z M 81.1875 35.375 C 81.216184 35.422241 81.252592 35.451651 81.28125 35.5 C 81.813716 36.398325 82.357261 37.489175 82.8125 38.75 C 83.31115 40.108287 83.709269 41.659887 84 43.375 C 84.290735 45.090137 84.469538 46.956225 84.53125 48.90625 C 84.53709 49.090751 84.557466 49.284694 84.5625 49.46875 L 82.71875 49.46875 C 82.719962 49.259026 82.72025 49.05623 82.71875 48.84375 C 82.716537 48.45625 82.73 48.049475 82.71875 47.65625 C 82.649296 45.241375 82.391379 42.90815 81.96875 40.75 C 81.698977 39.372389 81.366028 38.075251 80.96875 36.875 C 81.047517 36.363663 81.127753 35.786429 81.1875 35.375 z M 55.5 37.1875 C 55.59856 37.82508 55.666977 38.218461 55.78125 38.96875 C 56.085677 40.967563 56.424471 43.318675 56.6875 45.96875 C 56.798333 47.085404 56.897853 48.263272 56.96875 49.46875 L 55.375 49.46875 C 55.223563 46.998825 55.171882 44.613586 55.21875 42.34375 C 55.2559 40.525049 55.361249 38.819494 55.5 37.1875 z M 105.5 37.1875 C 105.63875 38.819494 105.7441 40.525049 105.78125 42.34375 C 105.82811 44.613573 105.80768 46.99884 105.65625 49.46875 L 104.03125 49.46875 C 104.03185 49.458631 104.03065 49.447613 104.03125 49.4375 C 104.10197 48.242798 104.2026 47.076031 104.3125 45.96875 C 104.57552 43.318675 104.91433 40.967563 105.21875 38.96875 C 105.33302 38.218461 105.40144 37.82508 105.5 37.1875 z M 117.5 37.4375 C 117.95797 39.519153 118.43551 41.81285 118.84375 44.4375 C 119.0816 45.968217 119.26644 47.60913 119.4375 49.28125 C 119.43844 49.343405 119.43635 49.40666 119.4375 49.46875 L 117.75 49.46875 C 117.70444 47.142081 117.65815 44.801401 117.625 42.71875 C 117.59348 40.738752 117.54805 39.100232 117.5 37.4375 z M 139.125 37.59375 C 139.18768 38.200593 139.23926 38.642835 139.3125 39.40625 C 139.45761 40.918762 139.63216 42.737225 139.75 44.75 C 139.83525 46.205377 139.88347 47.82862 139.9375 49.46875 L 139.25 49.46875 C 139.21811 47.049531 139.22816 44.717897 139.21875 42.59375 C 139.21024 40.720156 139.16474 39.098692 139.125 37.59375 z M 7.03125 41.28125 C 7.1786307 41.917368 7.3218388 42.567675 7.4375 43.25 C 7.7643575 45.178241 7.9607054 47.277253 8.03125 49.46875 L 7.6875 49.46875 C 7.688712 49.259026 7.689 49.05623 7.6875 48.84375 C 7.6852875 48.45625 7.6675 48.049475 7.65625 47.65625 C 7.5923729 45.435233 7.3944875 43.293356 7.03125 41.28125 z M 53.0625 44.4375 C 53.043928 46.067245 53.091301 47.758492 53.1875 49.46875 L 52.75 49.46875 C 52.784157 48.265226 52.840824 47.074141 52.90625 46 C 52.920408 45.76755 52.953092 45.569043 52.96875 45.34375 C 52.998357 45.018884 53.030757 44.737543 53.0625 44.4375 z M 107.9375 44.4375 C 107.96924 44.737543 108.00164 45.018884 108.03125 45.34375 C 108.04691 45.569043 108.07959 45.76755 108.09375 46 C 108.10367 46.121416 108.11552 46.250711 108.125 46.375 C 108.17975 47.347671 108.21954 48.395549 108.25 49.46875 L 107.8125 49.46875 C 107.90869 47.758492 107.95607 46.067245 107.9375 44.4375 z "
       transform="matrix(0.8,0,0,-0.8,0,144)"
       id="path4092" /><path
       style="fill:#a55c2d;fill-opacity:1;stroke:none"
       d="m 51.385388,22.046866 c 0,-1.325484 -1.102794,-2.399999 -2.463158,-2.399999 -1.360366,0 -2.46316,1.074515 -2.46316,2.399999 0,1.325484 1.102794,2.400001 2.46316,2.400001 1.360364,0 2.463158,-1.074517 2.463158,-2.400001 z"
       id="path4649"
       inkscape:connector-curvature="0" /><path
       id="path4652"
       d="m 70.77699,33.959547 c 0,-0.883656 -0.735196,-1.599999 -1.642106,-1.599999 -0.90691,0 -1.642106,0.716343 -1.642106,1.599999 0,0.883656 0.735196,1.600001 1.642106,1.600001 0.90691,0 1.642106,-0.716345 1.642106,-1.600001 z"
       style="fill:#a55c2d;fill-opacity:1;stroke:none"
       inkscape:connector-curvature="0" /><path
       inkscape:connector-curvature="0"
       style="fill:#a55c2d;fill-opacity:1;stroke:none"
       d="m 30.789831,58.22921 c 0,-0.883656 -0.735196,-1.599999 -1.642106,-1.599999 -0.90691,0 -1.642106,0.716343 -1.642106,1.599999 0,0.883656 0.735196,1.600001 1.642106,1.600001 0.90691,0 1.642106,-0.716345 1.642106,-1.600001 z"
       id="path4654" /><path
       id="path4656"
       d="m 15.455237,83.005453 c 0,-1.546397 -1.286593,-2.799998 -2.873685,-2.799998 -1.587093,0 -2.8736858,1.253601 -2.8736858,2.799998 0,1.546399 1.2865928,2.800002 2.8736858,2.800002 1.587092,0 2.873685,-1.253603 2.873685,-2.800002 z"
       style="fill:#a55c2d;fill-opacity:1;stroke:none"
       inkscape:connector-curvature="0" /><path
       inkscape:connector-curvature="0"
       style="fill:#a55c2d;fill-opacity:1;stroke:none"
       d="m 51.074871,90.277363 c 0,-1.988226 -1.654191,-3.599998 -3.694738,-3.599998 -2.040548,0 -3.694739,1.611772 -3.694739,3.599998 0,1.988227 1.654191,3.600002 3.694739,3.600002 2.040547,0 3.694738,-1.611775 3.694738,-3.600002 z"
       id="path4658" /><path
       id="path4668"
       d="m 14.19604,39.720061 c 0,-1.767313 -1.470397,-3.2 -3.284217,-3.2 -1.8138207,0 -3.2842182,1.432687 -3.2842182,3.2 0,1.76731 1.4703975,3.2 3.2842182,3.2 1.81382,0 3.284217,-1.43269 3.284217,-3.2 z"
       style="fill:#a55c2d;fill-opacity:1;stroke:none"
       inkscape:connector-curvature="0" /><path
       inkscape:connector-curvature="0"
       style="fill:#a55c2d;fill-opacity:1;stroke:none"
       d="m 67.61343,10.703047 c 0,-2.2091421 -1.837997,-4.0000004 -4.105272,-4.0000004 -2.267275,0 -4.105272,1.7908583 -4.105272,4.0000004 0,2.209138 1.837997,4 4.105272,4 2.267275,0 4.105272,-1.790862 4.105272,-4 z"
       id="path4670" /><path
       id="path4676"
       d="m 52.820487,47.916531 c 0,-2.209143 -1.837993,-4.000001 -4.105267,-4.000001 -2.267275,0 -4.105272,1.790858 -4.105272,4.000001 0,2.209137 1.837997,3.999999 4.105272,3.999999 2.267274,0 4.105267,-1.790862 4.105267,-3.999999 z"
       style="fill:#a55c2d;fill-opacity:1;stroke:none"
       inkscape:connector-curvature="0" /><path
       inkscape:connector-curvature="0"
       id="path4682"
       d="m 36.281934,35.266128 c 0,-1.988226 -1.654191,-3.599999 -3.694738,-3.599999 -2.040548,0 -3.694739,1.611773 -3.694739,3.599999 0,1.988226 1.654191,3.600001 3.694739,3.600001 2.040547,0 3.694738,-1.611775 3.694738,-3.600001 z"
       style="fill:#a55c2d;fill-opacity:1;stroke:none" /><path
       id="path4684"
       d="m 99.279562,42.831458 c 0,-2.209142 -1.837997,-4 -4.105272,-4 -2.267275,0 -4.105272,1.790858 -4.105272,4 0,2.209138 1.837997,4 4.105272,4 2.267275,0 4.105272,-1.790862 4.105272,-4 z"
       style="fill:#a55c2d;fill-opacity:1;stroke:none"
       inkscape:connector-curvature="0" /><path
       style="fill:#a55c2d;fill-opacity:1;stroke:none"
       d="m 94.760265,71.323913 c 0,-1.988226 -1.654191,-3.599999 -3.694738,-3.599999 -2.040548,0 -3.694739,1.611773 -3.694739,3.599999 0,1.988226 1.654191,3.600001 3.694739,3.600001 2.040547,0 3.694738,-1.611775 3.694738,-3.600001 z"
       id="path4686"
       inkscape:connector-curvature="0" /><path
       inkscape:connector-curvature="0"
       style="fill:#a55c2d;fill-opacity:1;stroke:none"
       d="m 34.998608,69.999355 c 0,-1.767313 -1.470397,-3.2 -3.284217,-3.2 -1.81382,0 -3.284218,1.432687 -3.284218,3.2 0,1.76731 1.470398,3.2 3.284218,3.2 1.81382,0 3.284217,-1.43269 3.284217,-3.2 z"
       id="path4690" /><path
       id="path4692"
       d="m 79.146281,49.890206 c 0,-1.767313 -1.470397,-3.2 -3.284217,-3.2 -1.81382,0 -3.284218,1.432687 -3.284218,3.2 0,1.76731 1.470398,3.2 3.284218,3.2 1.81382,0 3.284217,-1.43269 3.284217,-3.2 z"
       style="fill:#a55c2d;fill-opacity:1;stroke:none"
       inkscape:connector-curvature="0" /><path
       inkscape:connector-curvature="0"
       style="fill:#a55c2d;fill-opacity:1;stroke:none"
       d="m 116.12862,61.678328 c 0,-1.767313 -1.47039,-3.2 -3.28421,-3.2 -1.81382,0 -3.28422,1.432687 -3.28422,3.2 0,1.76731 1.4704,3.2 3.28422,3.2 1.81382,0 3.28421,-1.43269 3.28421,-3.2 z"
       id="path4694" /><path
       id="path4696"
       d="m 83.53793,84.330013 c 0,-1.767313 -1.47039,-3.2 -3.28421,-3.2 -1.81382,0 -3.28422,1.432687 -3.28422,3.2 0,1.76731 1.4704,3.2 3.28422,3.2 1.81382,0 3.28421,-1.43269 3.28421,-3.2 z"
       style="fill:#a55c2d;fill-opacity:1;stroke:none"
       inkscape:connector-curvature="0" /><path
       id="path4698"
       d="m 98.976027,30.261313 c 0,-0.883656 -0.735196,-1.599999 -1.642106,-1.599999 -0.90691,0 -1.642106,0.716343 -1.642106,1.599999 0,0.883656 0.735196,1.600001 1.642106,1.600001 0.90691,0 1.642106,-0.716345 1.642106,-1.600001 z"
       style="fill:#a55c2d;fill-opacity:1;stroke:none"
       inkscape:connector-curvature="0" /><path
       inkscape:connector-curvature="0"
       style="fill:#a55c2d;fill-opacity:1;stroke:none"
       d="m 112.38213,47.827926 c 0,-0.883656 -0.7352,-1.599999 -1.64211,-1.599999 -0.90691,0 -1.64211,0.716343 -1.64211,1.599999 0,0.883656 0.7352,1.600001 1.64211,1.600001 0.90691,0 1.64211,-0.716345 1.64211,-1.600001 z"
       id="path4700" /><path
       id="path4702"
       d="m 73.781809,62.620863 c 0,-0.883656 -0.7352,-1.599999 -1.64211,-1.599999 -0.90691,0 -1.64211,0.716343 -1.64211,1.599999 0,0.883656 0.7352,1.600001 1.64211,1.600001 0.90691,0 1.64211,-0.716345 1.64211,-1.600001 z"
       style="fill:#a55c2d;fill-opacity:1;stroke:none"
       inkscape:connector-curvature="0" /><path
       inkscape:connector-curvature="0"
       style="fill:#a55c2d;fill-opacity:1;stroke:none"
       d="m 114.92467,75.795823 c 0,-0.883656 -0.7352,-1.599999 -1.64211,-1.599999 -0.90691,0 -1.64211,0.716343 -1.64211,1.599999 0,0.883656 0.7352,1.600001 1.64211,1.600001 0.90691,0 1.64211,-0.716345 1.64211,-1.600001 z"
       id="path4704" /><path
       id="path4706"
       d="m 94.353241,94.980414 c 0,-0.883656 -0.7352,-1.599999 -1.64211,-1.599999 -0.90691,0 -1.64211,0.716343 -1.64211,1.599999 0,0.883656 0.7352,1.600001 1.64211,1.600001 0.90691,0 1.64211,-0.716345 1.64211,-1.600001 z"
       style="fill:#a55c2d;fill-opacity:1;stroke:none"
       inkscape:connector-curvature="0" /><path
       inkscape:connector-curvature="0"
       style="fill:#a55c2d;fill-opacity:1;stroke:none"
       d="m 19.463995,95.442693 c 0,-0.883656 -0.7352,-1.599999 -1.64211,-1.599999 -0.90691,0 -1.64211,0.716343 -1.64211,1.599999 0,0.883656 0.7352,1.600001 1.64211,1.600001 0.90691,0 1.64211,-0.716345 1.64211,-1.600001 z"
       id="path4708" /><path
       id="path4710"
       d="m 53.672663,79.262918 c 0,-0.883656 -0.7352,-1.599999 -1.64211,-1.599999 -0.90691,0 -1.64211,0.716343 -1.64211,1.599999 0,0.883656 0.7352,1.600001 1.64211,1.600001 0.90691,0 1.64211,-0.716345 1.64211,-1.600001 z"
       style="fill:#a55c2d;fill-opacity:1;stroke:none"
       inkscape:connector-curvature="0" /><path
       inkscape:connector-curvature="0"
       style="fill:#a55c2d;fill-opacity:1;stroke:none"
       d="m 46.276194,36.039804 c 0,-0.883656 -0.7352,-1.599999 -1.64211,-1.599999 -0.90691,0 -1.64211,0.716343 -1.64211,1.599999 0,0.883656 0.7352,1.600001 1.64211,1.600001 0.90691,0 1.64211,-0.716345 1.64211,-1.600001 z"
       id="path4712" /><path
       id="path4714"
       d="m 15.303481,60.078327 c 0,-0.883656 -0.7352,-1.599999 -1.64211,-1.599999 -0.90691,0 -1.64211,0.716343 -1.64211,1.599999 0,0.883656 0.7352,1.600001 1.64211,1.600001 0.90691,0 1.64211,-0.716345 1.64211,-1.600001 z"
       style="fill:#a55c2d;fill-opacity:1;stroke:none"
       inkscape:connector-curvature="0" /><path
       inkscape:connector-curvature="0"
       id="path4716"
       d="m 82.58924,18.579771 c 0,-1.325484 -1.102794,-2.399999 -2.463158,-2.399999 -1.360366,0 -2.46316,1.074515 -2.46316,2.399999 0,1.325484 1.102794,2.400001 2.46316,2.400001 1.360364,0 2.463158,-1.074517 2.463158,-2.400001 z"
       style="fill:#a55c2d;fill-opacity:1;stroke:none" /></g></svg>