<?xml version="1.0" encoding="UTF-8" standalone="no"?>
<!-- Created with Inkscape (http://www.inkscape.org/) -->

<svg
   xmlns:dc="http://purl.org/dc/elements/1.1/"
   xmlns:cc="http://creativecommons.org/ns#"
   xmlns:rdf="http://www.w3.org/1999/02/22-rdf-syntax-ns#"
   xmlns:svg="http://www.w3.org/2000/svg"
   xmlns="http://www.w3.org/2000/svg"
   xmlns:sodipodi="http://sodipodi.sourceforge.net/DTD/sodipodi-0.dtd"
   xmlns:inkscape="http://www.inkscape.org/namespaces/inkscape"
   id="svg2"
   version="1.1"
   inkscape:version="0.48.5 r10040"
   width="156"
   height="180"
   xml:space="preserve"
   sodipodi:docname="health.svg"><metadata
     id="metadata8"><rdf:RDF><cc:Work
         rdf:about=""><dc:format>image/svg+xml</dc:format><dc:type
           rdf:resource="http://purl.org/dc/dcmitype/StillImage" /><dc:title></dc:title></cc:Work></rdf:RDF></metadata><defs
     id="defs6"><clipPath
   clipPathUnits="userSpaceOnUse"
   id="clipPath24"><path
     d="m 0,198.425 198.425,0 L 198.425,0 0,0 0,198.425 z"
     id="path26"
     inkscape:connector-curvature="0" /></clipPath>
		
	
			
			
		
				
				
			
				
				
			
	
		
	
</defs><sodipodi:namedview
     pagecolor="#ffffff"
     bordercolor="#666666"
     borderopacity="1"
     objecttolerance="10"
     gridtolerance="10"
     guidetolerance="10"
     inkscape:pageopacity="0"
     inkscape:pageshadow="2"
     inkscape:window-width="1600"
     inkscape:window-height="837"
     id="namedview4"
     showgrid="false"
     inkscape:zoom="3.7333333"
     inkscape:cx="67.6875"
     inkscape:cy="90"
     inkscape:window-x="-8"
     inkscape:window-y="-8"
     inkscape:window-maximized="1"
     inkscape:current-layer="g10"
     showguides="true"
     inkscape:guide-bbox="true" /><g
     id="g10"
     inkscape:groupmode="layer"
     inkscape:label="Codefor_Hex_sticker_ALL"
     transform="matrix(1.25,0,0,-1.25,0,180)"><g
       id="g3952"><path
         inkscape:connector-curvature="0"
         d="M 62.4,72 0,108 l 0,0 62.4,36 c 0,0 0.02874,-71.999977 0,-72 z"
         style="fill:#c64242;fill-opacity:1;fill-rule:nonzero;stroke:none"
         id="path3176"
         sodipodi:nodetypes="ccccc" /><path
         sodipodi:nodetypes="ccccc"
         id="path3178"
         style="fill:#c83737;fill-opacity:1;fill-rule:nonzero;stroke:none"
         d="m 62.399973,72 62.399997,36 0,0 -62.399997,36 c -0.300945,0 -0.298879,-71.999977 0,-72 z"
         inkscape:connector-curvature="0" /><path
         sodipodi:nodetypes="ccccc"
         id="path2988"
         style="fill:#c94f4f;fill-opacity:1;fill-rule:nonzero;stroke:none"
         d="M 62.4,0 0,36 0,36 62.4,72 c 0,0 0.02874,-71.999977240587 0,-72 z"
         inkscape:connector-curvature="0" /><path
         sodipodi:nodetypes="ccccc"
         id="path3180"
         style="fill:#c94747;fill-opacity:1;fill-rule:nonzero;stroke:none"
         d="M 62.376794,72.005095 C 42.644373,58.943991 22.551707,46.242983 0,36 l 0,0 0.02308996,71.97025 C 1.223723,109.17038 64.033024,73.67117 62.376794,72.005095 z"
         inkscape:connector-curvature="0" /><path
         inkscape:connector-curvature="0"
         d="M 62.423396,71.994906 C 82.155817,85.05601 102.24848,97.757018 124.80019,108 l 0,0 -0.0231,-71.970249 c -1.20063,-1.20013 -64.009934,34.29908 -62.353704,35.965155 z"
         style="fill:#c64242;fill-opacity:1;fill-rule:nonzero;stroke:none"
         id="path3182"
         sodipodi:nodetypes="ccccc" /><path
         inkscape:connector-curvature="0"
         d="m 62.399973,0 62.399997,36 0,0 -62.399997,36 c -1.498971,-1.124229 -0.7564,-72.5457219 0,-72 z"
         style="fill:#c94747;fill-opacity:1;fill-rule:nonzero;stroke:none"
         id="path3174"
         sodipodi:nodetypes="ccccc" /></g><path
       style="fill:#ffffff"
       d="m 54.475001,132.30172 c -4.935201,0 -9.050001,-3.8372 -9.050001,-8.65 0,-1.2144 0.2696,-2.2632 0.7,-3.4 0.2632,-0.6352 0.587601,-1.2776 0.950001,-1.9 0.1064,-0.1784 0.3654,-0.325 0.575,-0.325 l 7.05,0 c 0.208799,0 0.4448,0.1702 0.5,0.375 0.1712,0.6152 0.3472,1.4928 0.5,2.2 0.7336,3.3856 1.2746,5.825 3.025,5.825 1.699199,0 2.1146,-2.3742 3.024999,-7.575 0.248801,-1.424 0.5768,-3.3218 0.9,-4.625 0.0256,-0.1064 0.0762,-0.175 0.125,-0.175 0.0472,0 0.0842,0.0572 0.125,0.15 0.447201,1.0192 0.931601,2.3952 1.250001,3.3 1.126399,3.1864 1.654599,4.65 2.925,4.65 1.2864,0 1.849999,-1.4332 2.45,-2.95 0.132,-0.3328 0.328,-0.8142 0.5,-1.175 0.0888,-0.1896 0.3388,-0.325 0.55,-0.325 l 6.349999,0 c 0.2128,0 0.4654,0.1418 0.575,0.325 0.431201,0.724 0.841801,1.4762 1.125,2.225 0.430401,1.1368 0.75,2.188 0.75,3.4 0,4.8144 -4.1148,8.65 -9.049999,8.65 -3.1584,0 -6.1044,-1.5764 -7.75,-4.15 -0.0552,-0.0872 -0.128,-0.125 -0.200001,-0.125 -0.072,0 -0.144799,0.0378 -0.2,0.125 -1.6496,2.576 -4.5416,4.15 -7.7,4.15 z m 4.125,-9.575 c -0.0344,0 -0.0494,-0.0468 -0.075,-0.15 -0.2256,-0.84 -0.4286,-1.8078 -0.575,-2.475 -0.6328,-2.9088 -0.9672,-4.375 -2.3,-4.375 l -6.484616,0 c 0.02651,-0.065 -0.529861,-0.002 -0.529861,-0.002 0.182297,0.1018 1.908277,-2.40806 2.039477,-2.57286 3.2824,-4.0832 7.3472,-7.7762 11.4,-10.925 0.0848,-0.0648 0.1904,-0.1 0.3,-0.1 0.1104,0 0.2168,0.011 0.3,0.075 3.9752,3.064 7.9374,6.6714 11.175,10.625 0.1328,0.1632 2.082339,2.75154 2.266763,2.64862 0,0 -0.542087,-0.0197 -0.555623,-0.0736 l -5.71114,0 c -1.288,0 -1.8492,1.4332 -2.45,2.95 -0.0392,0.096 -0.0778,0.2114 -0.125,0.325 -0.0328,0.0808 -0.0802,0.125 -0.125,0.125 -0.0544,0 -0.1076,-0.0694 -0.15,-0.175 -0.2328,-0.6032 -0.4678,-1.2854 -0.675,-1.875 -1.3896,-3.9368 -2.203,-6 -3.775,-6 -1.66,0 -2.1206,2.2264 -3.075,7.7 -0.2168,1.2496 -0.4918,2.881 -0.775,4.125 -0.0216,0.104 -0.0656,0.15 -0.1,0.15 z"
       id="path3030"
       inkscape:connector-curvature="0"
       sodipodi:nodetypes="ssccssccsccsccsccssccsscscssccsccccsccccsccsccsccs" /><path
       sodipodi:nodetypes="ssccssccsccsccsccssccsscscssccsccccsccccsccsccsccs"
       inkscape:connector-curvature="0"
       id="path3112"
       d="m 70.325001,11.698285 c 4.9352,0 9.05,3.8372 9.05,8.65 0,1.2144 -0.2696,2.2632 -0.7,3.399999 -0.2632,0.635201 -0.5876,1.2776 -0.95,1.9 -0.1064,0.1784 -0.3654,0.325 -0.575,0.325 l -7.05,0 c -0.2088,0 -0.4448,-0.1702 -0.5,-0.375 -0.1712,-0.6152 -0.3472,-1.4928 -0.5,-2.2 -0.7336,-3.3856 -1.274601,-5.825 -3.025,-5.825 -1.699202,0 -2.114601,2.3742 -3.025002,7.575 -0.2488,1.424 -0.5768,3.3218 -0.9,4.625 -0.0256,0.1064 -0.0762,0.175 -0.125,0.175 -0.0472,0 -0.0842,-0.0572 -0.125,-0.15 -0.4472,-1.0192 -0.9316,-2.395199 -1.25,-3.3 -1.126399,-3.186399 -1.6546,-4.649999 -2.924999,-4.649999 -1.2864,0 -1.850001,1.433199 -2.450001,2.949999 -0.132,0.3328 -0.328,0.8142 -0.5,1.175001 -0.0888,0.189599 -0.3388,0.324999 -0.549999,0.324999 l -6.350001,0 c -0.2128,0 -0.4654,-0.1418 -0.575,-0.324999 -0.4312,-0.724 -0.8418,-1.4762 -1.125,-2.225001 -0.4304,-1.1368 -0.75,-2.187999 -0.75,-3.399999 0,-4.8144 4.1148,-8.65 9.05,-8.65 3.1584,0 6.1044,1.576399 7.75,4.15 0.0552,0.0872 0.128,0.125 0.2,0.125 0.072,0 0.1448,-0.0378 0.2,-0.125 1.649602,-2.576 4.541601,-4.15 7.700002,-4.15 z m -4.125,9.574999 c 0.0344,0 0.0494,0.0468 0.075,0.15 0.2256,0.84 0.4286,1.8078 0.575,2.475 0.6328,2.9088 0.9672,4.375 2.3,4.375 l 6.484616,0 c -0.02651,0.065 0.529861,0.002 0.529861,0.002 -0.182297,-0.1018 -1.908277,2.40806 -2.039477,2.57286 -3.2824,4.083203 -7.3472,7.776203 -11.4,10.925003 -0.0848,0.0648 -0.1904,0.1 -0.3,0.1 -0.1104,0 -0.2168,-0.011 -0.3,-0.075 -3.9752,-3.064 -7.9374,-6.6714 -11.175,-10.625003 -0.1328,-0.1632 -2.082338,-2.75154 -2.266763,-2.64862 0,0 0.542087,0.0197 0.555623,0.0736 l 5.71114,0 c 1.288,0 1.8492,-1.4332 2.45,-2.95 0.0392,-0.096 0.0778,-0.2114 0.125,-0.325 0.0328,-0.0808 0.0802,-0.125 0.125,-0.125 0.0544,0 0.1076,0.0694 0.15,0.175 0.2328,0.6032 0.4678,1.2854 0.675,1.875 1.3896,3.9368 2.203,6.000002 3.775,6.000002 1.66,0 2.1206,-2.226402 3.075,-7.700002 0.2168,-1.2496 0.4918,-2.881 0.775,-4.125 0.0216,-0.104 0.0656,-0.15 0.1,-0.15 z"
       style="fill:#b13737;fill-opacity:1" /><path
       sodipodi:nodetypes="ssccssccsccsccsccssccsscscssccsccccsccccsccsccsccs"
       inkscape:connector-curvature="0"
       id="path3136"
       d="m 110.66032,109.01411 c -2.4676,4.27401 -7.84812,5.91893 -12.016123,3.51253 -1.051701,-0.6072 -1.825188,-1.36508 -2.594486,-2.30622 -0.418499,-0.54554 -0.812634,-1.14768 -1.170448,-1.77272 -0.101299,-0.18135 -0.09876,-0.47895 0.006,-0.66047 l 3.525,-6.10548 c 0.1044,-0.18082 0.369798,-0.30011 0.57476,-0.24551 0.618378,0.15934 1.466405,0.44572 2.155255,0.66699 3.29882,1.05748 5.6819,1.80866 6.5571,0.29277 0.8496,-1.47155 -0.99882,-3.018397 -5.04764,-6.407225 -1.10882,-0.927468 -2.58837,-2.160424 -3.555372,-3.091923 -0.07935,-0.07537 -0.113454,-0.153491 -0.08905,-0.195753 0.0236,-0.04088 0.09164,-0.04432 0.192403,-0.03325 1.106253,0.122313 2.540103,0.39081 3.482883,0.567468 3.3227,0.61771 4.85432,0.892075 5.48952,-0.208125 0.6432,-1.114055 -0.31619,-2.318746 -1.32978,-3.596762 -0.22221,-0.280715 -0.54111,-0.691156 -0.76757,-1.020513 -0.1198,-0.171703 -0.11206,-0.455909 -0.006,-0.638813 l 3.175,-5.499261 c 0.1064,-0.18429 0.3555,-0.332148 0.56895,-0.335465 0.84261,-0.01143 1.69933,0.0091 2.48941,0.138222 1.1997,0.195662 2.26986,0.444481 3.31949,1.050481 4.16939,2.4072 5.43372,7.888521 2.96612,12.162529 -1.5792,2.735255 -4.4174,4.498365 -7.46901,4.636697 -0.10312,0.0042 -0.17225,0.04835 -0.20825,0.110707 -0.036,0.0623 -0.0397,0.1443 0.008,0.2357 1.40608,2.7166 1.32321,6.00814 -0.25599,8.7434 z m -6.2297,-8.35986 c -0.0172,0.0298 -0.0652,0.0194 -0.1674,-0.01 -0.84026,-0.22463 -1.7799,-0.53273 -2.43091,-0.73954 -2.835497,-0.906379 -4.272463,-1.34988 -4.938863,-0.195641 l -3.242308,5.615841 c -0.04304,-0.0555 -0.266663,0.45787 -0.266663,0.45787 0.17931,-0.10697 -1.131303,-2.85664 -1.208424,-3.05267 -1.894954,-4.884237 -3.060786,-10.250957 -3.761327,-15.335185 -0.01372,-0.105839 0.0086,-0.214891 0.0634,-0.309807 0.0552,-0.09561 0.117927,-0.182254 0.214952,-0.222308 4.641102,-1.910624 9.746302,-3.53829 14.789016,-4.365334 0.20774,-0.03341 3.42408,-0.427588 3.42716,-0.638764 0,0 -0.28811,0.459611 -0.34155,0.444384 l -2.85557,4.945992 c -0.644,1.115441 0.31658,2.318054 1.32977,3.596762 0.0635,0.08195 0.14418,0.173077 0.21896,0.270753 0.0536,0.06881 0.0682,0.131956 0.0458,0.170754 -0.0272,0.04711 -0.1139,0.05848 -0.22655,0.0424 -0.63879,-0.09999 -1.34709,-0.237573 -1.9613,-0.352933 -4.104168,-0.764971 -6.297651,-1.092146 -7.083651,0.269246 -0.83,1.437603 0.867819,2.949694 5.130891,6.513028 0.97379,0.812555 2.24912,1.866412 3.18486,2.733669 0.0793,0.0707 0.0971,0.13181 0.0799,0.1616 z"
       style="fill:#b13737;fill-opacity:1" /><path
       style="fill:#b13737;fill-opacity:1"
       d="m 14.139683,34.98589 c 2.4676,-4.274008 7.848113,-5.918929 12.01612,-3.512529 1.051701,0.6072 1.825188,1.36508 2.594486,2.306217 0.418499,0.545538 0.812634,1.147677 1.170448,1.772724 0.101299,0.181346 0.09876,0.478946 -0.006,0.660465 l -3.525,6.105479 c -0.1044,0.180826 -0.369798,0.300108 -0.57476,0.245513 -0.618379,-0.159337 -1.466403,-0.445716 -2.155256,-0.666988 -3.298815,-1.057483 -5.681898,-1.808663 -6.557098,-0.292773 -0.849601,1.471552 0.998817,3.018399 5.047642,6.407229 1.10882,0.927467 2.588363,2.160423 3.555367,3.091923 0.07935,0.07537 0.113455,0.153491 0.08906,0.195753 -0.0236,0.04088 -0.09164,0.04432 -0.192404,0.03325 -1.106253,-0.122313 -2.540104,-0.390811 -3.482884,-0.567468 -3.322703,-0.61771 -4.854318,-0.892075 -5.489518,0.208123 -0.6432,1.114055 0.316187,2.318748 1.329775,3.596763 0.222213,0.280716 0.541118,0.691157 0.76758,1.020513 0.119798,0.171703 0.112058,0.455909 0.0065,0.638813 l -3.175,5.499262 c -0.1064,0.184291 -0.355503,0.332149 -0.568958,0.335465 -0.842603,0.01143 -1.699327,-0.0091 -2.489407,-0.138221 C 11.30059,61.729743 10.230425,61.480925 9.1808017,60.874925 5.0114091,58.467725 3.747082,52.986403 6.214682,48.712395 c 1.5792,-2.735255 4.417402,-4.498366 7.469005,-4.636697 0.103118,-0.0042 0.172254,-0.04835 0.208254,-0.110705 0.036,-0.06235 0.03966,-0.144301 -0.0083,-0.235705 -1.40608,-2.716598 -1.323204,-6.008142 0.255996,-8.743398 z m 6.229693,8.359855 c 0.0172,-0.02979 0.06523,-0.01938 0.167404,0.01005 0.840261,0.224625 1.779901,0.532722 2.430913,0.739536 2.835495,0.906379 4.272461,1.34988 4.938861,0.195641 l 3.242308,-5.615842 c 0.04304,0.05546 0.266663,-0.457873 0.266663,-0.457873 -0.17931,0.106974 1.131302,2.856646 1.208423,3.052669 1.894958,4.884243 3.06079,10.250963 3.76133,15.335191 0.01372,0.105839 -0.0086,0.214891 -0.0634,0.309808 -0.0552,0.09561 -0.117926,0.182254 -0.214952,0.222307 -4.641102,1.910624 -9.746302,3.53829 -14.789023,4.365333 -0.207735,0.03341 -3.424072,0.427587 -3.427153,0.638764 0,0 0.288104,-0.459611 0.341551,-0.444384 l 2.85557,-4.945992 c 0.644,-1.115441 -0.316588,-2.318054 -1.329775,-3.596762 -0.06354,-0.08195 -0.144178,-0.173077 -0.218958,-0.270754 -0.05358,-0.0688 -0.06815,-0.131955 -0.04575,-0.170753 0.0272,-0.04711 0.113903,-0.05848 0.226555,-0.0424 0.638786,0.09999 1.347089,0.237573 1.961297,0.352932 4.104169,0.764971 6.297655,1.092147 7.083655,-0.269245 0.83,-1.437602 -0.867821,-2.949694 -5.130898,-6.513029 -0.973785,-0.812554 -2.249119,-1.866411 -3.184855,-2.733669 -0.07927,-0.07071 -0.0971,-0.131812 -0.0799,-0.161603 z"
       id="path3138"
       inkscape:connector-curvature="0"
       sodipodi:nodetypes="ssccssccsccsccsccssccsscscssccsccccsccccsccsccsccs" /><path
       sodipodi:nodetypes="ssccssccsccsccsccssccsscscssccsccccsccccsccsccsccs"
       inkscape:connector-curvature="0"
       id="path3142"
       d="m 6.2146834,95.287608 c -2.4676005,-4.27401 -1.2018878,-9.756131 2.9661192,-12.162531 1.0517014,-0.6072 2.0947884,-0.89812 3.2944864,-1.093782 0.681699,-0.08966 1.400235,-0.129923 2.120449,-0.127275 0.207699,0.0029 0.464158,0.153945 0.568958,0.335464 l 3.525,6.105479 c 0.104399,0.180825 0.075,0.470308 -0.07476,0.620513 -0.447178,0.455863 -1.119202,1.047084 -1.655255,1.533013 -2.565216,2.328116 -4.407298,4.016336 -3.532098,5.532226 0.849599,1.47155 3.113417,0.644198 8.072642,-1.167774 1.35762,-0.496532 3.165163,-1.161376 4.455367,-1.533077 0.104945,-0.03103 0.189654,-0.02151 0.214054,0.02075 0.0236,0.04088 -0.0074,0.10152 -0.0674,0.183254 -0.659053,0.896887 -1.608504,2.00439 -2.232884,2.732532 -2.196304,2.56869 -3.199718,3.757927 -2.564518,4.858127 0.6432,1.11405 2.166187,0.88554 3.779775,0.64676 0.354213,-0.0521 0.869118,-0.12304 1.26758,-0.15449 0.208598,-0.0179 0.450858,0.13091 0.556458,0.31382 l 3.175,5.49926 c 0.1064,0.18429 0.109897,0.47395 0.006,0.66046 -0.411401,0.73543 -0.857526,1.46712 -1.364406,2.08678 -0.769297,0.94114 -1.519864,1.74352 -2.569486,2.34952 -4.169393,2.4072 -9.54852,0.76148 -12.01612,-3.51253 -1.5792,-2.73525 -1.686997,-6.07477 -0.280994,-8.7867 0.04792,-0.0914 0.04425,-0.17335 0.0083,-0.235703 -0.036,-0.06235 -0.105135,-0.106499 -0.208253,-0.110705 C 10.603007,99.740407 7.7938829,98.022861 6.2146829,95.287607 z M 16.569377,94.072462 c -0.0172,-0.02979 0.01583,-0.06618 0.0924,-0.139952 0.614662,-0.615375 1.351301,-1.275078 1.855913,-1.735464 2.202695,-2.002421 3.305261,-3.02512 2.638861,-4.179359 l -3.242308,-5.615842 c 0.06955,-0.0095 -0.263198,-0.459873 -0.263198,-0.459873 0.003,0.208774 3.03958,0.448586 3.247901,0.479809 5.177354,0.801042 10.407986,2.474762 15.161327,4.41019 0.09852,0.04104 0.181803,0.114891 0.236603,0.209807 0.0552,0.09561 0.09887,0.193254 0.08505,0.297308 -0.665902,4.974624 -1.808902,10.20969 -3.61402,14.990334 -0.07494,0.19661 -1.341734,3.17913 -1.160391,3.28738 0,0 -0.253983,-0.47931 -0.214072,-0.51798 l -2.85557,-4.94599 c -0.644,-1.115443 -2.165788,-0.884856 -3.779775,-0.646764 -0.102738,0.01405 -0.221978,0.03832 -0.343958,0.05425 -0.08638,0.01199 -0.148353,-0.007 -0.170753,-0.04575 -0.0272,-0.04711 0.0063,-0.127884 0.07655,-0.217403 0.405987,-0.503211 0.879289,-1.047827 1.286298,-1.522067 2.714569,-3.171829 4.094652,-4.907854 3.308652,-6.269246 -0.83,-1.437603 -2.988419,-0.723294 -8.205895,1.186972 -1.190586,0.437045 -2.74092,1.014588 -3.959855,1.39133 -0.100867,0.03329 -0.162704,0.01819 -0.179904,-0.0116 z"
       style="fill:#b13737;fill-opacity:1" /><path
       style="fill:#b13737;fill-opacity:1"
       d="m 118.58532,48.712395 c 2.4676,4.274008 1.20189,9.756129 -2.96612,12.162529 -1.0517,0.6072 -2.09479,0.89812 -3.29449,1.093783 -0.6817,0.08966 -1.40023,0.129923 -2.12045,0.127276 -0.2077,-0.0029 -0.46415,-0.153946 -0.56895,-0.335465 l -3.525,-6.105479 c -0.1044,-0.180826 -0.075,-0.470308 0.0747,-0.620513 0.44718,-0.455863 1.11921,-1.047084 1.65526,-1.533012 2.56522,-2.328117 4.4073,-4.016337 3.5321,-5.532227 -0.8496,-1.471552 -3.11342,-0.644199 -8.07264,1.167771 -1.35762,0.496533 -3.16517,1.161377 -4.455372,1.533077 -0.104945,0.03103 -0.189655,0.02151 -0.214055,-0.02075 -0.0236,-0.04088 0.0074,-0.101519 0.0674,-0.183253 0.659053,-0.896887 1.608503,-2.004389 2.232883,-2.732532 2.1963,-2.56869 3.19972,-3.757925 2.56452,-4.858123 -0.6432,-1.114055 -2.16619,-0.885548 -3.779776,-0.646763 -0.354213,0.05208 -0.869118,0.123043 -1.26758,0.154487 -0.208598,0.0179 -0.450858,-0.130909 -0.556457,-0.313813 l -3.175001,-5.499262 c -0.1064,-0.184291 -0.109897,-0.473949 -0.006,-0.660465 0.411403,-0.73543 0.857527,-1.46712 1.364407,-2.086779 0.769298,-0.941137 1.519863,-1.743519 2.569486,-2.349519 4.169393,-2.4072 9.548523,-0.761478 12.016123,3.51253 1.5792,2.735255 1.68699,6.074766 0.28099,8.786697 -0.0479,0.09141 -0.0443,0.173351 -0.008,0.235705 0.036,0.06235 0.10513,0.106501 0.20825,0.110705 3.05568,0.140598 5.86481,1.858142 7.44401,4.593398 z m -10.3547,1.215145 c 0.0172,0.02979 -0.0158,0.06618 -0.0924,0.139952 -0.61466,0.615375 -1.3513,1.275078 -1.85591,1.735464 -2.2027,2.002421 -3.30526,3.02512 -2.63886,4.179359 l 3.2423,5.615842 c -0.0695,0.0095 0.2632,0.459873 0.2632,0.459873 -0.003,-0.208774 -3.03958,-0.448586 -3.2479,-0.479809 -5.177355,-0.80104 -10.407987,-2.47476 -15.161327,-4.410188 -0.09852,-0.04104 -0.181803,-0.114891 -0.236603,-0.209808 -0.0552,-0.09561 -0.09887,-0.193254 -0.08505,-0.297307 0.665902,-4.974624 1.808902,-10.20969 3.614023,-14.990336 0.07493,-0.196608 1.341734,-3.179127 1.16039,-3.287384 0,0 0.253983,0.479311 0.214072,0.517984 l 2.85557,4.945992 c 0.644,1.115441 2.165788,0.884854 3.779773,0.646762 0.10274,-0.01405 0.22198,-0.03832 0.34396,-0.05425 0.0864,-0.01199 0.14835,0.007 0.17075,0.04575 0.0272,0.04711 -0.006,0.127884 -0.0766,0.217403 -0.40599,0.503211 -0.87929,1.047827 -1.286298,1.522068 -2.714569,3.171829 -4.094655,4.907855 -3.308655,6.269247 0.83,1.437602 2.988421,0.723292 8.205893,-1.186973 1.19059,-0.437046 2.74092,-1.014589 3.95986,-1.391331 0.10087,-0.03329 0.1627,-0.01819 0.1799,0.0116 z"
       id="path3144"
       inkscape:connector-curvature="0"
       sodipodi:nodetypes="ssccssccsccsccsccssccsscscssccsccccsccccsccsccsccs" /></g></svg>