<?xml version="1.0" encoding="UTF-8" standalone="no"?>
<!-- Created with Inkscape (http://www.inkscape.org/) -->

<svg
   xmlns:dc="http://purl.org/dc/elements/1.1/"
   xmlns:cc="http://creativecommons.org/ns#"
   xmlns:rdf="http://www.w3.org/1999/02/22-rdf-syntax-ns#"
   xmlns:svg="http://www.w3.org/2000/svg"
   xmlns="http://www.w3.org/2000/svg"
   xmlns:xlink="http://www.w3.org/1999/xlink"
   xmlns:sodipodi="http://sodipodi.sourceforge.net/DTD/sodipodi-0.dtd"
   xmlns:inkscape="http://www.inkscape.org/namespaces/inkscape"
   id="svg2"
   version="1.1"
   inkscape:version="0.48.5 r10040"
   width="156"
   height="180"
   xml:space="preserve"
   sodipodi:docname="house.svg"><metadata
     id="metadata8"><rdf:RDF><cc:Work
         rdf:about=""><dc:format>image/svg+xml</dc:format><dc:type
           rdf:resource="http://purl.org/dc/dcmitype/StillImage" /><dc:title></dc:title></cc:Work></rdf:RDF></metadata><defs
     id="defs6"><clipPath
   clipPathUnits="userSpaceOnUse"
   id="clipPath24"><path
     d="m 0,198.425 198.425,0 L 198.425,0 0,0 0,198.425 z"
     id="path26"
     inkscape:connector-curvature="0" /></clipPath>
		
	
			
			
		
				
				
			
				
				
			
	
		
	

	<defs
   id="defs3922">
		<rect
   y="0"
   x="0"
   id="SVGID_1_"
   width="183.19501"
   height="192.614" />
	</defs>
	<clipPath
   id="SVGID_2_">
		<use
   height="1"
   width="1"
   y="0"
   x="0"
   style="overflow:visible"
   xlink:href="#SVGID_1_"
   overflow="visible"
   id="use3926" />
	</clipPath>
	
	
	
	
	
	
	
	
	
	
	
	
	
	
	

		<defs
   id="defs5429">
			<rect
   y="0"
   x="0"
   id="rect5431"
   width="183.19501"
   height="192.614" />
		</defs>
		<clipPath
   id="clipPath5433">
			<rect
   height="192.614"
   width="183.19501"
   id="use5435"
   x="0"
   y="0" />
		</clipPath>
		
		
		
		
		
		
		
		
		
		
		
		
		
		
		
		
		
		
		
		
		
		
		
		
	
			
		
			
		
			
		
			
		
			
		
			
		
			
		
			
		
				<defs
   id="defs5581">
					<rect
   id="rect5583"
   x="137.911"
   y="139.34399"
   width="12.212"
   height="12.206" />
				</defs>
				<clipPath
   id="clipPath5585">
					<rect
   height="12.206"
   width="12.212"
   y="139.34399"
   x="137.911"
   id="use5587" />
				</clipPath>
				
			
				<defs
   id="defs5651">
					<rect
   id="rect5653"
   x="137.911"
   y="154.912"
   width="12.212"
   height="12.212" />
				</defs>
				<clipPath
   id="clipPath5655">
					<rect
   height="12.212"
   width="12.212"
   y="154.912"
   x="137.911"
   id="use5657" />
				</clipPath>
				
			
				<defs
   id="defs5637">
					<rect
   id="rect5639"
   x="122.841"
   y="154.912"
   width="12.214"
   height="12.212" />
				</defs>
				<clipPath
   id="clipPath5641">
					<rect
   height="12.212"
   width="12.214"
   y="154.912"
   x="122.841"
   id="use5643" />
				</clipPath>
				
			
				<defs
   id="defs5623">
					<rect
   id="rect5625"
   x="137.911"
   y="139.34399"
   width="12.212"
   height="12.206" />
				</defs>
				<clipPath
   id="clipPath5627">
					<rect
   height="12.206"
   width="12.212"
   y="139.34399"
   x="137.911"
   id="use5629" />
				</clipPath>
				
			
				<defs
   id="defs5609">
					<rect
   id="rect5611"
   x="122.841"
   y="139.34399"
   width="12.214"
   height="12.206" />
				</defs>
				<clipPath
   id="clipPath5613">
					<rect
   height="12.206"
   width="12.214"
   y="139.34399"
   x="122.841"
   id="use5615" />
				</clipPath>
				
			
				<defs
   id="defs5595">
					<rect
   id="rect5597"
   x="137.911"
   y="154.912"
   width="12.212"
   height="12.212" />
				</defs>
				<clipPath
   id="clipPath5599">
					<rect
   height="12.212"
   width="12.212"
   y="154.912"
   x="137.911"
   id="use5601" />
				</clipPath>
				
			
				<defs
   id="defs5567">
					<rect
   id="rect5569"
   x="122.841"
   y="154.912"
   width="12.214"
   height="12.212" />
				</defs>
				<clipPath
   id="clipPath5571">
					<rect
   height="12.212"
   width="12.214"
   y="154.912"
   x="122.841"
   id="use5573" />
				</clipPath>
				
			
				<defs
   id="defs5553">
					<rect
   id="rect5555"
   x="122.841"
   y="139.34399"
   width="12.214"
   height="12.206" />
				</defs>
				<clipPath
   id="clipPath5557">
					<rect
   height="12.206"
   width="12.214"
   y="139.34399"
   x="122.841"
   id="use5559" />
				</clipPath>
				
			</defs><sodipodi:namedview
     pagecolor="#ffffff"
     bordercolor="#666666"
     borderopacity="1"
     objecttolerance="10"
     gridtolerance="10"
     guidetolerance="10"
     inkscape:pageopacity="0"
     inkscape:pageshadow="2"
     inkscape:window-width="1600"
     inkscape:window-height="837"
     id="namedview4"
     showgrid="false"
     inkscape:zoom="3.7332461"
     inkscape:cx="128.09046"
     inkscape:cy="89.997897"
     inkscape:window-x="-8"
     inkscape:window-y="-8"
     inkscape:window-maximized="1"
     inkscape:current-layer="g7044"
     showguides="true"
     inkscape:guide-bbox="true" /><g
     id="g10"
     inkscape:groupmode="layer"
     inkscape:label="Codefor_Hex_sticker_ALL"
     transform="matrix(1.25,0,0,-1.25,0,180)"><path
       style="fill:#c9d4d4;fill-opacity:1;fill-rule:nonzero;stroke:none"
       d="M 62.4,144 0,108.00084 0.025,107.97584 0,36.002524 62.375,0.02836343 C 62.3868,0.00229204 62.38818,-0.00516379 62.4,0.00336401 l 62.4,35.99915999 -0.025,0.025 L 124.8,108.00084 62.4,144 z"
       id="path3176"
       inkscape:connector-curvature="0" /><path
       style="fill:#999999;fill-opacity:1;fill-rule:nonzero;stroke:none"
       d="M 0.03125 44.96875 L 0 45 L 0.03125 45.03125 L 0.03125 44.96875 z M 0 125 L 0 135 L 59.28125 169.1875 L 59.28125 159.1875 L 0 125 z M 155.96875 125.03125 L 96.71875 159.21875 L 96.71875 169.1875 L 156 135 L 155.96875 134.96875 L 155.96875 125.03125 z "
       transform="matrix(0.8,0,0,-0.8,0,144)"
       id="path6580" /><path
       style="fill:#4d4d4d;fill-opacity:1;fill-rule:nonzero;stroke:none"
       d="M 0.03125 44.96875 L 0 45 L 0.03125 45.03125 L 0.03125 44.96875 z M 0 131 L 0 135 L 59.28125 169.1875 L 59.28125 165.1875 L 0 131 z M 155.96875 131.03125 L 96.71875 165.21875 L 96.71875 169.1875 L 156 135 L 155.96875 134.96875 L 155.96875 131.03125 z "
       transform="matrix(0.8,0,0,-0.8,0,144)"
       id="path6575" /><path
       style="fill:#a02c2c;stroke:none"
       clip-path="url(#SVGID_2_)"
       d="M 61.5625 122.625 L 61.5625 170.5 L 77.96875 179.96875 C 77.9835 180.00134 77.985225 180.01066 78 180 L 94.4375 170.53125 L 94.4375 122.625 L 61.5625 122.625 z "
       transform="matrix(0.8,0,0,-0.8,0,144)"
       id="rect4655" /><path
       id="path6594"
       d="m 62.4,139.2 -62.4,-36 0.025,-0.025 0,-15.975 62.375,36 62.4,-36 0,16 -62.4,36 z"
       style="fill:#000000;fill-opacity:0.15686275;fill-rule:nonzero;stroke:none"
       inkscape:connector-curvature="0" /><path
       style="fill:#a02c2c;fill-opacity:1;fill-rule:nonzero;stroke:none"
       d="M 78 0 L 0 45 L 0.03125 45.03125 L 0.03125 65 L 78 20 L 156 65 L 156 45 L 78 0 z "
       transform="matrix(0.8,0,0,-0.8,0,144)"
       id="path6589" /><g
       id="g7091"
       transform="translate(0,1.3750979e-6)"><g
         transform="translate(0,0.00119839)"
         id="g6740"><rect
           style="fill:#91b7ff;fill-opacity:1;stroke:none"
           x="122.841"
           y="139.345"
           clip-path="url(#SVGID_22_)"
           width="12.214"
           height="12.205"
           id="rect5561"
           transform="matrix(0.61487196,0,0,-0.61487196,3.8918875,131.57752)" /><rect
           style="fill:#91b7ff;fill-opacity:1;stroke:none"
           x="122.841"
           y="154.912"
           clip-path="url(#SVGID_24_)"
           width="12.214"
           height="12.212"
           id="rect5575"
           transform="matrix(0.61487196,0,0,-0.61487196,3.8918875,131.57752)" /><rect
           style="fill:#91b7ff;fill-opacity:1;stroke:none"
           x="137.911"
           y="139.345"
           clip-path="url(#SVGID_26_)"
           width="12.212"
           height="12.205"
           id="rect5589"
           transform="matrix(0.61487196,0,0,-0.61487196,3.8918875,131.57752)" /><rect
           style="fill:#91b7ff;fill-opacity:1;stroke:none"
           x="137.911"
           y="154.912"
           clip-path="url(#SVGID_28_)"
           width="12.212"
           height="12.212"
           id="rect5603"
           transform="matrix(0.61487196,0,0,-0.61487196,3.8918875,131.57752)" /><polygon
           style="fill:#5594ff;fill-opacity:1;stroke:none"
           clip-path="url(#SVGID_30_)"
           points="122.841,151.55 135.056,151.55 135.056,139.344 "
           id="polygon5617"
           transform="matrix(0.61487196,0,0,-0.61487196,3.8918875,131.57752)" /><polygon
           style="fill:#5594ff;fill-opacity:1;stroke:none"
           clip-path="url(#SVGID_32_)"
           points="137.911,151.55 150.123,151.55 150.123,139.344 "
           id="polygon5631"
           transform="matrix(0.61487196,0,0,-0.61487196,3.8918875,131.57752)" /><polygon
           style="fill:#5594ff;fill-opacity:1;stroke:none"
           clip-path="url(#SVGID_34_)"
           points="122.841,167.124 135.056,167.124 135.056,154.912 "
           id="polygon5645"
           transform="matrix(0.61487196,0,0,-0.61487196,3.8918875,131.57752)" /><polygon
           style="fill:#5594ff;fill-opacity:1;stroke:none"
           clip-path="url(#SVGID_36_)"
           points="137.911,167.124 150.123,167.124 150.123,154.912 "
           id="polygon5659"
           transform="matrix(0.61487196,0,0,-0.61487196,3.8918875,131.57752)" /></g><g
         transform="translate(-51.006507,0.00119839)"
         id="g6750"><rect
           transform="matrix(0.61487196,0,0,-0.61487196,3.8918875,131.57752)"
           id="rect6752"
           height="12.205"
           width="12.214"
           clip-path="url(#SVGID_22_)"
           y="139.345"
           x="122.841"
           style="fill:#91b7ff;fill-opacity:1;stroke:none" /><rect
           transform="matrix(0.61487196,0,0,-0.61487196,3.8918875,131.57752)"
           id="rect6754"
           height="12.212"
           width="12.214"
           clip-path="url(#SVGID_24_)"
           y="154.912"
           x="122.841"
           style="fill:#91b7ff;fill-opacity:1;stroke:none" /><rect
           transform="matrix(0.61487196,0,0,-0.61487196,3.8918875,131.57752)"
           id="rect6756"
           height="12.205"
           width="12.212"
           clip-path="url(#SVGID_26_)"
           y="139.345"
           x="137.911"
           style="fill:#91b7ff;fill-opacity:1;stroke:none" /><rect
           transform="matrix(0.61487196,0,0,-0.61487196,3.8918875,131.57752)"
           id="rect6758"
           height="12.212"
           width="12.212"
           clip-path="url(#SVGID_28_)"
           y="154.912"
           x="137.911"
           style="fill:#91b7ff;fill-opacity:1;stroke:none" /><polygon
           transform="matrix(0.61487196,0,0,-0.61487196,3.8918875,131.57752)"
           id="polygon6760"
           points="135.056,139.344 122.841,151.55 135.056,151.55 "
           clip-path="url(#SVGID_30_)"
           style="fill:#5594ff;fill-opacity:1;stroke:none" /><polygon
           transform="matrix(0.61487196,0,0,-0.61487196,3.8918875,131.57752)"
           id="polygon6762"
           points="150.123,139.344 137.911,151.55 150.123,151.55 "
           clip-path="url(#SVGID_32_)"
           style="fill:#5594ff;fill-opacity:1;stroke:none" /><polygon
           transform="matrix(0.61487196,0,0,-0.61487196,3.8918875,131.57752)"
           id="polygon6764"
           points="135.056,154.912 122.841,167.124 135.056,167.124 "
           clip-path="url(#SVGID_34_)"
           style="fill:#5594ff;fill-opacity:1;stroke:none" /><polygon
           transform="matrix(0.61487196,0,0,-0.61487196,3.8918875,131.57752)"
           id="polygon6766"
           points="150.123,154.912 137.911,167.124 150.123,167.124 "
           clip-path="url(#SVGID_36_)"
           style="fill:#5594ff;fill-opacity:1;stroke:none" /></g></g><g
       transform="translate(-51.006506,32.001198)"
       id="g6786" /><g
       id="g7062"
       transform="translate(0,-2.5808961)"><g
         transform="translate(-25.503257,1.9617888)"
         id="g6942"><rect
           style="fill:none;stroke:#91b7ff;stroke-width:1.30108392;stroke-miterlimit:4;stroke-opacity:1;stroke-dasharray:none"
           x="122.841"
           y="139.345"
           clip-path="url(#SVGID_22_)"
           width="12.214"
           height="12.205"
           id="rect6806"
           transform="matrix(0.61487196,0,0,-0.61487196,-21.611363,163.57872)" /><rect
           style="fill:none;stroke:#91b7ff;stroke-width:1.30108392;stroke-miterlimit:4;stroke-opacity:1;stroke-dasharray:none"
           x="122.841"
           y="154.912"
           clip-path="url(#SVGID_24_)"
           width="12.214"
           height="12.212"
           id="rect6808"
           transform="matrix(0.61487196,0,0,-0.61487196,-21.611363,163.57872)" /><rect
           style="fill:none;stroke:#91b7ff;stroke-width:1.30108392;stroke-miterlimit:4;stroke-opacity:1;stroke-dasharray:none"
           x="137.911"
           y="139.345"
           clip-path="url(#SVGID_26_)"
           width="12.212"
           height="12.205"
           id="rect6810"
           transform="matrix(0.61487196,0,0,-0.61487196,-21.611363,163.57872)" /><rect
           style="fill:none;stroke:#91b7ff;stroke-width:1.30108392;stroke-miterlimit:4;stroke-opacity:1;stroke-dasharray:none"
           x="137.911"
           y="154.912"
           clip-path="url(#SVGID_28_)"
           width="12.212"
           height="12.212"
           id="rect6812"
           transform="matrix(0.61487196,0,0,-0.61487196,-21.611363,163.57872)" /><polygon
           style="fill:none;stroke:#91b7ff;stroke-width:1.30108392;stroke-miterlimit:4;stroke-opacity:1;stroke-dasharray:none"
           clip-path="url(#SVGID_30_)"
           points="135.056,139.344 122.841,151.55 135.056,151.55 "
           id="polygon6814"
           transform="matrix(0.61487196,0,0,-0.61487196,-21.611363,163.57872)" /><polygon
           style="fill:none;stroke:#91b7ff;stroke-width:1.30108392;stroke-miterlimit:4;stroke-opacity:1;stroke-dasharray:none"
           clip-path="url(#SVGID_32_)"
           points="150.123,139.344 137.911,151.55 150.123,151.55 "
           id="polygon6816"
           transform="matrix(0.61487196,0,0,-0.61487196,-21.611363,163.57872)" /><polygon
           style="fill:none;stroke:#91b7ff;stroke-width:1.30108392;stroke-miterlimit:4;stroke-opacity:1;stroke-dasharray:none"
           clip-path="url(#SVGID_34_)"
           points="135.056,154.912 122.841,167.124 135.056,167.124 "
           id="polygon6818"
           transform="matrix(0.61487196,0,0,-0.61487196,-21.611363,163.57872)" /><polygon
           style="fill:none;stroke:#91b7ff;stroke-width:1.30108392;stroke-miterlimit:4;stroke-opacity:1;stroke-dasharray:none"
           clip-path="url(#SVGID_36_)"
           points="150.123,154.912 137.911,167.124 150.123,167.124 "
           id="polygon6820"
           transform="matrix(0.61487196,0,0,-0.61487196,-21.611363,163.57872)" /></g><g
         id="g6952"
         transform="translate(25.503251,1.9617888)"><rect
           transform="matrix(0.61487196,0,0,-0.61487196,-21.611363,163.57872)"
           id="rect6954"
           height="12.205"
           width="12.214"
           clip-path="url(#SVGID_22_)"
           y="139.345"
           x="122.841"
           style="fill:none;stroke:#91b7ff;stroke-width:1.30108392;stroke-miterlimit:4;stroke-opacity:1;stroke-dasharray:none" /><rect
           transform="matrix(0.61487196,0,0,-0.61487196,-21.611363,163.57872)"
           id="rect6956"
           height="12.212"
           width="12.214"
           clip-path="url(#SVGID_24_)"
           y="154.912"
           x="122.841"
           style="fill:none;stroke:#91b7ff;stroke-width:1.30108392;stroke-miterlimit:4;stroke-opacity:1;stroke-dasharray:none" /><rect
           transform="matrix(0.61487196,0,0,-0.61487196,-21.611363,163.57872)"
           id="rect6958"
           height="12.205"
           width="12.212"
           clip-path="url(#SVGID_26_)"
           y="139.345"
           x="137.911"
           style="fill:none;stroke:#91b7ff;stroke-width:1.30108392;stroke-miterlimit:4;stroke-opacity:1;stroke-dasharray:none" /><rect
           transform="matrix(0.61487196,0,0,-0.61487196,-21.611363,163.57872)"
           id="rect6960"
           height="12.212"
           width="12.212"
           clip-path="url(#SVGID_28_)"
           y="154.912"
           x="137.911"
           style="fill:none;stroke:#91b7ff;stroke-width:1.30108392;stroke-miterlimit:4;stroke-opacity:1;stroke-dasharray:none" /><polygon
           transform="matrix(0.61487196,0,0,-0.61487196,-21.611363,163.57872)"
           id="polygon6962"
           points="135.056,139.344 122.841,151.55 135.056,151.55 "
           clip-path="url(#SVGID_30_)"
           style="fill:none;stroke:#91b7ff;stroke-width:1.30108392;stroke-miterlimit:4;stroke-opacity:1;stroke-dasharray:none" /><polygon
           transform="matrix(0.61487196,0,0,-0.61487196,-21.611363,163.57872)"
           id="polygon6964"
           points="150.123,139.344 137.911,151.55 150.123,151.55 "
           clip-path="url(#SVGID_32_)"
           style="fill:none;stroke:#91b7ff;stroke-width:1.30108392;stroke-miterlimit:4;stroke-opacity:1;stroke-dasharray:none" /><polygon
           transform="matrix(0.61487196,0,0,-0.61487196,-21.611363,163.57872)"
           id="polygon6966"
           points="135.056,154.912 122.841,167.124 135.056,167.124 "
           clip-path="url(#SVGID_34_)"
           style="fill:none;stroke:#91b7ff;stroke-width:1.30108392;stroke-miterlimit:4;stroke-opacity:1;stroke-dasharray:none" /><polygon
           transform="matrix(0.61487196,0,0,-0.61487196,-21.611363,163.57872)"
           id="polygon6968"
           points="150.123,154.912 137.911,167.124 150.123,167.124 "
           clip-path="url(#SVGID_36_)"
           style="fill:none;stroke:#91b7ff;stroke-width:1.30108392;stroke-miterlimit:4;stroke-opacity:1;stroke-dasharray:none" /></g><g
         transform="translate(1.0462879,1.9617888)"
         id="g6970"><rect
           style="fill:none;stroke:#91b7ff;stroke-width:1.30108392;stroke-miterlimit:4;stroke-opacity:1;stroke-dasharray:none"
           x="122.841"
           y="139.345"
           clip-path="url(#SVGID_22_)"
           width="12.214"
           height="12.205"
           id="rect6972"
           transform="matrix(0.61487196,0,0,-0.61487196,-21.611363,163.57872)" /><rect
           style="fill:none;stroke:#91b7ff;stroke-width:1.30108392;stroke-miterlimit:4;stroke-opacity:1;stroke-dasharray:none"
           x="122.841"
           y="154.912"
           clip-path="url(#SVGID_24_)"
           width="12.214"
           height="12.212"
           id="rect6974"
           transform="matrix(0.61487196,0,0,-0.61487196,-21.611363,163.57872)" /><rect
           style="fill:none;stroke:#91b7ff;stroke-width:1.30108392;stroke-miterlimit:4;stroke-opacity:1;stroke-dasharray:none"
           x="137.911"
           y="139.345"
           clip-path="url(#SVGID_26_)"
           width="12.212"
           height="12.205"
           id="rect6976"
           transform="matrix(0.61487196,0,0,-0.61487196,-21.611363,163.57872)" /><rect
           style="fill:none;stroke:#91b7ff;stroke-width:1.30108392;stroke-miterlimit:4;stroke-opacity:1;stroke-dasharray:none"
           x="137.911"
           y="154.912"
           clip-path="url(#SVGID_28_)"
           width="12.212"
           height="12.212"
           id="rect6978"
           transform="matrix(0.61487196,0,0,-0.61487196,-21.611363,163.57872)" /><polygon
           style="fill:none;stroke:#91b7ff;stroke-width:1.30108392;stroke-miterlimit:4;stroke-opacity:1;stroke-dasharray:none"
           clip-path="url(#SVGID_30_)"
           points="122.841,151.55 135.056,151.55 135.056,139.344 "
           id="polygon6980"
           transform="matrix(0.61487196,0,0,-0.61487196,-21.611363,163.57872)" /><polygon
           style="fill:none;stroke:#91b7ff;stroke-width:1.30108392;stroke-miterlimit:4;stroke-opacity:1;stroke-dasharray:none"
           clip-path="url(#SVGID_32_)"
           points="137.911,151.55 150.123,151.55 150.123,139.344 "
           id="polygon6982"
           transform="matrix(0.61487196,0,0,-0.61487196,-21.611363,163.57872)" /><polygon
           style="fill:none;stroke:#91b7ff;stroke-width:1.30108392;stroke-miterlimit:4;stroke-opacity:1;stroke-dasharray:none"
           clip-path="url(#SVGID_34_)"
           points="122.841,167.124 135.056,167.124 135.056,154.912 "
           id="polygon6984"
           transform="matrix(0.61487196,0,0,-0.61487196,-21.611363,163.57872)" /><polygon
           style="fill:none;stroke:#91b7ff;stroke-width:1.30108392;stroke-miterlimit:4;stroke-opacity:1;stroke-dasharray:none"
           clip-path="url(#SVGID_36_)"
           points="137.911,167.124 150.123,167.124 150.123,154.912 "
           id="polygon6986"
           transform="matrix(0.61487196,0,0,-0.61487196,-21.611363,163.57872)" /></g></g><g
       transform="translate(1.0462879,30.761789)"
       id="g7044"><rect
         style="fill:none;stroke:#91b7ff;stroke-width:1.30108392;stroke-miterlimit:4;stroke-opacity:1;stroke-dasharray:none"
         x="122.841"
         y="139.345"
         clip-path="url(#SVGID_22_)"
         width="12.214"
         height="12.205"
         id="rect7046"
         transform="matrix(0.61487196,0,0,-0.61487196,-21.611363,163.57872)" /><rect
         style="fill:none;stroke:#91b7ff;stroke-width:1.30108392;stroke-miterlimit:4;stroke-opacity:1;stroke-dasharray:none"
         x="122.841"
         y="154.912"
         clip-path="url(#SVGID_24_)"
         width="12.214"
         height="12.212"
         id="rect7048"
         transform="matrix(0.61487196,0,0,-0.61487196,-21.611363,163.57872)" /><rect
         style="fill:none;stroke:#91b7ff;stroke-width:1.30108392;stroke-miterlimit:4;stroke-opacity:1;stroke-dasharray:none"
         x="137.911"
         y="139.345"
         clip-path="url(#SVGID_26_)"
         width="12.212"
         height="12.205"
         id="rect7050"
         transform="matrix(0.61487196,0,0,-0.61487196,-21.611363,163.57872)" /><rect
         style="fill:none;stroke:#91b7ff;stroke-width:1.30108392;stroke-miterlimit:4;stroke-opacity:1;stroke-dasharray:none"
         x="137.911"
         y="154.912"
         clip-path="url(#SVGID_28_)"
         width="12.212"
         height="12.212"
         id="rect7052"
         transform="matrix(0.61487196,0,0,-0.61487196,-21.611363,163.57872)" /><polygon
         style="fill:none;stroke:#91b7ff;stroke-width:1.30108392;stroke-miterlimit:4;stroke-opacity:1;stroke-dasharray:none"
         clip-path="url(#SVGID_30_)"
         points="122.841,151.55 135.056,151.55 135.056,139.344 "
         id="polygon7054"
         transform="matrix(0.61487196,0,0,-0.61487196,-21.611363,163.57872)" /><polygon
         style="fill:none;stroke:#91b7ff;stroke-width:1.30108392;stroke-miterlimit:4;stroke-opacity:1;stroke-dasharray:none"
         clip-path="url(#SVGID_32_)"
         points="137.911,151.55 150.123,151.55 150.123,139.344 "
         id="polygon7056"
         transform="matrix(0.61487196,0,0,-0.61487196,-21.611363,163.57872)" /><polygon
         style="fill:none;stroke:#91b7ff;stroke-width:1.30108392;stroke-miterlimit:4;stroke-opacity:1;stroke-dasharray:none"
         clip-path="url(#SVGID_34_)"
         points="122.841,167.124 135.056,167.124 135.056,154.912 "
         id="polygon7058"
         transform="matrix(0.61487196,0,0,-0.61487196,-21.611363,163.57872)" /><polygon
         style="fill:none;stroke:#91b7ff;stroke-width:1.30108392;stroke-miterlimit:4;stroke-opacity:1;stroke-dasharray:none"
         clip-path="url(#SVGID_36_)"
         points="137.911,167.124 150.123,167.124 150.123,154.912 "
         id="polygon7060"
         transform="matrix(0.61487196,0,0,-0.61487196,-21.611363,163.57872)" /></g></g></svg>