<?xml version="1.0" encoding="UTF-8" standalone="no"?>
<!-- Created with Inkscape (http://www.inkscape.org/) -->

<svg
   xmlns:dc="http://purl.org/dc/elements/1.1/"
   xmlns:cc="http://creativecommons.org/ns#"
   xmlns:rdf="http://www.w3.org/1999/02/22-rdf-syntax-ns#"
   xmlns:svg="http://www.w3.org/2000/svg"
   xmlns="http://www.w3.org/2000/svg"
   xmlns:xlink="http://www.w3.org/1999/xlink"
   xmlns:sodipodi="http://sodipodi.sourceforge.net/DTD/sodipodi-0.dtd"
   xmlns:inkscape="http://www.inkscape.org/namespaces/inkscape"
   id="svg2"
   version="1.1"
   inkscape:version="0.48.5 r10040"
   width="156"
   height="180"
   xml:space="preserve"
   sodipodi:docname="house.svg"><metadata
     id="metadata8"><rdf:RDF><cc:Work
         rdf:about=""><dc:format>image/svg+xml</dc:format><dc:type
           rdf:resource="http://purl.org/dc/dcmitype/StillImage" /><dc:title /></cc:Work></rdf:RDF></metadata><defs
     id="defs6"><clipPath
       clipPathUnits="userSpaceOnUse"
       id="clipPath24"><path
         d="m 0,198.425 198.425,0 L 198.425,0 0,0 0,198.425 z"
         id="path26"
         inkscape:connector-curvature="0" /></clipPath><defs
       id="defs3922"><rect
         y="0"
         x="0"
         id="SVGID_1_"
         width="183.19501"
         height="192.614" /></defs><clipPath
       id="SVGID_2_"><use
         height="1"
         width="1"
         y="0"
         x="0"
         style="overflow:visible"
         xlink:href="#SVGID_1_"
         overflow="visible"
         id="use3926" /></clipPath><defs
       id="defs5429"><rect
         y="0"
         x="0"
         id="rect5431"
         width="183.19501"
         height="192.614" /></defs><clipPath
       id="clipPath5433"><rect
         height="192.614"
         width="183.19501"
         id="use5435"
         x="0"
         y="0" /></clipPath><defs
       id="defs5581"><rect
         id="rect5583"
         x="137.911"
         y="139.34399"
         width="12.212"
         height="12.206" /></defs><clipPath
       id="clipPath5585"><rect
         height="12.206"
         width="12.212"
         y="139.34399"
         x="137.911"
         id="use5587" /></clipPath><defs
       id="defs5651"><rect
         id="rect5653"
         x="137.911"
         y="154.912"
         width="12.212"
         height="12.212" /></defs><clipPath
       id="clipPath5655"><rect
         height="12.212"
         width="12.212"
         y="154.912"
         x="137.911"
         id="use5657" /></clipPath><defs
       id="defs5637"><rect
         id="rect5639"
         x="122.841"
         y="154.912"
         width="12.214"
         height="12.212" /></defs><clipPath
       id="clipPath5641"><rect
         height="12.212"
         width="12.214"
         y="154.912"
         x="122.841"
         id="use5643" /></clipPath><defs
       id="defs5623"><rect
         id="rect5625"
         x="137.911"
         y="139.34399"
         width="12.212"
         height="12.206" /></defs><clipPath
       id="clipPath5627"><rect
         height="12.206"
         width="12.212"
         y="139.34399"
         x="137.911"
         id="use5629" /></clipPath><defs
       id="defs5609"><rect
         id="rect5611"
         x="122.841"
         y="139.34399"
         width="12.214"
         height="12.206" /></defs><clipPath
       id="clipPath5613"><rect
         height="12.206"
         width="12.214"
         y="139.34399"
         x="122.841"
         id="use5615" /></clipPath><defs
       id="defs5595"><rect
         id="rect5597"
         x="137.911"
         y="154.912"
         width="12.212"
         height="12.212" /></defs><clipPath
       id="clipPath5599"><rect
         height="12.212"
         width="12.212"
         y="154.912"
         x="137.911"
         id="use5601" /></clipPath><defs
       id="defs5567"><rect
         id="rect5569"
         x="122.841"
         y="154.912"
         width="12.214"
         height="12.212" /></defs><clipPath
       id="clipPath5571"><rect
         height="12.212"
         width="12.214"
         y="154.912"
         x="122.841"
         id="use5573" /></clipPath><defs
       id="defs5553"><rect
         id="rect5555"
         x="122.841"
         y="139.34399"
         width="12.214"
         height="12.206" /></defs><clipPath
       id="clipPath5557"><rect
         height="12.206"
         width="12.214"
         y="139.34399"
         x="122.841"
         id="use5559" /></clipPath><clipPath
       clipPathUnits="userSpaceOnUse"
       id="clipPath24-3"><path
         d="m 0,198.425 198.425,0 L 198.425,0 0,0 0,198.425 z"
         id="path26-6"
         inkscape:connector-curvature="0" /></clipPath><clipPath
       clipPathUnits="userSpaceOnUse"
       id="clipPath24-9"><path
         d="m 0,198.425 198.425,0 L 198.425,0 0,0 0,198.425 z"
         id="path26-7"
         inkscape:connector-curvature="0" /></clipPath><clipPath
       id="clipPath24-0"
       clipPathUnits="userSpaceOnUse"><path
         inkscape:connector-curvature="0"
         id="path26-71"
         d="m 0,198.425 198.425,0 L 198.425,0 0,0 0,198.425 z" /></clipPath></defs><sodipodi:namedview
     pagecolor="#ffffff"
     bordercolor="#666666"
     borderopacity="1"
     objecttolerance="10"
     gridtolerance="10"
     guidetolerance="10"
     inkscape:pageopacity="0"
     inkscape:pageshadow="2"
     inkscape:window-width="1348"
     inkscape:window-height="849"
     id="namedview4"
     showgrid="false"
     inkscape:zoom="3.85"
     inkscape:cx="78"
     inkscape:cy="90"
     inkscape:window-x="0"
     inkscape:window-y="1"
     inkscape:window-maximized="0"
     inkscape:current-layer="g10"
     showguides="true"
     inkscape:guide-bbox="true" /><g
     id="g10"
     inkscape:groupmode="layer"
     inkscape:label="Codefor_Hex_sticker_ALL"
     transform="matrix(1.25,0,0,-1.25,0,180)"><path
       sodipodi:nodetypes="ccccc"
       inkscape:connector-curvature="0"
       d="M 62.400009,-4.329024e-7 0,35.999751 0,108.00025 62.400009,100.78969 c 1.705283,-39.572054 0,-100.78969043290233 0,-100.78969043290233 z"
       style="fill:#d6966a;fill-opacity:1;fill-rule:nonzero;stroke:none"
       id="path3206" /><path
       id="path3204"
       style="fill:#dfac89;fill-opacity:1;fill-rule:nonzero;stroke:none"
       d="M 124.80001,35.999751 62.400008,-4.329024e-7 C 62.312337,0.06085437 62.400008,100.78969 62.400008,100.78969 l 62.400002,7.21056 z"
       inkscape:connector-curvature="0"
       sodipodi:nodetypes="ccccc" /><path
       style="fill:#999999;fill-opacity:1;fill-rule:nonzero;stroke:none"
       d="M 0.03125 44.96875 L 0 45 L 0.03125 45.03125 L 0.03125 44.96875 z M 0 125 L 0 135 L 59.28125 169.1875 L 59.28125 159.1875 L 0 125 z M 155.96875 125.03125 L 96.71875 159.21875 L 96.71875 169.1875 L 156 135 L 155.96875 134.96875 L 155.96875 125.03125 z "
       transform="matrix(0.8,0,0,-0.8,0,144)"
       id="path6580" /><path
       style="fill:#4d4d4d;fill-opacity:1;fill-rule:nonzero;stroke:none"
       d="M 0.03125 44.96875 L 0 45 L 0.03125 45.03125 L 0.03125 44.96875 z M 0 131 L 0 135 L 59.28125 169.1875 L 59.28125 165.1875 L 0 131 z M 155.96875 131.03125 L 96.71875 165.21875 L 96.71875 169.1875 L 156 135 L 155.96875 134.96875 L 155.96875 131.03125 z "
       id="path6575"
       transform="matrix(0.8,0,0,-0.8,0,144)" /><g
       transform="translate(-51.006506,32.001198)"
       id="g6786" /><g
       transform="matrix(0.79991917,0,0,-0.79998466,-109.94415,125.65753)"
       id="Layer_1" /><g
       transform="matrix(0.79991917,0,0,-0.79998466,-109.94415,125.65753)"
       id="Layer_3" /><g
       transform="matrix(0.79991917,0,0,-0.79998466,-109.94415,125.65753)"
       id="Layer_5" /><g
       transform="matrix(0.79991917,0,0,-0.79998466,-109.94415,125.65753)"
       id="Layer_4" /><g
       transform="matrix(0.79991917,0,0,-0.79998466,-109.94415,125.65753)"
       id="Layer_6"><g
         id="g5378" /><g
         id="g5380" /><g
         id="g5382" /><g
         id="g5384" /><g
         id="g5386" /><g
         id="g5388" /></g><path
       style="fill:#d28a5a;fill-opacity:1;stroke:none"
       d="M 78,159 0,120 0,135 78,180 z"
       id="path4029"
       inkscape:connector-curvature="0"
       transform="matrix(0.8,0,0,-0.8,0,144)"
       sodipodi:nodetypes="ccccc" /><g
       id="g4023"><path
         id="path3978"
         style="opacity:1;fill:#c83737;fill-opacity:1;fill-rule:nonzero;stroke:none"
         d="M 62.400008,100 -2.4010399e-7,107.99975 C 20.799171,120.00018 41.600027,132.0001 62.400008,144 c 1.676116,-35.47265 0,-44 0,-44 z"
         inkscape:connector-curvature="0"
         sodipodi:nodetypes="cccc" /><path
         sodipodi:nodetypes="cccc"
         inkscape:connector-curvature="0"
         d="M 124.80001,107.99975 62.400008,100 c 0,0 0.361929,43.81347 0,44 20.798359,-12.00271 41.602972,-23.99611 62.400002,-36.00025 z"
         style="opacity:1;fill:#d35f5f;fill-opacity:1;fill-rule:nonzero;stroke:none"
         id="path3976" /><path
         id="path3988"
         transform="matrix(0.8,0,0,-0.8,0,144)"
         d="M 78 5.96875 L 77.875 6 L 64.84375 7.59375 C 63.780546 8.2071269 62.719456 8.8241226 61.65625 9.4375 L 61.71875 10 L 78 8 L 78.125 6 L 78 5.96875 z M 53.71875 14 C 52.813355 14.522335 51.905395 15.040165 51 15.5625 L 51 16 L 78 16 L 78 14 L 53.71875 14 z M 43.09375 20.125 C 42.236451 20.61959 41.388548 21.130409 40.53125 21.625 L 40.5 22 L 77.9375 24 L 78 24 L 78.0625 24 L 78.0625 22 L 77.9375 22 L 43.09375 20.125 z M 32.59375 26.1875 C 31.801385 26.644634 31.011114 27.105365 30.21875 27.5625 L 30.1875 28 L 77.90625 32 L 78 32 L 78.09375 32 L 78.09375 30 L 77.90625 30 L 32.59375 26.1875 z M 22.125 32.25 C 21.304688 32.723266 20.47656 33.182983 19.65625 33.65625 L 19.625 34 L 77.90625 40 L 78 40 L 78.09375 40 L 78 38 L 22.125 32.25 z M 11.6875 38.25 C 10.915293 38.695523 10.147204 39.148226 9.375 39.59375 L 9.34375 40 L 77.875 48 L 78 48 L 78.125 48 L 78 46 L 11.6875 38.25 z "
         style="font-size:medium;font-style:normal;font-variant:normal;font-weight:normal;font-stretch:normal;text-indent:0;text-align:start;text-decoration:none;line-height:normal;letter-spacing:normal;word-spacing:normal;text-transform:none;direction:ltr;block-progression:tb;writing-mode:lr-tb;text-anchor:start;baseline-shift:baseline;color:#000000;fill:#d35f5f;fill-opacity:1;stroke:none;stroke-width:2;marker:none;visibility:visible;display:inline;overflow:visible;enable-background:accumulate;font-family:Sans;-inkscape-font-specification:Sans" /><path
         id="path4015"
         transform="matrix(0.8,0,0,-0.8,0,144)"
         d="M 78.15625 6 C 78.162325 6.7080492 78.183441 7.221317 78.1875 8.03125 L 94.375 10 L 94.4375 9.46875 C 93.334007 8.8321481 92.228477 8.1991267 91.125 7.5625 L 78.15625 6 z M 78.1875 14 C 78.187819 14.63344 78.187813 15.341262 78.1875 16 L 105 16 L 105 15.5625 C 104.09457 15.040222 103.18667 14.522287 102.28125 14 L 78.1875 14 z M 112.90625 20.125 L 78.15625 22 C 78.15434 22.710371 78.158592 23.280505 78.15625 24 L 115.46875 22 L 115.4375 21.59375 C 114.59249 21.106336 113.75126 20.612414 112.90625 20.125 z M 123.40625 26.1875 L 78.15625 30 C 78.151494 30.993291 78.130134 31.025108 78.125 32 L 125.9375 28 L 125.90625 27.625 C 125.07358 27.144678 124.23893 26.667816 123.40625 26.1875 z M 133.84375 32.21875 L 78.09375 38 C 78.088274 38.855902 78.099076 39.204968 78.09375 40 L 136.21875 34 L 136.1875 33.5625 C 135.40746 33.11248 134.62379 32.668758 133.84375 32.21875 z M 144.3125 38.25 L 78.0625 46 C 78.058414 46.548749 78.034659 47.554615 78.03125 48 L 78.125 48 L 146.6875 40 L 146.65625 39.59375 C 145.87626 39.14366 145.0925 38.700072 144.3125 38.25 z "
         style="font-size:medium;font-style:normal;font-variant:normal;font-weight:normal;font-stretch:normal;text-indent:0;text-align:start;text-decoration:none;line-height:normal;letter-spacing:normal;word-spacing:normal;text-transform:none;direction:ltr;block-progression:tb;writing-mode:lr-tb;text-anchor:start;baseline-shift:baseline;color:#000000;fill:#c83737;fill-opacity:1;stroke:none;stroke-width:2;marker:none;visibility:visible;display:inline;overflow:visible;enable-background:accumulate;font-family:Sans;-inkscape-font-specification:Sans" /></g><path
       sodipodi:nodetypes="ccccc"
       transform="matrix(0.8,0,0,-0.8,0,144)"
       inkscape:connector-curvature="0"
       id="path4031"
       d="m 156,135 0,-15 -78,39 0,21 z"
       style="fill:#daa07a;fill-opacity:1;stroke:none" /><g
       id="g4107"
       transform="translate(-28.000002,10.912577)"><path
         transform="scale(1,-1)"
         style="fill:#d28a5a;fill-opacity:1;stroke:none"
         d="m 34.400002,-87.200223 20.799999,4.000221 0,49.599779 -20.799999,-9.6 z"
         id="rect4099"
         inkscape:connector-curvature="0"
         sodipodi:nodetypes="ccccc" /><path
         transform="scale(1,-1)"
         style="fill:#808af2;fill-opacity:1;stroke:none"
         clip-path="url(#SVGID_22_)"
         d="m 36,-70.800223 8,2 0,12.800226 -8,-2.800226 z"
         id="rect4087"
         inkscape:connector-curvature="0"
         sodipodi:nodetypes="ccccc" /><path
         transform="scale(1,-1)"
         style="fill:#808af2;fill-opacity:1;stroke:none"
         clip-path="url(#SVGID_24_)"
         d="m 36,-56.687423 8,3.0872 0,12.800225 -8,-4.000225 z"
         id="rect4089"
         inkscape:connector-curvature="0"
         sodipodi:nodetypes="ccccc" /><path
         transform="scale(1,-1)"
         style="fill:#808af2;fill-opacity:1;stroke:none"
         clip-path="url(#SVGID_26_)"
         d="m 45.599998,-67.999997 8,2.112574 0,13.087426 -8,-2.527426 z"
         id="rect4091"
         inkscape:connector-curvature="0"
         sodipodi:nodetypes="ccccc" /><path
         transform="scale(1,-1)"
         style="fill:#808af2;fill-opacity:1;stroke:none"
         clip-path="url(#SVGID_28_)"
         d="m 45.599998,-53.087423 8,2.6872 0,13.6 -8,-3.2 z"
         id="rect4093"
         inkscape:connector-curvature="0"
         sodipodi:nodetypes="ccccc" /><path
         transform="scale(1,-1)"
         style="fill:#808af2;fill-opacity:1;stroke:none"
         clip-path="url(#SVGID_22_)"
         d="m 36,-84.800223 8,1.6 0,12.5128 -8,-2.4 z"
         id="rect4095"
         inkscape:connector-curvature="0"
         sodipodi:nodetypes="ccccc" /><path
         transform="scale(1,-1)"
         style="fill:#808af2;fill-opacity:1;stroke:none"
         clip-path="url(#SVGID_26_)"
         d="m 45.599998,-82.767423 8,1.16742 0,13.6 -8,-2.40022 z"
         id="rect4097"
         inkscape:connector-curvature="0"
         sodipodi:nodetypes="ccccc" /></g><g
       transform="translate(-0.80000153,-1.9928)"
       id="g4116"><path
         transform="scale(1,-1)"
         style="fill:#d28a5a;fill-opacity:1;stroke:none"
         d="m 34.400002,-95.2 20.799999,3.999998 0,56.800002 -20.799999,-9.6 z"
         id="rect4118"
         inkscape:connector-curvature="0"
         sodipodi:nodetypes="ccccc" /><path
         transform="scale(1,-1)"
         style="fill:#808af2;fill-opacity:1;stroke:none"
         clip-path="url(#SVGID_22_)"
         d="m 36,-75.999997 8,2.247197 0,14.552803 -8,-2.632803 z"
         id="rect4120"
         inkscape:connector-curvature="0"
         sodipodi:nodetypes="ccccc" /><path
         transform="scale(1,-1)"
         style="fill:#808af2;fill-opacity:1;stroke:none"
         clip-path="url(#SVGID_24_)"
         d="m 36,-59.5928 8,2.7928 0,14.400002 -8,-3.2 z"
         id="rect4122"
         inkscape:connector-curvature="0"
         sodipodi:nodetypes="ccccc" /><path
         transform="scale(1,-1)"
         style="fill:#808af2;fill-opacity:1;stroke:none"
         clip-path="url(#SVGID_26_)"
         d="m 45.599998,-73.4328 8,2.232803 0,15.2 -8,-2.552803 z"
         id="rect4124"
         inkscape:connector-curvature="0"
         sodipodi:nodetypes="ccccc" /><path
         transform="scale(1,-1)"
         style="fill:#808af2;fill-opacity:1;stroke:none"
         clip-path="url(#SVGID_28_)"
         d="m 45.599998,-56.1528 8,2.5528 0,16.000002 -8,-4.000002 z"
         id="rect4126"
         inkscape:connector-curvature="0"
         sodipodi:nodetypes="ccccc" /><path
         transform="scale(1,-1)"
         style="fill:#808af2;fill-opacity:1;stroke:none"
         clip-path="url(#SVGID_22_)"
         d="m 36,-92 8,1.2072 0,14.4 -8,-2.0072 z"
         id="rect4128"
         inkscape:connector-curvature="0"
         sodipodi:nodetypes="ccccc" /><path
         transform="scale(1,-1)"
         style="fill:#808af2;fill-opacity:1;stroke:none"
         clip-path="url(#SVGID_26_)"
         d="m 45.599998,-90.4 8,1.6 0,14.8072 -8,-2.007203 z"
         id="rect4130"
         inkscape:connector-curvature="0"
         sodipodi:nodetypes="ccccc" /></g><g
       id="g4304"
       transform="translate(13.580528,0)"><g
         id="g4272"
         transform="matrix(-1,0,0,1,138.4,10.912577)"><path
           transform="scale(1,-1)"
           style="fill:#daa07a;fill-opacity:1;stroke:none"
           d="m 34.400002,-87.200223 20.799999,4.000221 0,49.599779 -20.799999,-9.6 z"
           id="path4274"
           inkscape:connector-curvature="0"
           sodipodi:nodetypes="ccccc" /><path
           transform="scale(1,-1)"
           style="fill:#929bf4;fill-opacity:1;stroke:none"
           clip-path="url(#SVGID_22_)"
           d="m 36,-70.800223 8,2 0,12.800226 -8,-2.800226 z"
           id="path4276"
           inkscape:connector-curvature="0"
           sodipodi:nodetypes="ccccc" /><path
           transform="scale(1,-1)"
           style="fill:#929bf4;fill-opacity:1;stroke:none"
           clip-path="url(#SVGID_24_)"
           d="m 36,-56.687423 8,3.0872 0,12.800225 -8,-4.000225 z"
           id="path4278"
           inkscape:connector-curvature="0"
           sodipodi:nodetypes="ccccc" /><path
           transform="scale(1,-1)"
           style="fill:#929bf4;fill-opacity:1;stroke:none"
           clip-path="url(#SVGID_26_)"
           d="m 45.599998,-67.999997 8,2.112574 0,13.087426 -8,-2.527426 z"
           id="path4280"
           inkscape:connector-curvature="0"
           sodipodi:nodetypes="ccccc" /><path
           transform="scale(1,-1)"
           style="fill:#929bf4;fill-opacity:1;stroke:none"
           clip-path="url(#SVGID_28_)"
           d="m 45.599998,-53.087423 8,2.6872 0,13.6 -8,-3.2 z"
           id="path4282"
           inkscape:connector-curvature="0"
           sodipodi:nodetypes="ccccc" /><path
           transform="scale(1,-1)"
           style="fill:#929bf4;fill-opacity:1;stroke:none"
           clip-path="url(#SVGID_22_)"
           d="m 36,-84.800223 8,1.6 0,12.5128 -8,-2.4 z"
           id="path4284"
           inkscape:connector-curvature="0"
           sodipodi:nodetypes="ccccc" /><path
           transform="scale(1,-1)"
           style="fill:#929bf4;fill-opacity:1;stroke:none"
           clip-path="url(#SVGID_26_)"
           d="m 45.599998,-82.767423 8,1.16742 0,13.6 -8,-2.40022 z"
           id="path4286"
           inkscape:connector-curvature="0"
           sodipodi:nodetypes="ccccc" /></g><g
         transform="matrix(-1,0,0,1,111.2,-1.9928)"
         id="g4288"><path
           transform="scale(1,-1)"
           style="fill:#daa07a;fill-opacity:1;stroke:none"
           d="m 34.400002,-95.2 20.799999,3.999998 0,56.800002 -20.799999,-9.6 z"
           id="path4290"
           inkscape:connector-curvature="0"
           sodipodi:nodetypes="ccccc" /><path
           transform="scale(1,-1)"
           style="fill:#929bf4;fill-opacity:1;stroke:none"
           clip-path="url(#SVGID_22_)"
           d="m 36,-75.999997 8,2.247197 0,14.552803 -8,-2.632803 z"
           id="path4292"
           inkscape:connector-curvature="0"
           sodipodi:nodetypes="ccccc" /><path
           transform="scale(1,-1)"
           style="fill:#929bf4;fill-opacity:1;stroke:none"
           clip-path="url(#SVGID_24_)"
           d="m 36,-59.5928 8,2.7928 0,14.400002 -8,-3.2 z"
           id="path4294"
           inkscape:connector-curvature="0"
           sodipodi:nodetypes="ccccc" /><path
           transform="scale(1,-1)"
           style="fill:#929bf4;fill-opacity:1;stroke:none"
           clip-path="url(#SVGID_26_)"
           d="m 45.599998,-73.4328 8,2.232803 0,15.2 -8,-2.552803 z"
           id="path4296"
           inkscape:connector-curvature="0"
           sodipodi:nodetypes="ccccc" /><path
           transform="scale(1,-1)"
           style="fill:#929bf4;fill-opacity:1;stroke:none"
           clip-path="url(#SVGID_28_)"
           d="m 45.599998,-56.1528 8,2.5528 0,16.000002 -8,-4.000002 z"
           id="path4298"
           inkscape:connector-curvature="0"
           sodipodi:nodetypes="ccccc" /><path
           transform="scale(1,-1)"
           style="fill:#929bf4;fill-opacity:1;stroke:none"
           clip-path="url(#SVGID_22_)"
           d="m 36,-92 8,1.2072 0,14.4 -8,-2.0072 z"
           id="path4300"
           inkscape:connector-curvature="0"
           sodipodi:nodetypes="ccccc" /><path
           transform="scale(1,-1)"
           style="fill:#929bf4;fill-opacity:1;stroke:none"
           clip-path="url(#SVGID_26_)"
           d="m 45.599998,-90.4 8,1.6 0,14.8072 -8,-2.007203 z"
           id="path4302"
           inkscape:connector-curvature="0"
           sodipodi:nodetypes="ccccc" /></g></g></g></svg>