<?xml version="1.0" encoding="UTF-8" standalone="no"?>
<!-- Created with Inkscape (http://www.inkscape.org/) -->

<svg
   xmlns:dc="http://purl.org/dc/elements/1.1/"
   xmlns:cc="http://creativecommons.org/ns#"
   xmlns:rdf="http://www.w3.org/1999/02/22-rdf-syntax-ns#"
   xmlns:svg="http://www.w3.org/2000/svg"
   xmlns="http://www.w3.org/2000/svg"
   xmlns:xlink="http://www.w3.org/1999/xlink"
   xmlns:sodipodi="http://sodipodi.sourceforge.net/DTD/sodipodi-0.dtd"
   xmlns:inkscape="http://www.inkscape.org/namespaces/inkscape"
   id="svg2"
   version="1.1"
   inkscape:version="0.48.5 r10040"
   width="156"
   height="180"
   xml:space="preserve"
   sodipodi:docname="lifebelt.svg"><metadata
     id="metadata8"><rdf:RDF><cc:Work
         rdf:about=""><dc:format>image/svg+xml</dc:format><dc:type
           rdf:resource="http://purl.org/dc/dcmitype/StillImage" /><dc:title /></cc:Work></rdf:RDF></metadata><defs
     id="defs6"><clipPath
   clipPathUnits="userSpaceOnUse"
   id="clipPath24"><path
     d="m 0,198.425 198.425,0 L 198.425,0 0,0 0,198.425 z"
     id="path26"
     inkscape:connector-curvature="0" /></clipPath><linearGradient
   inkscape:collect="always"
   xlink:href="#SVGID_1_"
   id="linearGradient5422"
   gradientUnits="userSpaceOnUse"
   x1="555.02551"
   y1="51.5"
   x2="639.46509"
   y2="51.5" /><linearGradient
   inkscape:collect="always"
   xlink:href="#SVGID_2_"
   id="linearGradient5424"
   gradientUnits="userSpaceOnUse"
   x1="554.27338"
   y1="51.5"
   x2="640.21722"
   y2="51.5" /><linearGradient
   inkscape:collect="always"
   xlink:href="#SVGID_3_"
   id="linearGradient5426"
   gradientUnits="userSpaceOnUse"
   x1="554.42383"
   y1="51.5"
   x2="640.06677"
   y2="51.5" /><linearGradient
   inkscape:collect="always"
   xlink:href="#SVGID_4_"
   id="linearGradient5428"
   gradientUnits="userSpaceOnUse"
   x1="597.16058"
   y1="76.235703"
   x2="597.16058"
   y2="20.7661" /><linearGradient
   inkscape:collect="always"
   xlink:href="#SVGID_5_"
   id="linearGradient5430"
   gradientUnits="userSpaceOnUse"
   x1="597.16101"
   y1="73.541496"
   x2="597.16101"
   y2="19.996" /><linearGradient
   inkscape:collect="always"
   xlink:href="#SVGID_6_"
   id="linearGradient5432"
   gradientUnits="userSpaceOnUse"
   x1="561.7406"
   y1="51.5"
   x2="632.75012"
   y2="51.5" /><radialGradient
   inkscape:collect="always"
   xlink:href="#SVGID_7_"
   id="radialGradient5434"
   gradientUnits="userSpaceOnUse"
   cx="617.15747"
   cy="51.147598"
   r="2.6143999" /><radialGradient
   inkscape:collect="always"
   xlink:href="#SVGID_8_"
   id="radialGradient5436"
   gradientUnits="userSpaceOnUse"
   cx="577.54388"
   cy="51.147598"
   r="2.6143999" /><linearGradient
   inkscape:collect="always"
   xlink:href="#SVGID_9_"
   id="linearGradient5438"
   gradientUnits="userSpaceOnUse"
   x1="627.20978"
   y1="70.156502"
   x2="644.66669"
   y2="70.156502" /><linearGradient
   inkscape:collect="always"
   xlink:href="#SVGID_10_"
   id="linearGradient5440"
   gradientUnits="userSpaceOnUse"
   x1="627.20978"
   y1="70.156502"
   x2="644.66669"
   y2="70.156502" /><radialGradient
   inkscape:collect="always"
   xlink:href="#SVGID_11_"
   id="radialGradient5442"
   gradientUnits="userSpaceOnUse"
   cx="597.14001"
   cy="80.907799"
   r="38.791901" /><linearGradient
   inkscape:collect="always"
   xlink:href="#SVGID_12_"
   id="linearGradient5444"
   gradientUnits="userSpaceOnUse"
   x1="548.43298"
   y1="70.156502"
   x2="565.88989"
   y2="70.156502" /><linearGradient
   inkscape:collect="always"
   xlink:href="#SVGID_13_"
   id="linearGradient5446"
   gradientUnits="userSpaceOnUse"
   x1="548.43298"
   y1="70.156502"
   x2="565.88989"
   y2="70.156502" /><radialGradient
   inkscape:collect="always"
   xlink:href="#SVGID_14_"
   id="radialGradient5448"
   gradientUnits="userSpaceOnUse"
   cx="597.14001"
   cy="80.907799"
   r="38.791901" /><linearGradient
   inkscape:collect="always"
   xlink:href="#SVGID_15_"
   id="linearGradient5450"
   gradientUnits="userSpaceOnUse"
   x1="560.15588"
   y1="66.442596"
   x2="632.8576"
   y2="66.442596" /><linearGradient
   inkscape:collect="always"
   xlink:href="#SVGID_16_"
   id="linearGradient5452"
   gradientUnits="userSpaceOnUse"
   x1="560.57727"
   y1="66.442596"
   x2="632.43622"
   y2="66.442596" /><linearGradient
   inkscape:collect="always"
   xlink:href="#SVGID_17_"
   id="linearGradient5454"
   gradientUnits="userSpaceOnUse"
   gradientTransform="translate(168,-3)"
   x1="380.43301"
   y1="72.043297"
   x2="476.66669"
   y2="72.043297" /><linearGradient
   inkscape:collect="always"
   xlink:href="#SVGID_18_"
   id="linearGradient5456"
   gradientUnits="userSpaceOnUse"
   gradientTransform="translate(168,-3)"
   x1="380.43301"
   y1="72.043297"
   x2="476.66669"
   y2="72.043297" /><linearGradient
   inkscape:collect="always"
   xlink:href="#SVGID_19_"
   id="linearGradient5458"
   gradientUnits="userSpaceOnUse"
   gradientTransform="translate(168,-3)"
   x1="380.43301"
   y1="72.043297"
   x2="476.66669"
   y2="72.043297" /><linearGradient
   inkscape:collect="always"
   xlink:href="#SVGID_20_"
   id="linearGradient5460"
   gradientUnits="userSpaceOnUse"
   gradientTransform="translate(168,-3)"
   x1="380.43301"
   y1="72.043297"
   x2="476.66669"
   y2="72.043297" /><linearGradient
   inkscape:collect="always"
   xlink:href="#SVGID_21_"
   id="linearGradient5462"
   gradientUnits="userSpaceOnUse"
   gradientTransform="translate(168,-3)"
   x1="380.43301"
   y1="72.043297"
   x2="476.66669"
   y2="72.043297" /><linearGradient
   inkscape:collect="always"
   xlink:href="#SVGID_22_"
   id="linearGradient5464"
   gradientUnits="userSpaceOnUse"
   gradientTransform="translate(168,-3)"
   x1="380.43301"
   y1="72.043297"
   x2="476.66669"
   y2="72.043297" /><linearGradient
   inkscape:collect="always"
   xlink:href="#SVGID_23_"
   id="linearGradient5466"
   gradientUnits="userSpaceOnUse"
   gradientTransform="translate(168,-3)"
   x1="380.43301"
   y1="72.043297"
   x2="476.66669"
   y2="72.043297" /><linearGradient
   inkscape:collect="always"
   xlink:href="#SVGID_24_"
   id="linearGradient5468"
   gradientUnits="userSpaceOnUse"
   gradientTransform="translate(168,-3)"
   x1="380.43301"
   y1="72.043297"
   x2="476.66669"
   y2="72.043297" /><linearGradient
   inkscape:collect="always"
   xlink:href="#SVGID_25_"
   id="linearGradient5470"
   gradientUnits="userSpaceOnUse"
   gradientTransform="translate(168,-3)"
   x1="380.43301"
   y1="72.043297"
   x2="476.66669"
   y2="72.043297" /><linearGradient
   inkscape:collect="always"
   xlink:href="#SVGID_26_"
   id="linearGradient5472"
   gradientUnits="userSpaceOnUse"
   gradientTransform="translate(168,-3)"
   x1="380.43301"
   y1="72.043297"
   x2="476.66669"
   y2="72.043297" /><linearGradient
   inkscape:collect="always"
   xlink:href="#SVGID_27_"
   id="linearGradient5474"
   gradientUnits="userSpaceOnUse"
   gradientTransform="translate(168,-3)"
   x1="380.43301"
   y1="72.043297"
   x2="476.66669"
   y2="72.043297" /><linearGradient
   inkscape:collect="always"
   xlink:href="#SVGID_28_"
   id="linearGradient5476"
   gradientUnits="userSpaceOnUse"
   gradientTransform="translate(168,-3)"
   x1="380.43301"
   y1="72.043297"
   x2="476.66669"
   y2="72.043297" /><linearGradient
   inkscape:collect="always"
   xlink:href="#SVGID_29_"
   id="linearGradient5478"
   gradientUnits="userSpaceOnUse"
   gradientTransform="translate(168,-3)"
   x1="380.43301"
   y1="72.043297"
   x2="476.66669"
   y2="72.043297" /><linearGradient
   inkscape:collect="always"
   xlink:href="#SVGID_30_"
   id="linearGradient5480"
   gradientUnits="userSpaceOnUse"
   gradientTransform="translate(168,-3)"
   x1="380.43301"
   y1="72.043297"
   x2="476.66669"
   y2="72.043297" /><linearGradient
   inkscape:collect="always"
   xlink:href="#SVGID_31_"
   id="linearGradient5482"
   gradientUnits="userSpaceOnUse"
   gradientTransform="translate(168,-3)"
   x1="380.43301"
   y1="72.043297"
   x2="476.66669"
   y2="72.043297" /><linearGradient
   inkscape:collect="always"
   xlink:href="#SVGID_32_"
   id="linearGradient5484"
   gradientUnits="userSpaceOnUse"
   gradientTransform="translate(168,-3)"
   x1="380.43301"
   y1="72.043297"
   x2="476.66669"
   y2="72.043297" /><linearGradient
   inkscape:collect="always"
   xlink:href="#SVGID_33_"
   id="linearGradient5486"
   gradientUnits="userSpaceOnUse"
   gradientTransform="translate(168,-3)"
   x1="380.43301"
   y1="72.043297"
   x2="476.66669"
   y2="72.043297" /><linearGradient
   inkscape:collect="always"
   xlink:href="#SVGID_34_"
   id="linearGradient5488"
   gradientUnits="userSpaceOnUse"
   gradientTransform="translate(168,-3)"
   x1="380.43301"
   y1="72.043297"
   x2="476.66669"
   y2="72.043297" /><linearGradient
   inkscape:collect="always"
   xlink:href="#SVGID_35_"
   id="linearGradient5490"
   gradientUnits="userSpaceOnUse"
   gradientTransform="translate(168,-3)"
   x1="380.43301"
   y1="72.043297"
   x2="476.66669"
   y2="72.043297" /><linearGradient
   inkscape:collect="always"
   xlink:href="#SVGID_36_"
   id="linearGradient5492"
   gradientUnits="userSpaceOnUse"
   gradientTransform="translate(168,-3)"
   x1="380.43301"
   y1="72.043297"
   x2="476.66669"
   y2="72.043297" /><linearGradient
   inkscape:collect="always"
   xlink:href="#SVGID_37_"
   id="linearGradient5494"
   gradientUnits="userSpaceOnUse"
   gradientTransform="translate(168,-3)"
   x1="380.43301"
   y1="72.043297"
   x2="476.66669"
   y2="72.043297" /><linearGradient
   inkscape:collect="always"
   xlink:href="#SVGID_38_"
   id="linearGradient5496"
   gradientUnits="userSpaceOnUse"
   gradientTransform="translate(168,-3)"
   x1="380.43301"
   y1="72.043297"
   x2="476.66669"
   y2="72.043297" /><radialGradient
   gradientUnits="userSpaceOnUse"
   r="2.6143999"
   cy="51.147598"
   cx="617.15747"
   id="SVGID_7_"><stop
     id="stop3329"
     style="stop-color:#FFF9D4"
     offset="0" /><stop
     id="stop3331"
     style="stop-color:#FCF3C4"
     offset="0.1058" /><stop
     id="stop3333"
     style="stop-color:#F4E19B"
     offset="0.3149" /><stop
     id="stop3335"
     style="stop-color:#F2DC8E"
     offset="0.3708" /><stop
     id="stop3337"
     style="stop-color:#F0BF05"
     offset="0.6854" /><stop
     id="stop3339"
     style="stop-color:#C9971B"
     offset="1" /></radialGradient><radialGradient
   gradientUnits="userSpaceOnUse"
   r="2.6143999"
   cy="51.147598"
   cx="577.54388"
   id="SVGID_8_"><stop
     id="stop3344"
     style="stop-color:#FFF9D4"
     offset="0" /><stop
     id="stop3346"
     style="stop-color:#FCF3C4"
     offset="0.1058" /><stop
     id="stop3348"
     style="stop-color:#F4E19B"
     offset="0.3149" /><stop
     id="stop3350"
     style="stop-color:#F2DC8E"
     offset="0.3708" /><stop
     id="stop3352"
     style="stop-color:#F0BF05"
     offset="0.6854" /><stop
     id="stop3354"
     style="stop-color:#C9971B"
     offset="1" /></radialGradient>
 <style
   id="style3078"
   type="text/css">
   
    .fil3 {fill:#A10000}
    .fil1 {fill:#CCCCCC}
    .fil0 {fill:#DBDBDB}
    .fil5 {fill:#EB0000}
    .fil4 {fill:#F0F0F0}
    .fil7 {fill:red}
    .fil6 {fill:white}
    .fil2 {fill:#DEA985;fill-rule:nonzero}
   
  </style>
  
  
  
  
  
  
  
  
  
  
 </defs><sodipodi:namedview
     pagecolor="#ffffff"
     bordercolor="#666666"
     borderopacity="1"
     objecttolerance="10"
     gridtolerance="10"
     guidetolerance="10"
     inkscape:pageopacity="0"
     inkscape:pageshadow="2"
     inkscape:window-width="1600"
     inkscape:window-height="837"
     id="namedview4"
     showgrid="false"
     inkscape:zoom="3.7332457"
     inkscape:cx="78"
     inkscape:cy="89.997888"
     inkscape:window-x="-8"
     inkscape:window-y="-8"
     inkscape:window-maximized="1"
     inkscape:current-layer="g10"
     showguides="true"
     inkscape:guide-bbox="true" /><g
     id="g10"
     inkscape:groupmode="layer"
     inkscape:label="Codefor_Hex_sticker_ALL"
     transform="matrix(1.25,0,0,-1.25,0,180)"><path
       id="path3140"
       d="M 78 0 L 0 45 L 0.03125 45.03125 L 0 135 L 77.96875 179.96875 C 77.983504 180.00134 77.985227 180.01066 78 180 L 156 135 L 155.96875 134.96875 L 156 45 L 78 0 z "
       style="fill:#ffffff;fill-opacity:1;fill-rule:nonzero;stroke:none"
       transform="matrix(0.8,0,0,-0.8,0,144)" /><g
       id="Layer_1"
       transform="matrix(0.8,0,0,-0.8,-239.39999,131.01144)" /><g
       id="Layer_3"
       transform="matrix(0.8,0,0,-0.8,-239.39999,131.01144)" /><g
       id="Layer_5"
       transform="matrix(0.8,0,0,-0.8,-239.39999,131.01144)" /><g
       id="Layer_4"
       transform="matrix(0.8,0,0,-0.8,-239.39999,131.01144)" /><g
       id="Layer_6"
       transform="matrix(0.8,0,0,-0.8,-239.39999,131.01144)"><g
         id="g5378" /><g
         id="g5380" /><g
         id="g5382" /><g
         id="g5384" /><g
         id="g5386" /><g
         id="g5388" /></g><g
       id="Layer_1-5"
       transform="matrix(0.8,0,0,-0.8,-198.74935,133.32888)" /><g
       id="Layer_3-2"
       transform="matrix(0.8,0,0,-0.8,-198.74935,133.32888)" /><g
       id="Layer_5-9"
       transform="matrix(0.8,0,0,-0.8,-198.74935,133.32888)" /><g
       id="Layer_4-7"
       transform="matrix(0.8,0,0,-0.8,-198.74935,133.32888)" /><g
       id="Layer_6-9"
       transform="matrix(0.8,0,0,-0.8,-198.74935,133.32888)"><g
         id="g4171" /><g
         id="g4173" /><g
         id="g4175" /><g
         id="g4177" /><g
         id="g4179" /><g
         id="g4181" /></g><ellipse
       style="fill:#0000ff"
       sodipodi:ry="11"
       sodipodi:rx="0"
       sodipodi:cy="244"
       sodipodi:cx="257"
       rx="0"
       ry="11"
       cy="244"
       cx="257"
       id="svg_3"
       transform="matrix(0.29115734,0,0,-0.29115734,-21.558284,117.91765)" /><ellipse
       style="fill:#0000ff"
       sodipodi:ry="5"
       sodipodi:rx="0"
       sodipodi:cy="245"
       sodipodi:cx="258"
       rx="0"
       ry="5"
       cy="245"
       cx="258"
       id="svg_4"
       transform="matrix(0.29115734,0,0,-0.29115734,-21.558284,117.91765)" /><path
       style="fill:#d9d4d1;fill-rule:evenodd;stroke:none;fill-opacity:1"
       d="M 78 0 L 0 45 L 0.03125 45.03125 L 0 135 L 77.96875 179.96875 C 77.9835 180.00135 77.98523 180.0107 78 180 L 156 135 L 155.96875 134.96875 L 156 45 L 78 0 z M 78 32 C 92.842052 32 107.68 37.670119 119 49 C 141.65977 71.659778 141.65977 108.36 119 131 C 96.340227 153.65977 59.64 153.65977 37 131 C 14.340229 108.34023 14.340229 71.640005 37 49 C 48.329886 37.670119 63.157948 32 78 32 z "
       transform="matrix(0.8,0,0,-0.8,0,144)"
       id="path3090" /><path
       style="fill:#d40000;fill-rule:evenodd;stroke:none"
       d="M 48.90625 16.78125 L 0 45 L 0.03125 45.03125 L 0.03125 58.96875 L 24.09375 68.53125 C 26.921277 61.412998 31.226306 54.742437 37 48.96875 C 42.753921 43.19505 49.424474 38.921275 56.5625 36.09375 L 48.90625 16.78125 z M 107.125 16.8125 L 99.46875 36.09375 C 106.587 38.921275 113.25756 43.226313 119.03125 49 C 124.80494 54.7737 129.07872 61.424475 131.90625 68.5625 L 156 59 L 156 45 L 107.125 16.8125 z M 24.09375 111.4375 L 0 121 L 0 135 L 48.875 163.1875 L 56.53125 143.90625 C 49.412996 141.07872 42.742444 136.77369 36.96875 131 C 31.195056 125.22631 26.921279 118.57553 24.09375 111.4375 z M 131.90625 111.46875 C 129.07873 118.587 124.77369 125.25756 119 131.03125 C 113.22631 136.80495 106.57553 141.07872 99.4375 143.90625 L 107.09375 163.21875 L 156 135 L 155.96875 134.96875 L 155.96875 121.03125 L 131.90625 111.46875 z "
       transform="matrix(0.8,0,0,-0.8,0,144)"
       id="path3092" /><path
       id="path3094"
       d="m 62.4,128.83529 c 31.383586,0 56.8353,-25.45171 56.8353,-56.835292 0,-31.383586 -25.451714,-56.835295 -56.8353,-56.835295 -31.383587,0 -56.8352961,25.451709 -56.8352961,56.835295 0,31.383582 25.4517091,56.835292 56.8352961,56.835292 z M 29.592762,104.82305 c 18.127818,18.12782 47.502475,18.12782 65.614475,0 18.127813,-18.127814 18.127813,-47.502471 0,-65.614471 -18.127818,-18.127817 -47.502475,-18.127817 -65.614475,0 -18.127817,18.127818 -18.127817,47.502475 0,65.614471 z"
       class="fil6"
       inkscape:connector-curvature="0"
       style="fill:#e3dedb;fill-rule:evenodd" /><path
       id="path3096"
       d="m 41.345789,124.97562 3.90713,-9.83901 C 39.542498,112.87459 34.195899,109.44201 29.592762,104.82305 24.973807,100.2041 21.541227,94.857499 19.279205,89.162897 L 9.3769238,93.101664 C 15.150618,107.59126 26.85619,119.21774 41.345789,124.97562 z m 42.40897,0.72764 c 14.489599,-5.77369 26.574811,-17.84309 32.348501,-32.348503 l -10.56665,-4.19186 c -2.26202,5.710421 -5.6946,11.041203 -10.313555,15.660153 -4.618955,4.61896 -9.965554,8.05154 -15.660157,10.31356 l 4.191861,10.56665 z M 115.6129,50.866696 C 109.8392,36.377097 97.975446,24.782253 83.485847,19.024378 l -3.922949,9.870644 c 5.710421,2.262022 11.041202,5.694602 15.660157,10.313557 4.618955,4.618956 8.051535,9.965555 10.313555,15.660157 l 10.07629,-4.00204 z M 41.329971,18.961104 C 26.840371,24.734798 15.22971,36.456188 9.4560155,50.961606 l 9.8390075,3.90713 c 2.262023,-5.710421 5.694602,-11.041201 10.313558,-15.660157 4.618955,-4.618955 9.965554,-8.051535 15.660156,-10.313557 l -3.938766,-9.918099 z"
       class="fil7"
       inkscape:connector-curvature="0"
       style="fill:#e80000;fill-rule:evenodd;fill-opacity:1" /></g></svg>