<?xml version="1.0" encoding="UTF-8" standalone="no"?>
<!-- Created with Inkscape (http://www.inkscape.org/) -->

<svg
   xmlns:dc="http://purl.org/dc/elements/1.1/"
   xmlns:cc="http://creativecommons.org/ns#"
   xmlns:rdf="http://www.w3.org/1999/02/22-rdf-syntax-ns#"
   xmlns:svg="http://www.w3.org/2000/svg"
   xmlns="http://www.w3.org/2000/svg"
   xmlns:xlink="http://www.w3.org/1999/xlink"
   xmlns:sodipodi="http://sodipodi.sourceforge.net/DTD/sodipodi-0.dtd"
   xmlns:inkscape="http://www.inkscape.org/namespaces/inkscape"
   id="svg2"
   version="1.1"
   inkscape:version="0.48.5 r10040"
   width="156"
   height="180"
   xml:space="preserve"
   sodipodi:docname="map.svg"><metadata
     id="metadata8"><rdf:RDF><cc:Work
         rdf:about=""><dc:format>image/svg+xml</dc:format><dc:type
           rdf:resource="http://purl.org/dc/dcmitype/StillImage" /><dc:title /></cc:Work></rdf:RDF></metadata><defs
     id="defs6"><clipPath
       clipPathUnits="userSpaceOnUse"
       id="clipPath24"><path
         d="m 0,198.425 198.425,0 L 198.425,0 0,0 0,198.425 z"
         id="path26"
         inkscape:connector-curvature="0" /></clipPath><defs
       id="defs4831"><polygon
         points="307,38.398 153,0 153,460.797 307,499.199 "
         id="XMLID_3_" /></defs><clipPath
       id="XMLID_9_"><use
         id="use4837"
         overflow="visible"
         xlink:href="#XMLID_3_"
         style="overflow:visible"
         x="0"
         y="0"
         width="100%"
         height="100%" /></clipPath><defs
       id="defs4783"><polygon
         points="461,0 307,38.398 307,499.199 461,460.797 "
         id="XMLID_2_" /></defs><clipPath
       id="XMLID_8_"><use
         id="use4789"
         overflow="visible"
         xlink:href="#XMLID_2_"
         style="overflow:visible"
         x="0"
         y="0"
         width="100%"
         height="100%" /></clipPath><defs
       id="defs4735"><polygon
         points="614,38.398 461,0 461,460.797 614,499.199 "
         id="XMLID_1_" /></defs><clipPath
       id="XMLID_7_"><use
         id="use4741"
         overflow="visible"
         xlink:href="#XMLID_1_"
         style="overflow:visible"
         x="0"
         y="0"
         width="100%"
         height="100%" /></clipPath></defs><sodipodi:namedview
     pagecolor="#ffffff"
     bordercolor="#666666"
     borderopacity="1"
     objecttolerance="10"
     gridtolerance="10"
     guidetolerance="10"
     inkscape:pageopacity="0"
     inkscape:pageshadow="2"
     inkscape:window-width="1165"
     inkscape:window-height="861"
     id="namedview4"
     showgrid="false"
     inkscape:zoom="3.3222222"
     inkscape:cx="76.946488"
     inkscape:cy="90"
     inkscape:window-x="962"
     inkscape:window-y="0"
     inkscape:window-maximized="0"
     inkscape:current-layer="g10"
     showguides="true"
     inkscape:guide-bbox="true" /><g
     id="g10"
     inkscape:groupmode="layer"
     inkscape:label="Codefor_Hex_sticker_ALL"
     transform="matrix(1.25,0,0,-1.25,0,180)"><path
       sodipodi:nodetypes="ccccc"
       id="path3176-5"
       style="fill:#5789d3;fill-opacity:1;fill-rule:nonzero;stroke:none"
       d="M 62.4,72 0,108 l 0,0 62.4,36 c 0,0 0.02874,-71.999977 0,-72 z"
       inkscape:connector-curvature="0" /><path
       inkscape:connector-curvature="0"
       d="m 62.399973,72 62.399997,36 0,0 -62.399997,36 c -0.300945,0 -0.298879,-71.999977 0,-72 z"
       style="fill:#5f8dd3;fill-opacity:1;fill-rule:nonzero;stroke:none"
       id="path3178"
       sodipodi:nodetypes="ccccc" /><path
       inkscape:connector-curvature="0"
       d="M 62.4,0 0,36 0,36 62.4,72 c 0,0 0.02874,-71.999977240587 0,-72 z"
       style="fill:#4781d3;fill-opacity:1;fill-rule:nonzero;stroke:none"
       id="path2988"
       sodipodi:nodetypes="ccccc" /><path
       inkscape:connector-curvature="0"
       d="M 62.376794,72.005095 C 42.644373,58.943991 22.551707,46.242983 0,36 l 0,0 0.02308996,71.97025 C 1.223723,109.17038 64.033024,73.67117 62.376794,72.005095 Z"
       style="fill:#5085d2;fill-opacity:1;fill-rule:nonzero;stroke:none"
       id="path3180"
       sodipodi:nodetypes="ccccc" /><path
       sodipodi:nodetypes="ccccc"
       id="path3182"
       style="fill:#5789d3;fill-opacity:1;fill-rule:nonzero;stroke:none"
       d="M 62.423396,71.994906 C 82.155817,85.05601 102.24848,97.757018 124.80019,108 l 0,0 -0.0231,-71.970249 c -1.20063,-1.20013 -64.009934,34.29908 -62.353704,35.965155 z"
       inkscape:connector-curvature="0" /><path
       sodipodi:nodetypes="ccccc"
       id="path3174"
       style="fill:#5085d2;fill-opacity:1;fill-rule:nonzero;stroke:none"
       d="m 62.399973,0 62.399997,36 0,0 -62.399997,36 c -1.498971,-1.124229 -0.7564,-72.5457219 0,-72 z"
       inkscape:connector-curvature="0" /><path
       style="fill:#44aa00;fill-opacity:1;fill-rule:nonzero;stroke:none"
       d="M 92.03125 28.0625 C 93.128752 33.903025 82.573898 32.551762 85.53125 39 C 79.131517 38.649225 87.631417 44.738439 81.84375 43.25 C 81.7783 47.560277 76.919286 39.33205 79.375 45.5625 C 81.30671 48.04185 87.757602 51.735725 80.96875 52.96875 C 81.765747 50.807411 79.652623 45.412563 77.71875 43.75 C 77.715216 66.695172 77.809427 89.999985 78 90 L 155.65625 45.1875 C 155.6577 45.068057 155.65177 44.926609 155.65625 44.8125 L 145.75 39.09375 C 143.5465 39.56385 148.23278 44.480988 143.9375 41.25 C 140.45262 42.39965 137.56199 44.563908 134.75 41.21875 C 129.31195 42.714713 125.26566 41.019763 122.28125 40.65625 C 118.71689 42.155013 124.51252 45.860233 118.84375 44.40625 C 115.42704 44.09475 119.19852 49.48695 115.40625 45.90625 C 113.77041 42.031025 110.43127 43.338788 108.1875 43.21875 C 106.90751 38.864813 100.98704 29.938788 98.5625 38.28125 C 100.20922 31.73545 101.36677 28.827975 92.03125 28.0625 z M 87.9375 33.25 L 88 33.3125 L 87.9375 33.25 z M 85.53125 44.53125 C 87.456977 45.47185 84.570525 46.910575 85.53125 44.53125 z M 86.375 45.34375 C 89.574936 46.353088 88.45877 49.293675 86.375 45.34375 z "
       transform="matrix(0.8,0,0,-0.8,0,144)"
       id="path3774" /><path
       style="fill:#40a000;fill-opacity:1;fill-rule:nonzero;stroke:none"
       d="M 76.5 43.25 C 75.92202 43.346217 75.467121 44.06422 75.21875 45.65625 C 76.844964 48.860137 79.690609 52.841775 74.25 49.375 C 70.875789 48.8414 73.424469 52.776213 69.625 51.625 C 66.563235 52.40005 64.67745 55.931321 61.25 52.625 C 64.252596 56.574571 56.836969 60.747655 57.09375 59.09375 C 54.300517 56.816913 53.460997 55.079188 57.78125 56.21875 C 62.3891 52.483445 49.958934 49.08017 53.09375 56.09375 C 54.24527 60.085045 50.535527 62.363686 51.28125 60.125 C 47.850356 58.176767 41.868374 63.204924 40.21875 68.21875 L 44.9375 70.90625 C 46.972668 68.388386 51.288821 67.646645 47.375 71.875 C 47.379115 72.048032 47.405118 72.199124 47.4375 72.375 L 62.03125 80.78125 L 78 90 C 78.018349 89.999985 78.004778 67.004969 78 44.03125 C 77.482796 43.494899 76.951051 43.174913 76.5 43.25 z M 68.375 51.1875 L 68.1875 51.3125 L 68.375 51.1875 z M 68.09375 51.3125 C 67.972227 51.3061 67.83973 51.362544 68.03125 51.46875 C 68.325817 51.38804 68.215268 51.318877 68.09375 51.3125 z M 53.4375 65.65625 C 53.47595 67.196996 52.450926 66.205346 53.4375 65.65625 z "
       transform="matrix(0.8,0,0,-0.8,0,144)"
       id="path3777" /><path
       style="fill:#40a000;fill-opacity:1;fill-rule:nonzero;stroke:none"
       d="M 155.65625 45.15625 C 127.60646 57.932684 102.59621 73.740183 78.03125 90 C 76.872318 91.165821 100.9567 105.57599 122.65625 117.78125 C 121.37924 114.02609 128.14976 116.72796 130 113.46875 C 137.02841 109.32245 130.47872 103.21153 131.84375 98 C 125.90848 99.095623 131.34331 90.860824 132.15625 96.15625 C 134.56746 92.165588 138.08687 105.75919 137.4375 98 C 134.88082 90.917536 144.19357 88.174382 142.625 81.5 C 143.76602 74.375863 131.6883 75.411097 137.4375 68.21875 C 139.85975 62.212875 149.10338 67.503213 146.875 59.4375 C 148.95484 58.357044 149.57109 60.62606 151.3125 57.5 C 153.1788 62.864942 150.52246 74.664037 154.96875 76.53125 C 157.08821 70.897628 154.24513 65.546886 154.375 60.5 C 155.24811 59.867182 155.74104 58.822153 156 57.53125 L 156 50.3125 C 155.82828 48.410902 155.63568 46.602672 155.65625 45.15625 z M 141.65625 74.09375 C 141.60405 74.134631 141.6295 74.274749 141.84375 74.625 C 141.90485 75.827866 141.82336 76.995557 142.65625 78 C 143.90626 80.454155 144.91002 83.024629 145.71875 85.65625 C 145.69665 85.047409 146.91968 85.198966 146.6875 85.21875 C 146.6925 83.768897 147.1822 82.131554 145.875 81.0625 C 144.59984 79.202719 143.47085 77.208017 142.75 75.0625 C 142.57673 74.716582 141.9606 74.16749 141.71875 74.09375 C 141.68247 74.08269 141.67365 74.080123 141.65625 74.09375 z M 145.71875 85.65625 C 145.72275 85.75451 145.76277 85.85733 145.84375 86 C 145.80815 85.881412 145.75513 85.774608 145.71875 85.65625 z M 145.96875 87.09375 C 145.88455 87.10482 145.80419 87.138878 145.71875 87.21875 C 145.5514 88.809539 145.64778 90.42795 145.9375 92 C 146.69277 91.97691 146.7227 91.06418 146.0625 91.03125 C 146.36961 90.152009 148.00717 91.717649 148.46875 90.59375 C 148.66239 89.850562 149.42635 89.362502 149.625 88.8125 C 149.36054 88.169117 148.45697 88.319746 147.90625 88.3125 C 147.14046 88.39537 146.55799 87.016263 145.96875 87.09375 z M 147.03125 92.71875 C 146.78767 92.72095 146.58198 93.053929 146.53125 93.875 C 146.02085 96.164718 145.13664 98.739588 142.96875 99.90625 C 141.57818 100.44924 140.3782 101.21342 139.65625 102.5625 C 139.91409 103.43485 141.47372 105.45996 141.0625 103.28125 C 140.88973 100.21442 144.54791 102.2725 145.71875 100.75 C 148.48631 100.16417 148.4309 97.395484 148.1875 95.15625 C 148.31934 94.23237 147.56714 92.714008 147.03125 92.71875 z "
       transform="matrix(0.8,0,0,-0.8,0,144)"
       id="path3782" /><path
       style="fill:#3c9600;fill-opacity:1;fill-rule:nonzero;stroke:none"
       d="M 40.9375 66.53125 C 40.491302 67.394997 40.158834 68.282425 39.96875 69.15625 C 38.876254 72.03171 34.211936 74.393831 35.90625 75.21875 C 34.453202 76.203692 37.201326 75.688166 35.65625 78.03125 C 37.09971 80.437483 40.839497 75.523937 41.21875 80.59375 C 43.874258 84.214412 45.3567 75.33994 44.21875 74.5 C 43.36808 72.461181 44.82807 70.621448 46.34375 69.625 C 44.555537 68.590303 42.752667 67.568994 40.9375 66.53125 z M 48.3125 70.75 C 48.073955 71.080586 47.773407 71.444575 47.375 71.875 C 47.44896 74.984837 52.495044 78.599246 47.625 80.5625 C 50.505272 85.774032 39.287306 83.074943 38.5 81.5625 C 38.746207 86.670376 31.383873 86.755661 29.1875 90.78125 C 36.337202 94.855088 17.755639 96.97769 26.8125 102.0625 C 34.454821 104.7217 33.46893 88.779277 39.71875 96.34375 C 40.683693 100.17535 47.850761 101.57732 45.71875 97.625 C 42.330301 96.78695 40.943866 91.247793 45.25 95.1875 C 51.084523 98.975095 49.198241 104.13241 43.0625 105.75 C 39.655657 106.00152 41.014871 100.16165 36.3125 102.1875 C 28.524525 101.45579 24.293785 107.99429 19.71875 113.0625 C 17.39581 116.70079 17.157592 121.79736 19.34375 125.53125 C 33.645732 118.03243 47.256714 109.83835 60.5625 101.34375 C 60.205917 100.66104 59.859533 99.984099 59.46875 99.34375 C 60.388229 99.577883 61.126527 100.01432 61.78125 100.5625 C 67.214521 97.081742 72.605045 93.550295 77.96875 90 C 78.861784 89.101658 64.758323 80.310224 48.3125 70.75 z M 38.5 81.5625 C 38.4948 81.454728 38.5122 81.362335 38.5 81.25 C 38.4308 81.34625 38.44079 81.448825 38.5 81.5625 z M 35.9375 73.5625 L 35.4375 73.84375 L 35.9375 73.5625 z M 35.09375 74.0625 L 35 74.125 L 35.09375 74.0625 z M 35.03125 74.59375 L 35.125 74.6875 L 35.03125 74.59375 z M 28.0625 78.71875 C 27.700637 78.84931 27.626566 79.299214 27.65625 79.625 C 26.821853 81.815415 31.15953 83.95987 28.375 85.75 C 29.102972 86.487891 29.023718 87.255008 28.6875 87.8125 C 31.051143 89.321898 34.623895 85.865434 31.40625 84.125 C 29.220592 82.848944 30.719902 78.717145 28.0625 78.71875 z M 62.03125 80.78125 C 58.992885 83.459105 68.727131 86.460042 61.53125 86.9375 C 57.301676 88.999666 52.42039 87.521227 56.15625 82.40625 C 56.889058 81.42244 62.17159 84.557855 59.1875 82.53125 C 59.12911 81.019436 61.093675 81.253199 62.03125 80.78125 z M 26.96875 82.21875 C 26.866265 82.219503 26.771441 82.24876 26.65625 82.3125 C 26.343846 82.464631 25.653654 81.929654 25.71875 82.53125 C 25.563221 83.322878 24.037955 83.155641 24.53125 84.25 C 24.49821 84.779666 25.316323 85.373903 24.5 85.53125 C 24.155246 85.979025 24.593391 87.25931 25.28125 86.65625 C 26.064595 85.81029 26.669676 84.804029 27.25 83.8125 C 28.057335 83.597557 27.686148 82.213473 26.96875 82.21875 z M 52.90625 89.4375 C 54.187778 92.930199 65.471721 90.34796 59.90625 96.21875 C 56.12576 96.853488 47.441307 103.72538 51.84375 96.03125 C 52.259032 93.846955 51.974659 91.537874 52.90625 89.4375 z "
       transform="matrix(0.8,0,0,-0.8,0,144)"
       id="path3787" /><path
       style="fill:#3c9600;fill-opacity:1;fill-rule:nonzero;stroke:none"
       d="M 78 90 C 77.615049 90.288714 77.360066 94.39795 77.1875 100.5625 C 82.555807 102.06848 89.419473 102.64055 91.9375 106.375 C 94.846009 106.80754 95.811145 121.64557 103.59375 116 C 108.99006 111.98914 110.66713 118.6481 113.6875 120.46875 C 117.05251 121.11037 115.70595 131.10538 120.875 132.8125 C 119.09842 130.46909 113.5848 120.96048 120.4375 124.8125 C 123.42481 129.89297 126.77733 120.88788 122.90625 118.40625 C 122.25274 117.05386 122.41403 116.35985 123 115.96875 L 78 90 z M 78.0625 102.40625 C 77.78384 102.91195 77.43531 103.21173 77.09375 103.375 C 77.041485 105.80169 76.998801 108.39443 76.96875 111.25 C 80.928988 108.25205 83.461029 103.00442 78.0625 102.40625 z M 132 128.78125 C 131.83955 128.80185 131.55005 129.285 131.40625 129.4375 C 131.09388 129.79231 130.91319 130.27132 130.625 130.59375 C 130.41309 130.72271 130.27375 130.70096 130.4375 130.4375 C 129.61002 131.10433 128.72013 131.7132 128.03125 132.53125 C 127.90813 132.99381 127.39264 132.86371 127.03125 133.03125 C 126.37146 133.2134 125.7679 133.73957 125.65625 134.4375 C 125.56485 134.85583 125.56224 135.28993 125.8125 135.65625 C 126.23425 136.38839 126.90869 136.98295 127.6875 137.3125 C 127.80375 137.78715 128.26884 138.12863 128.75 138.125 C 129.27354 138.0312 129.74969 138.33161 130.25 138.09375 C 130.75194 137.89116 131.1008 137.45124 131.53125 137.15625 C 131.84369 136.98291 131.16102 136.71282 131.5 136.53125 C 132.05494 135.72013 132.55853 134.83326 133.28125 134.15625 C 133.37955 133.91111 133.74564 134.13865 133.65625 134.09375 C 133.30801 133.16226 132.8885 132.26037 132.4375 131.375 C 132.498 130.93916 133.01301 131.04177 133.3125 130.71875 C 133.46566 130.56393 134.01268 130.39925 133.90625 130.28125 C 133.26931 129.82475 132.60889 129.37695 132.0625 128.8125 C 132.046 128.7937 132.023 128.77825 132 128.78125 z M 137.6875 135.4375 C 137.53789 135.41443 137.29339 135.50995 137.15625 135.53125 C 136.50673 135.71861 135.87194 135.95482 135.25 136.21875 C 134.99811 136.09713 134.85802 135.83867 134.75 135.59375 C 134.62988 135.70118 134.62768 135.68628 134.65625 135.65625 C 134.60356 135.7008 134.57898 135.76186 134.53125 135.8125 C 134.32715 136.67173 133.97455 137.47898 133.96875 138.375 C 133.95595 138.86299 134.0174 139.36843 134.125 139.84375 C 134.31724 139.98486 134.54395 139.8517 134.78125 139.875 C 134.97328 139.9008 134.99931 139.89909 134.9375 139.71875 C 134.8962 139.08602 134.8878 138.44462 134.9375 137.8125 C 134.9531 137.8256 134.9777 137.83095 135 137.84375 C 135.45613 138.09025 135.99554 138.16373 136.5 138.25 C 136.85262 138.2927 137.20706 138.35014 137.5625 138.3125 C 137.6855 138.20858 137.30266 138.166 137.21875 138.125 C 137.07633 138.0268 136.59814 138.09369 136.78125 137.84375 C 137.11929 137.06952 137.41411 136.29221 137.78125 135.53125 C 137.75842 135.48938 137.73737 135.44519 137.6875 135.4375 z "
       transform="matrix(0.8,0,0,-0.8,0,144)"
       id="path3792" /><path
       style="fill:#388c00;fill-opacity:1;fill-rule:nonzero;stroke:none"
       d="M 78 90 L 60.84375 99.90625 C 65.776408 102.62382 65.268345 111.7806 71.1875 113.28125 C 73.361741 113.61593 75.986295 112.284 78 110.4375 C 77.999051 107.65118 78.000697 104.39863 78 102.5 C 75.258203 107.12528 68.847204 94.193314 75.0625 99.875 C 75.969341 100.22131 76.970314 100.51512 78 100.78125 C 77.999154 98.507666 78 90 78 90 z M 60.03125 100.375 L 18.6875 124.21875 C 19.424021 126.02488 20.635424 127.62899 22.375 128.75 C 27.234125 134.03543 36.730805 126.0573 40.40625 133.21875 C 40.43349 138.89699 43.567515 144.10582 42.375 150.0625 C 42.436724 153.61181 44.009602 159.76245 47 162.125 L 48.1875 162.8125 L 48.21875 162.8125 C 49.686007 163.37738 51.437188 163.0693 53.4375 161.34375 C 57.802589 155.43989 58.942142 147.46835 62.5625 141.40625 C 68.569388 136.1548 63.122392 125.46744 71.90625 121.8125 C 74.702586 119.88035 77.379101 112.46508 71.3125 115.71875 C 65.065904 112.94441 63.134452 105.93707 60.03125 100.375 z M 73.8125 135.71875 C 73.315829 136.89278 72.158652 137.57041 71.46875 138.59375 C 70.630024 138.45309 69.97515 139.35572 69.34375 139.9375 C 68.218746 141.01385 67.5658 142.95393 68.65625 144.28125 C 69.648064 145.52195 71.682555 145.52721 72.75 144.375 C 74.331121 142.84281 74.606859 140.52772 74.6875 138.4375 C 74.6776 138.23353 74.622202 138.02808 74.53125 137.84375 C 74.119596 137.30942 74.230969 135.59052 73.8125 135.71875 z "
       transform="matrix(0.8,0,0,-0.8,0,144)"
       id="path3801" /><path
       style="clip-rule:evenodd;fill:#ffffff;fill-rule:evenodd;stroke-width:37;stroke-miterlimit:10"
       d="M 76.455078 14.630859 C 75.734218 14.60445 74.9926 14.640178 74.238281 14.753906 C 70.547978 15.310294 67.796261 17.427503 66.154297 20.009766 C 65.155963 21.579753 64.463341 23.500756 64.416016 25.894531 C 64.367572 28.344519 65.130024 30.232328 66.070312 31.861328 C 66.540569 32.676016 66.963736 33.506041 67.453125 34.291016 C 68.919154 36.642641 70.503359 38.881753 71.871094 41.306641 C 73.715033 44.575691 75.238118 48.103184 76.101562 52.341797 C 77.350737 45.911047 80.203288 41.217122 83.242188 36.615234 C 84.262526 35.070359 85.278874 33.526972 86.089844 31.841797 C 86.50524 30.978509 86.971498 30.169987 87.261719 29.203125 C 87.548598 28.247913 87.752506 27.097041 87.722656 25.853516 C 87.664522 23.426353 86.970088 21.565309 85.962891 19.990234 C 84.998012 18.481147 83.729069 17.200787 82.089844 16.242188 C 80.58526 15.3624 78.617657 14.710088 76.455078 14.630859 z M 76.070312 21.783203 A 4.0834284 4.0834284 0 0 1 80.154297 25.867188 A 4.0834284 4.0834284 0 0 1 76.070312 29.951172 A 4.0834284 4.0834284 0 0 1 71.986328 25.867188 A 4.0834284 4.0834284 0 0 1 76.070312 21.783203 z "
       transform="matrix(0.8,0,0,-0.8,0,144)"
       id="svg_2" /></g></svg>