<?xml version="1.0" encoding="UTF-8" standalone="no"?>
<!-- Created with Inkscape (http://www.inkscape.org/) -->

<svg
   xmlns:dc="http://purl.org/dc/elements/1.1/"
   xmlns:cc="http://creativecommons.org/ns#"
   xmlns:rdf="http://www.w3.org/1999/02/22-rdf-syntax-ns#"
   xmlns:svg="http://www.w3.org/2000/svg"
   xmlns="http://www.w3.org/2000/svg"
   xmlns:sodipodi="http://sodipodi.sourceforge.net/DTD/sodipodi-0.dtd"
   xmlns:inkscape="http://www.inkscape.org/namespaces/inkscape"
   id="svg2"
   version="1.1"
   inkscape:version="0.48.5 r10040"
   width="156"
   height="180"
   xml:space="preserve"
   sodipodi:docname="map.svg"><metadata
     id="metadata8"><rdf:RDF><cc:Work
         rdf:about=""><dc:format>image/svg+xml</dc:format><dc:type
           rdf:resource="http://purl.org/dc/dcmitype/StillImage" /><dc:title /></cc:Work></rdf:RDF></metadata><defs
     id="defs6" /><sodipodi:namedview
     pagecolor="#ffffff"
     bordercolor="#666666"
     borderopacity="1"
     objecttolerance="10"
     gridtolerance="10"
     guidetolerance="10"
     inkscape:pageopacity="0"
     inkscape:pageshadow="2"
     inkscape:window-width="1565"
     inkscape:window-height="900"
     id="namedview4"
     showgrid="false"
     inkscape:zoom="2.82"
     inkscape:cx="76.596604"
     inkscape:cy="86.8096"
     inkscape:window-x="37"
     inkscape:window-y="0"
     inkscape:window-maximized="0"
     inkscape:current-layer="g10"
     showguides="true"
     inkscape:guide-bbox="true" /><g
     id="g10"
     inkscape:groupmode="layer"
     inkscape:label="Codefor_Hex_sticker_ALL"
     transform="matrix(1.25,0,0,-1.25,0,180)"><path
       inkscape:connector-curvature="0"
       id="path17824"
       d="M 62.399999,143.99664 0,107.99748 0.025,107.97248 0,35.999163 62.374999,0.02500362 c 0.0118,-0.02607939 0.01318,-0.03351922 0.025,-0.02495942093 L 124.8,35.999203 l -0.025,0.02496 0.025,71.973317 -62.400001,35.99916 z"
       style="fill:#e3dbdb;stroke:none;display:inline;overflow:hidden;fill-opacity:1" /><path
       inkscape:connector-curvature="0"
       id="path17818"
       d="M 124.8,94.147805 0.025,80.423125 0,68.623401 l 124.8,13.974673 0,11.549731 z"
       style="fill:#ade3ad;stroke:none;display:inline;overflow:hidden;fill-opacity:1" /><path
       style="font-size:medium;font-style:normal;font-variant:normal;font-weight:normal;font-stretch:normal;text-indent:0;text-align:start;text-decoration:none;line-height:normal;letter-spacing:normal;word-spacing:normal;text-transform:none;direction:ltr;block-progression:tb;writing-mode:lr-tb;text-anchor:start;baseline-shift:baseline;color:#000000;fill:#cfc1c1;fill-opacity:1;stroke:none;stroke-width:10;marker:none;visibility:visible;display:inline;overflow:visible;enable-background:accumulate;font-family:Sans;-inkscape-font-specification:Sans"
       d="M 109 17.875 L 33.65625 25.59375 L 26.40625 29.78125 L 114.09375 20.8125 L 109 17.875 z M 15.5 36.0625 L 12.25 37.9375 L 16.46875 77.78125 C 16.927331 80.268215 20.110626 79.277226 19.90625 77.40625 L 15.5 36.0625 z M 69.59375 86.9375 L 66.59375 87.25 L 72.59375 149.875 L 32.84375 153.9375 L 37.96875 156.90625 L 72.90625 153.34375 L 75.3125 178.4375 L 77.96875 179.96875 C 77.9835 180.00135 77.985225 180.0107 78 180 L 78.46875 179.71875 L 75.90625 153.03125 L 135.1875 147 L 142.5625 142.75 L 75.59375 149.59375 L 69.59375 86.9375 z M 155.96875 111.28125 L 120.03125 115.03125 C 117.52161 115.4705 118.49369 118.68271 120.375 118.46875 L 155.96875 114.75 L 155.96875 111.28125 z "
       transform="matrix(0.8,0,0,-0.8,0,144)"
       id="path17788" /><path
       style="fill:#afc6e9;stroke:none;stroke-width:1px;stroke-linecap:butt;stroke-linejoin:miter;stroke-opacity:1;fill-opacity:1"
       d="M 156 76.4375 L 118.09375 81.0625 L 123.4375 153.78125 L 156 135 L 155.96875 134.96875 L 156 76.4375 z "
       transform="matrix(0.8,0,0,-0.8,0,144)"
       id="path34256" /><path
       inkscape:connector-curvature="0"
       id="path17784"
       d="m 85.649999,130.57195 3.7,-36.074154 L 0.025,84.748024 l 0,-5.54987 11.675,1.27497 0.9,-7.199832 -12.6,-1.349968 0,-5.57487 13.275,1.424967 5.225,-42.449008 5.975,-3.44992 -5.7,46.498914 72.424999,7.849816 5.75,-56.298684 L 102.2,22.949468 96.699999,76.823209 124.8,79.873138 l 0,5.54987 -28.650001,-3.099927 -0.75,7.27483 29.400001,3.199925 0,5.57487 -29.975001,-3.274924 -3.275,32.074248 -5.9,3.39992 z m 4.25,-41.574025 0.75,-7.27483 L 18.1,73.873278 17.2,81.07311 89.899999,88.997925 z"
       style="font-size:medium;font-style:normal;font-variant:normal;font-weight:normal;font-stretch:normal;text-indent:0;text-align:start;text-decoration:none;line-height:normal;letter-spacing:normal;word-spacing:normal;text-transform:none;direction:ltr;block-progression:tb;writing-mode:lr-tb;text-anchor:start;baseline-shift:baseline;color:#000000;fill:#ffe791;fill-opacity:1;stroke:none;stroke-width:20;marker:none;visibility:visible;display:inline;overflow:visible;enable-background:accumulate;font-family:Sans;-inkscape-font-specification:Sans" /><path
       transform="matrix(0.8,0,0,-0.8,0,144)"
       style="fill:#ffffff;fill-opacity:1;stroke:none"
       d="m 81.914893,26.099291 c 0,3.721067 -2.857757,6.737589 -6.382979,6.737589 -3.525222,0 -6.382979,-3.016522 -6.382979,-6.737589 0,-3.721068 2.857757,-6.737589 6.382979,-6.737589 3.525222,0 6.382979,3.016521 6.382979,6.737589 z"
       id="path2988" /><path
       style="clip-rule:evenodd;fill:#c83737;fill-rule:evenodd;stroke-width:37;stroke-miterlimit:10"
       d="M 76.455078 14.630859 C 75.734218 14.60445 74.9926 14.640178 74.238281 14.753906 C 70.547978 15.310294 67.796261 17.427503 66.154297 20.009766 C 65.155963 21.579753 64.463341 23.500756 64.416016 25.894531 C 64.367572 28.344519 65.130024 30.232328 66.070312 31.861328 C 66.540569 32.676016 66.963736 33.506041 67.453125 34.291016 C 68.919154 36.642641 70.503359 38.881753 71.871094 41.306641 C 73.715033 44.575691 75.238118 48.103184 76.101562 52.341797 C 77.350737 45.911047 80.203288 41.217122 83.242188 36.615234 C 84.262526 35.070359 85.278874 33.526972 86.089844 31.841797 C 86.50524 30.978509 86.971498 30.169987 87.261719 29.203125 C 87.548598 28.247913 87.752506 27.097041 87.722656 25.853516 C 87.664522 23.426353 86.970088 21.565309 85.962891 19.990234 C 84.998012 18.481147 83.729069 17.200787 82.089844 16.242188 C 80.58526 15.3624 78.617657 14.710088 76.455078 14.630859 z M 76.070312 21.783203 A 4.0834284 4.0834284 0 0 1 80.154297 25.867188 A 4.0834284 4.0834284 0 0 1 76.070312 29.951172 A 4.0834284 4.0834284 0 0 1 71.986328 25.867188 A 4.0834284 4.0834284 0 0 1 76.070312 21.783203 z "
       transform="matrix(0.8,0,0,-0.8,0,144)"
       id="svg_2" /></g></svg>