<?xml version="1.0" encoding="UTF-8" standalone="no"?>
<!-- Created with Inkscape (http://www.inkscape.org/) -->

<svg
   xmlns:dc="http://purl.org/dc/elements/1.1/"
   xmlns:cc="http://creativecommons.org/ns#"
   xmlns:rdf="http://www.w3.org/1999/02/22-rdf-syntax-ns#"
   xmlns:svg="http://www.w3.org/2000/svg"
   xmlns="http://www.w3.org/2000/svg"
   xmlns:xlink="http://www.w3.org/1999/xlink"
   xmlns:sodipodi="http://sodipodi.sourceforge.net/DTD/sodipodi-0.dtd"
   xmlns:inkscape="http://www.inkscape.org/namespaces/inkscape"
   id="svg2"
   version="1.1"
   inkscape:version="0.91 r13725"
   width="156"
   height="180"
   xml:space="preserve"
   sodipodi:docname="map.svg"><metadata
     id="metadata8"><rdf:RDF><cc:Work
         rdf:about=""><dc:format>image/svg+xml</dc:format><dc:type
           rdf:resource="http://purl.org/dc/dcmitype/StillImage" /><dc:title /></cc:Work></rdf:RDF></metadata><defs
     id="defs6"><clipPath
       clipPathUnits="userSpaceOnUse"
       id="clipPath24"><path
         d="m 0,198.425 198.425,0 L 198.425,0 0,0 0,198.425 z"
         id="path26"
         inkscape:connector-curvature="0" /></clipPath><defs
       id="defs4831"><polygon
         points="307,38.398 153,0 153,460.797 307,499.199 "
         id="XMLID_3_" /></defs><clipPath
       id="XMLID_9_"><use
         id="use4837"
         overflow="visible"
         xlink:href="#XMLID_3_"
         style="overflow:visible"
         x="0"
         y="0"
         width="100%"
         height="100%" /></clipPath><defs
       id="defs4783"><polygon
         points="461,0 307,38.398 307,499.199 461,460.797 "
         id="XMLID_2_" /></defs><clipPath
       id="XMLID_8_"><use
         id="use4789"
         overflow="visible"
         xlink:href="#XMLID_2_"
         style="overflow:visible"
         x="0"
         y="0"
         width="100%"
         height="100%" /></clipPath><defs
       id="defs4735"><polygon
         points="614,38.398 461,0 461,460.797 614,499.199 "
         id="XMLID_1_" /></defs><clipPath
       id="XMLID_7_"><use
         id="use4741"
         overflow="visible"
         xlink:href="#XMLID_1_"
         style="overflow:visible"
         x="0"
         y="0"
         width="100%"
         height="100%" /></clipPath></defs><sodipodi:namedview
     pagecolor="#ffffff"
     bordercolor="#666666"
     borderopacity="1"
     objecttolerance="10"
     gridtolerance="10"
     guidetolerance="10"
     inkscape:pageopacity="0"
     inkscape:pageshadow="2"
     inkscape:window-width="1440"
     inkscape:window-height="800"
     id="namedview4"
     showgrid="false"
     inkscape:zoom="3.3222222"
     inkscape:cx="70.926421"
     inkscape:cy="90"
     inkscape:window-x="0"
     inkscape:window-y="1"
     inkscape:window-maximized="1"
     inkscape:current-layer="g10"
     showguides="true"
     inkscape:guide-bbox="true" /><g
     id="g10"
     inkscape:groupmode="layer"
     inkscape:label="Codefor_Hex_sticker_ALL"
     transform="matrix(1.25,0,0,-1.25,0,180)"><path
       sodipodi:nodetypes="ccccc"
       id="path3176-5"
       style="fill:#6000f0;fill-opacity:1;fill-rule:nonzero;stroke:none"
       d="M 62.4,72 0,108 l 0,0 62.4,36 c 0,0 0.02874,-71.999977 0,-72 z"
       inkscape:connector-curvature="0" /><path
       inkscape:connector-curvature="0"
       d="m 62.399973,72 62.399997,36 0,0 -62.399997,36 c -0.300945,0 -0.298879,-71.999977 0,-72 z"
       style="fill:#6400fa;fill-opacity:1;fill-rule:nonzero;stroke:none"
       id="path3178"
       sodipodi:nodetypes="ccccc" /><path
       inkscape:connector-curvature="0"
       d="M 62.4,0 0,36 0,36 62.4,72 c 0,0 0.02874,-71.999977240587 0,-72 z"
       style="fill:#5800dc;fill-opacity:1;fill-rule:nonzero;stroke:none"
       id="path2988"
       sodipodi:nodetypes="ccccc" /><path
       inkscape:connector-curvature="0"
       d="M 62.376794,72.005095 C 42.644373,58.943991 22.551707,46.242983 0,36 l 0,0 0.02308996,71.97025 C 1.223723,109.17038 64.033024,73.67117 62.376794,72.005095 Z"
       style="fill:#5c00e6;fill-opacity:1;fill-rule:nonzero;stroke:none"
       id="path3180"
       sodipodi:nodetypes="ccccc" /><path
       sodipodi:nodetypes="ccccc"
       id="path3182"
       style="fill:#6000f0;fill-opacity:1;fill-rule:nonzero;stroke:none"
       d="M 62.423396,71.994906 C 82.155817,85.05601 102.24848,97.757018 124.80019,108 l 0,0 -0.0231,-71.970249 c -1.20063,-1.20013 -64.009934,34.29908 -62.353704,35.965155 z"
       inkscape:connector-curvature="0" /><path
       sodipodi:nodetypes="ccccc"
       id="path3174"
       style="fill:#5c00e6;fill-opacity:1;fill-rule:nonzero;stroke:none"
       d="m 62.399973,0 62.399997,36 0,0 -62.399997,36 c -1.498971,-1.124229 -0.7564,-72.5457219 0,-72 z"
       inkscape:connector-curvature="0" /><path
       style="fill:#5aa02c"
       d="m 92.041016,28.076172 c 1.097502,5.840525 -9.472977,4.469731 -6.515625,10.917969 -6.399733,-0.350775 2.109932,5.75211 -3.677735,4.263671 -0.06545,4.310277 -4.916651,-3.91795 -2.460937,2.3125 1.93171,2.47935 8.382602,6.171272 1.59375,7.404297 1.24037,-3.3637 -4.636075,-14.602068 -5.771485,-7.324218 1.626214,3.203887 4.479672,7.177712 -0.960937,3.710937 -3.374211,-0.5336 -0.839203,3.416838 -4.638672,2.265625 -3.061765,0.77505 -4.9163,4.308274 -8.34375,1.001953 3.002596,3.949571 -4.42475,8.120702 -4.167969,6.466797 -2.793233,-2.276837 -3.640565,-4.024327 0.679688,-2.884765 4.60785,-3.735305 -7.810598,-7.136627 -4.675782,-0.123047 1.15152,3.991295 -2.558223,6.287514 -1.8125,4.048828 -3.643573,-2.069003 -10.178454,3.731325 -11.330078,9.02539 -1.092496,2.87546 -5.752907,5.225863 -4.058593,6.050782 -1.453048,0.984942 1.289216,0.477228 -0.25586,2.820312 1.44346,2.406233 5.204732,-2.519032 5.583985,2.550781 2.655508,3.620662 4.139903,-5.236232 3.001953,-6.076172 -1.983965,-4.755013 8.602199,-8.54471 3.144531,-2.648437 0.07396,3.109837 5.127856,6.739871 0.257812,8.703125 2.880272,5.211532 -8.331834,2.500724 -9.11914,0.988281 0.246207,5.107876 -7.133705,5.199021 -9.330078,9.22461 7.149702,4.073838 -11.429908,6.206209 -2.373047,11.291019 7.642321,2.6592 6.668149,-13.289086 12.917969,-5.724613 0.964943,3.831603 8.130057,5.245293 5.998046,1.292969 -3.388449,-0.83805 -4.788555,-6.383067 -0.482421,-2.44336 5.834523,3.787595 3.952147,8.956624 -2.183594,10.574214 -3.406843,0.25152 -2.061301,-5.60397 -6.763672,-3.57812 -7.787975,-0.73171 -12.001137,5.81656 -16.576172,10.88477 -3.103966,4.86157 -2.501134,12.34585 2.660156,15.67187 4.859125,5.28543 14.344087,-2.67903 18.019532,4.48242 0.02724,5.67824 3.17103,10.88317 1.978515,16.83985 0.09664,5.55706 3.887418,17.45755 11.044922,11.2832 4.365089,-5.90386 5.508548,-13.88517 9.128906,-19.94727 6.006888,-5.25145 0.58333,-15.9349 9.367188,-19.58984 2.796336,-1.93215 5.455273,-9.34156 -0.611328,-6.08789 -6.631237,-2.94517 -8.381767,-10.69195 -11.853516,-16.38086 6.453751,1.64336 5.30483,12.30894 11.728516,13.9375 5.766475,0.88762 14.762162,-10.00564 6.863281,-10.88086 -2.707814,4.91407 -9.240367,-8.240037 -2.980469,-2.517578 5.513594,2.105588 14.005339,2.226408 16.871094,6.476568 2.908509,0.43254 3.873645,15.28619 11.65625,9.64062 5.39631,-4.01086 7.089,2.65201 10.10937,4.47266 3.36501,0.64162 1.99697,10.6171 7.16602,12.32422 -1.77658,-2.34341 -7.27653,-11.84421 -0.42383,-7.99219 2.98731,5.08047 6.34569,-3.91486 2.47461,-6.39649 -2.27498,-4.70791 5.13637,-1.50089 7.08399,-4.93164 7.02841,-4.1463 0.48262,-10.27089 1.84765,-15.482419 -5.93527,1.095623 -0.49848,-7.131364 0.31446,-1.835938 2.41121,-3.990662 5.91304,9.604897 5.26367,1.845703 -2.55668,-7.082464 6.75411,-9.835383 5.18554,-16.509765 1.14102,-7.124137 -10.93865,-6.088903 -5.18945,-13.28125 2.42225,-6.005875 11.67174,-0.71749 9.44336,-8.783203 2.07984,-1.080456 2.70976,1.202231 4.45117,-1.923829 1.8663,5.364942 -0.79004,17.146459 3.65625,19.013672 2.11946,-5.633622 -0.72752,-10.972645 -0.59765,-16.019531 3.38218,-2.451362 1.11086,-11.203784 1.28711,-15.693359 l -9.91993,-5.722657 c -2.2035,0.4701 2.4945,5.402863 -1.80078,2.171875 -3.48488,1.14965 -6.38332,3.298288 -9.19531,-0.04687 -5.43805,1.495963 -9.47653,-0.198987 -12.46094,-0.5625 -3.56436,1.498763 2.20979,5.205937 -3.45898,3.751954 -3.41671,-0.3115 0.37625,5.078746 -3.41602,1.498046 -1.63584,-3.875225 -4.99256,-2.557696 -7.23633,-2.677734 -1.27999,-4.353937 -7.19264,-13.276056 -9.617183,-4.933594 1.646723,-6.5458 2.815993,-9.443509 -6.519531,-10.208984 z M 38.513672,81.550781 c -0.0052,-0.107772 0.0063,-0.204071 -0.0059,-0.316406 -0.0692,0.09625 -0.05331,0.202731 0.0059,0.316406 z m 49.4375,-48.302734 0.05078,0.07227 z M 85.53125,44.525391 c 1.925727,0.9406 -0.960725,2.379325 0,0 z m 0.835938,0.818359 c 3.199936,1.009338 2.08377,3.949925 0,0 z m -17.996094,5.84375 -0.199219,0.134766 z m -0.267578,0.132812 c -0.121523,-0.0064 -0.26965,0.03442 -0.07813,0.140626 0.294567,-0.08071 0.199648,-0.134249 0.07813,-0.140626 z M 53.423828,65.658203 c 0.03845,1.540746 -0.986574,0.549096 0,0 z m -17.496094,7.896485 -0.501953,0.298828 z m -0.820312,0.519531 -0.103516,0.06055 z m 106.619138,0.0059 c -0.14511,-0.04424 -0.16066,0.08964 0.125,0.556641 0.0611,1.202866 -0.0282,2.354932 0.80469,3.359375 1.25001,2.454155 2.25182,5.028535 3.06055,7.660156 -0.0221,-0.608841 1.21265,-0.445565 0.98047,-0.425781 0.005,-1.449853 0.48102,-3.112587 -0.82618,-4.181641 -1.27516,-1.859781 -2.4061,-3.834952 -3.12695,-5.980469 -0.17327,-0.345918 -0.77573,-0.914541 -1.01758,-0.988281 z m 3.99024,11.576172 c 0.004,0.09826 0.0323,0.210846 0.11328,0.353516 -0.0356,-0.118588 -0.0769,-0.235158 -0.11328,-0.353516 z M 35.033203,74.599609 l 0.08008,0.103516 z M 28.0625,78.722656 c -0.361863,0.13056 -0.432028,0.59023 -0.402344,0.916016 -0.834397,2.190415 3.489608,4.336823 0.705078,6.126953 0.727972,0.737891 0.646765,1.475711 0.310547,2.033203 2.363643,1.509398 5.953973,-1.945113 2.736328,-3.685547 -2.185658,-1.276056 -0.692207,-5.39223 -3.349609,-5.390625 z m 33.96875,2.070313 c -3.038365,2.677855 6.690022,5.682698 -0.505859,6.160156 -4.229574,2.062166 -9.097189,0.568102 -5.361329,-4.546875 0.732808,-0.98381 6.001669,2.139886 3.017579,0.113281 -0.05839,-1.511814 1.912034,-1.254613 2.849609,-1.726562 z m -35.054688,1.435547 c -0.102485,7.53e-4 -0.212933,0.03001 -0.328124,0.09375 -0.312404,0.152131 -0.994784,-0.380893 -0.929688,0.220703 -0.155529,0.791628 -1.684701,0.599 -1.191406,1.693359 -0.03304,0.529666 0.787023,1.131716 -0.0293,1.289063 -0.344754,0.447775 0.09925,1.720247 0.787109,1.117187 0.783345,-0.84596 1.370848,-1.854174 1.951172,-2.845703 0.807335,-0.214943 0.457632,-1.573636 -0.259766,-1.568359 z m 119.001958,4.859375 c -0.0842,0.01107 -0.16847,0.05294 -0.25391,0.132812 -0.16735,1.590789 -0.0866,3.203341 0.20312,4.775391 0.75527,-0.02309 0.78325,-0.918242 0.12305,-0.951172 0.30711,-0.879241 1.94662,0.680539 2.4082,-0.44336 0.19364,-0.743188 0.97909,-1.244919 1.17774,-1.794921 -0.26446,-0.643383 -1.1778,-0.475176 -1.72852,-0.482422 -0.76579,0.08287 -1.34044,-1.313815 -1.92968,-1.236328 z m -93.082036,2.363281 c 1.281528,3.492699 12.571331,0.902647 7.00586,6.773437 -3.78049,0.634738 -12.468849,7.512491 -8.066406,-0.18164 0.415282,-2.184295 0.128955,-4.491423 1.060546,-6.591797 z m 94.124996,3.279297 c -0.24358,0.0022 -0.44145,0.315648 -0.49218,1.136719 -0.5104,2.289718 -1.39657,4.876306 -3.56446,6.042968 -1.39057,0.542994 -2.57297,1.318884 -3.29492,2.667964 0.25784,0.87235 1.79599,2.88184 1.38477,0.70313 -0.17277,-3.06683 3.48541,-1.02242 4.65625,-2.54492 2.76756,-0.58583 2.71215,-3.344752 2.46875,-5.583986 0.13184,-0.92388 -0.62232,-2.426617 -1.15821,-2.421875 z M 132.00781,128.7793 c -0.16045,0.0206 -0.45776,0.51547 -0.60156,0.66797 -0.31237,0.35481 -0.50478,0.83186 -0.79297,1.15429 -0.21191,0.12896 -0.33953,0.0994 -0.17578,-0.16406 -0.82748,0.66683 -1.72128,1.27765 -2.41016,2.0957 -0.12312,0.46256 -0.64056,0.3266 -1.00195,0.49414 -0.65979,0.18215 -1.25163,0.69661 -1.36328,1.39454 -0.0914,0.41833 -0.0862,0.87586 0.16406,1.24218 0.42175,0.73214 1.08447,1.32475 1.86328,1.6543 0.11625,0.47465 0.56962,0.7966 1.05078,0.79297 0.52354,-0.0938 1.01532,0.23586 1.51563,-0.002 0.50194,-0.20259 0.83908,-0.65228 1.26953,-0.94727 0.31244,-0.17334 -0.35658,-0.4571 -0.0176,-0.63867 0.55494,-0.81112 1.05072,-1.68432 1.77344,-2.36133 0.0983,-0.24514 0.47611,-0.0235 0.38672,-0.0684 -0.34824,-0.93149 -0.78338,-1.82752 -1.23438,-2.71289 0.0605,-0.43584 0.57356,-0.32932 0.87305,-0.65234 0.15316,-0.15482 0.70409,-0.33513 0.59766,-0.45313 -0.63694,-0.4565 -1.28955,-0.90821 -1.83594,-1.47266 -0.0165,-0.0188 -0.0376,-0.0264 -0.0606,-0.0234 z m 2.74219,6.77734 c 0.004,0.008 0.008,0.0171 0.0117,0.0254 -0.24024,0.21485 0,0 -0.0117,-0.0254 z m 0.0117,0.0254 c -0.0812,0.0705 -0.166,0.13607 -0.24024,0.21485 -0.2041,0.85923 -0.5606,1.69577 -0.5664,2.59179 -0.0128,0.48799 0.0506,0.97585 0.1582,1.45117 0.19224,0.14111 0.42286,0.0236 0.66016,0.0469 0.19203,0.0258 0.2122,6.5e-4 0.15039,-0.17969 -0.0413,-0.63273 -0.0243,-1.26827 0.0254,-1.90039 0.0156,0.0131 0.0265,0.0263 0.0488,0.0391 0.45613,0.2465 0.98382,0.31217 1.48828,0.39844 0.35262,0.0427 0.70901,0.10404 1.06445,0.0664 0.123,-0.10392 -0.25984,-0.16017 -0.34375,-0.20117 -0.14242,-0.0982 -0.61866,-0.0196 -0.43555,-0.26954 0.33804,-0.77423 0.64849,-1.5613 1.01563,-2.32226 -0.0913,-0.16749 -0.45581,-0.003 -0.63867,0.0254 -0.64952,0.18736 -1.28627,0.42162 -1.90821,0.68555 -0.25189,-0.12162 -0.37049,-0.40157 -0.47851,-0.64649 z m -60.935548,0.13086 c -0.496671,1.17403 -1.651895,1.86924 -2.341797,2.89258 -0.838726,-0.14066 -1.511178,0.74439 -2.142578,1.32617 -1.125004,1.07635 -1.789669,3.02424 -0.699219,4.35156 0.991814,1.2407 3.034118,1.24991 4.101563,0.0977 1.581121,-1.53219 1.854906,-3.86681 1.935547,-5.95703 -0.0099,-0.20397 -0.04772,-0.40942 -0.138672,-0.59375 -0.411654,-0.53433 -0.296375,-2.24542 -0.714844,-2.11719 z"
       transform="matrix(0.8,0,0,-0.8,0,144)"
       id="path5341-3"
       inkscape:connector-curvature="0"
       sodipodi:nodetypes="ccccccccccccccccccccccccccccccccccccccccccccccccccccccccccccccccccccccccccccccccccccccccccsccccccscccccccccccccccccsccccccsccccccccccccsccccccsccccccccccccccccccccccccccccccccccccccccccccccc" /><path
       style="clip-rule:evenodd;fill:#ffffff;fill-rule:evenodd;stroke-width:37;stroke-miterlimit:10"
       d="M 76.455078 14.630859 C 75.734218 14.60445 74.9926 14.640178 74.238281 14.753906 C 70.547978 15.310294 67.796261 17.427503 66.154297 20.009766 C 65.155963 21.579753 64.463341 23.500756 64.416016 25.894531 C 64.367572 28.344519 65.130024 30.232328 66.070312 31.861328 C 66.540569 32.676016 66.963736 33.506041 67.453125 34.291016 C 68.919154 36.642641 70.503359 38.881753 71.871094 41.306641 C 73.715033 44.575691 75.238118 48.103184 76.101562 52.341797 C 77.350737 45.911047 80.203288 41.217122 83.242188 36.615234 C 84.262526 35.070359 85.278874 33.526972 86.089844 31.841797 C 86.50524 30.978509 86.971498 30.169987 87.261719 29.203125 C 87.548598 28.247913 87.752506 27.097041 87.722656 25.853516 C 87.664522 23.426353 86.970088 21.565309 85.962891 19.990234 C 84.998012 18.481147 83.729069 17.200787 82.089844 16.242188 C 80.58526 15.3624 78.617657 14.710088 76.455078 14.630859 z M 76.070312 21.783203 A 4.0834284 4.0834284 0 0 1 80.154297 25.867188 A 4.0834284 4.0834284 0 0 1 76.070312 29.951172 A 4.0834284 4.0834284 0 0 1 71.986328 25.867188 A 4.0834284 4.0834284 0 0 1 76.070312 21.783203 z "
       transform="matrix(0.8,0,0,-0.8,0,144)"
       id="svg_2" /></g></svg>