<?xml version="1.0" encoding="UTF-8" standalone="no"?>
<!-- Created with Inkscape (http://www.inkscape.org/) -->

<svg
   xmlns:dc="http://purl.org/dc/elements/1.1/"
   xmlns:cc="http://creativecommons.org/ns#"
   xmlns:rdf="http://www.w3.org/1999/02/22-rdf-syntax-ns#"
   xmlns:svg="http://www.w3.org/2000/svg"
   xmlns="http://www.w3.org/2000/svg"
   xmlns:sodipodi="http://sodipodi.sourceforge.net/DTD/sodipodi-0.dtd"
   xmlns:inkscape="http://www.inkscape.org/namespaces/inkscape"
   id="svg2"
   version="1.1"
   inkscape:version="0.48.5 r10040"
   width="156"
   height="180"
   xml:space="preserve"
   sodipodi:docname="market.svg"><metadata
     id="metadata8"><rdf:RDF><cc:Work
         rdf:about=""><dc:format>image/svg+xml</dc:format><dc:type
           rdf:resource="http://purl.org/dc/dcmitype/StillImage" /><dc:title /></cc:Work></rdf:RDF></metadata><defs
     id="defs6"><clipPath
       clipPathUnits="userSpaceOnUse"
       id="clipPath24"><path
         d="m 0,198.425 198.425,0 L 198.425,0 0,0 0,198.425 z"
         id="path26"
         inkscape:connector-curvature="0" /></clipPath><clipPath
       id="clipPath24-9"
       clipPathUnits="userSpaceOnUse"><path
         inkscape:connector-curvature="0"
         id="path26-7"
         d="m 0,198.425 198.425,0 L 198.425,0 0,0 0,198.425 z" /></clipPath><clipPath
       id="clipPath24-3"
       clipPathUnits="userSpaceOnUse"><path
         inkscape:connector-curvature="0"
         id="path26-6"
         d="m 0,198.425 198.425,0 L 198.425,0 0,0 0,198.425 z" /></clipPath><clipPath
       clipPathUnits="userSpaceOnUse"
       id="clipPath24-9-0"><path
         d="m 0,198.425 198.425,0 L 198.425,0 0,0 0,198.425 z"
         id="path26-1"
         inkscape:connector-curvature="0" /></clipPath><clipPath
       clipPathUnits="userSpaceOnUse"
       id="clipPath24-1"><path
         d="m 0,198.425 198.425,0 L 198.425,0 0,0 0,198.425 z"
         id="path26-3"
         inkscape:connector-curvature="0" /></clipPath><clipPath
       id="clipPath24-6"
       clipPathUnits="userSpaceOnUse"><path
         id="path26-8"
         d="m 19.842,82.579 411.315,0 0,324.902 -411.315,0 0,-324.902 z" /></clipPath><clipPath
       id="clipPath24-5"
       clipPathUnits="userSpaceOnUse"><path
         inkscape:connector-curvature="0"
         id="path26-2"
         d="m 0,198.425 198.425,0 L 198.425,0 0,0 0,198.425 z" /></clipPath></defs><sodipodi:namedview
     pagecolor="#ffffff"
     bordercolor="#666666"
     borderopacity="1"
     objecttolerance="10"
     gridtolerance="10"
     guidetolerance="10"
     inkscape:pageopacity="0"
     inkscape:pageshadow="2"
     inkscape:window-width="1263"
     inkscape:window-height="888"
     id="namedview4"
     showgrid="false"
     inkscape:zoom="4.0666667"
     inkscape:cx="78.000002"
     inkscape:cy="90"
     inkscape:window-x="0"
     inkscape:window-y="1"
     inkscape:window-maximized="0"
     inkscape:current-layer="g10"
     showguides="true"
     inkscape:guide-bbox="true"
     inkscape:snap-global="false"
     inkscape:snap-to-guides="false"
     inkscape:snap-grids="false" /><g
     id="g10"
     inkscape:groupmode="layer"
     inkscape:label="Codefor_Hex_sticker_ALL"
     transform="matrix(1.25,0,0,-1.25,0,180)"><path
       id="path14"
       style="fill:#ac9393;fill-opacity:1;fill-rule:nonzero;stroke:none"
       d="M 124.8,35.99975 62.4,-1.6e-7 0,35.99975 0,108 l 62.4,36 62.4,-35.99975 z"
       inkscape:connector-curvature="0"
       sodipodi:nodetypes="ccccccc" /><g
       id="Layer_1"
       transform="matrix(0.8,0,0,-0.8,-239.39999,131.01455)" /><g
       id="Layer_3"
       transform="matrix(0.8,0,0,-0.8,-239.39999,131.01455)" /><g
       id="Layer_5"
       transform="matrix(0.8,0,0,-0.8,-239.39999,131.01455)" /><g
       id="Layer_4"
       transform="matrix(0.8,0,0,-0.8,-239.39999,131.01455)" /><g
       id="Layer_6"
       transform="matrix(0.8,0,0,-0.8,-239.39999,131.01455)"><g
         id="g5378" /><g
         id="g5380" /><g
         id="g5382" /><g
         id="g5384" /><g
         id="g5386" /><g
         id="g5388" /></g><path
       style="fill:#ffaacc;fill-opacity:1;stroke:none"
       d="M 78 0 L 78 45 L 78 48.28125 C 78 51.88225 80.899 54.78125 84.5 54.78125 C 88.101 54.78125 91 51.88225 91 48.28125 L 91 45 L 85.59375 4.375 L 78 0 z M 61.46875 9.53125 L 50.6875 15.75 L 39 45 L 39 48.28125 C 39 51.88225 41.899 54.78125 45.5 54.78125 C 49.100999 54.78125 52 51.88225 52 48.28125 L 52 45 L 61.46875 9.53125 z M 105.3125 15.75 L 117 45 L 117 48.28125 C 117 51.88225 119.899 54.78125 123.5 54.78125 C 127.101 54.78125 130 51.88225 130 48.28125 L 130 45 L 118.4375 23.34375 L 105.3125 15.75 z M 21.03125 32.875 L 0.1875 44.90625 L 0 45.125 L 0 48.28125 C -5.9211895e-16 51.88225 2.8990001 54.78125 6.5 54.78125 C 10.101 54.78125 13 51.88225 13 48.28125 L 13 44.875 L 21.03125 32.875 z M 0 124.625 L 0 135 L 13 142.5 L 13 124.625 L 0 124.625 z M 39 124.625 L 39 157.5 L 52 165 L 52 124.625 L 39 124.625 z M 78 124.625 L 78 180 L 91 172.5 L 91 124.625 L 78 124.625 z M 117 124.625 L 117 157.5 L 130 150 L 130 124.625 L 117 124.625 z "
       transform="matrix(0.8,0,0,-0.8,0,144)"
       id="rect3047" /><path
       style="fill:#ffffff;fill-opacity:1;stroke:none"
       d="M 70.40625 4.375 L 61.46875 9.53125 L 52 45 L 52 48.28125 C 52 51.88225 54.899 54.78125 58.5 54.78125 C 62.101 54.78125 65 51.88225 65 48.28125 C 65 48.178825 64.999962 47.12075 65 45 C 65.000001 44.936582 69.455175 11.497527 70.40625 4.375 z M 85.59375 4.375 L 91 44.875 L 91 48.28125 C 91 51.88225 93.899 54.78125 97.5 54.78125 C 101.101 54.78125 104 51.88225 104 48.28125 L 104 45.125 L 94.53125 9.53125 L 85.59375 4.375 z M 118.40625 23.3125 L 130 45.125 L 130 48.28125 C 130 51.88225 132.899 54.78125 136.5 54.78125 C 140.101 54.78125 143 51.88225 143 48.28125 L 143 44.875 L 134.96875 32.875 L 118.40625 23.3125 z M 37.5625 23.34375 L 21.125 32.8125 L 13 45 L 13 48.28125 C 13 51.88225 15.899001 54.78125 19.5 54.78125 C 23.101 54.78125 26 51.88225 26 48.28125 L 26 45 L 37.5625 23.34375 z M 13 124.625 L 13 142.5 L 26 150 L 26 124.625 L 13 124.625 z M 52 124.625 L 52 165 L 65 172.5 L 65 124.625 L 52 124.625 z M 91 124.625 L 91 172.5 L 104 165 L 104 124.625 L 91 124.625 z M 130 124.625 L 130 150 L 143 142.5 L 143 124.625 L 130 124.625 z "
       transform="matrix(0.8,0,0,-0.8,0,144)"
       id="rect3055" /><path
       style="fill:#80e6ff;fill-opacity:1;stroke:none"
       d="M 78 0 L 70.40625 4.375 L 65 45 L 65 48.28125 C 65 51.88225 67.899 54.78125 71.5 54.78125 C 75.101 54.78125 78 51.88225 78 48.28125 L 78 45 L 78 0 z M 94.53125 9.53125 L 104 45 L 104 48.28125 C 104 51.88225 106.899 54.78125 110.5 54.78125 C 114.101 54.78125 117 51.88225 117 48.28125 L 117 45 L 105.3125 15.75 L 94.53125 9.53125 z M 50.6875 15.75 L 37.5625 23.34375 L 26 45 L 26 48.28125 C 26 51.88225 28.899 54.78125 32.5 54.78125 C 36.101 54.78125 39 51.88225 39 48.28125 L 39 45 L 50.6875 15.75 z M 134.875 32.8125 L 143 45 L 143 48.28125 C 143 51.88225 145.899 54.78125 149.5 54.78125 C 153.101 54.78125 156 51.88225 156 48.28125 L 156 45 L 134.875 32.8125 z M 26 124.625 L 26 150 L 39 157.5 L 39 124.625 L 26 124.625 z M 65 124.625 L 65 172.5 L 78 180 L 78 124.625 L 65 124.625 z M 104 124.625 L 104 165 L 117 157.5 L 117 124.625 L 104 124.625 z M 143 124.625 L 143 142.5 L 156 135 L 156 124.625 L 143 124.625 z "
       transform="matrix(0.8,0,0,-0.8,0,144)"
       id="rect3071" /><path
       style="fill:none;stroke:#000000;stroke-width:0.80000000999999998;stroke-linecap:square;stroke-linejoin:miter;stroke-miterlimit:4;stroke-opacity:0.15705130000000000;stroke-dasharray:none"
       d="M 0.40003419,107.6 124.3999,107.6"
       id="path3873"
       inkscape:connector-curvature="0" /><path
       style="fill:#00b1dc;fill-opacity:1;stroke:none"
       d="m 36.039343,122.91907 c 17.042467,8.50485 34.621786,8.41604 52.721315,0 l 0,-10.25022 -52.721315,0 z"
       id="rect3907"
       inkscape:connector-curvature="0"
       sodipodi:nodetypes="ccccc" /><path
       style="font-size:medium;font-style:normal;font-variant:normal;font-weight:normal;font-stretch:normal;text-indent:0;text-align:start;text-decoration:none;line-height:normal;letter-spacing:normal;word-spacing:normal;text-transform:none;direction:ltr;block-progression:tb;writing-mode:lr-tb;text-anchor:start;baseline-shift:baseline;color:#000000;fill:#0091b4;fill-opacity:1;fill-rule:nonzero;stroke:none;stroke-width:0.80000001;marker:none;visibility:visible;display:inline;overflow:visible;enable-background:accumulate;font-family:Sans;-inkscape-font-specification:Sans"
       d="m 35.625,112.28125 0,0.375 0,10.25 0,0.25 0.25,0.125 c 17.141798,8.55442 34.874156,8.45734 53.0625,0 l 0.21875,-0.0937 0,-0.28125 0,-10.25 0,-0.375 -0.40625,0 -52.71875,0 -0.40625,0 z m 0.8125,0.78125 51.9375,0 0,9.59375 c -17.855089,8.23725 -35.132203,8.31203 -51.9375,0 l 0,-9.59375 z"
       id="path3910"
       inkscape:connector-curvature="0" /><rect
       style="fill:#876969;fill-opacity:1;stroke:none"
       id="rect3006"
       width="124.8"
       height="4"
       x="0"
       y="-44.799999"
       transform="scale(1,-1)" /><path
       style="font-size:medium;font-style:normal;font-variant:normal;font-weight:normal;font-stretch:normal;text-indent:0;text-align:start;text-decoration:none;line-height:normal;letter-spacing:normal;word-spacing:normal;text-transform:none;direction:ltr;block-progression:tb;writing-mode:lr-tb;text-anchor:start;baseline-shift:baseline;color:#000000;fill:#ffffff;fill-opacity:1;stroke:none;stroke-width:1.60000002;marker:none;visibility:visible;display:inline;overflow:visible;enable-background:accumulate;font-family:Sans;-inkscape-font-specification:Sans"
       d="m 62.769655,114.56728 c -0.19848,-0.003 -0.421794,0.007 -0.687963,0.0107 l -0.0215,0 c -1.000776,0.0488 -1.267933,0.0836 -2.192883,0.26873 l -0.02151,0.0107 c -3.199196,0.83927 -5.594626,2.32489 -7.675089,4.51475 -0.75451,0.79439 -0.893398,1.95674 -0.440726,2.8916 -0.408684,0.4166 -0.638663,0.96478 -0.56972,1.54792 l 0.03225,0.33323 0.354731,-0.043 1.021195,-0.11824 0.343981,-0.0429 -0.03225,-0.33322 c -0.0059,-0.0507 -0.0027,-0.11794 0,-0.18274 0.381498,0.19168 0.796746,0.29019 1.214685,0.27947 0.656322,-0.0168 1.32001,-0.28389 1.805903,-0.79546 1.967529,-2.071 4.175143,-3.16764 6.406656,-3.22482 2.231301,-0.0573 4.496894,0.91332 6.567897,2.88085 0.511388,0.48629 1.172371,0.72624 1.827402,0.70945 0.343257,-0.009 0.690356,-0.0917 1.010443,-0.23648 0.05184,0.10859 0.09481,0.2195 0.128994,0.32249 0.059,0.17775 0.08531,0.36565 0.086,0.35472 l -0.01076,0.33324 0.333233,0.0215 1.031944,0.0753 0.35473,0.0215 0.01076,-0.344 c 0.04483,-0.68096 -0.311066,-1.28338 -0.870703,-1.68765 0.67807,-1.01771 0.549347,-2.4198 -0.365479,-3.28932 -2.172046,-2.06332 -4.627283,-3.41596 -7.879325,-4.10628 l -0.01075,0 c -0.774648,-0.11338 -1.156719,-0.16447 -1.752156,-0.17199 z"
       id="path34"
       inkscape:connector-curvature="0"
       sodipodi:nodetypes="ccccccccccccccccccccccccccccccccc" /></g></svg>