<?xml version="1.0" encoding="UTF-8" standalone="no"?>
<!-- Created with Inkscape (http://www.inkscape.org/) -->

<svg
   xmlns:dc="http://purl.org/dc/elements/1.1/"
   xmlns:cc="http://creativecommons.org/ns#"
   xmlns:rdf="http://www.w3.org/1999/02/22-rdf-syntax-ns#"
   xmlns:svg="http://www.w3.org/2000/svg"
   xmlns="http://www.w3.org/2000/svg"
   xmlns:sodipodi="http://sodipodi.sourceforge.net/DTD/sodipodi-0.dtd"
   xmlns:inkscape="http://www.inkscape.org/namespaces/inkscape"
   id="svg2"
   version="1.1"
   inkscape:version="0.91 r13725"
   width="156"
   height="180"
   xml:space="preserve"
   sodipodi:docname="moon.svg"><metadata
     id="metadata8"><rdf:RDF><cc:Work
         rdf:about=""><dc:format>image/svg+xml</dc:format><dc:type
           rdf:resource="http://purl.org/dc/dcmitype/StillImage" /><dc:title /></cc:Work></rdf:RDF></metadata><defs
     id="defs6"><clipPath
       clipPathUnits="userSpaceOnUse"
       id="clipPath24"><path
         d="m 0,198.425 198.425,0 L 198.425,0 0,0 0,198.425 z"
         id="path26"
         inkscape:connector-curvature="0" /></clipPath></defs><sodipodi:namedview
     pagecolor="#ffffff"
     bordercolor="#666666"
     borderopacity="1"
     objecttolerance="10"
     gridtolerance="10"
     guidetolerance="10"
     inkscape:pageopacity="0"
     inkscape:pageshadow="2"
     inkscape:window-width="1311"
     inkscape:window-height="856"
     id="namedview4"
     showgrid="false"
     inkscape:zoom="3.92"
     inkscape:cx="69.224193"
     inkscape:cy="89.998055"
     inkscape:window-x="0"
     inkscape:window-y="1"
     inkscape:window-maximized="0"
     inkscape:current-layer="g10"
     showguides="true"
     inkscape:guide-bbox="true" /><g
     id="g10"
     inkscape:groupmode="layer"
     inkscape:label="Codefor_Hex_sticker_ALL"
     transform="matrix(1.25,0,0,-1.25,0,180)"><path
       sodipodi:nodetypes="ccccc"
       id="path3176"
       style="fill:#101103;fill-opacity:1;fill-rule:nonzero;stroke:none"
       d="M 62.4,72 0,108 l 0,0 62.4,36 c 0,0 0.02874,-71.999977 0,-72 z"
       inkscape:connector-curvature="0" /><path
       inkscape:connector-curvature="0"
       d="m 62.32,71.92 62.47997,36.08 0,0 -62.399997,36 C 62.099028,144 62.021121,71.920023 62.32,71.92 Z"
       style="fill:#181a04;fill-opacity:1;fill-rule:nonzero;stroke:none"
       id="path3178"
       sodipodi:nodetypes="ccccc" /><path
       inkscape:connector-curvature="0"
       d="M 62.4,0 0,36 0,36 62.4,72 c 0,0 0.02874,-71.999977240587 0,-72 z"
       style="fill:#000000;fill-opacity:1;fill-rule:nonzero;stroke:none"
       id="path2988"
       sodipodi:nodetypes="ccccc" /><path
       inkscape:connector-curvature="0"
       d="M 62.376794,72.005095 C 42.644373,58.943991 22.551707,46.242983 0,36 l 0,0 0.02308996,71.97025 C 1.223723,109.17038 64.033024,73.67117 62.376794,72.005095 z"
       style="fill:#080901;fill-opacity:1;fill-rule:nonzero;stroke:none"
       id="path3180"
       sodipodi:nodetypes="ccccc" /><path
       sodipodi:nodetypes="ccccc"
       id="path3182"
       style="fill:#101103;fill-opacity:1;fill-rule:nonzero;stroke:none"
       d="M 62.423396,71.994906 C 82.155817,85.05601 102.24848,97.757018 124.80019,108 l 0,0 -0.0231,-71.970249 c -1.20063,-1.20013 -64.009934,34.29908 -62.353704,35.965155 z"
       inkscape:connector-curvature="0" /><path
       sodipodi:nodetypes="ccccc"
       id="path3174"
       style="fill:#080901;fill-opacity:1;fill-rule:nonzero;stroke:none"
       d="m 62.399973,0 62.399997,36 0,0 -62.399997,36 c -1.498971,-1.124229 -0.7564,-72.5457219 0,-72 z"
       inkscape:connector-curvature="0" /><g
       id="Layer_1"
       transform="matrix(0.8,0,0,-0.8,-239.39999,131.01144)" /><g
       id="Layer_3"
       transform="matrix(0.8,0,0,-0.8,-239.39999,131.01144)" /><g
       id="Layer_5"
       transform="matrix(0.8,0,0,-0.8,-239.39999,131.01144)" /><g
       id="Layer_4"
       transform="matrix(0.8,0,0,-0.8,-239.39999,131.01144)" /><g
       id="Layer_6"
       transform="matrix(0.8,0,0,-0.8,-239.39999,131.01144)"><g
         id="g5378" /><g
         id="g5380" /><g
         id="g5382" /><g
         id="g5384" /><g
         id="g5386" /><g
         id="g5388" /></g><path
       style="fill:#dce56b;fill-opacity:1;stroke:none;stroke-width:2.79999995;stroke-linecap:round;stroke-linejoin:round;stroke-miterlimit:4;stroke-dasharray:none;stroke-opacity:1"
       d="m 68.807011,131.44922 a 16,16 0 0 1 -6.953039,2.01741 14.4,14.4 0 0 0 4.695658,-19.10145 14.4,14.4 0 0 0 -18.71958,-5.95866 16,16 0 0 1 5.302834,-4.85573 16,16 0 0 1 21.786272,6.11215 16,16 0 0 1 -6.112145,21.78628 z"
       id="circle4155"
       inkscape:connector-curvature="0" /></g></svg>