<?xml version="1.0" encoding="UTF-8" standalone="no"?>
<!-- Created with Inkscape (http://www.inkscape.org/) -->

<svg
   xmlns:dc="http://purl.org/dc/elements/1.1/"
   xmlns:cc="http://creativecommons.org/ns#"
   xmlns:rdf="http://www.w3.org/1999/02/22-rdf-syntax-ns#"
   xmlns:svg="http://www.w3.org/2000/svg"
   xmlns="http://www.w3.org/2000/svg"
   xmlns:sodipodi="http://sodipodi.sourceforge.net/DTD/sodipodi-0.dtd"
   xmlns:inkscape="http://www.inkscape.org/namespaces/inkscape"
   id="svg2"
   version="1.1"
   inkscape:version="0.91 r13725"
   width="156"
   height="180"
   xml:space="preserve"
   sodipodi:docname="parking.svg"><metadata
     id="metadata8"><rdf:RDF><cc:Work
         rdf:about=""><dc:format>image/svg+xml</dc:format><dc:type
           rdf:resource="http://purl.org/dc/dcmitype/StillImage" /><dc:title></dc:title></cc:Work></rdf:RDF></metadata><defs
     id="defs6"><clipPath
       clipPathUnits="userSpaceOnUse"
       id="clipPath24"><path
         d="m 0,198.425 198.425,0 L 198.425,0 0,0 0,198.425 z"
         id="path26"
         inkscape:connector-curvature="0" /></clipPath></defs><sodipodi:namedview
     pagecolor="#ffffff"
     bordercolor="#666666"
     borderopacity="1"
     objecttolerance="10"
     gridtolerance="10"
     guidetolerance="10"
     inkscape:pageopacity="0"
     inkscape:pageshadow="2"
     inkscape:window-width="1440"
     inkscape:window-height="851"
     id="namedview4"
     showgrid="false"
     inkscape:zoom="2.7459313"
     inkscape:cx="64.126292"
     inkscape:cy="84.233702"
     inkscape:window-x="-2"
     inkscape:window-y="-3"
     inkscape:window-maximized="1"
     inkscape:current-layer="g10" /><g
     id="g10"
     inkscape:groupmode="layer"
     inkscape:label="Codefor_Hex_sticker_ALL"
     transform="matrix(1.25,0,0,-1.25,0,180)"><path
       id="path14"
       style="fill:#2c5aa0;fill-opacity:1;fill-rule:nonzero;stroke:none"
       d="M 124.8,35.99975 62.4,-1.6e-7 0,35.99975 0,108.00025 62.4,144 l 62.4,-35.99975 0,-72.0005 z"
       inkscape:connector-curvature="0" /><path
       style="font-size:medium;font-style:normal;font-variant:normal;font-weight:normal;font-stretch:normal;text-indent:0;text-align:start;text-decoration:none;line-height:normal;letter-spacing:normal;word-spacing:normal;text-transform:none;direction:ltr;block-progression:tb;writing-mode:lr-tb;text-anchor:start;baseline-shift:baseline;color:#000000;fill:#ffffff;fill-opacity:1;stroke:none;stroke-width:3.20000005;marker:none;visibility:visible;display:inline;overflow:visible;enable-background:accumulate;font-family:Sans;-inkscape-font-specification:Sans"
       d="M 62.275012,0.00276029 A 1.5999983,1.6001984 0 0 0 61.587581,0.22151553 L 0.81247351,35.409859 A 1.5999983,1.6001984 0 0 0 5.5621532e-5,36.816143 l 0,70.376687 A 1.5999983,1.6001984 0 0 0 0.81247351,108.59911 L 61.587581,143.78746 a 1.5999983,1.6001984 0 0 0 1.593588,0 l 60.806371,-35.18835 a 1.5999983,1.6001984 0 0 0 0.8124,-1.40628 l 0,-70.376687 a 1.5999983,1.6001984 0 0 0 -0.8124,-1.406284 L 63.181169,0.22151553 A 1.5999983,1.6001984 0 0 0 62.275012,0.00276029 z m 0.124987,3.46883311 59.181521,34.2508206 0,68.564146 -59.181521,34.25082 -59.2127655,-34.28207 0,-68.501645 L 62.399999,3.4715934 z"
       id="path3984"
       inkscape:connector-curvature="0" /><path
       style="font-size:medium;font-style:normal;font-variant:normal;font-weight:normal;font-stretch:normal;text-indent:0;text-align:start;text-decoration:none;line-height:normal;letter-spacing:normal;word-spacing:normal;text-transform:none;direction:ltr;block-progression:tb;writing-mode:lr-tb;text-anchor:start;baseline-shift:baseline;color:#000000;fill:#2c5aa0;fill-opacity:1;stroke:none;stroke-width:0.80000001;marker:none;visibility:visible;display:inline;overflow:visible;enable-background:accumulate;font-family:Sans;-inkscape-font-specification:Sans"
       d="m 62.244774,0.00321362 c -0.291501,0.02358971 -0.58467,0.13416728 -0.838209,0.2796994 -0.0084,0.004868 -0.02263,-0.004997 -0.03104,0 L 1.0245416,35.276417 C 0.40046965,35.629666 -0.00591283,36.299104 6.5069494e-5,37.016768 l 0,69.987012 C -0.00591241,107.72144 0.40046965,108.39088 1.0245416,108.74412 l 60.3820234,34.99351 c 0.608528,0.34983 1.347292,0.34983 1.955819,0 l 60.413076,-34.99351 c 0.62407,-0.35324 1.03046,-1.02268 1.02447,-1.74034 l 0,-69.987012 c 0.006,-0.717664 -0.4004,-1.387102 -1.02447,-1.740351 L 63.362384,0.28291302 c -0.339259,-0.20010465 -0.72452,-0.30284242 -1.11761,-0.2796994 z m 0.06209,0.8080205 c 0.23235,-0.0136795 0.482453,0.0371097 0.682984,0.15538857 L 123.40292,35.960126 c 0.35795,0.202614 0.59328,0.64501 0.58985,1.056642 l 0,69.987012 c 0.003,0.41162 -0.2319,0.85402 -0.58985,1.05664 l -60.413073,34.9935 c -0.349606,0.20098 -0.861138,0.20098 -1.210745,0 L 1.3970785,108.06042 C 1.0391289,107.8578 0.80379963,107.4154 0.80722838,107.00378 l 0,-69.987012 C 0.80380004,36.605136 1.0391289,36.16274 1.3970785,35.960126 L 61.779102,0.96662269 l 0.03104,0 c 0.15457,-0.0917961 0.317576,-0.14089171 0.496716,-0.15538857 z"
       id="path3820"
       inkscape:connector-curvature="0"
       sodipodi:nodetypes="cccccccccccccccccccccccccccccc" /><text
       xml:space="preserve"
       style="font-style:normal;font-variant:normal;font-weight:bold;font-stretch:normal;font-size:36px;line-height:125%;font-family:'DejaVu Sans';-inkscape-font-specification:'DejaVu Sans Bold';letter-spacing:0px;word-spacing:0px;fill:#ffffff;fill-opacity:1;stroke:none;stroke-width:1px;stroke-linecap:butt;stroke-linejoin:miter;stroke-opacity:1"
       x="50.394142"
       y="-102.38626"
       id="text5328"
       sodipodi:linespacing="125%"
       transform="scale(1,-1)"><tspan
         sodipodi:role="line"
         id="tspan5330"
         x="50.394142"
         y="-102.38626"
         style="font-style:normal;font-variant:normal;font-weight:normal;font-stretch:normal;font-family:'DejaVu Sans';-inkscape-font-specification:'DejaVu Sans'">P</tspan></text>
</g></svg>