<?xml version="1.0" encoding="UTF-8" standalone="no"?>
<!-- Created with Inkscape (http://www.inkscape.org/) -->

<svg
   xmlns:dc="http://purl.org/dc/elements/1.1/"
   xmlns:cc="http://creativecommons.org/ns#"
   xmlns:rdf="http://www.w3.org/1999/02/22-rdf-syntax-ns#"
   xmlns:svg="http://www.w3.org/2000/svg"
   xmlns="http://www.w3.org/2000/svg"
   xmlns:sodipodi="http://sodipodi.sourceforge.net/DTD/sodipodi-0.dtd"
   xmlns:inkscape="http://www.inkscape.org/namespaces/inkscape"
   id="svg2"
   version="1.1"
   inkscape:version="0.48.5 r10040"
   width="156"
   height="180"
   xml:space="preserve"
   sodipodi:docname="refugees.svg"><metadata
     id="metadata8"><rdf:RDF><cc:Work
         rdf:about=""><dc:format>image/svg+xml</dc:format><dc:type
           rdf:resource="http://purl.org/dc/dcmitype/StillImage" /><dc:title /></cc:Work></rdf:RDF></metadata><defs
     id="defs6"><clipPath
       clipPathUnits="userSpaceOnUse"
       id="clipPath24"><path
         d="m 0,198.425 198.425,0 L 198.425,0 0,0 0,198.425 z"
         id="path26"
         inkscape:connector-curvature="0" /></clipPath></defs><sodipodi:namedview
     pagecolor="#ffffff"
     bordercolor="#666666"
     borderopacity="1"
     objecttolerance="10"
     gridtolerance="10"
     guidetolerance="10"
     inkscape:pageopacity="0"
     inkscape:pageshadow="2"
     inkscape:window-width="849"
     inkscape:window-height="945"
     id="namedview4"
     showgrid="false"
     inkscape:zoom="4.2722222"
     inkscape:cx="73.903771"
     inkscape:cy="90"
     inkscape:window-x="0"
     inkscape:window-y="1"
     inkscape:window-maximized="0"
     inkscape:current-layer="g10" /><g
     id="g10"
     inkscape:groupmode="layer"
     inkscape:label="Codefor_Hex_sticker_ALL"
     transform="matrix(1.25,0,0,-1.25,0,180)"><path
       sodipodi:nodetypes="ccccccc"
       id="path14"
       style="fill:#000000;fill-opacity:1;fill-rule:nonzero;stroke:none"
       d="M 124.8,36 62.4,0 0,36 l 0,72 62.4,36 62.4,-36 z"
       inkscape:connector-curvature="0" /><path
       style="fill:#fecb32;fill-opacity:1"
       d="m 57.387523,87.525492 c -0.195919,0.05937 -0.346502,0.180517 -0.421909,0.339432 -0.231505,0.48785 0.09879,0.880698 1.181743,1.405549 0.930957,0.451184 1.162412,0.716926 1.160914,1.332891 -6.79e-4,0.276778 -0.02958,0.414216 -0.156982,0.74635 -0.228189,0.594882 -0.379563,0.80552 -1.366301,1.901185 -0.391879,0.435141 -1.015972,1.317001 -1.227601,1.734631 -0.228479,0.450873 -0.561608,0.632688 -1.055326,0.575974 -0.686018,-0.0788 -2.416682,-0.366227 -3.063681,-0.508807 -1.244529,-0.274264 -1.410406,-0.219549 -2.548515,0.840617 -1.571802,1.464167 -2.54584,2.266195 -4.141463,3.410096 -0.385688,0.27651 -0.532928,0.31182 -0.808903,0.19403 -0.277008,-0.11824 -3.021282,-2.074208 -3.297008,-2.349933 -0.298828,-0.298829 -0.367961,-0.57866 -0.465728,-1.885108 -0.119891,-1.602152 -0.293881,-3.489582 -0.345294,-3.745746 -0.06158,-0.306782 -0.160647,-0.363424 -0.449733,-0.257129 -0.583278,0.214473 -0.707523,0.218015 -0.811803,0.02317 -0.0904,-0.16892 -0.01685,-0.475353 0.363869,-1.516145 0.115345,-0.315323 0.141665,-0.92737 0.04738,-1.101166 -0.03167,-0.05832 -0.144933,-0.144687 -0.251751,-0.191939 -0.191004,-0.08449 -0.21651,-0.08441 -1.54537,0.0042 -1.631651,0.108755 -2.932302,0.216053 -3.285699,0.271061 -0.143498,0.02233 -0.360668,0.09491 -0.482606,0.161279 -0.297189,0.161737 -0.681344,0.521677 -0.681344,0.638379 0,0.272178 0.328801,0.417567 1.922417,0.850047 1.033418,0.280452 1.576083,0.462629 1.72352,0.578598 0.06735,0.05298 0.192067,0.247006 0.277162,0.431182 l 0.154715,0.334868 -0.237112,0.38665 -0.237114,0.38665 0.09921,0.660615 c 0.358017,2.383938 0.413433,2.937037 0.413433,4.126526 0,1.194611 0.08602,1.428821 0.820341,2.233491 0.55935,0.61294 0.744207,0.85834 1.63553,2.1712 0.388476,0.5722 0.892234,1.27445 1.119458,1.56055 0.477484,0.60121 0.540906,0.70874 0.540906,0.91715 0,0.17708 -0.108221,0.29149 -0.391375,0.41374 -0.270949,0.11699 -0.471587,0.34826 -0.755268,0.87057 -0.451468,0.83124 -0.570013,0.97936 -0.91991,1.14949 -0.175896,0.0855 -0.199072,0.0871 -0.325607,0.0216 -0.07492,-0.0388 -0.191512,-0.14292 -0.259079,-0.23151 -0.10605,-0.13903 -0.128214,-0.22408 -0.162105,-0.622 -0.0216,-0.25352 -0.02737,-0.78662 -0.01289,-1.18468 0.03393,-0.93006 0.03964,-0.91786 -0.656748,-1.39625 -0.2861,-0.19654 -0.828624,-0.58891 -1.205605,-0.87193 -0.856838,-0.64329 -1.074975,-0.72865 -1.520688,-0.59511 -0.265214,0.0795 -0.637378,0.44148 -0.806035,0.78408 -0.200379,0.40703 -0.179356,0.74498 0.08053,1.29466 0.243955,0.51595 0.308339,0.55705 0.873919,0.55781 0.397076,5.2e-4 0.452278,0.0114 0.620031,0.12243 0.360385,0.23848 0.550196,0.824 0.4224,1.30299 -0.02324,0.0871 -0.06439,0.38728 -0.09147,0.66713 -0.02708,0.27984 -0.09986,0.75741 -0.161749,1.06127 -0.268607,1.31887 -0.323481,2.45131 -0.162364,3.35076 0.05681,0.3172 0.106558,0.83947 0.122779,1.28915 0.02499,0.69305 0.01939,0.77823 -0.06757,1.0237 -0.189449,0.53479 -0.461471,0.84046 -0.747956,0.84046 -0.152663,0 -0.467108,-0.28692 -0.513981,-0.46899 -0.0328,-0.12743 -0.05581,-0.14307 -0.228745,-0.1557 -0.20009,-0.0146 -0.522118,0.13256 -0.671303,0.3068 -0.03788,0.0443 -0.104246,0.0713 -0.14741,0.06 -0.08642,-0.0226 -0.227653,0.0943 -0.227653,0.18845 0,0.0826 -0.11102,0.11736 -0.271898,0.0852 -0.08011,-0.016 -0.135203,-0.008 -0.135203,0.0196 0,0.0256 -0.159544,0.14012 -0.354539,0.25443 -0.382284,0.22412 -0.52642,0.24929 -0.895422,0.15638 -0.34154,-0.086 -0.355822,-0.0498 -0.355822,0.90125 0,0.70506 -0.01023,0.81815 -0.0853,0.94211 -0.11478,0.18959 -0.289748,0.28507 -0.619833,0.33823 -0.515734,0.083 -0.611046,0.2301 -0.598364,0.92313 0.01402,0.76737 0.231555,1.59139 0.628942,2.38263 0.383019,0.76264 0.998639,1.24529 1.806676,1.41646 0.412873,0.0875 1.288466,0.087 1.730787,-9.2e-4 0.898696,-0.17863 1.463802,-0.64402 1.953956,-1.60919 0.31967,-0.62948 0.923574,-1.54877 1.202969,-1.83124 0.276534,-0.27958 0.460883,-0.31003 1.653523,-0.27314 0.615648,0.019 1.058618,0.0132 1.187076,-0.0155 0.11271,-0.0253 0.373802,-0.15488 0.580207,-0.28803 0.206411,-0.13315 0.440223,-0.27568 0.51959,-0.31672 0.180006,-0.0931 3.061206,-0.78677 4.180251,-1.00644 0.499535,-0.0981 0.929246,-0.20917 1.075842,-0.27819 0.56817,-0.26748 1.895192,-1.77938 2.716499,-3.09497 0.313684,-0.50247 0.962773,-1.7466 1.137797,-2.18086 0.05895,-0.14626 0.184307,-0.35355 0.278573,-0.46064 0.142451,-0.16183 0.23353,-0.21483 0.53935,-0.31382 1.025658,-0.33203 1.473301,-0.77176 1.519566,-1.49272 0.01499,-0.23357 0.0017,-0.35941 -0.04793,-0.45547 -0.142634,-0.27582 -0.177052,-0.28678 -0.939202,-0.29883 -0.880666,-0.014 -1.055707,0.0359 -1.462781,0.41674 -0.337651,0.31586 -0.504924,0.60584 -0.565138,0.97974 -0.07661,0.47576 -0.143658,0.55472 -1.317479,1.55168 -0.850138,0.72206 -1.054859,0.91945 -1.548026,1.49271 -0.921189,1.07077 -1.22907,1.22768 -2.224164,1.13353 -0.811254,-0.0767 -0.836393,-0.18191 -0.270931,-1.13353 0.632561,-1.06456 0.995123,-1.45086 1.657627,-1.76619 0.523293,-0.24906 0.675136,-0.521 0.732322,-1.3115 0.03438,-0.47518 0.116403,-0.79709 0.269801,-1.05885 0.129096,-0.22029 0.243627,-0.31372 0.612194,-0.49945 0.345503,-0.17412 0.484686,-0.28508 0.66463,-0.52984 0.238991,-0.32509 0.352549,-0.65404 0.717191,-2.07749 0.267901,-1.04581 0.35973,-1.33969 0.453431,-1.45104 0.277301,-0.32956 0.475232,-0.86665 0.763272,-2.07119 0.08626,-0.36073 0.198656,-0.78819 0.249763,-0.9499 0.05111,-0.16171 0.09318,-0.33981 0.09351,-0.39579 6.79e-4,-0.11779 -0.08363,-0.12583 -0.609367,-0.0581 -0.173764,0.0224 -0.323934,0.0327 -0.333713,0.0229 -0.0263,-0.0263 0.480602,-0.90855 0.604265,-1.05169 l 0.106323,-0.12307 1.349146,0.0115 c 0.74203,0.006 1.354589,0.0277 1.361242,0.0476 0.04008,0.11954 0.389957,0.65673 0.748436,1.14912 0.954917,1.3116 1.379033,1.80019 2.700951,3.11156 0.714741,0.70902 1.360307,1.38075 1.434593,1.49269 0.183096,0.27594 0.311066,0.53635 0.348234,0.70864 0.09835,0.45587 -0.414812,1.01073 -0.934032,1.00993 -0.239221,-3.6e-4 -0.376966,-0.0883 -0.619471,-0.3956 -0.328906,-0.41676 -0.595266,-0.54356 -1.447046,-0.68889 -0.647484,-0.11048 -0.871693,-0.18566 -1.14027,-0.38238 -0.266415,-0.19514 -0.484517,-0.46391 -0.699756,-0.86235 -0.360183,-0.66673 -0.588051,-0.85377 -1.04014,-0.85377 -0.362943,0 -0.801185,0.2033 -0.965991,0.44814 l -0.109696,0.16295 0.103366,0.32489 c 0.178717,0.56173 0.244278,0.64436 0.696637,0.87799 0.52278,0.27001 0.847415,0.51756 1.275535,0.97265 0.347614,0.36952 1.309021,1.75624 1.3609,1.96295 0.04104,0.16352 -0.01746,0.39643 -0.142155,0.56594 -0.06152,0.0836 -0.167888,0.26402 -0.236371,0.40085 -0.109673,0.21912 -0.124519,0.30002 -0.124519,0.6785 0,0.4029 0.0092,0.44566 0.147705,0.68522 0.167518,0.28979 0.158982,0.181 0.134352,1.71215 -0.01982,1.23203 0.02469,0.99456 -0.411533,2.19524 -0.06356,0.17492 -0.16958,0.61256 -0.235606,0.97252 -0.162813,0.88762 -0.264475,1.0695 -0.657123,1.17566 -0.218908,0.0592 -0.500589,-0.0286 -0.858267,-0.26743 -0.289199,-0.19311 -0.442558,-0.22397 -0.621004,-0.12493 -0.137353,0.0762 -0.580719,0.67187 -0.824143,1.10721 -0.288857,0.51659 -0.307102,0.54297 -0.432276,0.62498 -0.09937,0.0651 -0.147208,0.0683 -0.345389,0.0225 -0.196737,-0.0454 -0.246291,-0.0424 -0.342283,0.0205 -0.107589,0.0705 -0.110595,0.0851 -0.0725,0.35133 0.08517,0.59528 0.04391,1.35965 -0.115095,2.13235 -0.306431,1.48912 -0.229517,2.05334 0.358742,2.63172 0.217608,0.21395 0.916037,0.57737 1.469952,0.76486 0.477497,0.16163 1.173072,0.19965 1.605784,0.0877 0.262262,-0.0678 1.10728,-0.39113 1.400103,-0.53571 0.06103,-0.0301 0.270672,-0.23565 0.465881,-0.45671 0.518134,-0.58675 0.954102,-0.88937 1.5039,-1.0439 0.592209,-0.16646 0.705952,-0.28727 0.788322,-0.83738 0.07098,-0.47397 0.233712,-0.66443 0.718315,-0.84067 0.922647,-0.33555 1.624357,-0.62265 1.784184,-0.72999 0.510512,-0.34287 0.524658,-0.77586 0.04217,-1.29082 -0.285381,-0.3046 -0.340195,-0.41303 -0.304624,-0.60264 0.04603,-0.24535 0.288141,-0.39851 1.346764,-0.85191 0.540439,-0.23147 1.212154,-0.54921 1.4927,-0.7061 0.717415,-0.4012 1.978856,-1.21365 2.127356,-1.37014 0.06851,-0.0722 0.157662,-0.24609 0.198105,-0.3864 0.09844,-0.34154 0.323857,-0.78245 0.572541,-1.11984 0.26509,-0.35965 0.572536,-0.68702 2.87903,-3.06572 1.058829,-1.09198 1.960138,-2.0561 2.002919,-2.14249 0.236247,-0.4772 0.61923,-0.71034 1.280231,-0.77936 1.239479,-0.12942 3.613594,-0.15272 3.988015,-0.0391 0.459312,0.13933 0.661579,0.63461 0.488497,1.19615 -0.03766,0.12214 -0.0892,0.49685 -0.114564,0.83271 -0.0519,0.68724 -0.107031,1.04406 -0.203452,1.31736 -0.09285,0.26315 -0.08323,0.74345 0.01948,0.96945 0.125964,0.27732 0.418249,0.50032 0.839915,0.64084 0.323427,0.10778 0.434381,0.12151 0.997188,0.12343 0.547851,0.002 0.674082,-0.0119 0.935896,-0.1024 0.658355,-0.22748 1.157858,-0.67664 1.630959,-1.46659 0.327708,-0.54717 0.363912,-0.69441 0.228715,-0.92999 -0.07248,-0.12628 -0.0723,-0.14054 0.0037,-0.25622 0.04419,-0.0673 0.155012,-0.15384 0.246371,-0.19213 0.17186,-0.072 0.13392,-0.0724 1.70729,0.0151 0.569844,0.0317 0.802867,-0.006 1.333475,-0.21571 0.347569,-0.13735 0.365621,-0.15195 0.544875,-0.441 0.10197,-0.16441 0.280086,-0.38382 0.395816,-0.48757 0.356113,-0.31924 0.242927,-0.32791 -0.790382,-0.0605 -2.520225,0.65214 -2.272366,0.60035 -2.43096,0.508 -0.152642,-0.0889 -0.198161,-0.22412 -0.122805,-0.36492 0.05319,-0.0995 0.66485,-0.36721 1.988386,-0.87048 0.892609,-0.33941 1.012363,-0.41588 0.941297,-0.60109 -0.08957,-0.23343 -0.682129,-0.28756 -1.29085,-0.11794 -0.391701,0.10916 -0.575457,0.19839 -1.015184,0.49301 -0.557396,0.37345 -0.852143,0.50145 -1.154671,0.50145 -0.476233,0 -0.686539,-0.15124 -0.686539,-0.49374 0,-0.15236 0.208441,-0.42194 0.402504,-0.52059 0.131403,-0.0668 1.195541,-0.32859 2.69598,-0.66327 1.235594,-0.2756 1.417715,-0.36043 2.220049,-1.03421 0.497115,-0.41747 0.670573,-0.59992 1.085607,-1.14191 0.552674,-0.72173 1.282784,-1.60804 1.516202,-1.8406 0.116788,-0.11636 0.278405,-0.19524 0.671409,-0.3277 0.611578,-0.20614 0.827937,-0.33789 0.951008,-0.57914 0.130759,-0.25631 0.169673,-0.75759 0.07441,-0.95839 -0.115611,-0.24363 -0.306166,-0.33366 -0.706171,-0.33366 -0.406913,0 -0.716716,0.10577 -0.880758,0.30073 -0.129263,0.15362 -0.14973,0.3319 -0.04281,0.37293 0.03932,0.0151 0.344675,0.0275 0.678501,0.0275 l 0.606938,0 0,0.115 c 0,0.0966 -0.04538,0.13658 -0.282703,0.24955 -0.268694,0.12789 -0.30961,0.1342 -0.825511,0.12743 -0.298541,-0.004 -0.593683,0.0141 -0.655884,0.0399 -0.06219,0.0259 -0.632615,0.43075 -1.267609,0.89971 -1.76894,1.30641 -1.757282,1.29915 -2.118355,1.31956 -0.527742,0.0299 -0.790924,-0.1572 -0.782905,-0.55633 0.0083,-0.41033 0.332283,-0.87455 1.139587,-1.63253 0.310235,-0.29128 0.940636,-0.89978 1.400885,-1.35222 1.02347,-1.006095 1.145071,-1.109788 1.30203,-1.110354 0.06752,-4.52e-4 0.229404,-0.05007 0.359677,-0.110713 0.187642,-0.08736 0.281628,-0.173502 0.452331,-0.414559 0.500219,-0.706369 0.664197,-0.813029 1.191875,-0.775277 0.405003,0.02898 0.860631,0.244812 1.308296,0.619751 0.500872,0.419512 0.725737,0.506631 1.069034,0.414193 0.257466,-0.06933 0.459531,-0.238104 0.898789,-0.750702 0.736633,-0.859632 0.98542,-1.332742 1.047906,-1.992764 0.05512,-0.581715 -0.355148,-0.904577 -0.835433,-0.65753 -0.202359,0.104091 -0.343306,0.252687 -0.590357,0.622388 -0.319945,0.478777 -0.799263,0.783989 -1.231209,0.783989 -0.4756,0 -0.880685,-0.515081 -0.97051,-1.234029 -0.03684,-0.295098 -0.145587,-0.463348 -0.321057,-0.496893 -0.06614,-0.01265 -0.692519,0.03557 -1.391947,0.107148 -1.408538,0.144146 -1.702788,0.15682 -1.782811,0.07679 -0.09159,-0.09161 -0.06348,-0.489615 0.05218,-0.737304 0.106333,-0.227817 0.35478,-0.509182 1.712351,-1.939258 0.390828,-0.411695 0.75213,-0.829955 0.802895,-0.929464 0.05604,-0.109921 0.09168,-0.265949 0.09067,-0.397587 -0.0018,-0.33816 -0.128087,-0.508482 -0.678382,-0.920051 -0.210645,-0.157539 -0.59122,-0.490578 -0.845721,-0.740086 -0.254492,-0.249502 -0.49875,-0.466622 -0.542799,-0.482485 -0.044,-0.01586 -0.206263,-0.0428 -0.360494,-0.05987 l -0.280407,-0.03102 0.08994,0.266202 c 0.04951,0.146412 0.182783,0.427189 0.296309,0.623945 0.492227,0.853146 0.522,0.918146 0.547061,1.1945 0.0215,0.237285 0.01038,0.292085 -0.08984,0.443526 -0.06293,0.09503 -0.396478,0.388799 -0.741291,0.652812 -0.344822,0.264009 -1.064579,0.838297 -1.599468,1.276192 -0.53488,0.437899 -1.055273,0.836364 -1.156425,0.885488 -0.137457,0.06676 -0.277761,0.08931 -0.55555,0.08931 -0.210672,0 -0.435308,0.0266 -0.518602,0.06139 -0.255291,0.106669 -1.728648,1.757026 -2.024864,2.268123 -0.177188,0.305719 -0.382294,0.882828 -0.546584,1.537934 -0.178943,0.713529 -0.517619,1.800505 -0.62906,2.018925 -0.143005,0.28032 -0.235273,0.31634 -0.778155,0.30382 -0.529534,-0.0122 -0.662241,0.0348 -0.742503,0.26336 -0.02471,0.0703 -0.07698,0.21949 -0.116263,0.33145 -0.03923,0.11195 -0.176077,0.45798 -0.304108,0.76896 -0.128013,0.31098 -0.335112,0.87074 -0.460204,1.24392 -0.247207,0.73743 -0.366254,0.93941 -0.619505,1.05108 -1.146752,0.5057 -1.347264,0.63106 -1.974459,1.23452 -0.248787,0.23936 -0.523581,0.47768 -0.61065,0.52958 -0.385481,0.22978 -1.073251,0.31295 -1.592331,0.19254 -0.131797,-0.0306 -0.412636,-0.13803 -0.624108,-0.23881 l -0.38448,-0.18323 -0.768968,-0.0268 c -0.830518,-0.029 -0.798568,-0.0203 -1.275537,-0.34688 -0.503169,-0.34448 -0.833926,-0.37084 -1.11583,-0.0889 -0.181873,0.18187 -0.254878,0.43822 -0.254529,0.89375 4.5e-4,0.44254 0.05328,0.6086 0.318016,0.99707 0.25373,0.37238 0.280021,0.53101 0.122759,0.74082 -0.05595,0.0747 -0.417285,0.43015 -0.802895,0.78993 -1.843875,1.72032 -1.89508,1.76063 -2.236555,1.76063 -0.115558,0 -0.176071,-0.0277 -0.222494,-0.10177 -0.129991,-0.20747 -0.229962,-0.60381 -0.231043,-0.91598 -0.0014,-0.40555 0.141902,-0.71742 0.637157,-1.38665 0.301707,-0.40769 1.5093,-2.39833 1.824046,-3.00681 0.0531,-0.10271 0.147332,-0.42623 0.209322,-0.71891 0.08654,-0.40849 0.142537,-0.57008 0.241052,-0.6953 0.346861,-0.4409 0.434619,-0.91647 0.323023,-1.7505 -0.02967,-0.2216 -0.07009,-0.78227 -0.08984,-1.24595 -0.01975,-0.46367 -0.0508,-0.86706 -0.0689,-0.89641 -0.02793,-0.0452 -0.06807,-1.009647 -0.08387,-2.017188 -0.0046,-0.318868 0.114114,-0.533681 0.350747,-0.632552 0.256495,-0.107172 1.10884,-0.247205 1.509543,-0.248005 0.722788,-0.0015 1.181972,-0.153686 1.77311,-0.587884 0.366989,-0.26956 0.77596,-0.494075 1.243917,-0.682875 0.494506,-0.199511 0.946956,-0.205984 1.37961,-0.01973 0.848156,0.36511 1.215595,0.4192 1.484766,0.218576 0.246647,-0.183837 0.287821,-0.322721 0.35027,-1.181504 0.103219,-1.419522 0.208284,-3.807788 0.176058,-4.002346 -0.08204,-0.495549 -0.379097,-0.706404 -0.664464,-0.47168 -0.141434,0.116331 -0.865445,1.507673 -1.190856,2.288492 -0.117651,0.282314 -0.278533,0.607995 -0.357499,0.723733 -0.160598,0.235381 -0.488636,0.478351 -0.740151,0.548206 -0.228642,0.06351 -0.853135,0.05756 -2.309672,-0.02198 -1.930842,-0.105447 -2.882979,-0.101444 -3.356898,0.01411 -0.213879,0.05215 -0.505925,0.146588 -0.648994,0.209865 -0.632085,0.279538 -1.273543,0.843918 -1.733385,1.52511 -0.73819,1.093516 -1.33783,1.590517 -2.227041,1.845841 -0.186588,0.05357 -0.817593,0.258274 -1.402234,0.45488 -1.156188,0.388813 -1.472128,0.451746 -2.267914,0.451746 -0.559125,0 -0.672263,-0.03642 -0.672232,-0.216451 1.9e-5,-0.09162 0.05889,-0.173492 0.231872,-0.322464 0.406969,-0.350472 0.567972,-0.695652 0.740266,-1.587052 0.229184,-1.185729 0.663279,-2.077301 1.431897,-2.9409 0.672046,-0.755095 1.446667,-1.762581 1.555553,-2.023176 0.141169,-0.337865 0.03959,-0.707376 -0.246237,-0.895783 -0.199647,-0.131596 -1.719419,-0.746616 -3.249673,-1.315082 -1.131534,-0.420345 -1.145742,-0.424226 -1.537933,-0.420372 -0.217717,0.0021 -0.448498,0.01984 -0.512843,0.03934 z"
       id="path3051"
       inkscape:connector-curvature="0"
       sodipodi:nodetypes="ccscsssssscsssccsscccccsscscccsssssssscssccsssssssccscccsccccscscsscccsscssccccssssssssssssssssssssscsscccscscsscccsssssscssssscssssssccscccssssscssssccsssccsscssssccscssccssssssssssssssssssssscsccscssccssssscsscscsssssccsccsccsscsccsccsscscsscscccsssscscsssccsssscssssssccscsssssscssssscscsscssssssccc" /></g></svg>