<?xml version="1.0" encoding="UTF-8" standalone="no"?>
<!-- Created with Inkscape (http://www.inkscape.org/) -->

<svg
   xmlns:dc="http://purl.org/dc/elements/1.1/"
   xmlns:cc="http://creativecommons.org/ns#"
   xmlns:rdf="http://www.w3.org/1999/02/22-rdf-syntax-ns#"
   xmlns:svg="http://www.w3.org/2000/svg"
   xmlns="http://www.w3.org/2000/svg"
   xmlns:sodipodi="http://sodipodi.sourceforge.net/DTD/sodipodi-0.dtd"
   xmlns:inkscape="http://www.inkscape.org/namespaces/inkscape"
   id="svg2"
   version="1.1"
   inkscape:version="0.48.5 r10040"
   width="156"
   height="180"
   xml:space="preserve"
   sodipodi:docname="refugees.svg"><metadata
     id="metadata8"><rdf:RDF><cc:Work
         rdf:about=""><dc:format>image/svg+xml</dc:format><dc:type
           rdf:resource="http://purl.org/dc/dcmitype/StillImage" /><dc:title /></cc:Work></rdf:RDF></metadata><defs
     id="defs6"><clipPath
       clipPathUnits="userSpaceOnUse"
       id="clipPath24"><path
         d="m 0,198.425 198.425,0 L 198.425,0 0,0 0,198.425 z"
         id="path26"
         inkscape:connector-curvature="0" /></clipPath></defs><sodipodi:namedview
     pagecolor="#ffffff"
     bordercolor="#666666"
     borderopacity="1"
     objecttolerance="10"
     gridtolerance="10"
     guidetolerance="10"
     inkscape:pageopacity="0"
     inkscape:pageshadow="2"
     inkscape:window-width="1467"
     inkscape:window-height="955"
     id="namedview4"
     showgrid="false"
     inkscape:zoom="4.3277778"
     inkscape:cx="78"
     inkscape:cy="90"
     inkscape:window-x="800"
     inkscape:window-y="0"
     inkscape:window-maximized="0"
     inkscape:current-layer="g10" /><g
     id="g10"
     inkscape:groupmode="layer"
     inkscape:label="Codefor_Hex_sticker_ALL"
     transform="matrix(1.25,0,0,-1.25,0,180)"><path
       sodipodi:nodetypes="ccccccc"
       id="path14"
       style="fill:#000000;fill-opacity:1;fill-rule:nonzero;stroke:none"
       d="M 124.8,36 62.4,0 0,36 l 0,72 62.4,36 62.4,-36 z"
       inkscape:connector-curvature="0" /><path
       style="fill:#fecb32;fill-opacity:1"
       d="m 64.598521,102.15725 c -0.16422,0.0498 -0.290439,0.15131 -0.353646,0.28451 -0.194048,0.40892 0.08281,0.73821 0.990541,1.17814 0.780331,0.37818 0.974337,0.60093 0.973082,1.11723 -5.69e-4,0.232 -0.02479,0.3472 -0.131583,0.62559 -0.191269,0.49864 -0.318151,0.67519 -1.145238,1.59358 -0.328474,0.36474 -0.851591,1.10392 -1.028979,1.45398 -0.191512,0.37792 -0.470742,0.53032 -0.884578,0.48278 -0.575022,-0.0661 -2.02567,-0.30697 -2.567987,-0.42648 -1.043168,-0.22989 -1.182207,-0.18403 -2.136173,0.7046 -1.31749,1.22727 -2.133932,1.89954 -3.471388,2.85836 -0.323285,0.23177 -0.446702,0.26137 -0.678025,0.16263 -0.232189,-0.0991 -2.532449,-1.7386 -2.763563,-1.96972 -0.250479,-0.25048 -0.308426,-0.48503 -0.390375,-1.5801 -0.100493,-1.34293 -0.246332,-2.92498 -0.289426,-3.1397 -0.05162,-0.25714 -0.134655,-0.30462 -0.376968,-0.21552 -0.488905,0.17977 -0.593048,0.18274 -0.680456,0.0194 -0.07577,-0.14159 -0.01412,-0.39845 0.304996,-1.27084 0.09668,-0.26431 0.118745,-0.77733 0.03972,-0.923 -0.02655,-0.0489 -0.121484,-0.12128 -0.211019,-0.16089 -0.1601,-0.0708 -0.181479,-0.0708 -1.295334,0.004 -1.367655,0.0912 -2.457865,0.1811 -2.754084,0.22721 -0.12028,0.0187 -0.302313,0.0795 -0.404522,0.13518 -0.249104,0.13557 -0.571104,0.43727 -0.571104,0.53509 0,0.22815 0.275602,0.35001 1.611376,0.71252 0.866214,0.23507 1.321078,0.38777 1.44466,0.48498 0.05645,0.0444 0.160991,0.20704 0.232318,0.36142 l 0.129683,0.28069 -0.198748,0.32409 -0.19875,0.32409 0.08316,0.55373 c 0.300091,1.99822 0.346541,2.46183 0.346541,3.45886 0,1.00133 0.0721,1.19765 0.687612,1.87212 0.468849,0.51377 0.623797,0.71947 1.370907,1.81991 0.325622,0.47962 0.747873,1.06825 0.938333,1.30806 0.400229,0.50393 0.453389,0.59407 0.453389,0.76876 0,0.14843 -0.09071,0.24432 -0.328051,0.34679 -0.227111,0.0981 -0.395286,0.29192 -0.633069,0.72972 -0.378421,0.69675 -0.477786,0.8209 -0.771071,0.96351 -0.147437,0.0717 -0.166863,0.073 -0.272925,0.0181 -0.0628,-0.0325 -0.160526,-0.1198 -0.217161,-0.19405 -0.08889,-0.11654 -0.107469,-0.18783 -0.135877,-0.52136 -0.0181,-0.21251 -0.02294,-0.65935 -0.0108,-0.99301 0.02844,-0.77958 0.03323,-0.76935 -0.550488,-1.17034 -0.23981,-0.16474 -0.694556,-0.49362 -1.010542,-0.73085 -0.718205,-0.53921 -0.901048,-0.61076 -1.274646,-0.49883 -0.222303,0.0666 -0.534252,0.37005 -0.675621,0.65722 -0.167958,0.34118 -0.150337,0.62445 0.0675,1.08519 0.204484,0.43247 0.258451,0.46692 0.732522,0.46756 0.33283,4.3e-4 0.379101,0.01 0.519712,0.10262 0.302076,0.19989 0.461176,0.69068 0.354057,1.09217 -0.01948,0.073 -0.05397,0.32462 -0.07667,0.55919 -0.0227,0.23456 -0.0837,0.63486 -0.135579,0.88956 -0.225147,1.10548 -0.271143,2.0547 -0.136094,2.80862 0.04762,0.26588 0.08932,0.70365 0.102914,1.08057 0.02095,0.58092 0.01625,0.65231 -0.05664,0.85807 -0.158796,0.44826 -0.386806,0.70447 -0.626939,0.70447 -0.127962,0 -0.391531,-0.24049 -0.43082,-0.39311 -0.02749,-0.10681 -0.04678,-0.11992 -0.191735,-0.1305 -0.167716,-0.0122 -0.437641,0.11111 -0.562688,0.25716 -0.03175,0.0371 -0.08738,0.0598 -0.12356,0.0503 -0.07244,-0.0189 -0.190819,0.079 -0.190819,0.15796 0,0.0692 -0.09306,0.0984 -0.227906,0.0714 -0.06715,-0.0134 -0.113328,-0.007 -0.113328,0.0164 0,0.0215 -0.13373,0.11745 -0.297175,0.21327 -0.320432,0.18785 -0.441247,0.20895 -0.750546,0.13107 -0.28628,-0.0721 -0.298251,-0.0417 -0.298251,0.75544 0,0.59098 -0.0086,0.68577 -0.0715,0.78967 -0.09621,0.15892 -0.242868,0.23895 -0.519546,0.28351 -0.43229,0.0696 -0.512181,0.19287 -0.501551,0.77377 0.01175,0.64321 0.194091,1.33391 0.527182,1.99713 0.321047,0.63925 0.837062,1.04381 1.514361,1.18728 0.346072,0.0733 1.079997,0.0729 1.450751,-7.7e-4 0.75329,-0.14973 1.226964,-0.53982 1.637813,-1.34883 0.267948,-0.52763 0.774142,-1.29818 1.008332,-1.53495 0.231792,-0.23435 0.386314,-0.25987 1.385989,-0.22895 0.516038,0.0159 0.887337,0.0111 0.99501,-0.013 0.09447,-0.0212 0.313322,-0.12982 0.486332,-0.24143 0.173014,-0.1116 0.368996,-0.23107 0.435522,-0.26547 0.150881,-0.078 2.565913,-0.65948 3.5039,-0.8436 0.418712,-0.0822 0.778897,-0.17533 0.901774,-0.23318 0.476242,-0.22421 1.588556,-1.49149 2.276978,-2.59422 0.262931,-0.42117 0.807,-1.464 0.953705,-1.828 0.04941,-0.1226 0.154487,-0.29635 0.233501,-0.38611 0.119403,-0.13565 0.195746,-0.18007 0.452085,-0.26305 0.85971,-0.2783 1.234926,-0.64689 1.273705,-1.2512 0.01256,-0.19578 0.0014,-0.30126 -0.04018,-0.38178 -0.119556,-0.23119 -0.148406,-0.24038 -0.787242,-0.25048 -0.738177,-0.0117 -0.884897,0.0301 -1.226108,0.34932 -0.28302,0.26475 -0.423229,0.50781 -0.4737,0.82122 -0.06422,0.39878 -0.120415,0.46497 -1.104316,1.30062 -0.712588,0.60523 -0.884186,0.77069 -1.29756,1.2512 -0.772144,0.89752 -1.03021,1.02904 -1.864301,0.95012 -0.679996,-0.0643 -0.701068,-0.15247 -0.227096,-0.95012 0.530215,-0.89232 0.834116,-1.21612 1.389429,-1.48043 0.438626,-0.20876 0.565901,-0.4367 0.613834,-1.0993 0.02882,-0.3983 0.09757,-0.66813 0.226148,-0.88754 0.108209,-0.18464 0.204209,-0.26296 0.513143,-0.41864 0.289602,-0.14594 0.406266,-0.23895 0.557095,-0.44411 0.200323,-0.27249 0.295508,-0.54822 0.601152,-1.74136 0.224556,-0.8766 0.301527,-1.12293 0.380068,-1.21626 0.232434,-0.27624 0.398341,-0.72643 0.639777,-1.73608 0.0723,-0.30237 0.166514,-0.66067 0.209352,-0.79621 0.04284,-0.13555 0.0781,-0.28483 0.07838,-0.33175 5.69e-4,-0.0987 -0.0701,-0.10548 -0.510773,-0.0487 -0.14565,0.0188 -0.271523,0.0274 -0.27972,0.0192 -0.02204,-0.022 0.402843,-0.76155 0.506497,-0.88153 l 0.08912,-0.10316 1.130858,0.01 c 0.621972,0.005 1.135421,0.0232 1.140998,0.0399 0.03359,0.1002 0.326863,0.55047 0.627341,0.96319 0.800415,1.09939 1.15591,1.50893 2.263946,2.60813 0.599098,0.5943 1.140214,1.15735 1.20248,1.25117 0.153472,0.2313 0.260737,0.44957 0.291891,0.59399 0.08244,0.38211 -0.347697,0.8472 -0.782908,0.84653 -0.200516,-3.1e-4 -0.315975,-0.074 -0.519243,-0.3316 -0.27569,-0.34933 -0.498954,-0.45561 -1.212919,-0.57743 -0.542723,-0.0926 -0.730656,-0.15562 -0.955778,-0.32051 -0.22331,-0.16357 -0.406123,-0.38885 -0.586537,-0.72282 -0.301907,-0.55886 -0.492907,-0.71564 -0.871849,-0.71564 -0.30422,0 -0.671556,0.17041 -0.809697,0.37564 l -0.09195,0.13658 0.08664,0.27232 c 0.149801,0.47085 0.204755,0.54011 0.583924,0.73594 0.438196,0.22632 0.710306,0.43382 1.069157,0.81528 0.291371,0.30973 1.097226,1.47208 1.140711,1.64535 0.0344,0.13706 -0.01464,0.33229 -0.119155,0.47437 -0.05157,0.0701 -0.140724,0.2213 -0.198127,0.33599 -0.09193,0.18367 -0.104372,0.25148 -0.104372,0.56872 0,0.33772 0.0077,0.37356 0.123807,0.57436 0.140414,0.2429 0.133259,0.15171 0.112614,1.43513 -0.01661,1.03269 0.0207,0.83364 -0.344948,1.84006 -0.05328,0.14661 -0.142143,0.51345 -0.197486,0.81516 -0.13647,0.74401 -0.221684,0.89646 -0.550802,0.98545 -0.18349,0.0496 -0.419596,-0.024 -0.719403,-0.22416 -0.242407,-0.16187 -0.370953,-0.18774 -0.520527,-0.10472 -0.11513,0.0639 -0.486761,0.56316 -0.690799,0.92807 -0.242121,0.433 -0.257414,0.45512 -0.362336,0.52386 -0.08329,0.0546 -0.12339,0.0573 -0.289506,0.0189 -0.164905,-0.0381 -0.206442,-0.0355 -0.286903,0.0172 -0.09018,0.0591 -0.0927,0.0713 -0.06077,0.29449 0.07139,0.49896 0.03681,1.13966 -0.09647,1.78734 -0.256852,1.24818 -0.192382,1.72111 0.300698,2.20591 0.1824,0.17934 0.767826,0.48396 1.232119,0.64111 0.400239,0.13548 0.983273,0.16735 1.345973,0.0735 0.219829,-0.0568 0.928126,-0.32784 1.173571,-0.44903 0.05116,-0.0252 0.226878,-0.19752 0.390503,-0.38282 0.434302,-0.49181 0.799731,-0.74547 1.260574,-0.875 0.496391,-0.13952 0.591731,-0.24079 0.660774,-0.70189 0.0595,-0.39729 0.195898,-0.55693 0.602094,-0.70465 0.773366,-0.28126 1.361541,-0.52191 1.495509,-0.61188 0.427912,-0.2874 0.43977,-0.65033 0.03535,-1.08197 -0.239208,-0.25532 -0.285153,-0.34621 -0.255337,-0.50514 0.03858,-0.20565 0.241521,-0.33403 1.128862,-0.71407 0.452998,-0.19402 1.016031,-0.46035 1.251186,-0.59186 0.601339,-0.33628 1.658683,-1.01728 1.783156,-1.14845 0.05743,-0.0605 0.132153,-0.20628 0.166053,-0.32388 0.08251,-0.28628 0.271458,-0.65586 0.479905,-0.93866 0.2222,-0.30146 0.479902,-0.57586 2.413213,-2.56969 0.887513,-0.91531 1.642994,-1.72343 1.678853,-1.79585 0.198023,-0.39999 0.51904,-0.59541 1.073094,-0.65326 1.038935,-0.10848 3.028926,-0.12801 3.342767,-0.0328 0.384996,0.11678 0.554537,0.53193 0.409459,1.00261 -0.03157,0.10238 -0.07477,0.41647 -0.09603,0.69798 -0.0435,0.57605 -0.08971,0.87514 -0.170534,1.10422 -0.07783,0.22057 -0.06976,0.62316 0.01633,0.8126 0.105584,0.23245 0.350578,0.41937 0.70402,0.53715 0.271097,0.0903 0.364099,0.10185 0.835846,0.10346 0.459211,0.002 0.565018,-0.01 0.784471,-0.0858 0.551835,-0.19068 0.97052,-0.56716 1.367075,-1.2293 0.274686,-0.45864 0.305032,-0.58206 0.19171,-0.77952 -0.06075,-0.10585 -0.0606,-0.1178 0.0031,-0.21477 0.03704,-0.0564 0.129932,-0.12895 0.206509,-0.16104 0.144054,-0.0603 0.112252,-0.0607 1.431056,0.0126 0.477645,0.0266 0.672966,-0.005 1.117723,-0.1808 0.291334,-0.11513 0.306465,-0.12737 0.456716,-0.36965 0.08547,-0.13781 0.234769,-0.32172 0.331774,-0.40868 0.298496,-0.26759 0.203623,-0.27486 -0.6625,-0.0507 -2.112461,0.54663 -1.904705,0.50322 -2.037639,0.42581 -0.127945,-0.0745 -0.166099,-0.18786 -0.102935,-0.30588 0.04458,-0.0834 0.557279,-0.30779 1.666671,-0.72963 0.748188,-0.2845 0.848566,-0.3486 0.788998,-0.50384 -0.07508,-0.19566 -0.571762,-0.24103 -1.081994,-0.0989 -0.328325,0.0915 -0.48235,0.16629 -0.850931,0.41324 -0.467211,0.31303 -0.714269,0.42032 -0.967849,0.42032 -0.39918,0 -0.575459,-0.12677 -0.575459,-0.41385 0,-0.12771 0.174716,-0.35367 0.33738,-0.43636 0.110143,-0.056 1.002107,-0.27543 2.259779,-0.55596 1.035679,-0.23101 1.188334,-0.30211 1.860853,-0.86688 0.416683,-0.34992 0.562076,-0.50285 0.909959,-0.95715 0.463253,-0.60496 1.075234,-1.34787 1.270885,-1.5428 0.09789,-0.0975 0.23336,-0.16365 0.562778,-0.27468 0.512626,-0.17278 0.693979,-0.28322 0.797137,-0.48543 0.109603,-0.21484 0.142221,-0.63502 0.06237,-0.80333 -0.09691,-0.20421 -0.256629,-0.27967 -0.591915,-0.27967 -0.341075,0 -0.600753,0.0887 -0.738254,0.25207 -0.108348,0.12876 -0.125504,0.2782 -0.03588,0.31259 0.03296,0.0127 0.288907,0.0231 0.568721,0.0231 l 0.508738,0 0,0.0964 c 0,0.081 -0.03804,0.11448 -0.236963,0.20917 -0.22522,0.1072 -0.259516,0.11249 -0.691946,0.10681 -0.250238,-0.003 -0.497627,0.0118 -0.549764,0.0335 -0.05213,0.0217 -0.53026,0.36106 -1.062514,0.75414 -1.482731,1.09504 -1.472959,1.08896 -1.775612,1.10606 -0.442355,0.0251 -0.662955,-0.13176 -0.656233,-0.46631 0.007,-0.34394 0.27852,-0.73305 0.955205,-1.3684 0.26004,-0.24415 0.788444,-0.75419 1.174227,-1.13343 0.857875,-0.84331 0.959802,-0.93023 1.091365,-0.9307 0.0566,-3.8e-4 0.192287,-0.042 0.301483,-0.0928 0.157282,-0.0732 0.236061,-0.14543 0.379145,-0.34749 0.419285,-0.59208 0.556732,-0.68148 0.999034,-0.64984 0.339474,0.0243 0.721383,0.2052 1.096617,0.51948 0.419833,0.35164 0.608316,0.42466 0.896068,0.34718 0.215809,-0.0581 0.385181,-0.19958 0.753368,-0.62924 0.617448,-0.72055 0.825982,-1.11711 0.878358,-1.67034 0.0462,-0.4876 -0.297686,-0.75822 -0.700262,-0.55115 -0.169618,0.0872 -0.287761,0.2118 -0.49484,0.52169 -0.268178,0.40131 -0.669944,0.65714 -1.032003,0.65714 -0.398649,0 -0.738193,-0.43174 -0.813485,-1.03437 -0.03088,-0.24735 -0.122031,-0.38838 -0.269111,-0.41649 -0.05544,-0.0106 -0.580471,0.0298 -1.166734,0.0898 -1.180641,0.12082 -1.427282,0.13144 -1.494358,0.0644 -0.07677,-0.0768 -0.05321,-0.4104 0.04374,-0.61801 0.08913,-0.19096 0.297377,-0.4268 1.435298,-1.6255 0.327593,-0.34508 0.630437,-0.69567 0.672989,-0.77908 0.04697,-0.0921 0.07685,-0.22292 0.076,-0.33326 -0.0015,-0.28344 -0.107363,-0.42621 -0.568622,-0.77118 -0.176564,-0.13205 -0.495563,-0.41121 -0.708886,-0.62035 -0.213316,-0.20913 -0.418054,-0.39112 -0.454976,-0.40442 -0.03688,-0.0133 -0.172891,-0.0359 -0.302167,-0.0502 l -0.235038,-0.026 0.07539,0.22313 c 0.0415,0.12273 0.15321,0.35808 0.248368,0.523 0.412586,0.71511 0.437542,0.76959 0.458548,1.00123 0.01802,0.19889 0.0087,0.24483 -0.0753,0.37177 -0.05275,0.0797 -0.332329,0.32589 -0.621353,0.54718 -0.289031,0.2213 -0.892333,0.70267 -1.340679,1.06971 -0.448338,0.36705 -0.884533,0.70105 -0.969319,0.74222 -0.115217,0.056 -0.23282,0.0749 -0.465664,0.0749 -0.176586,0 -0.364876,0.0223 -0.434694,0.0515 -0.213986,0.0894 -1.448958,1.47275 -1.697247,1.90115 -0.14852,0.25625 -0.32044,0.73999 -0.458149,1.2891 -0.14999,0.59808 -0.43387,1.50919 -0.52728,1.69227 -0.119867,0.23497 -0.197207,0.26516 -0.652252,0.25466 -0.443857,-0.0102 -0.555092,0.0292 -0.622368,0.22075 -0.02071,0.0589 -0.06452,0.18398 -0.09745,0.27782 -0.03288,0.0938 -0.147589,0.38388 -0.254905,0.64455 -0.107301,0.26066 -0.280892,0.72986 -0.385744,1.04266 -0.20721,0.61812 -0.306995,0.78742 -0.519271,0.88102 -0.961211,0.42388 -1.129281,0.52895 -1.654998,1.03478 -0.208534,0.20063 -0.438867,0.40039 -0.511849,0.44389 -0.323111,0.1926 -0.899602,0.26232 -1.334697,0.16139 -0.110473,-0.0256 -0.345873,-0.1157 -0.523129,-0.20017 l -0.322273,-0.15359 -0.644551,-0.0225 c -0.696143,-0.0243 -0.669362,-0.017 -1.069159,-0.29075 -0.421758,-0.28875 -0.699,-0.31084 -0.935293,-0.0745 -0.152446,0.15244 -0.213639,0.36732 -0.213347,0.74914 3.78e-4,0.37094 0.04466,0.51013 0.266562,0.83575 0.212678,0.31213 0.234715,0.44509 0.102897,0.62096 -0.0469,0.0626 -0.349769,0.36055 -0.672989,0.66212 -1.545542,1.44198 -1.588462,1.47577 -1.874687,1.47577 -0.09686,0 -0.147584,-0.0232 -0.186496,-0.0853 -0.108958,-0.1739 -0.192754,-0.50611 -0.193661,-0.76778 -0.0012,-0.33993 0.118943,-0.60134 0.534067,-1.16229 0.252892,-0.34173 1.265101,-2.01029 1.528922,-2.52032 0.04451,-0.0861 0.123494,-0.35727 0.175454,-0.60259 0.07254,-0.3424 0.119475,-0.47784 0.202051,-0.5828 0.29074,-0.36957 0.364299,-0.76819 0.270759,-1.46728 -0.02487,-0.18575 -0.05875,-0.6557 -0.07531,-1.04436 -0.01655,-0.38865 -0.04258,-0.72677 -0.05775,-0.75137 -0.02341,-0.0379 -0.05706,-0.84629 -0.0703,-1.69082 -0.0039,-0.26727 0.09565,-0.44733 0.293997,-0.5302 0.214995,-0.0898 0.929434,-0.20721 1.265304,-0.20788 0.605843,-0.001 0.990733,-0.12882 1.486227,-0.49277 0.307611,-0.22595 0.650412,-0.41413 1.042655,-0.57239 0.414496,-0.16723 0.793741,-0.17265 1.156393,-0.0165 0.710928,0.30604 1.018916,0.35138 1.244536,0.18321 0.20674,-0.15409 0.241253,-0.2705 0.293598,-0.99034 0.08652,-1.18984 0.174584,-3.1917 0.147572,-3.35478 -0.06877,-0.41537 -0.31776,-0.59211 -0.556956,-0.39536 -0.11855,0.0975 -0.725419,1.26374 -0.998179,1.91822 -0.09862,0.23664 -0.233468,0.50963 -0.299657,0.60664 -0.134614,0.19729 -0.409576,0.40095 -0.620397,0.45951 -0.191648,0.0532 -0.715101,0.0482 -1.935975,-0.0184 -1.618438,-0.0884 -2.416522,-0.085 -2.813762,0.0118 -0.179274,0.0437 -0.424068,0.12287 -0.543989,0.17591 -0.529816,0.2343 -1.067488,0.70737 -1.452929,1.27835 -0.618753,0.91659 -1.121373,1.33317 -1.866713,1.54719 -0.156399,0.0449 -0.685309,0.21648 -1.175357,0.38128 -0.969121,0.3259 -1.233942,0.37865 -1.900973,0.37865 -0.46866,0 -0.563493,-0.0305 -0.563467,-0.18143 1.6e-5,-0.0768 0.04936,-0.14542 0.194356,-0.27029 0.341123,-0.29376 0.476076,-0.58309 0.620493,-1.33027 0.192103,-0.99388 0.555963,-1.7412 1.200221,-2.46507 0.563311,-0.63292 1.212601,-1.4774 1.30387,-1.69583 0.118328,-0.2832 0.03318,-0.59293 -0.206397,-0.75085 -0.167345,-0.11031 -1.441223,-0.62582 -2.723886,-1.10231 -0.948456,-0.35233 -0.960365,-0.35558 -1.289101,-0.35235 -0.182491,0.002 -0.375932,0.0166 -0.429867,0.033 z"
       id="path3051"
       inkscape:connector-curvature="0"
       sodipodi:nodetypes="ccscsssssscsssccsscccccsscscccsssssssscssccsssssssccscccsccccscscsscccsscssccccssssssssssssssssssssscsscccscscsscccsssssscssssscssssssccscccssssscssssccsssccsscssssccscssccssssssssssssssssssssscsccscssccssssscsscscsssssccsccsccsscsccsccsscscsscscccsssscscsssccsssscssssssccscsssssscssssscscsscssssssccc" /></g></svg>