<?xml version="1.0" encoding="UTF-8" standalone="no"?>
<!-- Created with Inkscape (http://www.inkscape.org/) -->

<svg
   xmlns:dc="http://purl.org/dc/elements/1.1/"
   xmlns:cc="http://creativecommons.org/ns#"
   xmlns:rdf="http://www.w3.org/1999/02/22-rdf-syntax-ns#"
   xmlns:svg="http://www.w3.org/2000/svg"
   xmlns="http://www.w3.org/2000/svg"
   xmlns:sodipodi="http://sodipodi.sourceforge.net/DTD/sodipodi-0.dtd"
   xmlns:inkscape="http://www.inkscape.org/namespaces/inkscape"
   id="svg2"
   version="1.1"
   inkscape:version="0.48.5 r10040"
   width="156"
   height="180"
   xml:space="preserve"
   sodipodi:docname="sunset.svg"><metadata
     id="metadata8"><rdf:RDF><cc:Work
         rdf:about=""><dc:format>image/svg+xml</dc:format><dc:type
           rdf:resource="http://purl.org/dc/dcmitype/StillImage" /><dc:title></dc:title></cc:Work></rdf:RDF></metadata><defs
     id="defs6"><clipPath
       clipPathUnits="userSpaceOnUse"
       id="clipPath24"><path
         d="m 0,198.425 198.425,0 L 198.425,0 0,0 0,198.425 z"
         id="path26"
         inkscape:connector-curvature="0" /></clipPath></defs><sodipodi:namedview
     pagecolor="#ffffff"
     bordercolor="#666666"
     borderopacity="1"
     objecttolerance="10"
     gridtolerance="10"
     guidetolerance="10"
     inkscape:pageopacity="0"
     inkscape:pageshadow="2"
     inkscape:window-width="1600"
     inkscape:window-height="837"
     id="namedview4"
     showgrid="false"
     inkscape:zoom="3.7333074"
     inkscape:cx="49.773944"
     inkscape:cy="89.071187"
     inkscape:window-x="-8"
     inkscape:window-y="-8"
     inkscape:window-maximized="1"
     inkscape:current-layer="g10"
     showguides="true"
     inkscape:guide-bbox="true" /><g
     id="g10"
     inkscape:groupmode="layer"
     inkscape:label="Codefor_Hex_sticker_ALL"
     transform="matrix(1.25,0,0,-1.25,0,180)"><path
       sodipodi:nodetypes="ccccccc"
       id="path14"
       style="fill:#2f6272;fill-opacity:1;fill-rule:nonzero;stroke:none"
       d="M 124.8,36 62.4,0 0,36 l 0,72 62.4,36 62.4,-36 z"
       inkscape:connector-curvature="0" /><path
       style="fill:none;stroke:#28525e;stroke-width:0.80009591999999985;stroke-linecap:round;stroke-linejoin:round;stroke-miterlimit:4;stroke-opacity:0.57915056;stroke-dasharray:none"
       d="m 62.400048,143.59986 0,-72.799812"
       id="path3760"
       inkscape:connector-curvature="0" /><path
       inkscape:connector-curvature="0"
       d="M 124.8,36 62.4,0 0,36 0,36 62.4,72 124.8,36 z"
       style="fill:#335816;fill-opacity:1;fill-rule:nonzero;stroke:none"
       id="path2988"
       sodipodi:nodetypes="ccccccc" /><path
       sodipodi:type="arc"
       style="fill:#f1f6dc;fill-opacity:1;stroke:none"
       id="path3830"
       sodipodi:cx="83.304153"
       sodipodi:cy="41.249035"
       sodipodi:rx="22.768015"
       sodipodi:ry="22.768015"
       d="m 106.07217,41.249035 a 22.768015,22.768015 0 1 1 -45.536031,0 22.768015,22.768015 0 1 1 45.536031,0 z"
       transform="matrix(0.87842529,0,0,-0.87842529,-10.776475,149.02056)" /><path
       inkscape:connector-curvature="0"
       d="M 124.8,-108 62.4,-144 0,-108 0,-36 62.4,0 124.8,-36 z"
       style="fill:#64d0f2;fill-opacity:1;fill-rule:nonzero;stroke:none"
       id="path3832"
       sodipodi:nodetypes="ccccccc" /><path
       inkscape:connector-curvature="0"
       id="path3834"
       d="m 62.400048,-0.40014 0,-72.799812"
       style="fill:none;stroke:#52a9c3;stroke-width:0.80009592;stroke-linecap:round;stroke-linejoin:round;stroke-miterlimit:4;stroke-opacity:0.57915057;stroke-dasharray:none" /><path
       sodipodi:nodetypes="ccccccc"
       id="path3836"
       style="fill:#65b02b;fill-opacity:1;fill-rule:nonzero;stroke:none"
       d="m 124.8,-108 -62.4,-36 -62.4,36 0,0 62.4,36 62.4,-36 z"
       inkscape:connector-curvature="0" /><path
       transform="matrix(0.87842529,0,0,-0.87842529,-10.776475,5.02056)"
       d="m 106.07217,41.249035 a 22.768015,22.768015 0 1 1 -45.536031,0 22.768015,22.768015 0 1 1 45.536031,0 z"
       sodipodi:ry="22.768015"
       sodipodi:rx="22.768015"
       sodipodi:cy="41.249035"
       sodipodi:cx="83.304153"
       id="path3838"
       style="fill:#f1f61e;fill-opacity:1;stroke:none"
       sodipodi:type="arc" /></g></svg>