<?xml version="1.0" encoding="UTF-8" standalone="no"?>
<!-- Created with Inkscape (http://www.inkscape.org/) -->

<svg
   xmlns:dc="http://purl.org/dc/elements/1.1/"
   xmlns:cc="http://creativecommons.org/ns#"
   xmlns:rdf="http://www.w3.org/1999/02/22-rdf-syntax-ns#"
   xmlns:svg="http://www.w3.org/2000/svg"
   xmlns="http://www.w3.org/2000/svg"
   xmlns:sodipodi="http://sodipodi.sourceforge.net/DTD/sodipodi-0.dtd"
   xmlns:inkscape="http://www.inkscape.org/namespaces/inkscape"
   id="svg2"
   version="1.1"
   inkscape:version="0.91 r13725"
   width="156"
   height="180"
   xml:space="preserve"
   sodipodi:docname="train.svg"><metadata
     id="metadata8"><rdf:RDF><cc:Work
         rdf:about=""><dc:format>image/svg+xml</dc:format><dc:type
           rdf:resource="http://purl.org/dc/dcmitype/StillImage" /><dc:title /></cc:Work></rdf:RDF></metadata><defs
     id="defs6"><clipPath
       clipPathUnits="userSpaceOnUse"
       id="clipPath24"><path
         d="m 0,198.425 198.425,0 L 198.425,0 0,0 0,198.425 z"
         id="path26"
         inkscape:connector-curvature="0" /></clipPath></defs><sodipodi:namedview
     pagecolor="#ffffff"
     bordercolor="#666666"
     borderopacity="1"
     objecttolerance="10"
     gridtolerance="10"
     guidetolerance="10"
     inkscape:pageopacity="0"
     inkscape:pageshadow="2"
     inkscape:window-width="1443"
     inkscape:window-height="798"
     id="namedview4"
     showgrid="false"
     inkscape:zoom="3.6730769"
     inkscape:cx="94.879581"
     inkscape:cy="90"
     inkscape:window-x="-3"
     inkscape:window-y="0"
     inkscape:window-maximized="0"
     inkscape:current-layer="g10"
     showguides="true"
     inkscape:guide-bbox="true" /><g
     id="g10"
     inkscape:groupmode="layer"
     inkscape:label="Codefor_Hex_sticker_ALL"
     transform="matrix(1.25,0,0,-1.25,0,180)"><path
       sodipodi:nodetypes="ccccc"
       id="path3176"
       style="fill:#c4366f;fill-opacity:1;fill-rule:nonzero;stroke:none"
       d="M 62.4,72 0,108 l 0,0 62.4,36 c 0,0 0.02874,-71.999977 0,-72 z"
       inkscape:connector-curvature="0" /><path
       inkscape:connector-curvature="0"
       d="m 62.399973,72 62.399997,36 0,0 -62.399997,36 c -0.300945,0 -0.298879,-71.999977 0,-72 z"
       style="fill:#c93b74;fill-opacity:1;fill-rule:nonzero;stroke:none"
       id="path3178"
       sodipodi:nodetypes="ccccc" /><path
       inkscape:connector-curvature="0"
       d="M 62.4,0 0,36 0,36 62.4,72 c 0,0 0.02874,-71.999977240587 0,-72 z"
       style="fill:#b43266;fill-opacity:1;fill-rule:nonzero;stroke:none"
       id="path2988"
       sodipodi:nodetypes="ccccc" /><path
       inkscape:connector-curvature="0"
       d="M 62.376794,72.005095 C 42.644373,58.943991 22.551707,46.242983 0,36 l 0,0 0.02308996,71.97025 C 1.223723,109.17038 64.033024,73.67117 62.376794,72.005095 z"
       style="fill:#bd336a;fill-opacity:1;fill-rule:nonzero;stroke:none"
       id="path3180"
       sodipodi:nodetypes="ccccc" /><path
       sodipodi:nodetypes="ccccc"
       id="path3182"
       style="fill:#c4366f;fill-opacity:1;fill-rule:nonzero;stroke:none"
       d="M 62.423396,71.994906 C 82.155817,85.05601 102.24848,97.757018 124.80019,108 l 0,0 -0.0231,-71.970249 c -1.20063,-1.20013 -64.009934,34.29908 -62.353704,35.965155 z"
       inkscape:connector-curvature="0" /><path
       sodipodi:nodetypes="ccccc"
       id="path3174"
       style="fill:#bd336a;fill-opacity:1;fill-rule:nonzero;stroke:none"
       d="m 62.399973,0 62.399997,36 0,0 -62.399997,36 c -1.498971,-1.124229 -0.7564,-72.5457219 0,-72 z"
       inkscape:connector-curvature="0" /><path
       style="fill:#ffffff;fill-opacity:1;fill-rule:evenodd;stroke:none;stroke-width:0.54505582pt;stroke-linecap:butt;stroke-linejoin:miter;stroke-opacity:1"
       d="m 60.551417,131.72722 c -2.486658,0 -4.505167,-2.017 -4.505168,-4.50366 0,-2.48665 2.01851,-4.50516 4.505168,-4.50516 0.62869,0 1.224787,0.13101 1.768539,0.36397 0.791887,-0.87689 1.926616,-1.43477 3.200286,-1.43477 0.317543,0 0.629228,0.0362 0.927312,0.10119 0.617189,-0.63434 1.477271,-1.03151 2.431552,-1.03151 0.93743,0 1.787686,0.38009 2.402858,0.99527 0.307585,0.30758 1.327115,0.13602 1.61298,-0.62677 0.05839,-0.16613 -0.01408,-2.87197 0.123843,-2.89521 0.137923,-0.0232 1.525395,-0.18335 1.634124,-0.0649 0.108728,0.11842 -0.173569,2.21732 -0.333772,3.13686 -0.304965,1.77573 -1.775403,4.01527 -2.25787,4.60031 -0.482466,0.58506 -1.714222,1.40961 -2.484413,1.5707 -0.60173,1.6646 -2.184685,2.86349 -4.056614,2.86349 -0.516505,0 -1.007133,-0.10708 -1.466483,-0.27336 -0.825738,1.03181 -2.079006,1.7036 -3.502342,1.7036 z m -12.974824,-13.6333 -0.003,-2.23824 1.600897,0 c 0.33382,-0.005 0.631087,-0.38556 0.625257,-0.71286 l -0.01661,-2.91181 c -0.0072,-0.34313 -0.28411,-0.66836 -0.613174,-0.65396 l -3.037175,0.003 0,-5.16214 1.362273,0 a 3.1462129,3.1462129 0 0 1 -0.217481,-1.14479 3.1462129,3.1462129 0 0 1 3.145916,-3.14592 3.1462129,3.1462129 0 0 1 3.145915,3.14592 3.1462129,3.1462129 0 0 1 -0.21446,1.14479 l 1.863687,0 a 3.1462129,3.1462129 0 0 1 -0.218991,-1.14479 3.1462129,3.1462129 0 0 1 3.145916,-3.14592 3.1462129,3.1462129 0 0 1 3.147425,3.14592 3.1462129,3.1462129 0 0 1 -0.21597,1.14479 l 1.863687,0 a 3.1462129,3.1462129 0 0 1 -0.218991,-1.14479 3.1462129,3.1462129 0 0 1 3.147426,-3.14592 3.1462129,3.1462129 0 0 1 3.145915,3.14592 3.1462129,3.1462129 0 0 1 -0.0076,0.22352 3.1462129,3.1462129 0 0 1 -0.208419,0.92127 l 9.868176,0 0,2.791 -1.50122,-0.003 0,6.64976 -1.912015,0 -0.0151,1.18104 0.54219,0.58901 -0.003,0.44704 -1.896913,0 -1.924098,0 -0.0015,-0.40173 0.524067,-0.5724 0.03021,-1.24296 -8.428878,0 -0.01359,0.93033 c 0.01086,0.4846 -0.452754,1.30326 -0.934863,1.28223 l -0.974132,0.005 -0.934863,0.0136 c -0.489154,0.002 -0.984276,-0.60851 -0.974132,-1.2641 l -0.01359,-0.96658 -6.169499,0 -0.003,2.22464 -6.486657,0.0136 z M 71.839257,106.06 a 1.966383,1.966383 0 0 1 -1.966385,-1.96639 1.966383,1.966383 0 0 1 1.966385,-1.96639 1.966383,1.966383 0 0 1 1.966386,1.96639 1.966383,1.966383 0 0 1 -1.966386,1.96639 z m 4.647135,0 a 1.966383,1.966383 0 0 1 -1.966386,-1.96639 1.966383,1.966383 0 0 1 1.966386,-1.96639 1.966383,1.966383 0 0 1 1.966386,1.96639 1.966383,1.966383 0 0 1 -1.966386,1.96639 z"
       id="path644"
       inkscape:connector-curvature="0" /></g></svg>