<?xml version="1.0" encoding="UTF-8" standalone="no"?>
<!-- Created with Inkscape (http://www.inkscape.org/) -->

<svg
   xmlns:dc="http://purl.org/dc/elements/1.1/"
   xmlns:cc="http://creativecommons.org/ns#"
   xmlns:rdf="http://www.w3.org/1999/02/22-rdf-syntax-ns#"
   xmlns:svg="http://www.w3.org/2000/svg"
   xmlns="http://www.w3.org/2000/svg"
   xmlns:xlink="http://www.w3.org/1999/xlink"
   xmlns:sodipodi="http://sodipodi.sourceforge.net/DTD/sodipodi-0.dtd"
   xmlns:inkscape="http://www.inkscape.org/namespaces/inkscape"
   id="svg2"
   version="1.1"
   inkscape:version="0.48.5 r10040"
   width="156"
   height="180"
   xml:space="preserve"
   sodipodi:docname="water.svg"><metadata
     id="metadata8"><rdf:RDF><cc:Work
         rdf:about=""><dc:format>image/svg+xml</dc:format><dc:type
           rdf:resource="http://purl.org/dc/dcmitype/StillImage" /><dc:title /></cc:Work></rdf:RDF></metadata><defs
     id="defs6"><clipPath
       clipPathUnits="userSpaceOnUse"
       id="clipPath24"><path
         d="m 0,198.425 198.425,0 L 198.425,0 0,0 0,198.425 z"
         id="path26"
         inkscape:connector-curvature="0" /></clipPath><linearGradient
       inkscape:collect="always"
       xlink:href="#SVGID_1_"
       id="linearGradient5422"
       gradientUnits="userSpaceOnUse"
       x1="555.02551"
       y1="51.5"
       x2="639.46509"
       y2="51.5" /><linearGradient
       inkscape:collect="always"
       xlink:href="#SVGID_2_"
       id="linearGradient5424"
       gradientUnits="userSpaceOnUse"
       x1="554.27338"
       y1="51.5"
       x2="640.21722"
       y2="51.5" /><linearGradient
       inkscape:collect="always"
       xlink:href="#SVGID_3_"
       id="linearGradient5426"
       gradientUnits="userSpaceOnUse"
       x1="554.42383"
       y1="51.5"
       x2="640.06677"
       y2="51.5" /><linearGradient
       inkscape:collect="always"
       xlink:href="#SVGID_4_"
       id="linearGradient5428"
       gradientUnits="userSpaceOnUse"
       x1="597.16058"
       y1="76.235703"
       x2="597.16058"
       y2="20.7661" /><linearGradient
       inkscape:collect="always"
       xlink:href="#SVGID_5_"
       id="linearGradient5430"
       gradientUnits="userSpaceOnUse"
       x1="597.16101"
       y1="73.541496"
       x2="597.16101"
       y2="19.996" /><linearGradient
       inkscape:collect="always"
       xlink:href="#SVGID_6_"
       id="linearGradient5432"
       gradientUnits="userSpaceOnUse"
       x1="561.7406"
       y1="51.5"
       x2="632.75012"
       y2="51.5" /><radialGradient
       inkscape:collect="always"
       xlink:href="#SVGID_7_"
       id="radialGradient5434"
       gradientUnits="userSpaceOnUse"
       cx="617.15747"
       cy="51.147598"
       r="2.6143999" /><radialGradient
       inkscape:collect="always"
       xlink:href="#SVGID_8_"
       id="radialGradient5436"
       gradientUnits="userSpaceOnUse"
       cx="577.54388"
       cy="51.147598"
       r="2.6143999" /><linearGradient
       inkscape:collect="always"
       xlink:href="#SVGID_9_"
       id="linearGradient5438"
       gradientUnits="userSpaceOnUse"
       x1="627.20978"
       y1="70.156502"
       x2="644.66669"
       y2="70.156502" /><linearGradient
       inkscape:collect="always"
       xlink:href="#SVGID_10_"
       id="linearGradient5440"
       gradientUnits="userSpaceOnUse"
       x1="627.20978"
       y1="70.156502"
       x2="644.66669"
       y2="70.156502" /><radialGradient
       inkscape:collect="always"
       xlink:href="#SVGID_11_"
       id="radialGradient5442"
       gradientUnits="userSpaceOnUse"
       cx="597.14001"
       cy="80.907799"
       r="38.791901" /><linearGradient
       inkscape:collect="always"
       xlink:href="#SVGID_12_"
       id="linearGradient5444"
       gradientUnits="userSpaceOnUse"
       x1="548.43298"
       y1="70.156502"
       x2="565.88989"
       y2="70.156502" /><linearGradient
       inkscape:collect="always"
       xlink:href="#SVGID_13_"
       id="linearGradient5446"
       gradientUnits="userSpaceOnUse"
       x1="548.43298"
       y1="70.156502"
       x2="565.88989"
       y2="70.156502" /><radialGradient
       inkscape:collect="always"
       xlink:href="#SVGID_14_"
       id="radialGradient5448"
       gradientUnits="userSpaceOnUse"
       cx="597.14001"
       cy="80.907799"
       r="38.791901" /><linearGradient
       inkscape:collect="always"
       xlink:href="#SVGID_15_"
       id="linearGradient5450"
       gradientUnits="userSpaceOnUse"
       x1="560.15588"
       y1="66.442596"
       x2="632.8576"
       y2="66.442596" /><linearGradient
       inkscape:collect="always"
       xlink:href="#SVGID_16_"
       id="linearGradient5452"
       gradientUnits="userSpaceOnUse"
       x1="560.57727"
       y1="66.442596"
       x2="632.43622"
       y2="66.442596" /><linearGradient
       inkscape:collect="always"
       xlink:href="#SVGID_17_"
       id="linearGradient5454"
       gradientUnits="userSpaceOnUse"
       gradientTransform="translate(168,-3)"
       x1="380.43301"
       y1="72.043297"
       x2="476.66669"
       y2="72.043297" /><linearGradient
       inkscape:collect="always"
       xlink:href="#SVGID_18_"
       id="linearGradient5456"
       gradientUnits="userSpaceOnUse"
       gradientTransform="translate(168,-3)"
       x1="380.43301"
       y1="72.043297"
       x2="476.66669"
       y2="72.043297" /><linearGradient
       inkscape:collect="always"
       xlink:href="#SVGID_19_"
       id="linearGradient5458"
       gradientUnits="userSpaceOnUse"
       gradientTransform="translate(168,-3)"
       x1="380.43301"
       y1="72.043297"
       x2="476.66669"
       y2="72.043297" /><linearGradient
       inkscape:collect="always"
       xlink:href="#SVGID_20_"
       id="linearGradient5460"
       gradientUnits="userSpaceOnUse"
       gradientTransform="translate(168,-3)"
       x1="380.43301"
       y1="72.043297"
       x2="476.66669"
       y2="72.043297" /><linearGradient
       inkscape:collect="always"
       xlink:href="#SVGID_21_"
       id="linearGradient5462"
       gradientUnits="userSpaceOnUse"
       gradientTransform="translate(168,-3)"
       x1="380.43301"
       y1="72.043297"
       x2="476.66669"
       y2="72.043297" /><linearGradient
       inkscape:collect="always"
       xlink:href="#SVGID_22_"
       id="linearGradient5464"
       gradientUnits="userSpaceOnUse"
       gradientTransform="translate(168,-3)"
       x1="380.43301"
       y1="72.043297"
       x2="476.66669"
       y2="72.043297" /><linearGradient
       inkscape:collect="always"
       xlink:href="#SVGID_23_"
       id="linearGradient5466"
       gradientUnits="userSpaceOnUse"
       gradientTransform="translate(168,-3)"
       x1="380.43301"
       y1="72.043297"
       x2="476.66669"
       y2="72.043297" /><linearGradient
       inkscape:collect="always"
       xlink:href="#SVGID_24_"
       id="linearGradient5468"
       gradientUnits="userSpaceOnUse"
       gradientTransform="translate(168,-3)"
       x1="380.43301"
       y1="72.043297"
       x2="476.66669"
       y2="72.043297" /><linearGradient
       inkscape:collect="always"
       xlink:href="#SVGID_25_"
       id="linearGradient5470"
       gradientUnits="userSpaceOnUse"
       gradientTransform="translate(168,-3)"
       x1="380.43301"
       y1="72.043297"
       x2="476.66669"
       y2="72.043297" /><linearGradient
       inkscape:collect="always"
       xlink:href="#SVGID_26_"
       id="linearGradient5472"
       gradientUnits="userSpaceOnUse"
       gradientTransform="translate(168,-3)"
       x1="380.43301"
       y1="72.043297"
       x2="476.66669"
       y2="72.043297" /><linearGradient
       inkscape:collect="always"
       xlink:href="#SVGID_27_"
       id="linearGradient5474"
       gradientUnits="userSpaceOnUse"
       gradientTransform="translate(168,-3)"
       x1="380.43301"
       y1="72.043297"
       x2="476.66669"
       y2="72.043297" /><linearGradient
       inkscape:collect="always"
       xlink:href="#SVGID_28_"
       id="linearGradient5476"
       gradientUnits="userSpaceOnUse"
       gradientTransform="translate(168,-3)"
       x1="380.43301"
       y1="72.043297"
       x2="476.66669"
       y2="72.043297" /><linearGradient
       inkscape:collect="always"
       xlink:href="#SVGID_29_"
       id="linearGradient5478"
       gradientUnits="userSpaceOnUse"
       gradientTransform="translate(168,-3)"
       x1="380.43301"
       y1="72.043297"
       x2="476.66669"
       y2="72.043297" /><linearGradient
       inkscape:collect="always"
       xlink:href="#SVGID_30_"
       id="linearGradient5480"
       gradientUnits="userSpaceOnUse"
       gradientTransform="translate(168,-3)"
       x1="380.43301"
       y1="72.043297"
       x2="476.66669"
       y2="72.043297" /><linearGradient
       inkscape:collect="always"
       xlink:href="#SVGID_31_"
       id="linearGradient5482"
       gradientUnits="userSpaceOnUse"
       gradientTransform="translate(168,-3)"
       x1="380.43301"
       y1="72.043297"
       x2="476.66669"
       y2="72.043297" /><linearGradient
       inkscape:collect="always"
       xlink:href="#SVGID_32_"
       id="linearGradient5484"
       gradientUnits="userSpaceOnUse"
       gradientTransform="translate(168,-3)"
       x1="380.43301"
       y1="72.043297"
       x2="476.66669"
       y2="72.043297" /><linearGradient
       inkscape:collect="always"
       xlink:href="#SVGID_33_"
       id="linearGradient5486"
       gradientUnits="userSpaceOnUse"
       gradientTransform="translate(168,-3)"
       x1="380.43301"
       y1="72.043297"
       x2="476.66669"
       y2="72.043297" /><linearGradient
       inkscape:collect="always"
       xlink:href="#SVGID_34_"
       id="linearGradient5488"
       gradientUnits="userSpaceOnUse"
       gradientTransform="translate(168,-3)"
       x1="380.43301"
       y1="72.043297"
       x2="476.66669"
       y2="72.043297" /><linearGradient
       inkscape:collect="always"
       xlink:href="#SVGID_35_"
       id="linearGradient5490"
       gradientUnits="userSpaceOnUse"
       gradientTransform="translate(168,-3)"
       x1="380.43301"
       y1="72.043297"
       x2="476.66669"
       y2="72.043297" /><linearGradient
       inkscape:collect="always"
       xlink:href="#SVGID_36_"
       id="linearGradient5492"
       gradientUnits="userSpaceOnUse"
       gradientTransform="translate(168,-3)"
       x1="380.43301"
       y1="72.043297"
       x2="476.66669"
       y2="72.043297" /><linearGradient
       inkscape:collect="always"
       xlink:href="#SVGID_37_"
       id="linearGradient5494"
       gradientUnits="userSpaceOnUse"
       gradientTransform="translate(168,-3)"
       x1="380.43301"
       y1="72.043297"
       x2="476.66669"
       y2="72.043297" /><linearGradient
       inkscape:collect="always"
       xlink:href="#SVGID_38_"
       id="linearGradient5496"
       gradientUnits="userSpaceOnUse"
       gradientTransform="translate(168,-3)"
       x1="380.43301"
       y1="72.043297"
       x2="476.66669"
       y2="72.043297" /><radialGradient
       gradientUnits="userSpaceOnUse"
       r="2.6143999"
       cy="51.147598"
       cx="617.15747"
       id="SVGID_7_"><stop
         id="stop3329"
         style="stop-color:#FFF9D4"
         offset="0" /><stop
         id="stop3331"
         style="stop-color:#FCF3C4"
         offset="0.1058" /><stop
         id="stop3333"
         style="stop-color:#F4E19B"
         offset="0.3149" /><stop
         id="stop3335"
         style="stop-color:#F2DC8E"
         offset="0.3708" /><stop
         id="stop3337"
         style="stop-color:#F0BF05"
         offset="0.6854" /><stop
         id="stop3339"
         style="stop-color:#C9971B"
         offset="1" /></radialGradient><radialGradient
       gradientUnits="userSpaceOnUse"
       r="2.6143999"
       cy="51.147598"
       cx="577.54388"
       id="SVGID_8_"><stop
         id="stop3344"
         style="stop-color:#FFF9D4"
         offset="0" /><stop
         id="stop3346"
         style="stop-color:#FCF3C4"
         offset="0.1058" /><stop
         id="stop3348"
         style="stop-color:#F4E19B"
         offset="0.3149" /><stop
         id="stop3350"
         style="stop-color:#F2DC8E"
         offset="0.3708" /><stop
         id="stop3352"
         style="stop-color:#F0BF05"
         offset="0.6854" /><stop
         id="stop3354"
         style="stop-color:#C9971B"
         offset="1" /></radialGradient></defs><sodipodi:namedview
     pagecolor="#ffffff"
     bordercolor="#666666"
     borderopacity="1"
     objecttolerance="10"
     gridtolerance="10"
     guidetolerance="10"
     inkscape:pageopacity="0"
     inkscape:pageshadow="2"
     inkscape:window-width="1311"
     inkscape:window-height="882"
     id="namedview4"
     showgrid="false"
     inkscape:zoom="3.9221375"
     inkscape:cx="74.430637"
     inkscape:cy="89.998055"
     inkscape:window-x="0"
     inkscape:window-y="1"
     inkscape:window-maximized="0"
     inkscape:current-layer="g10"
     showguides="true"
     inkscape:guide-bbox="true" /><g
     id="g10"
     inkscape:groupmode="layer"
     inkscape:label="Codefor_Hex_sticker_ALL"
     transform="matrix(1.25,0,0,-1.25,0,180)"><path
       sodipodi:nodetypes="ccccc"
       id="path3176"
       style="fill:#5789d3;fill-opacity:1;fill-rule:nonzero;stroke:none"
       d="M 62.4,72 0,108 l 0,0 62.4,36 c 0,0 0.02874,-71.999977 0,-72 z"
       inkscape:connector-curvature="0" /><path
       inkscape:connector-curvature="0"
       d="m 62.399973,72 62.399997,36 0,0 -62.399997,36 c -0.300945,0 -0.298879,-71.999977 0,-72 z"
       style="fill:#5f8dd3;fill-opacity:1;fill-rule:nonzero;stroke:none"
       id="path3178"
       sodipodi:nodetypes="ccccc" /><path
       inkscape:connector-curvature="0"
       d="M 62.4,0 0,36 0,36 62.4,72 c 0,0 0.02874,-71.999977240587 0,-72 z"
       style="fill:#4781d3;fill-opacity:1;fill-rule:nonzero;stroke:none"
       id="path2988"
       sodipodi:nodetypes="ccccc" /><path
       inkscape:connector-curvature="0"
       d="M 62.376794,72.005095 C 42.644373,58.943991 22.551707,46.242983 0,36 l 0,0 0.02308996,71.97025 C 1.223723,109.17038 64.033024,73.67117 62.376794,72.005095 z"
       style="fill:#5085d2;fill-opacity:1;fill-rule:nonzero;stroke:none"
       id="path3180"
       sodipodi:nodetypes="ccccc" /><path
       sodipodi:nodetypes="ccccc"
       id="path3182"
       style="fill:#5989d1;fill-opacity:1;fill-rule:nonzero;stroke:none"
       d="M 62.423396,71.994906 C 82.155817,85.05601 102.24848,97.757018 124.80019,108 l 0,0 -0.0231,-71.970249 c -1.20063,-1.20013 -64.009934,34.29908 -62.353704,35.965155 z"
       inkscape:connector-curvature="0" /><path
       sodipodi:nodetypes="ccccc"
       id="path3174"
       style="fill:#5085d2;fill-opacity:1;fill-rule:nonzero;stroke:none"
       d="m 62.399973,0 62.399997,36 0,0 -62.399997,36 c -1.498971,-1.124229 -0.7564,-72.5457219 0,-72 z"
       inkscape:connector-curvature="0" /><g
       id="Layer_1"
       transform="matrix(0.8,0,0,-0.8,-239.39999,131.01144)" /><g
       id="Layer_3"
       transform="matrix(0.8,0,0,-0.8,-239.39999,131.01144)" /><g
       id="Layer_5"
       transform="matrix(0.8,0,0,-0.8,-239.39999,131.01144)" /><g
       id="Layer_4"
       transform="matrix(0.8,0,0,-0.8,-239.39999,131.01144)" /><g
       id="Layer_6"
       transform="matrix(0.8,0,0,-0.8,-239.39999,131.01144)"><g
         id="g5378" /><g
         id="g5380" /><g
         id="g5382" /><g
         id="g5384" /><g
         id="g5386" /><g
         id="g5388" /></g><g
       id="Layer_1-5"
       transform="matrix(0.8,0,0,-0.8,-198.74935,133.32888)" /><g
       id="Layer_3-2"
       transform="matrix(0.8,0,0,-0.8,-198.74935,133.32888)" /><g
       id="Layer_5-9"
       transform="matrix(0.8,0,0,-0.8,-198.74935,133.32888)" /><g
       id="Layer_4-7"
       transform="matrix(0.8,0,0,-0.8,-198.74935,133.32888)" /><g
       id="Layer_6-9"
       transform="matrix(0.8,0,0,-0.8,-198.74935,133.32888)"><g
         id="g4171" /><g
         id="g4173" /><g
         id="g4175" /><g
         id="g4177" /><g
         id="g4179" /><g
         id="g4181" /></g><path
       style="fill:#5f8dd3;fill-opacity:1;fill-rule:nonzero"
       d="m 53.275,78.8875 c -1.944637,-3.0097 -5.366583,-5 -9.225,-5 -3.781266,0 -7.2245,1.9579 -9.2,4.875 -1.960074,-2.97883 -5.422154,-4.875 -9.25,-4.875 -3.780966,0 -7.174503,1.9829 -9.15,4.9 -1.960365,-3.0097 -5.425977,-4.9 -9.3,-4.9 -2.7248511,0 -5.2273072,1.01815 -7.15,2.675 l 0,-8.9 c 1.914773,-1.63359 4.4146614,-2.25 7.15,-2.25 3.874023,0 7.339635,1.4903 9.3,4.5 1.975497,-2.91711 5.369034,-4.5 9.15,-4.5 3.827846,0 7.289926,1.47117 9.25,4.45 0.54507,-0.80487 1.205186,-1.50901 1.95,-2.1 l 0.05,-0.3 c 1.929211,-1.71317 4.481633,-2.35 7.275,-2.35 3.874139,0 7.33964,1.49031 9.3,4.5 1.975502,-2.9171 5.369025,-4.5 9.15,-4.5 3.82784,0 7.289931,1.49618 9.25,4.475 1.975505,-2.9171 5.418739,-4.475 9.2,-4.475 2.978544,0 5.65936,0.77079 7.65,2.7 l 0.025,0.15 c 0.65012,0.55787 1.216528,1.20774 1.7,1.95 1.975504,-2.91711 5.394024,-4.5 9.175,-4.5 3.82783,0 7.26493,1.47117 9.225,4.45 1.97551,-2.9171 5.41874,-4.45 9.2,-4.45 2.57286,0 4.92334,0.57784 6.8,1.975 l 0,8.85 c -1.8689,-1.4702 -4.23868,-2.35 -6.8,-2.35 -3.78126,0 -7.22449,1.9579 -9.2,4.875 -1.96007,-2.97883 -5.39717,-4.875 -9.225,-4.875 -3.780976,0 -7.199496,1.9829 -9.175,4.9 -0.04597,-0.0706 -0.102392,-0.13066 -0.15,-0.2 l 0,-0.025 c -0.07556,-0.10957 -0.145424,-0.21861 -0.225,-0.325 -0.04825,-0.0687 -0.1002,-0.1325 -0.15,-0.2 -2.020832,-2.57158 -5.232552,-4.15 -8.775,-4.15 -3.565219,0 -6.743344,1.72022 -8.75,4.375 l 0.075,-0.575 c -0.208126,0.25387 -0.41632,0.50377 -0.6,0.775 -1.960072,-2.97883 -5.42216,-4.875 -9.25,-4.875 -3.780975,0 -7.174495,2.0079 -9.15,4.925 -0.07749,-0.11897 -0.167903,-0.23456 -0.25,-0.35 l 0.1,0.725 z"
       id="path6712"
       inkscape:connector-curvature="0" /><ellipse
       style="fill:#0000ff"
       sodipodi:ry="11"
       sodipodi:rx="0"
       sodipodi:cy="244"
       sodipodi:cx="257"
       rx="0"
       ry="11"
       cy="244"
       cx="257"
       id="svg_3"
       transform="matrix(0.29115734,0,0,-0.29115734,-21.558284,117.91765)" /><ellipse
       style="fill:#0000ff"
       sodipodi:ry="5"
       sodipodi:rx="0"
       sodipodi:cy="245"
       sodipodi:cx="258"
       rx="0"
       ry="5"
       cy="245"
       cx="258"
       id="svg_4"
       transform="matrix(0.29115734,0,0,-0.29115734,-21.558284,117.91765)" /><path
       inkscape:connector-curvature="0"
       id="path3891"
       d="m 53.275,58.620831 c -1.944637,-3.0097 -5.366583,-5 -9.225,-5 -3.781266,0 -7.2245,1.9579 -9.2,4.875 -1.960074,-2.97883 -5.422154,-4.875 -9.25,-4.875 -3.780966,0 -7.174503,1.9829 -9.15,4.9 -1.960365,-3.0097 -5.425977,-4.9 -9.3,-4.9 -2.7248511,0 -5.2273072,1.01815 -7.15,2.675 l 0,-8.9 c 1.914773,-1.63359 4.4146614,-2.25 7.15,-2.25 3.874023,0 7.339635,1.4903 9.3,4.5 1.975497,-2.91711 5.369034,-4.5 9.15,-4.5 3.827846,0 7.289926,1.47117 9.25,4.45 0.54507,-0.80487 1.205186,-1.50901 1.95,-2.1 l 0.05,-0.3 c 1.929211,-1.71317 4.481633,-2.35 7.275,-2.35 3.874139,0 7.33964,1.49031 9.3,4.5 1.975502,-2.9171 5.369025,-4.5 9.15,-4.5 3.82784,0 7.289931,1.49618 9.25,4.475 1.975505,-2.9171 5.418739,-4.475 9.2,-4.475 2.978544,0 5.65936,0.77079 7.65,2.7 l 0.025,0.15 c 0.65012,0.55787 1.216528,1.20774 1.7,1.95 1.975504,-2.91711 5.394024,-4.5 9.175,-4.5 3.82783,0 7.26493,1.47117 9.225,4.45 1.97551,-2.9171 5.41874,-4.45 9.2,-4.45 2.57286,0 4.92334,0.57784 6.8,1.975 l 0,8.85 c -1.8689,-1.4702 -4.23868,-2.35 -6.8,-2.35 -3.78126,0 -7.22449,1.9579 -9.2,4.875 -1.96007,-2.97883 -5.39717,-4.875 -9.225,-4.875 -3.780976,0 -7.199496,1.9829 -9.175,4.9 -0.04597,-0.0706 -0.102392,-0.13066 -0.15,-0.2 l 0,-0.025 c -0.07556,-0.10957 -0.145424,-0.21861 -0.225,-0.325 -0.04825,-0.0687 -0.1002,-0.1325 -0.15,-0.2 -2.020832,-2.57158 -5.232552,-4.15 -8.775,-4.15 -3.565219,0 -6.743344,1.72022 -8.75,4.375 l 0.075,-0.575 c -0.208126,0.25387 -0.41632,0.50377 -0.6,0.775 -1.960072,-2.97883 -5.42216,-4.875 -9.25,-4.875 -3.780975,0 -7.174495,2.0079 -9.15,4.925 -0.07749,-0.11897 -0.167903,-0.23456 -0.25,-0.35 l 0.1,0.725 z"
       style="fill:#5f8dd3;fill-opacity:1;fill-rule:nonzero" /><path
       style="fill:#5f8dd3;fill-opacity:1;fill-rule:nonzero"
       d="M 66.59375 157.375 C 64.162954 161.13712 59.885521 163.625 55.0625 163.625 C 50.335917 163.625 46.031875 161.20888 43.5625 157.5625 C 43.148712 158.19136 42.6703 158.76722 42.15625 159.3125 L 64.03125 171.9375 C 65.099833 171.13905 66.028229 170.15609 66.78125 169 C 69.250627 172.64638 73.492531 174.625 78.21875 174.625 C 83.00355 174.625 87.331164 172.72352 89.78125 169 C 90.488939 170.045 91.367934 170.95868 92.34375 171.71875 L 114.25 159.09375 C 113.79135 158.59423 113.37868 158.05917 113 157.5 C 112.94254 157.58825 112.87201 157.66332 112.8125 157.75 L 112.8125 157.8125 C 112.71805 157.94946 112.63072 158.05451 112.53125 158.1875 C 112.47094 158.27337 112.406 158.35313 112.34375 158.4375 C 109.81771 161.65197 105.80306 163.625 101.375 163.625 C 96.918476 163.625 92.94582 161.50598 90.4375 158.1875 L 90.53125 158.875 C 90.271093 158.55766 90.01085 158.27654 89.78125 157.9375 C 87.33116 161.66104 83.00355 164 78.21875 164 C 73.492531 164 69.250631 161.52138 66.78125 157.875 C 66.684388 158.02371 66.571371 158.1682 66.46875 158.3125 L 66.59375 157.375 z "
       transform="matrix(0.8,0,0,-0.8,0,144)"
       id="path3895" /><path
       inkscape:connector-curvature="0"
       id="path3897"
       d="m 53.275,99.154169 c -1.944637,-3.0097 -5.366583,-5 -9.225,-5 -3.781266,0 -7.2245,1.9579 -9.2,4.875 -1.960074,-2.97883 -5.422154,-4.875 -9.25,-4.875 -3.780966,0 -7.174503,1.9829 -9.15,4.9 -1.960365,-3.0097 -5.425977,-4.9 -9.3,-4.9 -2.7248511,0 -5.2273072,1.01815 -7.15,2.675 l 0,-8.9 c 1.914773,-1.63359 4.4146614,-2.25 7.15,-2.25 3.874023,0 7.339635,1.4903 9.3,4.5 1.975497,-2.91711 5.369034,-4.5 9.15,-4.5 3.827846,0 7.289926,1.47117 9.25,4.45 0.54507,-0.80487 1.205186,-1.50901 1.95,-2.1 l 0.05,-0.3 c 1.929211,-1.71317 4.481633,-2.35 7.275,-2.35 3.874139,0 7.33964,1.49031 9.3,4.5 1.975502,-2.9171 5.369025,-4.5 9.15,-4.5 3.82784,0 7.289931,1.49618 9.25,4.475 1.975505,-2.9171 5.418739,-4.475 9.2,-4.475 2.978544,0 5.65936,0.77079 7.65,2.7 l 0.025,0.15 c 0.65012,0.55787 1.216528,1.20774 1.7,1.95 1.975504,-2.91711 5.394024,-4.5 9.175,-4.5 3.82783,0 7.26493,1.47117 9.225,4.45 1.97551,-2.9171 5.41874,-4.45 9.2,-4.45 2.57286,0 4.92334,0.57784 6.8,1.975 l 0,8.85 c -1.8689,-1.4702 -4.23868,-2.35 -6.8,-2.35 -3.78126,0 -7.22449,1.9579 -9.2,4.875 -1.96007,-2.97883 -5.39717,-4.875 -9.225,-4.875 -3.780976,0 -7.199496,1.9829 -9.175,4.9 -0.04597,-0.0706 -0.102392,-0.13066 -0.15,-0.2 l 0,-0.025 c -0.07556,-0.10957 -0.145424,-0.21861 -0.225,-0.325 -0.04825,-0.0687 -0.1002,-0.1325 -0.15,-0.2 -2.020832,-2.57158 -5.232552,-4.15 -8.775,-4.15 -3.565219,0 -6.743344,1.72022 -8.75,4.375 l 0.075,-0.575 c -0.208126,0.25387 -0.41632,0.50377 -0.6,0.775 -1.960072,-2.97883 -5.42216,-4.875 -9.25,-4.875 -3.780975,0 -7.174495,2.0079 -9.15,4.925 -0.07749,-0.11897 -0.167903,-0.23456 -0.25,-0.35 l 0.1,0.725 z"
       style="fill:#5f8dd3;fill-opacity:1;fill-rule:nonzero" /><path
       style="fill:#5f8dd3;fill-opacity:1;fill-rule:nonzero"
       d="M 66.59375 30.71875 C 64.162954 34.480875 59.885521 36.96875 55.0625 36.96875 C 50.335917 36.96875 46.031875 34.521375 43.5625 30.875 C 41.112408 34.598537 36.784807 36.96875 32 36.96875 C 27.990578 36.96875 24.338338 35.173543 21.8125 32.40625 L 0.1875 44.90625 C 2.5556927 46.831943 5.6065576 47.5625 8.9375 47.5625 C 13.780029 47.5625 18.112044 45.699625 20.5625 41.9375 C 23.031871 45.583888 27.273793 47.5625 32 47.5625 C 36.784807 47.5625 41.112408 45.723538 43.5625 42 C 44.243838 43.006088 45.068982 43.886263 46 44.625 L 46.0625 45 C 48.474014 47.141462 51.664541 47.9375 55.15625 47.9375 C 59.998924 47.9375 64.3308 46.074613 66.78125 42.3125 C 69.250627 45.958875 73.492531 47.9375 78.21875 47.9375 C 83.00355 47.9375 87.331164 46.067275 89.78125 42.34375 C 92.250631 45.990125 96.554674 47.9375 101.28125 47.9375 C 105.00443 47.9375 108.35545 46.974012 110.84375 44.5625 L 110.875 44.375 C 111.68765 43.677663 112.39566 42.865325 113 41.9375 C 115.46938 45.583888 119.74253 47.5625 124.46875 47.5625 C 129.25354 47.5625 133.54991 45.723537 136 42 C 138.46939 45.646375 142.77343 47.5625 147.5 47.5625 C 150.71608 47.5625 153.65418 46.8402 156 45.09375 L 156 45 L 134.59375 32.65625 C 132.07195 35.336908 128.43715 36.96875 124.46875 36.96875 C 119.74253 36.96875 115.46938 34.490125 113 30.84375 C 112.94254 30.932 112.87201 31.007075 112.8125 31.09375 L 112.8125 31.125 C 112.71805 31.261962 112.63072 31.398262 112.53125 31.53125 C 112.47094 31.617125 112.406 31.696875 112.34375 31.78125 C 109.81771 34.995725 105.80306 36.96875 101.375 36.96875 C 96.918476 36.96875 92.94582 34.818475 90.4375 31.5 L 90.53125 32.21875 C 90.271093 31.901412 90.01085 31.589037 89.78125 31.25 C 87.33116 34.973537 83.00355 37.34375 78.21875 37.34375 C 73.492531 37.34375 69.250631 34.833875 66.78125 31.1875 C 66.684388 31.336213 66.571371 31.4807 66.46875 31.625 L 66.59375 30.71875 z "
       transform="matrix(0.8,0,0,-0.8,0,144)"
       id="path3899" /><path
       style="fill:#5f8dd3;fill-opacity:1;fill-rule:nonzero"
       d="M 67.125 6.28125 L 64.71875 7.65625 C 63.056879 9.2971859 60.983905 10.529567 58.65625 11.15625 L 45.40625 18.8125 C 45.595093 18.983057 45.801126 19.154699 46 19.3125 L 46.0625 19.6875 C 48.474014 21.828963 51.664541 22.625 55.15625 22.625 C 59.998924 22.625 64.3308 20.762113 66.78125 17 C 69.250627 20.646375 73.492531 22.625 78.21875 22.625 C 83.00355 22.625 87.331164 20.723525 89.78125 17 C 92.250631 20.646375 96.554674 22.625 101.28125 22.625 C 105.00443 22.625 108.35545 21.661512 110.84375 19.25 L 110.875 19.0625 C 110.89695 19.043667 110.91571 19.019001 110.9375 19 L 96.75 10.8125 C 95.176916 10.243129 93.717136 9.4140275 92.46875 8.34375 L 89.34375 6.53125 C 86.835612 9.8920832 82.729386 12 78.21875 12 C 73.691717 12 69.631226 9.6798542 67.125 6.28125 z "
       transform="matrix(0.8,0,0,-0.8,0,144)"
       id="path3901" /><path
       style="font-size:medium;font-style:normal;font-variant:normal;font-weight:normal;font-stretch:normal;text-indent:0;text-align:start;text-decoration:none;line-height:normal;letter-spacing:normal;word-spacing:normal;text-transform:none;direction:ltr;block-progression:tb;writing-mode:lr-tb;text-anchor:start;baseline-shift:baseline;color:#000000;fill:#ffffff;fill-opacity:1;fill-rule:nonzero;stroke:none;stroke-width:1.68684411;marker:none;visibility:visible;display:inline;overflow:visible;enable-background:accumulate;font-family:Sans;-inkscape-font-specification:Sans"
       d="m 61.80102,133.55 c -0.26617,-0.006 -0.524805,-0.10304 -0.675,-0.325 0,0 -5.215517,-7.60059 -7.75,-15.35 -1.267241,-3.87471 -1.88426,-7.83315 -0.675,-11 0.60463,-1.58343 1.668908,-2.95477 3.325,-3.875 1.656092,-0.92023 3.839714,-1.4 6.625,-1.4 2.76031,0.0135 4.897535,0.51457 6.5,1.45 1.602465,0.93543 2.635381,2.33213 3.15,3.925 1.029239,3.18574 0.164601,7.08637 -1.3,10.95 -2.929202,7.72726 -8.5,15.325 -8.5,15.325 -0.160124,0.21494 -0.43383,0.30604 -0.7,0.3 z m -7.375,-20.075 a 1.0584712,1.0584712 0 0 0 1.075,-1.225 c 0,0 -0.212366,-1.57991 0.4,-3.25 0.612366,-1.67009 1.882292,-3.37431 5.45,-3.85 a 1.0606602,1.0606602 0 1 0 -0.3,-2.1 c -4.218206,0.56243 -6.284948,3.00213 -7.1,5.225 -0.815052,2.22287 -0.55,4.275 -0.55,4.275 a 1.0584712,1.0584712 0 0 0 1.025,0.925 z"
       id="path4054"
       inkscape:connector-curvature="0" /><path
       style="fill:#5f8dd3;fill-opacity:1;fill-rule:nonzero"
       d="M 66.59375 132.0625 C 64.162954 135.82462 59.885521 138.3125 55.0625 138.3125 C 50.335917 138.3125 46.031875 135.86512 43.5625 132.21875 C 41.112408 135.94229 36.784807 138.3125 32 138.3125 C 27.273792 138.3125 23.031871 135.83387 20.5625 132.1875 C 18.112044 135.94962 13.780029 138.3125 8.9375 138.3125 C 7.3031208 138.3125 5.7382585 138.00242 4.28125 137.46875 L 18.5 145.65625 C 19.285398 144.97188 19.974704 144.18368 20.5625 143.28125 C 23.031871 146.92764 27.273793 148.90625 32 148.90625 C 36.784807 148.90625 41.112408 147.06729 43.5625 143.34375 C 44.243838 144.34984 45.068982 145.23001 46 145.96875 L 46.0625 146.34375 C 48.474014 148.48521 51.664541 149.28125 55.15625 149.28125 C 59.998924 149.28125 64.3308 147.41836 66.78125 143.65625 C 69.250627 147.30262 73.492531 149.28125 78.21875 149.28125 C 83.00355 149.28125 87.331164 147.41102 89.78125 143.6875 C 92.250631 147.33387 96.554674 149.28125 101.28125 149.28125 C 105.00443 149.28125 108.35545 148.31776 110.84375 145.90625 L 110.875 145.71875 C 111.68765 145.02141 112.39566 144.20907 113 143.28125 C 115.46938 146.92764 119.74253 148.90625 124.46875 148.90625 C 129.25354 148.90625 133.54991 147.06729 136 143.34375 C 136.53379 144.13197 137.15276 144.84411 137.84375 145.46875 L 151.0625 137.84375 C 149.92085 138.15031 148.73511 138.3125 147.5 138.3125 C 142.77343 138.3125 138.46939 135.86512 136 132.21875 C 133.54991 135.94229 129.25354 138.3125 124.46875 138.3125 C 119.74253 138.3125 115.46938 135.83387 113 132.1875 C 112.94254 132.27575 112.87201 132.35082 112.8125 132.4375 L 112.8125 132.46875 C 112.71805 132.60571 112.63072 132.74201 112.53125 132.875 C 112.47094 132.96087 112.406 133.04063 112.34375 133.125 C 109.81771 136.33947 105.80306 138.3125 101.375 138.3125 C 96.918476 138.3125 92.94582 136.16223 90.4375 132.84375 L 90.53125 133.5625 C 90.271093 133.24516 90.01085 132.93279 89.78125 132.59375 C 87.33116 136.31729 83.00355 138.6875 78.21875 138.6875 C 73.492531 138.6875 69.250631 136.17763 66.78125 132.53125 C 66.684388 132.67996 66.571371 132.82445 66.46875 132.96875 L 66.59375 132.0625 z M 0 134.96875 L 0 135 L 0.125 135.09375 C 0.080553718 135.0564 0.043964012 135.00664 0 134.96875 z "
       transform="matrix(0.8,0,0,-0.8,0,144)"
       id="path3893" /></g></svg>