<?xml version="1.0" standalone="no"?>
<!DOCTYPE svg PUBLIC "-//W3C//DTD SVG 1.1//EN" "http://www.w3.org/Graphics/SVG/1.1/DTD/svg11.dtd" >
<svg xmlns="http://www.w3.org/2000/svg">
<metadata></metadata>
<defs>
<font id="judsonitalic" horiz-adv-x="1112" >
<font-face units-per-em="2048" ascent="1638" descent="-410" />
<missing-glyph horiz-adv-x="491" />
<glyph horiz-adv-x="0" />
<glyph horiz-adv-x="682" />
<glyph unicode=" "  horiz-adv-x="491" />
<glyph unicode="&#x09;" horiz-adv-x="491" />
<glyph unicode="&#xa0;" horiz-adv-x="491" />
<glyph unicode="!" horiz-adv-x="485" d="M51 86q0 56 43 101.5t101 45.5q42 0 74 -30.5t32 -73.5q0 -56 -44.5 -102.5t-102.5 -46.5q-42 0 -72.5 31t-30.5 75zM195 473q0 67 21.5 344.5t39.5 380.5q7 45 39 68.5t76 23.5q39 0 63.5 -19t24.5 -54q0 -13 -2 -19q-11 -73 -81.5 -351.5t-84.5 -326.5 q-42 -139 -72 -139q-24 0 -24 92z" />
<glyph unicode="&#x22;" horiz-adv-x="684" d="M188 1026q0 155 13 244q15 92 106 92q80 0 80 -70q0 -28 -15 -83t-35.5 -116.5l-21.5 -64.5q-63 -192 -96 -192q-31 0 -31 190zM516 1026q0 162 12 244q15 92 107 92q80 0 80 -70q0 -28 -15 -83t-35.5 -116.5l-21.5 -64.5q-63 -192 -96 -192q-31 0 -31 190z" />
<glyph unicode="#" horiz-adv-x="997" d="M49 401l10 70h205l82 258h-211l10 70h222l122 399h72l-123 -399h256l123 399h72l-123 -399h209l-10 -70h-220l-81 -258h225l-10 -70h-236l-123 -401h-71l122 401h-256l-122 -401h-72l123 401h-195zM336 471h256l82 258h-256z" />
<glyph unicode="$" horiz-adv-x="933" d="M31 94l30 191h45q1 -112 69.5 -169t176.5 -65l80 473q-118 77 -161 117q-106 98 -107 213q0 93 56.5 177.5t145.5 134.5t183 53l8 51h61l-10 -53q43 -5 84.5 -18.5t70.5 -28.5t51 -30t33 -24l11 -10l-27 -168h-45q0 85 -45 141.5t-143 67.5l-72 -424q135 -85 185 -128 q126 -111 127 -241q0 -73 -26.5 -135t-70.5 -105t-101 -73.5t-117.5 -45t-121.5 -15.5l-8 -54h-61l8 56q-86 7 -163 35t-111 53zM330 942q0 -54 36.5 -95.5t104.5 -86.5l66 389q-93 -4 -150 -69.5t-57 -137.5zM414 49q104 3 173.5 62t69.5 168q0 65 -43 111t-127 99z" />
<glyph unicode="%" horiz-adv-x="1110" d="M88 41l879 1116h82l-879 -1116h-82zM129 909q0 121 84 208t180 87q76 0 129 -58.5t53 -146.5q0 -121 -84 -207.5t-180 -86.5q-76 0 -129 58t-53 146zM254 907q0 -56 19.5 -94.5t48.5 -38.5q42 0 85.5 74.5t43.5 152.5q0 56 -19.5 95t-48.5 39q-42 0 -85.5 -74t-43.5 -154 zM559 199q0 121 84 208t180 87q76 0 129.5 -58.5t53.5 -146.5q0 -120 -85.5 -207.5t-181.5 -87.5q-76 0 -128 58.5t-52 146.5zM684 197q0 -56 19.5 -95t48.5 -39q42 0 85.5 74t43.5 154q0 56 -19.5 94.5t-48.5 38.5q-42 0 -85.5 -73.5t-43.5 -153.5z" />
<glyph unicode="&#x26;" horiz-adv-x="1239" d="M-2 205q0 53 14.5 99.5t43.5 84.5t62.5 70t80.5 62.5t87.5 53t94.5 51.5q17 9 25 13q-23 121 -23 229q0 97 27 169.5t71 110t90 54.5t95 17q89 0 138.5 -56t49.5 -137q0 -50 -16.5 -97t-40.5 -83t-62.5 -73t-71.5 -62t-79 -56q58 -244 164 -417q99 125 225 393 q-14 33 -121 33l8 43h336l-8 -43q-118 0 -135 -39q-46 -95 -77 -153.5t-85.5 -143t-108.5 -144.5q71 -94 129 -94q77 0 111 15t74 61l20 -21q-42 -77 -96.5 -121t-142.5 -44q-118 0 -215 94q-135 -94 -287 -94q-377 0 -377 225zM211 250q0 -184 254 -184q82 0 158 51 q-129 156 -197 434q-57 -38 -88 -62.5t-64.5 -61.5t-48 -80t-14.5 -97zM551 891q0 -66 16 -160q50 32 82.5 58.5t61 61.5t42 77.5t13.5 95.5q0 55 -18 89t-54 34q-72 0 -107.5 -71.5t-35.5 -184.5z" />
<glyph unicode="'" horiz-adv-x="356" d="M188 1026q0 155 13 244q15 92 106 92q80 0 80 -70q0 -28 -15 -83t-35.5 -116.5l-21.5 -64.5q-63 -192 -96 -192q-31 0 -31 190z" />
<glyph unicode="(" horiz-adv-x="507" d="M94 485q0 57 15 160q20 122 70 242t115 215.5t114.5 156t99.5 111.5q23 23 37 23t14 -19q0 -6 -8 -22q-2 -3 -25 -41t-28.5 -47.5t-28 -48.5t-30.5 -57.5t-28 -60.5t-30.5 -72t-27 -77.5t-27.5 -91t-23 -98.5t-22 -113q-29 -175 -29 -307q0 -46 3.5 -91.5t7 -75 t12.5 -71.5t12.5 -56.5t15 -57t12.5 -47.5q3 -16 -2.5 -28.5t-17.5 -12.5q-16 0 -31 22q-170 272 -170 565z" />
<glyph unicode=")" horiz-adv-x="505" d="M-12 -84q0 7 8 23q3 5 28 45.5t32.5 54t31 55t34.5 67t31.5 71t33.5 86t29 93.5t28.5 111.5t23.5 122.5q27 163 27 307q0 46 -3.5 91.5t-7 76t-12.5 71t-13 57.5t-15 56.5t-13 47.5q-3 15 4 28t19 13q14 0 29 -23q170 -272 170 -565q0 -71 -13 -160q-16 -99 -54.5 -199.5 t-81 -176t-97 -150t-92 -117t-76.5 -82.5q-22 -22 -35 -22q-16 0 -16 18z" />
<glyph unicode="*" horiz-adv-x="737" d="M168 1020q0 46 33 83.5t67 37.5q5 0 21 -4q18 -6 57.5 -56.5t44.5 -72.5q16 26 51 30q-14 12 -36.5 71.5t-22.5 84.5q0 35 31 55.5t71 20.5q35 0 56.5 -16t21.5 -44q0 -25 -44.5 -91.5t-67.5 -80.5q32 -3 38 -32q8 19 68.5 72t81.5 59q16 4 23 4q27 0 45 -24t18 -60 q0 -38 -20.5 -66t-55.5 -28t-91.5 12t-68.5 22q6 -21 -24 -51q23 0 83.5 -31.5t69.5 -48.5q7 -17 7 -28q0 -39 -42.5 -72t-82.5 -33q-32 0 -43 21t-11 67q0 53 7 97q3 17 6 22q-13 -8 -31 -8q-13 0 -25 6q0 -15 -2 -25q-7 -39 -23.5 -89.5t-29.5 -63.5q-27 -27 -57 -27 q-34 0 -62 26t-28 58q0 26 20 49q14 17 82.5 47.5t91.5 32.5q-11 11 -11.5 24t3.5 27q-19 -10 -76.5 -22t-89.5 -12q-26 0 -39.5 16t-13.5 41z" />
<glyph unicode="+" horiz-adv-x="827" d="M92 606l14 90h289l47 289h90l-47 -289h289l-14 -90h-289l-49 -289h-90l49 289h-289z" />
<glyph unicode="," horiz-adv-x="468" d="M8 -264l10 57q53 7 115.5 57t73.5 113q5 38 3 44.5t-15 6.5q-5 0 -25.5 -13t-42.5 -13q-41 0 -65.5 21t-24.5 59q0 63 48.5 100t90.5 37q62 0 97.5 -49t35.5 -121q0 -205 -301 -299z" />
<glyph unicode="-" horiz-adv-x="802" d="M143 606l15 90h540l-14 -90h-541z" />
<glyph unicode="." horiz-adv-x="452" d="M41 86q0 57 43 102t100 45q42 0 74.5 -30.5t32.5 -73.5q0 -56 -45 -102.5t-103 -46.5q-42 0 -72 31t-30 75z" />
<glyph unicode="/" horiz-adv-x="952" d="M-43 -20l1010 1273l53 -36l-1010 -1274z" />
<glyph unicode="0" horiz-adv-x="1067" d="M100 434q0 82 15 164q28 168 100 307t186.5 226.5t249.5 87.5q166 0 254 -127.5t88 -329.5q0 -84 -14 -164q-28 -168 -100.5 -306.5t-187 -225t-249.5 -86.5q-112 0 -190.5 61t-115 161.5t-36.5 231.5zM283 406q0 -102 19 -183t58.5 -130.5t94.5 -49.5q89 0 173 118 t133.5 291.5t49.5 338.5q0 159 -45 261.5t-127 102.5q-88 0 -172.5 -118.5t-134 -292.5t-49.5 -338z" />
<glyph unicode="1" horiz-adv-x="747" d="M-25 0l9 43q52 0 105.5 6t103.5 26t55 50l131 784q-104 -58 -242 -149l-8 35l432 403h55l-180 -1073v-6q0 -39 78 -57.5t162 -18.5l-8 -43h-693z" />
<glyph unicode="2" horiz-adv-x="976" d="M-23 0q4 22 60 74t136.5 116t174.5 150.5t173.5 174t132.5 190t53 194.5q0 82 -40 139.5t-124 57.5q-71 0 -129.5 -14.5t-95 -36.5t-65.5 -47.5t-44 -47.5t-27 -36.5t-18 -14.5q-15 0 -12 21q3 17 20 49.5t53.5 76t84.5 82t121 65t155 26.5q167 0 247 -77t80 -200 q0 -73 -48.5 -160t-121 -164.5t-158 -156.5t-159 -139t-124.5 -109t-54 -70h432q31 12 72.5 46t68.5 83h41l-123 -272h-762z" />
<glyph unicode="3" horiz-adv-x="974" d="M8 145q0 59 25.5 86t66.5 27q18 0 28.5 -16t15 -40t17.5 -52.5t32 -52.5t62.5 -40t106.5 -16q71 0 126.5 19.5t90.5 51.5t58 76t32 89.5t9 95.5q0 41 -7 78.5t-23.5 74t-49 58.5t-76.5 22q-24 0 -53 -5t-49 -5q-15 0 -25.5 7.5t-9.5 17.5t16 16q40 11 77.5 26.5t82 42.5 t77.5 59.5t55 80.5t22 102q0 69 -49.5 108.5t-141.5 39.5q-69 0 -124 -16.5t-85.5 -40t-51 -47t-33 -40t-19.5 -16.5q-15 0 -12 20q3 16 18.5 45.5t47 67.5t72.5 71t102 56t128 23q174 0 253 -54t79 -161q0 -58 -19.5 -108.5t-56.5 -90t-78 -69t-96 -58.5q86 -21 144.5 -105 t58.5 -180q0 -88 -28 -161t-84.5 -130.5t-152 -89.5t-222.5 -32q-81 0 -152.5 20t-114 47.5t-66.5 54t-24 43.5z" />
<glyph unicode="4" horiz-adv-x="921" d="M-6 360l704 838h107l-131 -776h166l-11 -62h-165l-46 -276q6 -22 33 -31.5t90 -9.5l-8 -43h-442l8 43q63 0 93 9.5t42 31.5l45 276h-485zM117 422h372l93 551z" />
<glyph unicode="5" horiz-adv-x="952" d="M-2 143q0 59 26 87t66 28q18 0 28 -16t13.5 -40t17.5 -52.5t36 -52.5t71.5 -40t120.5 -16q75 0 135 38.5t94.5 99t52 125.5t17.5 126q0 283 -473 283l149 485h572l-74 -143h-471l-80 -262q124 0 220.5 -18t158.5 -48t102 -73t56 -89.5t16 -99.5q0 -74 -17 -143 t-54.5 -131.5t-92 -109t-134 -74t-175.5 -27.5q-77 0 -143 13t-108.5 32.5t-73 42.5t-43.5 42.5t-13 32.5z" />
<glyph unicode="6" horiz-adv-x="954" d="M78 340q0 130 37.5 252.5t99.5 216t139 172.5t158 132t154 84.5t131 37.5l18 -37q-158 -39 -281.5 -163.5t-195.5 -325.5q90 49 199 49q184 0 260.5 -67.5t76.5 -194.5q0 -233 -127.5 -374.5t-332.5 -141.5q-166 0 -251 97.5t-85 262.5zM258 301q0 -130 46.5 -193 t121.5 -63q97 0 179.5 134.5t82.5 307.5q0 88 -37 144.5t-123 56.5q-137 0 -213 -47q-57 -181 -57 -340z" />
<glyph unicode="7" horiz-adv-x="806" d="M90 926l123 272h688q-4 -27 -85.5 -173t-179 -315.5t-188 -368t-110.5 -318.5q-4 -21 -30 -32t-54 -11q-64 0 -64 36q0 82 81 249t178.5 322.5t182 295.5t89.5 172h-449q-31 -12 -72.5 -46t-68.5 -83h-41z" />
<glyph unicode="8" horiz-adv-x="985" d="M57 219q0 73 29.5 138.5t79.5 114.5t99 83t104 61q-81 72 -126.5 142.5t-45.5 150.5q0 135 116.5 222.5t298.5 87.5q163 0 244.5 -59.5t81.5 -168.5q0 -233 -305 -375q99 -86 153 -160t54 -161q0 -139 -126.5 -227t-312.5 -88q-166 0 -255 64t-89 175zM193 219 q0 -75 54 -124.5t128 -49.5q119 0 203 67t84 173q0 18 -6 36.5t-14 34t-25 36t-29 33.5t-38 35.5t-39 34t-44 37t-43 35.5q-27 -15 -54.5 -34.5t-60.5 -52.5t-57.5 -69.5t-41.5 -87t-17 -104.5zM377 920q0 -25 12 -52t27.5 -48.5t47 -53t52.5 -49.5t62 -53q38 19 72.5 45 t71.5 66t59 97t22 123q0 75 -46.5 116.5t-117.5 41.5q-118 0 -190 -61t-72 -172z" />
<glyph unicode="9" horiz-adv-x="954" d="M106 702q0 233 128 375t333 142q166 0 251 -98t85 -263q0 -130 -37.5 -252.5t-99.5 -216t-139 -172.5t-158 -132t-154 -84.5t-131 -37.5l-18 37q158 39 281.5 163.5t195.5 325.5q-90 -49 -199 -49q-184 0 -261 67.5t-77 194.5zM291 711q0 -56 13.5 -98.5t51.5 -72.5 t97 -30q137 0 213 47q57 181 57 340q0 130 -46.5 193t-121.5 63q-63 0 -124 -60.5t-100.5 -164t-39.5 -217.5z" />
<glyph unicode=":" horiz-adv-x="509" d="M61 86q0 56 43 101.5t101 45.5q42 0 74 -30.5t32 -73.5q0 -56 -44.5 -102.5t-102.5 -46.5q-42 0 -72.5 31t-30.5 75zM176 762q0 57 43 102t100 45q42 0 74.5 -30.5t32.5 -73.5q0 -56 -44.5 -103t-102.5 -47q-42 0 -72.5 31.5t-30.5 75.5z" />
<glyph unicode=";" horiz-adv-x="534" d="M35 -264l10 57q53 7 115 57t73 113q5 38 3 44.5t-15 6.5q-5 0 -25 -13t-42 -13q-41 0 -66 21.5t-25 58.5q0 63 49 100t91 37q62 0 97.5 -49t35.5 -121q0 -205 -301 -299zM182 762q0 56 43 101.5t101 45.5q42 0 74 -30.5t32 -73.5q0 -56 -44.5 -103t-102.5 -47 q-42 0 -72.5 31.5t-30.5 75.5z" />
<glyph unicode="&#x3c;" horiz-adv-x="954" d="M76 606l14 90l813 353l-14 -82l-729 -316l622 -315l-12 -82z" />
<glyph unicode="=" horiz-adv-x="1003" d="M129 483l16 90h725l-16 -90h-725zM172 729l14 90h725l-14 -90h-725z" />
<glyph unicode="&#x3e;" horiz-adv-x="954" d="M94 254l12 82l730 315l-623 316l14 82l695 -353l-15 -90z" />
<glyph unicode="?" horiz-adv-x="808" d="M137 989q0 53 26.5 106.5t73.5 97t118 70.5t153 27q86 0 149 -22.5t97 -61t49.5 -82.5t15.5 -94q0 -59 -23 -116t-60 -103t-82.5 -90t-92 -83.5t-86.5 -76t-68 -76t-34 -75.5q-1 -10 -12 -19.5t-19 -9.5t-16 9.5t-7 19.5q10 60 38.5 116.5t63.5 98t74 92t70.5 98 t52.5 115t21 143.5q0 82 -38.5 119t-123.5 37q-83 0 -144 -51t-61 -111q0 -16 8.5 -37t8.5 -35q0 -37 -25 -60.5t-57 -23.5q-29 0 -49.5 19.5t-20.5 58.5zM176 86q0 57 43 102t100 45q42 0 74.5 -30.5t32.5 -73.5q0 -56 -44.5 -102.5t-102.5 -46.5q-42 0 -72.5 31t-30.5 75z " />
<glyph unicode="@" horiz-adv-x="1286" d="M96 479q0 135 44 255t116.5 207t165 151t191.5 95.5t194 31.5q173 0 282 -101t109 -291q0 -66 -16.5 -137t-52.5 -141t-85.5 -125.5t-121 -90t-154.5 -34.5q-33 0 -59.5 19.5t-26.5 62.5q0 25 10 55q-110 -110 -211 -110q-66 0 -99.5 43t-33.5 112q0 76 36 154t89 133.5 t115 91t114 35.5q60 0 93.5 -36t38.5 -95l47 108h108l-196 -456q-7 -11 -7 -17q0 -12 12 -19t31 -7q58 0 107 34t80.5 86t54 115t32 120t9.5 103q0 74 -18 129.5t-47 87.5t-71.5 52t-83.5 26.5t-91 6.5q-81 0 -166 -26t-166 -79.5t-144.5 -127.5t-102 -178.5t-38.5 -223.5 q0 -102 40.5 -188t105 -139t140.5 -82.5t151 -29.5q315 0 531 305q5 6 7 9l31 -17q-49 -81 -101.5 -143t-124.5 -117.5t-165.5 -85.5t-204.5 -30q-95 0 -184.5 35.5t-159 98.5t-112 158.5t-42.5 206.5zM444 514q0 -45 21 -72.5t63 -27.5q83 0 169.5 100t86.5 217 q0 46 -21 74.5t-63 28.5q-82 0 -169 -102t-87 -218z" />
<glyph unicode="A" d="M-98 0l8 43q114 0 135 43l584 1112h98l211 -1112q9 -43 125 -43l-8 -43h-449l8 43q95 0 123 25l-63 313h-393l-156 -301q8 -21 34 -29t87 -8l-8 -43h-336zM317 449h345l-95 477z" />
<glyph unicode="B" horiz-adv-x="1150" d="M4 0l8 43q63 0 93 9.5t42 31.5l172 1030q-6 22 -32.5 31.5t-89.5 9.5l8 43h377q122 0 215.5 -21t147.5 -57.5t81 -80t27 -93.5q0 -112 -72 -192.5t-195 -120.5q133 -32 198 -100t65 -150q0 -170 -150.5 -276.5t-402.5 -106.5h-492zM334 70h174q165 0 250.5 88t85.5 233 q0 39 -13 72.5t-42 64.5t-85 48.5t-133 17.5h-149zM430 653h84q160 0 247 80t87 221q0 174 -279 174h-59z" />
<glyph unicode="C" horiz-adv-x="1155" d="M92 469q0 135 44 256.5t118 210t168.5 153.5t199 97.5t207.5 32.5q45 0 91 -15.5t79.5 -31t47.5 -15.5q23 0 30 41h47l-22 -260h-45q0 93 -57 152t-181 59q-101 0 -194.5 -52.5t-163 -141.5t-111 -215.5t-41.5 -266.5q0 -202 95 -313t239 -111q103 0 215 71t154 150 l45 -24q-30 -51 -69 -94.5t-95.5 -84t-134.5 -64t-168 -23.5q-122 0 -218.5 38.5t-156.5 106.5t-91.5 155.5t-31.5 188.5z" />
<glyph unicode="D" horiz-adv-x="1261" d="M4 0l8 43q63 0 93 9.5t42 31.5l172 1030q-6 22 -32.5 31.5t-89.5 9.5l8 43h471q240 0 377 -129.5t137 -347.5q0 -157 -56.5 -293.5t-151 -229t-220 -145.5t-262.5 -53h-496zM334 70h178q58 0 122 27.5t127 84.5t113.5 135.5t81.5 190t31 237.5q0 100 -27 177.5t-73 123.5 t-102 69.5t-119 23.5h-154z" />
<glyph unicode="E" horiz-adv-x="1040" d="M4 0l8 43q63 0 93 9.5t42 31.5l172 1030q-6 22 -32.5 31.5t-89.5 9.5l8 43h825l-33 -199h-43q7 51 7 70q0 47 -27 59h-424l-78 -471h287q24 9 37.5 37t23.5 92h43l-55 -327h-43q8 58 8 69q0 48 -26 60h-287l-86 -518h467q52 20 112 129h41l-82 -199h-868z" />
<glyph unicode="F" horiz-adv-x="976" d="M4 0l8 43q63 0 93 9.5t42 31.5l172 1030q-6 22 -32.5 31.5t-89.5 9.5l8 43h825l-33 -199h-43q7 51 7 70q0 47 -27 59h-424l-78 -471h287q24 9 37.5 37t23.5 92h43l-55 -327h-43q8 58 8 69q0 48 -26 60h-287l-84 -504q6 -22 33 -31.5t90 -9.5l-8 -43h-447z" />
<glyph unicode="G" horiz-adv-x="1271" d="M90 477q0 134 46.5 254.5t124 207.5t175.5 151.5t204 96.5t208 32q45 0 95.5 -15.5t89 -31t52.5 -15.5q24 0 31 41h47l-22 -260h-45q0 84 -67 147.5t-191 63.5q-100 0 -197.5 -57.5t-172.5 -152.5t-121 -227t-46 -272q0 -103 28.5 -181.5t76.5 -122.5t103 -65.5 t116 -21.5q116 0 223 39l72 420q-6 22 -33 31.5t-90 9.5l6 43h446l-6 -43q-63 0 -93 -9.5t-42 -31.5l-59 -344q-19 -27 -54.5 -56t-89.5 -59t-132 -49.5t-165 -19.5q-123 0 -223 40t-163.5 108.5t-97.5 157.5t-34 191z" />
<glyph unicode="H" horiz-adv-x="1343" d="M4 0l8 43q63 0 93 9.5t42 31.5l172 1030q-6 22 -32.5 31.5t-89.5 9.5l8 43h446l-8 -43q-63 0 -93 -9.5t-42 -31.5l-76 -457h524l76 457q-6 22 -33 31.5t-90 9.5l9 43h446l-8 -43q-63 0 -93 -9.5t-42 -31.5l-172 -1030q6 -22 32.5 -31.5t89.5 -9.5l-8 -43h-446l8 43 q63 0 93 9.5t42 31.5l84 504h-524l-84 -504q6 -22 33 -31.5t90 -9.5l-8 -43h-447z" />
<glyph unicode="I" horiz-adv-x="630" d="M4 0l8 43q63 0 93 9.5t42 31.5l172 1030q-6 22 -32.5 31.5t-89.5 9.5l8 43h446l-8 -43q-63 0 -93 -9.5t-42 -31.5l-172 -1030q6 -22 33 -31.5t90 -9.5l-8 -43h-447z" />
<glyph unicode="J" horiz-adv-x="851" d="M-43 147q0 52 31.5 85.5t74.5 33.5q33 0 56.5 -14.5t23.5 -44.5q0 -40 -20.5 -65t-44.5 -33l4 -5q4 -4 5.5 -6t7 -7t9.5 -8t11 -7.5t14.5 -7l18 -6t21.5 -5t25.5 -3t30.5 -1.5q40 0 71 10.5t54 35t39 52.5t29.5 75.5t22.5 90t20 109.5l114 688q-6 22 -32.5 31.5 t-89.5 9.5l8 43h446l-8 -43q-63 0 -93 -9.5t-42 -31.5l-127 -762q-12 -71 -38.5 -133t-73 -118t-121.5 -88.5t-171 -32.5q-136 0 -206 51t-70 116z" />
<glyph unicode="K" horiz-adv-x="1185" d="M4 0l8 43q63 0 93 9.5t42 31.5l172 1030q-6 22 -32.5 31.5t-89.5 9.5l8 43h442l-8 -43q-63 0 -93 -9.5t-42 -31.5l-172 -1030q6 -22 33 -31.5t90 -9.5l-9 -43h-442zM436 643l584 498q-25 14 -102 14l8 43h321l-8 -43q-39 0 -69 -9.5t-38.5 -16t-25.5 -21.5l-481 -408 l376 -624q26 -33 125 -33l-8 -43h-399l8 43q49 0 76 6z" />
<glyph unicode="L" horiz-adv-x="1013" d="M4 0l8 43q63 0 93 9.5t42 31.5l172 1030q-6 22 -32.5 31.5t-89.5 9.5l8 43h446l-8 -43q-63 0 -93 -9.5t-42 -31.5l-174 -1044h467q52 20 112 129h41l-82 -199h-868z" />
<glyph unicode="M" horiz-adv-x="1658" d="M4 0l8 43q63 0 93 9.5t42 31.5l172 1030q-6 22 -32.5 31.5t-89.5 9.5l8 43h299l276 -952l596 952h303l-8 -43q-63 0 -93 -9.5t-42 -31.5l-172 -1030q6 -22 33 -31.5t90 -9.5l-8 -43h-447l8 43q63 0 93.5 9.5t42.5 31.5l153 920l-627 -1004h-30l-299 1016l-156 -932 q6 -22 33 -31.5t90 -9.5l-8 -43h-328z" />
<glyph unicode="N" horiz-adv-x="1316" d="M4 0l8 43q63 0 93 9.5t42 31.5l172 1030q-6 22 -32.5 31.5t-89.5 9.5l8 43h274l537 -838l127 754q-6 22 -33 31.5t-90 9.5l8 43h328l-8 -43q-63 0 -93.5 -9.5t-42.5 -31.5l-186 -1114h-18l-635 1018l-156 -934q6 -22 33 -31.5t90 -9.5l-8 -43h-328z" />
<glyph unicode="O" horiz-adv-x="1318" d="M94 479q0 150 56 287.5t149 236t218 157.5t259 59q217 0 345 -142.5t128 -359.5q0 -149 -56.5 -286t-150 -235.5t-218.5 -157t-257 -58.5q-147 0 -255.5 66.5t-163 178.5t-54.5 254zM299 469q0 -83 16.5 -156t49.5 -133.5t90.5 -95.5t132.5 -35q105 0 193 62t143.5 161 t86.5 216.5t31 234.5q0 84 -16 158t-49 135t-89.5 97t-131.5 36q-84 0 -158.5 -41t-128 -110t-93 -157t-58.5 -183.5t-19 -188.5z" />
<glyph unicode="P" horiz-adv-x="1114" d="M4 0l8 43q63 0 93 9.5t42 31.5l172 1030q-6 22 -32.5 31.5t-89.5 9.5l8 43h463q121 0 214.5 -24.5t146.5 -65.5t79.5 -88.5t26.5 -99.5q0 -169 -149 -272t-402 -103h-170l-78 -461q6 -22 33 -31.5t90 -9.5l-8 -43h-447zM424 614h170q338 0 338 324q0 190 -277 190h-145z " />
<glyph unicode="Q" horiz-adv-x="1318" d="M94 479q0 150 56 287.5t149 236t218 157.5t259 59q217 0 345 -142.5t128 -359.5q0 -203 -93.5 -367.5t-246.5 -265.5q5 -15 19 -53t20 -53.5t20 -42.5t26 -38.5t31 -21.5t42 -10q49 0 94 23.5t65 47.5l21 23l27 -22q-3 -6 -9.5 -16t-28.5 -35t-45.5 -44t-60.5 -35 t-75 -16q-58 0 -105 13t-78 32.5t-56 50t-39 58t-27 63.5q-92 -28 -183 -28q-147 0 -255.5 66.5t-163 178.5t-54.5 254zM299 469q0 -193 80 -309q115 139 264 139q141 0 215 -113q184 212 184 537q0 84 -16 158t-49 135t-89.5 97t-131.5 36q-84 0 -158.5 -41t-128 -110 t-93 -157t-58.5 -183.5t-19 -188.5zM408 125q70 -76 180 -76q72 0 139 31q-20 64 -44 96.5t-67 32.5q-114 0 -208 -84z" />
<glyph unicode="R" horiz-adv-x="1193" d="M4 0l8 43q63 0 93 9.5t42 31.5l172 1030q-6 22 -32.5 31.5t-89.5 9.5l8 43h463q98 0 178 -16t133 -42t89 -61.5t51.5 -73t15.5 -77.5q0 -124 -88.5 -219.5t-235.5 -135.5l190 -487q8 -22 37 -32.5t92 -10.5l-8 -43h-88q-144 0 -184 16t-70 90l-174 439h-192l-78 -461 q6 -22 33 -31.5t90 -9.5l-8 -43h-447zM424 614h170q174 0 256 81.5t82 254.5q0 86 -63 132t-214 46h-145z" />
<glyph unicode="S" horiz-adv-x="980" d="M20 0l48 285h45q1 -63 28 -110.5t72 -74t97.5 -39t111.5 -12.5q54 0 102.5 13t90 38.5t66 70.5t24.5 103q0 39 -17 72t-51 61.5t-66 49t-81 49.5t-76 47q-113 79 -155 120q-89 89 -89 187q0 93 64.5 177.5t160.5 133t191 48.5q45 0 95.5 -15.5t89 -31t52.5 -15.5 q24 0 31 41h47l-22 -260h-45q0 89 -67 150t-192 61q-100 0 -169.5 -66.5t-69.5 -138.5q0 -34 16.5 -64.5t50.5 -57.5t64.5 -47t79.5 -48.5t76 -46.5q121 -82 163 -122q98 -94 99 -206q0 -73 -29.5 -135.5t-77 -105.5t-108.5 -73t-124 -44t-124 -14q-74 0 -140.5 15 t-108 30.5t-54.5 15.5t-30.5 -12t-20.5 -29h-48z" />
<glyph unicode="T" horiz-adv-x="1095" d="M111 999l32 199h1028l-32 -199h-43q6 43 6 70q0 47 -27 59h-336l-174 -1044q6 -22 33 -31.5t90 -9.5l-8 -43h-447l9 43q63 0 93 9.5t42 31.5l174 1044h-336q-24 -9 -37.5 -37t-23.5 -92h-43z" />
<glyph unicode="U" horiz-adv-x="1267" d="M154 1155l8 43h446l-8 -43q-63 0 -93 -9.5t-42 -31.5l-107 -635q-10 -72 -10 -119q0 -149 70.5 -230t191.5 -81q89 0 171 50t142 146.5t81 221.5l108 647q-6 22 -33 31.5t-90 9.5l8 43h328l-8 -43q-63 0 -93 -9.5t-42 -31.5l-101 -606q-23 -137 -74 -241t-119.5 -165 t-146.5 -91.5t-163 -30.5q-416 0 -416 380q0 55 14 148l100 606q-6 22 -32.5 31.5t-89.5 9.5z" />
<glyph unicode="V" d="M78 1155l8 43h449l-9 -43q-95 0 -123 -25l170 -858l443 846q-8 21 -34 29t-87 8l8 43h336l-8 -43q-111 0 -129 -33l-590 -1122h-98l-211 1112q-9 43 -125 43z" />
<glyph unicode="W" horiz-adv-x="1720" d="M78 1155l8 43h449l-9 -43q-95 0 -123 -25l170 -856l291 555l-53 283q-9 43 -125 43l8 43h449l-8 -43q-95 0 -123 -25l170 -858l442 846q-8 21 -34 29t-87 8l8 43h336l-8 -43q-114 0 -135 -43l-584 -1112h-98l-137 715l-373 -715h-98l-211 1112q-9 43 -125 43z" />
<glyph unicode="X" horiz-adv-x="1064" d="M-70 0l9 43q104 0 137 45l387 479l-219 547q-9 22 -37.5 31.5t-87.5 9.5l8 43h448l-8 -43q-95 0 -123 -25l158 -391l309 383q-14 33 -120 33l8 43h336l-9 -43q-56 0 -84 -8t-43 -27l-366 -452l235 -582q16 -43 125 -43l-8 -43h-448l8 43q95 0 123 25l-174 428l-340 -420 q14 -33 120 -33l-8 -43h-336z" />
<glyph unicode="Y" horiz-adv-x="1148" d="M82 1155l8 43h449l-9 -43q-94 0 -122 -25l225 -555l418 543q-15 37 -121 37l8 43h336l-8 -43q-87 0 -121 -27l-471 -612l-72 -432q6 -22 33 -31.5t90 -9.5l-8 -43h-447l9 43q63 0 93 9.5t42 31.5l61 367l-268 663q-21 41 -125 41z" />
<glyph unicode="Z" horiz-adv-x="1030" d="M-47 0l842 1137h-498q-24 -9 -39 -38t-25 -91h-43l33 190h826l-842 -1137h557q67 26 117 136h43l-86 -197h-885z" />
<glyph unicode="[" horiz-adv-x="593" d="M14 -319l265 1579h401l-12 -74h-238l-240 -1432h238l-12 -73h-402z" />
<glyph unicode="\" horiz-adv-x="921" d="M150 1217l65 36l584 -1273l-66 -37z" />
<glyph unicode="]" horiz-adv-x="593" d="M-100 -319l12 73h238l239 1432h-237l12 74h401l-264 -1579h-401z" />
<glyph unicode="^" horiz-adv-x="933" d="M221 705l402 401h55l272 -401l-80 -58l-235 352l-354 -352z" />
<glyph unicode="_" horiz-adv-x="942" d="M-23 -193l17 91h745l-16 -91h-746z" />
<glyph unicode="`" horiz-adv-x="614" d="M350 1356h217l97 -332h-54z" />
<glyph unicode="a" horiz-adv-x="987" d="M12 170q0 54 21.5 97t62 73.5t87 53t110.5 40t117.5 29.5t121.5 26.5t111 26.5q14 100 14 150q0 89 -44.5 135.5t-118.5 46.5q-89 0 -145.5 -21t-80.5 -77q25 0 42.5 -15t17.5 -47q0 -46 -31 -70t-74 -24q-34 0 -53.5 21.5t-19.5 56.5q0 119 105 184.5t271 65.5 q164 0 242 -72.5t78 -194.5q0 -23 -8 -77l-60 -361q-4 -32 -4 -45q0 -59 28.5 -92t76.5 -33l-9 -47q-201 0 -260 76q-145 -96 -327 -96q-128 0 -199.5 42.5t-71.5 147.5zM203 166q0 -63 37 -90t90 -27q62 0 135 19.5t125 50.5q-4 20 -4 35t4 43l45 274q-25 -8 -68.5 -19 t-74 -19t-71 -22t-69 -27.5t-58.5 -35t-48.5 -46.5t-30.5 -60t-12 -76z" />
<glyph unicode="b" horiz-adv-x="1095" d="M61 102l177 1043q-127 10 -129 10l8 47q39 0 159 44t168 44l-86 -520q145 160 308 160q45 0 90.5 -10t93 -36.5t83 -66t58.5 -103.5t23 -145q0 -139 -45 -252t-122 -186t-176 -112t-210 -39q-81 0 -152 12.5t-114.5 30.5t-75.5 36t-45 31zM242 78q100 -29 219 -29 q63 0 127 39t116 107t84.5 169.5t32.5 215.5q0 129 -50.5 204.5t-137.5 75.5q-85 0 -160.5 -56.5t-132.5 -137.5z" />
<glyph unicode="c" horiz-adv-x="978" d="M63 358q0 119 38 222.5t107 179t171 119t225 43.5q148 0 226.5 -46t78.5 -135q0 -61 -29.5 -100t-78.5 -39q-33 0 -56.5 15t-23.5 45q0 47 28.5 71.5t57.5 24.5q-8 102 -193 102q-142 0 -246 -126t-104 -320q0 -148 73 -252.5t179 -104.5q92 0 165 31t144 105l45 -25 q-75 -97 -178 -142.5t-260 -45.5q-53 0 -102.5 10t-99 37t-85.5 68.5t-59 109t-23 153.5z" />
<glyph unicode="d" horiz-adv-x="1103" d="M61 340q0 139 45 252.5t122 186t176 112t210 39.5q119 0 193 -49l45 264q-128 10 -129 10l8 47q39 0 160 44t168 44l-178 -1073q-4 -32 -4 -45q0 -59 28 -92t76 -33l-8 -47q-212 0 -264 78q-118 -98 -299 -98q-46 0 -91 10t-92.5 36t-83.5 65.5t-59 103.5t-23 145z M262 385q0 -76 20 -151.5t63 -130t97 -54.5q149 0 250 76q-4 20 -4 35q0 13 4 37l105 618q-68 45 -183 45q-54 0 -114.5 -33.5t-114 -92t-88.5 -151t-35 -198.5z" />
<glyph unicode="e" horiz-adv-x="1003" d="M66 358q0 159 58 285.5t174 202.5t273 76q99 0 174.5 -26t116.5 -68t60.5 -88t19.5 -93q0 -25 -4.5 -42t-20.5 -37.5t-45 -35t-81.5 -29t-126.5 -24.5l-396 -53q0 -154 71.5 -261.5t178.5 -107.5q92 0 165 31t144 105l45 -25q-75 -97 -178 -142.5t-260 -45.5 q-53 0 -102 10t-99 37t-86 68.5t-58.5 109t-22.5 153.5zM272 489l306 41q87 13 133.5 46.5t46.5 99.5q0 30 -10 59.5t-31.5 59t-64 47.5t-99.5 18q-83 0 -169 -105t-112 -266z" />
<glyph unicode="f" horiz-adv-x="512" d="M68 -72l153 912h-102l10 61h102l11 70q29 169 111 244t196 75q113 0 169 -33t56 -77q0 -39 -30 -62.5t-68 -23.5q-29 0 -43 14t-16.5 34t-4.5 39.5t-14 33.5t-39 14q-39 0 -73.5 -59t-53.5 -171l-16 -98h94l-10 -61h-94l-142 -840l-104 -72h-92z" />
<glyph unicode="g" horiz-adv-x="1058" d="M20 -238q0 49 33.5 82t73.5 33q33 0 57.5 -14.5t24.5 -44.5q0 -75 -68 -99q8 -10 29 -21t75 -22.5t124 -11.5q65 0 116.5 33t98 118.5t78.5 225.5q-103 -61 -252 -61q-46 0 -91 9.5t-92.5 35t-83.5 64t-59 102t-23 143.5q0 139 44.5 252t121 185.5t175.5 111.5t210 39 q79 0 145 -14t104 -34t65 -40t37 -34l10 -14l-121 -727q-35 -210 -158 -339.5t-317 -129.5q-166 0 -261.5 54t-95.5 118zM254 324q0 -128 50 -201.5t138 -73.5q135 0 234 60l119 710q-90 33 -181 33q-63 0 -126.5 -39t-115.5 -106t-85 -168t-33 -215z" />
<glyph unicode="h" horiz-adv-x="1091" d="M53 0l193 1145q-128 10 -129 10l8 47q39 0 159.5 44t168.5 44l-88 -532q123 164 270 164q170 0 245.5 -47t75.5 -158q0 -20 -8 -78l-69 -422q-5 -40 -5 -45q0 -59 28.5 -92t76.5 -33l-8 -47q-144 0 -214.5 36.5t-70.5 119.5q0 13 4 41l76 456q6 30 6 58q0 141 -160 141 q-78 0 -148 -71t-124 -171l-102 -610h-185z" />
<glyph unicode="i" horiz-adv-x="497" d="M88 0l129 776q-18 1 -46.5 4t-47.5 4.5t-33 1.5l8 48q38 0 159 44t169 44l-154 -922h-184zM256 1151q0 56 37 97.5t90 41.5q40 0 68 -28t28 -72q0 -56 -37.5 -96.5t-91.5 -40.5q-40 0 -67 27t-27 71z" />
<glyph unicode="j" horiz-adv-x="493" d="M-311 -264q0 53 30.5 85t73.5 32q29 0 48.5 -18t19.5 -48q0 -36 -31 -63v-13q0 -57 90 -57q41 0 82.5 60t60.5 169l152 895q-127 10 -129 10l8 48q38 0 159 44t169 44l-168 -1012q-29 -167 -118 -243.5t-206 -76.5q-241 0 -241 144zM252 1153q0 56 38 97.5t91 41.5 q40 0 67 -28t27 -72q0 -56 -37.5 -96.5t-91.5 -40.5q-40 0 -67 27t-27 71z" />
<glyph unicode="k" horiz-adv-x="991" d="M53 0l193 1145q-128 10 -129 10l8 47q39 0 159.5 44t168.5 44l-215 -1290h-185zM340 520l416 326q-27 12 -99 12l9 43h321l-8 -43q-78 0 -115 -27l-334 -260l271 -489q12 -22 38.5 -30.5t84.5 -8.5l-9 -43h-206q-51 0 -81.5 26.5t-54.5 71.5z" />
<glyph unicode="l" horiz-adv-x="491" d="M82 156q0 13 4 41l160 948q-128 10 -129 10l8 47q39 0 159.5 44t168.5 44l-179 -1073q-4 -32 -4 -45q0 -59 28.5 -92t76.5 -33l-8 -47q-144 0 -214.5 36.5t-70.5 119.5z" />
<glyph unicode="m" horiz-adv-x="1662" d="M86 0l129 776q-18 1 -46.5 4t-47.5 4.5t-33 1.5l8 48q38 0 159 44t169 44l-23 -136q108 136 250 136q282 0 307 -156q112 156 265 156q309 0 309 -189q0 -13 -4 -45l-78 -471q-4 -32 -4 -45q0 -59 28 -92t76 -33l-8 -47q-144 0 -214.5 36.5t-70.5 119.5q0 6 5 41l69 415 q10 65 10 99q0 76 -33.5 108.5t-107.5 32.5q-128 0 -246 -184l-112 -668h-185l103 612q10 65 10 99q0 76 -33.5 108.5t-107.5 32.5q-70 0 -133.5 -52t-112.5 -130l-113 -670h-184z" />
<glyph unicode="n" horiz-adv-x="1124" d="M86 0l129 776q-18 1 -46.5 4t-47.5 4.5t-33 1.5l8 48q38 0 159 44t169 44l-25 -150q124 152 326 152q262 0 262 -217q0 -35 -6 -76l-70 -414q-4 -32 -4 -45q0 -59 28.5 -92t76.5 -33l-8 -47q-144 0 -214.5 36.5t-70.5 119.5q0 13 4 41l76 448q4 20 4 60q0 147 -158 147 q-81 0 -148.5 -57.5t-115.5 -137.5l-111 -657h-184z" />
<glyph unicode="o" horiz-adv-x="1120" d="M66 360q0 119 35.5 220t104 178t175.5 120.5t242 43.5q207 0 310 -96.5t103 -268.5q0 -120 -35.5 -224t-103.5 -183t-175.5 -124.5t-242.5 -45.5q-200 0 -306.5 102t-106.5 278zM264 360q0 -161 66.5 -240t185.5 -79q96 0 171 74.5t113 191.5t38 252q0 299 -260 299 q-93 0 -166.5 -74.5t-110.5 -186.5t-37 -237z" />
<glyph unicode="p" horiz-adv-x="1101" d="M-109 -393l7 43q64 0 94.5 9.5t42.5 31.5l180 1085q-18 1 -46.5 4t-47.5 4.5t-33 1.5l8 48q38 0 159 44t169 44l-25 -156q130 156 308 156q44 0 86 -10t84 -35.5t73 -63.5t50.5 -99.5t19.5 -138.5q0 -142 -44 -256.5t-120 -187.5t-175.5 -112t-213.5 -39q-119 0 -193 45 l-55 -334q6 -22 32 -31.5t89 -9.5l-6 -43h-443zM285 90q72 -41 182 -41q62 0 125 36.5t114.5 101t84 162.5t32.5 210q0 56 -6.5 104t-22 93t-45.5 70.5t-73 25.5q-168 0 -297 -201z" />
<glyph unicode="q" horiz-adv-x="1062" d="M61 334q0 139 44.5 252t121 185.5t175.5 111.5t210 39q74 0 138 -22t102.5 -53t65.5 -62.5t38 -53.5l11 -22l-170 -1018q6 -22 32 -31.5t89 -9.5l-7 -43h-442l6 43q64 0 94.5 9.5t42.5 31.5l60 356q-107 -67 -262 -67q-46 0 -91 9.5t-92.5 35t-83.5 64t-59 102t-23 143.5 zM254 324q0 -128 50 -201.5t138 -73.5q141 0 240 64l115 682q-85 57 -183 57q-63 0 -126.5 -39t-115.5 -106t-85 -168t-33 -215z" />
<glyph unicode="r" horiz-adv-x="788" d="M86 0l129 776q-18 1 -46.5 4t-47.5 4.5t-33 1.5l8 48q38 0 159 44t169 44l-33 -201q143 201 236 201q87 0 142.5 -32t56.5 -73q0 -39 -29 -60.5t-66 -21.5q-29 0 -45.5 18.5t-22 40t-23 40t-46.5 18.5q-35 0 -98 -81.5t-129 -192.5l-97 -578h-184z" />
<glyph unicode="s" horiz-adv-x="835" d="M25 0l22 260h45q0 -55 43 -102t103.5 -72t119.5 -25q26 0 54 5.5t62.5 19.5t56.5 46t22 77q0 50 -44.5 88t-108 66t-127 59.5t-108 84.5t-44.5 124q0 137 97.5 214t242.5 77q52 0 97.5 -15.5t75.5 -31t44 -15.5q11 0 20.5 11.5t12.5 29.5h47l-25 -260h-45q0 85 -69.5 148 t-161.5 63q-71 0 -133 -38t-62 -89q0 -44 34 -80.5t85 -60.5t110.5 -53.5t110.5 -58.5t85 -76t34 -105q0 -97 -57 -169t-145 -107t-191 -35q-54 0 -101.5 15t-78 30.5t-44.5 15.5q-23 0 -30 -41h-49z" />
<glyph unicode="t" horiz-adv-x="681" d="M84 840l10 61q118 0 207 89.5t109 207.5h73l-49 -297h176l-10 -61h-176l-111 -652q-4 -32 -4 -47q0 -84 90 -84q36 0 81 36.5t69 99.5l45 -25q-75 -188 -279 -188q-200 0 -200 167q0 28 6 58l106 635h-143z" />
<glyph unicode="u" horiz-adv-x="1128" d="M92 858l8 43h314l-109 -645q-6 -30 -6 -59q0 -148 160 -148q138 0 254 129l121 723h184l-115 -684q-4 -32 -4 -45q0 -59 28.5 -92t76.5 -33l-9 -47q-127 0 -196 29t-84 92q-141 -141 -281 -141q-166 0 -241.5 53t-75.5 164q0 33 6 73l92 547q-6 22 -33 31.5t-90 9.5z" />
<glyph unicode="v" horiz-adv-x="937" d="M23 858l8 43h291l153 -651q10 14 64.5 85.5t74 98.5t64 92.5t66.5 106.5t47.5 98.5t39.5 108.5q-24 18 -106 18l8 43h213q-17 -104 -73 -217.5t-125 -209.5t-137 -183t-118.5 -164t-58.5 -127h-100l-189 817q-6 22 -32.5 31.5t-89.5 9.5z" />
<glyph unicode="w" horiz-adv-x="1454" d="M23 858l8 43h291l153 -651l287 504h110l119 -504q13 17 65 85.5t73.5 98t64.5 93t66 106t48.5 99.5t39.5 108q-24 18 -107 18l8 43h213q-17 -104 -73 -217.5t-125 -209.5t-137 -183t-118.5 -164t-58.5 -127h-100l-119 520l-297 -520h-100l-189 817q-6 22 -32.5 31.5 t-89.5 9.5z" />
<glyph unicode="x" horiz-adv-x="958" d="M-70 0l9 43q62 0 93.5 10t51.5 33l299 356l-174 387q-7 17 -33 23t-82 6l8 43h174q43 0 64 -2.5t40.5 -17.5t31 -35.5t32.5 -67.5l78 -172l248 295h195l-9 -43q-63 0 -94 -9t-49 -30l-250 -299l203 -448q7 -17 34 -23t83 -6l-9 -43h-204q-57 0 -81 22.5t-59 100.5 l-106 233l-299 -356h-195z" />
<glyph unicode="y" horiz-adv-x="911" d="M-8 -313q0 33 24.5 61.5t55.5 28.5q17 0 37 -17.5t34 -17.5q45 0 64 37l125 221l-189 817q-6 22 -33 31.5t-90 9.5l9 43h290l154 -651l332 586q-25 22 -111 22l8 43h242l-631 -1110q-55 -94 -120 -131t-123 -37q-29 0 -53.5 18t-24.5 46z" />
<glyph unicode="z" horiz-adv-x="876" d="M-47 0l684 840h-393q-24 -9 -39 -38t-25 -91h-43l33 190h709l-684 -840h442q24 9 38.5 37.5t24.5 91.5h43l-32 -190h-758z" />
<glyph unicode="{" horiz-adv-x="544" d="M35 428l8 47q79 0 121 26.5t53 96.5q6 34 25.5 205.5t27.5 224.5q33 189 330 189l-6 -48q-80 0 -123.5 -26.5t-54.5 -95.5q-6 -34 -24.5 -206t-26.5 -225q-19 -119 -150 -163q98 -37 98 -129q0 -23 -2 -35q-9 -54 -50 -226.5t-46 -205.5q-2 -12 -2 -31q0 -51 34.5 -70.5 t104.5 -19.5l-8 -49q-270 0 -270 153q0 11 4 35q9 54 47 226.5t43 205.5q4 24 4 33q0 50 -34 69t-103 19z" />
<glyph unicode="|" horiz-adv-x="391" d="M61 -61l234 1392h74l-234 -1392h-74z" />
<glyph unicode="}" horiz-adv-x="544" d="M-78 -313l8 47q79 0 123.5 27t55.5 96q6 34 23.5 205.5t25.5 224.5q19 120 151 164q-98 37 -98 129q0 22 2 34q9 54 50 227t46 206q2 12 2 30q0 51 -35.5 70.5t-105.5 19.5l8 50q273 0 273 -154q0 -5 -5 -35q-9 -54 -47 -226.5t-43 -205.5q-4 -24 -4 -33q0 -50 34 -69 t103 -19l-8 -47q-79 0 -121 -26.5t-53 -96.5q-6 -34 -25.5 -205.5t-27.5 -224.5q-33 -188 -332 -188z" />
<glyph unicode="~" horiz-adv-x="1124" d="M111 426q44 270 254 270q60 0 239.5 -70.5t216.5 -70.5q78 0 113.5 34.5t46.5 106.5h53q-44 -270 -256 -270q-60 0 -239.5 70.5t-216.5 70.5q-78 0 -112.5 -34.5t-45.5 -106.5h-53z" />
<glyph unicode="&#xa1;" horiz-adv-x="479" d="M27 -152q0 13 2 19q11 73 82 349.5t86 328.5q1 3 4 13.5l5 17.5t6 19.5t7.5 21.5t8 20t9 18.5t9.5 14.5t10 10.5t10 3.5q25 0 25 -92q0 -66 -22 -344t-40 -381q-7 -45 -38.5 -68.5t-75.5 -23.5q-39 0 -63.5 19t-24.5 54zM184 936q0 56 45 102.5t103 46.5q42 0 72 -31 t30 -75q0 -57 -43 -102.5t-100 -45.5q-42 0 -74.5 31t-32.5 74z" />
<glyph unicode="&#xa2;" horiz-adv-x="970" d="M49 356q0 161 65 289t189 202.5t287 74.5h28l89 252l71 -15l-84 -244q201 -28 201 -174q0 -61 -30 -100t-79 -39q-33 0 -56 15t-23 45q0 47 28.5 71.5t57.5 24.5q-8 82 -119 98l-264 -774q45 -25 92 -25q92 0 165 31t144 105l45 -25q-75 -97 -178 -142.5t-260 -45.5 q-31 0 -45 2l-82 -244l-74 14l82 242q-41 11 -76.5 29t-68 48t-55.5 69t-36.5 94t-13.5 122zM252 414q0 -85 25.5 -159t70.5 -124l250 729q-141 -2 -243.5 -127.5t-102.5 -318.5z" />
<glyph unicode="&#xa3;" horiz-adv-x="1093" d="M0 133q0 75 66 137t137 62q62 0 119 -31q11 65 16 192t18 214h-139l14 90h140q45 221 135 321.5t229 100.5q125 0 202 -40.5t77 -113.5q0 -48 -32.5 -77.5t-72.5 -29.5q-29 0 -48 18t-19 48q0 37 30 63v7q0 30 -41.5 46.5t-85.5 16.5q-62 0 -109 -82t-81 -278h217 l-14 -90h-215q-5 -39 -16.5 -161t-26.5 -199.5t-43 -141.5q86 -58 186 -58q90 0 158 18.5t97.5 41t49.5 41t25 18.5q19 0 16 -24q-2 -10 -16 -36t-45 -64.5t-71 -73.5t-102 -59.5t-130 -24.5q-132 0 -236 108q-94 -112 -213 -112q-89 0 -132.5 43t-43.5 110zM72 145 q0 -43 30.5 -69.5t77.5 -26.5q74 0 117 148q-55 65 -107 65q-45 0 -81.5 -34t-36.5 -83z" />
<glyph unicode="&#xa4;" horiz-adv-x="1048" d="M55 193l129 108q-47 79 -47 172q0 167 129 303l-94 113l76 65l94 -114q119 82 250 82q130 0 223 -80l129 112l55 -65l-129 -111q50 -74 50 -176q0 -167 -129 -303l92 -106l-78 -66l-88 109q-122 -84 -254 -84q-137 0 -227 84l-127 -109zM231 487q0 -105 70 -174t178 -69 q85 0 164.5 44t130.5 124t51 174q0 105 -69.5 174t-177.5 69q-85 0 -164.5 -44t-131 -124t-51.5 -174z" />
<glyph unicode="&#xa5;" horiz-adv-x="1114" d="M150 1155l8 43h397l-8 -43q-55 0 -86 -8l143 -600l332 586q-25 22 -113 22l8 43h336l-8 -43q-113 0 -133 -39l-377 -665h162l-16 -91h-174l-19 -114h174l-14 -90h-174l-13 -72q6 -22 33 -31.5t90 -9.5l-8 -43h-446l8 43q63 0 93 9.5t42 31.5l12 72h-178l15 90h178l18 114 h-178l16 91h156l-154 663q-6 22 -32.5 31.5t-89.5 9.5z" />
<glyph unicode="&#xa6;" horiz-adv-x="401" d="M66 -61l98 589h74l-99 -589h-73zM201 741l98 590h74l-99 -590h-73z" />
<glyph unicode="&#xa7;" horiz-adv-x="841" d="M20 -195q0 36 25 64.5t59 28.5q26 0 44 -19.5t18 -44.5q0 -7 -2 -22t-2 -23q0 -53 24.5 -93t71.5 -40q43 0 77.5 9t63.5 40.5t29 83.5q0 35 -37 91.5t-90 120t-106 130.5t-90 139.5t-37 130.5q0 71 23 132.5t61.5 103.5t81.5 70t90 43q-107 126 -107 223q0 100 106.5 174 t254.5 74q88 0 151.5 -66.5t63.5 -124.5q0 -36 -24.5 -64t-59.5 -28q-26 0 -45 19t-19 44q0 7 2 22.5t2 23.5q0 53 -24.5 93t-71.5 40q-43 0 -77.5 -9t-63.5 -40.5t-29 -83.5q0 -35 37 -91.5t90 -120t106 -131t90 -140t37 -130.5q0 -71 -23 -132.5t-61.5 -103t-81.5 -69.5 t-90 -43q107 -126 107 -223q0 -101 -105 -174.5t-253 -73.5q-89 0 -152.5 66t-63.5 124zM209 512q0 -28 6 -56t22 -58t28.5 -51.5t40 -54.5t41.5 -49t48 -53t45 -49q162 49 162 183q0 28 -6 56t-22 58t-27.5 51t-40 55t-40.5 48.5t-48 53t-45 48.5q-164 -50 -164 -182z" />
<glyph unicode="&#xa8;" horiz-adv-x="823" d="M309 1108q0 48 36.5 82.5t82.5 34.5q37 0 61.5 -24.5t24.5 -59.5q0 -48 -36.5 -82.5t-82.5 -34.5q-37 0 -61.5 24.5t-24.5 59.5zM686 1108q0 48 36.5 82.5t82.5 34.5q37 0 61.5 -24.5t24.5 -59.5q0 -48 -36.5 -82.5t-82.5 -34.5q-37 0 -61.5 24.5t-24.5 59.5z" />
<glyph unicode="&#xa9;" horiz-adv-x="1323" d="M94 455q0 109 37.5 211.5t103 182t149.5 140t182 93t196 32.5q208 0 343.5 -135t135.5 -336q0 -50 -8 -94q-25 -153 -123 -283t-241 -206t-296 -76q-208 0 -343.5 135t-135.5 336zM150 465q0 -183 122 -304.5t310 -121.5q138 0 267 68.5t217.5 186t111.5 255.5q6 43 6 84 q0 183 -121 304.5t-309 121.5q-88 0 -176 -29t-164.5 -83.5t-136 -126.5t-93.5 -164.5t-34 -190.5zM367 492q0 87 35.5 162t91.5 123t122.5 75t131.5 27q27 0 51 -7.5t38 -15.5t17 -8t6 20h45l-14 -151h-41q-2 51 -26.5 78.5t-86.5 27.5q-100 0 -170.5 -95.5t-70.5 -231.5 q0 -98 45.5 -150.5t111.5 -52.5q54 0 106 36.5t75 78.5l40 -21q-83 -149 -251 -149q-125 0 -190.5 73t-65.5 181z" />
<glyph unicode="&#xaa;" horiz-adv-x="745" d="M94 264l8 53h492l-8 -53h-492zM143 545q0 34 16.5 60.5t40.5 42.5t61 30t66.5 20.5t71 15t60.5 13.5q6 41 6 66q0 44 -17.5 62.5t-56.5 18.5q-70 0 -94 -30q32 -10 25 -51q-4 -26 -24.5 -35.5t-41.5 -9.5q-22 0 -32.5 14t-10.5 35q0 66 57.5 100.5t141.5 34.5 q87 0 127.5 -39t40.5 -102q0 -6 -5 -41l-32 -203q-9 -53 16 -53q12 0 18.5 3.5t8 7.5t2.5 13h39q-7 -42 -33.5 -59t-83.5 -17q-52 0 -70 37q-70 -39 -153 -39q-144 0 -144 105zM258 545q0 -29 13 -39t40 -10q61 0 119 28q0 23 4 51l19 107q-12 -3 -41.5 -11t-41.5 -12 t-35 -12.5t-33 -16.5t-22.5 -20.5t-17 -28.5t-4.5 -36z" />
<glyph unicode="&#xab;" horiz-adv-x="899" d="M96 612q8 38 35 52l365 192l-9 -53l-211 -191l146 -190l-8 -53l-299 192q-26 16 -19 51zM424 612q8 38 35 52l364 192l-8 -53l-211 -191l146 -190l-9 -53l-299 192q-25 16 -18 51z" />
<glyph unicode="&#xac;" horiz-adv-x="878" d="M150 606l14 90h598l-45 -270h-86l31 180h-512z" />
<glyph unicode="&#xad;" horiz-adv-x="817" d="M141 606l29 90h541l-29 -90h-541z" />
<glyph unicode="&#xae;" horiz-adv-x="1325" d="M94 455q0 136 58.5 260t152.5 210.5t214.5 137.5t242.5 51q208 0 343.5 -135t135.5 -336q0 -136 -58.5 -260t-152.5 -210.5t-214.5 -137.5t-242.5 -51q-208 0 -343.5 135t-135.5 336zM150 465q0 -183 122 -304.5t310 -121.5q110 0 219 46t193.5 124t137 190t52.5 234 q0 183 -121 304.5t-309 121.5q-110 0 -219.5 -46t-194 -124t-137.5 -190t-53 -234zM346 250l8 41q52 0 66 14l86 510q-3 12 -62 12l7 41h241q122 0 182 -41t60 -100q0 -65 -45 -114t-115 -72l92 -234q3 -16 66 -16l-8 -41h-54q-73 0 -96.5 10.5t-38.5 48.5l-84 213h-80 l-36 -217q3 -14 61 -14l-8 -41h-242zM580 578h75q85 0 120.5 37t35.5 120q0 39 -28.5 59.5t-98.5 20.5h-63z" />
<glyph unicode="&#xaf;" horiz-adv-x="786" d="M299 1053l14 90h541l-14 -90h-541z" />
<glyph unicode="&#xb0;" horiz-adv-x="641" d="M166 1020q0 111 85.5 190.5t188.5 79.5q86 0 142.5 -56t56.5 -140q0 -110 -86.5 -189.5t-190.5 -79.5q-85 0 -140.5 56t-55.5 139zM250 1032q0 -53 36 -88t91 -35q67 0 121.5 50.5t54.5 121.5q0 53 -35 89t-90 36q-67 0 -122.5 -51.5t-55.5 -122.5z" />
<glyph unicode="&#xb1;" horiz-adv-x="864" d="M98 274l17 91h585l-16 -91h-586zM172 713l16 90h248l35 207h90l-35 -207h248l-16 -90h-248l-35 -207h-90l35 207h-248z" />
<glyph unicode="&#xb2;" horiz-adv-x="741" d="M84 573l2 11q3 18 40.5 52t91.5 73.5t116 92.5t115 106.5t88.5 117.5t35.5 123q0 100 -110 100q-58 0 -101.5 -13.5t-66 -32.5t-38 -38.5t-27 -33t-21.5 -13.5q-11 0 -14.5 7.5t-1.5 15.5q2 14 14.5 38t38.5 54t59.5 56.5t84 44.5t106.5 18q121 0 178 -44.5t57 -123.5 q0 -56 -38.5 -120t-97.5 -120.5t-118 -105t-113.5 -91t-70.5 -59.5h274q23 8 48.5 31.5t43.5 56.5h46l-91 -203h-530z" />
<glyph unicode="&#xb3;" horiz-adv-x="729" d="M102 686q0 44 20.5 65t51.5 21q19 0 28.5 -15t15.5 -36t16.5 -42.5t40 -36.5t77.5 -15q56 0 96.5 17.5t62 47.5t31 63.5t9.5 71.5q0 51 -23.5 87t-76.5 36q-17 0 -37 -4t-33 -4q-14 0 -24.5 9t-8.5 18q1 6 6 10.5t9 6t6 1.5q93 27 124 45q73 42 74 123q0 43 -32.5 68.5 t-90.5 25.5q-59 0 -99 -17t-54.5 -37t-28.5 -37t-26 -17q-11 0 -15 9t-2 15q3 18 21 47t48.5 61.5t81 55.5t107.5 23q232 0 232 -156q0 -122 -129 -190q51 -22 79.5 -62.5t28.5 -91.5q0 -127 -85.5 -207t-252.5 -80q-57 0 -106.5 14t-79 33.5t-46 39.5t-16.5 34z" />
<glyph unicode="&#xb4;" horiz-adv-x="614" d="M295 1024l207 332h217l-371 -332h-53z" />
<glyph unicode="&#xb5;" horiz-adv-x="1191" d="M27 -307q0 9 4 33l196 1175h185l-109 -645q-6 -30 -6 -59q0 -70 35.5 -109t124.5 -39q131 0 268 148l119 704h184l-123 -731q-4 -32 -4 -45q0 -43 15.5 -63.5t39.5 -20.5q27 0 52 15t28 36h37q-9 -58 -57 -85t-152 -27q-133 0 -141 145q-145 -145 -307 -145 q-174 0 -246 69l-20 -117q-3 -24 -3 -45q0 -39 15.5 -66t34 -38.5t34 -31.5t15.5 -48q0 -54 -36.5 -83.5t-82.5 -29.5q-38 0 -69 24.5t-31 78.5z" />
<glyph unicode="&#xb6;" horiz-adv-x="1091" d="M113 813q0 74 29.5 141t88.5 122.5t159 88.5t228 33h492l-8 -43q-63 0 -93 -9.5t-42 -31.5l-172 -1030q6 -22 33 -31.5t90 -9.5l-9 -43h-317l188 1128h-104l-189 -1128h-317l8 43q63 0 93 9.5t42 31.5l78 465q-134 13 -206 83t-72 181z" />
<glyph unicode="&#xb7;" horiz-adv-x="468" d="M123 598q0 57 43 102t100 45q42 0 74.5 -30.5t32.5 -73.5q0 -56 -45 -102.5t-103 -46.5q-42 0 -72 31t-30 75z" />
<glyph unicode="&#xb8;" horiz-adv-x="622" d="M57 -393l6 35q36 -4 50 -4q87 0 126.5 32.5t39.5 81.5q0 72 -111 72l90 201h78l-60 -138q24 0 53 -6t59.5 -19t50.5 -37t20 -56q0 -74 -61 -125.5t-191 -51.5q-65 0 -150 15z" />
<glyph unicode="&#xb9;" horiz-adv-x="499" d="M100 573l9 48q72 0 88 20l75 444q-11 -6 -22 -15.5t-28.5 -26t-22.5 -21.5l-33 18q13 17 48 65t61 82t57.5 73t55 60t36.5 21h37l-119 -700q8 -20 86 -20l-8 -48h-320z" />
<glyph unicode="&#xba;" horiz-adv-x="759" d="M90 264l8 53h498l-8 -53h-498zM156 641q0 127 77 209t213 82q110 0 163 -51t53 -140q0 -131 -76.5 -216t-212.5 -85q-105 0 -161 55t-56 146zM276 639q0 -147 117 -147q67 0 107.5 73.5t40.5 173.5q0 140 -119 140q-64 0 -105 -74t-41 -166z" />
<glyph unicode="&#xbb;" horiz-adv-x="899" d="M104 369l9 53l211 190l-146 191l8 53l299 -192q26 -16 19 -52q-7 -37 -35 -51zM432 369l8 53l211 190l-145 191l8 53l299 -192q25 -16 18 -52q-8 -38 -34 -51z" />
<glyph unicode="&#xbc;" horiz-adv-x="1425" d="M92 573l8 48q72 0 88 20l76 444q-9 -5 -19 -13t-17.5 -14.5t-19.5 -18.5t-18 -17l-32 18q13 17 48 65t61 82t57.5 73t55 60t36.5 21h37l-119 -700q7 -20 86 -20l-8 -48h-320zM143 -20l1010 1273l53 -36l-1009 -1274zM731 215l481 553h86l-84 -494h113l-10 -59h-113 l-24 -147q9 -21 84 -21l-9 -47h-315l8 47q74 0 88 21l25 147h-330zM856 274h215l51 308z" />
<glyph unicode="&#xbd;" horiz-adv-x="1478" d="M92 573l8 48q72 0 88 20l76 444q-9 -5 -19 -13t-17.5 -14.5t-19.5 -18.5t-18 -17l-32 18q13 17 48 65t61 82t57.5 73t55 60t36.5 21h37l-119 -700q7 -20 86 -20l-8 -48h-320zM94 -20l1010 1273l53 -36l-1010 -1274zM748 0l2 10q3 18 40.5 52t91.5 73.5t116 92.5 t115 106.5t88.5 117.5t35.5 123q0 101 -111 101q-58 0 -101.5 -13.5t-66 -33t-38 -38.5t-27 -32.5t-21.5 -13.5q-11 0 -14.5 7t-1.5 15q2 14 14.5 38t38.5 54t59.5 56.5t84 44.5t106.5 18q121 0 178.5 -44.5t57.5 -123.5q0 -56 -38.5 -119.5t-98 -120.5t-118.5 -105 t-113.5 -90.5t-70.5 -59.5h275q23 8 48.5 31.5t43.5 56.5h45l-90 -203h-530z" />
<glyph unicode="&#xbe;" horiz-adv-x="1499" d="M88 686q0 44 20.5 65t51.5 21q19 0 28.5 -15t15.5 -36t16.5 -42.5t40 -36.5t77.5 -15q56 0 96.5 17.5t62 47.5t31 63.5t9.5 71.5q0 50 -24 86.5t-77 36.5q-17 0 -36.5 -4t-32.5 -4q-14 0 -24.5 9t-8.5 18q1 6 5.5 10.5t8.5 6t6 1.5q94 27 124 44q74 43 75 124 q0 43 -32.5 68.5t-90.5 25.5q-59 0 -99 -17t-55 -37t-29 -37t-26 -17q-11 0 -14.5 9t-1.5 15q3 18 21 47t48.5 61.5t81 55.5t107.5 23q231 0 231 -156q0 -122 -129 -190q51 -22 80 -62.5t29 -91.5q0 -127 -85.5 -207t-252.5 -80q-57 0 -106.5 14t-79 33.5t-46 39.5t-16.5 34 zM238 -20l1009 1273l53 -36l-1009 -1274zM805 215l481 553h86l-84 -494h113l-10 -59h-113l-25 -147q9 -21 84 -21l-8 -47h-315l8 47q74 0 88 21l25 147h-330zM930 274h215l51 308z" />
<glyph unicode="&#xbf;" horiz-adv-x="808" d="M-6 35q0 59 23 116t60 103t82.5 90t92 83.5t86.5 76t68 76t34 75.5q1 10 12 19.5t19 9.5t16 -9.5t7 -19.5q-10 -60 -38.5 -116.5t-63.5 -98t-74 -92t-70.5 -98t-52.5 -115t-21 -143.5q0 -82 38.5 -119t123.5 -37q83 0 144 51t61 111q0 16 -8.5 37t-8.5 35q0 37 25 60.5 t57 23.5q29 0 49.5 -19.5t20.5 -58.5q0 -54 -26.5 -107.5t-73.5 -96.5t-118 -70t-153 -27q-86 0 -149 22.5t-97 61t-49.5 82.5t-15.5 94zM387 936q0 56 45 102.5t103 46.5q42 0 72 -31t30 -75q0 -57 -43 -102.5t-100 -45.5q-42 0 -74.5 31t-32.5 74z" />
<glyph unicode="&#xc0;" d="M-98 0l8 43q114 0 135 43l584 1112h98l211 -1112q9 -43 125 -43l-8 -43h-449l8 43q95 0 123 25l-63 313h-393l-156 -301q8 -21 34 -29t87 -8l-8 -43h-336zM317 449h345l-95 477zM436 1602h217l97 -332h-54z" />
<glyph unicode="&#xc1;" d="M-98 0l8 43q114 0 135 43l584 1112h98l211 -1112q9 -43 125 -43l-8 -43h-449l8 43q95 0 123 25l-63 313h-393l-156 -301q8 -21 34 -29t87 -8l-8 -43h-336zM317 449h345l-95 477zM670 1270l207 332h217l-371 -332h-53z" />
<glyph unicode="&#xc2;" d="M-98 0l8 43q114 0 135 43l584 1112h98l211 -1112q9 -43 125 -43l-8 -43h-449l8 43q95 0 123 25l-63 313h-393l-156 -301q8 -21 34 -29t87 -8l-8 -43h-336zM317 449h345l-95 477zM453 1270l247 332h103l137 -332h-53l-162 178l-219 -178h-53z" />
<glyph unicode="&#xc3;" d="M-98 0l8 43q114 0 135 43l584 1112h98l211 -1112q9 -43 125 -43l-8 -43h-449l8 43q95 0 123 25l-63 313h-393l-156 -301q8 -21 34 -29t87 -8l-8 -43h-336zM317 449h345l-95 477zM391 1270q11 69 31.5 116.5t48 71t54 32.5t59.5 9q45 0 159 -60.5t142 -60.5q58 0 84.5 30 t36.5 91h38q-11 -69 -31.5 -116.5t-48.5 -71t-54.5 -32.5t-59.5 -9q-45 0 -157 60.5t-140 60.5q-58 0 -85.5 -30t-37.5 -91h-39z" />
<glyph unicode="&#xc4;" d="M-98 0l8 43q114 0 135 43l584 1112h98l211 -1112q9 -43 125 -43l-8 -43h-449l8 43q95 0 123 25l-63 313h-393l-156 -301q8 -21 34 -29t87 -8l-8 -43h-336zM317 449h345l-95 477zM422 1354q0 48 36.5 82t82.5 34q37 0 61.5 -24.5t24.5 -59.5q0 -48 -36.5 -82t-82.5 -34 q-37 0 -61.5 24.5t-24.5 59.5zM799 1354q0 48 36.5 82t82.5 34q37 0 61.5 -24.5t24.5 -59.5q0 -48 -36.5 -82t-82.5 -34q-37 0 -61.5 24.5t-24.5 59.5z" />
<glyph unicode="&#xc5;" d="M-98 0l8 43q114 0 135 43l584 1112h98l211 -1112q9 -43 125 -43l-8 -43h-449l8 43q95 0 123 25l-63 313h-393l-156 -301q8 -21 34 -29t87 -8l-8 -43h-336zM317 449h345l-95 477zM565 1384q0 76 54.5 127.5t125.5 51.5q57 0 92 -35.5t35 -89.5q0 -76 -53.5 -127 t-124.5 -51q-57 0 -93 35t-36 89zM623 1395q0 -34 22 -57t57 -23q43 0 79 33t36 79q0 34 -23.5 57t-58.5 23q-43 0 -77.5 -33t-34.5 -79z" />
<glyph unicode="&#xc6;" horiz-adv-x="1556" d="M-123 0l8 43q62 0 91.5 10t43.5 33v-2l762 1049q-19 22 -112 22l8 43h868l-33 -199h-43q7 51 7 70q0 47 -27 59h-424l-78 -471h287q24 9 37.5 37t23.5 92h43l-55 -327h-43q8 58 8 69q0 48 -26 60h-287l-86 -518h467q53 20 113 129h40l-81 -199h-869l8 43q63 0 93.5 9.5 t42.5 31.5l49 297h-396l-219 -301q6 -20 34 -28.5t89 -8.5l-8 -43h-156l31 66l-47 -66h-164zM367 449h358l106 636z" />
<glyph unicode="&#xc7;" horiz-adv-x="1157" d="M94 467q0 135 44 256.5t118 210t168.5 153.5t199 97.5t207.5 32.5q45 0 91 -15.5t79.5 -31t47.5 -15.5q23 0 30 41h47l-22 -260h-45q0 93 -57 152t-181 59q-101 0 -194.5 -52.5t-163 -141.5t-111 -215.5t-41.5 -266.5q0 -202 95 -313t239 -111q103 0 215 71t154 150 l45 -24q-29 -49 -67 -91t-91.5 -82t-127.5 -64t-159 -27l-41 -93q24 0 53 -6t59.5 -19t50.5 -37t20 -56q0 -74 -61 -125.5t-191 -51.5q-64 0 -150 15l6 35q36 -4 50 -4v-3q87 0 126 33t39 82q0 72 -110 72l72 158q-214 17 -328.5 152.5t-114.5 334.5z" />
<glyph unicode="&#xc8;" horiz-adv-x="1040" d="M4 0l8 43q63 0 93 9.5t42 31.5l172 1030q-6 22 -32.5 31.5t-89.5 9.5l8 43h825l-33 -199h-43q7 51 7 70q0 47 -27 59h-424l-78 -471h287q24 9 37.5 37t23.5 92h43l-55 -327h-43q8 58 8 69q0 48 -26 60h-287l-86 -518h467q52 20 112 129h41l-82 -199h-868zM420 1602h217 l96 -332h-53z" />
<glyph unicode="&#xc9;" horiz-adv-x="1040" d="M4 0l8 43q63 0 93 9.5t42 31.5l172 1030q-6 22 -32.5 31.5t-89.5 9.5l8 43h825l-33 -199h-43q7 51 7 70q0 47 -27 59h-424l-78 -471h287q24 9 37.5 37t23.5 92h43l-55 -327h-43q8 58 8 69q0 48 -26 60h-287l-86 -518h467q52 20 112 129h41l-82 -199h-868zM653 1270 l207 332h217l-370 -332h-54z" />
<glyph unicode="&#xca;" horiz-adv-x="1040" d="M4 0l8 43q63 0 93 9.5t42 31.5l172 1030q-6 22 -32.5 31.5t-89.5 9.5l8 43h825l-33 -199h-43q7 51 7 70q0 47 -27 59h-424l-78 -471h287q24 9 37.5 37t23.5 92h43l-55 -327h-43q8 58 8 69q0 48 -26 60h-287l-86 -518h467q52 20 112 129h41l-82 -199h-868zM436 1270 l248 332h102l138 -332h-54l-161 178l-220 -178h-53z" />
<glyph unicode="&#xcb;" horiz-adv-x="1040" d="M4 0l8 43q63 0 93 9.5t42 31.5l172 1030q-6 22 -32.5 31.5t-89.5 9.5l8 43h825l-33 -199h-43q7 51 7 70q0 47 -27 59h-424l-78 -471h287q24 9 37.5 37t23.5 92h43l-55 -327h-43q8 58 8 69q0 48 -26 60h-287l-86 -518h467q52 20 112 129h41l-82 -199h-868zM406 1354 q0 48 36 82t82 34q37 0 61.5 -24.5t24.5 -59.5q0 -48 -36 -82t-82 -34q-37 0 -61.5 24.5t-24.5 59.5zM782 1354q0 48 36.5 82t82.5 34q37 0 61.5 -24.5t24.5 -59.5q0 -48 -36.5 -82t-82.5 -34q-37 0 -61.5 24.5t-24.5 59.5z" />
<glyph unicode="&#xcc;" horiz-adv-x="630" d="M4 0l8 43q63 0 93 9.5t42 31.5l172 1030q-6 22 -32.5 31.5t-89.5 9.5l8 43h446l-8 -43q-63 0 -93 -9.5t-42 -31.5l-172 -1030q6 -22 33 -31.5t90 -9.5l-8 -43h-447zM176 1602h217l96 -332h-53z" />
<glyph unicode="&#xcd;" horiz-adv-x="630" d="M4 0l8 43q63 0 93 9.5t42 31.5l172 1030q-6 22 -32.5 31.5t-89.5 9.5l8 43h446l-8 -43q-63 0 -93 -9.5t-42 -31.5l-172 -1030q6 -22 33 -31.5t90 -9.5l-8 -43h-447zM410 1270l206 332h218l-371 -332h-53z" />
<glyph unicode="&#xce;" horiz-adv-x="630" d="M4 0l8 43q63 0 93 9.5t42 31.5l172 1030q-6 22 -32.5 31.5t-89.5 9.5l8 43h446l-8 -43q-63 0 -93 -9.5t-42 -31.5l-172 -1030q6 -22 33 -31.5t90 -9.5l-8 -43h-447zM193 1270l247 332h103l137 -332h-53l-162 178l-219 -178h-53z" />
<glyph unicode="&#xcf;" horiz-adv-x="630" d="M4 0l8 43q63 0 93 9.5t42 31.5l172 1030q-6 22 -32.5 31.5t-89.5 9.5l8 43h446l-8 -43q-63 0 -93 -9.5t-42 -31.5l-172 -1030q6 -22 33 -31.5t90 -9.5l-8 -43h-447zM162 1354q0 48 36.5 82t82.5 34q37 0 61.5 -24.5t24.5 -59.5q0 -48 -36.5 -82t-82.5 -34 q-37 0 -61.5 24.5t-24.5 59.5zM539 1354q0 48 36 82t82 34q37 0 61.5 -24.5t24.5 -59.5q0 -48 -36 -82t-82 -34q-37 0 -61.5 24.5t-24.5 59.5z" />
<glyph unicode="&#xd0;" horiz-adv-x="1251" d="M-6 -2l6 43q64 0 94.5 9.5t42.5 31.5l39 233q23 137 75.5 242.5t142.5 188.5t228 131t322 59q-38 101 -116 151t-173 50h-153l-29 -174h-82l29 174h-201q-24 -9 -38.5 -37.5t-24.5 -91.5h-43l32 190h285l25 143h82l-25 -143h154q240 0 377 -130.5t137 -348.5 q0 -157 -56.5 -293.5t-151.5 -229t-220.5 -145.5t-262.5 -53h-495zM324 68h178q58 0 122 27.5t127 84.5t113.5 135.5t81.5 190t31 237.5q0 63 -14 131q-138 -9 -245 -50.5t-175.5 -108t-109 -146.5t-56.5 -176z" />
<glyph unicode="&#xd1;" horiz-adv-x="1316" d="M4 0l8 43q63 0 93 9.5t42 31.5l172 1030q-6 22 -32.5 31.5t-89.5 9.5l8 43h274l537 -838l127 754q-6 22 -33 31.5t-90 9.5l8 43h328l-8 -43q-63 0 -93.5 -9.5t-42.5 -31.5l-186 -1114h-18l-635 1018l-156 -934q6 -22 33 -31.5t90 -9.5l-8 -43h-328zM477 1270 q11 69 31.5 116.5t48 71t54 32.5t59.5 9q45 0 159 -60.5t142 -60.5q58 0 84.5 30t36.5 91h38q-11 -69 -31.5 -116.5t-48.5 -71t-54.5 -32.5t-59.5 -9q-45 0 -157 60.5t-140 60.5q-58 0 -85.5 -30t-37.5 -91h-39z" />
<glyph unicode="&#xd2;" horiz-adv-x="1318" d="M94 479q0 150 56 287.5t149 236t218 157.5t259 59q217 0 345 -142.5t128 -359.5q0 -149 -56.5 -286t-150 -235.5t-218.5 -157t-257 -58.5q-147 0 -255.5 66.5t-163 178.5t-54.5 254zM299 469q0 -83 16.5 -156t49.5 -133.5t90.5 -95.5t132.5 -35q105 0 193 62t143.5 161 t86.5 216.5t31 234.5q0 84 -16 158t-49 135t-89.5 97t-131.5 36q-84 0 -158.5 -41t-128 -110t-93 -157t-58.5 -183.5t-19 -188.5zM524 1602h217l97 -332h-54z" />
<glyph unicode="&#xd3;" horiz-adv-x="1318" d="M94 479q0 150 56 287.5t149 236t218 157.5t259 59q217 0 345 -142.5t128 -359.5q0 -149 -56.5 -286t-150 -235.5t-218.5 -157t-257 -58.5q-147 0 -255.5 66.5t-163 178.5t-54.5 254zM299 469q0 -83 16.5 -156t49.5 -133.5t90.5 -95.5t132.5 -35q105 0 193 62t143.5 161 t86.5 216.5t31 234.5q0 84 -16 158t-49 135t-89.5 97t-131.5 36q-84 0 -158.5 -41t-128 -110t-93 -157t-58.5 -183.5t-19 -188.5zM758 1270l207 332h217l-371 -332h-53z" />
<glyph unicode="&#xd4;" horiz-adv-x="1318" d="M94 479q0 150 56 287.5t149 236t218 157.5t259 59q217 0 345 -142.5t128 -359.5q0 -149 -56.5 -286t-150 -235.5t-218.5 -157t-257 -58.5q-147 0 -255.5 66.5t-163 178.5t-54.5 254zM299 469q0 -83 16.5 -156t49.5 -133.5t90.5 -95.5t132.5 -35q105 0 193 62t143.5 161 t86.5 216.5t31 234.5q0 84 -16 158t-49 135t-89.5 97t-131.5 36q-84 0 -158.5 -41t-128 -110t-93 -157t-58.5 -183.5t-19 -188.5zM541 1270l247 332h103l137 -332h-53l-162 178l-219 -178h-53z" />
<glyph unicode="&#xd5;" horiz-adv-x="1318" d="M94 479q0 150 56 287.5t149 236t218 157.5t259 59q217 0 345 -142.5t128 -359.5q0 -149 -56.5 -286t-150 -235.5t-218.5 -157t-257 -58.5q-147 0 -255.5 66.5t-163 178.5t-54.5 254zM299 469q0 -83 16.5 -156t49.5 -133.5t90.5 -95.5t132.5 -35q105 0 193 62t143.5 161 t86.5 216.5t31 234.5q0 84 -16 158t-49 135t-89.5 97t-131.5 36q-84 0 -158.5 -41t-128 -110t-93 -157t-58.5 -183.5t-19 -188.5zM479 1270q11 69 31.5 116.5t48 71t54 32.5t59.5 9q45 0 159 -60.5t142 -60.5q58 0 84.5 30t36.5 91h39q-11 -69 -32 -116.5t-48.5 -71 t-54.5 -32.5t-60 -9q-45 0 -157 60.5t-140 60.5q-58 0 -85.5 -30t-37.5 -91h-39z" />
<glyph unicode="&#xd6;" horiz-adv-x="1318" d="M94 479q0 150 56 287.5t149 236t218 157.5t259 59q217 0 345 -142.5t128 -359.5q0 -149 -56.5 -286t-150 -235.5t-218.5 -157t-257 -58.5q-147 0 -255.5 66.5t-163 178.5t-54.5 254zM299 469q0 -83 16.5 -156t49.5 -133.5t90.5 -95.5t132.5 -35q105 0 193 62t143.5 161 t86.5 216.5t31 234.5q0 84 -16 158t-49 135t-89.5 97t-131.5 36q-84 0 -158.5 -41t-128 -110t-93 -157t-58.5 -183.5t-19 -188.5zM510 1354q0 48 36.5 82t82.5 34q37 0 61.5 -24.5t24.5 -59.5q0 -48 -36.5 -82t-82.5 -34q-37 0 -61.5 24.5t-24.5 59.5zM887 1354 q0 48 36.5 82t82.5 34q37 0 61.5 -24.5t24.5 -59.5q0 -48 -36.5 -82t-82.5 -34q-37 0 -61.5 24.5t-24.5 59.5z" />
<glyph unicode="&#xd7;" horiz-adv-x="860" d="M80 389l305 262l-217 262l74 64l217 -262l307 262l53 -64l-307 -262l219 -262l-74 -63l-219 262l-305 -262z" />
<glyph unicode="&#xd8;" horiz-adv-x="1318" d="M94 479q0 150 56 287.5t149 236t218 157.5t259 59q130 0 232 -54l55 88l59 -36l-55 -91q88 -67 135 -173.5t47 -235.5q0 -149 -56.5 -286t-150 -235.5t-218.5 -157t-257 -58.5q-114 0 -196 36l-45 -73l-60 37l43 67q-103 64 -159 177.5t-56 254.5zM299 469 q0 -195 80 -311l565 905q-73 86 -188 86q-84 0 -158.5 -41t-128 -110t-93 -157t-58.5 -183.5t-19 -188.5zM426 104q64 -55 162 -55q105 0 193 62t143.5 161t86.5 216.5t31 234.5q0 166 -55 276z" />
<glyph unicode="&#xd9;" horiz-adv-x="1267" d="M154 1155l8 43h446l-8 -43q-63 0 -93 -9.5t-42 -31.5l-107 -635q-10 -72 -10 -119q0 -149 70.5 -230t191.5 -81q89 0 171 50t142 146.5t81 221.5l108 647q-6 22 -33 31.5t-90 9.5l8 43h328l-8 -43q-63 0 -93 -9.5t-42 -31.5l-101 -606q-23 -137 -74 -241t-119.5 -165 t-146.5 -91.5t-163 -30.5q-416 0 -416 380q0 55 14 148l100 606q-6 22 -32.5 31.5t-89.5 9.5zM551 1602h217l96 -332h-53z" />
<glyph unicode="&#xda;" horiz-adv-x="1267" d="M154 1155l8 43h446l-8 -43q-63 0 -93 -9.5t-42 -31.5l-107 -635q-10 -72 -10 -119q0 -149 70.5 -230t191.5 -81q89 0 171 50t142 146.5t81 221.5l108 647q-6 22 -33 31.5t-90 9.5l8 43h328l-8 -43q-63 0 -93 -9.5t-42 -31.5l-101 -606q-23 -137 -74 -241t-119.5 -165 t-146.5 -91.5t-163 -30.5q-416 0 -416 380q0 55 14 148l100 606q-6 22 -32.5 31.5t-89.5 9.5zM784 1270l207 332h217l-370 -332h-54z" />
<glyph unicode="&#xdb;" horiz-adv-x="1267" d="M154 1155l8 43h446l-8 -43q-63 0 -93 -9.5t-42 -31.5l-107 -635q-10 -72 -10 -119q0 -149 70.5 -230t191.5 -81q89 0 171 50t142 146.5t81 221.5l108 647q-6 22 -33 31.5t-90 9.5l8 43h328l-8 -43q-63 0 -93 -9.5t-42 -31.5l-101 -606q-23 -137 -74 -241t-119.5 -165 t-146.5 -91.5t-163 -30.5q-416 0 -416 380q0 55 14 148l100 606q-6 22 -32.5 31.5t-89.5 9.5zM567 1270l248 332h103l137 -332h-54l-161 178l-219 -178h-54z" />
<glyph unicode="&#xdc;" horiz-adv-x="1267" d="M154 1155l8 43h446l-8 -43q-63 0 -93 -9.5t-42 -31.5l-107 -635q-10 -72 -10 -119q0 -149 70.5 -230t191.5 -81q89 0 171 50t142 146.5t81 221.5l108 647q-6 22 -33 31.5t-90 9.5l8 43h328l-8 -43q-63 0 -93 -9.5t-42 -31.5l-101 -606q-23 -137 -74 -241t-119.5 -165 t-146.5 -91.5t-163 -30.5q-416 0 -416 380q0 55 14 148l100 606q-6 22 -32.5 31.5t-89.5 9.5zM537 1354q0 48 36 82t82 34q37 0 61.5 -24.5t24.5 -59.5q0 -48 -36 -82t-82 -34q-37 0 -61.5 24.5t-24.5 59.5zM913 1354q0 48 36.5 82t82.5 34q37 0 61.5 -24.5t24.5 -59.5 q0 -48 -36.5 -82t-82.5 -34q-37 0 -61.5 24.5t-24.5 59.5z" />
<glyph unicode="&#xdd;" horiz-adv-x="1148" d="M82 1155l8 43h449l-9 -43q-94 0 -122 -25l225 -555l418 543q-15 37 -121 37l8 43h336l-8 -43q-87 0 -121 -27l-471 -612l-72 -432q6 -22 33 -31.5t90 -9.5l-8 -43h-447l9 43q63 0 93 9.5t42 31.5l61 367l-268 663q-21 41 -125 41zM725 1270l207 332h217l-371 -332h-53z " />
<glyph unicode="&#xde;" horiz-adv-x="1077" d="M4 0l8 43q63 0 93 9.5t42 31.5l172 1030q-6 22 -32.5 31.5t-89.5 9.5l8 43h446l-8 -43q-63 0 -93 -9.5t-42 -31.5l-29 -172h107q237 0 352 -74.5t115 -193.5q0 -175 -147 -280t-404 -105h-131l-35 -205q6 -22 33 -31.5t90 -9.5l-8 -43h-447zM381 358h131q170 0 254 82.5 t84 253.5q0 88 -63 133t-214 45h-106z" />
<glyph unicode="&#xdf;" horiz-adv-x="1026" d="M-123 -287l6 47q57 0 101 46t57 124l174 1041q12 69 39 125t62.5 91.5t78.5 59t85.5 33.5t86.5 10q164 0 234.5 -51t70.5 -149q0 -118 -70.5 -211.5t-183.5 -143.5q136 -25 230 -116.5t94 -196.5q0 -96 -34.5 -180t-91.5 -140.5t-129.5 -89t-147.5 -32.5q-62 0 -107.5 18 t-67.5 45t-32 51.5t-10 44.5q0 61 25.5 90t66.5 29q18 0 26.5 -16t8.5 -40t3 -52.5t8 -52.5t24.5 -40t52.5 -16q32 0 71.5 27.5t74.5 73.5t59 113.5t24 139.5q0 120 -81.5 215t-199.5 95q-16 0 -24 6t-6 14q3 20 39 29q68 24 139.5 119t71.5 186q0 65 -27.5 117.5 t-91.5 52.5q-55 0 -108 -60.5t-72 -169.5l-183 -1089q-18 -105 -102.5 -151t-243.5 -46z" />
<glyph unicode="&#xe0;" horiz-adv-x="987" d="M12 170q0 54 21.5 97t62 73.5t87 53t110.5 40t117.5 29.5t121.5 26.5t111 26.5q14 100 14 150q0 89 -44.5 135.5t-118.5 46.5q-89 0 -145.5 -21t-80.5 -77q25 0 42.5 -15t17.5 -47q0 -46 -31 -70t-74 -24q-34 0 -53.5 21.5t-19.5 56.5q0 119 105 184.5t271 65.5 q164 0 242 -72.5t78 -194.5q0 -23 -8 -77l-60 -361q-4 -32 -4 -45q0 -59 28.5 -92t76.5 -33l-9 -47q-201 0 -260 76q-145 -96 -327 -96q-128 0 -199.5 42.5t-71.5 147.5zM203 166q0 -63 37 -90t90 -27q62 0 135 19.5t125 50.5q-4 20 -4 35t4 43l45 274q-25 -8 -68.5 -19 t-74 -19t-71 -22t-69 -27.5t-58.5 -35t-48.5 -46.5t-30.5 -60t-12 -76zM285 1386h217l96 -331h-53z" />
<glyph unicode="&#xe1;" horiz-adv-x="987" d="M12 170q0 54 21.5 97t62 73.5t87 53t110.5 40t117.5 29.5t121.5 26.5t111 26.5q14 100 14 150q0 89 -44.5 135.5t-118.5 46.5q-89 0 -145.5 -21t-80.5 -77q25 0 42.5 -15t17.5 -47q0 -46 -31 -70t-74 -24q-34 0 -53.5 21.5t-19.5 56.5q0 119 105 184.5t271 65.5 q164 0 242 -72.5t78 -194.5q0 -23 -8 -77l-60 -361q-4 -32 -4 -45q0 -59 28.5 -92t76.5 -33l-9 -47q-201 0 -260 76q-145 -96 -327 -96q-128 0 -199.5 42.5t-71.5 147.5zM203 166q0 -63 37 -90t90 -27q62 0 135 19.5t125 50.5q-4 20 -4 35t4 43l45 274q-25 -8 -68.5 -19 t-74 -19t-71 -22t-69 -27.5t-58.5 -35t-48.5 -46.5t-30.5 -60t-12 -76zM518 1055l207 331h217l-371 -331h-53z" />
<glyph unicode="&#xe2;" horiz-adv-x="987" d="M12 170q0 54 21.5 97t62 73.5t87 53t110.5 40t117.5 29.5t121.5 26.5t111 26.5q14 100 14 150q0 89 -44.5 135.5t-118.5 46.5q-89 0 -145.5 -21t-80.5 -77q25 0 42.5 -15t17.5 -47q0 -46 -31 -70t-74 -24q-34 0 -53.5 21.5t-19.5 56.5q0 119 105 184.5t271 65.5 q164 0 242 -72.5t78 -194.5q0 -23 -8 -77l-60 -361q-4 -32 -4 -45q0 -59 28.5 -92t76.5 -33l-9 -47q-201 0 -260 76q-145 -96 -327 -96q-128 0 -199.5 42.5t-71.5 147.5zM203 166q0 -63 37 -90t90 -27q62 0 135 19.5t125 50.5q-4 20 -4 35t4 43l45 274q-25 -8 -68.5 -19 t-74 -19t-71 -22t-69 -27.5t-58.5 -35t-48.5 -46.5t-30.5 -60t-12 -76zM301 1055l248 331h102l137 -331h-53l-162 178l-219 -178h-53z" />
<glyph unicode="&#xe3;" horiz-adv-x="987" d="M12 170q0 54 21.5 97t62 73.5t87 53t110.5 40t117.5 29.5t121.5 26.5t111 26.5q14 100 14 150q0 89 -44.5 135.5t-118.5 46.5q-89 0 -145.5 -21t-80.5 -77q25 0 42.5 -15t17.5 -47q0 -46 -31 -70t-74 -24q-34 0 -53.5 21.5t-19.5 56.5q0 119 105 184.5t271 65.5 q164 0 242 -72.5t78 -194.5q0 -23 -8 -77l-60 -361q-4 -32 -4 -45q0 -59 28.5 -92t76.5 -33l-9 -47q-201 0 -260 76q-145 -96 -327 -96q-128 0 -199.5 42.5t-71.5 147.5zM203 166q0 -63 37 -90t90 -27q62 0 135 19.5t125 50.5q-4 20 -4 35t4 43l45 274q-25 -8 -68.5 -19 t-74 -19t-71 -22t-69 -27.5t-58.5 -35t-48.5 -46.5t-30.5 -60t-12 -76zM240 1055q11 69 31.5 116.5t47.5 71t53.5 32.5t59.5 9q45 0 159 -60.5t142 -60.5q58 0 84.5 30t36.5 91h39q-11 -69 -32 -116.5t-48.5 -71t-54.5 -32.5t-60 -9q-45 0 -157 60.5t-140 60.5 q-58 0 -85 -30t-37 -91h-39z" />
<glyph unicode="&#xe4;" horiz-adv-x="987" d="M12 170q0 54 21.5 97t62 73.5t87 53t110.5 40t117.5 29.5t121.5 26.5t111 26.5q14 100 14 150q0 89 -44.5 135.5t-118.5 46.5q-89 0 -145.5 -21t-80.5 -77q25 0 42.5 -15t17.5 -47q0 -46 -31 -70t-74 -24q-34 0 -53.5 21.5t-19.5 56.5q0 119 105 184.5t271 65.5 q164 0 242 -72.5t78 -194.5q0 -23 -8 -77l-60 -361q-4 -32 -4 -45q0 -59 28.5 -92t76.5 -33l-9 -47q-201 0 -260 76q-145 -96 -327 -96q-128 0 -199.5 42.5t-71.5 147.5zM203 166q0 -63 37 -90t90 -27q62 0 135 19.5t125 50.5q-4 20 -4 35t4 43l45 274q-25 -8 -68.5 -19 t-74 -19t-71 -22t-69 -27.5t-58.5 -35t-48.5 -46.5t-30.5 -60t-12 -76zM270 1139q0 48 36.5 82t82.5 34q37 0 61.5 -24.5t24.5 -59.5q0 -48 -36.5 -82t-82.5 -34q-37 0 -61.5 24.5t-24.5 59.5zM647 1139q0 48 36.5 82t82.5 34q37 0 61.5 -24.5t24.5 -59.5q0 -48 -36.5 -82 t-82.5 -34q-37 0 -61.5 24.5t-24.5 59.5z" />
<glyph unicode="&#xe5;" horiz-adv-x="987" d="M12 170q0 54 21.5 97t62 73.5t87 53t110.5 40t117.5 29.5t121.5 26.5t111 26.5q14 100 14 150q0 89 -44.5 135.5t-118.5 46.5q-89 0 -145.5 -21t-80.5 -77q25 0 42.5 -15t17.5 -47q0 -46 -31 -70t-74 -24q-34 0 -53.5 21.5t-19.5 56.5q0 119 105 184.5t271 65.5 q164 0 242 -72.5t78 -194.5q0 -23 -8 -77l-60 -361q-4 -32 -4 -45q0 -59 28.5 -92t76.5 -33l-9 -47q-201 0 -260 76q-145 -96 -327 -96q-128 0 -199.5 42.5t-71.5 147.5zM203 166q0 -63 37 -90t90 -27q62 0 135 19.5t125 50.5q-4 20 -4 35t4 43l45 274q-25 -8 -68.5 -19 t-74 -19t-71 -22t-69 -27.5t-58.5 -35t-48.5 -46.5t-30.5 -60t-12 -76zM414 1169q0 76 54.5 127.5t125.5 51.5q56 0 91.5 -35t35.5 -90q0 -76 -53.5 -127.5t-124.5 -51.5q-57 0 -93 35.5t-36 89.5zM471 1180q0 -34 22.5 -57t57.5 -23q43 0 79 33t36 79q0 34 -23.5 57 t-58.5 23q-43 0 -78 -33t-35 -79z" />
<glyph unicode="&#xe6;" horiz-adv-x="1562" d="M12 170q0 54 21 97t61.5 73t87 52.5t110 39.5t117 29t121.5 26.5t111 26.5q16 72 16 152q0 94 -37.5 138t-125.5 44q-89 0 -145.5 -21t-80.5 -77q25 0 42.5 -15.5t17.5 -48.5q0 -46 -32 -69t-75 -23q-33 0 -52 21t-19 57q0 120 104.5 185t271.5 65q205 0 279 -115 q131 115 325 115q99 0 174.5 -26t116.5 -68t60.5 -88t19.5 -93q0 -25 -4.5 -42t-20.5 -37.5t-45 -35t-81.5 -29t-126.5 -24.5l-396 -53q0 -154 71.5 -261.5t178.5 -107.5q92 0 165 31t144 105l46 -25q-75 -97 -178.5 -142.5t-260.5 -45.5q-88 0 -167.5 31.5t-131.5 101.5 q-128 -133 -411 -133q-128 0 -199.5 42.5t-71.5 147.5zM201 168q0 -65 33 -92t96 -27q112 0 201 29t139 72q-45 82 -45 208q0 64 8 113q-48 -8 -80 -15t-81.5 -20t-83 -27.5t-72 -38t-61.5 -51t-38.5 -66.5t-15.5 -85zM831 489l306 41q87 13 133.5 46.5t46.5 99.5 q0 30 -10 59.5t-31.5 59t-64 47.5t-99.5 18q-83 0 -169 -105t-112 -266z" />
<glyph unicode="&#xe7;" horiz-adv-x="980" d="M66 360q0 160 64.5 287.5t188.5 202t287 74.5q148 0 226.5 -46t78.5 -135q0 -61 -29.5 -100t-78.5 -39q-33 0 -56.5 15t-23.5 45q0 47 28.5 71.5t57.5 24.5q-8 102 -193 102q-142 0 -246 -126t-104 -320q0 -148 73 -252.5t179 -104.5q92 0 165 31t144 105l45 -25 q-69 -89 -161 -135t-226 -53l-41 -95q24 0 53 -6t59.5 -19t50.5 -37t20 -56q0 -74 -61 -125.5t-191 -51.5q-65 0 -150 15l6 35q36 -4 50 -4v4q87 0 126 32.5t39 81.5q0 72 -110 72l70 156q-65 3 -121.5 23t-107.5 61t-81 116t-30 176z" />
<glyph unicode="&#xe8;" horiz-adv-x="1003" d="M66 358q0 159 58 285.5t174 202.5t273 76q99 0 174.5 -26t116.5 -68t60.5 -88t19.5 -93q0 -25 -4.5 -42t-20.5 -37.5t-45 -35t-81.5 -29t-126.5 -24.5l-396 -53q0 -154 71.5 -261.5t178.5 -107.5q92 0 165 31t144 105l45 -25q-75 -97 -178 -142.5t-260 -45.5 q-53 0 -102 10t-99 37t-86 68.5t-58.5 109t-22.5 153.5zM272 489l306 41q87 13 133.5 46.5t46.5 99.5q0 30 -10 59.5t-31.5 59t-64 47.5t-99.5 18q-83 0 -169 -105t-112 -266zM334 1386h217l96 -331h-53z" />
<glyph unicode="&#xe9;" horiz-adv-x="1003" d="M66 358q0 159 58 285.5t174 202.5t273 76q99 0 174.5 -26t116.5 -68t60.5 -88t19.5 -93q0 -25 -4.5 -42t-20.5 -37.5t-45 -35t-81.5 -29t-126.5 -24.5l-396 -53q0 -154 71.5 -261.5t178.5 -107.5q92 0 165 31t144 105l45 -25q-75 -97 -178 -142.5t-260 -45.5 q-53 0 -102 10t-99 37t-86 68.5t-58.5 109t-22.5 153.5zM272 489l306 41q87 13 133.5 46.5t46.5 99.5q0 30 -10 59.5t-31.5 59t-64 47.5t-99.5 18q-83 0 -169 -105t-112 -266zM567 1055l207 331h217l-370 -331h-54z" />
<glyph unicode="&#xea;" horiz-adv-x="1003" d="M66 358q0 159 58 285.5t174 202.5t273 76q99 0 174.5 -26t116.5 -68t60.5 -88t19.5 -93q0 -25 -4.5 -42t-20.5 -37.5t-45 -35t-81.5 -29t-126.5 -24.5l-396 -53q0 -154 71.5 -261.5t178.5 -107.5q92 0 165 31t144 105l45 -25q-75 -97 -178 -142.5t-260 -45.5 q-53 0 -102 10t-99 37t-86 68.5t-58.5 109t-22.5 153.5zM272 489l306 41q87 13 133.5 46.5t46.5 99.5q0 30 -10 59.5t-31.5 59t-64 47.5t-99.5 18q-83 0 -169 -105t-112 -266zM350 1055l248 331h102l138 -331h-54l-161 178l-220 -178h-53z" />
<glyph unicode="&#xeb;" horiz-adv-x="1003" d="M66 358q0 159 58 285.5t174 202.5t273 76q99 0 174.5 -26t116.5 -68t60.5 -88t19.5 -93q0 -25 -4.5 -42t-20.5 -37.5t-45 -35t-81.5 -29t-126.5 -24.5l-396 -53q0 -154 71.5 -261.5t178.5 -107.5q92 0 165 31t144 105l45 -25q-75 -97 -178 -142.5t-260 -45.5 q-53 0 -102 10t-99 37t-86 68.5t-58.5 109t-22.5 153.5zM272 489l306 41q87 13 133.5 46.5t46.5 99.5q0 30 -10 59.5t-31.5 59t-64 47.5t-99.5 18q-83 0 -169 -105t-112 -266zM317 1139q0 48 36.5 82t82.5 34q37 0 61.5 -24.5t24.5 -59.5q0 -48 -36.5 -82t-82.5 -34 q-37 0 -61.5 24.5t-24.5 59.5zM694 1139q0 48 36.5 82t82.5 34q37 0 61.5 -24.5t24.5 -59.5q0 -48 -36.5 -82t-82.5 -34q-37 0 -61.5 24.5t-24.5 59.5z" />
<glyph unicode="&#xec;" horiz-adv-x="497" d="M88 0l129 776q-18 1 -46.5 4t-47.5 4.5t-33 1.5l8 48q38 0 159 44t169 44l-154 -922h-184zM94 1386h217l97 -331h-54z" />
<glyph unicode="&#xed;" horiz-adv-x="497" d="M88 0l129 776q-18 1 -46.5 4t-47.5 4.5t-33 1.5l8 48q38 0 159 44t169 44l-154 -922h-184zM328 1055l207 331h217l-371 -331h-53z" />
<glyph unicode="&#xee;" horiz-adv-x="497" d="M88 0l129 776q-18 1 -46.5 4t-47.5 4.5t-33 1.5l8 48q38 0 159 44t169 44l-154 -922h-184zM111 1055l247 331h103l137 -331h-53l-162 178l-219 -178h-53z" />
<glyph unicode="&#xef;" horiz-adv-x="497" d="M80 1139q0 48 36.5 82t82.5 34q37 0 61.5 -24.5t24.5 -59.5q0 -48 -36.5 -82t-82.5 -34q-37 0 -61.5 24.5t-24.5 59.5zM88 0l129 776q-18 1 -46.5 4t-47.5 4.5t-33 1.5l8 48q38 0 159 44t169 44l-154 -922h-184zM457 1139q0 48 36 82t82 34q37 0 62 -24.5t25 -59.5 q0 -48 -36.5 -82t-82.5 -34q-37 0 -61.5 24.5t-24.5 59.5z" />
<glyph unicode="&#xf0;" horiz-adv-x="1087" d="M66 350q0 96 20 180.5t62.5 157t105 124t152 81t198.5 29.5q70 0 133 -13q-45 99 -114 181l-189 -99l-24 60l168 88q-35 35 -71 63.5t-55 39.5l-18 11l29 37q90 -34 196 -108l197 104l25 -59l-164 -88q282 -229 282 -564q0 -100 -19.5 -187.5t-61.5 -163t-104 -129.5 t-152 -84.5t-201 -30.5q-196 0 -295.5 98.5t-99.5 271.5zM264 344q0 -153 62 -228t172 -75q95 0 166 81t104 200.5t33 255.5q0 145 -59.5 212.5t-182.5 67.5q-93 0 -162 -79.5t-101 -194t-32 -240.5z" />
<glyph unicode="&#xf1;" horiz-adv-x="1126" d="M88 0l129 776q-18 1 -46.5 4t-47.5 4.5t-33 1.5l8 48q38 0 159 44t169 44l-25 -150q124 152 326 152q262 0 262 -217q0 -35 -6 -76l-70 -414q-4 -32 -4 -45q0 -59 28.5 -92t76.5 -33l-8 -47q-144 0 -214.5 36.5t-70.5 119.5q0 13 4 41l76 448q4 20 4 60q0 147 -158 147 q-81 0 -148.5 -57.5t-115.5 -137.5l-111 -657h-184zM350 1047q11 69 31.5 116.5t48 71t54 32.5t59.5 9q45 0 159 -60.5t142 -60.5q58 0 84.5 30t36.5 91h39q-11 -69 -32 -116.5t-48.5 -71t-54.5 -32.5t-60 -9q-45 0 -157 60t-140 60q-59 0 -86 -29.5t-37 -90.5h-39z" />
<glyph unicode="&#xf2;" horiz-adv-x="1120" d="M66 360q0 119 35.5 220t104 178t175.5 120.5t242 43.5q207 0 310 -96.5t103 -268.5q0 -120 -35.5 -224t-103.5 -183t-175.5 -124.5t-242.5 -45.5q-200 0 -306.5 102t-106.5 278zM264 360q0 -161 66.5 -240t185.5 -79q96 0 171 74.5t113 191.5t38 252q0 299 -260 299 q-93 0 -166.5 -74.5t-110.5 -186.5t-37 -237zM393 1386h217l97 -331h-54z" />
<glyph unicode="&#xf3;" horiz-adv-x="1120" d="M66 360q0 119 35.5 220t104 178t175.5 120.5t242 43.5q207 0 310 -96.5t103 -268.5q0 -120 -35.5 -224t-103.5 -183t-175.5 -124.5t-242.5 -45.5q-200 0 -306.5 102t-106.5 278zM264 360q0 -161 66.5 -240t185.5 -79q96 0 171 74.5t113 191.5t38 252q0 299 -260 299 q-93 0 -166.5 -74.5t-110.5 -186.5t-37 -237zM627 1055l207 331h217l-371 -331h-53z" />
<glyph unicode="&#xf4;" horiz-adv-x="1120" d="M66 360q0 119 35.5 220t104 178t175.5 120.5t242 43.5q207 0 310 -96.5t103 -268.5q0 -120 -35.5 -224t-103.5 -183t-175.5 -124.5t-242.5 -45.5q-200 0 -306.5 102t-106.5 278zM264 360q0 -161 66.5 -240t185.5 -79q96 0 171 74.5t113 191.5t38 252q0 299 -260 299 q-93 0 -166.5 -74.5t-110.5 -186.5t-37 -237zM410 1055l247 331h103l137 -331h-53l-162 178l-219 -178h-53z" />
<glyph unicode="&#xf5;" horiz-adv-x="1120" d="M66 360q0 119 35.5 220t104 178t175.5 120.5t242 43.5q207 0 310 -96.5t103 -268.5q0 -120 -35.5 -224t-103.5 -183t-175.5 -124.5t-242.5 -45.5q-200 0 -306.5 102t-106.5 278zM264 360q0 -161 66.5 -240t185.5 -79q96 0 171 74.5t113 191.5t38 252q0 299 -260 299 q-93 0 -166.5 -74.5t-110.5 -186.5t-37 -237zM348 1055q11 69 31.5 116.5t48 71t54 32.5t59.5 9q45 0 159 -60.5t142 -60.5q58 0 84.5 30t36.5 91h38q-11 -69 -31.5 -116.5t-48.5 -71t-54.5 -32.5t-59.5 -9q-45 0 -157 60.5t-140 60.5q-58 0 -85.5 -30t-37.5 -91h-39z" />
<glyph unicode="&#xf6;" horiz-adv-x="1120" d="M66 360q0 119 35.5 220t104 178t175.5 120.5t242 43.5q207 0 310 -96.5t103 -268.5q0 -120 -35.5 -224t-103.5 -183t-175.5 -124.5t-242.5 -45.5q-200 0 -306.5 102t-106.5 278zM264 360q0 -161 66.5 -240t185.5 -79q96 0 171 74.5t113 191.5t38 252q0 299 -260 299 q-93 0 -166.5 -74.5t-110.5 -186.5t-37 -237zM379 1139q0 48 36.5 82t82.5 34q37 0 61.5 -24.5t24.5 -59.5q0 -48 -36.5 -82t-82.5 -34q-37 0 -61.5 24.5t-24.5 59.5zM756 1139q0 48 36 82t82 34q37 0 62 -24.5t25 -59.5q0 -48 -36.5 -82t-82.5 -34q-37 0 -61.5 24.5 t-24.5 59.5z" />
<glyph unicode="&#xf7;" horiz-adv-x="985" d="M102 606l15 90h807l-15 -90h-807zM346 346q0 53 41 96t96 43q40 0 70.5 -29.5t30.5 -70.5q0 -52 -43 -96.5t-97 -44.5q-39 0 -68.5 30.5t-29.5 71.5zM442 920q0 53 41.5 96t96.5 43q40 0 70 -30t30 -71q0 -52 -42.5 -96.5t-96.5 -44.5q-39 0 -69 31t-30 72z" />
<glyph unicode="&#xf8;" horiz-adv-x="1120" d="M66 360q0 119 35.5 220t104 178t175.5 120.5t242 43.5q111 0 202 -33l60 84l55 -41l-51 -74q147 -90 147 -301q0 -120 -35.5 -224t-103.5 -183t-175.5 -124.5t-242.5 -45.5q-102 0 -184 28l-57 -80l-56 41l49 70q-81 47 -123 130t-42 191zM264 360q0 -129 45 -208 l453 645q-61 61 -184 61q-93 0 -166.5 -74.5t-110.5 -186.5t-37 -237zM354 96q61 -55 162 -55q96 0 171 74.5t113 191.5t38 252q0 110 -35 178z" />
<glyph unicode="&#xf9;" horiz-adv-x="1128" d="M92 858l8 43h314l-109 -645q-6 -30 -6 -59q0 -148 160 -148q138 0 254 129l121 723h184l-115 -684q-4 -32 -4 -45q0 -59 28.5 -92t76.5 -33l-9 -47q-127 0 -196 29t-84 92q-141 -141 -281 -141q-166 0 -241.5 53t-75.5 164q0 33 6 73l92 547q-6 22 -33 31.5t-90 9.5z M385 1386h217l96 -331h-53z" />
<glyph unicode="&#xfa;" horiz-adv-x="1128" d="M92 858l8 43h314l-109 -645q-6 -30 -6 -59q0 -148 160 -148q138 0 254 129l121 723h184l-115 -684q-4 -32 -4 -45q0 -59 28.5 -92t76.5 -33l-9 -47q-127 0 -196 29t-84 92q-141 -141 -281 -141q-166 0 -241.5 53t-75.5 164q0 33 6 73l92 547q-6 22 -33 31.5t-90 9.5z M618 1055l207 331h217l-370 -331h-54z" />
<glyph unicode="&#xfb;" horiz-adv-x="1128" d="M92 858l8 43h314l-109 -645q-6 -30 -6 -59q0 -148 160 -148q138 0 254 129l121 723h184l-115 -684q-4 -32 -4 -45q0 -59 28.5 -92t76.5 -33l-9 -47q-127 0 -196 29t-84 92q-141 -141 -281 -141q-166 0 -241.5 53t-75.5 164q0 33 6 73l92 547q-6 22 -33 31.5t-90 9.5z M401 1055l248 331h103l137 -331h-53l-162 178l-219 -178h-54z" />
<glyph unicode="&#xfc;" horiz-adv-x="1128" d="M92 858l8 43h314l-109 -645q-6 -30 -6 -59q0 -148 160 -148q138 0 254 129l121 723h184l-115 -684q-4 -32 -4 -45q0 -59 28.5 -92t76.5 -33l-9 -47q-127 0 -196 29t-84 92q-141 -141 -281 -141q-166 0 -241.5 53t-75.5 164q0 33 6 73l92 547q-6 22 -33 31.5t-90 9.5z M371 1139q0 48 36 82t82 34q37 0 61.5 -24.5t24.5 -59.5q0 -48 -36 -82t-82 -34q-37 0 -61.5 24.5t-24.5 59.5zM748 1139q0 48 36 82t82 34q37 0 61.5 -24.5t24.5 -59.5q0 -48 -36 -82t-82 -34q-37 0 -61.5 24.5t-24.5 59.5z" />
<glyph unicode="&#xfd;" horiz-adv-x="911" d="M-8 -313q0 33 24.5 61.5t55.5 28.5q17 0 37 -17.5t34 -17.5q45 0 64 37l125 221l-189 817q-6 22 -33 31.5t-90 9.5l9 43h290l154 -651l332 586q-25 22 -111 22l8 43h242l-631 -1110q-55 -94 -120 -131t-123 -37q-29 0 -53.5 18t-24.5 46zM569 1055l207 331h217l-370 -331 h-54z" />
<glyph unicode="&#xfe;" horiz-adv-x="1071" d="M-141 -393l6 43q64 0 94.5 9.5t42.5 31.5l242 1454q-122 10 -127 10l8 47q39 0 159.5 44t168.5 44l-95 -561q148 193 365 193q76 0 131 -22.5t85.5 -62.5t44 -87t13.5 -105q0 -137 -39.5 -249t-109.5 -189t-166.5 -130t-209 -77.5t-239.5 -24.5l-47 -284q6 -22 32 -31.5 t89 -9.5l-6 -43h-442zM244 35q91 1 171.5 23t151.5 69t122 115.5t80.5 169.5t29.5 225q0 101 -28.5 158t-78.5 57q-60 0 -116.5 -24t-101 -64.5t-78 -85t-60.5 -94.5z" />
<glyph unicode="&#xff;" horiz-adv-x="911" d="M-8 -313q0 33 24.5 61.5t55.5 28.5q17 0 37 -17.5t34 -17.5q45 0 64 37l125 221l-189 817q-6 22 -33 31.5t-90 9.5l9 43h290l154 -651l332 586q-25 22 -111 22l8 43h242l-631 -1110q-55 -94 -120 -131t-123 -37q-29 0 -53.5 18t-24.5 46zM322 1139q0 48 36 82t82 34 q37 0 61.5 -24.5t24.5 -59.5q0 -48 -36 -82t-82 -34q-37 0 -61.5 24.5t-24.5 59.5zM698 1139q0 48 36.5 82t82.5 34q37 0 61.5 -24.5t24.5 -59.5q0 -48 -36.5 -82t-82.5 -34q-37 0 -61.5 24.5t-24.5 59.5z" />
<glyph unicode="&#x152;" horiz-adv-x="1677" d="M94 479q0 150 56 287.5t149 236t218 157.5t259 59q81 0 148 -21h743l-33 -199h-43q6 43 6 70q0 47 -26 59h-424l-78 -471h287q24 9 37.5 37t23.5 92h43l-55 -327h-43q8 58 8 69q0 48 -27 60h-286l-86 -518h467q52 20 112 129h41l-82 -199h-788q-70 -20 -154 -20 q-147 0 -255.5 66.5t-163 178.5t-54.5 254zM299 469q0 -83 16.5 -156t49.5 -133.5t90.5 -95.5t132.5 -35q109 0 203 72l157 938q-74 90 -192 90q-84 0 -158.5 -41t-128 -110t-93 -157t-58.5 -183.5t-19 -188.5z" />
<glyph unicode="&#x153;" horiz-adv-x="1765" d="M66 360q0 119 35.5 220t104 178t175.5 120.5t242 43.5q254 0 354 -146q140 146 356 146q99 0 174.5 -26t116.5 -68t60.5 -88t19.5 -93q0 -31 -8.5 -52.5t-35 -44.5t-85 -40.5t-150.5 -30.5l-395 -53q0 -154 71.5 -261.5t178.5 -107.5q92 0 165 31t144 105l45 -25 q-75 -97 -178 -142.5t-260 -45.5q-96 0 -179.5 36t-133.5 117q-147 -153 -404 -153q-200 0 -306.5 102t-106.5 278zM264 360q0 -161 66.5 -240t185.5 -79q96 0 171 74.5t113 191.5t38 252q0 299 -260 299q-93 0 -166.5 -74.5t-110.5 -186.5t-37 -237zM1034 489l305 41 q87 13 134 46.5t47 99.5q0 30 -10 59.5t-31.5 59t-64 47.5t-99.5 18q-83 0 -169 -105t-112 -266z" />
<glyph unicode="&#x178;" horiz-adv-x="1148" d="M82 1155l8 43h449l-9 -43q-94 0 -122 -25l225 -555l418 543q-15 37 -121 37l8 43h336l-8 -43q-87 0 -121 -27l-471 -612l-72 -432q6 -22 33 -31.5t90 -9.5l-8 -43h-447l9 43q63 0 93 9.5t42 31.5l61 367l-268 663q-21 41 -125 41zM477 1354q0 48 36.5 82t82.5 34 q37 0 61.5 -24.5t24.5 -59.5q0 -48 -36.5 -82t-82.5 -34q-37 0 -61.5 24.5t-24.5 59.5zM854 1354q0 48 36.5 82t82.5 34q37 0 61.5 -24.5t24.5 -59.5q0 -48 -36.5 -82t-82.5 -34q-37 0 -61.5 24.5t-24.5 59.5z" />
<glyph unicode="&#x2c6;" horiz-adv-x="733" d="M295 1024l248 332h102l137 -332h-53l-162 178l-219 -178h-53z" />
<glyph unicode="&#x2dc;" horiz-adv-x="862" d="M295 1024q11 69 31.5 116.5t47.5 71t53.5 32.5t59.5 9q45 0 159 -60t142 -60q58 0 84.5 29.5t36.5 90.5h39q-11 -69 -31.5 -116.5t-48.5 -71t-54.5 -32.5t-59.5 -9q-45 0 -157 60.5t-140 60.5q-58 0 -85.5 -30t-37.5 -91h-39z" />
<glyph unicode="&#x2000;" horiz-adv-x="801" />
<glyph unicode="&#x2001;" horiz-adv-x="1602" />
<glyph unicode="&#x2002;" horiz-adv-x="801" />
<glyph unicode="&#x2003;" horiz-adv-x="1602" />
<glyph unicode="&#x2004;" horiz-adv-x="534" />
<glyph unicode="&#x2005;" horiz-adv-x="400" />
<glyph unicode="&#x2006;" horiz-adv-x="267" />
<glyph unicode="&#x2007;" horiz-adv-x="267" />
<glyph unicode="&#x2008;" horiz-adv-x="200" />
<glyph unicode="&#x2009;" horiz-adv-x="320" />
<glyph unicode="&#x200a;" horiz-adv-x="89" />
<glyph unicode="&#x2010;" horiz-adv-x="802" d="M143 606l15 90h540l-14 -90h-541z" />
<glyph unicode="&#x2011;" horiz-adv-x="802" d="M143 606l15 90h540l-14 -90h-541z" />
<glyph unicode="&#x2012;" horiz-adv-x="802" d="M143 606l15 90h540l-14 -90h-541z" />
<glyph unicode="&#x2013;" horiz-adv-x="1069" d="M143 606l15 90h807l-15 -90h-807z" />
<glyph unicode="&#x2014;" horiz-adv-x="1417" d="M143 606l15 90h1155l-15 -90h-1155z" />
<glyph unicode="&#x2018;" horiz-adv-x="456" d="M174 1077q0 53 25 99.5t59 76t80.5 54.5t76 36t58.5 19l-8 -57q-53 -7 -115.5 -57t-73.5 -113q-5 -38 -2.5 -45t15.5 -7q5 0 25 13.5t42 13.5q41 0 65.5 -18t24.5 -54q0 -42 -25 -68t-47 -32t-38 -6q-70 0 -116 39t-46 106z" />
<glyph unicode="&#x2019;" horiz-adv-x="432" d="M170 932l10 57q53 7 115.5 57t73.5 113q5 38 2.5 44.5t-15.5 6.5q-5 0 -25 -13t-42 -13q-42 0 -67 18t-25 53q0 32 14 55t35 33.5t36.5 14.5t26.5 4q70 0 115 -39t45 -106q0 -53 -25 -99.5t-59 -76t-80.5 -54.5t-76 -36t-58.5 -19z" />
<glyph unicode="&#x201a;" horiz-adv-x="471" d="M12 -272l11 57q53 7 115 57t73 113q5 38 3 44.5t-15 6.5q-5 0 -25.5 -13t-42.5 -13q-42 0 -67 18t-25 53q0 32 14.5 55t35 33.5t36.5 14.5t27 4q69 0 114 -39.5t45 -106.5q0 -53 -25.5 -99.5t-59 -76t-80 -54t-75.5 -35t-59 -19.5z" />
<glyph unicode="&#x201c;" horiz-adv-x="825" d="M174 1077q0 53 25 99.5t59 76t80.5 54.5t76 36t58.5 19l-8 -57q-53 -7 -115.5 -57t-73.5 -113q-5 -38 -2.5 -45t15.5 -7q5 0 25 13.5t42 13.5q41 0 65.5 -18t24.5 -54q0 -42 -25 -68t-47 -32t-38 -6q-70 0 -116 39t-46 106zM543 1077q0 53 25 99.5t59 76t80.5 54.5t76 36 t58.5 19l-8 -57q-53 -7 -115.5 -57t-73.5 -113q-5 -38 -3 -45t15 -7q5 0 25.5 13.5t42.5 13.5q41 0 65.5 -18t24.5 -54q0 -42 -25 -68t-47 -32t-38 -6q-70 0 -116 39t-46 106z" />
<glyph unicode="&#x201d;" horiz-adv-x="800" d="M170 932l10 57q53 7 115.5 57t73.5 113q5 38 2.5 44.5t-15.5 6.5q-5 0 -25 -13t-42 -13q-42 0 -67 18t-25 53q0 32 14 55t35 33.5t36.5 14.5t26.5 4q70 0 115 -39t45 -106q0 -53 -25 -99.5t-59 -76t-80.5 -54.5t-76 -36t-58.5 -19zM539 932l10 57q53 7 115 57t73 113 q5 38 3 44.5t-15 6.5q-5 0 -25.5 -13t-42.5 -13q-42 0 -67 18t-25 53q0 32 14.5 55t35 33.5t36.5 14.5t27 4q70 0 115 -39t45 -106q0 -53 -25 -99.5t-59 -76t-80.5 -54.5t-76 -36t-58.5 -19z" />
<glyph unicode="&#x201e;" horiz-adv-x="843" d="M14 -264l11 57q53 7 115 57t73 113q5 38 3 44.5t-15 6.5q-5 0 -25.5 -13t-42.5 -13q-42 0 -67 18t-25 53q0 32 14.5 55t35 33.5t36.5 14.5t27 4q69 0 114 -39.5t45 -106.5q0 -53 -25.5 -99.5t-59 -76t-80 -54t-75.5 -35t-59 -19.5zM383 -264l10 57q53 7 115.5 57 t73.5 113q5 38 2.5 44.5t-15.5 6.5q-5 0 -25 -13t-42 -13q-42 0 -67 18t-25 53q0 32 14 55t35 33.5t36.5 14.5t26.5 4q69 0 114.5 -39.5t45.5 -106.5q0 -53 -25.5 -99.5t-59 -76t-80 -54t-75.5 -35t-59 -19.5z" />
<glyph unicode="&#x2022;" horiz-adv-x="684" d="M104 582q0 106 85.5 190t203.5 84q88 0 152.5 -58t64.5 -141q0 -105 -88.5 -190.5t-204.5 -85.5q-87 0 -150 58.5t-63 142.5z" />
<glyph unicode="&#x2026;" horiz-adv-x="1353" d="M41 86q0 57 43 102t100 45q42 0 74.5 -30.5t32.5 -73.5q0 -56 -45 -102.5t-103 -46.5q-42 0 -72 31t-30 75zM492 86q0 57 43 102t100 45q42 0 74 -30.5t32 -73.5q0 -56 -44.5 -102.5t-102.5 -46.5q-42 0 -72 31t-30 75zM942 86q0 57 43 102t100 45q42 0 74.5 -30.5 t32.5 -73.5q0 -56 -45 -102.5t-103 -46.5q-42 0 -72 31t-30 75z" />
<glyph unicode="&#x202f;" horiz-adv-x="320" />
<glyph unicode="&#x2039;" horiz-adv-x="571" d="M96 612q8 38 35 52l365 192l-9 -53l-211 -191l146 -190l-8 -53l-299 192q-26 16 -19 51z" />
<glyph unicode="&#x203a;" horiz-adv-x="571" d="M104 369l9 53l211 190l-146 191l8 53l299 -192q26 -16 19 -52q-7 -37 -35 -51z" />
<glyph unicode="&#x205f;" horiz-adv-x="400" />
<glyph unicode="&#x20ac;" horiz-adv-x="1110" d="M49 451l47 90h78l8 41q5 33 27 114h-86l47 90h70q83 199 236.5 316t316.5 117q64 0 118 -11.5t86.5 -28.5t55.5 -33.5t32 -27.5l9 -12l-27 -168h-45q0 43 -12.5 79.5t-39.5 66.5t-75 47.5t-113 17.5q-112 0 -202 -97t-142 -266h424l-47 -90h-399q-21 -78 -27 -155h395 l-47 -90h-354q0 -6 -1 -19.5t-1 -19.5q0 -178 59.5 -270.5t163.5 -92.5q111 0 187 46t137 126l39 -33q-67 -84 -91 -107q-83 -80 -222 -96q-44 -5 -95 -5q-96 0 -171 37t-122 102t-71.5 149.5t-24.5 182.5h-121z" />
<glyph unicode="&#x2122;" horiz-adv-x="1550" d="M197 1085l18 113h535l-19 -113h-35q10 56 -6 64h-162l-88 -520q7 -17 64 -17l-6 -34h-240l6 34q55 0 68 17l88 520h-162q-19 -9 -27 -64h-34zM668 578l6 34q54 0 67 17l88 518q-6 16 -63 16l6 35h164l137 -473l295 473h166l-6 -35q-56 0 -68 -16l-88 -518q7 -17 64 -17 l-6 -34h-242l6 34q57 0 70 17l73 432l-303 -483h-24l-146 489l-73 -438q7 -17 63 -17l-6 -34h-180z" />
<glyph unicode="&#x25fc;" horiz-adv-x="901" d="M0 0v901h901v-901h-901z" />
</font>
</defs>
</svg>
