<?xml version="1.0" encoding="UTF-8" standalone="no"?>
<!-- Created with Inkscape (http://www.inkscape.org/) -->

<svg
   xmlns:dc="http://purl.org/dc/elements/1.1/"
   xmlns:cc="http://creativecommons.org/ns#"
   xmlns:rdf="http://www.w3.org/1999/02/22-rdf-syntax-ns#"
   xmlns:svg="http://www.w3.org/2000/svg"
   xmlns="http://www.w3.org/2000/svg"
   xmlns:sodipodi="http://sodipodi.sourceforge.net/DTD/sodipodi-0.dtd"
   xmlns:inkscape="http://www.inkscape.org/namespaces/inkscape"
   id="svg2"
   version="1.1"
   inkscape:version="0.48.5 r10040"
   width="156"
   height="180"
   xml:space="preserve"
   sodipodi:docname="data.wien.gv.at.svg"><metadata
     id="metadata8"><rdf:RDF><cc:Work
         rdf:about=""><dc:format>image/svg+xml</dc:format><dc:type
           rdf:resource="http://purl.org/dc/dcmitype/StillImage" /><dc:title /></cc:Work></rdf:RDF></metadata><defs
     id="defs6"><clipPath
       clipPathUnits="userSpaceOnUse"
       id="clipPath24"><path
         d="m 0,198.425 198.425,0 L 198.425,0 0,0 0,198.425 z"
         id="path26"
         inkscape:connector-curvature="0" /></clipPath><clipPath
       id="clipPath24-6"
       clipPathUnits="userSpaceOnUse"><path
         id="path26-8"
         d="m 19.842,82.579 411.315,0 0,324.902 -411.315,0 0,-324.902 z" /></clipPath></defs><sodipodi:namedview
     pagecolor="#ffffff"
     bordercolor="#666666"
     borderopacity="1"
     objecttolerance="10"
     gridtolerance="10"
     guidetolerance="10"
     inkscape:pageopacity="0"
     inkscape:pageshadow="2"
     inkscape:window-width="1443"
     inkscape:window-height="1256"
     id="namedview4"
     showgrid="false"
     inkscape:zoom="4.7993883"
     inkscape:cx="108.96226"
     inkscape:cy="86.447662"
     inkscape:window-x="662"
     inkscape:window-y="0"
     inkscape:window-maximized="0"
     inkscape:current-layer="g10" /><g
     id="g10"
     inkscape:groupmode="layer"
     inkscape:label="Codefor_Hex_sticker_ALL"
     transform="matrix(1.25,0,0,-1.25,0,180)"><path
       id="path14"
       style="fill:#63666f;fill-opacity:1;fill-rule:nonzero;stroke:none"
       d="m 124.9,35.9995 -62.5,-36 -62.5,36 0,72.001 62.5,36 62.5,-36 0,-72.001 z"
       inkscape:connector-curvature="0" /><g
       id="g4180"
       transform="matrix(0.89865406,0,0,0.89865406,14.536295,57.837358)"><path
         sodipodi:nodetypes="sssssssssssscssssssccccscscssssssssssssssssscssssscccssscs"
         style="fill:#c5cdd4;fill-opacity:1"
         d="m 25.054325,-35.017325 c -4.047787,1.766672 -8.208836,7.068872 -8.837509,11.26116 -1.049528,6.998752 3.489274,14.1356 10.450955,16.4331656 2.699806,0.891016 6.083549,0.7402768 10.46808,-0.4663328 1.355715,-0.3730896 2.498394,0.5638224 5.897441,4.8354632 2.318755,2.914018 4.076735,5.437396 3.906625,5.607507 -0.752613,0.752612 -28.562495,12.418925 -29.603943,12.418925 -0.638907,0 -1.557649,-0.396 -2.041649,-0.88 -0.484,-0.484 -2.253779,-0.88 -3.932843,-0.88 -3.7721224,0 -7.507157,3.645904 -7.507157,7.32801 0,3.084384 2.9607452,6.421519 6.30387,7.10526 2.52339,0.516089 2.861539,1.007303 5.836955,8.479088 l 3.158389,7.931262 -1.442415,2.678402 c -1.302064,2.417785 -1.326351,2.884259 -0.249607,4.794048 1.766339,3.132902 5.216984,4.035077 7.875714,2.059115 3.582096,-2.662207 3.01216,-8.458874 -0.928942,-9.448027 -1.408054,-0.3534 -2.546798,-2.296568 -5.231196,-8.926587 -4.71021,-11.633437 -4.777449,-11.584951 10.735563,-7.741344 l 11.941669,2.958748 5.662375,1.000117 c 3.868805,-2.67974 13.303607,-9.882402 12.263567,-18.403623 L 57.970415,10.495449 55.665159,7.621881 C 54.397267,6.041418 53.358631,4.498882 53.35708,4.194023 53.35558,3.889164 59.90785,0.823097 67.917795,-2.61946 l 14.563538,-6.2591946 2.347872,1.9756088 c 3.649384,3.0707548 8.583912,2.7680538 12.436872,-0.76292 2.696131,-2.4708152 2.988253,-3.1340632 2.988253,-6.7846152 0,-3.503032 -0.351032,-4.39712 -2.615389,-6.661472 -2.309872,-2.309872 -3.121432,-2.615384 -6.947472,-2.615384 -3.702792,0 -4.688344,0.34132 -6.784616,2.349672 -1.348888,1.29232 -2.452528,2.81332 -2.452528,3.38 0,0.686472 -0.734217,0.898432 -2.2,0.635104 -1.21,-0.217368 -8.993226,-1.47384 -17.296058,-2.792152 -8.302831,-1.318312 -15.366332,-2.563968 -15.69667,-2.768128 -0.330337,-0.20416 -0.808058,-1.408432 -1.061603,-2.676152 -1.501202,-7.506008 -12.618576,-12.703456 -20.145669,-9.418232 z m 37.6,18.467528 c 18.265884,2.850952 18,2.79292 18,3.928752 0,0.579368 -6.594387,3.8661408 -15,7.476296 -14.226013,6.109978 -15.061919,6.367955 -16.2,4.999621 -0.66,-0.79353 -2.76504,-3.442847 -4.677866,-5.8873714 l -3.477866,-4.4445856 1.622553,-2.062744 c 0.892405,-1.134512 1.860725,-3.147136 2.151824,-4.472496 0.461731,-2.102248 0.800571,-2.35396 2.655313,-1.972528 1.169323,0.24048 7.886042,1.336256 14.926042,2.435056 z m -10.220542,25.434885 2.450691,3.412525 1.051154,1.988722 c -3.558342,4.732651 -7.691644,12.862498 -13.566361,12.786228 -0.641429,0 -6.167208,-1.317411 -12.27951,-2.927581 -9.547682,-2.515155 -11.079618,-3.136644 -10.874354,-4.411602 0.174681,-1.085003 4.110736,-3.179447 14.638922,-7.789628 7.92,-3.468085 14.788973,-6.342864 15.264384,-6.388399 0.475411,-0.04554 1.967195,1.452846 3.315074,3.329735 z"
         id="path4163"
         inkscape:connector-curvature="0" /><path
         transform="matrix(0.8,0,0,-0.8,0,144)"
         inkscape:connector-curvature="0"
         id="path4178"
         d="m 55.654191,119.79941 21.477814,-13.95274 38.879545,3.60576 6.74121,12.69857 -0.62708,9.40634 c 0,0 -63.806359,10.66052 -63.806359,10.03343 0,-0.62709 -2.66513,-21.79136 -2.66513,-21.79136 z"
         style="fill:#ffffff;fill-opacity:1;stroke:none" /><path
         sodipodi:nodetypes="ssssssssscssccssscccssscsssssssssscccssccscsssscssssssssscssssc"
         style="fill:#da060a;fill-opacity:1"
         d="m 64.597804,8.966456 c -8.264909,2.228458 -15.878298,8.552743 -19.715813,16.377519 -1.953152,3.982522 -2.221364,5.445011 -2.224313,12.128588 -0.0029,6.575775 0.285593,8.216482 2.140692,12.174452 5.811917,12.400086 19.621393,19.824092 32.470544,17.456242 C 100.67271,62.79039 110.6041,36.188494 95.429117,18.459938 88.146317,9.95163 75.446835,6.041245 64.597804,8.966456 z M 53.919755,33.472563 c 0.791908,0 1.152952,1.026866 1.195432,3.4 l 0.06086,3.4 0.939138,-2.542584 c 1.252079,-3.38983 1.708426,-3.73897 4.101882,-3.138251 1.898512,0.476496 2.042686,0.850794 2.117,5.496077 -0.862129,15.725332 0.843718,15.47185 2.271897,2.384758 1.027482,-6.49585 1.080286,-6.6 3.346156,-6.6 2.642786,0 2.728428,0.44258 1.480923,7.653073 -1.536694,8.881987 -0.888966,8.14407 -6.355169,7.240053 l -4.823553,-0.797733 -0.06086,-3.247696 -0.06086,-3.247697 -1.010513,2.8 c -0.774579,2.146258 -1.460808,2.8 -2.939138,2.8 -1.693184,0 -1.977454,-0.439476 -2.328624,-3.6 l -0.4,-3.6 -0.990998,3.262767 c -0.920538,3.030789 -1.165689,3.237127 -3.448041,2.90215 -1.886019,-0.276809 -2.335007,-0.663243 -1.931931,-1.662767 0.288813,-0.716183 1.610745,-4.115196 2.937628,-7.553364 1.785267,-4.625915 2.71823,-6.133899 3.588358,-5.8 0.646714,0.248168 1.686401,0.451214 2.310413,0.451214 z m 27.682074,5.333491 c 0.798872,0.722969 1.452496,2.158694 1.452496,3.190499 0,1.534259 -0.420208,1.87601 -2.306695,1.87601 -1.714046,0 -1.674199,-0.458922 -2.02129,-1.786202 -0.355629,-1.359927 -1.442133,-1.56368 -2.152038,-0.853775 -1.366873,1.366873 -2.009308,3.939954 1.854915,3.450901 1.00381,0.006 2.584499,0.214761 3.512644,0.463895 1.09021,0.769884 1.756984,0.01865 2.21768,-2.862356 0.4852,-3.0343 0.715128,-3.294014 2.712464,-3.063895 2.404448,0.277024 2.458896,0.566799 1.437624,7.651432 -2.063737,6.73684 1.591283,5.65831 1.955792,-1.465799 0.939376,-5.569235 0.991712,-5.656753 3.07064,-5.134974 1.16324,0.291955 2.234456,0.650298 2.380472,0.796318 0.662592,0.662585 -1.939056,12.767017 -2.96444,13.792404 -1.065136,1.065136 -2.121184,1.042206 -6.497768,-0.141088 -0.66,-0.178443 -1.863784,-0.351987 -2.675072,-0.385652 -1.297696,-0.05385 -1.797298,-0.625561 -1.030808,-4.261209 3.091325,-14.662913 0.210639,-7.73573 -0.222888,-1.60493 -1.369217,3.727094 -2.304457,5.00493 -5.680561,5.00493 -4.283135,0 -6.688682,-2.16889 -6.548263,-5.904046 0.190951,-5.079335 1.69937,-9.318867 3.599548,-10.11682 2.282022,-0.958304 6.066505,-0.309956 7.905548,1.354357 z m -7.049176,9.866509 c 0,0.44 0.715008,1.176254 1.12904,1.176254 0.414033,0 1.100697,-0.736254 1.372632,-1.176254 0.271935,-0.44 -0.443074,-1.427089 -1.12904,-1.427089 -0.685968,0 -1.372632,0.987089 -1.372632,1.427089 z m -6.970612,4.265027 c 0.07205,0.07423 -0.05851,1.121467 -0.290132,2.327181 -0.365589,1.903093 -0.699169,2.125641 -2.529356,1.687459 -2.780046,-0.665595 -2.784131,-0.671471 -2.16949,-3.120399 0.459523,-1.830882 1.072584,-1.665991 2.694438,-1.57223 1.224812,0.07081 2.222493,0.603754 2.29454,0.677989 z"
         id="path4155"
         inkscape:connector-curvature="0" /><path
         inkscape:connector-curvature="0"
         id="path4153"
         d="m 76.014325,17.632563 c -0.97975,1.390439 -1.060077,3.24199 -0.875702,4.884924 0.23073,1.849605 2.107834,2.627298 3.466873,3.546687 0.880408,0.704971 2.636517,1.953004 1.749671,3.193476 -1.328401,0.816299 -2.334675,-0.599619 -2.277092,-1.835796 -0.814306,-0.736925 -2.248133,-0.518956 -3.287148,-0.944046 -1.594043,-0.310625 -1.661058,1.773647 -0.880256,2.663162 1.263485,1.995616 3.509602,3.618 5.964555,3.429412 1.541719,0.03426 3.038858,-0.638162 4.573834,-0.45406 1.174584,0.389779 1.040183,1.905361 1.052381,2.907258 -0.271134,1.071638 -0.411926,2.429025 1.015195,2.7456 1.107813,0.449606 2.855682,0.463049 3.293371,-0.911435 0.444055,-1.162016 0.385734,-2.823205 2.096161,-2.711041 0.943515,-0.718543 1.090732,-2.626119 -0.06342,-3.211335 -1.566619,-0.0331 -0.511553,-2.15025 -0.461494,-3.083605 0.379314,-1.67991 0.278584,-3.647272 1.497784,-5.000281 0.987157,-0.411656 2.771539,-1.132137 1.751128,-2.510329 -1.04206,-1.272765 -2.954683,-1.359699 -4.441101,-1.005009 -1.842577,0.603622 -2.292023,2.74506 -2.597281,4.4257 -0.311557,1.946937 -0.55143,3.971693 -1.454908,5.748977 -1.471319,-0.08462 -0.534922,-2.112208 -0.473946,-3.070566 0.438096,-2.372621 1.082172,-4.721552 1.283401,-7.129372 0.09749,-1.408174 -1.610467,-1.139181 -2.531768,-1.272184 -1.308315,0.121377 -2.353487,-0.599266 -3.423725,-1.178252 -1.611913,-0.333601 -3.45905,-0.241114 -4.869544,0.675335 l -0.10697,0.09678 0,0 z m 5.844424,3.047159 c 0.445372,1.169174 0.07773,2.536771 -0.512288,3.588257 -1.135017,0.128348 -2.067684,-1.44885 -2.11788,-2.546528 -0.135591,-1.273171 1.613167,-2.566647 2.485375,-1.250214 l 0.144761,0.208485 3.2e-5,0 z m -15.223558,11.25313 c -0.109439,1.275218 0.680757,2.540099 2.068552,2.522462 1.361177,0.538451 2.286963,-0.734445 2.20372,-1.982751 0.426869,-1.23627 -0.306514,-2.565149 -1.74609,-2.2 -1.015054,-0.01082 -2.597982,0.35807 -2.526182,1.660289 z"
         style="fill:#333333;fill-opacity:1" /></g></g></svg>