<?xml version="1.0" encoding="UTF-8" standalone="no"?>
<!-- Created with Inkscape (http://www.inkscape.org/) -->

<svg
   xmlns:dc="http://purl.org/dc/elements/1.1/"
   xmlns:cc="http://creativecommons.org/ns#"
   xmlns:rdf="http://www.w3.org/1999/02/22-rdf-syntax-ns#"
   xmlns:svg="http://www.w3.org/2000/svg"
   xmlns="http://www.w3.org/2000/svg"
   xmlns:sodipodi="http://sodipodi.sourceforge.net/DTD/sodipodi-0.dtd"
   xmlns:inkscape="http://www.inkscape.org/namespaces/inkscape"
   id="svg2"
   version="1.1"
   inkscape:version="0.91 r13725"
   width="156"
   height="180"
   xml:space="preserve"
   sodipodi:docname="data.wien.gv.at.svg"><metadata
     id="metadata8"><rdf:RDF><cc:Work
         rdf:about=""><dc:format>image/svg+xml</dc:format><dc:type
           rdf:resource="http://purl.org/dc/dcmitype/StillImage" /><dc:title /></cc:Work></rdf:RDF></metadata><defs
     id="defs6"><clipPath
       clipPathUnits="userSpaceOnUse"
       id="clipPath24"><path
         d="m 0,198.425 198.425,0 L 198.425,0 0,0 0,198.425 z"
         id="path26"
         inkscape:connector-curvature="0" /></clipPath><clipPath
       id="clipPath24-6"
       clipPathUnits="userSpaceOnUse"><path
         id="path26-8"
         d="m 19.842,82.579 411.315,0 0,324.902 -411.315,0 0,-324.902 z" /></clipPath></defs><sodipodi:namedview
     pagecolor="#ffffff"
     bordercolor="#666666"
     borderopacity="1"
     objecttolerance="10"
     gridtolerance="10"
     guidetolerance="10"
     inkscape:pageopacity="0"
     inkscape:pageshadow="2"
     inkscape:window-width="1440"
     inkscape:window-height="856"
     id="namedview4"
     showgrid="false"
     inkscape:zoom="3.6333333"
     inkscape:cx="78"
     inkscape:cy="90"
     inkscape:window-x="-2"
     inkscape:window-y="0"
     inkscape:window-maximized="0"
     inkscape:current-layer="g10" /><g
     id="g10"
     inkscape:groupmode="layer"
     inkscape:label="Codefor_Hex_sticker_ALL"
     transform="matrix(1.25,0,0,-1.25,0,180)"><g
       id="g4189"><path
         inkscape:connector-curvature="0"
         d="m 124.9,35.9995 -62.5,-36 -62.5,36 0,72.001 62.5,36 62.5,-36 0,-72.001 z"
         style="fill:#63666f;fill-opacity:1;fill-rule:nonzero;stroke:none"
         id="path14" /><g
         id="g4179"><path
           style="fill:#c5cdd4;fill-opacity:1;fill-rule:nonzero;stroke:none"
           d="M 42.28125 46.412109 L 36.279297 51.009766 L 37.265625 58.492188 L 39.625 59.464844 L 32.783203 76.271484 L 29.791016 75.035156 L 21.691406 81.240234 L 23.023438 91.337891 L 32.455078 95.230469 L 33.076172 94.755859 L 43.105469 118.64453 L 35.177734 124.71875 L 37.691406 143.76172 L 55.476562 151.10156 L 70.75 139.40039 L 69.919922 133.11719 L 109.16992 127.07812 L 109.82812 132.05859 L 121.95703 137.06445 L 132.375 129.08398 L 130.66016 116.09766 L 118.53125 111.0918 L 117.88672 111.58594 L 107.11914 64.5625 A 1.750175 1.750175 0 0 0 105.7207 63.232422 L 49.789062 53.242188 L 49.269531 49.296875 L 42.28125 46.412109 z M 50.146484 56.863281 L 96.755859 65.185547 L 39.376953 80.113281 L 39.220703 78.927734 L 36.017578 77.605469 L 42.859375 60.800781 L 44.255859 61.376953 L 50.146484 56.863281 z M 100.04297 67.945312 L 73.582031 101.96875 L 40.316406 87.214844 L 39.839844 83.609375 L 100.04297 67.945312 z M 104.34375 68.121094 L 114.83008 113.92773 L 109.5957 117.93555 L 76.878906 103.42969 L 104.34375 68.121094 z M 38.796875 90.371094 L 71.367188 104.81445 L 61.455078 117.55859 L 50.451172 113.01758 L 45.978516 116.44336 L 35.947266 92.554688 L 38.796875 90.371094 z M 74.666016 106.27734 L 108.39844 121.23438 L 108.71289 123.60742 L 69.462891 129.64648 L 68.236328 120.35742 L 64.8125 118.94531 L 74.666016 106.27734 z "
           transform="matrix(0.8,0,0,-0.8,0,144)"
           id="path4166" /><g
           id="g4158"
           transform="matrix(0.42322473,0.06047055,-0.06047055,0.42322473,56.748327,57.711682)"><path
             id="path4143"
             style="fill:#da060a;fill-opacity:1;fill-rule:nonzero;stroke:none"
             d="M 124.9,35.999501 62.4,-4.995e-4 -0.1,35.999501 l 0,72.000999 62.5,36 62.5,-36 0,-72.000999 z"
             inkscape:connector-curvature="0" /><g
             id="text4145"
             style="font-style:normal;font-weight:normal;font-size:32px;line-height:125%;font-family:sans-serif;letter-spacing:0px;word-spacing:0px;fill:#ffffff;fill-opacity:1;stroke:none;stroke-width:1px;stroke-linecap:butt;stroke-linejoin:miter;stroke-opacity:1"
             transform="matrix(1.7461588,0,0,-1.7461588,40.941014,-15.27385)"><path
               inkscape:connector-curvature="0"
               id="path4150"
               style="font-style:normal;font-variant:normal;font-weight:normal;font-stretch:normal;font-family:'Yuanti SC';-inkscape-font-specification:'Yuanti SC'"
               d="m -12.876331,-44.380477 3.1040004,-9.984 q 0.224,-0.672 0.736,-1.12 0.544,-0.448 1.184,-0.448 0.64,0 1.152,0.448 0.544,0.416 0.768,1.12 l 3.104,9.952 2.97599996,-10.112 q 0.192,-0.64 0.704,-1.024 0.51200004,-0.384 1.15200004,-0.384 0.48,0 0.8,0.128 0.32,0.128 0.512,0.32 0.192,0.192 0.256,0.416 0.096,0.224 0.128,0.416 0.064,0.256 -0.064,0.768 -0.128,0.512 -0.256,0.864 l -4.28800004,12.832 q -0.25599996,0.832 -0.76799996,1.344 -0.512,0.512 -1.216,0.512 -0.96,0 -1.504,-0.704 -0.512,-0.704 -0.768,-1.536 l -2.688,-9.056 -2.8160004,9.056 q -0.288,0.896 -0.8,1.568 -0.512,0.672 -1.408,0.672 -0.608,0 -1.152,-0.48 -0.544,-0.48 -0.864,-1.408 l -4.224,-12.8 q -0.128,-0.352 -0.256,-0.864 -0.128,-0.512 -0.064,-0.768 0.032,-0.192 0.096,-0.416 0.096,-0.224 0.288,-0.416 0.192,-0.192 0.512,-0.32 0.32,-0.128 0.8,-0.128 0.64,0 1.152,0.384 0.512,0.384 0.704,1.024 l 3.008,10.144 z" /><path
               inkscape:connector-curvature="0"
               id="path4152"
               style="font-style:normal;font-variant:normal;font-weight:normal;font-stretch:normal;font-family:'Yuanti SC';-inkscape-font-specification:'Yuanti SC'"
               d="m 9.9181694,-39.996477 q 0,0.608 -0.544,1.12 -0.544,0.544 -1.472,0.544 -0.928,0 -1.472,-0.512 -0.544,-0.512 -0.544,-1.152 l 0,-14.08 q 0,-0.96 0.64,-1.408 0.64,-0.448 1.376,-0.448 0.736,0 1.376,0.448 0.64,0.416 0.64,1.408 l 0,14.08 z m -4.192,-19.776 q 0,-0.928 0.608,-1.536 0.64,-0.64 1.568,-0.64 0.928,0 1.536,0.64 0.6399996,0.608 0.6399996,1.536 0,0.928 -0.6399996,1.568 -0.608,0.608 -1.536,0.608 -0.928,0 -1.568,-0.608 -0.608,-0.64 -0.608,-1.568 z" /><path
               inkscape:connector-curvature="0"
               id="path4154"
               style="font-style:normal;font-variant:normal;font-weight:normal;font-stretch:normal;font-family:'Yuanti SC';-inkscape-font-specification:'Yuanti SC'"
               d="m 23.044169,-48.604477 q 0,-0.8 -0.128,-1.536 -0.128,-0.768 -0.48,-1.312 -0.32,-0.576 -0.896,-0.896 -0.544,-0.352 -1.44,-0.352 -1.152,0 -1.856,0.416 -0.704,0.384 -1.088,1.024 -0.384,0.608 -0.512,1.344 -0.128,0.704 -0.128,1.312 l 6.528,0 z m -2.848,10.592 q -1.952,0 -3.392,-0.64 -1.44,-0.64 -2.4,-1.792 -0.96,-1.184 -1.44,-2.848 -0.48,-1.664 -0.48,-3.712 0,-1.984 0.48,-3.68 0.48,-1.696 1.44,-2.912 0.992,-1.248 2.432,-1.952 1.44,-0.704 3.36,-0.704 1.824,0 3.104,0.64 1.28,0.64 2.08,1.728 0.832,1.088 1.216,2.528 0.384,1.44 0.384,3.04 0,1.344 -0.352,2.048 -0.352,0.704 -1.312,0.704 l -8.8,0 q 0,0.736 0.16,1.44 0.16,0.704 0.576,1.28 0.448,0.576 1.152,0.928 0.736,0.352 1.856,0.352 1.44,0 2.24,-0.416 0.832,-0.448 1.312,-0.992 0.352,-0.416 0.704,-0.512 0.352,-0.096 0.64,0 0.32,0.064 0.544,0.224 0.256,0.16 0.416,0.256 0.608,0.48 0.48,1.344 -0.128,0.832 -0.928,1.664 -0.768,0.8 -2.176,1.376 -1.376,0.608 -3.296,0.608 z" /><path
               inkscape:connector-curvature="0"
               id="path4156"
               style="font-style:normal;font-variant:normal;font-weight:normal;font-stretch:normal;font-family:'Yuanti SC';-inkscape-font-specification:'Yuanti SC'"
               d="m 40.068169,-48.572477 q 0,-1.024 -0.128,-1.792 -0.128,-0.8 -0.48,-1.312 -0.32,-0.512 -0.928,-0.768 -0.608,-0.256 -1.536,-0.256 -0.768,0 -1.44,0.16 -0.64,0.16 -1.12,0.608 -0.448,0.416 -0.736,1.216 -0.256,0.768 -0.256,1.984 l 0,9.056 q 0,0.544 -0.576,0.928 -0.544,0.416 -1.408,0.416 -0.864,0 -1.44,-0.416 -0.544,-0.416 -0.544,-0.928 l 0,-14.912 q 0,-0.576 0.576,-0.96 0.608,-0.384 1.44,-0.384 0.832,0 1.376,0.384 0.576,0.384 0.576,0.96 l 0,1.568 q 0.288,-0.576 0.672,-1.152 0.416,-0.576 0.96,-1.024 0.576,-0.48 1.28,-0.768 0.736,-0.288 1.664,-0.288 1.376,0 2.464,0.384 1.12,0.384 1.888,1.152 0.8,0.736 1.216,1.888 0.448,1.152 0.448,2.688 l 0,10.464 q 0,0.576 -0.544,0.96 -0.512,0.384 -1.408,0.384 -0.896,0 -1.472,-0.384 -0.544,-0.384 -0.544,-0.96 l 0,-8.896 z" /></g></g></g></g></g></svg>