<?xml version="1.0" encoding="UTF-8" standalone="no"?>
<!-- Created with Inkscape (http://www.inkscape.org/) -->

<svg
   xmlns:dc="http://purl.org/dc/elements/1.1/"
   xmlns:cc="http://creativecommons.org/ns#"
   xmlns:rdf="http://www.w3.org/1999/02/22-rdf-syntax-ns#"
   xmlns:svg="http://www.w3.org/2000/svg"
   xmlns="http://www.w3.org/2000/svg"
   xmlns:sodipodi="http://sodipodi.sourceforge.net/DTD/sodipodi-0.dtd"
   xmlns:inkscape="http://www.inkscape.org/namespaces/inkscape"
   id="svg2"
   version="1.1"
   inkscape:version="0.48.5 r10040"
   width="156"
   height="180"
   xml:space="preserve"
   sodipodi:docname="fd3b5bee-bef4-4acd-8ea8-fc9d24aa024f.svg"><metadata
     id="metadata8"><rdf:RDF><cc:Work
         rdf:about=""><dc:format>image/svg+xml</dc:format><dc:type
           rdf:resource="http://purl.org/dc/dcmitype/StillImage" /><dc:title /></cc:Work></rdf:RDF></metadata><defs
     id="defs6"><clipPath
       clipPathUnits="userSpaceOnUse"
       id="clipPath24"><path
         d="m 0,198.425 198.425,0 L 198.425,0 0,0 0,198.425 z"
         id="path26"
         inkscape:connector-curvature="0" /></clipPath><clipPath
       id="clipPath24-6"
       clipPathUnits="userSpaceOnUse"><path
         id="path26-8"
         d="m 19.842,82.579 411.315,0 0,324.902 -411.315,0 0,-324.902 z" /></clipPath><clipPath
       id="clipPath48"
       clipPathUnits="userSpaceOnUse"><path
         id="path50"
         d="m 0.059998,253.555 418.386002,0 0,-253.555 -418.386002,0 0,253.555 z" /></clipPath><clipPath
       clipPathUnits="userSpaceOnUse"
       id="clipPath24-67"><path
         d="m 0,198.425 198.425,0 L 198.425,0 0,0 0,198.425 z"
         id="path26-9"
         inkscape:connector-curvature="0" /></clipPath><clipPath
       clipPathUnits="userSpaceOnUse"
       id="clipPath24-6-1"><path
         d="m 19.842,82.579 411.315,0 0,324.902 -411.315,0 0,-324.902 z"
         id="path26-8-2" /></clipPath><clipPath
       id="clipPath24-1"
       clipPathUnits="userSpaceOnUse"><path
         inkscape:connector-curvature="0"
         id="path26-3"
         d="m 0,198.425 198.425,0 L 198.425,0 0,0 0,198.425 z" /></clipPath><clipPath
       id="clipPath24-9"
       clipPathUnits="userSpaceOnUse"><path
         inkscape:connector-curvature="0"
         id="path26-1"
         d="m 0,198.425 198.425,0 L 198.425,0 0,0 0,198.425 z" /></clipPath><clipPath
       id="clipPath24-17"
       clipPathUnits="userSpaceOnUse"><path
         inkscape:connector-curvature="0"
         id="path26-4"
         d="m 0,198.425 198.425,0 L 198.425,0 0,0 0,198.425 z" /></clipPath><clipPath
       id="clipPath3079"
       clipPathUnits="userSpaceOnUse"><path
         id="path3081"
         d="M 0,0 474,0 474,219 0,219 0,0 z" /></clipPath></defs><sodipodi:namedview
     pagecolor="#ffffff"
     bordercolor="#666666"
     borderopacity="1"
     objecttolerance="10"
     gridtolerance="10"
     guidetolerance="10"
     inkscape:pageopacity="0"
     inkscape:pageshadow="2"
     inkscape:window-width="1440"
     inkscape:window-height="856"
     id="namedview4"
     showgrid="false"
     inkscape:zoom="3.8888889"
     inkscape:cx="98.185833"
     inkscape:cy="90"
     inkscape:window-x="-2"
     inkscape:window-y="0"
     inkscape:window-maximized="0"
     inkscape:current-layer="g10" /><g
     id="g10"
     inkscape:groupmode="layer"
     inkscape:label="Codefor_Hex_sticker_ALL"
     transform="matrix(1.25,0,0,-1.25,0,180)"><g
       id="g3994"><path
         inkscape:connector-curvature="0"
         d="M 62.4,72.001553 0,108.00078 l 0,0 L 62.4,144 c 0,0 0.0287,-71.998424 0,-71.998447 z"
         style="fill:#1b1c53;fill-opacity:1;fill-rule:nonzero;stroke:none"
         id="path3176"
         sodipodi:nodetypes="ccccc" /><path
         sodipodi:nodetypes="ccccc"
         id="path3178"
         style="fill:#1c1f5c;fill-opacity:1;fill-rule:nonzero;stroke:none"
         d="m 62.39997,72.001553 62.4,35.999227 0,0 -62.4,35.99922 c -0.30094,0 -0.29888,-71.998424 0,-71.998447 z"
         inkscape:connector-curvature="0" /><path
         sodipodi:nodetypes="ccccc"
         id="path2988"
         style="fill:#161744;fill-opacity:1;fill-rule:nonzero;stroke:none"
         d="M 62.4,0.00311092 0,36.002332 l 0,0 62.4,35.999221 c 0,0 0.0287,-71.99841928 0,-71.99844208 z"
         inkscape:connector-curvature="0" /><path
         sodipodi:nodetypes="ccccc"
         id="path3180"
         style="fill:#18194c;fill-opacity:1;fill-rule:nonzero;stroke:none"
         d="M 62.37679,72.006648 C 42.64437,58.945827 22.55171,46.245093 0,36.002332 l 0,0 0.0231,71.968698 c 1.20063,1.2001 64.00993,-34.298343 62.3537,-35.964382 z"
         inkscape:connector-curvature="0" /><path
         inkscape:connector-curvature="0"
         d="m 62.4234,71.996459 c 19.73242,13.060822 39.82508,25.761555 62.37679,36.004321 l 0,0 -0.0231,-71.968698 c -1.20063,-1.200104 -64.00993,34.298339 -62.3537,35.964377 z"
         style="fill:#1b1c53;fill-opacity:1;fill-rule:nonzero;stroke:none"
         id="path3182"
         sodipodi:nodetypes="ccccc" /><path
         inkscape:connector-curvature="0"
         d="m 62.39997,0.00311092 62.4,35.99922108 0,0 -62.4,35.999221 c -1.49897,-1.124204 -0.7564,-72.54415217 0,-71.99844208 z"
         style="fill:#18194c;fill-opacity:1;fill-rule:nonzero;stroke:none"
         id="path3174"
         sodipodi:nodetypes="ccccc" /></g><g
       id="g4002"
       transform="translate(0.673475,0)"><g
         transform="translate(-137.21013,2.6653994)"
         id="g3177"><path
           inkscape:connector-curvature="0"
           d="m 189.56035,86.166099 c 0,-1.298609 -7.76156,-11.687843 -23.34303,-11.687843 -15.58036,0 -23.26523,10.389234 -23.26523,11.687843 0,1.297874 7.68487,11.700318 23.26523,11.700318 15.58147,0 23.34303,-10.402444 23.34303,-11.700318"
           style="fill:#fff200;fill-opacity:1;fill-rule:evenodd;stroke:none"
           id="path3085" /><path
           inkscape:connector-curvature="0"
           d="m 163.13721,86.196922 c 0.007,3.637131 1.29054,7.261052 2.76858,10.915796 0.11889,0.293921 0.46748,0.383454 0.6238,-0.0015 1.48428,-3.652175 2.74583,-7.277931 2.75317,-10.914328 -0.007,-3.636397 -1.26889,-7.261786 -2.75317,-10.914328 -0.15632,-0.384556 -0.50491,-0.295389 -0.6238,-0.0011 -1.47804,3.654744 -2.76124,7.278665 -2.76858,10.915429"
           style="fill:#231f20;fill-opacity:1;fill-rule:evenodd;stroke:none"
           id="path3087" /></g><g
         transform="translate(-169.4267,2.6653994)"
         id="g3181"><path
           inkscape:connector-curvature="0"
           d="m 287.13798,86.166099 c 0,-1.298609 -7.76156,-11.687843 -23.34303,-11.687843 -15.57999,0 -23.26486,10.389234 -23.26486,11.687843 0,1.297874 7.68487,11.700318 23.26486,11.700318 15.58147,0 23.34303,-10.402444 23.34303,-11.700318"
           style="fill:#fff200;fill-opacity:1;fill-rule:evenodd;stroke:none"
           id="path3089" /><path
           inkscape:connector-curvature="0"
           d="m 260.71521,86.196922 c 0.007,3.637131 1.29017,7.261052 2.76821,10.915796 0.11889,0.293921 0.46748,0.383454 0.6238,-0.0015 1.48428,-3.652175 2.7462,-7.277931 2.75317,-10.914328 -0.007,-3.636397 -1.26889,-7.261786 -2.75317,-10.914328 -0.15632,-0.384556 -0.50491,-0.295389 -0.6238,-0.0011 -1.47804,3.654744 -2.76124,7.278665 -2.76821,10.915429"
           style="fill:#231f20;fill-opacity:1;fill-rule:evenodd;stroke:none"
           id="path3091" /></g></g></g></svg>