<?xml version="1.0" standalone="no"?>
<!DOCTYPE svg PUBLIC "-//W3C//DTD SVG 1.1//EN" "http://www.w3.org/Graphics/SVG/1.1/DTD/svg11.dtd" >
<svg xmlns="http://www.w3.org/2000/svg">
<metadata></metadata>
<defs>
<font id="judsonmedium" horiz-adv-x="989" >
<font-face units-per-em="2048" ascent="1638" descent="-410" />
<missing-glyph horiz-adv-x="491" />
<glyph horiz-adv-x="0" />
<glyph horiz-adv-x="682" />
<glyph unicode=" "  horiz-adv-x="491" />
<glyph unicode="&#x09;" horiz-adv-x="491" />
<glyph unicode="&#xa0;" horiz-adv-x="491" />
<glyph unicode="!" horiz-adv-x="481" d="M119 104q0 49 33.5 89t87.5 40q47 0 86 -36t39 -86q0 -49 -34.5 -90t-88.5 -41q-47 0 -85 37t-38 87zM139 1198q0 45 28.5 68.5t72.5 23.5t72 -23.5t28 -68.5q0 -74 -24 -358t-29 -320q-17 -139 -47 -139t-47 139q-6 42 -30 323t-24 355z" />
<glyph unicode="&#x22;" horiz-adv-x="679" d="M84 1270q0 46 24.5 69t67.5 23t67.5 -23t24.5 -69q0 -53 -28 -242q-31 -192 -64 -192q-32 0 -63 192q-29 210 -29 242zM412 1270q0 46 24.5 69t67.5 23t67.5 -23t24.5 -69t-29 -242q-31 -192 -63 -192q-33 0 -64 192q-28 203 -28 242z" />
<glyph unicode="#" horiz-adv-x="995" d="M68 401v70h204l37 258h-211v70h221l56 399h71l-55 -399h256l55 399h72l-55 -399h209v-70h-219l-37 -258h225v-70h-235l-56 -401h-71l55 401h-256l-55 -401h-72l55 401h-194zM344 471h256l37 258h-256z" />
<glyph unicode="$" horiz-adv-x="931" d="M100 94v191h45q11 -58 38 -102.5t66 -71.5t84 -41.5t97 -18.5v473q-139 82 -195 129q-133 112 -133 248q0 121 97.5 217.5t230.5 100.5v51h62v-53q44 -5 88 -18.5t75 -28.5t55.5 -30t37.5 -24l12 -10v-168h-45q-11 83 -67 140.5t-156 68.5v-424q157 -88 220 -138 q156 -125 156 -282q0 -78 -32 -140.5t-85.5 -101.5t-120 -59.5t-138.5 -21.5v-54h-62v56q-55 4 -109 17.5t-92 29t-68.5 30.5t-45.5 25zM256 967q0 -63 44.5 -109.5t129.5 -97.5v389q-59 -3 -100.5 -35t-57.5 -70.5t-16 -76.5zM492 49q98 3 153 52t55 145q0 42 -15.5 77.5 t-48 65.5t-63.5 51t-81 49v-440z" />
<glyph unicode="%" horiz-adv-x="1114" d="M63 954q0 104 66.5 177t153.5 73t153 -73t66 -177t-66 -176.5t-153 -72.5t-153.5 72.5t-66.5 176.5zM172 41l690 1116h82l-690 -1116h-82zM188 954q0 -69 29.5 -124.5t65.5 -55.5q35 0 64.5 56t29.5 124q0 69 -29.5 125t-64.5 56t-65 -56t-30 -125zM612 244q0 104 66 177 t153 73t153.5 -73t66.5 -177t-66.5 -177t-153.5 -73t-153 73t-66 177zM737 244q0 -69 29.5 -125t64.5 -56t65 56t30 125t-29.5 124.5t-65.5 55.5q-35 0 -64.5 -55.5t-29.5 -124.5z" />
<glyph unicode="&#x26;" horiz-adv-x="1239" d="M41 260q0 51 21 98.5t49 81.5t80.5 74.5t88.5 63.5t101 61q-72 201 -72 332q0 248 234 248q101 0 163 -70.5t62 -163.5q0 -99 -56.5 -176.5t-156.5 -153.5q94 -233 236 -417q11 18 22 38t20 37.5t19 42t16.5 39.5t16.5 43t14.5 40t14 42t12 37.5t12 39t10.5 34.5 q-20 33 -125 33v43h336v-43q-117 0 -129 -39q-95 -303 -196 -441q87 -94 145 -94q76 0 107 15t63 61l25 -21q-14 -37 -29.5 -63t-39.5 -51t-60 -38t-82 -13q-117 0 -232 94q-119 -94 -270 -94q-219 0 -319.5 71.5t-100.5 208.5zM246 307q0 -241 291 -241q81 0 147 51 q-151 151 -268 434q-82 -63 -126 -120t-44 -124zM477 954q0 -84 49 -223q156 109 156 230q0 76 -25.5 131t-72.5 55q-65 0 -86 -46t-21 -147z" />
<glyph unicode="'" horiz-adv-x="352" d="M84 1270q0 46 24.5 69t67.5 23t67.5 -23t24.5 -69q0 -53 -28 -242q-31 -192 -64 -192q-32 0 -63 192q-29 210 -29 242z" />
<glyph unicode="(" horiz-adv-x="497" d="M82 645q0 99 21.5 199.5t51.5 176t71.5 150t71.5 117.5t62 82q18 23 33 23q7 0 13 -6.5t6 -16.5q0 -6 -4 -18q-3 -7 -20.5 -46t-23.5 -53.5t-22 -55t-23 -67t-20 -71.5t-19 -86t-13 -94t-10 -111.5t-3 -122.5q0 -82 5 -154.5t16.5 -136.5t20.5 -108t28.5 -99t27.5 -76 t30.5 -73t25.5 -59q4 -12 4 -19q0 -10 -6 -16t-13 -6q-15 0 -33 22q-32 39 -62 82t-71.5 117.5t-71.5 150t-51.5 176t-21.5 199.5z" />
<glyph unicode=")" horiz-adv-x="497" d="M86 -80q0 7 4 19q1 1 23 51.5t26.5 62t24 63.5t26 80t20.5 86t19 106.5t10 116.5t5 140q0 82 -4.5 154.5t-16.5 137t-20.5 108t-28.5 99t-27.5 76t-30.5 73.5t-26 59q-4 12 -4 18q0 10 5.5 16.5t12.5 6.5q14 0 33 -23q32 -40 62 -82.5t72 -117t72 -150t51.5 -176 t21.5 -199.5t-21.5 -199.5t-51.5 -176t-72 -150t-72 -117t-62 -82.5q-18 -22 -33 -22q-7 0 -12.5 6t-5.5 16z" />
<glyph unicode="*" horiz-adv-x="737" d="M90 1034q0 41 25 74t57 33q5 0 21 -4q20 -6 68 -56.5t56 -72.5q13 26 45 30q-17 12 -51.5 76t-34.5 84q0 33 26 52.5t65 19.5q38 0 64 -19.5t26 -52.5q0 -20 -34.5 -84t-51.5 -76q32 -3 45 -32q5 19 56 72t71 59q16 4 22 4q31 0 55.5 -32t24.5 -73q0 -29 -16.5 -51 t-46.5 -22q-34 0 -92.5 12t-71.5 22q2 -4 2 -12q0 -20 -19 -39q23 0 88.5 -31.5t77.5 -48.5q13 -19 13 -37q0 -34 -35.5 -65t-73.5 -31q-33 0 -51 27q-10 13 -18.5 66.5t-8.5 91.5q0 18 2 22q-11 -8 -28 -8q-15 0 -27 6q2 -6 2 -25q0 -38 -8.5 -89t-18.5 -64 q-21 -27 -53 -27q-37 0 -70.5 30t-33.5 64q0 21 12 39q12 17 75.5 47.5t86.5 32.5q-19 16 -19 39q0 2 1 6t1 6q-17 -10 -73 -22t-88 -12q-30 0 -47 21t-17 50z" />
<glyph unicode="+" horiz-adv-x="827" d="M80 606v90h289v289h90v-289h289v-90h-289v-289h-90v289h-289z" />
<glyph unicode="," horiz-adv-x="471" d="M102 88q0 55 39 86t78 31q73 0 119.5 -64.5t46.5 -152.5q0 -47 -21 -88t-48.5 -66.5t-67 -47.5t-65 -32t-52.5 -18v57q52 7 106 57t54 113q0 36 -4 43.5t-17 7.5q-5 0 -23 -13t-40 -13q-46 0 -75.5 27t-29.5 73z" />
<glyph unicode="-" horiz-adv-x="794" d="M127 606v90h541v-90h-541z" />
<glyph unicode="." horiz-adv-x="450" d="M102 104q0 49 33.5 89t87.5 40q47 0 86 -36t39 -86q0 -49 -34.5 -90t-88.5 -41q-47 0 -85 37t-38 87z" />
<glyph unicode="/" horiz-adv-x="937" d="M41 -20l797 1273l59 -36l-797 -1274z" />
<glyph unicode="0" horiz-adv-x="1064" d="M100 598q0 168 48.5 307t148.5 226.5t235 87.5t235 -87.5t149 -226.5t49 -307t-49 -306.5t-149 -225t-235 -86.5q-102 0 -185 50t-136 135.5t-82 196.5t-29 236zM285 598q0 -141 30.5 -267.5t88 -207t128.5 -80.5t129 80.5t88.5 207t30.5 267.5t-30.5 268t-88.5 208 t-129 81t-128.5 -81t-88 -207.5t-30.5 -268.5z" />
<glyph unicode="1" horiz-adv-x="749" d="M55 0v43q37 0 76.5 4t81 12t68 25.5t26.5 40.5v784q-81 -49 -217 -149l-14 35l364 403h56v-1073q0 -23 26.5 -40.5t68 -25.5t81 -12t76.5 -4v-43h-693z" />
<glyph unicode="2" horiz-adv-x="970" d="M59 0q0 20 43.5 70t108 111.5t140.5 144.5t140.5 165.5t108 178t43.5 178.5q0 43 -12.5 85t-36 79.5t-64 60.5t-90.5 23q-84 0 -147 -20.5t-95.5 -49t-52.5 -57.5t-31 -49.5t-18 -20.5q-16 0 -16 21q0 17 11.5 49.5t40.5 76t70.5 82t110 65t150.5 26.5q98 0 173 -28.5 t119.5 -77.5t66.5 -109.5t22 -129.5q0 -68 -55.5 -162.5t-135 -183.5t-158.5 -169.5t-134.5 -140t-55.5 -75.5h432q29 12 65.5 46t55.5 83h41l-78 -272h-762z" />
<glyph unicode="3" horiz-adv-x="970" d="M68 147q0 62 15.5 86.5t57.5 24.5q21 0 35 -22.5t28.5 -54t37 -63.5t73.5 -54.5t125 -22.5q65 0 114 17.5t77 44t45.5 64t23 71.5t5.5 73q0 38 -10.5 84t-32 95.5t-63 82.5t-95.5 33q-24 0 -52.5 -5t-48.5 -5q-13 0 -25.5 9t-12.5 18q0 8 14 14q47 14 88.5 34.5t83.5 53 t67 81t25 107.5q0 83 -57.5 133t-161.5 50q-69 0 -121 -16.5t-78.5 -40t-42.5 -47t-26 -40t-17 -16.5q-16 0 -16 20q0 16 10.5 45.5t36 67.5t60.5 71t92 56t124 23q197 0 285 -70.5t88 -208.5q0 -77 -56 -144.5t-142 -117.5q100 -25 176.5 -124.5t76.5 -201.5 q0 -81 -17.5 -142.5t-61.5 -116t-130.5 -84t-211.5 -29.5q-83 0 -159.5 20.5t-123.5 49t-74.5 55.5t-27.5 42z" />
<glyph unicode="4" horiz-adv-x="917" d="M16 360l564 838h106v-776h166v-62h-166v-276q9 -22 37.5 -31.5t91.5 -9.5v-43h-442v43q63 0 91.5 9.5t37.5 31.5v276h-486zM129 422h373v551z" />
<glyph unicode="5" horiz-adv-x="944" d="M55 147q0 62 16 86.5t58 24.5q18 0 30.5 -16t20.5 -40t27 -52.5t44.5 -52.5t78 -40t123.5 -16q55 0 98.5 22.5t69 56.5t42.5 78.5t23 84t6 77.5q0 61 -14.5 111t-51.5 96t-95.5 77.5t-151 50t-213.5 18.5l67 485h572l-49 -143h-471l-37 -262q139 0 247.5 -22.5t176 -59.5 t111.5 -89t61.5 -106t17.5 -115q0 -64 -10.5 -120t-38 -113t-70.5 -97t-114.5 -65.5t-163.5 -25.5q-79 0 -149 14t-116 34.5t-80 44t-49.5 43t-15.5 31.5z" />
<glyph unicode="6" horiz-adv-x="948" d="M94 459q0 138 39.5 263t102.5 212.5t140.5 154.5t153.5 102.5t142 43.5l24 -37q-151 -39 -253.5 -163.5t-141.5 -325.5q83 49 191 49q92 0 161 -18.5t112 -50t69.5 -80t36.5 -102t10 -122.5q0 -189 -100 -297t-281 -108q-195 0 -300.5 133.5t-105.5 345.5zM279 459 q0 -110 18 -192t49.5 -129t70 -70t83.5 -23q87 0 141.5 99.5t54.5 256.5q0 40 -5 77.5t-19.5 76.5t-36 67.5t-57.5 47t-82 18.5q-135 0 -205 -47q-12 -86 -12 -182z" />
<glyph unicode="7" horiz-adv-x="800" d="M25 926l77 272h689q0 -27 -57.5 -173t-126 -315.5t-126 -368t-57.5 -318.5q0 -21 -24 -32t-52 -11t-50 11t-22 32q0 83 56 248.5t123.5 318t123.5 291t56 174.5h-449q-29 -12 -65 -46t-55 -83h-41z" />
<glyph unicode="8" horiz-adv-x="980" d="M100 268q0 61 22.5 117.5t61 99.5t79 74.5t87.5 56.5q-105 82 -165 162.5t-60 173.5q0 112 99 189.5t268 77.5q183 0 275.5 -75t92.5 -208q0 -196 -246 -320q60 -45 100 -80.5t81.5 -82t62.5 -97t21 -104.5q0 -116 -109 -194t-281 -78q-184 0 -286.5 78.5t-102.5 209.5z M238 252q0 -87 65.5 -147t147.5 -60q116 0 181.5 60.5t65.5 160.5q0 17 -4.5 34t-16 34.5t-21.5 32t-31 34t-34 32t-41.5 34t-42.5 32t-47 34.5t-46 34q-72 -42 -124 -120t-52 -195zM305 938q0 -34 18 -67.5t59 -71.5t73.5 -63.5t95.5 -71.5q172 95 172 288q0 95 -56 148 t-137 53q-116 0 -170.5 -54t-54.5 -161z" />
<glyph unicode="9" horiz-adv-x="948" d="M68 813q0 189 100 297.5t281 108.5q131 0 224 -64.5t137 -171t44 -244.5t-39.5 -263t-102.5 -212.5t-140.5 -154.5t-153.5 -102.5t-142 -43.5l-24 37q151 39 253.5 163.5t141.5 325.5q-83 -49 -190 -49q-92 0 -161 18.5t-112 50t-69.5 80t-36.5 102t-10 122.5zM252 797 q0 -51 9.5 -97.5t30.5 -91t62.5 -71.5t98.5 -27q134 0 204 47q13 93 13 182q0 110 -18 192t-49.5 129t-70 70t-83.5 23q-88 0 -142.5 -99.5t-54.5 -256.5z" />
<glyph unicode=":" horiz-adv-x="499" d="M127 104q0 49 33.5 89t87.5 40q47 0 86 -36t39 -86q0 -49 -34.5 -90t-88.5 -41q-47 0 -85 37t-38 87zM127 780q0 49 33.5 89t87.5 40q47 0 86 -36.5t39 -86.5q0 -49 -34.5 -90t-88.5 -41q-47 0 -85 37.5t-38 87.5z" />
<glyph unicode=";" horiz-adv-x="536" d="M131 88q0 55 39 86t78 31q73 0 119.5 -64.5t46.5 -152.5q0 -47 -21 -88t-48.5 -66.5t-67 -47.5t-65 -32t-52.5 -18v57q51 7 105 57t54 113q0 36 -3.5 43.5t-16.5 7.5q-5 0 -23 -13t-40 -13q-46 0 -75.5 27t-29.5 73zM145 780q0 49 33.5 89t87.5 40q47 0 86 -36.5 t39 -86.5q0 -49 -34.5 -90t-88.5 -41q-47 0 -85 37.5t-38 87.5z" />
<glyph unicode="&#x3c;" horiz-adv-x="952" d="M61 606v90l754 353v-82l-676 -316l676 -315v-82z" />
<glyph unicode="=" horiz-adv-x="991" d="M133 483v90h725v-90h-725zM133 729v90h725v-90h-725z" />
<glyph unicode="&#x3e;" horiz-adv-x="952" d="M137 254v82l676 315l-676 316v82l754 -353v-90z" />
<glyph unicode="?" horiz-adv-x="806" d="M59 1016q0 47 19.5 94t57.5 88t102 66.5t145 25.5q98 0 171.5 -30t112 -79t56.5 -101t18 -107q0 -56 -25.5 -113t-64 -102.5t-83.5 -94t-83.5 -88.5t-64 -83.5t-25.5 -81.5q0 -10 -9 -19.5t-17 -9.5t-17.5 9.5t-9.5 19.5q0 63 22 122.5t54 107.5t63.5 97.5t53.5 113 t22 132.5q0 130 -45.5 188t-149.5 58q-79 0 -129.5 -47.5t-50.5 -98.5q0 -25 15.5 -52t15.5 -50q0 -31 -19.5 -50.5t-48.5 -19.5q-35 0 -60.5 26t-25.5 79zM250 104q0 49 33.5 89t87.5 40q47 0 86 -36t39 -86q0 -49 -34.5 -90t-88.5 -41q-47 0 -85 37t-38 87z" />
<glyph unicode="@" horiz-adv-x="1282" d="M90 582q0 119 32.5 222t89 178t131.5 129t162 81t179 27q95 0 178.5 -32t148.5 -93.5t102.5 -160.5t37.5 -224q0 -55 -21.5 -122t-61.5 -133t-110.5 -110.5t-156.5 -44.5q-38 0 -70.5 24.5t-32.5 79.5q0 21 2 33q-89 -110 -192 -110q-78 0 -120 59.5t-42 144.5 q0 89 44 175t111 138t134 52q60 0 99.5 -36t53.5 -95l29 108h109l-121 -456q-2 -4 -2 -13q0 -30 47 -30q52 0 96 40t68.5 95.5t37.5 105t13 78.5q0 110 -22.5 192t-57.5 128.5t-86.5 74.5t-99.5 37t-107 9q-98 0 -189 -35.5t-164.5 -101.5t-118 -171.5t-44.5 -234.5 q0 -99 33 -186.5t87 -149.5t121.5 -107t138 -66.5t136.5 -21.5q67 0 128.5 15t104.5 34t85.5 54t65 57.5t49.5 62.5t33 51t22 40l32 -17q-28 -64 -59 -115.5t-77 -101.5t-100.5 -84t-130.5 -54.5t-165 -20.5q-84 0 -168.5 27t-160 80t-134 125t-93 168t-34.5 202zM436 553 q0 -60 26.5 -99.5t78.5 -39.5q76 0 141.5 86t65.5 192q0 61 -26.5 101.5t-78.5 40.5q-76 0 -141.5 -88t-65.5 -193z" />
<glyph unicode="A" horiz-adv-x="1118" d="M-16 0v43q63 0 92 10.5t37 32.5l397 1112h98l398 -1112q15 -43 131 -43v-43h-449v43q94 0 119 25l-115 313h-393l-106 -301q11 -21 38 -29t88 -8v-43h-335zM324 449h344l-174 477z" />
<glyph unicode="B" horiz-adv-x="1142" d="M86 0v43q63 0 91.5 9.5t37.5 31.5v1030q-9 22 -37.5 31.5t-91.5 9.5v43h377q106 0 194 -16.5t146.5 -43.5t99 -64t58.5 -77t18 -82q0 -208 -217 -282q78 -18 139 -49.5t96.5 -70t53.5 -80t18 -83.5q0 -75 -29 -137.5t-87.5 -110.5t-154 -75t-220.5 -27h-492zM403 70h175 q81 0 138.5 20.5t89 59.5t45 87t13.5 111q0 34 -8 66t-30 65.5t-56 58t-90 40.5t-127 16h-150v-524zM403 653h84q152 0 219.5 67.5t67.5 192.5q0 215 -311 215h-60v-475z" />
<glyph unicode="C" horiz-adv-x="1150" d="M86 582q0 144 51.5 266t138 202t198.5 124.5t233 44.5q45 0 93 -15.5t84 -31t50 -15.5q24 0 24 41h48l20 -260h-45q-13 93 -80.5 152t-191.5 59q-177 0 -293.5 -145.5t-116.5 -376.5q0 -138 35 -250t94 -182.5t133.5 -108t155.5 -37.5q102 0 202.5 70.5t129.5 150.5 l49 -24q-21 -51 -53 -94.5t-81.5 -84t-123.5 -64t-164 -23.5q-138 0 -252 50t-186.5 134.5t-112 192t-39.5 225.5z" />
<glyph unicode="D" horiz-adv-x="1251" d="M86 0v43q63 0 91.5 9.5t37.5 31.5v1030q-9 22 -37.5 31.5t-91.5 9.5v43h471q273 0 438.5 -165t165.5 -431q0 -267 -161 -434.5t-418 -167.5h-496zM403 70h179q51 0 102 17.5t100.5 58t87 100t61 151t23.5 203.5q0 138 -35.5 245t-94 169t-127 93.5t-142.5 31.5h-154 v-1069z" />
<glyph unicode="E" horiz-adv-x="1038" d="M86 0v43q63 0 91.5 9.5t37.5 31.5v1030q-9 22 -37.5 31.5t-91.5 9.5v43h825v-199h-43q0 63 -9.5 91.5t-31.5 37.5h-424v-471h287q22 9 31.5 37.5t9.5 91.5h43v-327h-43q0 63 -9.5 91.5t-31.5 37.5h-287v-518h467q51 21 93 129h41l-50 -199h-868z" />
<glyph unicode="F" horiz-adv-x="962" d="M86 0v43q63 0 91.5 9.5t37.5 31.5v1030q-9 22 -37.5 31.5t-91.5 9.5v43h825v-199h-43q0 63 -9.5 91.5t-31.5 37.5h-424v-471h287q22 9 31.5 37.5t9.5 91.5h43v-327h-43q0 63 -9.5 91.5t-31.5 37.5h-287v-504q9 -22 37.5 -31.5t91.5 -9.5v-43h-446z" />
<glyph unicode="G" horiz-adv-x="1263" d="M82 582q0 144 54.5 266t145 202t205 124.5t236.5 44.5q60 0 148.5 -31t99.5 -31q24 0 24 41h47l21 -260h-45q-13 90 -90 150.5t-203 60.5q-115 0 -214 -75t-157.5 -205.5t-58.5 -282.5q0 -114 25 -207.5t65.5 -153.5t93.5 -101t107.5 -58t109.5 -17q117 0 217 39v420 q-9 22 -37.5 31.5t-91.5 9.5v43h447v-43q-63 0 -91.5 -9.5t-37.5 -31.5v-344q-15 -27 -45.5 -56t-79 -59t-123.5 -49.5t-162 -19.5q-111 0 -209 32.5t-170.5 90t-125 133.5t-79 164.5t-26.5 181.5z" />
<glyph unicode="H" horiz-adv-x="1331" d="M86 0v43q63 0 91.5 9.5t37.5 31.5v1030q-9 22 -37.5 31.5t-91.5 9.5v43h446v-43q-63 0 -91.5 -9.5t-37.5 -31.5v-457h525v457q-9 22 -37.5 31.5t-91.5 9.5v43h446v-43q-63 0 -91.5 -9.5t-37.5 -31.5v-1030q9 -22 37.5 -31.5t91.5 -9.5v-43h-446v43q63 0 91.5 9.5 t37.5 31.5v504h-525v-504q9 -22 37.5 -31.5t91.5 -9.5v-43h-446z" />
<glyph unicode="I" horiz-adv-x="618" d="M86 0v43q63 0 91.5 9.5t37.5 31.5v1030q-9 22 -37.5 31.5t-91.5 9.5v43h446v-43q-63 0 -91.5 -9.5t-37.5 -31.5v-1030q9 -22 37.5 -31.5t91.5 -9.5v-43h-446z" />
<glyph unicode="J" horiz-adv-x="843" d="M14 164q0 46 24 74t64 28q37 0 65 -18t28 -53q0 -69 -52 -86q15 -15 24 -22.5t47 -20.5t87 -13q34 0 60.5 9t44.5 23.5t30.5 41.5t19.5 53.5t11 70t5 81t1 94.5v688q-9 22 -37.5 31.5t-91.5 9.5v43h447v-43q-63 0 -91.5 -9.5t-37.5 -31.5v-762q0 -56 -9.5 -106.5 t-33.5 -100t-61.5 -85.5t-98 -58t-137.5 -22q-145 0 -226.5 58t-81.5 126z" />
<glyph unicode="K" horiz-adv-x="1185" d="M86 0v43q63 0 91.5 9.5t37.5 31.5v1030q-9 22 -37.5 31.5t-91.5 9.5v43h442v-43q-63 0 -91.5 -9.5t-37.5 -31.5v-1030q9 -22 37.5 -31.5t91.5 -9.5v-43h-442zM410 643l501 498q-28 14 -104 14v43h321v-43q-39 0 -67.5 -9t-38 -17t-21.5 -21l-411 -408l481 -624 q33 -33 129 -33v-43h-399v43q49 0 76 6z" />
<glyph unicode="L" horiz-adv-x="1013" d="M86 0v43q63 0 91.5 9.5t37.5 31.5v1030q-9 22 -37.5 31.5t-91.5 9.5v43h446v-43q-63 0 -91.5 -9.5t-37.5 -31.5v-1044h467q51 21 93 129h41l-50 -199h-868z" />
<glyph unicode="M" horiz-adv-x="1646" d="M86 0v43q63 0 91.5 9.5t37.5 31.5v1030q-9 22 -37.5 31.5t-91.5 9.5v43h299l436 -952l436 952h304v-43q-63 0 -91.5 -9.5t-37.5 -31.5v-1030q9 -22 37.5 -31.5t91.5 -9.5v-43h-447v43q63 0 91.5 9.5t37.5 31.5v920l-459 -1004h-30l-469 1016v-932q9 -22 37.5 -31.5 t91.5 -9.5v-43h-328z" />
<glyph unicode="N" horiz-adv-x="1304" d="M86 0v43q63 0 91.5 9.5t37.5 31.5v1030q-9 22 -37.5 31.5t-91.5 9.5v43h274l678 -838v754q-9 22 -37.5 31.5t-91.5 9.5v43h328v-43q-63 0 -91.5 -9.5t-37.5 -31.5v-1114h-18l-805 1018v-934q9 -22 37.5 -31.5t91.5 -9.5v-43h-328z" />
<glyph unicode="O" horiz-adv-x="1312" d="M90 598q0 125 41.5 238t114.5 198t180 135t231 50q164 0 295.5 -85.5t202 -227t70.5 -308.5t-71.5 -307.5t-202.5 -225.5t-294 -85q-166 0 -297 85t-200.5 225.5t-69.5 307.5zM295 614q0 -78 13.5 -156t43.5 -152t72.5 -131t105 -91.5t136.5 -34.5t135 33t100.5 86 t67 123.5t39.5 143.5t12 147q0 77 -14 155.5t-44.5 153t-73 131.5t-104.5 92t-135 35q-74 0 -135 -33t-100.5 -86.5t-67 -124.5t-39.5 -144t-12 -147z" />
<glyph unicode="P" horiz-adv-x="1101" d="M86 0v43q63 0 91.5 9.5t37.5 31.5v1030q-9 22 -37.5 31.5t-91.5 9.5v43h463q131 0 234.5 -29t162.5 -75.5t89 -99.5t30 -107q0 -154 -123 -248t-369 -94h-170v-461q9 -22 37.5 -31.5t91.5 -9.5v-43h-446zM403 614h170q157 0 222 63t65 208q0 243 -311 243h-146v-514z" />
<glyph unicode="Q" horiz-adv-x="1312" d="M90 598q0 125 41.5 238t114.5 198t180 135t231 50q164 0 295.5 -85.5t202 -227t70.5 -308.5q0 -158 -64.5 -293.5t-179.5 -220.5q8 -15 24 -45.5t24.5 -46t23 -39.5t26 -36.5t27.5 -26.5t33 -19.5t37 -5.5q31 0 59.5 9.5t46.5 23.5t31.5 28t19.5 24l6 9l31 -22 q-2 -6 -7 -16t-22.5 -35t-38 -44t-54.5 -35t-72 -16q-58 0 -107.5 13t-83.5 32.5t-64 50t-49 58t-38 63.5q-86 -28 -177 -28q-166 0 -297 85t-200.5 225.5t-69.5 307.5zM295 614q0 -127 36.5 -249t106.5 -205q92 139 242 139q142 0 233 -113q53 76 80 182t27 214 q0 77 -14 155.5t-44.5 153t-73 131.5t-104.5 92t-135 35q-74 0 -135 -33t-100.5 -86.5t-67 -124.5t-39.5 -144t-12 -147zM473 125q82 -76 193 -76q73 0 133 31q-32 65 -60 97t-71 32q-116 0 -195 -84z" />
<glyph unicode="R" horiz-adv-x="1189" d="M86 0v43q63 0 91.5 9.5t37.5 31.5v1030q-9 22 -37.5 31.5t-91.5 9.5v43h463q131 0 234 -27.5t162.5 -73t89.5 -97t30 -105.5q0 -113 -67 -198.5t-201 -123.5l272 -487q21 -43 135 -43v-43h-88q-144 0 -187 16t-85 90l-248 439h-193v-461q9 -22 37.5 -31.5t91.5 -9.5v-43 h-446zM403 614h170q164 0 225.5 63.5t61.5 215.5q0 113 -68 174t-243 61h-146v-514z" />
<glyph unicode="S" horiz-adv-x="978" d="M104 0v285h46q12 -63 46.5 -110.5t84 -74t104 -39t113.5 -12.5q109 0 178 49t69 148q0 45 -19.5 82t-59.5 68.5t-76.5 53.5t-94.5 53t-89 50q-45 28 -60 37t-56.5 37.5t-59 44.5t-47 46.5t-42.5 55.5t-24 58.5t-11 68.5q0 79 51 153t134.5 119.5t173.5 45.5 q60 0 148.5 -31t99.5 -31q24 0 24 41h47l21 -260h-45q-13 90 -90 150.5t-203 60.5q-94 0 -150.5 -60t-56.5 -122q0 -39 19 -72.5t58 -63t74 -50.5t92.5 -51.5t88.5 -49.5q143 -87 197 -134q124 -108 124 -243q0 -78 -36 -141.5t-94.5 -102t-129 -59t-143.5 -20.5 q-74 0 -143 15t-113 30.5t-57 15.5t-29 -12t-16 -29h-48z" />
<glyph unicode="T" horiz-adv-x="1101" d="M37 999v199h1028v-199h-43q0 63 -9.5 91.5t-31.5 37.5h-336v-1044q9 -22 37.5 -31.5t91.5 -9.5v-43h-446v43q63 0 91.5 9.5t37.5 31.5v1044h-336q-22 -9 -31.5 -37.5t-9.5 -91.5h-43z" />
<glyph unicode="U" horiz-adv-x="1265" d="M51 1155v43h447v-43q-63 0 -91.5 -9.5t-37.5 -31.5v-635q0 -204 89.5 -317t233.5 -113q137 0 230.5 114.5t93.5 303.5v647q-9 22 -37.5 31.5t-91.5 9.5v43h327v-43q-63 0 -91.5 -9.5t-37.5 -31.5v-606q0 -137 -33.5 -241t-91.5 -165t-130.5 -91.5t-157.5 -30.5 q-492 0 -492 528v606q-9 22 -37.5 31.5t-91.5 9.5z" />
<glyph unicode="V" horiz-adv-x="1114" d="M-20 1155v43h448v-43q-94 0 -119 -25l314 -858l301 846q-11 20 -38.5 28.5t-88.5 8.5v43h336v-43q-114 0 -125 -33l-402 -1122h-98l-397 1112q-15 43 -131 43z" />
<glyph unicode="W" horiz-adv-x="1722" d="M-20 1155v43h448v-43q-94 0 -119 -25l314 -856l196 555l-100 283q-15 43 -131 43v43h448v-43q-93 0 -118 -25l313 -858l301 846q-11 20 -38.5 28.5t-88.5 8.5v43h336v-43q-63 0 -92 -10.5t-37 -32.5l-398 -1112h-98l-256 715l-254 -715h-98l-397 1112q-15 43 -131 43z " />
<glyph unicode="X" horiz-adv-x="1062" d="M12 1155v43h449v-43q-97 0 -119 -25l223 -391l244 383q-20 33 -125 33v43h336v-43q-56 0 -83.5 -8t-39.5 -27l-291 -452l334 -582q22 -43 131 -43v-43h-448v43q96 0 118 25l-243 428l-271 -420q20 -33 125 -33v-43h-336v43q60 0 89 11.5t42 33.5l308 479l-312 547 q-12 22 -42 31.5t-89 9.5z" />
<glyph unicode="Y" horiz-adv-x="1153" d="M-18 1155v43h448v-43q-97 0 -119 -25l318 -555l327 543q-21 37 -127 37v43h336v-43q-86 0 -116 -27l-369 -612v-432q9 -22 37.5 -31.5t91.5 -9.5v-43h-447v43q63 0 92 9.5t38 31.5v367l-379 663q-27 41 -131 41z" />
<glyph unicode="Z" horiz-adv-x="1024" d="M35 0l651 1137h-498q-22 -9 -31.5 -37.5t-9.5 -91.5h-43v190h826l-651 -1137h557q62 26 94 136h43l-53 -197h-885z" />
<glyph unicode="[" horiz-adv-x="589" d="M152 -319v1579h401v-74h-238v-1432h238v-73h-401z" />
<glyph unicode="\" horiz-adv-x="937" d="M41 1217l59 36l797 -1273l-59 -37z" />
<glyph unicode="]" horiz-adv-x="589" d="M37 -246h237v1432h-237v74h401v-1579h-401v73z" />
<glyph unicode="^" horiz-adv-x="933" d="M102 705l336 401h56l337 -401l-69 -58l-295 352l-295 -352z" />
<glyph unicode="_" horiz-adv-x="917" d="M86 -102h745v-91h-745v91z" />
<glyph unicode="`" horiz-adv-x="614" d="M123 1356h217l152 -332h-54z" />
<glyph unicode="a" d="M66 229q0 39 20.5 72t58.5 58t82 44t102.5 35.5t107.5 28t109.5 25.5t96.5 24q0 172 -45 252t-160 80q-89 0 -142 -21t-67 -77q29 0 50.5 -20.5t21.5 -63.5q0 -35 -27.5 -53.5t-64.5 -18.5q-40 0 -64 28t-24 74q0 107 88.5 166.5t249.5 59.5q97 0 170 -26.5t115 -74.5 t62.5 -108.5t20.5 -134.5v-406q0 -65 22 -96t52 -31q27 0 48.5 14t21.5 35h37q0 -58 -42.5 -84t-146.5 -26q-103 0 -145 84q-121 -88 -301 -88q-69 0 -121.5 11.5t-96 38.5t-66.5 77t-23 122zM256 225q0 -98 38.5 -137t113.5 -39q60 0 129.5 20t117.5 50q-12 46 -12 110v242 q-23 -7 -77 -22t-88 -25t-81 -30.5t-74 -41.5t-47 -54t-20 -73z" />
<glyph unicode="b" horiz-adv-x="1101" d="M10 1155v47q38 0 152 44t162 44v-456q100 96 280 96q52 0 105 -13t110.5 -47.5t101.5 -86t72.5 -136.5t28.5 -192q0 -229 -128 -352t-335 -123q-149 0 -244 77q-20 -13 -46.5 -28.5t-66 -32t-63.5 -16.5v1165q-127 10 -129 10zM324 121q81 -72 223 -72q113 0 196.5 107.5 t83.5 298.5q0 181 -67.5 293t-175.5 112q-173 0 -260 -96v-643z" />
<glyph unicode="c" horiz-adv-x="980" d="M80 496q0 86 32 163t90 135.5t145 93t190 34.5q163 0 250 -55.5t87 -161.5q0 -46 -24 -74.5t-64 -28.5q-37 0 -64.5 18.5t-27.5 53.5q0 43 21.5 63.5t50.5 20.5q-26 102 -209 102q-126 0 -204.5 -96t-78.5 -260q0 -114 45 -218t119 -166.5t154 -62.5q92 0 159.5 31 t127.5 105l49 -25q-60 -97 -154.5 -142.5t-251.5 -45.5q-61 0 -118.5 13.5t-118 49.5t-104.5 92t-72.5 149t-28.5 212z" />
<glyph unicode="d" horiz-adv-x="1099" d="M80 455q0 229 128 352t335 123q118 0 200 -49v264q-127 10 -129 10v47q38 0 152 44t162 44v-1165q128 -10 129 -10v-47q-39 0 -153 -44t-161 -44v67q-96 -67 -245 -67q-52 0 -105 13t-110.5 47.5t-101.5 86t-72.5 136.5t-28.5 192zM274 455q0 -75 30 -168t88.5 -165.5 t125.5 -72.5q135 0 225 66v702q-73 43 -188 43q-53 0 -102.5 -26.5t-90 -75.5t-64.5 -128t-24 -175z" />
<glyph unicode="e" horiz-adv-x="1009" d="M80 496q0 87 28 163.5t80 135.5t133 93t181 34q111 0 196 -35t135 -95.5t74.5 -135.5t24.5 -162h-658q2 -112 47 -213.5t118.5 -162.5t152.5 -61q92 0 159.5 31t127.5 105l49 -25q-60 -97 -154.5 -142.5t-251.5 -45.5q-61 0 -118.5 13.5t-118 49.5t-104.5 92t-72.5 149 t-28.5 212zM276 557h455q-6 71 -18 120.5t-37 93.5t-70.5 66.5t-111.5 22.5q-72 0 -138.5 -84.5t-79.5 -218.5z" />
<glyph unicode="f" horiz-adv-x="555" d="M53 0v43q63 0 91.5 9.5t37.5 31.5v756h-102v61h102v70q0 169 69.5 244t184.5 75q121 0 182.5 -37.5t61.5 -83.5q0 -34 -24 -54.5t-60 -20.5q-29 0 -45 14t-22 34t-11 39.5t-19.5 33.5t-41.5 14q-39 0 -64.5 -59t-25.5 -171v-98h127v-61h-127v-756q9 -22 37.5 -31.5 t91.5 -9.5v-43h-443z" />
<glyph unicode="g" horiz-adv-x="1064" d="M80 446q0 229 128 352.5t335 123.5q129 0 225 -66q103 66 158 66v-863q0 -210 -102 -339.5t-296 -129.5q-174 0 -279.5 59.5t-105.5 125.5q0 46 24 74t64 28q37 0 65 -18.5t28 -53.5q0 -38 -12 -56.5t-40 -29.5q10 -10 32.5 -21t78 -22.5t125.5 -11.5q100 0 160 86 t71 291q-92 -61 -241 -61q-53 0 -105.5 12t-110.5 45t-101.5 83.5t-72 134.5t-28.5 191zM274 446q0 -180 68 -288.5t176 -108.5q136 0 223 60v24v676q-73 43 -186 43t-197 -107.5t-84 -298.5z" />
<glyph unicode="h" horiz-adv-x="1126" d="M43 0v43q63 0 91.5 9.5t37.5 31.5v1061q-127 10 -129 10v47q39 0 152 44t161 44v-463q111 95 244 95q195 0 278 -64t83 -219v-555q9 -22 37.5 -31.5t91.5 -9.5v-43h-443v43q63 0 91.5 9.5t37.5 31.5v569q0 93 -42.5 146t-145.5 53q-129 0 -232 -90v-678q9 -22 37.5 -31.5 t91.5 -9.5v-43h-442z" />
<glyph unicode="i" horiz-adv-x="548" d="M63 0v43q63 0 92 9.5t38 31.5v692q-127 10 -130 10v48q39 0 153 44t161 44v-838q9 -22 37.5 -31.5t91.5 -9.5v-43h-443zM166 1174q0 47 29.5 81.5t76.5 34.5q46 0 80.5 -35t34.5 -88q0 -46 -30 -80t-78 -34q-46 0 -79.5 34t-33.5 87z" />
<glyph unicode="j" horiz-adv-x="497" d="M-182 -231q0 37 27 59t61 22q32 0 56 -22t24 -57q0 -29 -21 -50q0 -34 28.5 -51.5t69.5 -17.5q42 0 76.5 60.5t34.5 168.5v895q-128 10 -129 10v48q39 0 152 44t161 44v-1012q0 -87 -23 -151t-62.5 -99.5t-86.5 -52.5t-102 -17q-130 0 -198 45.5t-68 133.5zM147 1174 q0 47 29.5 81.5t77.5 34.5q46 0 80.5 -35t34.5 -88q0 -46 -30.5 -80t-78.5 -34q-46 0 -79.5 34t-33.5 87z" />
<glyph unicode="k" horiz-adv-x="1026" d="M43 0v43q63 0 91.5 9.5t37.5 31.5v1061q-127 10 -129 10v47q39 0 152 44t161 44v-1206q9 -22 37.5 -31.5t91.5 -9.5v-43h-442zM371 520l362 326q-30 12 -100 12v43h321v-43q-75 0 -110 -27l-291 -260l352 -489q15 -22 43 -30.5t86 -8.5v-43h-399v43q51 0 78 6z" />
<glyph unicode="l" horiz-adv-x="528" d="M43 0v43q63 0 91.5 9.5t37.5 31.5v1061q-127 10 -129 10v47q39 0 152 44t161 44v-1206q9 -22 37.5 -31.5t91.5 -9.5v-43h-442z" />
<glyph unicode="m" horiz-adv-x="1685" d="M63 0v43q63 0 92 9.5t38 31.5v692q-127 10 -130 10v48q39 0 153 44t161 44v-93q110 93 227 93q246 0 316 -119q115 119 256 119q344 0 344 -234v-604q9 -22 37.5 -31.5t91.5 -9.5v-43h-443v43q63 0 91.5 9.5t37.5 31.5v528q0 133 -39.5 186.5t-132.5 53.5 q-121 0 -223 -98q8 -27 8 -66v-604q9 -22 37.5 -31.5t91.5 -9.5v-43h-442v43q63 0 91.5 9.5t37.5 31.5v528q0 133 -39.5 186.5t-132.5 53.5q-117 0 -215 -90v-678q9 -22 37.5 -31.5t91.5 -9.5v-43h-443z" />
<glyph unicode="n" horiz-adv-x="1144" d="M63 0v43q63 0 92 9.5t38 31.5v692q-127 10 -130 10v48q39 0 153 44t161 44v-95q111 95 244 95q191 0 275.5 -70.5t84.5 -220.5v-547q9 -22 37.5 -31.5t91.5 -9.5v-43h-442v43q63 0 91.5 9.5t37.5 31.5v561q0 207 -189 207q-128 0 -231 -90v-678q9 -22 37.5 -31.5 t91.5 -9.5v-43h-443z" />
<glyph unicode="o" horiz-adv-x="1116" d="M80 467q0 94 27 173.5t81.5 144t148 101t216.5 36.5q241 0 362 -128.5t121 -351.5q0 -75 -16 -141.5t-52 -125.5t-89.5 -102t-133 -68t-178.5 -25q-230 0 -358.5 133.5t-128.5 353.5zM276 508q0 -234 89 -350.5t229 -116.5q111 0 178.5 99t67.5 255q0 463 -322 463 q-108 0 -175 -103.5t-67 -246.5z" />
<glyph unicode="p" horiz-adv-x="1101" d="M45 -350q63 0 91.5 9.5t37.5 31.5v1085q-128 10 -129 10v48q39 0 152 44t161 44v-68q97 68 246 68q52 0 105 -13t110.5 -47.5t101.5 -86t72.5 -137t28.5 -192.5q0 -228 -127.5 -347t-335.5 -119q-120 0 -201 45v-334q9 -22 37.5 -31.5t91.5 -9.5v-43h-442v43zM358 90 q80 -41 189 -41q113 0 196.5 104.5t83.5 292.5q0 75 -30 168t-88 165.5t-125 72.5q-141 0 -226 -66v-696z" />
<glyph unicode="q" horiz-adv-x="1071" d="M80 446q0 229 128 352.5t335 123.5q136 0 229 -68q106 68 160 68v-1231q9 -22 37.5 -31.5t91.5 -9.5v-43h-443v43q63 0 92 9.5t38 31.5v356q-96 -67 -250 -67q-53 0 -105.5 12t-110.5 45t-101.5 83.5t-72 134.5t-28.5 191zM274 446q0 -180 68 -288.5t176 -108.5 q143 0 230 64v692q-73 47 -193 47q-113 0 -197 -107.5t-84 -298.5z" />
<glyph unicode="r" horiz-adv-x="808" d="M63 0v43q63 0 92 9.5t38 31.5v692q-127 10 -130 10v48q39 0 153 44t161 44v-91q103 91 203 91q91 0 154 -35.5t63 -77.5q0 -36 -22.5 -55t-59.5 -19q-29 0 -49 18.5t-29.5 40t-30 40t-49.5 18.5q-79 0 -180 -88v-680q9 -22 37.5 -31.5t91.5 -9.5v-43h-443z" />
<glyph unicode="s" horiz-adv-x="829" d="M92 0v289h45q14 -104 97 -176t190 -72q32 0 73.5 12t81 47.5t39.5 87.5q0 45 -38 86.5t-88.5 68.5t-116.5 50q-47 17 -78 30t-71 37.5t-64 51.5t-41 69t-17 93q0 115 83.5 181.5t203.5 66.5q52 0 99.5 -15.5t79.5 -31t46 -15.5q11 0 18 11.5t7 29.5h47v-246h-45 q-12 85 -83 145t-163 60q-66 0 -109.5 -30.5t-43.5 -84.5q0 -26 7 -48t23 -39.5t31 -29.5t43.5 -25t46.5 -20.5t54.5 -20t54.5 -19.5q106 -41 182 -115.5t76 -173.5q0 -126 -100.5 -200t-253.5 -74q-54 0 -101 17t-77 34.5t-44 17.5q-12 0 -28.5 -16t-16.5 -33h-49z" />
<glyph unicode="t" horiz-adv-x="681" d="M29 840v61q97 0 174.5 80t77.5 217h88v-297h176v-61h-176v-652q0 -64 23 -97.5t83 -33.5q36 0 74.5 36.5t52.5 99.5l49 -25q-44 -188 -245 -188q-234 0 -234 225v635h-143z" />
<glyph unicode="u" horiz-adv-x="1126" d="M35 858v43h313v-645q0 -207 189 -207q128 0 231 90v678q-9 22 -37.5 31.5t-91.5 9.5v43h313v-776q128 -10 129 -10v-47q-39 0 -152 -44t-161 -44v94q-110 -94 -244 -94q-191 0 -275.5 70t-84.5 220v547q-9 22 -37.5 31.5t-91.5 9.5z" />
<glyph unicode="v" d="M-10 858v43h397v-43q-59 0 -86 -8l244 -600l233 586q-28 22 -114 22v43h335v-43q-113 0 -127 -39l-327 -819h-101l-325 817q-9 22 -37.5 31.5t-91.5 9.5z" />
<glyph unicode="w" horiz-adv-x="1556" d="M-10 858v43h397v-43q-59 0 -86 -8l244 -600l184 461l-43 106q-9 22 -37.5 31.5t-91.5 9.5v43h397v-43q-59 0 -86 -8l244 -600l234 586q-28 22 -115 22v43h336v-43q-111 0 -127 -39l-328 -819h-100l-234 586l-233 -586h-101l-325 817q-9 22 -37.5 31.5t-91.5 9.5z" />
<glyph unicode="x" horiz-adv-x="956" d="M14 0v43q62 0 93 10t47 33l239 356l-237 383q-20 33 -121 33v43h397v-43q-50 0 -80 -6l152 -246l160 238q-25 14 -103 14v43h336v-43q-62 0 -91.5 -9t-45.5 -30l-201 -299l272 -438q13 -22 42 -30.5t85 -8.5v-43h-397v43q51 0 78 6l-190 307l-201 -299q25 -14 102 -14 v-43h-336z" />
<glyph unicode="y" d="M-10 858v43h397v-43q-59 0 -86 -8l244 -600l233 586q-28 22 -114 22v43h335v-43q-112 0 -127 -37l-411 -1030q-39 -96 -100 -140t-115 -44q-51 0 -81 27t-30 63q0 31 21.5 55.5t58.5 24.5q22 0 46.5 -17.5t37.5 -17.5q44 0 57 37l88 221l-325 817q-9 22 -37.5 31.5 t-91.5 9.5z" />
<glyph unicode="z" horiz-adv-x="870" d="M35 0l543 840h-394q-22 -9 -31.5 -37.5t-9.5 -91.5h-43v190h709l-543 -840h443q22 9 31.5 37.5t9.5 91.5h43v-190h-758z" />
<glyph unicode="{" horiz-adv-x="536" d="M45 428v47q79 0 116.5 26.5t37.5 96.5q0 34 -9.5 205.5t-9.5 224.5q0 189 299 189v-48q-79 0 -118 -26t-39 -96q0 -34 11 -206t11 -225q0 -119 -123 -163q123 -44 123 -164q0 -53 -11 -225.5t-11 -206.5q0 -69 38.5 -95t118.5 -26v-49q-299 0 -299 188q0 53 9.5 225.5 t9.5 206.5q0 70 -37.5 95.5t-116.5 25.5z" />
<glyph unicode="|" horiz-adv-x="385" d="M156 -61v1392h73v-1392h-73z" />
<glyph unicode="}" horiz-adv-x="536" d="M57 -266q79 0 118.5 26.5t39.5 96.5q0 34 -11 205.5t-11 224.5q0 120 122 164q-122 44 -122 163q0 53 11 226t11 207q0 69 -39 94.5t-119 25.5v50q299 0 299 -189q0 -53 -9 -225.5t-9 -206.5q0 -70 37.5 -95.5t116.5 -25.5v-47q-79 0 -116.5 -26.5t-37.5 -96.5 q0 -34 9 -205.5t9 -224.5q0 -188 -299 -188v47z" />
<glyph unicode="~" horiz-adv-x="1116" d="M123 426q0 270 209 270q60 0 252 -70.5t229 -70.5q78 0 106.5 34.5t28.5 106.5h53q0 -270 -210 -270q-60 0 -251.5 70.5t-228.5 70.5q-78 0 -106.5 -34.5t-28.5 -106.5h-53z" />
<glyph unicode="&#xa1;" horiz-adv-x="477" d="M115 954q0 49 34.5 90t88.5 41q47 0 84.5 -37t37.5 -87t-33 -90t-87 -40q-47 0 -86 36.5t-39 86.5zM139 -133q0 74 24.5 357.5t29.5 320.5q17 139 47 139t47 -139q6 -41 29.5 -322.5t23.5 -355.5q0 -45 -28 -68.5t-72 -23.5t-72.5 23.5t-28.5 68.5z" />
<glyph unicode="&#xa2;" horiz-adv-x="968" d="M63 496q0 86 32 163t90 135.5t145 93t190 34.5h29l45 252l74 -15l-43 -244q113 -15 173 -68t60 -142q0 -46 -24 -74.5t-64 -28.5q-37 0 -64.5 18.5t-27.5 53.5q0 43 21.5 63.5t50.5 20.5q-22 82 -136 98l-135 -774q48 -25 96 -25q92 0 159.5 31t127.5 105l49 -25 q-60 -97 -154.5 -142.5t-250.5 -45.5q-31 0 -45 2l-43 -244l-76 14l43 242q-65 17 -119.5 50.5t-101.5 91t-74 149.5t-27 211zM258 504q0 -110 42 -210t110 -163l129 729q-125 -2 -203 -98t-78 -258z" />
<glyph unicode="&#xa3;" horiz-adv-x="1091" d="M59 168q0 58 56 111t116 53q59 0 123 -31v10q0 62 -15 185.5t-17 210.5h-140v90h140q7 221 80 321.5t212 100.5q136 0 222 -47t86 -132q0 -37 -27 -59.5t-61 -22.5q-32 0 -56 22.5t-24 57.5q0 29 20 49q0 33 -46.5 51.5t-92.5 18.5q-62 0 -95 -82t-34 -278h217v-90h-215 q2 -49 10 -159t8 -183q0 -90 -20 -160q97 -58 196 -58q73 0 129.5 12.5t86.5 29.5t49.5 34.5t29.5 30t15 12.5q20 0 20 -24q0 -7 -7.5 -27t-22 -50t-40.5 -61t-59.5 -58t-84 -44.5t-107.5 -17.5q-129 0 -254 108q-74 -112 -193 -112q-99 0 -152 55.5t-53 132.5zM129 166 q0 -52 36 -84.5t91 -32.5q74 0 92 148q-65 65 -117 65q-39 0 -70.5 -28.5t-31.5 -67.5z" />
<glyph unicode="&#xa4;" horiz-adv-x="1046" d="M109 193l110 108q-80 108 -80 236q0 130 84 239l-114 113l65 65l113 -114q106 82 237 82q128 0 236 -80l110 112l66 -65l-111 -111q84 -105 84 -241q0 -132 -82 -238l109 -106l-66 -66l-106 109q-109 -84 -240 -84q-136 0 -241 84l-109 -109zM231 537q0 -121 85.5 -207 t207.5 -86t207.5 86t85.5 207t-85.5 206.5t-207.5 85.5t-207.5 -85.5t-85.5 -206.5z" />
<glyph unicode="&#xa5;" horiz-adv-x="1107" d="M49 1155v43h397v-43q-59 0 -86 -8l244 -600l234 586q-28 22 -115 22v43h336v-43q-113 0 -127 -39l-266 -665h161v-91h-174v-114h174v-90h-174v-72q9 -22 37.5 -31.5t91.5 -9.5v-43h-446v43q63 0 91.5 9.5t37.5 31.5v72h-178v90h178v114h-178v91h155l-264 663 q-9 22 -37.5 31.5t-91.5 9.5z" />
<glyph unicode="&#xa6;" horiz-adv-x="393" d="M160 -61v589h73v-589h-73zM160 741v590h73v-590h-73z" />
<glyph unicode="&#xa7;" horiz-adv-x="839" d="M82 430q0 252 201 320q-148 144 -148 258q0 80 94 146.5t228 66.5q92 0 170 -73.5t78 -127.5q0 -33 -18.5 -57.5t-51.5 -24.5q-29 0 -51.5 23t-22.5 51q0 61 -32.5 114.5t-88.5 53.5q-69 0 -109 -26t-40 -97q0 -34 48 -94t116.5 -128.5t137.5 -141t117 -150t48 -137.5 q0 -252 -201 -320q148 -144 148 -258q0 -80 -94 -146.5t-228 -66.5q-92 0 -170 73.5t-78 127.5q0 33 18.5 57.5t51.5 24.5q29 0 51.5 -23t22.5 -51q0 -61 32.5 -114.5t87.5 -53.5q69 0 109.5 26t40.5 97q0 34 -48 94t-116.5 128.5t-137.5 141t-117 150t-48 137.5zM205 549 q0 -28 8 -57.5t18 -52.5t32.5 -54t36.5 -49t47.5 -51.5t48 -47t53.5 -49.5t51 -47q62 19 98.5 57t36.5 89q0 28 -8 57t-18 52.5t-32 54t-37 49.5t-47.5 51t-48 46.5t-53.5 49.5t-51 47q-62 -19 -98.5 -56.5t-36.5 -88.5z" />
<glyph unicode="&#xa8;" horiz-adv-x="823" d="M123 1124q0 41 29.5 71t70.5 30t71 -30t30 -71t-30 -70.5t-71 -29.5t-70.5 29.5t-29.5 70.5zM500 1124q0 41 29.5 71t70.5 30t70.5 -30t29.5 -71t-29.5 -70.5t-70.5 -29.5t-70.5 29.5t-29.5 70.5z" />
<glyph unicode="&#xa9;" horiz-adv-x="1312" d="M92 549q0 153 76 283t206 206t283 76t283.5 -76t206.5 -206t76 -283t-76 -283t-206.5 -206t-283.5 -76t-283 76t-206 206t-76 283zM147 549q0 -138 68.5 -255.5t186 -186t255.5 -68.5t255.5 68.5t186 186t68.5 255.5t-68.5 255.5t-186 186t-255.5 68.5t-255.5 -68.5 t-186 -186t-68.5 -255.5zM362 549q0 100 46.5 177t118.5 115t155 38q27 0 52.5 -7.5t41.5 -15.5t19 -8q2 0 2 20h45l10 -151h-41q-10 51 -39 78.5t-90 27.5q-85 0 -139 -71t-54 -181q0 -133 59 -205.5t138 -72.5q54 0 100.5 36.5t61.5 78.5l43 -21q-58 -149 -225 -149 q-96 0 -167 46t-104 115t-33 150z" />
<glyph unicode="&#xaa;" horiz-adv-x="743" d="M131 264v53h492v-53h-492zM131 575q0 30 19.5 53.5t57.5 39t69 25t79.5 20t63.5 14.5q-2 83 -21.5 115t-70.5 32q-72 0 -90 -30q32 -8 32 -51q0 -26 -18.5 -35.5t-38.5 -9.5q-26 0 -39.5 18.5t-13.5 42.5q0 61 48.5 92t129.5 31q100 0 147 -51t47 -131v-203q0 -53 27 -53 q17 0 21 5.5t4 18.5h39q0 -42 -23.5 -59t-81.5 -17q-52 0 -76 37q-63 -39 -147 -39q-164 0 -164 135zM246 573q0 -47 16 -62t49 -15q59 0 113 28q-4 23 -4 51v107q-8 -3 -34.5 -10.5t-36.5 -11t-31 -11t-30 -14t-21 -16t-16.5 -21t-4.5 -25.5z" />
<glyph unicode="&#xab;" horiz-adv-x="894" d="M80 612q0 38 26 52l332 192v-53l-178 -191l178 -190v-53l-332 192q-26 14 -26 51zM408 612q0 38 26 52l332 192v-53l-178 -191l178 -190v-53l-332 192q-26 14 -26 51z" />
<glyph unicode="&#xac;" horiz-adv-x="868" d="M133 606v90h598v-270h-86v180h-512z" />
<glyph unicode="&#xad;" horiz-adv-x="794" d="M127 606v90h541v-90h-541z" />
<glyph unicode="&#xae;" horiz-adv-x="1312" d="M92 549q0 153 76 283t206 206t283 76t283.5 -76t206.5 -206t76 -283t-76 -283t-206.5 -206t-283.5 -76t-283 76t-206 206t-76 283zM147 549q0 -138 68.5 -255.5t186 -186t255.5 -68.5t255.5 68.5t186 186t68.5 255.5t-68.5 255.5t-186 186t-255.5 68.5t-255.5 -68.5 t-186 -186t-68.5 -255.5zM387 250v41q55 0 64 14v510q-6 12 -64 12v41h242q132 0 199 -48t67 -111q0 -59 -33 -102.5t-96 -65.5l131 -234q5 -16 68 -16v-41h-54q-73 0 -98 10.5t-47 48.5l-121 213h-80v-217q6 -14 64 -14v-41h-242zM565 578h76q80 0 105.5 28t25.5 101 q0 54 -30.5 81t-112.5 27h-64v-237z" />
<glyph unicode="&#xaf;" horiz-adv-x="786" d="M123 1053v90h541v-90h-541z" />
<glyph unicode="&#xb0;" horiz-adv-x="638" d="M86 1057q0 95 69 164t164 69t164.5 -69t69.5 -164t-69.5 -163.5t-164.5 -68.5t-164 68.5t-69 163.5zM170 1057q0 -61 43.5 -104.5t105.5 -43.5t106 43.5t44 104.5t-44 105t-106 44q-61 0 -105 -44t-44 -105z" />
<glyph unicode="&#xb1;" horiz-adv-x="851" d="M133 274v91h586v-91h-586zM133 713v90h248v207h90v-207h248v-90h-248v-207h-90v207h-248z" />
<glyph unicode="&#xb2;" horiz-adv-x="737" d="M74 573v11q0 20 40.5 62t98.5 95t116.5 113.5t99 132t40.5 135.5q0 56 -33.5 91.5t-95.5 35.5q-58 0 -99 -13.5t-60.5 -32.5t-31.5 -38.5t-21 -33t-19 -13.5q-11 0 -16 7.5t-5 15.5q0 14 8.5 37.5t29.5 54t50 57t76.5 44.5t103.5 18q136 0 201.5 -56.5t65.5 -154.5 q0 -55 -50.5 -130t-111 -133t-123 -116t-74.5 -74h275q22 8 44 32t33 56h46l-58 -203h-530z" />
<glyph unicode="&#xb3;" horiz-adv-x="724" d="M76 688q0 46 12.5 65t44.5 19q19 0 31 -15t21.5 -36t24 -42.5t46.5 -36.5t80 -15q168 0 168 168q0 56 -31.5 105.5t-93.5 49.5q-17 0 -36 -4t-32 -4q-14 0 -25.5 9t-11.5 18q0 6 4 10.5t7.5 6t5.5 1.5q87 27 114 44q58 36 58 104q0 53 -36.5 83.5t-102.5 30.5 q-48 0 -81.5 -11t-49 -27t-25 -32t-17 -27t-18.5 -11q-7 0 -12 5t-6.5 10t-1.5 9q0 14 7.5 35.5t26 48t43.5 49.5t64.5 38.5t85.5 15.5q260 0 260 -199q0 -86 -100 -147q62 -25 99.5 -74.5t37.5 -108.5q0 -56 -13 -99.5t-44.5 -81t-91 -57.5t-144.5 -20q-58 0 -111 14.5 t-86 35t-52 40.5t-19 33z" />
<glyph unicode="&#xb4;" horiz-adv-x="614" d="M123 1024l151 332h218l-316 -332h-53z" />
<glyph unicode="&#xb5;" horiz-adv-x="1187" d="M158 -274v1175h184v-645q0 -207 188 -207q130 0 244 148v30v674h184v-731q0 -65 22 -97t52 -32q27 0 48.5 15t21.5 36h37q0 -59 -43 -85.5t-146 -26.5q-134 0 -166 145q-117 -145 -282 -145q-174 0 -258 69v-117q0 -49 14 -81.5t34 -48.5t39.5 -30t33.5 -35.5t14 -53.5 q0 -44 -31 -68.5t-72 -24.5q-43 0 -80.5 32.5t-37.5 103.5z" />
<glyph unicode="&#xb6;" horiz-adv-x="1089" d="M61 872q0 43 14 86.5t47.5 87.5t83 77t127.5 54t175 21h491v-43q-63 0 -91.5 -9.5t-37.5 -31.5v-1030q9 -22 37.5 -31.5t91.5 -9.5v-43h-317v1128h-104v-1128h-318v43q63 0 91.5 9.5t37.5 31.5v465q-155 15 -241.5 102t-86.5 221z" />
<glyph unicode="&#xb7;" horiz-adv-x="466" d="M111 616q0 50 33 89.5t87 39.5q47 0 86 -36t39 -86q0 -49 -34.5 -90t-88.5 -41q-47 0 -84.5 37t-37.5 87z" />
<glyph unicode="&#xb8;" horiz-adv-x="622" d="M123 -358q36 -4 51 -4q79 0 113.5 29.5t34.5 66.5q0 90 -125 90l57 201h78l-37 -138q37 0 81 -11.5t84 -44.5t40 -81q0 -29 -9.5 -54.5t-33 -50t-70.5 -39t-113 -14.5q-62 0 -151 15v35z" />
<glyph unicode="&#xb9;" horiz-adv-x="495" d="M82 1040q6 10 36 64t48 84t44.5 71.5t46 61.5t32.5 20h37v-700q10 -20 88 -20v-48h-320v48q74 0 86 20v444q-7 -4 -13 -9t-13.5 -13t-12 -12.5t-13 -15t-11.5 -13.5z" />
<glyph unicode="&#xba;" horiz-adv-x="751" d="M127 264v53h498v-53h-498zM127 694q0 104 62 171t184 67q126 0 189 -68.5t63 -181.5q0 -105 -61 -173.5t-183 -68.5q-120 0 -187 71t-67 183zM246 715q0 -116 41 -169.5t106 -53.5q52 0 82.5 46t30.5 119q0 118 -38.5 170t-111.5 52q-49 0 -79.5 -49t-30.5 -115z" />
<glyph unicode="&#xbb;" horiz-adv-x="894" d="M129 369v53l178 190l-178 191v53l332 -192q26 -14 26 -52q0 -37 -26 -51zM457 369v53l178 190l-178 191v53l331 -192q27 -15 27 -52q0 -36 -27 -51z" />
<glyph unicode="&#xbc;" horiz-adv-x="1331" d="M70 1040q7 13 36 65t47.5 83t44.5 71.5t45.5 61t32.5 20.5h37v-700q10 -20 88 -20v-48h-319v48q74 0 86 20v444q-20 -12 -64 -63zM213 -20l797 1273l59 -36l-797 -1274zM686 215l387 553h86v-494h113v-59h-113v-147q12 -21 86 -21v-47h-315v47q76 0 86 21v147h-330z M801 274h215v308z" />
<glyph unicode="&#xbd;" horiz-adv-x="1388" d="M74 1040q6 10 36 64t48 84t44.5 71.5t46 61.5t32.5 20h36v-700q10 -20 89 -20v-48h-320v48q74 0 86 20v444q-7 -4 -13 -9t-13.5 -13t-12 -12.5t-13 -15t-11.5 -13.5zM168 -20l797 1273l59 -36l-797 -1274zM741 0v10q0 20 41 62t99 95.5t116 113.5t99 132t41 136 q0 56 -33.5 91.5t-95.5 35.5q-58 0 -99 -13.5t-60.5 -33t-32 -38.5t-21.5 -32.5t-19 -13.5q-20 0 -20 22q0 14 8.5 37.5t29.5 54t50 57t76.5 44.5t103.5 18q136 0 201 -56.5t65 -154.5q0 -55 -50.5 -130t-111 -133t-122.5 -115.5t-74 -73.5h274q22 8 44.5 32t33.5 56h45 l-57 -203h-531z" />
<glyph unicode="&#xbe;" horiz-adv-x="1406" d="M59 688q0 46 13 65t45 19q19 0 31 -15t21.5 -36t23.5 -42.5t46 -36.5t80 -15q168 0 168 168q0 56 -31.5 105.5t-93.5 49.5q-17 0 -35.5 -4t-31.5 -4q-14 0 -25.5 9t-11.5 18q0 6 4 10.5t7 6t5 1.5q87 27 114 44q58 36 58 104q0 53 -36.5 83.5t-102.5 30.5 q-48 0 -81.5 -11t-48.5 -27t-24.5 -32t-17 -27t-18.5 -11q-10 0 -15.5 8.5t-5.5 15.5q0 18 13.5 47t39 61.5t72 55.5t103.5 23q260 0 260 -199q0 -86 -101 -147q62 -25 100 -74.5t38 -108.5q0 -56 -13 -99.5t-44.5 -81t-91 -57.5t-144.5 -20q-58 0 -111 14.5t-86 35 t-52.5 40.5t-19.5 33zM307 -20l797 1273l59 -36l-796 -1274zM760 215l387 553h86v-494h113v-59h-113v-147q12 -21 86 -21v-47h-315v47q76 0 86 21v147h-330zM874 274h216v308z" />
<glyph unicode="&#xbf;" horiz-adv-x="806" d="M66 92q0 56 25.5 113t64 102.5t83.5 94t83.5 88.5t64 83.5t25.5 81.5q0 10 9 19.5t17 9.5t17.5 -9.5t9.5 -19.5q0 -63 -22 -122.5t-53.5 -107.5t-63.5 -97.5t-54 -113t-22 -132.5q0 -130 45 -188t149 -58q79 0 130 47.5t51 98.5q0 25 -15.5 52t-15.5 50q0 31 19.5 50.5 t48.5 19.5q35 0 60.5 -26t25.5 -79q0 -47 -19.5 -94t-57.5 -88t-102 -66.5t-145 -25.5q-98 0 -171.5 30t-112 79t-56.5 101t-18 107zM311 954q0 49 34.5 90t88.5 41q47 0 85 -37t38 -87t-33.5 -90t-87.5 -40q-47 0 -86 36.5t-39 86.5z" />
<glyph unicode="&#xc0;" horiz-adv-x="1118" d="M-16 0v43q63 0 92 10.5t37 32.5l397 1112h98l398 -1112q15 -43 131 -43v-43h-449v43q94 0 119 25l-115 313h-393l-106 -301q11 -21 38 -29t88 -8v-43h-335zM250 1602h217l151 -332h-53zM324 449h344l-174 477z" />
<glyph unicode="&#xc1;" horiz-adv-x="1118" d="M-16 0v43q63 0 92 10.5t37 32.5l397 1112h98l398 -1112q15 -43 131 -43v-43h-449v43q94 0 119 25l-115 313h-393l-106 -301q11 -21 38 -29t88 -8v-43h-335zM324 449h344l-174 477zM539 1270l151 332h217l-315 -332h-53z" />
<glyph unicode="&#xc2;" horiz-adv-x="1118" d="M-16 0v43q63 0 92 10.5t37 32.5l397 1112h98l398 -1112q15 -43 131 -43v-43h-449v43q94 0 119 25l-115 313h-393l-106 -301q11 -21 38 -29t88 -8v-43h-335zM322 1270l192 332h102l193 -332h-53l-191 178l-190 -178h-53zM324 449h344l-174 477z" />
<glyph unicode="&#xc3;" horiz-adv-x="1118" d="M-16 0v43q63 0 92 10.5t37 32.5l397 1112h98l398 -1112q15 -43 131 -43v-43h-449v43q94 0 119 25l-115 313h-393l-106 -301q11 -21 38 -29t88 -8v-43h-335zM260 1270q0 69 13 116.5t36.5 71t48.5 32.5t58 9q45 0 168 -60.5t151 -60.5q58 0 80.5 30t22.5 91h39 q0 -69 -13 -116.5t-37 -71t-49.5 -32.5t-58.5 -9q-45 0 -167.5 60.5t-150.5 60.5q-58 0 -80 -30t-22 -91h-39zM324 449h344l-174 477z" />
<glyph unicode="&#xc4;" horiz-adv-x="1118" d="M-16 0v43q63 0 92 10.5t37 32.5l397 1112h98l398 -1112q15 -43 131 -43v-43h-449v43q94 0 119 25l-115 313h-393l-106 -301q11 -21 38 -29t88 -8v-43h-335zM276 1370q0 41 30 70.5t71 29.5t70.5 -29.5t29.5 -70.5t-29.5 -70.5t-70.5 -29.5t-71 29.5t-30 70.5zM324 449 h344l-174 477zM653 1370q0 41 30 70.5t71 29.5t70.5 -29.5t29.5 -70.5t-29.5 -70.5t-70.5 -29.5t-71 29.5t-30 70.5z" />
<glyph unicode="&#xc5;" horiz-adv-x="1118" d="M-16 0v43q63 0 92 10.5t37 32.5l397 1112h98l398 -1112q15 -43 131 -43v-43h-449v43q94 0 119 25l-115 313h-393l-106 -301q11 -21 38 -29t88 -8v-43h-335zM324 449h344l-174 477zM381 1411q0 78 53 131t131 53t131.5 -53t53.5 -131t-53.5 -131t-131.5 -53t-131 53 t-53 131zM469 1411q0 -40 28 -68t68 -28t68.5 28t28.5 68t-28.5 68t-68.5 28t-68 -28t-28 -68z" />
<glyph unicode="&#xc6;" horiz-adv-x="1550" d="M-45 0v43q106 0 129 41l588 1049q-25 22 -117 22v43h868v-199h-43q0 63 -9.5 91.5t-31.5 37.5h-424v-471h287q22 9 31.5 37.5t9.5 91.5h43v-327h-43q0 63 -9.5 91.5t-31.5 37.5h-287v-518h467q51 21 93 129h41l-50 -199h-868v43q63 0 91.5 9.5t37.5 31.5v297h-395 l-168 -301q11 -20 38.5 -28.5t88.5 -8.5v-43h-336zM371 449h356v636z" />
<glyph unicode="&#xc7;" horiz-adv-x="1155" d="M90 582q0 144 51.5 266t138 202t198.5 124.5t233 44.5q45 0 93 -15.5t84 -31t50 -15.5q11 0 18 11.5t7 29.5h47l20 -260h-45q-13 93 -80.5 152t-191.5 59l-2 2q-177 0 -293.5 -145.5t-116.5 -376.5q0 -138 35 -250t94 -182.5t133.5 -108t155.5 -37.5q102 0 202.5 70.5 t129.5 150.5l49 -24q-20 -49 -50.5 -91.5t-77.5 -82.5t-116.5 -64.5t-153.5 -27.5l-24 -93q37 0 81 -11.5t84 -44.5t40 -81q0 -29 -9.5 -54.5t-33 -50t-70.5 -39t-113 -14.5q-63 0 -151 15v35q36 -4 51 -4q79 0 113.5 29.5t34.5 66.5q0 90 -125 90l45 158q-126 10 -229 63 t-169 135.5t-101.5 185t-35.5 214.5z" />
<glyph unicode="&#xc8;" horiz-adv-x="1038" d="M86 0v43q63 0 91.5 9.5t37.5 31.5v1030q-9 22 -37.5 31.5t-91.5 9.5v43h825v-199h-43q0 63 -9.5 91.5t-31.5 37.5h-424v-471h287q22 9 31.5 37.5t9.5 91.5h43v-327h-43q0 63 -9.5 91.5t-31.5 37.5h-287v-518h467q51 21 93 129h41l-50 -199h-868zM233 1602h218l151 -332 h-53z" />
<glyph unicode="&#xc9;" horiz-adv-x="1038" d="M86 0v43q63 0 91.5 9.5t37.5 31.5v1030q-9 22 -37.5 31.5t-91.5 9.5v43h825v-199h-43q0 63 -9.5 91.5t-31.5 37.5h-424v-471h287q22 9 31.5 37.5t9.5 91.5h43v-327h-43q0 63 -9.5 91.5t-31.5 37.5h-287v-518h467q51 21 93 129h41l-50 -199h-868zM522 1270l152 332h217 l-316 -332h-53z" />
<glyph unicode="&#xca;" horiz-adv-x="1038" d="M86 0v43q63 0 91.5 9.5t37.5 31.5v1030q-9 22 -37.5 31.5t-91.5 9.5v43h825v-199h-43q0 63 -9.5 91.5t-31.5 37.5h-424v-471h287q22 9 31.5 37.5t9.5 91.5h43v-327h-43q0 63 -9.5 91.5t-31.5 37.5h-287v-518h467q51 21 93 129h41l-50 -199h-868zM305 1270l193 332h102 l193 -332h-54l-190 178l-191 -178h-53z" />
<glyph unicode="&#xcb;" horiz-adv-x="1038" d="M86 0v43q63 0 91.5 9.5t37.5 31.5v1030q-9 22 -37.5 31.5t-91.5 9.5v43h825v-199h-43q0 63 -9.5 91.5t-31.5 37.5h-424v-471h287q22 9 31.5 37.5t9.5 91.5h43v-327h-43q0 63 -9.5 91.5t-31.5 37.5h-287v-518h467q51 21 93 129h41l-50 -199h-868zM260 1370q0 41 29.5 70.5 t70.5 29.5t71 -29.5t30 -70.5t-30 -70.5t-71 -29.5t-70.5 29.5t-29.5 70.5zM637 1370q0 41 29.5 70.5t70.5 29.5t71 -29.5t30 -70.5t-30 -70.5t-71 -29.5t-70.5 29.5t-29.5 70.5z" />
<glyph unicode="&#xcc;" horiz-adv-x="618" d="M-10 1602h217l151 -332h-53zM86 0v43q63 0 91.5 9.5t37.5 31.5v1030q-9 22 -37.5 31.5t-91.5 9.5v43h446v-43q-63 0 -91.5 -9.5t-37.5 -31.5v-1030q9 -22 37.5 -31.5t91.5 -9.5v-43h-446z" />
<glyph unicode="&#xcd;" horiz-adv-x="618" d="M86 0v43q63 0 91.5 9.5t37.5 31.5v1030q-9 22 -37.5 31.5t-91.5 9.5v43h446v-43q-63 0 -91.5 -9.5t-37.5 -31.5v-1030q9 -22 37.5 -31.5t91.5 -9.5v-43h-446zM279 1270l151 332h217l-315 -332h-53z" />
<glyph unicode="&#xce;" horiz-adv-x="618" d="M61 1270l193 332h102l193 -332h-53l-191 178l-190 -178h-54zM86 0v43q63 0 91.5 9.5t37.5 31.5v1030q-9 22 -37.5 31.5t-91.5 9.5v43h446v-43q-63 0 -91.5 -9.5t-37.5 -31.5v-1030q9 -22 37.5 -31.5t91.5 -9.5v-43h-446z" />
<glyph unicode="&#xcf;" horiz-adv-x="618" d="M16 1370q0 41 30 70.5t71 29.5t70.5 -29.5t29.5 -70.5t-29.5 -70.5t-70.5 -29.5t-71 29.5t-30 70.5zM86 0v43q63 0 91.5 9.5t37.5 31.5v1030q-9 22 -37.5 31.5t-91.5 9.5v43h446v-43q-63 0 -91.5 -9.5t-37.5 -31.5v-1030q9 -22 37.5 -31.5t91.5 -9.5v-43h-446zM393 1370 q0 41 30 70.5t71 29.5t70.5 -29.5t29.5 -70.5t-29.5 -70.5t-70.5 -29.5t-71 29.5t-30 70.5z" />
<glyph unicode="&#xd0;" horiz-adv-x="1243" d="M29 1008v190h284v143h82v-143h154q273 0 438.5 -166t165.5 -432q0 -267 -161.5 -434.5t-418.5 -167.5h-495v43q63 0 91.5 9.5t37.5 31.5v233q0 137 35 242.5t111 188.5t206.5 131t312.5 59q-56 101 -142 151t-181 50h-154v-174h-82v174h-200q-22 -9 -31.5 -37.5 t-9.5 -91.5h-43zM395 68h178q51 0 102 17.5t101 58t87.5 100t61 151t23.5 203.5q0 156 -47 276q-136 -9 -236.5 -50.5t-158 -108t-84.5 -146.5t-27 -176v-325z" />
<glyph unicode="&#xd1;" horiz-adv-x="1306" d="M86 0v43q63 0 91.5 9.5t37.5 31.5v1030q-9 22 -37.5 31.5t-91.5 9.5v43h274l678 -838v754q-9 22 -37.5 31.5t-91.5 9.5v43h328v-43q-63 0 -91.5 -9.5t-37.5 -31.5v-1114h-18l-805 1018v-934q9 -22 37.5 -31.5t91.5 -9.5v-43h-328zM346 1270q0 69 13 116.5t36.5 71 t48.5 32.5t58 9q45 0 168 -60.5t151 -60.5q58 0 80.5 30t22.5 91h39q0 -69 -13 -116.5t-37 -71t-49.5 -32.5t-58.5 -9q-45 0 -167.5 60.5t-150.5 60.5q-58 0 -80 -30t-22 -91h-39z" />
<glyph unicode="&#xd2;" horiz-adv-x="1312" d="M90 598q0 125 41.5 238t114.5 198t180 135t231 50q164 0 295.5 -85.5t202 -227t70.5 -308.5t-71.5 -307.5t-202.5 -225.5t-294 -85q-166 0 -297 85t-200.5 225.5t-69.5 307.5zM295 614q0 -78 13.5 -156t43.5 -152t72.5 -131t105 -91.5t136.5 -34.5t135 33t100.5 86 t67 123.5t39.5 143.5t12 147q0 77 -14 155.5t-44.5 153t-73 131.5t-104.5 92t-135 35q-74 0 -135 -33t-100.5 -86.5t-67 -124.5t-39.5 -144t-12 -147zM342 1602h217l152 -332h-54z" />
<glyph unicode="&#xd3;" horiz-adv-x="1312" d="M90 598q0 125 41.5 238t114.5 198t180 135t231 50q164 0 295.5 -85.5t202 -227t70.5 -308.5t-71.5 -307.5t-202.5 -225.5t-294 -85q-166 0 -297 85t-200.5 225.5t-69.5 307.5zM295 614q0 -78 13.5 -156t43.5 -152t72.5 -131t105 -91.5t136.5 -34.5t135 33t100.5 86 t67 123.5t39.5 143.5t12 147q0 77 -14 155.5t-44.5 153t-73 131.5t-104.5 92t-135 35q-74 0 -135 -33t-100.5 -86.5t-67 -124.5t-39.5 -144t-12 -147zM631 1270l151 332h217l-315 -332h-53z" />
<glyph unicode="&#xd4;" horiz-adv-x="1312" d="M90 598q0 125 41.5 238t114.5 198t180 135t231 50q164 0 295.5 -85.5t202 -227t70.5 -308.5t-71.5 -307.5t-202.5 -225.5t-294 -85q-166 0 -297 85t-200.5 225.5t-69.5 307.5zM295 614q0 -78 13.5 -156t43.5 -152t72.5 -131t105 -91.5t136.5 -34.5t135 33t100.5 86 t67 123.5t39.5 143.5t12 147q0 77 -14 155.5t-44.5 153t-73 131.5t-104.5 92t-135 35q-74 0 -135 -33t-100.5 -86.5t-67 -124.5t-39.5 -144t-12 -147zM414 1270l192 332h103l192 -332h-53l-191 178l-190 -178h-53z" />
<glyph unicode="&#xd5;" horiz-adv-x="1312" d="M90 598q0 125 41.5 238t114.5 198t180 135t231 50q164 0 295.5 -85.5t202 -227t70.5 -308.5t-71.5 -307.5t-202.5 -225.5t-294 -85q-166 0 -297 85t-200.5 225.5t-69.5 307.5zM295 614q0 -78 13.5 -156t43.5 -152t72.5 -131t105 -91.5t136.5 -34.5t135 33t100.5 86 t67 123.5t39.5 143.5t12 147q0 77 -14 155.5t-44.5 153t-73 131.5t-104.5 92t-135 35q-74 0 -135 -33t-100.5 -86.5t-67 -124.5t-39.5 -144t-12 -147zM352 1270q0 69 13 116.5t36.5 71t48.5 32.5t58 9q45 0 168 -60.5t151 -60.5q58 0 80.5 30t22.5 91h39q0 -69 -13 -116.5 t-37 -71t-49.5 -32.5t-58.5 -9q-45 0 -167 60.5t-150 60.5q-58 0 -80.5 -30t-22.5 -91h-39z" />
<glyph unicode="&#xd6;" horiz-adv-x="1312" d="M90 598q0 125 41.5 238t114.5 198t180 135t231 50q164 0 295.5 -85.5t202 -227t70.5 -308.5t-71.5 -307.5t-202.5 -225.5t-294 -85q-166 0 -297 85t-200.5 225.5t-69.5 307.5zM295 614q0 -78 13.5 -156t43.5 -152t72.5 -131t105 -91.5t136.5 -34.5t135 33t100.5 86 t67 123.5t39.5 143.5t12 147q0 77 -14 155.5t-44.5 153t-73 131.5t-104.5 92t-135 35q-74 0 -135 -33t-100.5 -86.5t-67 -124.5t-39.5 -144t-12 -147zM369 1370q0 41 29.5 70.5t70.5 29.5t70.5 -29.5t29.5 -70.5t-29.5 -70.5t-70.5 -29.5t-70.5 29.5t-29.5 70.5zM745 1370 q0 41 30 70.5t71 29.5t70.5 -29.5t29.5 -70.5t-29.5 -70.5t-70.5 -29.5t-71 29.5t-30 70.5z" />
<glyph unicode="&#xd7;" horiz-adv-x="860" d="M104 389l263 262l-263 262l64 64l262 -262l262 262l64 -64l-262 -262l262 -262l-64 -63l-262 262l-262 -262z" />
<glyph unicode="&#xd8;" horiz-adv-x="1312" d="M90 598q0 125 41.5 238t114.5 198t180 135t231 50q162 0 295 -84l74 118l59 -36l-77 -125q103 -86 160 -215.5t57 -278.5q0 -167 -71.5 -307.5t-202.5 -225.5t-294 -85q-164 0 -292 81l-76 -118l-60 37l78 124q-103 86 -160 215.5t-57 278.5zM295 614q0 -221 92 -383 l498 795q-98 123 -236 123q-74 0 -135 -33t-100.5 -86.5t-67 -124.5t-39.5 -144t-12 -147zM430 168q94 -119 236 -119q74 0 135 33t100.5 86t67 123.5t39.5 143.5t12 147q0 219 -92 381z" />
<glyph unicode="&#xd9;" horiz-adv-x="1265" d="M51 1155v43h447v-43q-63 0 -91.5 -9.5t-37.5 -31.5v-635q0 -204 89.5 -317t233.5 -113q137 0 230.5 114.5t93.5 303.5v647q-9 22 -37.5 31.5t-91.5 9.5v43h327v-43q-63 0 -91.5 -9.5t-37.5 -31.5v-606q0 -137 -33.5 -241t-91.5 -165t-130.5 -91.5t-157.5 -30.5 q-492 0 -492 528v606q-9 22 -37.5 31.5t-91.5 9.5zM373 1602h217l151 -332h-53z" />
<glyph unicode="&#xda;" horiz-adv-x="1265" d="M51 1155v43h447v-43q-63 0 -91.5 -9.5t-37.5 -31.5v-635q0 -204 89.5 -317t233.5 -113q137 0 230.5 114.5t93.5 303.5v647q-9 22 -37.5 31.5t-91.5 9.5v43h327v-43q-63 0 -91.5 -9.5t-37.5 -31.5v-606q0 -137 -33.5 -241t-91.5 -165t-130.5 -91.5t-157.5 -30.5 q-492 0 -492 528v606q-9 22 -37.5 31.5t-91.5 9.5zM662 1270l151 332h217l-315 -332h-53z" />
<glyph unicode="&#xdb;" horiz-adv-x="1265" d="M51 1155v43h447v-43q-63 0 -91.5 -9.5t-37.5 -31.5v-635q0 -204 89.5 -317t233.5 -113q137 0 230.5 114.5t93.5 303.5v647q-9 22 -37.5 31.5t-91.5 9.5v43h327v-43q-63 0 -91.5 -9.5t-37.5 -31.5v-606q0 -137 -33.5 -241t-91.5 -165t-130.5 -91.5t-157.5 -30.5 q-492 0 -492 528v606q-9 22 -37.5 31.5t-91.5 9.5zM444 1270l193 332h102l193 -332h-53l-191 178l-190 -178h-54z" />
<glyph unicode="&#xdc;" horiz-adv-x="1265" d="M51 1155v43h447v-43q-63 0 -91.5 -9.5t-37.5 -31.5v-635q0 -204 89.5 -317t233.5 -113q137 0 230.5 114.5t93.5 303.5v647q-9 22 -37.5 31.5t-91.5 9.5v43h327v-43q-63 0 -91.5 -9.5t-37.5 -31.5v-606q0 -137 -33.5 -241t-91.5 -165t-130.5 -91.5t-157.5 -30.5 q-492 0 -492 528v606q-9 22 -37.5 31.5t-91.5 9.5zM399 1370q0 41 30 70.5t71 29.5t70.5 -29.5t29.5 -70.5t-29.5 -70.5t-70.5 -29.5t-71 29.5t-30 70.5zM776 1370q0 41 30 70.5t71 29.5t70.5 -29.5t29.5 -70.5t-29.5 -70.5t-70.5 -29.5t-71 29.5t-30 70.5z" />
<glyph unicode="&#xdd;" horiz-adv-x="1153" d="M-18 1155v43h448v-43q-97 0 -119 -25l318 -555l327 543q-21 37 -127 37v43h336v-43q-86 0 -116 -27l-369 -612v-432q9 -22 37.5 -31.5t91.5 -9.5v-43h-447v43q63 0 92 9.5t38 31.5v367l-379 663q-27 41 -131 41zM604 1270l152 332h217l-316 -332h-53z" />
<glyph unicode="&#xde;" horiz-adv-x="1069" d="M86 0v43q63 0 91.5 9.5t37.5 31.5v1030q-9 22 -37.5 31.5t-91.5 9.5v43h446v-43q-63 0 -91.5 -9.5t-37.5 -31.5v-172h107q133 0 234.5 -25t161.5 -68.5t90 -98.5t30 -119q0 -155 -122.5 -248.5t-368.5 -93.5h-132v-205q9 -22 37.5 -31.5t91.5 -9.5v-43h-446zM403 358h132 q157 0 221.5 63t64.5 208q0 60 -14 102t-47.5 75t-95.5 49.5t-154 16.5h-107v-514z" />
<glyph unicode="&#xdf;" horiz-adv-x="1052" d="M43 0v43q63 0 91.5 9.5t37.5 31.5v887q0 86 26.5 150.5t71.5 99.5t95 52t106 17q98 0 166 -18.5t106 -55t54 -83t16 -109.5q0 -86 -56 -166.5t-143 -122.5q152 -26 265.5 -129.5t113.5 -216.5q0 -188 -87 -298.5t-244 -110.5q-66 0 -117 20.5t-77 49.5t-39 54.5t-13 42.5 q0 62 15.5 86.5t57.5 24.5q21 0 31 -22.5t14.5 -54t12.5 -63.5t33.5 -54.5t68.5 -22.5q68 0 121 87t53 220q0 82 -46 164.5t-124.5 137.5t-163.5 55h-4q-32 0 -32 20q0 19 32 29q56 21 110 106t54 162q0 35 -12.5 79.5t-48.5 86t-88 41.5q-55 0 -99.5 -60.5t-44.5 -169.5 v-999h-313z" />
<glyph unicode="&#xe0;" d="M66 229q0 39 20.5 72t58.5 58t82 44t102.5 35.5t107.5 28t109.5 25.5t96.5 24q0 172 -45 252t-160 80q-89 0 -142 -21t-67 -77q29 0 50.5 -20.5t21.5 -63.5q0 -35 -27.5 -53.5t-64.5 -18.5q-40 0 -64 28t-24 74q0 107 88.5 166.5t249.5 59.5q97 0 170 -26.5t115 -74.5 t62.5 -108.5t20.5 -134.5v-406q0 -65 22 -96t52 -31q27 0 48.5 14t21.5 35h37q0 -58 -42.5 -84t-146.5 -26q-103 0 -145 84q-121 -88 -301 -88q-69 0 -121.5 11.5t-96 38.5t-66.5 77t-23 122zM139 1386h217l152 -331h-53zM256 225q0 -98 38.5 -137t113.5 -39q60 0 129.5 20 t117.5 50q-12 46 -12 110v242q-23 -7 -77 -22t-88 -25t-81 -30.5t-74 -41.5t-47 -54t-20 -73z" />
<glyph unicode="&#xe1;" d="M66 229q0 39 20.5 72t58.5 58t82 44t102.5 35.5t107.5 28t109.5 25.5t96.5 24q0 172 -45 252t-160 80q-89 0 -142 -21t-67 -77q29 0 50.5 -20.5t21.5 -63.5q0 -35 -27.5 -53.5t-64.5 -18.5q-40 0 -64 28t-24 74q0 107 88.5 166.5t249.5 59.5q97 0 170 -26.5t115 -74.5 t62.5 -108.5t20.5 -134.5v-406q0 -65 22 -96t52 -31q27 0 48.5 14t21.5 35h37q0 -58 -42.5 -84t-146.5 -26q-103 0 -145 84q-121 -88 -301 -88q-69 0 -121.5 11.5t-96 38.5t-66.5 77t-23 122zM256 225q0 -98 38.5 -137t113.5 -39q60 0 129.5 20t117.5 50q-12 46 -12 110v242 q-23 -7 -77 -22t-88 -25t-81 -30.5t-74 -41.5t-47 -54t-20 -73zM428 1055l152 331h217l-316 -331h-53z" />
<glyph unicode="&#xe2;" d="M66 229q0 39 20.5 72t58.5 58t82 44t102.5 35.5t107.5 28t109.5 25.5t96.5 24q0 172 -45 252t-160 80q-89 0 -142 -21t-67 -77q29 0 50.5 -20.5t21.5 -63.5q0 -35 -27.5 -53.5t-64.5 -18.5q-40 0 -64 28t-24 74q0 107 88.5 166.5t249.5 59.5q97 0 170 -26.5t115 -74.5 t62.5 -108.5t20.5 -134.5v-406q0 -65 22 -96t52 -31q27 0 48.5 14t21.5 35h37q0 -58 -42.5 -84t-146.5 -26q-103 0 -145 84q-121 -88 -301 -88q-69 0 -121.5 11.5t-96 38.5t-66.5 77t-23 122zM211 1055l192 331h103l192 -331h-53l-190 178l-191 -178h-53zM256 225 q0 -98 38.5 -137t113.5 -39q60 0 129.5 20t117.5 50q-12 46 -12 110v242q-23 -7 -77 -22t-88 -25t-81 -30.5t-74 -41.5t-47 -54t-20 -73z" />
<glyph unicode="&#xe3;" d="M66 229q0 39 20.5 72t58.5 58t82 44t102.5 35.5t107.5 28t109.5 25.5t96.5 24q0 172 -45 252t-160 80q-89 0 -142 -21t-67 -77q29 0 50.5 -20.5t21.5 -63.5q0 -35 -27.5 -53.5t-64.5 -18.5q-40 0 -64 28t-24 74q0 107 88.5 166.5t249.5 59.5q97 0 170 -26.5t115 -74.5 t62.5 -108.5t20.5 -134.5v-406q0 -65 22 -96t52 -31q27 0 48.5 14t21.5 35h37q0 -58 -42.5 -84t-146.5 -26q-103 0 -145 84q-121 -88 -301 -88q-69 0 -121.5 11.5t-96 38.5t-66.5 77t-23 122zM150 1055q0 69 12.5 116.5t36 71t48.5 32.5t58 9q45 0 168.5 -60.5t151.5 -60.5 q58 0 80 30t22 91h39q0 -69 -13 -116.5t-37 -71t-49.5 -32.5t-58.5 -9q-45 0 -167 60.5t-150 60.5q-58 0 -80.5 -30t-22.5 -91h-38zM256 225q0 -98 38.5 -137t113.5 -39q60 0 129.5 20t117.5 50q-12 46 -12 110v242q-23 -7 -77 -22t-88 -25t-81 -30.5t-74 -41.5t-47 -54 t-20 -73z" />
<glyph unicode="&#xe4;" d="M66 229q0 39 20.5 72t58.5 58t82 44t102.5 35.5t107.5 28t109.5 25.5t96.5 24q0 172 -45 252t-160 80q-89 0 -142 -21t-67 -77q29 0 50.5 -20.5t21.5 -63.5q0 -35 -27.5 -53.5t-64.5 -18.5q-40 0 -64 28t-24 74q0 107 88.5 166.5t249.5 59.5q97 0 170 -26.5t115 -74.5 t62.5 -108.5t20.5 -134.5v-406q0 -65 22 -96t52 -31q27 0 48.5 14t21.5 35h37q0 -58 -42.5 -84t-146.5 -26q-103 0 -145 84q-121 -88 -301 -88q-69 0 -121.5 11.5t-96 38.5t-66.5 77t-23 122zM166 1155q0 41 29.5 70.5t70.5 29.5t71 -29.5t30 -70.5t-30 -70.5t-71 -29.5 t-70.5 29.5t-29.5 70.5zM256 225q0 -98 38.5 -137t113.5 -39q60 0 129.5 20t117.5 50q-12 46 -12 110v242q-23 -7 -77 -22t-88 -25t-81 -30.5t-74 -41.5t-47 -54t-20 -73zM543 1155q0 41 29.5 70.5t70.5 29.5t70.5 -29.5t29.5 -70.5t-29.5 -70.5t-70.5 -29.5t-70.5 29.5 t-29.5 70.5z" />
<glyph unicode="&#xe5;" d="M66 229q0 39 20.5 72t58.5 58t82 44t102.5 35.5t107.5 28t109.5 25.5t96.5 24q0 172 -45 252t-160 80q-89 0 -142 -21t-67 -77q29 0 50.5 -20.5t21.5 -63.5q0 -35 -27.5 -53.5t-64.5 -18.5q-40 0 -64 28t-24 74q0 107 88.5 166.5t249.5 59.5q97 0 170 -26.5t115 -74.5 t62.5 -108.5t20.5 -134.5v-406q0 -65 22 -96t52 -31q27 0 48.5 14t21.5 35h37q0 -58 -42.5 -84t-146.5 -26q-103 0 -145 84q-121 -88 -301 -88q-69 0 -121.5 11.5t-96 38.5t-66.5 77t-23 122zM256 225q0 -98 38.5 -137t113.5 -39q60 0 129.5 20t117.5 50q-12 46 -12 110v242 q-23 -7 -77 -22t-88 -25t-81 -30.5t-74 -41.5t-47 -54t-20 -73zM270 1196q0 78 53.5 131t131.5 53t131 -53t53 -131t-53 -131t-131 -53t-131.5 53t-53.5 131zM358 1196q0 -40 28.5 -68t68.5 -28t68 28t28 68t-28 68t-68 28t-68.5 -28t-28.5 -68z" />
<glyph unicode="&#xe6;" horiz-adv-x="1449" d="M66 229q0 38 18 69.5t54 55.5t74.5 42.5t95.5 35t101 27t105.5 24.5t95.5 23q0 181 -37 261.5t-135 80.5q-89 0 -142 -21t-67 -77q29 0 50.5 -20.5t21.5 -63.5q0 -35 -27.5 -53.5t-64.5 -18.5q-40 0 -64 28t-24 74q0 107 88.5 166.5t249.5 59.5q182 0 268 -113 q99 113 260 113q102 0 178.5 -34.5t120.5 -95.5t65 -135.5t21 -162.5h-569v-43q0 -394 274 -394q75 0 127.5 29.5t114.5 106.5l49 -25q-41 -67 -84.5 -106t-111 -60.5t-164.5 -21.5q-193 0 -295 114q-141 -114 -340 -114q-69 0 -121.5 11.5t-96 38.5t-66.5 77t-23 122z M256 225q0 -98 38.5 -137t113.5 -39q62 0 142.5 25t133.5 59q-74 120 -74 309v21q-11 -3 -44.5 -12t-48.5 -13.5t-46.5 -14.5t-48 -17t-43 -19.5t-41 -23.5t-33 -26.5t-27.5 -31.5t-15.5 -36.5t-6.5 -43.5zM809 557h362q-5 60 -10.5 98t-18.5 81t-32.5 67.5t-53 40.5 t-79.5 16q-54 0 -103 -81t-65 -222z" />
<glyph unicode="&#xe7;" horiz-adv-x="980" d="M80 496q0 86 32 163t90 135.5t145 93t190 34.5q163 0 250 -55.5t87 -161.5q0 -46 -24 -74.5t-64 -28.5q-37 0 -64.5 18.5t-27.5 53.5q0 43 21.5 63.5t50.5 20.5q-26 102 -209 102q-126 0 -204.5 -96t-78.5 -260q0 -114 45 -218t119 -166.5t154 -62.5q92 0 159.5 31 t127.5 105l49 -25q-55 -90 -139 -135t-218 -51l-24 -95q37 0 81 -11.5t84 -44.5t40 -81q0 -29 -9.5 -54.5t-33 -50t-70.5 -39t-113 -14.5q-62 0 -151 15v35q36 -4 51 -4q79 0 113 29.5t34 66.5q0 90 -124 90l45 156q-59 3 -114 19t-111 54t-96.5 94t-66.5 146t-26 203z" />
<glyph unicode="&#xe8;" horiz-adv-x="1009" d="M80 496q0 87 28 163.5t80 135.5t133 93t181 34q111 0 196 -35t135 -95.5t74.5 -135.5t24.5 -162h-658q2 -112 47 -213.5t118.5 -162.5t152.5 -61q92 0 159.5 31t127.5 105l49 -25q-60 -97 -154.5 -142.5t-251.5 -45.5q-61 0 -118.5 13.5t-118 49.5t-104.5 92t-72.5 149 t-28.5 212zM184 1386h217l152 -331h-53zM276 557h455q-6 71 -18 120.5t-37 93.5t-70.5 66.5t-111.5 22.5q-72 0 -138.5 -84.5t-79.5 -218.5z" />
<glyph unicode="&#xe9;" horiz-adv-x="1009" d="M80 496q0 87 28 163.5t80 135.5t133 93t181 34q111 0 196 -35t135 -95.5t74.5 -135.5t24.5 -162h-658q2 -112 47 -213.5t118.5 -162.5t152.5 -61q92 0 159.5 31t127.5 105l49 -25q-60 -97 -154.5 -142.5t-251.5 -45.5q-61 0 -118.5 13.5t-118 49.5t-104.5 92t-72.5 149 t-28.5 212zM276 557h455q-6 71 -18 120.5t-37 93.5t-70.5 66.5t-111.5 22.5q-72 0 -138.5 -84.5t-79.5 -218.5zM473 1055l152 331h217l-316 -331h-53z" />
<glyph unicode="&#xea;" horiz-adv-x="1009" d="M80 496q0 87 28 163.5t80 135.5t133 93t181 34q111 0 196 -35t135 -95.5t74.5 -135.5t24.5 -162h-658q2 -112 47 -213.5t118.5 -162.5t152.5 -61q92 0 159.5 31t127.5 105l49 -25q-60 -97 -154.5 -142.5t-251.5 -45.5q-61 0 -118.5 13.5t-118 49.5t-104.5 92t-72.5 149 t-28.5 212zM256 1055l193 331h102l192 -331h-53l-190 178l-191 -178h-53zM276 557h455q-6 71 -18 120.5t-37 93.5t-70.5 66.5t-111.5 22.5q-72 0 -138.5 -84.5t-79.5 -218.5z" />
<glyph unicode="&#xeb;" horiz-adv-x="1009" d="M80 496q0 87 28 163.5t80 135.5t133 93t181 34q111 0 196 -35t135 -95.5t74.5 -135.5t24.5 -162h-658q2 -112 47 -213.5t118.5 -162.5t152.5 -61q92 0 159.5 31t127.5 105l49 -25q-60 -97 -154.5 -142.5t-251.5 -45.5q-61 0 -118.5 13.5t-118 49.5t-104.5 92t-72.5 149 t-28.5 212zM211 1155q0 41 29.5 70.5t70.5 29.5t71 -29.5t30 -70.5t-30 -70.5t-71 -29.5t-70.5 29.5t-29.5 70.5zM276 557h455q-6 71 -18 120.5t-37 93.5t-70.5 66.5t-111.5 22.5q-72 0 -138.5 -84.5t-79.5 -218.5zM588 1155q0 41 29.5 70.5t70.5 29.5t70.5 -29.5 t29.5 -70.5t-29.5 -70.5t-70.5 -29.5t-70.5 29.5t-29.5 70.5z" />
<glyph unicode="&#xec;" horiz-adv-x="548" d="M-27 1386h217l152 -331h-53zM63 0v43q63 0 92 9.5t38 31.5v692q-127 10 -130 10v48q39 0 153 44t161 44v-838q9 -22 37.5 -31.5t91.5 -9.5v-43h-443z" />
<glyph unicode="&#xed;" horiz-adv-x="548" d="M63 0v43q63 0 92 9.5t38 31.5v692q-127 10 -130 10v48q39 0 153 44t161 44v-838q9 -22 37.5 -31.5t91.5 -9.5v-43h-443zM262 1055l152 331h217l-316 -331h-53z" />
<glyph unicode="&#xee;" horiz-adv-x="548" d="M45 1055l193 331h102l192 -331h-53l-190 178l-191 -178h-53zM63 0v43q63 0 92 9.5t38 31.5v692q-127 10 -130 10v48q39 0 153 44t161 44v-838q9 -22 37.5 -31.5t91.5 -9.5v-43h-443z" />
<glyph unicode="&#xef;" horiz-adv-x="548" d="M0 1155q0 41 29.5 70.5t70.5 29.5t71 -29.5t30 -70.5t-30 -70.5t-71 -29.5t-70.5 29.5t-29.5 70.5zM63 0v43q63 0 92 9.5t38 31.5v692q-127 10 -130 10v48q39 0 153 44t161 44v-838q9 -22 37.5 -31.5t91.5 -9.5v-43h-443zM377 1155q0 41 29.5 70.5t70.5 29.5t71 -29.5 t30 -70.5t-30 -70.5t-71 -29.5t-70.5 29.5t-29.5 70.5z" />
<glyph unicode="&#xf0;" horiz-adv-x="1079" d="M80 467q0 75 14 140.5t47.5 124t84.5 100t129 66t177 24.5q69 0 136 -13q-58 93 -146 181l-172 -99l-35 60l154 88q-40 35 -80.5 63.5t-60.5 39.5l-21 11l23 37q94 -34 213 -108l180 104l35 -59l-150 -88q59 -43 110.5 -90t104 -113.5t89.5 -138t60 -164t23 -191.5 q0 -96 -23 -175.5t-73.5 -145.5t-140 -103.5t-211.5 -37.5q-228 0 -347.5 132t-119.5 355zM276 508q0 -236 80 -351.5t217 -115.5q109 0 167.5 97.5t58.5 256.5q0 242 -73 352.5t-228 110.5q-72 0 -123.5 -50.5t-75 -128t-23.5 -171.5z" />
<glyph unicode="&#xf1;" horiz-adv-x="1144" d="M63 0v43q63 0 92 9.5t38 31.5v692q-127 10 -130 10v48q39 0 153 44t161 44v-95q111 95 244 95q191 0 275.5 -70.5t84.5 -220.5v-547q9 -22 37.5 -31.5t91.5 -9.5v-43h-442v43q63 0 91.5 9.5t37.5 31.5v561q0 207 -189 207q-128 0 -231 -90v-678q9 -22 37.5 -31.5 t91.5 -9.5v-43h-443zM285 1057q0 69 12.5 116.5t36 71t48.5 32.5t58 9q45 0 168.5 -60.5t151.5 -60.5q58 0 80 30t22 91h39q0 -69 -13 -116.5t-37 -71t-49.5 -32.5t-58.5 -9q-45 0 -167 60.5t-150 60.5q-58 0 -80 -30t-22 -91h-39z" />
<glyph unicode="&#xf2;" horiz-adv-x="1116" d="M80 467q0 94 27 173.5t81.5 144t148 101t216.5 36.5q241 0 362 -128.5t121 -351.5q0 -75 -16 -141.5t-52 -125.5t-89.5 -102t-133 -68t-178.5 -25q-230 0 -358.5 133.5t-128.5 353.5zM246 1386h217l151 -331h-53zM276 508q0 -234 89 -350.5t229 -116.5q111 0 178.5 99 t67.5 255q0 463 -322 463q-108 0 -175 -103.5t-67 -246.5z" />
<glyph unicode="&#xf3;" horiz-adv-x="1116" d="M80 467q0 94 27 173.5t81.5 144t148 101t216.5 36.5q241 0 362 -128.5t121 -351.5q0 -75 -16 -141.5t-52 -125.5t-89.5 -102t-133 -68t-178.5 -25q-230 0 -358.5 133.5t-128.5 353.5zM276 508q0 -234 89 -350.5t229 -116.5q111 0 178.5 99t67.5 255q0 463 -322 463 q-108 0 -175 -103.5t-67 -246.5zM535 1055l151 331h217l-315 -331h-53z" />
<glyph unicode="&#xf4;" horiz-adv-x="1116" d="M80 467q0 94 27 173.5t81.5 144t148 101t216.5 36.5q241 0 362 -128.5t121 -351.5q0 -75 -16 -141.5t-52 -125.5t-89.5 -102t-133 -68t-178.5 -25q-230 0 -358.5 133.5t-128.5 353.5zM276 508q0 -234 89 -350.5t229 -116.5q111 0 178.5 99t67.5 255q0 463 -322 463 q-108 0 -175 -103.5t-67 -246.5zM317 1055l193 331h102l193 -331h-53l-191 178l-190 -178h-54z" />
<glyph unicode="&#xf5;" horiz-adv-x="1116" d="M80 467q0 94 27 173.5t81.5 144t148 101t216.5 36.5q241 0 362 -128.5t121 -351.5q0 -75 -16 -141.5t-52 -125.5t-89.5 -102t-133 -68t-178.5 -25q-230 0 -358.5 133.5t-128.5 353.5zM256 1055q0 69 13 116.5t36.5 71t48.5 32.5t58 9q45 0 168 -60.5t151 -60.5 q58 0 80.5 30t22.5 91h38q0 -69 -13 -116.5t-37 -71t-49 -32.5t-58 -9q-45 0 -167.5 60.5t-150.5 60.5q-58 0 -80 -30t-22 -91h-39zM276 508q0 -234 89 -350.5t229 -116.5q111 0 178.5 99t67.5 255q0 463 -322 463q-108 0 -175 -103.5t-67 -246.5z" />
<glyph unicode="&#xf6;" horiz-adv-x="1116" d="M80 467q0 94 27 173.5t81.5 144t148 101t216.5 36.5q241 0 362 -128.5t121 -351.5q0 -75 -16 -141.5t-52 -125.5t-89.5 -102t-133 -68t-178.5 -25q-230 0 -358.5 133.5t-128.5 353.5zM272 1155q0 41 30 70.5t71 29.5t70.5 -29.5t29.5 -70.5t-29.5 -70.5t-70.5 -29.5 t-71 29.5t-30 70.5zM276 508q0 -234 89 -350.5t229 -116.5q111 0 178.5 99t67.5 255q0 463 -322 463q-108 0 -175 -103.5t-67 -246.5zM649 1155q0 41 30 70.5t71 29.5t70.5 -29.5t29.5 -70.5t-29.5 -70.5t-70.5 -29.5t-71 29.5t-30 70.5z" />
<glyph unicode="&#xf7;" horiz-adv-x="987" d="M90 606v90h807v-90h-807zM377 362q0 46 32 84.5t83 38.5q44 0 81 -35t37 -81t-32.5 -85.5t-83.5 -39.5q-44 0 -80.5 36t-36.5 82zM377 936q0 46 32 84.5t83 38.5q44 0 81 -35.5t37 -81.5t-32.5 -85.5t-83.5 -39.5q-44 0 -80.5 36.5t-36.5 82.5z" />
<glyph unicode="&#xf8;" horiz-adv-x="1116" d="M80 467q0 94 27 173.5t81.5 144t148 101t216.5 36.5q145 0 252 -52l72 103l55 -41l-68 -96q172 -121 172 -394q0 -75 -16 -141.5t-52 -125.5t-89.5 -102t-133 -68t-178.5 -25q-151 0 -260 59l-78 -111l-55 41l76 107q-83 64 -126.5 165t-43.5 226zM276 508 q0 -187 62 -305l399 569q-77 86 -219 86q-108 0 -175 -103.5t-67 -246.5zM379 141q84 -100 215 -100q111 0 178.5 99t67.5 255q0 206 -62 318z" />
<glyph unicode="&#xf9;" horiz-adv-x="1126" d="M35 858v43h313v-645q0 -207 189 -207q128 0 231 90v678q-9 22 -37.5 31.5t-91.5 9.5v43h313v-776q128 -10 129 -10v-47q-39 0 -152 -44t-161 -44v94q-110 -94 -244 -94q-191 0 -275.5 70t-84.5 220v547q-9 22 -37.5 31.5t-91.5 9.5zM240 1386h217l151 -331h-53z" />
<glyph unicode="&#xfa;" horiz-adv-x="1126" d="M35 858v43h313v-645q0 -207 189 -207q128 0 231 90v678q-9 22 -37.5 31.5t-91.5 9.5v43h313v-776q128 -10 129 -10v-47q-39 0 -152 -44t-161 -44v94q-110 -94 -244 -94q-191 0 -275.5 70t-84.5 220v547q-9 22 -37.5 31.5t-91.5 9.5zM528 1055l152 331h217l-315 -331h-54z " />
<glyph unicode="&#xfb;" horiz-adv-x="1126" d="M35 858v43h313v-645q0 -207 189 -207q128 0 231 90v678q-9 22 -37.5 31.5t-91.5 9.5v43h313v-776q128 -10 129 -10v-47q-39 0 -152 -44t-161 -44v94q-110 -94 -244 -94q-191 0 -275.5 70t-84.5 220v547q-9 22 -37.5 31.5t-91.5 9.5zM311 1055l193 331h102l193 -331h-54 l-190 178l-190 -178h-54z" />
<glyph unicode="&#xfc;" horiz-adv-x="1126" d="M35 858v43h313v-645q0 -207 189 -207q128 0 231 90v678q-9 22 -37.5 31.5t-91.5 9.5v43h313v-776q128 -10 129 -10v-47q-39 0 -152 -44t-161 -44v94q-110 -94 -244 -94q-191 0 -275.5 70t-84.5 220v547q-9 22 -37.5 31.5t-91.5 9.5zM266 1155q0 41 30 70.5t71 29.5 t70.5 -29.5t29.5 -70.5t-29.5 -70.5t-70.5 -29.5t-71 29.5t-30 70.5zM643 1155q0 41 29.5 70.5t70.5 29.5t71 -29.5t30 -70.5t-30 -70.5t-71 -29.5t-70.5 29.5t-29.5 70.5z" />
<glyph unicode="&#xfd;" d="M-10 858v43h397v-43q-59 0 -86 -8l244 -600l233 586q-28 22 -114 22v43h335v-43q-112 0 -127 -37l-411 -1030q-39 -96 -100 -140t-115 -44q-51 0 -81 27t-30 63q0 31 21.5 55.5t58.5 24.5q22 0 46.5 -17.5t37.5 -17.5q44 0 57 37l88 221l-325 817q-9 22 -37.5 31.5 t-91.5 9.5zM506 1055l151 331h217l-315 -331h-53z" />
<glyph unicode="&#xfe;" horiz-adv-x="1062" d="M10 -350q63 0 91.5 9.5t37.5 31.5v1454q-127 10 -129 10v47q38 0 152 44t162 44v-491q115 123 282 123q93 0 167 -33t118.5 -88t68 -120t23.5 -134q0 -291 -172 -431.5t-487 -140.5v-284q9 -22 37.5 -31.5t91.5 -9.5v-43h-443v43zM324 35q80 1 147 16t126.5 48.5 t101 85.5t65.5 131t24 180q0 161 -56 258.5t-146 97.5q-160 0 -262 -127v-690z" />
<glyph unicode="&#xff;" d="M-10 858v43h397v-43q-59 0 -86 -8l244 -600l233 586q-28 22 -114 22v43h335v-43q-112 0 -127 -37l-411 -1030q-39 -96 -100 -140t-115 -44q-51 0 -81 27t-30 63q0 31 21.5 55.5t58.5 24.5q22 0 46.5 -17.5t37.5 -17.5q44 0 57 37l88 221l-325 817q-9 22 -37.5 31.5 t-91.5 9.5zM244 1155q0 41 29.5 70.5t70.5 29.5t70.5 -29.5t29.5 -70.5t-29.5 -70.5t-70.5 -29.5t-70.5 29.5t-29.5 70.5zM621 1155q0 41 29.5 70.5t70.5 29.5t70.5 -29.5t29.5 -70.5t-29.5 -70.5t-70.5 -29.5t-70.5 29.5t-29.5 70.5z" />
<glyph unicode="&#x152;" horiz-adv-x="1679" d="M90 598q0 125 41.5 238t114.5 198t180 135t231 50q81 0 152 -21h743v-199h-43q0 63 -9.5 91.5t-31.5 37.5h-424v-471h287q22 9 31.5 37.5t9.5 91.5h43v-327h-43q0 63 -9.5 91.5t-31.5 37.5h-287v-518h467q51 21 93 129h41l-50 -199h-788q-67 -20 -150 -20q-166 0 -297 85 t-200.5 225.5t-69.5 307.5zM295 614q0 -78 13.5 -156t43.5 -152t72.5 -131t105 -91.5t136.5 -34.5q108 0 190 72v938q-90 90 -207 90q-74 0 -135 -33t-100.5 -86.5t-67 -124.5t-39.5 -144t-12 -147z" />
<glyph unicode="&#x153;" horiz-adv-x="1769" d="M80 467q0 94 27 173.5t81.5 144t148 101t216.5 36.5q253 0 379 -148q118 148 332 148q111 0 196 -35t135 -95.5t74.5 -135.5t24.5 -162h-658q2 -112 47 -213.5t118.5 -162.5t152.5 -61q92 0 159 30.5t127 105.5l50 -25q-60 -97 -154.5 -142.5t-251.5 -45.5 q-97 0 -187.5 36.5t-154.5 120.5q-124 -157 -375 -157q-230 0 -358.5 133.5t-128.5 353.5zM276 508q0 -234 89 -350.5t229 -116.5q111 0 178.5 99t67.5 255q0 463 -322 463q-108 0 -175 -103.5t-67 -246.5zM1038 557h455q-6 70 -18 120t-37.5 94t-71 66.5t-111.5 22.5 q-72 0 -138 -84.5t-79 -218.5z" />
<glyph unicode="&#x178;" horiz-adv-x="1153" d="M-18 1155v43h448v-43q-97 0 -119 -25l318 -555l327 543q-21 37 -127 37v43h336v-43q-86 0 -116 -27l-369 -612v-432q9 -22 37.5 -31.5t91.5 -9.5v-43h-447v43q63 0 92 9.5t38 31.5v367l-379 663q-27 41 -131 41zM342 1370q0 41 29.5 70.5t70.5 29.5t71 -29.5t30 -70.5 t-30 -70.5t-71 -29.5t-70.5 29.5t-29.5 70.5zM719 1370q0 41 29.5 70.5t70.5 29.5t71 -29.5t30 -70.5t-30 -70.5t-71 -29.5t-70.5 29.5t-29.5 70.5z" />
<glyph unicode="&#x2c6;" horiz-adv-x="733" d="M123 1024l192 332h103l192 -332h-53l-190 178l-191 -178h-53z" />
<glyph unicode="&#x2dc;" horiz-adv-x="862" d="M123 1024q0 69 13 116.5t36.5 71t48.5 32.5t58 9q45 0 168 -60t151 -60q58 0 80 29.5t22 90.5h39q0 -69 -13 -116.5t-37 -71t-49 -32.5t-58 -9q-45 0 -167.5 60.5t-150.5 60.5q-58 0 -80 -30t-22 -91h-39z" />
<glyph unicode="&#x2000;" horiz-adv-x="801" />
<glyph unicode="&#x2001;" horiz-adv-x="1602" />
<glyph unicode="&#x2002;" horiz-adv-x="801" />
<glyph unicode="&#x2003;" horiz-adv-x="1602" />
<glyph unicode="&#x2004;" horiz-adv-x="534" />
<glyph unicode="&#x2005;" horiz-adv-x="400" />
<glyph unicode="&#x2006;" horiz-adv-x="267" />
<glyph unicode="&#x2007;" horiz-adv-x="267" />
<glyph unicode="&#x2008;" horiz-adv-x="200" />
<glyph unicode="&#x2009;" horiz-adv-x="320" />
<glyph unicode="&#x200a;" horiz-adv-x="89" />
<glyph unicode="&#x2010;" horiz-adv-x="794" d="M127 606v90h541v-90h-541z" />
<glyph unicode="&#x2011;" horiz-adv-x="794" d="M127 606v90h541v-90h-541z" />
<glyph unicode="&#x2012;" horiz-adv-x="794" d="M127 606v90h541v-90h-541z" />
<glyph unicode="&#x2013;" horiz-adv-x="1060" d="M127 606v90h807v-90h-807z" />
<glyph unicode="&#x2014;" horiz-adv-x="1409" d="M127 606v90h1155v-90h-1155z" />
<glyph unicode="&#x2018;" horiz-adv-x="458" d="M86 1110q0 47 21 88t48.5 66.5t67 47.5t65 32t52.5 18v-57q-52 -7 -106 -57t-54 -113q0 -36 4 -44t17 -8q5 0 23 13.5t40 13.5q47 0 76 -22.5t29 -67.5q0 -28 -12 -47.5t-30 -27.5t-30.5 -10.5t-22.5 -2.5q-79 0 -133.5 48t-54.5 130z" />
<glyph unicode="&#x2019;" horiz-adv-x="425" d="M80 1274q0 28 12 47.5t30 27.5t30 10.5t22 2.5q79 0 133.5 -48t54.5 -130q0 -47 -21 -88t-48.5 -66.5t-66.5 -47.5t-64.5 -32t-52.5 -18v57q51 7 105 57t54 113q0 36 -3.5 43.5t-16.5 7.5q-5 0 -23.5 -13t-40.5 -13q-47 0 -75.5 22.5t-28.5 67.5z" />
<glyph unicode="&#x201a;" horiz-adv-x="477" d="M109 78q0 28 12 47.5t30 27.5t30 10.5t22 2.5q79 0 133.5 -48t54.5 -130q0 -47 -21 -88t-48.5 -66.5t-67 -47.5t-65 -32t-52.5 -18v57q52 7 106 57t54 113q0 36 -4 43.5t-17 7.5q-5 0 -23 -13t-40 -13q-47 0 -75.5 22.5t-28.5 67.5z" />
<glyph unicode="&#x201c;" horiz-adv-x="827" d="M86 1110q0 47 21 88t48.5 66.5t67 47.5t65 32t52.5 18v-57q-52 -7 -106 -57t-54 -113q0 -36 4 -44t17 -8q5 0 23 13.5t40 13.5q47 0 76 -22.5t29 -67.5q0 -28 -12 -47.5t-30 -27.5t-30.5 -10.5t-22.5 -2.5q-79 0 -133.5 48t-54.5 130zM455 1110q0 47 21 88t48.5 66.5 t67 47.5t65 32t52.5 18v-57q-52 -7 -106 -57t-54 -113q0 -36 3.5 -44t16.5 -8q5 0 23.5 13.5t40.5 13.5q47 0 75.5 -22.5t28.5 -67.5q0 -28 -12 -47.5t-30 -27.5t-30 -10.5t-22 -2.5q-79 0 -133.5 48t-54.5 130z" />
<glyph unicode="&#x201d;" horiz-adv-x="794" d="M80 1274q0 28 12 47.5t30 27.5t30 10.5t22 2.5q79 0 133.5 -48t54.5 -130q0 -47 -21 -88t-48.5 -66.5t-66.5 -47.5t-64.5 -32t-52.5 -18v57q51 7 105 57t54 113q0 36 -3.5 43.5t-16.5 7.5q-5 0 -23.5 -13t-40.5 -13q-47 0 -75.5 22.5t-28.5 67.5zM449 1274q0 28 12 47.5 t30 27.5t30 10.5t22 2.5q79 0 133.5 -48t54.5 -130q0 -47 -21 -88t-48.5 -66.5t-67 -47.5t-65 -32t-52.5 -18v57q52 7 106 57t54 113q0 36 -4 43.5t-17 7.5q-5 0 -23 -13t-40 -13q-47 0 -75.5 22.5t-28.5 67.5z" />
<glyph unicode="&#x201e;" horiz-adv-x="845" d="M109 78q0 28 12 47.5t30 27.5t30 10.5t22 2.5q79 0 133.5 -48t54.5 -130q0 -47 -21 -88t-48.5 -66.5t-67 -47.5t-65 -32t-52.5 -18v57q52 7 106 57t54 113q0 36 -4 43.5t-17 7.5q-5 0 -23 -13t-40 -13q-47 0 -75.5 22.5t-28.5 67.5zM477 78q0 28 12 47.5t30 27.5t30 10.5 t22 2.5q79 0 134 -48t55 -130q0 -47 -21 -88t-48.5 -66.5t-67 -47.5t-65 -32t-52.5 -18v57q52 7 106 57t54 113q0 36 -4 43.5t-17 7.5q-5 0 -23 -13t-40 -13q-47 0 -76 22.5t-29 67.5z" />
<glyph unicode="&#x2022;" horiz-adv-x="684" d="M92 614q0 93 68.5 167.5t177.5 74.5q96 0 175 -68t79 -161t-70.5 -169.5t-179.5 -76.5q-96 0 -173 69.5t-77 163.5z" />
<glyph unicode="&#x2026;" horiz-adv-x="1351" d="M102 104q0 49 33.5 89t87.5 40q47 0 86 -36t39 -86q0 -49 -34.5 -90t-88.5 -41q-47 0 -85 37t-38 87zM553 104q0 49 33.5 89t87.5 40q47 0 86 -36t39 -86q0 -49 -34.5 -90t-88.5 -41q-47 0 -85 37t-38 87zM1004 104q0 50 33 89.5t87 39.5q47 0 86 -36t39 -86 q0 -49 -34.5 -90t-88.5 -41q-47 0 -84.5 37t-37.5 87z" />
<glyph unicode="&#x202f;" horiz-adv-x="320" />
<glyph unicode="&#x2039;" horiz-adv-x="567" d="M80 612q0 38 26 52l332 192v-53l-178 -191l178 -190v-53l-332 192q-26 14 -26 51z" />
<glyph unicode="&#x203a;" horiz-adv-x="567" d="M129 369v53l178 190l-178 191v53l332 -192q26 -14 26 -52q0 -37 -26 -51z" />
<glyph unicode="&#x205f;" horiz-adv-x="400" />
<glyph unicode="&#x20ac;" horiz-adv-x="1105" d="M57 451l33 90h78v41q0 40 8 114h-86l33 90h70q50 200 183.5 316.5t295.5 116.5q64 0 120 -11.5t91.5 -28.5t61.5 -33.5t37 -27.5l11 -12v-168h-45q-13 93 -80 152t-194 59q-112 0 -185.5 -97t-97.5 -266h424l-33 -90h-399q-2 -23 -2 -69q0 -59 2 -86h395l-33 -90h-354 q26 -195 103 -298.5t186 -103.5q112 0 180.5 46t114.5 126l45 -33q-5 -7 -14 -22q-25 -41 -39 -60.5t-44.5 -48.5t-63.5 -42.5t-87 -24t-125 -10.5q-127 0 -228 65t-160.5 169.5t-80.5 236.5h-121z" />
<glyph unicode="&#x2122;" horiz-adv-x="1554" d="M111 1085v113h534v-113h-35q0 56 -16 64h-162v-520q10 -17 66 -17v-34h-240v34q58 0 66 17v520h-162q-17 -10 -17 -64h-34zM668 578v34q56 0 65 17v518q-10 16 -65 16v35h163l218 -473l215 473h166v-35q-58 0 -66 -16v-518q10 -17 66 -17v-34h-242v34q58 0 67 17v432 l-221 -483h-24l-228 489v-438q10 -17 66 -17v-34h-180z" />
<glyph unicode="&#x25fc;" horiz-adv-x="901" d="M0 0v901h901v-901h-901z" />
<glyph unicode="&#xfb01;" horiz-adv-x="1105" d="M53 0v43q63 0 91.5 9.5t37.5 31.5v756h-102v61h102v17q0 87 18 153t49 107t77.5 66.5t97.5 35.5t115 10q184 0 264 -35t80 -88q0 -46 -30.5 -80t-78.5 -34q-34 0 -56 18t-33.5 44t-23.5 52t-37.5 44t-64.5 18q-27 0 -52 -7.5t-51 -27.5t-45 -51t-31.5 -81.5t-12.5 -115.5 v-45h127v-61h-127v-756q9 -22 37.5 -31.5t91.5 -9.5v-43h-443zM621 0v43q63 0 91.5 9.5t37.5 31.5v692q-127 10 -129 10v48q39 0 152 44t161 44v-838q9 -22 37.5 -31.5t91.5 -9.5v-43h-442z" />
<glyph unicode="&#xfb02;" horiz-adv-x="1105" d="M53 0v43q63 0 91.5 9.5t37.5 31.5v756h-102v61h102v25q0 89 22 156.5t55 106t80 62.5t88.5 31.5t88.5 7.5q168 0 266 -45q127 45 152 45v-1206q9 -22 37.5 -31.5t91.5 -9.5v-43h-442v43q63 0 91.5 9.5t37.5 31.5v1014q-18 6 -32 22t-25 34t-27 35.5t-48.5 28.5t-80.5 11 q-22 0 -48 -12t-55 -39.5t-48 -85.5t-19 -138v-53h127v-61h-127v-756q9 -22 37.5 -31.5t91.5 -9.5v-43h-443z" />
<glyph unicode="&#xfb03;" horiz-adv-x="1673" d="M53 0v43q63 0 91.5 9.5t37.5 31.5v756h-102v61h102v70q0 169 69.5 244t184.5 75q121 0 182.5 -37.5t61.5 -83.5q0 -34 -24 -54.5t-60 -20.5q-29 0 -45 14t-22 34t-11 39.5t-19.5 33.5t-41.5 14q-39 0 -64.5 -59t-25.5 -171v-98h127v-61h-127v-756q9 -22 37.5 -31.5 t91.5 -9.5v-43h-443zM621 0v43q63 0 91.5 9.5t37.5 31.5v756h-103v61h103v17q0 109 26.5 184t77 115t111 56.5t141.5 16.5q184 0 264 -35t80 -88q0 -46 -30.5 -80t-78.5 -34q-34 0 -56 18t-33.5 44t-23.5 52t-37.5 44t-64.5 18q-27 0 -52 -7.5t-51 -27.5t-45 -51 t-31.5 -81.5t-12.5 -115.5v-45h127v-61h-127v-756q9 -22 37.5 -31.5t91.5 -9.5v-43h-442zM1188 0v43q63 0 91.5 9.5t37.5 31.5v692q-127 10 -129 10v48q38 0 152 44t161 44v-838q9 -22 37.5 -31.5t91.5 -9.5v-43h-442z" />
<glyph unicode="&#xfb04;" horiz-adv-x="1673" d="M53 0v43q63 0 91.5 9.5t37.5 31.5v756h-102v61h102v70q0 169 69.5 244t184.5 75q121 0 182.5 -37.5t61.5 -83.5q0 -34 -24 -54.5t-60 -20.5q-29 0 -45 14t-22 34t-11 39.5t-19.5 33.5t-41.5 14q-39 0 -64.5 -59t-25.5 -171v-98h127v-61h-127v-756q9 -22 37.5 -31.5 t91.5 -9.5v-43h-443zM621 0v43q63 0 91.5 9.5t37.5 31.5v756h-103v61h103v25q0 89 22 156.5t55 106t79.5 62.5t88 31.5t88.5 7.5q169 0 267 -45q127 45 151 45v-1206q9 -22 37.5 -31.5t91.5 -9.5v-43h-442v43q63 0 91.5 9.5t37.5 31.5v1014q-18 6 -32 22t-25 34t-27 35.5 t-48.5 28.5t-80.5 11q-22 0 -48 -12t-55 -39.5t-48 -85.5t-19 -138v-53h127v-61h-127v-756q9 -22 37.5 -31.5t91.5 -9.5v-43h-442z" />
</font>
</defs>
</svg>
