<?xml version="1.0" encoding="UTF-8" standalone="no"?>
<!-- Created with Inkscape (http://www.inkscape.org/) -->

<svg
   xmlns:dc="http://purl.org/dc/elements/1.1/"
   xmlns:cc="http://creativecommons.org/ns#"
   xmlns:rdf="http://www.w3.org/1999/02/22-rdf-syntax-ns#"
   xmlns:svg="http://www.w3.org/2000/svg"
   xmlns="http://www.w3.org/2000/svg"
   xmlns:sodipodi="http://sodipodi.sourceforge.net/DTD/sodipodi-0.dtd"
   xmlns:inkscape="http://www.inkscape.org/namespaces/inkscape"
   id="svg2"
   version="1.1"
   inkscape:version="0.91 r13725"
   width="156"
   height="180"
   xml:space="preserve"
   sodipodi:docname="data.amsterdam.svg"><metadata
     id="metadata8"><rdf:RDF><cc:Work
         rdf:about=""><dc:format>image/svg+xml</dc:format><dc:type
           rdf:resource="http://purl.org/dc/dcmitype/StillImage" /><dc:title /></cc:Work></rdf:RDF></metadata><defs
     id="defs6" /><sodipodi:namedview
     pagecolor="#ffffff"
     bordercolor="#666666"
     borderopacity="1"
     objecttolerance="10"
     gridtolerance="10"
     guidetolerance="10"
     inkscape:pageopacity="0"
     inkscape:pageshadow="2"
     inkscape:window-width="1440"
     inkscape:window-height="800"
     id="namedview4"
     showgrid="false"
     inkscape:zoom="3.3222222"
     inkscape:cx="81.913044"
     inkscape:cy="90"
     inkscape:window-x="0"
     inkscape:window-y="1"
     inkscape:window-maximized="1"
     inkscape:current-layer="g10" /><g
     id="g10"
     inkscape:groupmode="layer"
     inkscape:label="Codefor_Hex_sticker_ALL"
     transform="matrix(1.25,0,0,-1.25,0,180)"><path
       sodipodi:nodetypes="ccccc"
       id="path3176"
       style="fill:#c0c2c6;fill-opacity:1;fill-rule:nonzero;stroke:none"
       d="M 62.4,72.001553 0,108.00078 l 0,0 L 62.4,144 c 0,0 0.0287,-71.998424 0,-71.998447 z"
       inkscape:connector-curvature="0" /><path
       inkscape:connector-curvature="0"
       d="m 62.39997,72.001553 62.4,35.999227 0,0 -62.4,35.99922 c -0.30094,0 -0.29888,-71.998424 0,-71.998447 z"
       style="fill:#c5c7cb;fill-opacity:1;fill-rule:nonzero;stroke:none"
       id="path3178"
       sodipodi:nodetypes="ccccc" /><path
       inkscape:connector-curvature="0"
       d="M 62.4,0.00311092 0,36.002332 l 0,0 62.4,35.999221 c 0,0 0.0287,-71.99841928 0,-71.99844208 z"
       style="fill:#b5b8bd;fill-opacity:1;fill-rule:nonzero;stroke:none"
       id="path2988"
       sodipodi:nodetypes="ccccc" /><path
       inkscape:connector-curvature="0"
       d="M 62.37679,72.006648 C 42.64437,58.945827 22.55171,46.245093 0,36.002332 l 0,0 0.0231,71.968698 c 1.20063,1.2001 64.00993,-34.298343 62.3537,-35.964382 z"
       style="fill:#babdc2;fill-opacity:1;fill-rule:nonzero;stroke:none"
       id="path3180"
       sodipodi:nodetypes="ccccc" /><path
       sodipodi:nodetypes="ccccc"
       id="path3182"
       style="fill:#c0c2c6;fill-opacity:1;fill-rule:nonzero;stroke:none"
       d="m 62.4234,71.996459 c 19.73242,13.060822 39.82508,25.761555 62.37679,36.004321 l 0,0 -0.0231,-71.968698 c -1.20063,-1.200104 -64.00993,34.298339 -62.3537,35.964377 z"
       inkscape:connector-curvature="0" /><path
       sodipodi:nodetypes="ccccc"
       id="path3174"
       style="fill:#babdc2;fill-opacity:1;fill-rule:nonzero;stroke:none"
       d="m 62.39997,0.00311092 62.4,35.99922108 0,0 -62.4,35.999221 c -1.49897,-1.124204 -0.7564,-72.54415217 0,-71.99844208 z"
       inkscape:connector-curvature="0" /><path
       inkscape:connector-curvature="0"
       id="path4255"
       d="m 6.9253388,51.453885 c 1.3497816,1.57596 2.5014762,2.665359 4.0630992,4.238378 -1.2904447,1.26855 -2.764103,2.697477 -3.8612212,4.007839 0.7205102,1.000394 1.5341567,1.71814 2.5893089,2.4986 1.1076793,-0.952962 1.9983573,-1.696772 2.8518693,-2.691569 0.781638,-0.859728 1.567089,-1.079446 1.877293,-0.525143 1.274222,1.019144 2.192586,2.371653 3.295996,3.264762 0.05353,0.150995 0.34854,-0.02752 0.794069,-0.4805 0.705153,-0.507242 1.174657,-1.094828 1.683867,-1.68175 0.516775,0 -0.06037,-0.823804 -1.666179,-2.378253 -1.004245,-0.972129 -1.823364,-1.894214 -1.820267,-2.049077 1.209707,-1.399235 2.615846,-3.038931 3.884802,-4.145669 -0.998729,-0.801596 -1.887327,-1.910712 -2.737787,-2.574605 -1.524768,1.147379 -2.469692,2.48088 -4.055589,3.651801 -1.592963,-1.121004 -2.564034,-2.495126 -4.2013713,-3.651801 -1.0069123,0.824296 -1.754951,1.776793 -2.6978899,2.516987 z m 0,16.463742 c 3.1289842,3.077836 3.9964942,3.996231 3.8440022,4.104388 -1.1229278,1.423383 -2.296653,2.371437 -3.5017542,3.847712 -0.08046,0.209671 0.257139,0.67395 1.0673869,1.467911 1.327568,1.300881 1.583703,1.327182 2.4856843,0.255238 0.989005,-0.744708 1.687804,-1.726481 2.646642,-2.51677 0.08415,0 0.196632,-0.108112 0.24995,-0.24025 0.07756,-0.1922 0.09998,-0.1922 0.112117,0 0.0083,0.132138 0.09149,0.24025 0.184762,0.24025 0.951387,1.148547 2.22855,1.947426 3.097812,3.049514 0,0.119838 0.07942,0.217887 0.17648,0.217887 0.09706,0 0.307312,0.05021 0.467218,0.111567 0.295767,0.113496 2.623704,-2.006615 2.623704,-2.389474 -1.178749,-1.53962 -2.465016,-2.549296 -3.651802,-4.17864 1.216307,-1.587987 2.3704,-2.607595 3.878067,-4.097448 -1.059629,-0.72899 -1.857202,-1.905101 -2.758143,-2.515609 -1.528106,1.14031 -2.467019,2.467611 -4.040781,3.651802 -1.573729,-1.125658 -2.539655,-2.493056 -4.1678833,-3.636306 -1.1233469,0.730755 -1.8265322,1.57902 -2.7134619,2.628228 z M 55.648054,65.632064 c -0.42284,0.192346 -0.896892,0.504474 -1.053447,0.693618 -0.259337,0.313318 -0.21855,0.401033 0.458693,0.986463 l 0.74334,0.642567 0.565103,-0.475505 c 0.905316,-0.761772 2.649812,-0.567478 2.649812,0.295123 0,0.43586 -0.741441,0.866546 -1.832543,1.064485 -2.238047,0.406007 -3.210393,2.042885 -2.198969,3.701815 0.934792,1.533242 4.134041,1.871373 5.506526,0.581992 L 60.939031,72.697556 60.32199,72.06093 c -0.722528,-0.74546 -0.804924,-0.75979 -1.450189,-0.252225 -0.612541,0.481825 -1.225696,0.489317 -1.802771,0.02203 -0.38308,-0.310201 -0.410535,-0.406922 -0.190693,-0.671816 0.14125,-0.170195 0.614139,-0.404969 1.050867,-0.521719 2.617957,-0.699854 3.196551,-1.187072 3.196551,-2.691727 0,-1.692587 -1.355697,-2.676805 -3.674101,-2.667349 -0.582081,0.0024 -1.371145,0.157222 -1.803601,0.35394 z m 8.617639,0.01399 c -0.792992,0.483531 -1.083329,1.735468 -0.994695,4.289136 l 0.06506,1.874381 -0.816851,-3.84e-4 -0.81685,-3.85e-4 0,0.961001 0,0.961 0.7688,0 0.7688,0 0,1.1532 0,1.153201 1.153201,0 1.1532,0 0,-1.153201 0,-1.1532 1.057101,0 1.057101,0 0,-0.961 0,-0.961001 -1.057101,0 -1.057101,0 0,-2.090667 c 0,-2.397758 0.112644,-2.606756 1.341785,-2.489537 l 0.772417,0.07356 0,-0.897467 c 0,-1.049987 -0.121858,-1.131113 -1.697471,-1.130073 -0.736724,5.77e-4 -1.28626,0.120736 -1.697394,0.371427 z m 7.361346,-0.09061 c -2.888647,1.029773 -3.634995,5.074742 -1.33861,7.254848 1.188214,1.128049 3.381291,1.434113 4.873704,0.680168 1.33554,-0.674694 2.104958,-2.113267 2.107354,-3.940102 l 0.0011,-0.816858 -3.075201,0 c -1.889138,0 -3.0752,-0.07296 -3.0752,-0.189167 0,-0.104043 0.252376,-0.471626 0.560834,-0.81685 0.489101,-0.547399 0.681536,-0.627683 1.50451,-0.627683 0.725388,0 1.09859,0.118155 1.613359,0.510791 l 0.669681,0.510791 0.722099,-0.606891 0.722099,-0.606891 -0.541841,-0.518354 c -1.120002,-1.071454 -3.100673,-1.41959 -4.743861,-0.83381 z m 3.38636,5.376864 c -0.269401,1.409283 -2.542327,1.773172 -3.49675,0.559819 -0.734907,-0.934283 -0.588351,-1.028818 1.594957,-1.028818 l 1.991448,0 z m 12.252936,-5.35223 c -3.280124,1.422446 -3.214304,6.801016 0.09871,8.066267 1.121948,0.428478 2.776605,0.303421 3.549885,-0.268292 0.30958,-0.228879 0.587991,-0.416284 0.618701,-0.416455 0.0307,-1.71e-4 0.0297,1.210689 -0.002,2.690801 l -0.0582,2.691104 1.16333,0 1.16333,0 0,-6.438702 0,-6.438702 -1.0571,0 c -1.01781,0 -1.0571,0.0191 -1.0571,0.514003 l 0,0.514004 -0.432451,-0.4051 c -0.90079,-0.843775 -2.688446,-1.07198 -3.986824,-0.508932 z m 3.091875,1.913461 c 0.713661,0.369049 1.32591,1.340993 1.32591,2.104869 0,0.802228 -0.64185,1.772268 -1.41736,2.142085 -0.9318,0.444346 -1.865007,0.223074 -2.602715,-0.617127 -1.68289,-1.916706 0.449998,-4.790329 2.694165,-3.629827 z m 6.59655,-1.946437 c -0.91542,0.398569 -1.4252,1.176044 -1.4252,2.173614 0,1.826896 1.21782,2.717209 3.94988,2.887656 1.39328,0.08692 1.62392,0.150079 1.62392,0.444672 0,1.018249 -2.17403,1.512324 -3.39053,0.770541 l -0.60365,-0.368078 -0.54956,0.576758 -0.54956,0.576757 0.56157,0.450237 c 1.16535,0.934323 3.51726,1.1403 4.92346,0.431193 1.36999,-0.690846 1.52962,-1.202208 1.52997,-4.901102 l 3e-4,-3.123251 -0.96099,0 c -0.89694,0 -0.96101,0.03203 -0.96101,0.480501 l 0,0.4805 -0.39207,-0.392075 c -0.21564,-0.215643 -0.61048,-0.475113 -0.87741,-0.5766 -0.68767,-0.26145 -2.18058,-0.215472 -2.87912,0.08868 z m 3.48464,1.92837 c 0.30335,0.303342 0.47176,0.690243 0.47176,1.083786 l 0,0.612032 -1.16007,-0.105193 c -1.25248,-0.113571 -2.10733,-0.536523 -2.10733,-1.042643 0,-1.0536 1.91472,-1.428915 2.79564,-0.547982 z M 27.104655,65.610254 c -9.62e-4,0.07928 1.145064,2.804502 2.546651,6.056043 l 2.54834,5.911893 1.036097,-0.04979 1.036095,-0.04979 2.567656,-5.943569 c 1.412209,-3.268962 2.567655,-5.971775 2.567655,-6.006252 0,-0.03448 -0.583808,-0.06162 -1.297351,-0.06032 l -1.29735,0.0024 -0.543675,1.343033 -0.543674,1.343032 -2.562592,0 -2.562593,0 -0.52785,-1.3454 -0.527849,-1.3454 -1.218936,0 c -0.670414,0 -1.219696,0.06487 -1.220624,0.14415 z m 7.689692,4.654049 c 0,0.250306 -1.574301,4.455032 -1.642146,4.385928 -0.109361,-0.111393 -1.625255,-4.197543 -1.625255,-4.380937 0,-0.110786 0.68306,-0.190389 1.633701,-0.190389 0.921038,0 1.6337,0.08088 1.6337,0.185398 z m 5.381602,-0.665898 0,4.132301 1.0571,0 c 0.999441,0 1.057101,-0.02621 1.057101,-0.4805 l 0,-0.4805 0.392074,0.392074 c 0.520055,0.520055 1.195219,0.761126 2.131674,0.761126 0.833195,0 1.371424,-0.216602 2.031785,-0.817661 l 0.42323,-0.385225 0.591476,0.497696 c 1.055864,0.888451 3.080267,0.937422 3.980817,0.09629 0.955313,-0.892276 1.08018,-1.394779 1.174037,-4.724657 l 0.08803,-3.123251 -1.178162,0 -1.178162,0 0,2.795637 c 0,2.711941 -0.01413,2.809761 -0.471764,3.267401 -0.597347,0.597348 -1.27928,0.600248 -1.968069,0.0084 -0.538791,-0.462987 -0.539323,-0.465874 -0.601495,-3.267401 l -0.06223,-2.804007 -1.025293,0 -1.025293,0 -0.06568,2.900232 c -0.0629,2.777644 -0.08486,2.91575 -0.51942,3.267401 -0.513709,0.415692 -0.957927,0.460092 -1.613724,0.161292 -0.841963,-0.383624 -0.986001,-0.880236 -1.069147,-3.686174 l -0.07831,-2.642751 -1.03529,0 -1.035289,0 0,4.132301 z m 38.760346,-4.004168 c -0.07047,0.07047 -0.128134,1.930008 -0.128134,4.132302 l 0,4.004167 1.1532,0 c 1.101946,0 1.1532,-0.02135 1.1532,-0.4805 l 0,-0.4805 0.392076,0.392074 c 0.502302,0.502304 1.190206,0.761126 2.022937,0.761126 l 0.660189,0 0,-1.0571 0,-1.057101 -0.877535,0 c -1.853464,0 -2.197666,-0.615609 -2.197666,-3.930556 l 0,-2.412046 -1.025066,0 c -0.563788,0 -1.082729,0.05766 -1.153201,0.128134 z m 26.011065,4.004168 0,4.132301 1.0571,0 c 0.99944,0 1.0571,-0.02621 1.0571,-0.4805 l 0,-0.4805 0.39208,0.392074 c 0.52005,0.520055 1.19522,0.761126 2.13167,0.761126 0.8332,0 1.37143,-0.216602 2.03179,-0.817661 l 0.42323,-0.385225 0.59147,0.497696 c 1.05587,0.888451 3.08027,0.937422 3.98082,0.09629 0.95531,-0.892276 1.08018,-1.394779 1.17404,-4.724657 l 0.088,-3.123251 -1.17816,0 -1.17816,0 0,2.795637 c 0,2.711941 -0.0141,2.809761 -0.47177,3.267401 -0.59734,0.597348 -1.27928,0.600248 -1.96807,0.0084 -0.53879,-0.462987 -0.53932,-0.465874 -0.60149,-3.267401 l -0.0622,-2.804007 -1.0253,0 -1.02529,0 -0.0657,2.900232 c -0.0629,2.777644 -0.0849,2.91575 -0.51942,3.267401 -0.51371,0.415692 -0.95792,0.460092 -1.61372,0.161292 -0.84196,-0.383624 -0.986,-0.880236 -1.06915,-3.686174 l -0.0783,-2.642751 -1.03529,0 -1.03529,0 0,4.132301 z M 7.0715298,84.254339 c 0.9857044,1.477571 2.7192289,2.473602 3.5842852,3.836469 0.105878,0.333591 -0.186381,0.722539 -1.6083433,2.140445 -0.955753,0.953026 -1.7377329,1.887404 -1.7377329,2.076394 0,0.514594 2.0952879,2.559513 2.4766899,2.417152 0.170616,-0.06368 1.1175803,-0.925858 2.1043653,-1.915942 1.55607,-1.561276 1.835082,-1.766945 2.102595,-1.549899 1.404248,1.321697 2.442935,2.381463 3.867806,3.804144 0.890128,-0.861037 1.801103,-1.777214 2.518147,-2.750858 -1.152518,-1.543715 -2.463194,-2.517517 -3.651802,-4.119944 1.205389,-1.576985 2.353834,-2.586031 3.852015,-4.06134 -0.982886,-0.797616 -1.875708,-1.927223 -2.738128,-2.518967 -1.527581,1.152958 -2.529699,2.345578 -4.033573,3.650717 -1.49843,-1.206259 -2.514619,-2.51016 -4.1630543,-3.638756 -1.1005426,0.663751 -2.0102579,1.683887 -2.5732699,2.630385 z M 32.758316,82.193403 c -2.1054,0.417417 -3.463136,1.423015 -4.347913,3.220252 -0.572572,1.16306 -0.631358,1.444288 -0.631358,3.020356 0,1.576067 0.05879,1.857295 0.631358,3.020355 0.679854,1.380978 1.550722,2.214246 2.957113,2.829439 1.916515,0.838336 4.818579,0.663611 6.685268,-0.402499 l 1.022962,-0.584238 -0.872454,-0.872455 -0.872456,-0.872456 -0.547495,0.38158 c -2.96345,2.065397 -6.610179,0.161056 -6.597575,-3.445287 0.0071,-2.020678 1.076006,-3.623487 2.794903,-4.190774 0.798975,-0.263686 2.620159,-0.145701 3.42725,0.222034 0.467842,0.213162 0.500629,0.313595 0.500629,1.53348 l 0,1.305378 -1.20125,0.05722 -1.201251,0.05722 -0.05809,1.009051 -0.0581,1.00905 2.412546,0 2.412545,0 0,-3.085834 0,-3.085834 -1.009051,-0.45978 c -1.620544,-0.73841 -3.762391,-1.000366 -5.447581,-0.666258 z m 10.807515,0.275643 c -2.888647,1.029773 -3.634995,5.074741 -1.33861,7.254849 1.188214,1.128048 3.38129,1.43411 4.873704,0.680166 1.33554,-0.674694 2.104958,-2.113267 2.107354,-3.940101 l 0.0011,-0.81685 -3.075201,0 c -1.889138,0 -3.075201,-0.07296 -3.075201,-0.189168 0,-0.104042 0.252376,-0.471625 0.560834,-0.81685 0.489101,-0.547399 0.681536,-0.627683 1.504511,-0.627683 0.725388,0 1.098589,0.118156 1.613358,0.510791 l 0.669681,0.51079 0.7221,-0.60689 0.722099,-0.606891 -0.541841,-0.518354 c -1.120001,-1.071454 -3.100673,-1.419589 -4.743861,-0.833809 z m 3.38636,5.376863 c -0.269402,1.409283 -2.542327,1.773172 -3.49675,0.55982 -0.734907,-0.934284 -0.588352,-1.028819 1.594957,-1.028819 l 1.991448,0 z m 21.215248,-5.376863 c -2.888648,1.029773 -3.634995,5.074741 -1.33861,7.254849 1.188214,1.128048 3.381288,1.43411 4.873704,0.680166 1.335539,-0.674694 2.104957,-2.113267 2.107354,-3.940101 l 0.0011,-0.81685 -3.0752,0 c -1.889139,0 -3.075201,-0.07296 -3.075201,-0.189168 0,-0.104042 0.252376,-0.471625 0.560834,-0.81685 0.489101,-0.547399 0.681535,-0.627683 1.504511,-0.627683 0.725388,0 1.098589,0.118156 1.613358,0.510791 l 0.669681,0.51079 0.722099,-0.60689 0.7221,-0.606891 -0.541841,-0.518354 C 71.791299,82.231401 69.810627,81.883266 68.16744,82.469046 Z m 3.38636,5.376863 c -0.269402,1.409283 -2.542327,1.773172 -3.496751,0.55982 -0.734908,-0.934284 -0.588351,-1.028819 1.594957,-1.028819 l 1.991448,0 z m 6.223642,-5.376863 c -2.888647,1.029773 -3.634995,5.074741 -1.33861,7.254849 1.188214,1.128048 3.38129,1.43411 4.873704,0.680166 1.33554,-0.674694 2.104958,-2.113267 2.107354,-3.940101 l 0.0011,-0.81685 -3.075201,0 c -1.889138,0 -3.075201,-0.07296 -3.075201,-0.189168 0,-0.104042 0.252376,-0.471625 0.560834,-0.81685 0.489101,-0.547399 0.681535,-0.627683 1.504511,-0.627683 0.725388,0 1.098589,0.118156 1.613358,0.510791 l 0.669681,0.51079 0.722099,-0.60689 0.7221,-0.606891 -0.541841,-0.518354 c -1.120002,-1.071454 -3.100673,-1.419589 -4.743861,-0.833809 z m 3.38636,5.376863 c -0.269401,1.409283 -2.542327,1.773172 -3.49675,0.55982 C 76.932144,87.471445 77.0787,87.37691 79.262008,87.37691 l 1.991448,0 z M 96.7475,82.559654 c -0.79299,0.483531 -1.08333,1.73547 -0.99469,4.289137 l 0.0651,1.874382 -0.81686,-4.31e-4 -0.81685,-4.31e-4 0,0.961 0,0.961 0.7688,0 0.7688,0 0,1.153201 0,1.1532 1.1532,0 1.1532,0 0,-1.1532 0,-1.153201 1.05711,0 1.0571,0 0,-0.961 0,-0.961 -1.0571,0 -1.05711,0 0,-2.090667 c 0,-2.397759 0.11265,-2.606756 1.34179,-2.489538 l 0.77242,0.07366 0,-0.897466 c 0,-1.049988 -0.12186,-1.131113 -1.69747,-1.130074 -0.73673,4.81e-4 -1.28627,0.120737 -1.6974,0.371427 z m 7.16914,-0.09061 c -2.88864,1.029773 -3.63499,5.074741 -1.3386,7.254849 1.18821,1.128048 3.38128,1.43411 4.8737,0.680166 1.33554,-0.674694 2.10495,-2.113267 2.10735,-3.940101 l 0.001,-0.81685 -3.0752,0 c -1.88914,0 -3.0752,-0.07296 -3.0752,-0.189168 0,-0.104042 0.25238,-0.471625 0.56084,-0.81685 0.4891,-0.547399 0.68153,-0.627683 1.50451,-0.627683 0.72539,0 1.09859,0.118156 1.61336,0.510791 l 0.66968,0.51079 0.7221,-0.60689 0.7221,-0.606891 -0.54185,-0.518354 c -1.12,-1.071454 -3.10067,-1.419589 -4.74386,-0.833809 z m 3.38636,5.376863 c -0.2694,1.409283 -2.54232,1.773172 -3.49675,0.55982 -0.7349,-0.934284 -0.58835,-1.028819 1.59496,-1.028819 l 1.99145,0 -0.0897,0.468999 z m -56.363849,-1.333899 0,4.132301 1.057101,0 c 0.99944,0 1.0571,-0.02621 1.0571,-0.4805 l 0,-0.4805 0.392075,0.392075 c 0.520055,0.520054 1.195219,0.761125 2.131673,0.761125 0.833195,0 1.371425,-0.216602 2.031786,-0.81766 l 0.42323,-0.385225 0.591476,0.497695 c 1.055865,0.888451 3.080268,0.937421 3.980817,0.0963 0.955313,-0.892276 1.08018,-1.39478 1.174037,-4.724656 l 0.08803,-3.123251 -1.178162,0 -1.178161,0 0,2.795637 c 0,2.711941 -0.01413,2.809761 -0.471765,3.267401 -0.597346,0.597347 -1.27928,0.600247 -1.968069,0.0084 -0.53879,-0.462985 -0.539322,-0.465872 -0.601495,-3.267401 l -0.06223,-2.804005 -1.025293,0 -1.025294,0 -0.06568,2.900231 c -0.0629,2.777645 -0.08486,2.915751 -0.519421,3.267401 -0.513708,0.415693 -0.957927,0.460093 -1.613723,0.161292 -0.841963,-0.383624 -0.986002,-0.880235 -1.069148,-3.686174 l -0.07831,-2.64275 -1.035289,0 -1.03529,0 0,4.132301 z m 34.339745,-4.004166 c -0.07047,0.07047 -0.128134,1.930009 -0.128134,4.132301 l 0,4.004168 1.057101,0 c 1.009119,0 1.0571,-0.02258 1.0571,-0.497585 l 0,-0.497586 0.591413,0.497642 c 0.325277,0.273703 0.806117,0.551529 1.068538,0.617392 0.760227,0.190806 2.183386,-0.04462 2.734556,-0.452364 0.948611,-0.701764 1.07834,-1.236273 1.143901,-4.71275 l 0.0607,-3.219351 -1.04326,0 -1.04325,0 -0.0958,2.821818 c -0.0942,2.77352 -0.10467,2.829445 -0.61382,3.267401 -0.70087,0.602863 -1.367707,0.565035 -2.048967,-0.116233 l -0.561819,-0.561815 0,-2.705586 0,-2.705585 -1.025066,0 c -0.563788,0 -1.082729,0.05766 -1.153201,0.128133 z"
       style="fill:#ff0000;fill-opacity:1;stroke:none"
       sodipodi:nodetypes="cccccccccscccccccccsccccccsccccccccssscssssscsssssscscscccccccccccccccccccsccsccccssccssssscccsccssscscsssccccccssccccsssssssssscccssscsscssscscssccscccssccccccccsccsssssccsscssscssscccsscscccssssccccccscsscsscccsscscccsscssscssccccsccscccscsscccccccsscscccccccccsssssscccscssscccccccccsscssccssssscccsccssscssssccssssscccssssscscssccssssscccsccssscscccccccccccccccccccccsscsscccssccssssscccscccsscccccsscssscssscccsscscccssssccccccscsscssssccccsscccscc" /></g></svg>