<?xml version="1.0" encoding="UTF-8" standalone="no"?>
<!-- Created with Inkscape (http://www.inkscape.org/) -->

<svg
   xmlns:dc="http://purl.org/dc/elements/1.1/"
   xmlns:cc="http://creativecommons.org/ns#"
   xmlns:rdf="http://www.w3.org/1999/02/22-rdf-syntax-ns#"
   xmlns:svg="http://www.w3.org/2000/svg"
   xmlns="http://www.w3.org/2000/svg"
   xmlns:sodipodi="http://sodipodi.sourceforge.net/DTD/sodipodi-0.dtd"
   xmlns:inkscape="http://www.inkscape.org/namespaces/inkscape"
   id="svg2"
   version="1.1"
   inkscape:version="0.48.5 r10040"
   width="156"
   height="180"
   xml:space="preserve"
   sodipodi:docname="data.wien.gv.at.svg"><metadata
     id="metadata8"><rdf:RDF><cc:Work
         rdf:about=""><dc:format>image/svg+xml</dc:format><dc:type
           rdf:resource="http://purl.org/dc/dcmitype/StillImage" /><dc:title /></cc:Work></rdf:RDF></metadata><defs
     id="defs6"><clipPath
       clipPathUnits="userSpaceOnUse"
       id="clipPath24"><path
         d="m 0,198.425 198.425,0 L 198.425,0 0,0 0,198.425 z"
         id="path26"
         inkscape:connector-curvature="0" /></clipPath><clipPath
       id="clipPath24-6"
       clipPathUnits="userSpaceOnUse"><path
         id="path26-8"
         d="m 19.842,82.579 411.315,0 0,324.902 -411.315,0 0,-324.902 z" /></clipPath><clipPath
       id="clipPath48"
       clipPathUnits="userSpaceOnUse"><path
         id="path50"
         d="m 0.059998,253.555 418.386002,0 0,-253.555 -418.386002,0 0,253.555 z" /></clipPath><clipPath
       clipPathUnits="userSpaceOnUse"
       id="clipPath24-67"><path
         d="m 0,198.425 198.425,0 L 198.425,0 0,0 0,198.425 z"
         id="path26-9"
         inkscape:connector-curvature="0" /></clipPath><clipPath
       clipPathUnits="userSpaceOnUse"
       id="clipPath24-6-1"><path
         d="m 19.842,82.579 411.315,0 0,324.902 -411.315,0 0,-324.902 z"
         id="path26-8-2" /></clipPath><clipPath
       id="clipPath24-1"
       clipPathUnits="userSpaceOnUse"><path
         inkscape:connector-curvature="0"
         id="path26-3"
         d="m 0,198.425 198.425,0 L 198.425,0 0,0 0,198.425 z" /></clipPath><clipPath
       id="clipPath24-9"
       clipPathUnits="userSpaceOnUse"><path
         inkscape:connector-curvature="0"
         id="path26-1"
         d="m 0,198.425 198.425,0 L 198.425,0 0,0 0,198.425 z" /></clipPath><clipPath
       id="clipPath24-17"
       clipPathUnits="userSpaceOnUse"><path
         inkscape:connector-curvature="0"
         id="path26-4"
         d="m 0,198.425 198.425,0 L 198.425,0 0,0 0,198.425 z" /></clipPath></defs><sodipodi:namedview
     pagecolor="#ffffff"
     bordercolor="#666666"
     borderopacity="1"
     objecttolerance="10"
     gridtolerance="10"
     guidetolerance="10"
     inkscape:pageopacity="0"
     inkscape:pageshadow="2"
     inkscape:window-width="1440"
     inkscape:window-height="856"
     id="namedview4"
     showgrid="false"
     inkscape:zoom="3.6333333"
     inkscape:cx="78.275229"
     inkscape:cy="89.724771"
     inkscape:window-x="-2"
     inkscape:window-y="0"
     inkscape:window-maximized="0"
     inkscape:current-layer="g10" /><g
     id="g10"
     inkscape:groupmode="layer"
     inkscape:label="Codefor_Hex_sticker_ALL"
     transform="matrix(1.25,0,0,-1.25,0,180)"><g
       id="g4297"><path
         inkscape:connector-curvature="0"
         d="M 62.4,72.001553 0,108.00078 l 0,0 L 62.4,144 c 0,0 0.0287,-71.998424 0,-71.998447 z"
         style="fill:#9699a0;fill-opacity:1;fill-rule:nonzero;stroke:none"
         id="path3176"
         sodipodi:nodetypes="ccccc" /><path
         sodipodi:nodetypes="ccccc"
         id="path3178"
         style="fill:#9b9ea5;fill-opacity:1;fill-rule:nonzero;stroke:none"
         d="m 62.39997,72.001553 62.4,35.999227 0,0 -62.4,35.99922 c -0.30094,0 -0.29888,-71.998424 0,-71.998447 z"
         inkscape:connector-curvature="0" /><path
         sodipodi:nodetypes="ccccc"
         id="path2988"
         style="fill:#8b8f97;fill-opacity:1;fill-rule:nonzero;stroke:none"
         d="M 62.4,0.00311092 0,36.002332 l 0,0 62.4,35.999221 c 0,0 0.0287,-71.99841928 0,-71.99844208 z"
         inkscape:connector-curvature="0" /><path
         sodipodi:nodetypes="ccccc"
         id="path3180"
         style="fill:#90949c;fill-opacity:1;fill-rule:nonzero;stroke:none"
         d="M 62.37679,72.006648 C 42.64437,58.945827 22.55171,46.245093 0,36.002332 l 0,0 0.0231,71.968698 c 1.20063,1.2001 64.00993,-34.298343 62.3537,-35.964382 z"
         inkscape:connector-curvature="0" /><path
         inkscape:connector-curvature="0"
         d="m 62.4234,71.996459 c 19.73242,13.060822 39.82508,25.761555 62.37679,36.004321 l 0,0 -0.0231,-71.968698 c -1.20063,-1.200104 -64.00993,34.298339 -62.3537,35.964377 z"
         style="fill:#9699a0;fill-opacity:1;fill-rule:nonzero;stroke:none"
         id="path3182"
         sodipodi:nodetypes="ccccc" /><path
         inkscape:connector-curvature="0"
         d="m 62.39997,0.00311092 62.4,35.99922108 0,0 -62.4,35.999221 c -1.49897,-1.124204 -0.7564,-72.54415217 0,-71.99844208 z"
         style="fill:#90949c;fill-opacity:1;fill-rule:nonzero;stroke:none"
         id="path3174"
         sodipodi:nodetypes="ccccc" /></g><path
       style="font-size:medium;font-style:normal;font-variant:normal;font-weight:normal;font-stretch:normal;text-indent:0;text-align:start;text-decoration:none;line-height:normal;letter-spacing:normal;word-spacing:normal;text-transform:none;direction:ltr;block-progression:tb;writing-mode:lr-tb;text-anchor:start;baseline-shift:baseline;color:#000000;fill:#b7c4cc;fill-opacity:1;stroke:none;stroke-width:2.39378619;marker:none;visibility:visible;display:inline;overflow:visible;enable-background:accumulate;font-family:Sans;-inkscape-font-specification:Sans"
       d="M 20.53125 54.53125 C 17.845589 54.53125 15.65625 56.689339 15.65625 59.375 C 15.65625 61.077387 16.549026 62.568702 17.875 63.4375 L 12.03125 78.03125 C 11.708567 77.982838 11.367454 77.96875 11.03125 77.96875 C 7.3826312 77.96875 4.4375 80.913179 4.4375 84.5625 C 4.4375 88.211118 7.3826313 91.1875 11.03125 91.1875 C 12.962778 91.1875 14.69798 90.351853 15.90625 89.03125 L 42.125 100.46875 L 34.34375 110.34375 C 32.441295 109.24796 30.228286 108.625 27.875 108.625 C 20.713119 108.625 14.90625 114.43292 14.90625 121.59375 C 14.90625 128.75528 20.713119 134.5625 27.875 134.5625 C 34.661976 134.5625 40.216878 129.35933 40.78125 122.71875 L 71.34375 117.84375 C 72.365062 121.45467 75.687502 124.09375 79.625 124.09375 C 84.376854 124.09375 88.21875 120.2508 88.21875 115.5 C 88.21875 110.74885 84.376854 106.90625 79.625 106.90625 C 76.727746 106.90625 74.152594 108.33572 72.59375 110.53125 L 46.84375 99.28125 L 52.15625 92.53125 L 49.8125 90.6875 L 44 98.0625 L 17.375 86.40625 C 17.544046 85.822081 17.65625 85.201008 17.65625 84.5625 C 17.65625 84.377763 17.639867 84.212155 17.625 84.03125 L 39.5625 78.25 L 38.8125 75.34375 L 16.6875 81.1875 C 16.201462 80.380096 15.585828 79.659439 14.8125 79.125 L 20.71875 64.25 C 23.311867 64.145258 25.375 61.992103 25.375 59.375 C 25.375 56.689339 23.216912 54.53125 20.53125 54.53125 z M 44.9375 101.6875 L 71.34375 113.21875 C 71.20362 113.72992 71.105967 114.26805 71.0625 114.8125 L 40.6875 119.71875 C 40.25276 116.75092 38.807454 114.11399 36.71875 112.15625 L 44.9375 101.6875 z "
       transform="matrix(0.8,0,0,-0.8,0,144)"
       id="path14-0" /><path
       style="font-size:medium;font-style:normal;font-variant:normal;font-weight:normal;font-stretch:normal;text-indent:0;text-align:start;text-decoration:none;line-height:normal;letter-spacing:normal;word-spacing:normal;text-transform:none;direction:ltr;block-progression:tb;writing-mode:lr-tb;text-anchor:start;baseline-shift:baseline;color:#000000;fill:#d91f26;fill-opacity:1;stroke:none;stroke-width:2.39378619;marker:none;visibility:visible;display:inline;overflow:visible;enable-background:accumulate;font-family:Sans;-inkscape-font-specification:Sans"
       d="M 43.65625,68.09375 A 1.1970128,1.1970128 0 0 0 43.375,68.1875 C 35.387924,71.717909 29.8125,79.718708 29.8125,89 c 0,7.567911 3.709059,14.30612 9.40625,18.4375 A 1.1970219,1.1970219 0 1 0 40.625,105.5 c -5.099177,-3.69772 -8.4375,-9.712509 -8.4375,-16.5 0,-8.324328 4.98321,-15.468221 12.125,-18.625 a 1.1970128,1.1970128 0 0 0 -0.65625,-2.28125 z"
       id="path38"
       inkscape:connector-curvature="0" /><g
       id="g4422"><g
         transform="matrix(0.28125795,0,0,0.2812579,41.898546,98.262386)"
         id="g60"><path
           id="path62"
           style="fill:#121617;fill-opacity:1;fill-rule:nonzero;stroke:none"
           d="m 0,0 c 0,-4.312 0.996,-7.581 2.988,-9.806 1.991,-2.225 4.519,-3.337 7.584,-3.337 3.065,0 5.58,1.104 7.546,3.311 1.965,2.208 2.948,5.52 2.948,9.936 0,4.364 -0.957,7.619 -2.87,9.767 -1.914,2.147 -4.455,3.22 -7.624,3.22 C 7.403,13.091 4.849,12.004 2.91,9.832 0.97,7.658 0,4.381 0,0 z m -7.922,-0.26 c 0,3.879 0.58,7.135 1.741,9.767 0.865,1.939 2.047,3.679 3.545,5.221 1.498,1.541 3.138,2.684 4.922,3.428 2.373,1.005 5.108,1.507 8.208,1.507 5.611,0 10.1,-1.741 13.468,-5.221 3.368,-3.481 5.052,-8.321 5.052,-14.52 0,-6.148 -1.671,-10.957 -5.013,-14.429 -3.342,-3.472 -7.81,-5.208 -13.403,-5.208 -5.662,0 -10.165,1.728 -13.507,5.182 -3.342,3.455 -5.013,8.212 -5.013,14.273"
           inkscape:connector-curvature="0" /></g><g
         transform="matrix(0.28125795,0,0,0.2812579,53.70463,96.910942)"
         id="g64"><path
           id="path66"
           style="fill:#121617;fill-opacity:1;fill-rule:nonzero;stroke:none"
           d="m 0,0 c 0,-3.1 0.614,-5.39 1.844,-6.871 1.229,-1.48 2.727,-2.22 4.494,-2.22 1.697,0 3.108,0.679 4.234,2.039 1.125,1.359 1.688,3.588 1.688,6.688 0,2.892 -0.58,5.039 -1.741,6.442 C 9.359,7.481 7.922,8.182 6.208,8.182 4.424,8.182 2.943,7.494 1.766,6.117 0.588,4.74 0,2.701 0,0 z m -7.221,13.325 6.805,0 0,-4.052 c 0.883,1.385 2.078,2.511 3.585,3.376 1.506,0.866 3.177,1.299 5.013,1.299 3.203,0 5.922,-1.256 8.156,-3.766 2.234,-2.511 3.351,-6.009 3.351,-10.494 0,-4.606 -1.126,-8.186 -3.377,-10.74 -2.252,-2.555 -4.979,-3.832 -8.182,-3.832 -1.524,0 -2.905,0.303 -4.143,0.909 -1.239,0.606 -2.541,1.645 -3.909,3.118 l 0,-13.897 -7.299,0 0,38.079"
           inkscape:connector-curvature="0" /></g><g
         transform="matrix(0.28125795,0,0,0.2812579,65.481181,97.444207)"
         id="g68"><path
           id="path70"
           style="fill:#121617;fill-opacity:1;fill-rule:nonzero;stroke:none"
           d="m 0,0 c -0.053,2.112 -0.598,3.718 -1.637,4.818 -1.039,1.1 -2.303,1.65 -3.792,1.65 -1.593,0 -2.909,-0.581 -3.948,-1.741 C -10.416,3.567 -10.927,1.991 -10.91,0 L 0,0 z m -0.416,-7.377 7.272,-1.221 c -0.934,-2.667 -2.411,-4.697 -4.428,-6.091 -2.017,-1.394 -4.541,-2.091 -7.572,-2.091 -4.796,0 -8.346,1.568 -10.649,4.702 -1.818,2.511 -2.727,5.679 -2.727,9.507 0,4.571 1.195,8.151 3.584,10.74 2.39,2.589 5.412,3.883 9.065,3.883 4.104,0 7.343,-1.355 9.715,-4.065 2.372,-2.71 3.507,-6.862 3.402,-12.455 l -18.286,0 c 0.053,-2.164 0.641,-3.848 1.767,-5.052 1.125,-1.204 2.528,-1.805 4.208,-1.805 1.142,0 2.103,0.312 2.882,0.935 0.78,0.623 1.369,1.628 1.767,3.013"
           inkscape:connector-curvature="0" /></g><g
         transform="matrix(0.28125795,0,0,0.2812579,76.249423,92.900204)"
         id="g72"><path
           id="path74"
           style="fill:#121617;fill-opacity:1;fill-rule:nonzero;stroke:none"
           d="m 0,0 -7.299,0 0,14.078 c 0,2.979 -0.156,4.905 -0.467,5.779 -0.312,0.875 -0.819,1.555 -1.52,2.039 -0.701,0.485 -1.546,0.728 -2.532,0.728 -1.265,0 -2.4,-0.347 -3.404,-1.039 -1.003,-0.693 -1.692,-1.61 -2.064,-2.753 -0.373,-1.143 -0.559,-3.256 -0.559,-6.338 l 0,-12.494 -7.298,0 0,27.585 6.779,0 0,-4.052 c 2.406,3.117 5.437,4.675 9.091,4.675 1.61,0 3.082,-0.29 4.416,-0.87 1.333,-0.58 2.342,-1.32 3.026,-2.22 0.684,-0.901 1.159,-1.923 1.428,-3.065 C -0.135,20.91 0,19.273 0,17.143 L 0,0"
           inkscape:connector-curvature="0" /></g><g
         transform="matrix(0.28125795,0,0,0.2812579,45.18617,79.146693)"
         id="g76"><path
           id="path78"
           style="fill:#121617;fill-opacity:1;fill-rule:nonzero;stroke:none"
           d="m 0,0 0,4.468 16.13,0.026 0,-14.131 c -2.476,-1.974 -5.03,-3.459 -7.662,-4.454 -2.633,-0.996 -5.334,-1.494 -8.104,-1.494 -3.741,0 -7.139,0.801 -10.195,2.403 -3.057,1.601 -5.364,3.917 -6.923,6.948 -1.558,3.03 -2.338,6.415 -2.338,10.156 0,3.705 0.775,7.164 2.325,10.377 1.55,3.212 3.78,5.597 6.689,7.156 2.909,1.559 6.26,2.338 10.052,2.338 2.753,0 5.243,-0.446 7.468,-1.338 2.225,-0.892 3.969,-2.134 5.234,-3.728 1.264,-1.593 2.225,-3.671 2.883,-6.234 l -4.546,-1.246 c -0.571,1.939 -1.281,3.463 -2.129,4.571 -0.849,1.108 -2.061,1.996 -3.637,2.663 -1.576,0.666 -3.325,1 -5.247,1 -2.303,0 -4.295,-0.351 -5.974,-1.052 -1.68,-0.702 -3.035,-1.624 -4.065,-2.767 -1.031,-1.142 -1.831,-2.398 -2.403,-3.766 -0.97,-2.355 -1.454,-4.909 -1.454,-7.662 0,-3.394 0.584,-6.234 1.753,-8.52 1.169,-2.286 2.87,-3.983 5.104,-5.091 2.234,-1.109 4.606,-1.663 7.117,-1.663 2.182,0 4.312,0.42 6.39,1.26 2.078,0.84 3.653,1.736 4.727,2.689 L 11.195,0 0,0"
           inkscape:connector-curvature="0" /></g><g
         transform="matrix(0.28125795,0,0,0.2812579,52.506471,78.825215)"
         id="g80"><path
           id="path82"
           style="fill:#121617;fill-opacity:1;fill-rule:nonzero;stroke:none"
           d="m 0,0 c 0,-3.532 0.77,-6.178 2.312,-7.935 1.541,-1.758 3.48,-2.637 5.818,-2.637 2.32,0 4.251,0.883 5.793,2.649 1.541,1.767 2.311,4.459 2.311,8.079 0,3.411 -0.775,5.996 -2.325,7.753 C 12.36,9.666 10.433,10.546 8.13,10.546 5.792,10.546 3.853,9.671 2.312,7.922 0.77,6.173 0,3.533 0,0 z m -4.806,0 c 0,5.108 1.42,8.892 4.261,11.351 2.372,2.043 5.263,3.065 8.675,3.065 3.793,0 6.892,-1.243 9.299,-3.728 2.407,-2.485 3.611,-5.918 3.611,-10.299 0,-3.549 -0.533,-6.342 -1.598,-8.377 -1.065,-2.034 -2.615,-3.614 -4.649,-4.74 -2.036,-1.125 -4.256,-1.688 -6.663,-1.688 -3.862,0 -6.983,1.238 -9.364,3.714 C -3.615,-8.226 -4.806,-4.658 -4.806,0"
           inkscape:connector-curvature="0" /></g><g
         transform="matrix(0.28125795,0,0,0.2812579,62.12043,74.945825)"
         id="g84"><path
           id="path86"
           style="fill:#121617;fill-opacity:1;fill-rule:nonzero;stroke:none"
           d="m 0,0 -10.493,27.585 4.935,0 5.922,-16.519 C 1.005,9.282 1.594,7.429 2.13,5.507 2.546,6.962 3.126,8.71 3.871,10.754 l 6.13,16.831 4.804,0 L 4.364,0 0,0"
           inkscape:connector-curvature="0" /></g><g
         transform="matrix(0.28125795,0,0,0.2812579,68.440015,79.570267)"
         id="g88"><path
           id="path90"
           style="fill:#121617;fill-opacity:1;fill-rule:nonzero;stroke:none"
           d="M 0,0 15.402,0 C 15.194,2.32 14.605,4.061 13.636,5.221 12.146,7.022 10.215,7.922 7.843,7.922 5.696,7.922 3.891,7.204 2.428,5.767 0.964,4.329 0.155,2.407 0,0 z m 15.35,-7.558 4.831,-0.598 c -0.762,-2.822 -2.173,-5.013 -4.233,-6.571 -2.062,-1.559 -4.694,-2.338 -7.897,-2.338 -4.035,0 -7.233,1.242 -9.597,3.727 -2.364,2.485 -3.545,5.97 -3.545,10.455 0,4.64 1.194,8.242 3.584,10.805 2.389,2.563 5.489,3.845 9.299,3.845 3.688,0 6.701,-1.256 9.039,-3.767 2.337,-2.511 3.506,-6.044 3.506,-10.597 0,-0.277 -0.008,-0.693 -0.026,-1.247 l -20.571,0 c 0.173,-3.03 1.03,-5.351 2.571,-6.961 1.541,-1.611 3.463,-2.416 5.767,-2.416 1.714,0 3.176,0.45 4.389,1.351 1.212,0.9 2.173,2.337 2.883,4.312"
           inkscape:connector-curvature="0" /></g><g
         transform="matrix(0.28125795,0,0,0.2812579,75.753003,74.945825)"
         id="g92"><path
           id="path94"
           style="fill:#121617;fill-opacity:1;fill-rule:nonzero;stroke:none"
           d="m 0,0 0,27.585 4.207,0 0,-4.181 c 1.074,1.956 2.065,3.246 2.974,3.87 0.909,0.623 1.909,0.935 3,0.935 1.575,0 3.178,-0.503 4.806,-1.507 L 13.376,22.365 C 12.233,23.04 11.09,23.378 9.948,23.378 8.925,23.378 8.007,23.07 7.194,22.455 6.38,21.841 5.8,20.988 5.454,19.897 4.934,18.235 4.674,16.416 4.674,14.442 L 4.674,0 0,0"
           inkscape:connector-curvature="0" /></g><g
         transform="matrix(0.28125795,0,0,0.2812579,80.749832,74.945825)"
         id="g96"><path
           id="path98"
           style="fill:#121617;fill-opacity:1;fill-rule:nonzero;stroke:none"
           d="m 0,0 0,27.585 4.208,0 0,-3.922 c 2.026,3.03 4.952,4.546 8.779,4.546 1.663,0 3.191,-0.299 4.584,-0.896 1.395,-0.598 2.438,-1.382 3.13,-2.351 0.693,-0.97 1.178,-2.121 1.455,-3.455 0.173,-0.866 0.26,-2.381 0.26,-4.545 l 0,-16.962 -4.676,0 0,16.78 c 0,1.905 -0.181,3.329 -0.545,4.273 -0.364,0.943 -1.008,1.697 -1.935,2.26 -0.927,0.562 -2.013,0.843 -3.26,0.843 -1.991,0 -3.71,-0.632 -5.156,-1.896 C 5.399,20.996 4.675,18.598 4.675,15.066 L 4.675,0 0,0"
           inkscape:connector-curvature="0" /></g><g
         transform="matrix(0.28125795,0,0,0.2812579,89.070848,74.945825)"
         id="g100"><path
           id="path102"
           style="fill:#121617;fill-opacity:1;fill-rule:nonzero;stroke:none"
           d="m 0,0 0,27.585 4.182,0 0,-3.87 c 0.866,1.351 2.017,2.437 3.455,3.26 1.436,0.822 3.073,1.234 4.909,1.234 2.043,0 3.718,-0.425 5.025,-1.273 1.308,-0.849 2.23,-2.035 2.767,-3.558 2.182,3.22 5.021,4.831 8.52,4.831 2.736,0 4.839,-0.758 6.312,-2.273 1.472,-1.515 2.207,-3.849 2.207,-7 l 0,-18.936 -4.649,0 0,17.377 c 0,1.87 -0.152,3.217 -0.454,4.039 -0.304,0.823 -0.854,1.485 -1.65,1.988 -0.797,0.502 -1.731,0.752 -2.806,0.752 -1.939,0 -3.549,-0.645 -4.831,-1.935 -1.281,-1.29 -1.921,-3.355 -1.921,-6.194 l 0,-16.027 -4.676,0 0,17.923 c 0,2.078 -0.381,3.636 -1.143,4.675 -0.763,1.039 -2.009,1.558 -3.74,1.558 -1.316,0 -2.533,-0.346 -3.649,-1.038 C 6.74,22.425 5.931,21.412 5.429,20.079 4.926,18.745 4.675,16.823 4.675,14.312 L 4.675,0 0,0"
           inkscape:connector-curvature="0" /></g><g
         transform="matrix(0.28125795,0,0,0.2812579,102.52763,79.570267)"
         id="g104"><path
           id="path106"
           style="fill:#121617;fill-opacity:1;fill-rule:nonzero;stroke:none"
           d="M 0,0 15.403,0 C 15.195,2.32 14.606,4.061 13.637,5.221 12.147,7.022 10.217,7.922 7.845,7.922 5.697,7.922 3.891,7.204 2.429,5.767 0.965,4.329 0.156,2.407 0,0 z m 15.351,-7.558 4.831,-0.598 c -0.762,-2.822 -2.173,-5.013 -4.234,-6.571 -2.06,-1.559 -4.692,-2.338 -7.896,-2.338 -4.035,0 -7.234,1.242 -9.598,3.727 -2.363,2.485 -3.545,5.97 -3.545,10.455 0,4.64 1.194,8.242 3.584,10.805 2.39,2.563 5.489,3.845 9.3,3.845 3.687,0 6.701,-1.256 9.039,-3.767 2.337,-2.511 3.506,-6.044 3.506,-10.597 0,-0.277 -0.009,-0.693 -0.026,-1.247 l -20.572,0 c 0.173,-3.03 1.03,-5.351 2.571,-6.961 1.541,-1.611 3.464,-2.416 5.767,-2.416 1.715,0 3.178,0.45 4.39,1.351 1.211,0.9 2.172,2.337 2.883,4.312"
           inkscape:connector-curvature="0" /></g><g
         transform="matrix(0.28125795,0,0,0.2812579,109.85525,74.945825)"
         id="g108"><path
           id="path110"
           style="fill:#121617;fill-opacity:1;fill-rule:nonzero;stroke:none"
           d="m 0,0 0,27.585 4.208,0 0,-3.922 c 2.025,3.03 4.952,4.546 8.779,4.546 1.662,0 3.19,-0.299 4.584,-0.896 1.394,-0.598 2.437,-1.382 3.13,-2.351 0.692,-0.97 1.177,-2.121 1.455,-3.455 0.173,-0.866 0.26,-2.381 0.26,-4.545 l 0,-16.962 -4.676,0 0,16.78 c 0,1.905 -0.182,3.329 -0.545,4.273 -0.364,0.943 -1.009,1.697 -1.936,2.26 -0.926,0.562 -2.012,0.843 -3.259,0.843 -1.992,0 -3.71,-0.632 -5.157,-1.896 C 5.398,20.996 4.674,18.598 4.674,15.066 L 4.674,0 0,0"
           inkscape:connector-curvature="0" /></g><g
         transform="matrix(0.28125795,0,0,0.2812579,121.04735,76.122046)"
         id="g112"><path
           id="path114"
           style="fill:#121617;fill-opacity:1;fill-rule:nonzero;stroke:none"
           d="m 0,0 0.675,-4.13 c -1.315,-0.276 -2.493,-0.415 -3.532,-0.415 -1.697,0 -3.013,0.269 -3.948,0.805 -0.935,0.536 -1.594,1.242 -1.974,2.117 -0.382,0.874 -0.572,2.714 -0.572,5.519 l 0,15.871 -3.428,0 0,3.636 3.428,0 0,6.832 4.65,2.805 0,-9.637 4.701,0 0,-3.636 -4.701,0 0,-16.13 c 0,-1.334 0.081,-2.191 0.246,-2.572 0.165,-0.381 0.433,-0.684 0.806,-0.909 0.372,-0.225 0.904,-0.338 1.598,-0.338 0.519,0 1.203,0.061 2.051,0.182"
           inkscape:connector-curvature="0" /></g><g
         transform="matrix(0.28125795,0,0,0.2812579,82.885423,56.802722)"
         id="g116"><path
           id="path118"
           style="fill:#121617;fill-opacity:1;fill-rule:nonzero;stroke:none"
           d="m 0,0 -10.105,38.079 5.169,0 5.792,-24.961 c 0.624,-2.616 1.16,-5.212 1.611,-7.792 0.969,4.068 1.541,6.415 1.715,7.039 l 7.247,25.714 6.078,0 5.454,-19.273 c 1.368,-4.779 2.355,-9.272 2.962,-13.48 0.484,2.406 1.116,5.169 1.895,8.285 l 5.975,24.468 5.064,0 L 28.416,0 23.558,0 15.532,29.014 c -0.675,2.424 -1.073,3.913 -1.194,4.467 -0.399,-1.749 -0.771,-3.237 -1.117,-4.467 L 5.142,0 0,0"
           inkscape:connector-curvature="0" /></g><g
         transform="matrix(0.28125795,0,0,0.2812579,94.975859,56.802722)"
         id="g120"><path
           id="path122"
           style="fill:#121617;fill-opacity:1;fill-rule:nonzero;stroke:none"
           d="M 4.676,0 0,0 l 0,27.585 4.676,0 L 4.676,0 z M 0,0 z m 4.676,32.702 -4.676,0 0,5.377 4.676,0 0,-5.377 z"
           inkscape:connector-curvature="0" /></g><g
         transform="matrix(0.28125795,0,0,0.2812579,99.286137,61.427445)"
         id="g124"><path
           id="path126"
           style="fill:#121617;fill-opacity:1;fill-rule:nonzero;stroke:none"
           d="M 0,0 15.404,0 C 15.196,2.32 14.607,4.06 13.637,5.221 12.148,7.021 10.217,7.922 7.845,7.922 5.698,7.922 3.892,7.203 2.429,5.765 0.965,4.328 0.157,2.406 0,0 z m 15.352,-7.559 4.831,-0.597 c -0.763,-2.824 -2.174,-5.014 -4.234,-6.573 -2.061,-1.557 -4.693,-2.337 -7.897,-2.337 -4.034,0 -7.233,1.243 -9.598,3.727 -2.363,2.485 -3.544,5.97 -3.544,10.455 0,4.641 1.194,8.243 3.584,10.806 2.389,2.562 5.489,3.844 9.299,3.844 3.688,0 6.702,-1.255 9.039,-3.766 2.337,-2.511 3.506,-6.044 3.506,-10.598 0,-0.277 -0.009,-0.693 -0.025,-1.247 l -20.572,0 c 0.172,-3.03 1.03,-5.35 2.571,-6.961 1.541,-1.61 3.464,-2.416 5.767,-2.416 1.714,0 3.177,0.45 4.389,1.351 1.212,0.9 2.173,2.338 2.884,4.312"
           inkscape:connector-curvature="0" /></g><g
         transform="matrix(0.28125795,0,0,0.2812579,106.61375,56.802722)"
         id="g128"><path
           id="path130"
           style="fill:#121617;fill-opacity:1;fill-rule:nonzero;stroke:none"
           d="m 0,0 0,27.585 4.208,0 0,-3.921 c 2.026,3.03 4.952,4.545 8.779,4.545 1.663,0 3.191,-0.298 4.584,-0.896 1.395,-0.598 2.438,-1.381 3.13,-2.351 0.693,-0.969 1.178,-2.122 1.455,-3.455 0.173,-0.866 0.26,-2.381 0.26,-4.545 l 0,-16.962 -4.676,0 0,16.78 c 0,1.905 -0.181,3.329 -0.545,4.273 -0.364,0.944 -1.008,1.696 -1.935,2.26 -0.927,0.562 -2.013,0.844 -3.26,0.844 -1.991,0 -3.71,-0.632 -5.156,-1.896 C 5.399,20.997 4.675,18.598 4.675,15.066 L 4.675,0 0,0"
           inkscape:connector-curvature="0" /></g></g></g></svg>