<?xml version="1.0" encoding="UTF-8" standalone="no"?>
<!-- Created with Inkscape (http://www.inkscape.org/) -->

<svg
   xmlns:dc="http://purl.org/dc/elements/1.1/"
   xmlns:cc="http://creativecommons.org/ns#"
   xmlns:rdf="http://www.w3.org/1999/02/22-rdf-syntax-ns#"
   xmlns:svg="http://www.w3.org/2000/svg"
   xmlns="http://www.w3.org/2000/svg"
   xmlns:sodipodi="http://sodipodi.sourceforge.net/DTD/sodipodi-0.dtd"
   xmlns:inkscape="http://www.inkscape.org/namespaces/inkscape"
   sodipodi:docname="book.svg"
   xml:space="preserve"
   height="180"
   width="156"
   inkscape:version="0.48.5 r10040"
   version="1.1"
   id="svg2"><metadata
     id="metadata8"><rdf:RDF><cc:Work
         rdf:about=""><dc:format>image/svg+xml</dc:format><dc:type
           rdf:resource="http://purl.org/dc/dcmitype/StillImage" /><dc:title /></cc:Work></rdf:RDF></metadata><defs
     id="defs6"><clipPath
       clipPathUnits="userSpaceOnUse"
       id="clipPath24"><path
         d="m 0,198.425 198.425,0 L 198.425,0 0,0 0,198.425 z"
         id="path26"
         inkscape:connector-curvature="0" /></clipPath></defs><sodipodi:namedview
     pagecolor="#ffffff"
     bordercolor="#666666"
     borderopacity="1"
     objecttolerance="10"
     gridtolerance="10"
     guidetolerance="10"
     inkscape:pageopacity="0"
     inkscape:pageshadow="2"
     inkscape:window-width="1112"
     inkscape:window-height="1133"
     id="namedview4"
     showgrid="false"
     inkscape:zoom="5.3166667"
     inkscape:cx="62.952974"
     inkscape:cy="90"
     inkscape:window-x="0"
     inkscape:window-y="1"
     inkscape:window-maximized="0"
     inkscape:current-layer="g10"
     showguides="true"
     inkscape:guide-bbox="true" /><g
     id="g10"
     inkscape:groupmode="layer"
     inkscape:label="Codefor_Hex_sticker_ALL"
     transform="matrix(1.25,0,0,-1.25,0,180)"><path
       sodipodi:nodetypes="ccccccc"
       id="path14"
       style="fill:#892ca0;fill-opacity:1;fill-rule:nonzero;stroke:none"
       d="M 124.8,36 62.4,0 0,36 l 0,72 62.4,36 62.4,-36 z"
       inkscape:connector-curvature="0" /><path
       style="fill:#57006c;fill-opacity:1;stroke:none"
       d="M 6.375 41.3125 L 0 45 L 0 49 L 6.375 49 L 6.375 41.3125 z M 0 55.875 L 0 63.90625 L 6.375 63.90625 L 6.375 55.875 L 0 55.875 z M 0 70.78125 L 0 78.8125 L 6.375 78.8125 L 6.375 70.78125 L 0 70.78125 z M 0 85.6875 L 0 93.71875 L 6.375 93.71875 L 6.375 85.6875 L 0 85.6875 z M 0 100.59375 L 0 108.625 L 6.375 108.625 L 6.375 100.59375 L 0 100.59375 z M 0 115.5 L 0 123.53125 L 6.375 123.53125 L 6.375 115.5 L 0 115.5 z M 0 130.40625 L 0 135 L 5.96875 138.4375 L 6.375 138.4375 L 6.375 130.40625 L 0 130.40625 z "
       transform="matrix(0.8,0,0,-0.8,0,144)"
       id="rect3792" /><path
       style="fill:#ffffff;fill-opacity:0.25;stroke:none"
       d="m 122.875,42.90625 -6.09375,9.0625 26.5625,17.8125 3.56964,-5.317665 -0.27702,-5.576487 z m -103.5625,0.28125 -7.1875,8.21875 6.40625,5.5625 -7.625,4.625 5.65625,9.3125 L 27.15625,64.5 36.25,72.40625 43.40625,64.1875 36.9375,58.5625 43.90625,54.34375 38.25,45.03125 l -9.9375,6 z M 122.03125,109 l -6.6875,8.59375 7.625,5.9375 -6.59375,3.84375 5.5,9.4375 10.375,-6.03125 5.23385,4.08833 c -0.26913,-0.0488 8.15063,-4.14697 8.15063,-4.14697 l 1.61552,-2.06636 -4.875,-3.78125 4.45454,-2.59848 c 0,0 0.27905,-4.82154 0.1708,-5.83276 L 144,111.3125 133.125,117.625 z M 11.25,109.96875 8.186625,114.54802 c 0.055315,-0.0811 0.4560679,6.78264 0.4560679,6.78264 L 31.8125,136.75 37.875,127.6875 z"
       transform="matrix(0.8,0,0,-0.8,0,144)"
       id="rect3931"
       inkscape:connector-curvature="0"
       sodipodi:nodetypes="cccccccccccccccccccccccccccccccccccccccc" /><path
       inkscape:connector-curvature="0"
       d="M 117.66666,40 62.200002,8 6.733335,40 l 0,64 55.466667,32 55.466658,-32 z"
       style="fill:none;stroke:#600078;stroke-width:0.80000000999999998;stroke-linecap:round;stroke-linejoin:round;stroke-miterlimit:4;stroke-opacity:1;stroke-dasharray:none"
       id="path3814"
       sodipodi:nodetypes="ccccccc" /><path
       transform="scale(1,-1)"
       style="fill:#f4f4ee;fill-opacity:1;stroke:none;stroke-width:0.23999999000000000;stroke-miterlimit:4;stroke-opacity:1;stroke-dasharray:none"
       d="m 15.76942,-102.80756 c 1.483953,-1.21595 4.330508,0.21864 7.703934,-0.75235 3.373426,-0.97099 6.970307,-0.54826 10.006471,-0.0923 3.036164,0.45596 7.889657,-0.34739 11.882942,-0.10956 3.993285,0.23783 10.232337,1.73457 12.116438,2.37261 1.884101,0.63804 7.911277,-1.96299 9.480084,-1.99404 1.568807,-0.031 4.134271,-0.30781 6.771354,0.0275 2.637083,0.33531 6.193695,1.03333 9.780402,0.0398 3.586707,-0.99353 7.348198,-0.42741 10.00641,0.0407 2.658212,0.46811 2.562116,-0.57761 5.942864,0.0242 3.380751,0.60181 7.479731,-0.0952 7.227841,0.0294 -0.25189,0.12465 4.4569,2.08442 5.328,1.54265 0.8711,-0.54177 -0.49924,2.865103 0.14872,3.790672 0.64797,0.925568 2.29736,0.53484 2.76303,1.130767 0.46567,0.595927 -3.0188,2.073372 -3.46611,4.183354 -0.39908,1.882479 2.82248,2.528577 2.64063,3.19896 -0.18185,0.670383 -1.83872,1.914989 -0.89076,3.926479 0.94796,2.01149 0.0196,5.616826 -0.66031,7.529886 -0.67988,1.913061 -2.35729,1.476034 -2.59298,3.827231 -0.23569,2.351197 2.04935,4.751276 2.06971,5.935992 0.0204,1.184716 1.24406,1.08379 -0.76626,2.410546 -2.01032,1.326756 -0.41596,2.110594 0.50789,3.072912 0.92385,0.962318 -1.46567,2.976655 -0.93141,4.668918 0.50658,1.604606 2.42019,2.510879 1.64545,4.059838 -0.77474,1.548959 0.98609,1.667588 1.1367,3.003462 0.15061,1.335874 0.65515,2.620886 1.11278,2.940283 0.45763,0.319397 -0.9682,2.590937 -0.75171,4.528637 0.14268,1.277077 1.52067,2.04822 0.74271,2.654834 -0.77796,0.606614 -3.01612,0.767668 -4.429,1.141025 -1.41288,0.373357 -5.36244,-0.806217 -6.84672,-0.543757 -1.48428,0.26246 -2.97982,0.344867 -5.024975,-0.312533 -0.880705,-0.283097 -2.072787,1.456465 -4.605866,0.50012 -2.533079,-0.956345 -8.154242,-0.06962 -11.059762,0.21542 -2.90552,0.285039 -4.791462,-0.462787 -8.355254,0.162742 -3.563792,0.625529 -6.20296,0.133782 -9.925804,0.193332 -3.722844,0.05955 -7.554636,0.186621 -9.931928,0.193452 -2.377292,0.0068 -5.740644,-0.371905 -8.353066,-1.294815 -2.612422,-0.92291 -4.025077,-0.11953 -7.298007,-0.429082 -3.27293,-0.309552 -10.412896,-0.280339 -11.433348,-1.746032 -1.020452,-1.465693 -6.948186,0.28663 -7.979296,-0.209791 -1.03111,-0.496421 -3.611806,-0.69828 -4.435806,-0.116625 -0.824,0.581655 -4.957753,1.692073 -6.1227634,-0.160979 -1.1650107,-1.853052 3.8457054,-4.623579 3.6144604,-4.766256 -0.231245,-0.142677 0.916608,-1.905632 2.012768,-2.470073 1.09616,-0.564441 -3.37964,-0.930445 -2.421432,-2.279744 0.958208,-1.349299 -1.962341,-3.501046 -2.5740028,-4.507439 -0.6116615,-1.006393 -1.0982256,-2.880547 0.9113178,-2.857389 2.009543,0.02316 0.886362,-2.582419 0.295089,-2.922731 -0.591273,-0.340312 1.00151,-0.415425 2.307339,-2.863092 0.08748,-0.163966 -0.306136,-0.674037 -0.110242,-0.765623 0.195894,-0.09159 0.952183,-2.330282 0.230208,-3.244214 -0.721975,-0.913932 0.05034,-0.706635 0.547299,-2.09742 0.496962,-1.390785 -2.305034,-3.197296 -2.265717,-4.419455 0.03932,-1.222159 1.334762,-2.503442 2.68187,-2.879584 1.347108,-0.376142 1.414122,-1.619658 0.854639,-3.071895 -0.559483,-1.452237 0.279487,-1.140694 0.699131,-2.696258 0.832977,-3.087742 0.09139,-2.38002 -0.126678,-3.241362 -0.218065,-0.861342 0.657896,-2.639835 -0.351708,-3.433338 -0.501598,-0.394232 -1.449628,-1.420611 -1.128345,-1.473905 0.321283,-0.05329 1.222664,-1.497828 0.692342,-4.140672 1.037697,-3.678308 0.369882,-3.783658 0.978437,-5.453408 z"
       id="rect3817"
       inkscape:connector-curvature="0"
       sodipodi:nodetypes="czzzzzzzzzzzzzszzzzzzzszzzszzzszzzzzzzzzzzzzzzzzszzzzzzszszcc" /><path
       sodipodi:nodetypes="cccccc"
       id="path3821"
       style="fill:none;stroke:#600078;stroke-width:0.84943414;stroke-linecap:round;stroke-linejoin:round;stroke-miterlimit:4;stroke-opacity:1;stroke-dasharray:0.84943416, 1.69886832;stroke-dashoffset:0"
       d="m 6.9847171,108.13088 55.1969799,31.8444 58.911903,-33.98763 0,-67.97529 L 62.181697,4.0247183 7.2646002,35.707659"
       inkscape:connector-curvature="0" /><path
       style="fill:none;stroke:#ddafe9;stroke-width:0.30000001;stroke-linecap:butt;stroke-linejoin:miter;stroke-miterlimit:4;stroke-opacity:1;stroke-dasharray:none"
       d="m 20.219436,70.59375 120.752354,0 z m -4.137931,16.5625 121.128525,0 z m -1.69279,16.59375 124.984325,0 z m 1.22257,16.59375 127.888715,0 c -0.25444,0 -127.888715,0 -127.888715,0 z"
       transform="matrix(0.8,0,0,-0.8,0,144)"
       id="path3922"
       inkscape:connector-curvature="0"
       sodipodi:nodetypes="cccccccccccc" /></g></svg>