<?xml version="1.0" encoding="UTF-8" standalone="no"?>
<!-- Created with Inkscape (http://www.inkscape.org/) -->

<svg
   xmlns:dc="http://purl.org/dc/elements/1.1/"
   xmlns:cc="http://creativecommons.org/ns#"
   xmlns:rdf="http://www.w3.org/1999/02/22-rdf-syntax-ns#"
   xmlns:svg="http://www.w3.org/2000/svg"
   xmlns="http://www.w3.org/2000/svg"
   xmlns:sodipodi="http://sodipodi.sourceforge.net/DTD/sodipodi-0.dtd"
   xmlns:inkscape="http://www.inkscape.org/namespaces/inkscape"
   id="svg2"
   version="1.1"
   inkscape:version="0.48.5 r10040"
   width="156"
   height="180"
   xml:space="preserve"
   sodipodi:docname="busstop.svg"><metadata
     id="metadata8"><rdf:RDF><cc:Work
         rdf:about=""><dc:format>image/svg+xml</dc:format><dc:type
           rdf:resource="http://purl.org/dc/dcmitype/StillImage" /><dc:title /></cc:Work></rdf:RDF></metadata><defs
     id="defs6"><clipPath
       clipPathUnits="userSpaceOnUse"
       id="clipPath24"><path
         d="m 0,198.425 198.425,0 L 198.425,0 0,0 0,198.425 z"
         id="path26"
         inkscape:connector-curvature="0" /></clipPath><clipPath
       clipPathUnits="userSpaceOnUse"
       id="clipPath3431"><path
         d="M 0,0 725,0 725,725 0,725 0,0 Z"
         id="path3433" /></clipPath><clipPath
       id="clipPath24-0"
       clipPathUnits="userSpaceOnUse"><path
         inkscape:connector-curvature="0"
         id="path26-6"
         d="m 0,198.425 198.425,0 L 198.425,0 0,0 0,198.425 z" /></clipPath></defs><sodipodi:namedview
     pagecolor="#ffffff"
     bordercolor="#666666"
     borderopacity="1"
     objecttolerance="10"
     gridtolerance="10"
     guidetolerance="10"
     inkscape:pageopacity="0"
     inkscape:pageshadow="2"
     inkscape:window-width="1172"
     inkscape:window-height="959"
     id="namedview4"
     showgrid="false"
     inkscape:zoom="3.8140968"
     inkscape:cx="131.09264"
     inkscape:cy="89.998055"
     inkscape:window-x="-1"
     inkscape:window-y="0"
     inkscape:window-maximized="0"
     inkscape:current-layer="g10"
     showguides="true"
     inkscape:guide-bbox="true" /><g
     id="g10"
     inkscape:groupmode="layer"
     inkscape:label="Codefor_Hex_sticker_ALL"
     transform="matrix(1.25,0,0,-1.25,0,180)"><path
       sodipodi:nodetypes="ccccc"
       id="path3176"
       style="fill:#ffd52d;fill-opacity:1;fill-rule:nonzero;stroke:none"
       d="m 62.40019,72 62.4,36 0,0 -62.4,36 c 0,0 -0.02874,-71.999977 0,-72 z"
       inkscape:connector-curvature="0" /><path
       inkscape:connector-curvature="0"
       d="M 62.400217,72 2.2e-4,108 l 0,0 62.399997,36 c 0.300945,0 0.298879,-71.999977 0,-72 z"
       style="fill:#ffd119;fill-opacity:1;fill-rule:nonzero;stroke:none"
       id="path3178"
       sodipodi:nodetypes="ccccc" /><path
       inkscape:connector-curvature="0"
       d="m 62.40019,0 62.4,36 0,0 -62.4,36 c 0,0 -0.02874,-71.999977240587 0,-72 z"
       style="fill:#ffcd05;fill-opacity:1;fill-rule:nonzero;stroke:none"
       id="path2988"
       sodipodi:nodetypes="ccccc" /><path
       inkscape:connector-curvature="0"
       d="M 62.423396,72.005095 C 82.155817,58.943991 102.24848,46.242983 124.80019,36 l 0,0 -0.0231,71.97025 C 123.57647,109.17038 60.767166,73.67117 62.423396,72.005095 z"
       style="fill:#ffd119;fill-opacity:1;fill-rule:nonzero;stroke:none"
       id="path3180"
       sodipodi:nodetypes="ccccc" /><path
       sodipodi:nodetypes="ccccc"
       id="path3182"
       style="fill:#ffcd05;fill-opacity:1;fill-rule:nonzero;stroke:none"
       d="M 62.376794,71.994906 C 42.644373,85.05601 22.55171,97.757018 0,108 l 0,0 0.0231,-71.970249 c 1.20063,-1.20013 64.009934,34.29908 62.353704,35.965155 z"
       inkscape:connector-curvature="0" /><path
       sodipodi:nodetypes="ccccc"
       id="path3174"
       style="fill:#fcca00;fill-opacity:1;fill-rule:nonzero;stroke:none"
       d="M 62.400217,0 2.2e-4,36 l 0,0 62.399997,36 c 1.498971,-1.124229 0.7564,-72.5457219 0,-72 z"
       inkscape:connector-curvature="0" /><path
       style="fill:#008033;fill-opacity:1;fill-rule:evenodd;stroke:none"
       d="M 78 14.625 C 67.217912 14.625 58.78125 23.276 58.78125 33.5 C 58.78125 43.724212 67.217912 52.34375 78 52.34375 C 88.782145 52.34375 97.21875 43.724212 97.21875 33.5 C 97.21875 23.276 88.782145 14.625 78 14.625 z M 78 19.625 C 85.288861 19.625 91.5 25.653038 91.5 33.5 C 91.5 41.347013 85.288861 47.34375 78 47.34375 C 70.711195 47.34375 64.46875 41.347013 64.46875 33.5 C 64.46875 25.653038 70.711195 19.625 78 19.625 z M 71.5625 24.1875 L 71.5625 42.78125 L 74.375 42.78125 L 74.375 34.65625 L 81.71875 34.65625 L 81.71875 42.78125 L 84.53125 42.78125 L 84.53125 24.1875 L 81.71875 24.1875 L 81.71875 32.125 L 74.375 32.125 L 74.375 24.1875 L 71.5625 24.1875 z "
       transform="matrix(0.8,0,0,-0.8,0,144)"
       id="path3443" /></g></svg>