<?xml version="1.0" encoding="UTF-8" standalone="no"?>
<!-- Created with Inkscape (http://www.inkscape.org/) -->

<svg
   xmlns:dc="http://purl.org/dc/elements/1.1/"
   xmlns:cc="http://creativecommons.org/ns#"
   xmlns:rdf="http://www.w3.org/1999/02/22-rdf-syntax-ns#"
   xmlns:svg="http://www.w3.org/2000/svg"
   xmlns="http://www.w3.org/2000/svg"
   xmlns:xlink="http://www.w3.org/1999/xlink"
   xmlns:sodipodi="http://sodipodi.sourceforge.net/DTD/sodipodi-0.dtd"
   xmlns:inkscape="http://www.inkscape.org/namespaces/inkscape"
   id="svg2"
   version="1.1"
   inkscape:version="0.48.5 r10040"
   width="156"
   height="180"
   xml:space="preserve"
   sodipodi:docname="fire.svg"><metadata
     id="metadata8"><rdf:RDF><cc:Work
         rdf:about=""><dc:format>image/svg+xml</dc:format><dc:type
           rdf:resource="http://purl.org/dc/dcmitype/StillImage" /><dc:title /></cc:Work></rdf:RDF></metadata><defs
     id="defs6"><clipPath
       clipPathUnits="userSpaceOnUse"
       id="clipPath24"><path
         d="m 0,198.425 198.425,0 L 198.425,0 0,0 0,198.425 z"
         id="path26"
         inkscape:connector-curvature="0" /></clipPath><linearGradient
       inkscape:collect="always"
       xlink:href="#SVGID_1_"
       id="linearGradient5422"
       gradientUnits="userSpaceOnUse"
       x1="555.02551"
       y1="51.5"
       x2="639.46509"
       y2="51.5" /><linearGradient
       inkscape:collect="always"
       xlink:href="#SVGID_2_"
       id="linearGradient5424"
       gradientUnits="userSpaceOnUse"
       x1="554.27338"
       y1="51.5"
       x2="640.21722"
       y2="51.5" /><linearGradient
       inkscape:collect="always"
       xlink:href="#SVGID_3_"
       id="linearGradient5426"
       gradientUnits="userSpaceOnUse"
       x1="554.42383"
       y1="51.5"
       x2="640.06677"
       y2="51.5" /><linearGradient
       inkscape:collect="always"
       xlink:href="#SVGID_4_"
       id="linearGradient5428"
       gradientUnits="userSpaceOnUse"
       x1="597.16058"
       y1="76.235703"
       x2="597.16058"
       y2="20.7661" /><linearGradient
       inkscape:collect="always"
       xlink:href="#SVGID_5_"
       id="linearGradient5430"
       gradientUnits="userSpaceOnUse"
       x1="597.16101"
       y1="73.541496"
       x2="597.16101"
       y2="19.996" /><linearGradient
       inkscape:collect="always"
       xlink:href="#SVGID_6_"
       id="linearGradient5432"
       gradientUnits="userSpaceOnUse"
       x1="561.7406"
       y1="51.5"
       x2="632.75012"
       y2="51.5" /><radialGradient
       inkscape:collect="always"
       xlink:href="#SVGID_7_"
       id="radialGradient5434"
       gradientUnits="userSpaceOnUse"
       cx="617.15747"
       cy="51.147598"
       r="2.6143999" /><radialGradient
       inkscape:collect="always"
       xlink:href="#SVGID_8_"
       id="radialGradient5436"
       gradientUnits="userSpaceOnUse"
       cx="577.54388"
       cy="51.147598"
       r="2.6143999" /><linearGradient
       inkscape:collect="always"
       xlink:href="#SVGID_9_"
       id="linearGradient5438"
       gradientUnits="userSpaceOnUse"
       x1="627.20978"
       y1="70.156502"
       x2="644.66669"
       y2="70.156502" /><linearGradient
       inkscape:collect="always"
       xlink:href="#SVGID_10_"
       id="linearGradient5440"
       gradientUnits="userSpaceOnUse"
       x1="627.20978"
       y1="70.156502"
       x2="644.66669"
       y2="70.156502" /><radialGradient
       inkscape:collect="always"
       xlink:href="#SVGID_11_"
       id="radialGradient5442"
       gradientUnits="userSpaceOnUse"
       cx="597.14001"
       cy="80.907799"
       r="38.791901" /><linearGradient
       inkscape:collect="always"
       xlink:href="#SVGID_12_"
       id="linearGradient5444"
       gradientUnits="userSpaceOnUse"
       x1="548.43298"
       y1="70.156502"
       x2="565.88989"
       y2="70.156502" /><linearGradient
       inkscape:collect="always"
       xlink:href="#SVGID_13_"
       id="linearGradient5446"
       gradientUnits="userSpaceOnUse"
       x1="548.43298"
       y1="70.156502"
       x2="565.88989"
       y2="70.156502" /><radialGradient
       inkscape:collect="always"
       xlink:href="#SVGID_14_"
       id="radialGradient5448"
       gradientUnits="userSpaceOnUse"
       cx="597.14001"
       cy="80.907799"
       r="38.791901" /><linearGradient
       inkscape:collect="always"
       xlink:href="#SVGID_15_"
       id="linearGradient5450"
       gradientUnits="userSpaceOnUse"
       x1="560.15588"
       y1="66.442596"
       x2="632.8576"
       y2="66.442596" /><linearGradient
       inkscape:collect="always"
       xlink:href="#SVGID_16_"
       id="linearGradient5452"
       gradientUnits="userSpaceOnUse"
       x1="560.57727"
       y1="66.442596"
       x2="632.43622"
       y2="66.442596" /><linearGradient
       inkscape:collect="always"
       xlink:href="#SVGID_17_"
       id="linearGradient5454"
       gradientUnits="userSpaceOnUse"
       gradientTransform="translate(168,-3)"
       x1="380.43301"
       y1="72.043297"
       x2="476.66669"
       y2="72.043297" /><linearGradient
       inkscape:collect="always"
       xlink:href="#SVGID_18_"
       id="linearGradient5456"
       gradientUnits="userSpaceOnUse"
       gradientTransform="translate(168,-3)"
       x1="380.43301"
       y1="72.043297"
       x2="476.66669"
       y2="72.043297" /><linearGradient
       inkscape:collect="always"
       xlink:href="#SVGID_19_"
       id="linearGradient5458"
       gradientUnits="userSpaceOnUse"
       gradientTransform="translate(168,-3)"
       x1="380.43301"
       y1="72.043297"
       x2="476.66669"
       y2="72.043297" /><linearGradient
       inkscape:collect="always"
       xlink:href="#SVGID_20_"
       id="linearGradient5460"
       gradientUnits="userSpaceOnUse"
       gradientTransform="translate(168,-3)"
       x1="380.43301"
       y1="72.043297"
       x2="476.66669"
       y2="72.043297" /><linearGradient
       inkscape:collect="always"
       xlink:href="#SVGID_21_"
       id="linearGradient5462"
       gradientUnits="userSpaceOnUse"
       gradientTransform="translate(168,-3)"
       x1="380.43301"
       y1="72.043297"
       x2="476.66669"
       y2="72.043297" /><linearGradient
       inkscape:collect="always"
       xlink:href="#SVGID_22_"
       id="linearGradient5464"
       gradientUnits="userSpaceOnUse"
       gradientTransform="translate(168,-3)"
       x1="380.43301"
       y1="72.043297"
       x2="476.66669"
       y2="72.043297" /><linearGradient
       inkscape:collect="always"
       xlink:href="#SVGID_23_"
       id="linearGradient5466"
       gradientUnits="userSpaceOnUse"
       gradientTransform="translate(168,-3)"
       x1="380.43301"
       y1="72.043297"
       x2="476.66669"
       y2="72.043297" /><linearGradient
       inkscape:collect="always"
       xlink:href="#SVGID_24_"
       id="linearGradient5468"
       gradientUnits="userSpaceOnUse"
       gradientTransform="translate(168,-3)"
       x1="380.43301"
       y1="72.043297"
       x2="476.66669"
       y2="72.043297" /><linearGradient
       inkscape:collect="always"
       xlink:href="#SVGID_25_"
       id="linearGradient5470"
       gradientUnits="userSpaceOnUse"
       gradientTransform="translate(168,-3)"
       x1="380.43301"
       y1="72.043297"
       x2="476.66669"
       y2="72.043297" /><linearGradient
       inkscape:collect="always"
       xlink:href="#SVGID_26_"
       id="linearGradient5472"
       gradientUnits="userSpaceOnUse"
       gradientTransform="translate(168,-3)"
       x1="380.43301"
       y1="72.043297"
       x2="476.66669"
       y2="72.043297" /><linearGradient
       inkscape:collect="always"
       xlink:href="#SVGID_27_"
       id="linearGradient5474"
       gradientUnits="userSpaceOnUse"
       gradientTransform="translate(168,-3)"
       x1="380.43301"
       y1="72.043297"
       x2="476.66669"
       y2="72.043297" /><linearGradient
       inkscape:collect="always"
       xlink:href="#SVGID_28_"
       id="linearGradient5476"
       gradientUnits="userSpaceOnUse"
       gradientTransform="translate(168,-3)"
       x1="380.43301"
       y1="72.043297"
       x2="476.66669"
       y2="72.043297" /><linearGradient
       inkscape:collect="always"
       xlink:href="#SVGID_29_"
       id="linearGradient5478"
       gradientUnits="userSpaceOnUse"
       gradientTransform="translate(168,-3)"
       x1="380.43301"
       y1="72.043297"
       x2="476.66669"
       y2="72.043297" /><linearGradient
       inkscape:collect="always"
       xlink:href="#SVGID_30_"
       id="linearGradient5480"
       gradientUnits="userSpaceOnUse"
       gradientTransform="translate(168,-3)"
       x1="380.43301"
       y1="72.043297"
       x2="476.66669"
       y2="72.043297" /><linearGradient
       inkscape:collect="always"
       xlink:href="#SVGID_31_"
       id="linearGradient5482"
       gradientUnits="userSpaceOnUse"
       gradientTransform="translate(168,-3)"
       x1="380.43301"
       y1="72.043297"
       x2="476.66669"
       y2="72.043297" /><linearGradient
       inkscape:collect="always"
       xlink:href="#SVGID_32_"
       id="linearGradient5484"
       gradientUnits="userSpaceOnUse"
       gradientTransform="translate(168,-3)"
       x1="380.43301"
       y1="72.043297"
       x2="476.66669"
       y2="72.043297" /><linearGradient
       inkscape:collect="always"
       xlink:href="#SVGID_33_"
       id="linearGradient5486"
       gradientUnits="userSpaceOnUse"
       gradientTransform="translate(168,-3)"
       x1="380.43301"
       y1="72.043297"
       x2="476.66669"
       y2="72.043297" /><linearGradient
       inkscape:collect="always"
       xlink:href="#SVGID_34_"
       id="linearGradient5488"
       gradientUnits="userSpaceOnUse"
       gradientTransform="translate(168,-3)"
       x1="380.43301"
       y1="72.043297"
       x2="476.66669"
       y2="72.043297" /><linearGradient
       inkscape:collect="always"
       xlink:href="#SVGID_35_"
       id="linearGradient5490"
       gradientUnits="userSpaceOnUse"
       gradientTransform="translate(168,-3)"
       x1="380.43301"
       y1="72.043297"
       x2="476.66669"
       y2="72.043297" /><linearGradient
       inkscape:collect="always"
       xlink:href="#SVGID_36_"
       id="linearGradient5492"
       gradientUnits="userSpaceOnUse"
       gradientTransform="translate(168,-3)"
       x1="380.43301"
       y1="72.043297"
       x2="476.66669"
       y2="72.043297" /><linearGradient
       inkscape:collect="always"
       xlink:href="#SVGID_37_"
       id="linearGradient5494"
       gradientUnits="userSpaceOnUse"
       gradientTransform="translate(168,-3)"
       x1="380.43301"
       y1="72.043297"
       x2="476.66669"
       y2="72.043297" /><linearGradient
       inkscape:collect="always"
       xlink:href="#SVGID_38_"
       id="linearGradient5496"
       gradientUnits="userSpaceOnUse"
       gradientTransform="translate(168,-3)"
       x1="380.43301"
       y1="72.043297"
       x2="476.66669"
       y2="72.043297" /><radialGradient
       gradientUnits="userSpaceOnUse"
       r="2.6143999"
       cy="51.147598"
       cx="617.15747"
       id="SVGID_7_"><stop
         id="stop3329"
         style="stop-color:#FFF9D4"
         offset="0" /><stop
         id="stop3331"
         style="stop-color:#FCF3C4"
         offset="0.1058" /><stop
         id="stop3333"
         style="stop-color:#F4E19B"
         offset="0.3149" /><stop
         id="stop3335"
         style="stop-color:#F2DC8E"
         offset="0.3708" /><stop
         id="stop3337"
         style="stop-color:#F0BF05"
         offset="0.6854" /><stop
         id="stop3339"
         style="stop-color:#C9971B"
         offset="1" /></radialGradient><radialGradient
       gradientUnits="userSpaceOnUse"
       r="2.6143999"
       cy="51.147598"
       cx="577.54388"
       id="SVGID_8_"><stop
         id="stop3344"
         style="stop-color:#FFF9D4"
         offset="0" /><stop
         id="stop3346"
         style="stop-color:#FCF3C4"
         offset="0.1058" /><stop
         id="stop3348"
         style="stop-color:#F4E19B"
         offset="0.3149" /><stop
         id="stop3350"
         style="stop-color:#F2DC8E"
         offset="0.3708" /><stop
         id="stop3352"
         style="stop-color:#F0BF05"
         offset="0.6854" /><stop
         id="stop3354"
         style="stop-color:#C9971B"
         offset="1" /></radialGradient><linearGradient
       y2="713.54688"
       x2="122.41663"
       y1="743.14014"
       x1="78.645653"
       gradientTransform="matrix(-0.345461,-1.103135,0.825546,-0.25853,-265.0855,1483.115)"
       gradientUnits="userSpaceOnUse"
       id="linearGradient9265"
       xlink:href="#linearGradient14625"
       inkscape:collect="always" /><linearGradient
       y2="1102.4946"
       x2="94.621376"
       y1="1126.6776"
       x1="82.560005"
       gradientTransform="matrix(1.100206,-1.253837,0.450605,0.395393,-311.0192,864.0529)"
       gradientUnits="userSpaceOnUse"
       id="linearGradient9263"
       xlink:href="#linearGradient14630"
       inkscape:collect="always" /><linearGradient
       y2="1102.4946"
       x2="94.621376"
       y1="1126.6776"
       x1="82.560005"
       gradientTransform="matrix(1.553052,0.608761,-0.218777,0.558138,242.0222,-319.1418)"
       gradientUnits="userSpaceOnUse"
       id="linearGradient4545"
       xlink:href="#linearGradient14630"
       inkscape:collect="always" /><linearGradient
       id="linearGradient14625"><stop
         style="stop-color:#ffffff;stop-opacity:1.0000000;"
         offset="0.0000000"
         id="stop14626" /><stop
         style="stop-color:#ffffff;stop-opacity:0;"
         offset="1"
         id="stop14627" /></linearGradient><linearGradient
       id="linearGradient26051"><stop
         style="stop-color:#ffffff;stop-opacity:0.44927537;"
         offset="0.0000000"
         id="stop26052" /><stop
         style="stop-color:#ffffff;stop-opacity:0;"
         offset="1"
         id="stop26053" /></linearGradient><linearGradient
       id="linearGradient17250"><stop
         style="stop-color:#dc0000;stop-opacity:1.0000000;"
         offset="0.0000000"
         id="stop17251" /><stop
         id="stop4852"
         offset="0.5"
         style="stop-color:#ed5900;stop-opacity:1;" /><stop
         style="stop-color:#ffb200;stop-opacity:1.0000000;"
         offset="1.0000000"
         id="stop17252" /></linearGradient><linearGradient
       y2="1102.4946"
       y1="1126.6776"
       xlink:href="#linearGradient14630"
       x2="94.621376"
       x1="82.560005"
       inkscape:collect="always"
       id="linearGradient30535"
       gradientUnits="userSpaceOnUse"
       gradientTransform="matrix(1.100206,-1.253837,0.450605,0.395393,-311.0192,864.0529)" /><linearGradient
       inkscape:collect="always"
       id="linearGradient14630"><stop
         style="stop-color:#ffffff;stop-opacity:1;"
         offset="0"
         id="stop14631" /><stop
         style="stop-color:#ffffff;stop-opacity:0;"
         offset="1"
         id="stop14632" /></linearGradient><linearGradient
       y2="713.54688"
       y1="743.14014"
       xlink:href="#linearGradient14625"
       x2="122.41663"
       x1="78.645653"
       inkscape:collect="always"
       id="linearGradient30536"
       gradientUnits="userSpaceOnUse"
       gradientTransform="matrix(-0.345461,-1.103135,0.825546,-0.25853,-265.0855,1483.115)" /><linearGradient
       id="linearGradient29186"><stop
         style="stop-color:#ffffff;stop-opacity:1.0000000;"
         offset="0.0000000"
         id="stop29187" /><stop
         style="stop-color:#ffffff;stop-opacity:0;"
         offset="1"
         id="stop29188" /></linearGradient><linearGradient
       id="linearGradient19763"><stop
         style="stop-color:#000000;stop-opacity:0.74117649;"
         offset="0.0000000"
         id="stop19764" /><stop
         style="stop-color:#ffffff;stop-opacity:0.0000000;"
         offset="1.0000000"
         id="stop19765" /></linearGradient><clipPath
       clipPathUnits="userSpaceOnUse"
       id="clipPath24-3"><path
         d="m 0,198.425 198.425,0 L 198.425,0 0,0 0,198.425 z"
         id="path26-6"
         inkscape:connector-curvature="0" /></clipPath><clipPath
       clipPathUnits="userSpaceOnUse"
       id="clipPath24-9"><path
         d="m 0,198.425 198.425,0 L 198.425,0 0,0 0,198.425 z"
         id="path26-7"
         inkscape:connector-curvature="0" /></clipPath><clipPath
       id="clipPath24-2"
       clipPathUnits="userSpaceOnUse"><path
         inkscape:connector-curvature="0"
         id="path26-74"
         d="m 0,198.425 198.425,0 L 198.425,0 0,0 0,198.425 z" /></clipPath><marker
       viewBox="0 0 10 10"
       refY="5"
       refX="10"
       orient="auto"
       markerWidth="4"
       markerUnits="strokeWidth"
       markerHeight="3"
       id="ArrowStart"><path
         id="path3230"
         d="M 10 0 L 0 5 L 10 10 z" /></marker><marker
       viewBox="0 0 10 10"
       refY="5"
       refX="0"
       orient="auto"
       markerWidth="4"
       markerUnits="strokeWidth"
       markerHeight="3"
       id="ArrowEnd"><path
         id="path3227"
         d="M 0 0 L 10 5 L 0 10 z" /></marker></defs><sodipodi:namedview
     pagecolor="#ffffff"
     bordercolor="#666666"
     borderopacity="1"
     objecttolerance="10"
     gridtolerance="10"
     guidetolerance="10"
     inkscape:pageopacity="0"
     inkscape:pageshadow="2"
     inkscape:window-width="1311"
     inkscape:window-height="882"
     id="namedview4"
     showgrid="false"
     inkscape:zoom="4.0332396"
     inkscape:cx="131.67905"
     inkscape:cy="89.997909"
     inkscape:window-x="1"
     inkscape:window-y="0"
     inkscape:window-maximized="0"
     inkscape:current-layer="g10"
     showguides="true"
     inkscape:guide-bbox="true" /><g
     id="g10"
     inkscape:groupmode="layer"
     inkscape:label="Codefor_Hex_sticker_ALL"
     transform="matrix(1.25,0,0,-1.25,0,180)"><path
       sodipodi:nodetypes="ccccc"
       id="path3176"
       style="fill:#ffcdcd;fill-opacity:1;fill-rule:nonzero;stroke:none"
       d="M 62.4,72 0,108 l 0,0 62.4,36 c 0,0 0.02874,-71.999977 0,-72 z"
       inkscape:connector-curvature="0" /><path
       inkscape:connector-curvature="0"
       d="m 62.399973,72 62.399997,36 0,0 -62.399997,36 c -0.300945,0 -0.298879,-71.999977 0,-72 z"
       style="fill:#ffd3d3;fill-opacity:1;fill-rule:nonzero;stroke:none"
       id="path3178"
       sodipodi:nodetypes="ccccc" /><path
       inkscape:connector-curvature="0"
       d="M 62.4,0 0,36 0,36 62.4,72 c 0,0 0.02874,-71.999977240587 0,-72 z"
       style="fill:#ffc1c1;fill-opacity:1;fill-rule:nonzero;stroke:none"
       id="path2988"
       sodipodi:nodetypes="ccccc" /><path
       inkscape:connector-curvature="0"
       d="M 62.376794,72.005095 C 42.644373,58.943991 22.551707,46.242983 0,36 l 0,0 0.02308996,71.97025 C 1.223723,109.17038 64.033024,73.67117 62.376794,72.005095 z"
       style="fill:#ffc7c7;fill-opacity:1;fill-rule:nonzero;stroke:none"
       id="path3180"
       sodipodi:nodetypes="ccccc" /><path
       sodipodi:nodetypes="ccccc"
       id="path3182"
       style="fill:#ffcdcd;fill-opacity:1;fill-rule:nonzero;stroke:none"
       d="M 62.423396,71.994906 C 82.155817,85.05601 102.24848,97.757018 124.80019,108 l 0,0 -0.0231,-71.970249 c -1.20063,-1.20013 -64.009934,34.29908 -62.353704,35.965155 z"
       inkscape:connector-curvature="0" /><path
       sodipodi:nodetypes="ccccc"
       id="path3174"
       style="fill:#ffc7c7;fill-opacity:1;fill-rule:nonzero;stroke:none"
       d="m 62.399973,0 62.399997,36 0,0 -62.399997,36 c -1.498971,-1.124229 -0.7564,-72.5457219 0,-72 z"
       inkscape:connector-curvature="0" /><path
       style="fill:#c83737;fill-opacity:1;fill-rule:evenodd;stroke:none"
       d="m 77.09375,121.5 c -3.937106,4.96184 -5.593264,8.79313 -5,16.34375 -1.456195,6.09443 -5.022189,8.29517 -4.375,14.875 -0.539329,-3.66745 -0.911306,-6.8346 -0.15625,-9.53125 -0.431461,-3.34385 -0.874907,-6.22069 -4.21875,-8.59375 1.024724,4.15285 2.224394,10.4047 -1.28125,11.96875 -0.482372,0.99155 -1.952039,3.19945 -2.625,6.46875 -0.08966,-0.42589 -0.166207,-0.84655 -0.3125,-1.28125 0.269663,-3.77531 -5.946075,-3.67708 -6,-15.21875 -3.937112,4.96184 -5.593262,8.79312 -5,16.34375 -1.456187,6.09443 -2.990938,-5.98314 -2.34375,0.59669 -0.539325,-3.66746 -2.69255,5.91246 -1.9375,3.21581 -0.431463,-3.34385 -1.124913,-4.6582 -4.46875,-7.03125 1.024725,4.15285 1.7244,2.74845 -1.78125,4.3125 -0.140802,0.28943 -0.318911,1.18282 -0.53125,2.40625 l 40.90625,23.59375 c 0.01475,0.0326 0.01647,0.0419 0.03125,0.0312 l 71.03125,-40.96875 c -1.43317,-1.89275 -2.81843,-4.73659 -2.84375,-10.15625 -3.60546,8.90586 -6.11114,16.07807 -8.25,14.03125 -0.27029,-1.98846 -1.91366,3.5826 -2.8125,1.96875 -0.27763,-0.49073 -0.58226,-0.96777 -0.96875,-1.4375 -0.01,0.0326 -0.0214,0.0614 -0.0312,0.0937 -0.46647,-0.5287 -1.00029,-1.04355 -1.6875,-1.53125 0.30559,1.23846 0.60687,2.6614 0.8125,4.09375 -1.31867,3.46151 -1.22682,0.25807 -4.09375,3.125 0.37753,-5.93263 1.70015,-4.85971 -0.1875,-10.46875 0.26966,-3.77531 -5.91482,-3.67708 -5.96875,-15.21875 -3.93711,4.96184 -5.62451,8.79312 -5.03125,16.34375 -1.05145,4.40049 -3.19326,6.79221 -4.0625,10.25 -0.25665,-0.43967 -1.56148,-1.38989 -1.90625,-1.8125 -0.007,-1.28446 1.12455,-1.97606 1.4375,-3.09375 -0.43146,-3.34385 -0.84366,-6.22069 -4.1875,-8.59375 0.97703,3.95955 2.09229,9.85632 -0.84375,11.75 0.0538,-1.39173 -0.0998,-2.81352 -0.59375,-4.28125 0.26966,-3.77531 -5.91482,-3.67708 -5.96875,-15.21875 -3.937106,4.96184 -5.624514,8.79313 -5.03125,16.34375 -1.456195,6.09443 -5.022189,8.32642 -4.375,14.90625 -0.539329,-3.66745 -0.911306,-6.86585 -0.15625,-9.5625 -0.362235,-2.80734 -0.758088,-5.25192 -2.84375,-7.375 -0.31341,-0.61228 -0.709389,-1.20016 -1.1875,-1.78125 -1.456194,4.85397 -3.221671,8.06542 -6.78125,11.625 0.377529,-5.93263 3.512649,-10.73471 1.625,-16.34375 0.26966,-3.77531 -5.946066,-3.64583 -6,-15.1875 z m -54.0625,6.375 c -3.937112,4.96184 -6.343263,6.51187 -5.75,14.0625 -0.910117,3.80902 -1.669755,0.0197 -1.9375,-1.75 0.0273,0.23265 -9.49e-4,0.0997 0.09375,1.0625 -0.539325,-3.66746 -4.2238,1.57165 -3.46875,-1.125 -0.431463,-3.34385 -4.687413,-5.43944 -8.03125,-7.8125 0.4278227,1.73381 0.6984372,3.59972 0.625,5.3125 l 31.75,18.3125 c 0.405517,-2.79204 0.231053,-9.72001 -1.838787,-12.23566 -1.456187,4.85397 -0.945388,2.95733 -4.504963,6.51691 0.377525,-5.93263 0.95015,-1.54721 -0.9375,-7.15625 0.269663,-3.77531 -5.946075,-3.64583 -6,-15.1875 z"
       transform="matrix(0.8,0,0,-0.8,0,144)"
       id="path3914"
       inkscape:connector-curvature="0"
       sodipodi:nodetypes="ccccccccccccccccccccccccccccccccccccccccccccccccccccccccc" /><g
       id="Layer_1"
       transform="matrix(0.8,0,0,-0.8,-239.39993,131.01731)" /><g
       id="Layer_3"
       transform="matrix(0.8,0,0,-0.8,-239.39993,131.01731)" /><g
       id="Layer_5"
       transform="matrix(0.8,0,0,-0.8,-239.39993,131.01731)" /><g
       id="Layer_4"
       transform="matrix(0.8,0,0,-0.8,-239.39993,131.01731)" /><g
       id="Layer_6"
       transform="matrix(0.8,0,0,-0.8,-239.39993,131.01731)"><g
         id="g5378" /><g
         id="g5380" /><g
         id="g5382" /><g
         id="g5384" /><g
         id="g5386" /><g
         id="g5388" /></g><path
       style="fill:#ff6600;fill-opacity:1;fill-rule:evenodd;stroke:none"
       d="M 6.59375 128.375 C 7.76387 132.40541 7.895551 136.03286 7.4375 139.28125 L 10.53125 141.0625 C 10.849908 136.23692 9.2368427 132.24744 6.59375 128.375 z M 154.1875 128.9375 C 151.21433 132.16921 148.96473 135.82527 148.0625 139.5625 L 151.3125 137.71875 C 151.66477 135.29424 152.76294 132.84746 154.1875 128.9375 z M 41.78125 131.40625 C 45.065178 142.71755 40.349509 150.92128 36.59375 156.09375 L 40.0625 158.09375 C 40.494207 157.46035 41.004373 156.84181 41.59375 156.21875 C 47.846588 145.09082 46.3384 138.083 41.78125 131.40625 z M 123.3125 132.21875 C 125.3015 139.96533 122.12803 146.14624 119.40625 150.28125 C 118.24815 151.95027 115.25623 154.73903 115.4375 158.40625 L 126.15625 152.21875 C 131.83319 144.76365 129.48883 139.40838 123.3125 132.21875 z M 70.84375 133.21875 C 75.135951 148.00299 65.739179 157.5203 62.71875 161.8125 C 60.917086 156.24855 62.446964 153.86698 64.9375 147.03125 C 60.062409 152.33026 57.104586 158.74988 58.90625 164.84375 C 59.832959 167.42956 61.091 169.46223 62.5625 171.09375 L 75.4375 178.53125 C 74.808807 173.6587 73.483063 167.41403 79.1875 163.3125 C 89.917563 155.82763 84.63725 151.48642 77.9375 143.6875 C 79.9265 151.43408 76.721775 157.61499 74 161.75 C 70.548421 166.01663 68.95954 168.74007 68.96875 171.09375 C 66.358075 166.10606 66.934986 161.96694 70.6875 158 C 76.940329 146.87207 75.400898 139.89551 70.84375 133.21875 z M 109.34375 134.46875 C 113.63595 149.25299 104.23918 158.80155 101.21875 163.09375 C 99.417086 157.5298 100.94696 155.14823 103.4375 148.3125 C 98.562409 153.61151 95.108078 160.54253 95.125 167.65625 C 94.44565 168.85778 94.039167 169.90924 93.84375 170.84375 L 106.8125 163.375 C 107.09195 162.03104 107.83804 160.70782 109.1875 159.28125 C 115.44033 148.15332 113.9009 141.1455 109.34375 134.46875 z M 142.65625 137.75 C 133.02303 138.67441 131.0909 144.12076 130.25 149.84375 L 136.625 146.1875 C 137.51147 142.51247 139.90299 139.95942 142.65625 137.75 z M 25.15625 137.84375 C 26.264437 142.15982 25.759525 145.96638 24.625 149.21875 L 33 154.03125 C 33.352275 151.60674 34.45044 149.15996 35.875 145.25 C 34.612701 146.62207 33.488084 148.06606 32.53125 149.5625 C 32.687124 145.94383 29.178181 142.52553 25.15625 137.84375 z M 21.8125 138 C 17.086837 138.45348 14.239776 140.02047 12.4375 142.15625 L 16.40625 144.46875 C 17.567147 141.81357 19.580641 139.79101 21.8125 138 z M 98.5625 150.25 C 88.334104 151.23151 86.77488 157.31053 86 163.40625 C 85.642013 168.86556 84.353711 175.00006 81.9375 177.71875 L 93.25 171.1875 C 93.197813 169.58722 92.981558 167.70038 92.5 165.4375 C 90.950237 157.74036 94.378154 153.60782 98.5625 150.25 z M 55.96875 150.5 C 47.603526 151.30272 45.018896 155.50126 43.9375 160.34375 L 49.65625 163.625 C 49.05916 157.23295 52.176695 153.54302 55.96875 150.5 z "
       transform="matrix(0.8,0,0,-0.8,0,144)"
       id="path4848" /><path
       style="fill:#ffcc00;fill-opacity:1;fill-rule:evenodd;stroke:none"
       d="M 5.75 122.75 C 3.522825 125.8667 0.62667494 126.35925 3.59375 134.21875 C 6.039575 131.40242 5.430725 130.25156 5.03125 128.3125 C 4.1815 127.4186 5.05395 126.16961 5.75 122.75 z M 69.71875 124.53125 C 67.491575 127.64795 64.626675 128.17175 67.59375 136.03125 C 70.039575 133.21492 69.399475 132.03281 69 130.09375 C 68.15025 129.19985 69.0227 127.95086 69.71875 124.53125 z M 140.875 125.03125 C 138.64783 128.14795 135.75168 128.67175 138.71875 136.53125 C 141.16457 133.71492 140.55572 132.56406 140.15625 130.625 C 139.3065 129.7311 140.17895 128.45086 140.875 125.03125 z M 26.46875 126.5 C 25.8519 129.9187 26.192925 131.46597 25.0625 131.90625 C 23.966662 133.49579 22.9365 134.26779 24.1875 137.90625 C 29.895388 132.05576 27.402738 130.3158 26.46875 126.5 z M 155.125 130.0625 C 152.95368 132.57442 150.47711 133.3519 150.96875 137.90625 L 153.9375 136.1875 C 153.91478 136.0378 153.89586 135.90853 153.875 135.75 C 153.03659 134.8068 154.077 133.5209 155.125 130.0625 z M 119.1875 130.59375 C 116.5151 133.68535 113.35981 134.09674 115.875 142.21875 C 118.757 139.44154 118.16824 138.24119 117.90625 136.25 C 117.06784 135.3068 118.1395 134.05215 119.1875 130.59375 z M 87.90625 131.625 C 87.2894 135.0437 87.630425 136.55972 86.5 137 C 85.404162 138.58954 84.40525 139.39279 85.65625 143.03125 C 91.364138 137.18076 88.840238 135.4408 87.90625 131.625 z M 39.90625 133.4375 C 37.679075 136.5542 34.814175 137.078 37.78125 144.9375 C 40.227075 142.12117 39.586975 140.97031 39.1875 139.03125 C 38.33775 138.13735 39.2102 136.85711 39.90625 133.4375 z M 104.40625 135.5 C 102.17908 138.6167 99.314175 139.10925 102.28125 146.96875 C 104.72707 144.15242 104.08697 143.00156 103.6875 141.0625 C 102.83775 140.1686 103.7102 138.91961 104.40625 135.5 z M 55.03125 137.21875 C 54.4144 140.63746 54.755425 142.18472 53.625 142.625 C 52.529162 144.21454 51.499 144.98654 52.75 148.625 C 58.457887 142.77451 55.965238 141.03455 55.03125 137.21875 z M 96.21875 138.75 C 93.54635 141.8416 90.422313 142.25299 92.9375 150.375 C 95.8195 147.59779 95.230738 146.39744 94.96875 144.40625 C 94.130337 143.46305 95.17075 142.2084 96.21875 138.75 z M 70.75 143.84375 C 68.0776 146.93535 64.922313 147.34674 67.4375 155.46875 C 70.3195 152.69154 69.730738 151.49119 69.46875 149.5 C 68.630337 148.5568 69.702 147.30215 70.75 143.84375 z "
       transform="matrix(0.8,0,0,-0.8,0,144)"
       id="path4884" /><path
       style="fill:#c83737;stroke:none;fill-opacity:1"
       d="m 60.139127,133.5504 c -1.289685,0 -2.454011,-1.00317 -2.454011,-2.52294 0,-0.72156 0.412891,-1.37274 0.778942,-1.59235 -1.450391,-0.53592 -3.3938,-2.36897 -3.777523,-3.48801 -0.533301,-1.0666 0.929045,-1.96279 1.681962,-0.89613 0.752918,1.0666 1.598679,2.37805 4.108401,3.00548 l 0.0069,-1.10293 c -1.035178,-0.19638 -3.887816,-1.87975 -3.887816,-5.14239 l 0,-18.95655 c -6e-6,-0.47052 0.216953,-1.25458 1.158067,-1.25458 l 8.354667,0 c 0.94118,0 1.158073,0.78405 1.158073,1.25458 l 0,18.95655 c 0,3.26264 -2.750848,4.94601 -3.798203,5.14239 l 0.0069,1.31662 3.818882,0 0,-0.81341 9.333516,-1.41312 0,6.40387 -9.333516,-1.35798 0,-0.87545 -3.798203,0 0,1.37866 -1.102926,0 c 0,0.85745 -0.929504,1.95769 -2.254106,1.95769 z m -0.03447,-1.30972 c 0.597188,0 1.082246,-0.485 1.082246,-1.08225 0,-0.59719 -0.485058,-1.08225 -1.082246,-1.08225 -0.597319,0 -1.082247,0.48506 -1.082247,1.08225 0,0.59725 0.484928,1.08225 1.082247,1.08225 z"
       id="path3234"
       inkscape:connector-curvature="0" /></g></svg>