<?xml version="1.0" encoding="UTF-8" standalone="no"?>
<!-- Created with Inkscape (http://www.inkscape.org/) -->

<svg
   xmlns:dc="http://purl.org/dc/elements/1.1/"
   xmlns:cc="http://creativecommons.org/ns#"
   xmlns:rdf="http://www.w3.org/1999/02/22-rdf-syntax-ns#"
   xmlns:svg="http://www.w3.org/2000/svg"
   xmlns="http://www.w3.org/2000/svg"
   xmlns:sodipodi="http://sodipodi.sourceforge.net/DTD/sodipodi-0.dtd"
   xmlns:inkscape="http://www.inkscape.org/namespaces/inkscape"
   id="svg2"
   version="1.1"
   inkscape:version="0.48.5 r10040"
   width="156"
   height="180"
   xml:space="preserve"
   sodipodi:docname="livingstreet.svg"><metadata
     id="metadata8"><rdf:RDF><cc:Work
         rdf:about=""><dc:format>image/svg+xml</dc:format><dc:type
           rdf:resource="http://purl.org/dc/dcmitype/StillImage" /><dc:title /></cc:Work></rdf:RDF></metadata><defs
     id="defs6"><clipPath
       clipPathUnits="userSpaceOnUse"
       id="clipPath24"><path
         d="m 0,198.425 198.425,0 L 198.425,0 0,0 0,198.425 z"
         id="path26"
         inkscape:connector-curvature="0" /></clipPath></defs><sodipodi:namedview
     pagecolor="#ffffff"
     bordercolor="#666666"
     borderopacity="1"
     objecttolerance="10"
     gridtolerance="10"
     guidetolerance="10"
     inkscape:pageopacity="0"
     inkscape:pageshadow="2"
     inkscape:window-width="1308"
     inkscape:window-height="875"
     id="namedview4"
     showgrid="false"
     inkscape:zoom="3.9944444"
     inkscape:cx="78"
     inkscape:cy="90.000001"
     inkscape:window-x="0"
     inkscape:window-y="1"
     inkscape:window-maximized="0"
     inkscape:current-layer="g10" /><g
     id="g10"
     inkscape:groupmode="layer"
     inkscape:label="Codefor_Hex_sticker_ALL"
     transform="matrix(1.25,0,0,-1.25,0,180)"><path
       id="path14"
       style="fill:#2c5aa0;fill-opacity:1;fill-rule:nonzero;stroke:none"
       d="M 124.8,35.99975 62.4,-1.6e-7 0,35.99975 0,108.00025 62.4,144 l 62.4,-35.99975 0,-72.0005 z"
       inkscape:connector-curvature="0" /><path
       style="font-size:medium;font-style:normal;font-variant:normal;font-weight:normal;font-stretch:normal;text-indent:0;text-align:start;text-decoration:none;line-height:normal;letter-spacing:normal;word-spacing:normal;text-transform:none;direction:ltr;block-progression:tb;writing-mode:lr-tb;text-anchor:start;baseline-shift:baseline;color:#000000;fill:#ffffff;fill-opacity:1;stroke:none;stroke-width:3.20000005;marker:none;visibility:visible;display:inline;overflow:visible;enable-background:accumulate;font-family:Sans;-inkscape-font-specification:Sans"
       d="M 62.275012,0.00276029 A 1.5999983,1.6001984 0 0 0 61.587581,0.22151553 L 0.81247351,35.409859 A 1.5999983,1.6001984 0 0 0 5.5621532e-5,36.816143 l 0,70.376687 A 1.5999983,1.6001984 0 0 0 0.81247351,108.59911 L 61.587581,143.78746 a 1.5999983,1.6001984 0 0 0 1.593588,0 l 60.806371,-35.18835 a 1.5999983,1.6001984 0 0 0 0.8124,-1.40628 l 0,-70.376687 a 1.5999983,1.6001984 0 0 0 -0.8124,-1.406284 L 63.181169,0.22151553 A 1.5999983,1.6001984 0 0 0 62.275012,0.00276029 z m 0.124987,3.46883311 59.181521,34.2508206 0,68.564146 -59.181521,34.25082 -59.2127655,-34.28207 0,-68.501645 L 62.399999,3.4715934 z"
       id="path3984"
       inkscape:connector-curvature="0" /><path
       style="font-size:medium;font-style:normal;font-variant:normal;font-weight:normal;font-stretch:normal;text-indent:0;text-align:start;text-decoration:none;line-height:normal;letter-spacing:normal;word-spacing:normal;text-transform:none;direction:ltr;block-progression:tb;writing-mode:lr-tb;text-anchor:start;baseline-shift:baseline;color:#000000;fill:#2c5aa0;fill-opacity:1;stroke:none;stroke-width:0.80000001;marker:none;visibility:visible;display:inline;overflow:visible;enable-background:accumulate;font-family:Sans;-inkscape-font-specification:Sans"
       d="m 62.244774,0.00321362 c -0.291501,0.02358971 -0.58467,0.13416728 -0.838209,0.2796994 -0.0084,0.004868 -0.02263,-0.004997 -0.03104,0 L 1.0245416,35.276417 C 0.40046965,35.629666 -0.00591283,36.299104 6.5069494e-5,37.016768 l 0,69.987012 C -0.00591241,107.72144 0.40046965,108.39088 1.0245416,108.74412 l 60.3820234,34.99351 c 0.608528,0.34983 1.347292,0.34983 1.955819,0 l 60.413076,-34.99351 c 0.62407,-0.35324 1.03046,-1.02268 1.02447,-1.74034 l 0,-69.987012 c 0.006,-0.717664 -0.4004,-1.387102 -1.02447,-1.740351 L 63.362384,0.28291302 c -0.339259,-0.20010465 -0.72452,-0.30284242 -1.11761,-0.2796994 z m 0.06209,0.8080205 c 0.23235,-0.0136795 0.482453,0.0371097 0.682984,0.15538857 L 123.40292,35.960126 c 0.35795,0.202614 0.59328,0.64501 0.58985,1.056642 l 0,69.987012 c 0.003,0.41162 -0.2319,0.85402 -0.58985,1.05664 l -60.413073,34.9935 c -0.349606,0.20098 -0.861138,0.20098 -1.210745,0 L 1.3970785,108.06042 C 1.0391289,107.8578 0.80379963,107.4154 0.80722838,107.00378 l 0,-69.987012 C 0.80380004,36.605136 1.0391289,36.16274 1.3970785,35.960126 L 61.779102,0.96662269 l 0.03104,0 c 0.15457,-0.0917961 0.317576,-0.14089171 0.496716,-0.15538857 z"
       id="path3820"
       inkscape:connector-curvature="0"
       sodipodi:nodetypes="cccccccccccccccccccccccccccccc" /><path
       style="fill:#ffffff;fill-opacity:1;fill-rule:nonzero;stroke:none"
       d="m 56.05,131.2 a 2.3066995,2.3066995 0 0 1 -2.125,-2.3 2.3066995,2.3066995 0 1 1 4.6,0 2.3066995,2.3066995 0 0 1 -2.475,2.3 z m -1.35,-5.45 c -0.708046,-0.002 -1.382741,-0.23468 -1.725,-0.725 l -4.6,-7.425 c 0.02115,-0.79645 0.0456,-2.2067 1.025,-2.275 l 2.975,4.525 0,-4.1 4.7,0.025 0.025,2.55 1.975,-1.2 c 1.191931,-0.3884 1.832678,0.36419 2.525,0.975 l -4.45,2.725 0,3.075 c 8.62e-4,1.19735 -1.269924,1.85382 -2.45,1.85 z m 25.125,-8.875 c -0.986005,0 -1.775,-0.81399 -1.775,-1.8 0,-0.986 0.788995,-1.775 1.775,-1.775 0.986004,0 1.8,0.789 1.8,1.775 0,0.98601 -0.813996,1.8 -1.8,1.8 z m -27.45,-1.6 0,-2.2 -4.25,-6.775 c -0.925731,-2.57945 0.630811,-2.93565 0.925,-3.3 l 5.675,9.2 -0.025,-8.6 c 0.530745,-1.42661 1.515183,-1.60903 2.4,-1.8 l -0.025,13.475 -4.7,0 z M 81.3,112.95 c -0.782325,-0.39795 -1.621078,-0.47106 -2.5,-0.225 l -3.875,-3.775 c 0.293665,-0.38407 0.883268,-0.4071 1.425,-0.45 l 2.475,2 0.375,-8.9 c 0.427147,0.12539 0.860839,0.25874 1.225,0.825 l -0.05,4 1.225,0.35 0.75,-1.05 4.2,0.05 c -0.17568,0.51165 -0.205984,1.1402 -0.9,1.225 l -2.625,0.3 -1,4 1.15,-0.05 0.675,-1.4 c 0.926094,-0.72929 1.157896,-0.3291 1.575,-0.25 l -1.35,2.775 -2.775,0.575 z M 68.9,105.3 a 1.7214531,1.7214531 0 0 1 -1.6,-1.7 1.725,1.725 0 1 1 3.45,0 1.7214531,1.7214531 0 0 1 -1.85,1.7 z"
       id="path3210"
       inkscape:connector-curvature="0" /></g></svg>