<?xml version="1.0" encoding="UTF-8" standalone="no"?>
<!-- Created with Inkscape (http://www.inkscape.org/) -->

<svg
   xmlns:dc="http://purl.org/dc/elements/1.1/"
   xmlns:cc="http://creativecommons.org/ns#"
   xmlns:rdf="http://www.w3.org/1999/02/22-rdf-syntax-ns#"
   xmlns:svg="http://www.w3.org/2000/svg"
   xmlns="http://www.w3.org/2000/svg"
   xmlns:sodipodi="http://sodipodi.sourceforge.net/DTD/sodipodi-0.dtd"
   xmlns:inkscape="http://www.inkscape.org/namespaces/inkscape"
   id="svg2"
   version="1.1"
   inkscape:version="0.91 r13725"
   width="156"
   height="180"
   xml:space="preserve"
   sodipodi:docname="market.svg"><metadata
     id="metadata8"><rdf:RDF><cc:Work
         rdf:about=""><dc:format>image/svg+xml</dc:format><dc:type
           rdf:resource="http://purl.org/dc/dcmitype/StillImage" /><dc:title /></cc:Work></rdf:RDF></metadata><defs
     id="defs6"><clipPath
       clipPathUnits="userSpaceOnUse"
       id="clipPath24"><path
         d="m 0,198.425 198.425,0 L 198.425,0 0,0 0,198.425 z"
         id="path26"
         inkscape:connector-curvature="0" /></clipPath><clipPath
       id="clipPath24-9"
       clipPathUnits="userSpaceOnUse"><path
         inkscape:connector-curvature="0"
         id="path26-7"
         d="m 0,198.425 198.425,0 L 198.425,0 0,0 0,198.425 z" /></clipPath><clipPath
       id="clipPath24-3"
       clipPathUnits="userSpaceOnUse"><path
         inkscape:connector-curvature="0"
         id="path26-6"
         d="m 0,198.425 198.425,0 L 198.425,0 0,0 0,198.425 z" /></clipPath><clipPath
       clipPathUnits="userSpaceOnUse"
       id="clipPath24-9-0"><path
         d="m 0,198.425 198.425,0 L 198.425,0 0,0 0,198.425 z"
         id="path26-1"
         inkscape:connector-curvature="0" /></clipPath><clipPath
       clipPathUnits="userSpaceOnUse"
       id="clipPath24-1"><path
         d="m 0,198.425 198.425,0 L 198.425,0 0,0 0,198.425 z"
         id="path26-3"
         inkscape:connector-curvature="0" /></clipPath><clipPath
       id="clipPath24-6"
       clipPathUnits="userSpaceOnUse"><path
         id="path26-8"
         d="m 19.842,82.579 411.315,0 0,324.902 -411.315,0 0,-324.902 z" /></clipPath><clipPath
       id="clipPath24-5"
       clipPathUnits="userSpaceOnUse"><path
         inkscape:connector-curvature="0"
         id="path26-2"
         d="m 0,198.425 198.425,0 L 198.425,0 0,0 0,198.425 z" /></clipPath></defs><sodipodi:namedview
     pagecolor="#ffffff"
     bordercolor="#666666"
     borderopacity="1"
     objecttolerance="10"
     gridtolerance="10"
     guidetolerance="10"
     inkscape:pageopacity="0"
     inkscape:pageshadow="2"
     inkscape:window-width="1449"
     inkscape:window-height="802"
     id="namedview4"
     showgrid="false"
     inkscape:zoom="3.6333333"
     inkscape:cx="78"
     inkscape:cy="90"
     inkscape:window-x="0"
     inkscape:window-y="1"
     inkscape:window-maximized="0"
     inkscape:current-layer="g10"
     showguides="true"
     inkscape:guide-bbox="true"
     inkscape:snap-global="false"
     inkscape:snap-to-guides="false"
     inkscape:snap-grids="false" /><g
     id="g10"
     inkscape:groupmode="layer"
     inkscape:label="Codefor_Hex_sticker_ALL"
     transform="matrix(1.25,0,0,-1.25,0,180)"><path
       id="path14"
       style="fill:#9b897d;fill-opacity:1;fill-rule:nonzero;stroke:none"
       d="M 124.8,35.99975 62.4,-1.6e-7 0,35.99975 0,108 l 62.4,36 62.4,-35.99975 z"
       inkscape:connector-curvature="0"
       sodipodi:nodetypes="ccccccc" /><g
       id="Layer_1"
       transform="matrix(0.8,0,0,-0.8,-239.39999,131.01455)" /><g
       id="Layer_3"
       transform="matrix(0.8,0,0,-0.8,-239.39999,131.01455)" /><g
       id="Layer_5"
       transform="matrix(0.8,0,0,-0.8,-239.39999,131.01455)" /><g
       id="Layer_4"
       transform="matrix(0.8,0,0,-0.8,-239.39999,131.01455)" /><g
       id="Layer_6"
       transform="matrix(0.8,0,0,-0.8,-239.39999,131.01455)"><g
         id="g5378" /><g
         id="g5380" /><g
         id="g5382" /><g
         id="g5384" /><g
         id="g5386" /><g
         id="g5388" /></g><path
       style="fill:#d35f5f;fill-opacity:1;stroke:none"
       d="M 78 0 L 78 45 L 78 48.28125 C 78 51.88225 80.899 54.78125 84.5 54.78125 C 88.101 54.78125 91 51.88225 91 48.28125 L 91 45 L 85.59375 4.375 L 78 0 z M 61.46875 9.53125 L 50.6875 15.75 L 39 45 L 39 48.28125 C 39 51.88225 41.899 54.78125 45.5 54.78125 C 49.100999 54.78125 52 51.88225 52 48.28125 L 52 45 L 61.46875 9.53125 z M 105.3125 15.75 L 117 45 L 117 48.28125 C 117 51.88225 119.899 54.78125 123.5 54.78125 C 127.101 54.78125 130 51.88225 130 48.28125 L 130 45 L 118.4375 23.34375 L 105.3125 15.75 z M 21.03125 32.875 L 0.1875 44.90625 L 0 45.125 L 0 48.28125 C -5.9211895e-16 51.88225 2.8990001 54.78125 6.5 54.78125 C 10.101 54.78125 13 51.88225 13 48.28125 L 13 44.875 L 21.03125 32.875 z M 0 124.625 L 0 135 L 13 142.5 L 13 124.625 L 0 124.625 z M 39 124.625 L 39 157.5 L 52 165 L 52 124.625 L 39 124.625 z M 78 124.625 L 78 180 L 91 172.5 L 91 124.625 L 78 124.625 z M 117 124.625 L 117 157.5 L 130 150 L 130 124.625 L 117 124.625 z "
       transform="matrix(0.8,0,0,-0.8,0,144)"
       id="rect3047" /><path
       style="fill:#fff5ce;fill-opacity:1;stroke:none"
       d="M 70.40625 4.375 L 61.46875 9.53125 L 52 45 L 52 48.28125 C 52 51.88225 54.899 54.78125 58.5 54.78125 C 62.101 54.78125 65 51.88225 65 48.28125 C 65 48.178825 64.999962 47.12075 65 45 C 65.000001 44.936582 69.455175 11.497527 70.40625 4.375 z M 85.59375 4.375 L 91 44.875 L 91 48.28125 C 91 51.88225 93.899 54.78125 97.5 54.78125 C 101.101 54.78125 104 51.88225 104 48.28125 L 104 45.125 L 94.53125 9.53125 L 85.59375 4.375 z M 118.40625 23.3125 L 130 45.125 L 130 48.28125 C 130 51.88225 132.899 54.78125 136.5 54.78125 C 140.101 54.78125 143 51.88225 143 48.28125 L 143 44.875 L 134.96875 32.875 L 118.40625 23.3125 z M 37.5625 23.34375 L 21.125 32.8125 L 13 45 L 13 48.28125 C 13 51.88225 15.899001 54.78125 19.5 54.78125 C 23.101 54.78125 26 51.88225 26 48.28125 L 26 45 L 37.5625 23.34375 z M 13 124.625 L 13 142.5 L 26 150 L 26 124.625 L 13 124.625 z M 52 124.625 L 52 165 L 65 172.5 L 65 124.625 L 52 124.625 z M 91 124.625 L 91 172.5 L 104 165 L 104 124.625 L 91 124.625 z M 130 124.625 L 130 150 L 143 142.5 L 143 124.625 L 130 124.625 z "
       transform="matrix(0.8,0,0,-0.8,0,144)"
       id="rect3055" /><path
       style="fill:#0088aa;fill-opacity:1;stroke:none"
       d="M 78 0 L 70.40625 4.375 L 65 45 L 65 48.28125 C 65 51.88225 67.899 54.78125 71.5 54.78125 C 75.101 54.78125 78 51.88225 78 48.28125 L 78 45 L 78 0 z M 94.53125 9.53125 L 104 45 L 104 48.28125 C 104 51.88225 106.899 54.78125 110.5 54.78125 C 114.101 54.78125 117 51.88225 117 48.28125 L 117 45 L 105.3125 15.75 L 94.53125 9.53125 z M 50.6875 15.75 L 37.5625 23.34375 L 26 45 L 26 48.28125 C 26 51.88225 28.899 54.78125 32.5 54.78125 C 36.101 54.78125 39 51.88225 39 48.28125 L 39 45 L 50.6875 15.75 z M 134.875 32.8125 L 143 45 L 143 48.28125 C 143 51.88225 145.899 54.78125 149.5 54.78125 C 153.101 54.78125 156 51.88225 156 48.28125 L 156 45 L 134.875 32.8125 z M 26 124.625 L 26 150 L 39 157.5 L 39 124.625 L 26 124.625 z M 65 124.625 L 65 172.5 L 78 180 L 78 124.625 L 65 124.625 z M 104 124.625 L 104 165 L 117 157.5 L 117 124.625 L 104 124.625 z M 143 124.625 L 143 142.5 L 156 135 L 156 124.625 L 143 124.625 z "
       transform="matrix(0.8,0,0,-0.8,0,144)"
       id="rect3071" /><path
       style="fill:none;stroke:#000000;stroke-width:0.80000000999999998;stroke-linecap:square;stroke-linejoin:miter;stroke-miterlimit:4;stroke-opacity:0.15705130000000000;stroke-dasharray:none"
       d="M 0.40003419,107.6 124.3999,107.6"
       id="path3873"
       inkscape:connector-curvature="0" /><rect
       style="fill:#6c5d53;fill-opacity:1;stroke:none"
       id="rect3006"
       width="124.8"
       height="4"
       x="0"
       y="-44.799999"
       transform="scale(1,-1)" /></g></svg>