<?xml version="1.0" encoding="UTF-8" standalone="no"?>
<!-- Created with Inkscape (http://www.inkscape.org/) -->

<svg
   xmlns:dc="http://purl.org/dc/elements/1.1/"
   xmlns:cc="http://creativecommons.org/ns#"
   xmlns:rdf="http://www.w3.org/1999/02/22-rdf-syntax-ns#"
   xmlns:svg="http://www.w3.org/2000/svg"
   xmlns="http://www.w3.org/2000/svg"
   xmlns:sodipodi="http://sodipodi.sourceforge.net/DTD/sodipodi-0.dtd"
   xmlns:inkscape="http://www.inkscape.org/namespaces/inkscape"
   id="svg2"
   version="1.1"
   inkscape:version="0.48.5 r10040"
   width="156"
   height="180"
   xml:space="preserve"
   sodipodi:docname="military.svg"><metadata
     id="metadata8"><rdf:RDF><cc:Work
         rdf:about=""><dc:format>image/svg+xml</dc:format><dc:type
           rdf:resource="http://purl.org/dc/dcmitype/StillImage" /><dc:title /></cc:Work></rdf:RDF></metadata><defs
     id="defs6"><clipPath
       clipPathUnits="userSpaceOnUse"
       id="clipPath24"><path
         d="m 0,198.425 198.425,0 L 198.425,0 0,0 0,198.425 z"
         id="path26"
         inkscape:connector-curvature="0" /></clipPath><inkscape:perspective
       sodipodi:type="inkscape:persp3d"
       inkscape:vp_x="0 : 0.5 : 1"
       inkscape:vp_y="0 : 1000 : 0"
       inkscape:vp_z="1 : 0.5 : 1"
       inkscape:persp3d-origin="0.5 : 0.33333333 : 1"
       id="perspective2914" /><inkscape:perspective
       id="perspective2904"
       inkscape:persp3d-origin="372.04724 : 350.78739 : 1"
       inkscape:vp_z="744.09448 : 526.18109 : 1"
       inkscape:vp_y="0 : 1000 : 0"
       inkscape:vp_x="0 : 526.18109 : 1"
       sodipodi:type="inkscape:persp3d" /></defs><sodipodi:namedview
     pagecolor="#ffffff"
     bordercolor="#666666"
     borderopacity="1"
     objecttolerance="10"
     gridtolerance="10"
     guidetolerance="10"
     inkscape:pageopacity="0"
     inkscape:pageshadow="2"
     inkscape:window-width="972"
     inkscape:window-height="909"
     id="namedview4"
     showgrid="false"
     inkscape:zoom="3.0013383"
     inkscape:cx="88.627129"
     inkscape:cy="143.30956"
     inkscape:window-x="0"
     inkscape:window-y="1"
     inkscape:window-maximized="0"
     inkscape:current-layer="g10"
     showguides="true"
     inkscape:guide-bbox="true" /><g
     id="g10"
     inkscape:groupmode="layer"
     inkscape:label="Codefor_Hex_sticker_ALL"
     transform="matrix(1.25,0,0,-1.25,0,180)"><path
       style="fill:#338000;fill-opacity:1;fill-rule:nonzero;stroke:none"
       d="M 62.4,144 0,108.00084 0.025,107.97584 0,36.002523 62.375,0.02836343 c 0.0118,-0.02607139 0.01318,-0.03352722 0.025,-0.02499942 l 62.4,35.99915899 -0.025,0.025 0.025,71.973327 -62.4,35.99916 z"
       id="path3176"
       inkscape:connector-curvature="0" /><path
       style="fill:#a0892c"
       d="m 86.474102,129.68846 c 1.536411,-4.21075 10.511128,-9.88961 11.386334,-6.56903 -3.795442,2.18967 -7.590892,4.37935 -11.386334,6.56903 z m -14.306674,-1.81949 c -0.646378,-2.93317 0.222161,-7.71332 1.745908,-2.658 0.121235,1.16133 -0.667171,2.26818 -1.745908,2.658 z M 44.82523,127.34556 c -4.194189,-0.92468 -10.206343,-4.27198 -4.426279,-7.45074 5.533921,-4.49025 0.879249,-14.58218 -5.343221,-11.92205 -1.277448,4.40868 -3.950895,11.03103 -1.564546,13.43308 -3.929714,3.9232 -4.560836,-6.77178 -10.030227,-6.1574 -4.179943,-2.31568 -8.877272,1.91103 -12.44696,-1.31861 -5.4393325,-1.57666 1.456993,-4.09448 2.544758,-6.79657 -2.9179,-3.23087 -2.158993,-10.840165 0.108654,-12.659961 5.055277,4.935638 12.306939,4.392369 18.261907,7.738391 6.620899,3.3199 13.431877,-3.268 19.867225,0.84063 1.137874,2.05588 -10.97172,8.33685 -5.306479,10.85239 6.381626,1.09108 10.258271,8.85069 2.739866,11.59032 -1.327829,0.83426 -2.709988,2.05543 -4.404698,1.85052 z m 56.47896,-6.23113 c -0.90479,-4.96176 -1.892221,-8.69929 3.39268,-10.7851 -1.01148,-1.45833 -8.211821,-0.27766 -8.71406,-5.2786 -1.68536,-3.58674 -11.566867,-6.403385 -8.792693,-9.734295 8.020168,-0.804184 -1.569686,-14.193233 5.880313,-14.475478 0.903192,3.357984 1.914107,6.385345 5.474907,3.005024 4.325063,-1.564052 12.956443,-0.07097 8.447733,-7.281513 -2.75278,-4.987214 -8.854971,-10.006503 -12.06568,-2.4331 -3.585414,5.007145 -9.280551,-13.69098 -12.794781,-2.565032 -2.939762,3.155442 -7.083219,9.161846 -7.252091,11.193255 -0.692017,-5.386376 -4.154156,4.213899 -8.054895,1.128973 -5.529132,-1.376737 -14.35873,3.106538 -15.293255,-4.627964 -7.682674,-5.734316 -9.437304,9.028172 -17.015757,7.652885 -3.659665,1.980273 -3.698408,-9.098923 0.118197,-5.759455 7.727465,1.659583 6.454703,-8.820105 5.865486,-13.628772 0.274769,-7.313609 -6.573071,-9.155551 -11.851077,-4.98345 8.035136,4.965917 -10.176045,4.716555 -5.753567,10.755949 C 25.306907,80.723756 12.648073,86.31422 9.240513,79.076622 8.6493154,73.731301 7.342667,67.488948 7.1277206,62.606029 11.589529,57.422982 14.70972,67.444092 19.59856,67.18763 26.733889,66.708146 28.554239,57.154236 28.987035,51.494663 27.197145,43.827506 15.748012,57.942744 16.909769,48.110511 12.022827,45.503494 13.188438,39.809155 7.915083,37.881497 c -5.2249159,-5.403828 9.277493,1.652108 7.456178,-3.50698 -3.831384,-1.585646 -9.5857611,-3.1421 -3.305081,-5.325552 3.794629,-2.752154 8.557603,3.313294 9.044713,7.207581 2.100325,5.373949 9.80424,3.570523 14.488776,5.08126 2.846437,0.191891 4.947323,-7.080797 3.824714,-0.890703 -2.671923,7.090727 4.159817,11.501625 7.65418,16.260493 0.111891,6.663166 10.38011,1.398397 7.365001,8.294851 -0.106893,8.423863 10.578677,3.932531 13.611647,9.254049 3.522989,5.60123 9.282563,0.487909 3.387047,-3.463329 -2.390995,-2.43851 -6.142901,-5.809073 -0.756539,-7.344306 4.484848,-5.770596 11.755819,-1.942079 17.717245,-4.51736 5.112023,1.907145 10.426154,3.792946 14.779136,7.220651 3.87713,1.241381 6.15323,1.688896 5.95742,6.002666 2.14322,3.992223 9.89198,4.947194 4.77226,9.903144 -0.24919,4.738888 3.61147,8.881667 3.56843,13.783003 -6.16231,-0.08923 0.46264,7.085015 -5.62221,7.214455 -8.72878,3.08586 2.7724,8.55612 2.12787,10.76588 -4.22723,2.43104 -8.45446,4.86209 -12.68168,7.29313 z m -27.990234,-7.37766 c -2.60545,-3.95425 -6.448987,-5.54694 -11.365581,-5.15938 1.447804,-5.0367 3.473799,-10.878273 9.298279,-6.63756 4.946281,1.16133 8.986619,10.58655 2.067302,11.79694 z m -22.382219,-12.7115 c -5.022858,-0.61729 -6.998524,-12.919712 -0.218601,-7.285178 3.698101,1.185867 5.035498,6.795148 0.218601,7.285178 z M 17.258712,91.628722 c 1.271962,-4.404225 6.715581,-4.612269 6.059073,-1.072968 -2.000128,0.4574 -4.020062,0.837464 -6.059073,1.072968 z M 124.58369,89.834156 c -0.0201,-2.645501 0.0789,-0.489256 0,0 z m -0.27417,-22.083124 c -0.034,-6.576204 -8.77727,-5.602465 -10.5875,-5.876077 6.46429,-3.19971 -0.42336,-8.067472 -2.01284,-12.061537 -3.00578,-6.634037 4.46739,-7.740447 7.76499,-2.799586 3.96761,1.005707 6.02744,1.941449 5.10952,6.254571 0,4.810927 0,9.621854 0,14.43278 l -0.27417,0.04985 z M 101.97715,57.606753 c -0.94169,-3.689491 4.98055,-7.793383 2.64706,-1.985363 -0.4664,1.06263 -1.49728,1.829794 -2.64706,1.985363 z m 3.14049,-10.767392 c -4.03962,-3.148433 -14.379571,2.735516 -11.523955,-5.55469 -1.175839,-5.650265 8.369815,4.123703 11.523955,5.55469 z M 64.29128,44.521381 C 59.927086,44.093939 52.461076,44.399972 52.133417,38.467482 53.711513,32.332007 48.965518,26.214325 52.019343,20.435554 52.428944,16.630724 43.742268,20.124735 41.236336,16.323271 37.69904,14.467667 35.879117,14.876564 40.195561,12.82556 46.416285,9.233709 52.63701,5.6418505 58.857734,2.05 c 4.199546,2.9828309 6.734218,9.557432 0.880317,12.270512 -4.07053,2.888254 -5.561692,6.896363 -0.627752,9.9064 3.133587,6.077993 6.041572,-4.165689 11.26594,-2.820251 7.296304,-0.289787 1.929421,-9.040207 4.340289,-10.985141 3.278073,-2.3300798 5.972669,0.186475 8.773491,1.754734 -3.640563,3.477222 -10.333595,8.233681 -9.259499,14.025174 6.968915,2.4767 2.54313,7.661534 0.249135,12.044764 1.024203,6.485344 -6.351708,-2.007696 -8.366774,4.358393 -0.610101,0.63617 -1.215475,1.27687 -1.821601,1.916796 z M 0.18541684,42.128627 c -0.94797151,-3.129627 2.15666566,-0.307605 0,0 z M 112.99379,40.034967 c -2.93058,-0.681424 -2.60659,-7.879897 -0.41276,-2.669284 l 0.42031,1.292661 -0.008,1.376623 z M 98.338173,34.053083 c -5.630796,0.356759 -3.531825,-5.824051 -4.526444,-7.751526 -2.945903,-0.06396 -3.934118,4.237368 -7.324276,1.126142 -1.910319,-2.371857 0.243311,-9.243368 1.905837,-12.416949 3.662085,1.359563 5.42375,3.8198 6.031733,7.701676 2.139178,4.644694 13.430857,7.30239 3.91315,11.340657 z m 14.306677,-3.090641 c 0.7358,-2.330781 3.25094,-0.942585 0,0 z M 30.992122,18.849126 c 0.252553,-1.852287 4.759829,-3.121762 0,0 z"
       id="path8285"
       inkscape:connector-curvature="0" /><path
       style="fill:#536c53"
       d="m 68.22357,140.50347 c -4.643111,-3.24223 -10.01735,1.04221 -14.213891,-1.41948 -6.003927,-1.42094 0.728838,-5.26733 -0.562683,-9.43574 2.043314,-7.58137 -1.003771,-14.95499 -9.180366,-16.49916 3.133129,-5.99068 8.930591,-9.81209 13.542166,-14.555005 3.739432,-1.411899 4.759016,-5.616559 5.709336,-7.928045 3.823205,3.317531 1.491283,12.35938 -1.231504,17.08667 -0.136843,2.06387 6.068697,0.96061 5.795127,5.29305 1.286371,5.84552 -0.560026,13.15803 5.687634,16.74079 2.912603,2.44835 4.721042,6.44338 0.03602,7.50736 -1.860614,1.06985 -3.721229,2.13971 -5.581843,3.20956 z M 37.072053,123.31643 c -6.99635,-2.26822 -4.27031,-8.30059 -2.597153,-13.60279 3.143995,-6.44667 12.50256,4.5506 6.665377,9.21354 -1.033769,1.72273 -2.422778,3.23429 -4.068224,4.38925 z m 60.904088,-0.44966 c -7.509187,-0.61101 -11.908615,-6.89941 -12.548148,-13.8579 -6.115896,-4.90319 3.067735,-11.943009 6.423006,-5.31915 0.526235,5.40877 4.566285,8.43946 8.579351,10.51696 1.32575,3.86408 0.53392,6.00081 -2.454209,8.66009 z m 17.911499,-9.84258 c -4.88078,-2.45015 2.73482,-9.48399 -1.32605,-13.844467 0.33194,-6.610371 11.18025,-0.198167 10.1444,4.499557 -0.0237,2.23728 0.67212,4.8898 -2.16814,5.50173 -2.21674,1.28106 -4.43347,2.56212 -6.65021,3.84318 z M 8.2188043,112.67445 c -2.7121647,-1.59298 -5.5744802,-3.1662 -8.19382313,-4.7714 0,-3.28086 0,-6.56173 0,-9.842584 3.96132773,-1.637886 5.17436613,8.896614 11.24152583,5.820614 4.922091,3.83624 -0.503661,5.87592 -3.0477027,8.79337 z M 77.516565,98.78492 c -6.155786,-3.250217 -3.824239,-11.811443 -1.868719,-17.125466 1.089772,-5.501393 6.59514,-8.741865 9.063183,-13.568172 3.892474,0.255093 6.927977,6.297086 8.692207,9.113033 -1.170046,4.71242 -5.540935,8.366712 -2.775036,13.848024 1.078108,5.696032 -9.514235,5.907049 -13.111635,7.732581 z M 14.189303,89.466944 c -6.6840636,-2.229137 -0.733229,-8.375402 3.932006,-7.675459 6.888427,-1.219575 3.265032,-9.525084 5.168352,-12.303495 5.841068,-0.06439 11.951008,-12.880051 16.3071,-5.196231 1.074067,5.23097 2.713933,11.878135 -0.825582,16.437286 -4.864753,1.557946 -11.208405,-1.851428 -15.2639,3.641741 -4.909648,-2.370875 -6.181814,1.2073 -8.018955,4.946271 l -1.299021,0.149887 z M 122.55761,79.449496 c -5.58547,-0.02927 -12.6492,-3.588995 -13.9293,-9.397219 0.66107,-6.065828 7.2378,-9.829503 12.75074,-7.250231 3.39368,2.936089 3.52253,7.505552 3.31549,11.629338 -0.49884,1.878666 1.49061,6.087638 -2.13693,5.018112 z M 71.171348,76.826473 C 67.496936,74.477038 64.601888,69.946563 59.019894,71.059952 49.720594,69.702933 59.513295,56.010277 51.234609,55.654897 44.390414,56.863586 39.96296,49.829952 39.715144,43.709782 37.797329,39.353538 43.74243,31.426762 35.730504,33.3449 c -5.075111,0.553295 -13.943183,-2.251743 -6.834193,-7.349788 4.074019,-4.471789 8.827433,-7.665949 13.060564,-1.660796 4.454583,2.364985 4.041426,4.698258 0.322867,7.668092 -2.396157,3.063394 5.622004,3.144277 6.154419,6.911653 4.391637,5.457894 12.264013,7.231989 15.60413,13.543471 1.744324,4.466545 11.228706,3.739045 5.279385,9.002501 -4.988972,5.481272 3.027943,8.668727 4.745962,13.476597 1.633828,2.773918 -1.462434,1.338801 -2.89229,1.889843 z M 0,63.911209 c 0,-7.227887 0,-14.455766 0,-21.683654 3.7648451,1.758299 8.1205663,6.395811 13.165076,3.19759 5.338276,2.43008 6.50656,12.526413 2.423173,16.012929 C 12.205406,58.471774 4.170712,50.576014 2.8978155,59.264712 2.3308453,61.027391 1.1901227,62.525134 0,63.911209 z M 108.04355,47.24877 C 102.79674,46.894293 99.108551,41.939109 94.608744,39.487621 90.139489,32.853238 80.383827,33.880504 80.45618,42.739258 80.025161,46.846442 71.045204,40.6196 75.034046,36.889699 c 3.092542,-3.816978 5.064388,-8.496642 -0.820691,-10.625542 -0.913101,-5.636558 5.421539,-11.181163 9.708277,-13.809973 3.350754,1.663346 5.603184,2.630033 2.949361,6.494376 -0.905702,4.48143 -3.272046,9.62588 3.261021,9.839127 3.200899,3.60314 10.941566,8.876253 12.240776,0.799397 1.70477,-5.024252 4.81187,-4.543023 8.11867,-1.81209 5.73531,1.419586 0.0421,4.894383 0.38952,8.850856 2.73288,3.05357 3.07525,11.142505 -2.83743,10.62292 z M 11.866055,36.506868 C 9.3371996,36.241372 -0.13523094,34.914085 5.5530315,32.780885 c 2.7434191,-3.174703 10.3261355,1.285095 9.5093745,3.042522 -0.9805,0.512582 -2.100155,0.698394 -3.196351,0.683461 z M 59.0305,20.144203 c -3.511613,-7.323407 8.285612,-9.675858 10.40497,-5.639485 -1.948208,4.108287 -6.019694,5.819549 -10.40497,5.639485 z"
       id="path8332"
       inkscape:connector-curvature="0" /><path
       style="fill:#ffffff"
       d="m 42.65994,119.98119 c -0.291743,-1.30928 -0.583487,-2.61857 -0.87523,-3.92785 -1.90154,0.0453 -4.161029,-0.65981 -4.763752,-2.66826 -0.714827,-2.30588 0.961469,-4.56665 2.86713,-5.70231 0.08211,-0.054 3.616426,-3.31332 6.070276,-3.0995 10.063302,-0.0528 20.130013,-0.11715 30.191697,0.0613 2.720735,0.25827 6.645954,4.02901 6.645954,4.02901 2.519713,1.15358 3.11374,5.15877 0.888536,6.85503 -1.552245,0.85582 -3.377349,0.65837 -5.086906,0.6955 0.470806,0.82443 -0.236505,1.16001 -0.872985,1.52497 -1.108853,0.67877 -2.167595,1.51136 -3.307264,2.09553 -2.028036,0.10245 -4.056081,0.2049 -6.084117,0.30735 0.479126,0.58349 0.958243,1.16698 1.437369,1.75046 -0.147937,0.45747 -1.446166,1.33136 -0.72767,1.47517 5.195062,1.2018 10.390133,2.40362 15.585196,3.60542 0.972637,-0.27296 3.769086,-0.38217 3.257186,1.1392 0.212517,1.63323 -1.094903,1.26831 -2.267298,0.84689 -0.752898,-0.60217 -1.463811,-1.12693 -2.472015,-1.15292 -5.221027,-1.01895 -10.442062,-2.03789 -15.663089,-3.05685 -0.339593,0.8672 -0.974514,1.22026 -1.867189,1.02822 -1.769655,0 -3.539311,0 -5.308966,0 0.07197,0.98483 -0.695003,0.91233 -1.450858,0.85388 -1.781536,0 -3.563081,0 -5.344617,0 0.0222,-0.84744 -0.40651,-1.15327 -1.226753,-0.97794 -1.071176,-0.0136 -2.142293,-0.0307 -3.213426,-0.0467 -0.02204,-1.57491 -0.04214,-3.14985 -0.06049,-4.72481 0.979591,0 1.959183,0 2.938774,0 -1.76e-4,-0.83812 -0.470814,-1.07964 -1.255315,-0.91081 -0.79241,0 -1.58482,0 -2.37723,0"
       id="path2920"
       inkscape:connector-curvature="0"
       sodipodi:nodetypes="ccccccccccccccccccccccccccccc" /></g></svg>