<?xml version="1.0" encoding="UTF-8" standalone="no"?>
<!-- Created with Inkscape (http://www.inkscape.org/) -->

<svg
   xmlns:dc="http://purl.org/dc/elements/1.1/"
   xmlns:cc="http://creativecommons.org/ns#"
   xmlns:rdf="http://www.w3.org/1999/02/22-rdf-syntax-ns#"
   xmlns:svg="http://www.w3.org/2000/svg"
   xmlns="http://www.w3.org/2000/svg"
   xmlns:sodipodi="http://sodipodi.sourceforge.net/DTD/sodipodi-0.dtd"
   xmlns:inkscape="http://www.inkscape.org/namespaces/inkscape"
   id="svg2"
   version="1.1"
   inkscape:version="0.48.5 r10040"
   width="156"
   height="180"
   xml:space="preserve"
   sodipodi:docname="museum.svg"><metadata
     id="metadata8"><rdf:RDF><cc:Work
         rdf:about=""><dc:format>image/svg+xml</dc:format><dc:type
           rdf:resource="http://purl.org/dc/dcmitype/StillImage" /><dc:title /></cc:Work></rdf:RDF></metadata><defs
     id="defs6"><clipPath
       clipPathUnits="userSpaceOnUse"
       id="clipPath24"><path
         d="m 0,198.425 198.425,0 L 198.425,0 0,0 0,198.425 z"
         id="path26"
         inkscape:connector-curvature="0" /></clipPath><inkscape:perspective
       id="perspective27"
       inkscape:persp3d-origin="125 : 83.333333 : 1"
       inkscape:vp_z="250 : 125 : 1"
       inkscape:vp_y="0 : 1000 : 0"
       inkscape:vp_x="0 : 125 : 1"
       sodipodi:type="inkscape:persp3d" /></defs><sodipodi:namedview
     pagecolor="#ffffff"
     bordercolor="#666666"
     borderopacity="1"
     objecttolerance="10"
     gridtolerance="10"
     guidetolerance="10"
     inkscape:pageopacity="0"
     inkscape:pageshadow="2"
     inkscape:window-width="1172"
     inkscape:window-height="959"
     id="namedview4"
     showgrid="false"
     inkscape:zoom="4.4611111"
     inkscape:cx="102.65753"
     inkscape:cy="90"
     inkscape:window-x="2"
     inkscape:window-y="0"
     inkscape:window-maximized="0"
     inkscape:current-layer="g10"
     showguides="true"
     inkscape:guide-bbox="true" /><g
     id="g10"
     inkscape:groupmode="layer"
     inkscape:label="Codefor_Hex_sticker_ALL"
     transform="matrix(1.25,0,0,-1.25,0,180)"><path
       sodipodi:nodetypes="ccccc"
       id="path3176"
       style="fill:#9ec800;fill-opacity:1;fill-rule:nonzero;stroke:none"
       d="M 62.4,72 0,108 l 0,0 62.4,36 c 0,0 0.02874,-71.999977 0,-72 z"
       inkscape:connector-curvature="0" /><path
       inkscape:connector-curvature="0"
       d="m 62.399973,72 62.399997,36 0,0 -62.399997,36 c -0.300945,0 -0.298879,-71.999977 0,-72 z"
       style="fill:#a8d200;fill-opacity:1;fill-rule:nonzero;stroke:none"
       id="path3178"
       sodipodi:nodetypes="ccccc" /><path
       inkscape:connector-curvature="0"
       d="M 62.376794,72.005095 C 42.644373,58.943991 22.551707,46.242983 0,36 l 0,0 0.02308996,71.97025 C 1.223723,109.17038 64.033024,73.67117 62.376794,72.005095 z"
       style="fill:#94be00;fill-opacity:1;fill-rule:nonzero;stroke:none"
       id="path3180"
       sodipodi:nodetypes="ccccc" /><path
       sodipodi:nodetypes="ccccc"
       id="path3182"
       style="fill:#9ec800;fill-opacity:1;fill-rule:nonzero;stroke:none"
       d="M 62.423396,71.994906 C 82.155817,85.05601 102.24848,97.757018 124.80019,108 l 0,0 -0.0231,-71.970249 c -1.20063,-1.20013 -64.009934,34.29908 -62.353704,35.965155 z"
       inkscape:connector-curvature="0" /><path
       sodipodi:nodetypes="ccccc"
       id="path3174"
       style="fill:#94be00;fill-opacity:1;fill-rule:nonzero;stroke:none"
       d="m 62.399973,0 62.399997,36 0,0 -62.399997,36 c -1.498971,-1.124229 -0.7564,-72.5457219 0,-72 z"
       inkscape:connector-curvature="0" /><path
       style="font-size:medium;font-style:normal;font-variant:normal;font-weight:normal;font-stretch:normal;text-indent:0;text-align:start;text-decoration:none;line-height:normal;letter-spacing:normal;word-spacing:normal;text-transform:none;direction:ltr;block-progression:tb;writing-mode:lr-tb;text-anchor:start;baseline-shift:baseline;color:#000000;fill:#ffffff;fill-opacity:1;fill-rule:nonzero;stroke:none;stroke-width:3.55555558000000005px;marker:none;visibility:visible;display:inline;overflow:visible;enable-background:accumulate;font-family:Sans;-inkscape-font-specification:Sans"
       d="M 78 12.625 L 76.84375 13.3125 L 57.5625 25 L 54.65625 25 L 54.65625 29.4375 L 56 29.4375 L 56 48.5625 L 54.65625 48.5625 L 54.65625 53 L 101.3125 53 L 101.3125 48.5625 L 100 48.5625 L 100 29.4375 L 101.3125 29.4375 L 101.3125 25 L 98.40625 25 L 79.125 13.3125 L 78 12.625 z M 78 17.8125 L 89.84375 25 L 66.15625 25 L 78 17.8125 z M 60.4375 29.4375 L 69.09375 29.4375 L 69.09375 48.5625 L 60.4375 48.5625 L 60.4375 29.4375 z M 73.5625 29.4375 L 82.46875 29.4375 L 82.46875 48.5625 L 73.5625 48.5625 L 73.5625 29.4375 z M 86.875 29.4375 L 95.5625 29.4375 L 95.5625 48.5625 L 86.875 48.5625 L 86.875 29.4375 z "
       transform="matrix(0.8,0,0,-0.8,0,144)"
       id="line8" /><path
       inkscape:connector-curvature="0"
       d="M 62.4,0 0,36 0,36 62.4,72 c 0,0 0.02874,-71.999977240587 0,-72 z"
       style="fill:#8ab400;fill-opacity:1;fill-rule:nonzero;stroke:none"
       id="path2988"
       sodipodi:nodetypes="ccccc" /></g></svg>