<?xml version="1.0" encoding="UTF-8" standalone="no"?>
<!-- Created with Inkscape (http://www.inkscape.org/) -->

<svg
   xmlns:dc="http://purl.org/dc/elements/1.1/"
   xmlns:cc="http://creativecommons.org/ns#"
   xmlns:rdf="http://www.w3.org/1999/02/22-rdf-syntax-ns#"
   xmlns:svg="http://www.w3.org/2000/svg"
   xmlns="http://www.w3.org/2000/svg"
   xmlns:sodipodi="http://sodipodi.sourceforge.net/DTD/sodipodi-0.dtd"
   xmlns:inkscape="http://www.inkscape.org/namespaces/inkscape"
   id="svg2"
   version="1.1"
   inkscape:version="0.48.5 r10040"
   width="156"
   height="180"
   xml:space="preserve"
   sodipodi:docname="sausage.svg"><metadata
     id="metadata8"><rdf:RDF><cc:Work
         rdf:about=""><dc:format>image/svg+xml</dc:format><dc:type
           rdf:resource="http://purl.org/dc/dcmitype/StillImage" /><dc:title /></cc:Work></rdf:RDF></metadata><defs
     id="defs6"><clipPath
       clipPathUnits="userSpaceOnUse"
       id="clipPath24"><path
         d="m 0,198.425 198.425,0 L 198.425,0 0,0 0,198.425 z"
         id="path26"
         inkscape:connector-curvature="0" /></clipPath><clipPath
       clipPathUnits="userSpaceOnUse"
       id="clipPath24-6"><path
         d="m 19.842,82.579 411.315,0 0,324.902 -411.315,0 0,-324.902 z"
         id="path26-8" /></clipPath><clipPath
       id="clipPath24-1"
       clipPathUnits="userSpaceOnUse"><path
         inkscape:connector-curvature="0"
         id="path26-3"
         d="m 0,198.425 198.425,0 L 198.425,0 0,0 0,198.425 z" /></clipPath><clipPath
       id="clipPath24-9"
       clipPathUnits="userSpaceOnUse"><path
         inkscape:connector-curvature="0"
         id="path26-1"
         d="m 0,198.425 198.425,0 L 198.425,0 0,0 0,198.425 z" /></clipPath></defs><sodipodi:namedview
     pagecolor="#ffffff"
     bordercolor="#666666"
     borderopacity="1"
     objecttolerance="10"
     gridtolerance="10"
     guidetolerance="10"
     inkscape:pageopacity="0"
     inkscape:pageshadow="2"
     inkscape:window-width="1324"
     inkscape:window-height="849"
     id="namedview4"
     showgrid="false"
     inkscape:zoom="3.7388889"
     inkscape:cx="107.27649"
     inkscape:cy="90"
     inkscape:window-x="0"
     inkscape:window-y="0"
     inkscape:window-maximized="0"
     inkscape:current-layer="g10"
     showguides="true"
     inkscape:guide-bbox="true" /><g
     id="g10"
     inkscape:groupmode="layer"
     inkscape:label="Codefor_Hex_sticker_ALL"
     transform="matrix(1.25,0,0,-1.25,0,180)"><path
       sodipodi:nodetypes="ccccc"
       id="path3176"
       style="fill:#f15964;fill-opacity:1;fill-rule:nonzero;stroke:none"
       d="M 62.4,72 0,108 l 0,0 62.4,36 c 0,0 0.02874,-71.999977 0,-72 z"
       inkscape:connector-curvature="0" /><path
       inkscape:connector-curvature="0"
       d="m 62.399973,72 62.399997,36 0,0 -62.399997,36 c -0.300945,0 -0.298879,-71.999977 0,-72 z"
       style="fill:#f2626c;fill-opacity:1;fill-rule:nonzero;stroke:none"
       id="path3178"
       sodipodi:nodetypes="ccccc" /><path
       inkscape:connector-curvature="0"
       d="M 62.4,0 0,36 0,36 62.4,72 c 0,0 0.02874,-71.999977240587 0,-72 z"
       style="fill:#f04652;fill-opacity:1;fill-rule:nonzero;stroke:none"
       id="path2988"
       sodipodi:nodetypes="ccccc" /><path
       inkscape:connector-curvature="0"
       d="M 62.376794,72.005095 C 42.644373,58.943991 22.551707,46.242983 0,36 l 0,0 0.02308996,71.97025 C 1.223723,109.17038 64.033024,73.67117 62.376794,72.005095 z"
       style="fill:#f0505b;fill-opacity:1;fill-rule:nonzero;stroke:none"
       id="path3180"
       sodipodi:nodetypes="ccccc" /><path
       sodipodi:nodetypes="ccccc"
       id="path3182"
       style="fill:#f15964;fill-opacity:1;fill-rule:nonzero;stroke:none"
       d="M 62.423396,71.994906 C 82.155817,85.05601 102.24848,97.757018 124.80019,108 l 0,0 -0.0231,-71.970249 c -1.20063,-1.20013 -64.009934,34.29908 -62.353704,35.965155 z"
       inkscape:connector-curvature="0" /><path
       sodipodi:nodetypes="ccccc"
       id="path3174"
       style="fill:#f0505b;fill-opacity:1;fill-rule:nonzero;stroke:none"
       d="m 62.399973,0 62.399997,36 0,0 -62.399997,36 c -1.498971,-1.124229 -0.7564,-72.5457219 0,-72 z"
       inkscape:connector-curvature="0" /><path
       style="fill:#000000;stroke:#000000;stroke-width:0.00597361"
       inkscape:connector-curvature="0"
       d="m 143.63726,30.688528 c -0.0306,-0.03377 -0.0306,-0.03377 0,0 z"
       id="path25290" /><path
       style="font-size:medium;font-style:normal;font-variant:normal;font-weight:normal;font-stretch:normal;text-indent:0;text-align:start;text-decoration:none;line-height:normal;letter-spacing:normal;word-spacing:normal;text-transform:none;direction:ltr;block-progression:tb;writing-mode:lr-tb;text-anchor:start;baseline-shift:baseline;color:#000000;fill:#ffffff;fill-opacity:1;stroke:none;stroke-width:1.60000002;marker:none;visibility:visible;display:inline;overflow:visible;enable-background:accumulate;font-family:Sans;-inkscape-font-specification:Sans"
       d="m 63.259679,124.45219 c -0.461604,0.006 -0.98097,-0.0151 -1.6,-0.025 l -0.05,0 c -2.327508,-0.11328 -2.948838,-0.19429 -5.1,-0.62499 l -0.05,-0.025 c -7.440387,-1.9519 -13.011456,-5.40699 -17.85,-10.5 -1.754769,-1.84749 -2.077781,-4.5508 -1.025,-6.725 -0.950479,-0.96886 -1.485342,-2.24381 -1.325,-3.6 l 0.075,-0.775 0.825,0.1 2.375,0.275 0.8,0.1 -0.075,0.775 c -0.01381,0.11821 -0.0064,0.27426 0,0.425 0.887251,-0.44582 1.852998,-0.67491 2.825,-0.65 1.526414,0.0391 3.069957,0.66025 4.2,1.85 4.575892,4.81655 9.710156,7.36702 14.9,7.5 5.189352,0.13296 10.458453,-2.12411 15.275,-6.7 1.189336,-1.13098 2.726592,-1.68903 4.25,-1.65 0.798312,0.0204 1.605565,0.21342 2.349995,0.55 0.12056,-0.25255 0.22051,-0.5105 0.3,-0.75 0.13723,-0.4134 0.1984,-0.8504 0.2,-0.825 l -0.025,-0.775 0.775,-0.05 2.4,-0.175 0.825,-0.05 0.025,0.8 c 0.10425,1.58374 -0.72345,2.98481 -2.025,3.925 1.57699,2.3669 1.27762,5.62774 -0.85,7.65 -5.051539,4.79868 -10.761701,7.94454 -18.324995,9.55 l -0.025,0 c -1.801604,0.26368 -2.690188,0.38251 -4.075,0.39999 z m -1.575,-1.59999 c 0.01432,7e-4 0.01053,-7.1e-4 0.025,0 2.416102,0.0382 3.010529,-0.0539 5.375,-0.4 l 0,0.05 c 7.29184,-1.55305 12.607168,-4.57584 17.474995,-9.2 1.75168,-1.66494 1.81421,-4.39703 0.15,-6.15 -0.83271,-0.87651 -1.908267,-1.32139 -3.024995,-1.35 -1.116728,-0.0286 -2.249784,0.36773 -3.125,1.2 -5.047736,4.79553 -10.712355,7.32073 -16.4,7.175 -5.688095,-0.14574 -11.279468,-2.95226 -16.075,-8 -0.832219,-0.87619 -1.911275,-1.34647 -3.025,-1.375 -1.113724,-0.0285 -2.248492,0.39248 -3.125,1.225 -1.73354,1.66722 -1.808454,4.40392 -0.15,6.15 4.653966,4.89873 9.878002,8.13784 17.025,10.025 2.118809,0.42422 2.604532,0.53904 4.875,0.65 z m -11.85,-4.925 c -3.640063,-1.21817 -5.618348,-3.22672 -7.3,-5.425 l 1.25,-0.975 c 1.606268,2.09973 3.265889,3.79259 6.575,4.9 l -0.525,1.5 z m 35.624995,-12.3 c 0.70293,-0.48612 1.11114,-1.09811 1.3,-1.775 l -0.75,0.05 c -0.0457,0.19286 -0.0265,0.3784 -0.1,0.6 -0.11482,0.34593 -0.32645,0.70777 -0.525,1.075 0.0236,0.0195 0.0516,0.03 0.075,0.05 z m -46.924995,-0.475 c 0.08806,-0.0967 0.179478,-0.18311 0.275,-0.275 -0.04157,-0.27767 -0.01178,-0.54897 -0.025,-0.825 l -0.775,-0.1 c 0.09024,0.41629 0.257841,0.82644 0.525,1.2 z"
       id="path34"
       inkscape:connector-curvature="0" /></g></svg>