<?xml version="1.0" encoding="UTF-8" standalone="no"?>
<!-- Created with Inkscape (http://www.inkscape.org/) -->

<svg
   xmlns:dc="http://purl.org/dc/elements/1.1/"
   xmlns:cc="http://creativecommons.org/ns#"
   xmlns:rdf="http://www.w3.org/1999/02/22-rdf-syntax-ns#"
   xmlns:svg="http://www.w3.org/2000/svg"
   xmlns="http://www.w3.org/2000/svg"
   xmlns:sodipodi="http://sodipodi.sourceforge.net/DTD/sodipodi-0.dtd"
   xmlns:inkscape="http://www.inkscape.org/namespaces/inkscape"
   id="svg2"
   version="1.1"
   inkscape:version="0.48.5 r10040"
   width="156"
   height="180"
   xml:space="preserve"
   sodipodi:docname="sun.svg"><metadata
     id="metadata8"><rdf:RDF><cc:Work
         rdf:about=""><dc:format>image/svg+xml</dc:format><dc:type
           rdf:resource="http://purl.org/dc/dcmitype/StillImage" /><dc:title></dc:title></cc:Work></rdf:RDF></metadata><defs
     id="defs6"><clipPath
       clipPathUnits="userSpaceOnUse"
       id="clipPath24"><path
         d="m 0,198.425 198.425,0 L 198.425,0 0,0 0,198.425 z"
         id="path26"
         inkscape:connector-curvature="0" /></clipPath></defs><sodipodi:namedview
     pagecolor="#ffffff"
     bordercolor="#666666"
     borderopacity="1"
     objecttolerance="10"
     gridtolerance="10"
     guidetolerance="10"
     inkscape:pageopacity="0"
     inkscape:pageshadow="2"
     inkscape:window-width="1311"
     inkscape:window-height="882"
     id="namedview4"
     showgrid="false"
     inkscape:zoom="3.9221375"
     inkscape:cx="78.000119"
     inkscape:cy="89.998055"
     inkscape:window-x="0"
     inkscape:window-y="1"
     inkscape:window-maximized="0"
     inkscape:current-layer="g10"
     showguides="true"
     inkscape:guide-bbox="true" /><g
     id="g10"
     inkscape:groupmode="layer"
     inkscape:label="Codefor_Hex_sticker_ALL"
     transform="matrix(1.25,0,0,-1.25,0,180)"><path
       sodipodi:nodetypes="ccccc"
       id="path3176"
       style="fill:#f8c300;fill-opacity:1;fill-rule:nonzero;stroke:none"
       d="M 62.4,72 0,108 l 0,0 62.4,36 c 0,0 0.02874,-71.999977 0,-72 z"
       inkscape:connector-curvature="0" /><path
       inkscape:connector-curvature="0"
       d="m 62.399973,72 62.399997,36 0,0 -62.399997,36 c -0.300945,0 -0.298879,-71.999977 0,-72 z"
       style="fill:#ffcc00;fill-opacity:1;fill-rule:nonzero;stroke:none"
       id="path3178"
       sodipodi:nodetypes="ccccc" /><path
       inkscape:connector-curvature="0"
       d="M 62.4,0 0,36 0,36 62.4,72 c 0,0 0.02874,-71.999977240587 0,-72 z"
       style="fill:#e8ba00;fill-opacity:1;fill-rule:nonzero;stroke:none"
       id="path2988"
       sodipodi:nodetypes="ccccc" /><path
       inkscape:connector-curvature="0"
       d="M 62.376794,72.005095 C 42.644373,58.943991 22.551707,46.242983 0,36 l 0,0 0.02308996,71.97025 C 1.223723,109.17038 64.033024,73.67117 62.376794,72.005095 z"
       style="fill:#f0c000;fill-opacity:1;fill-rule:nonzero;stroke:none"
       id="path3180"
       sodipodi:nodetypes="ccccc" /><path
       sodipodi:nodetypes="ccccc"
       id="path3182"
       style="fill:#f8c500;fill-opacity:1;fill-rule:nonzero;stroke:none"
       d="M 62.423396,71.994906 C 82.155817,85.05601 102.24848,97.757018 124.80019,108 l 0,0 -0.0231,-71.970249 c -1.20063,-1.20013 -64.009934,34.29908 -62.353704,35.965155 z"
       inkscape:connector-curvature="0" /><path
       sodipodi:nodetypes="ccccc"
       id="path3174"
       style="fill:#f0c000;fill-opacity:1;fill-rule:nonzero;stroke:none"
       d="m 62.399973,0 62.399997,36 0,0 -62.399997,36 c -1.498971,-1.124229 -0.7564,-72.5457219 0,-72 z"
       inkscape:connector-curvature="0" /><g
       id="Layer_1"
       transform="matrix(0.8,0,0,-0.8,-239.39999,131.01144)" /><path
       style="font-size:medium;font-style:normal;font-variant:normal;font-weight:normal;font-stretch:normal;text-indent:0;text-align:start;text-decoration:none;line-height:normal;letter-spacing:normal;word-spacing:normal;text-transform:none;direction:ltr;block-progression:tb;writing-mode:lr-tb;text-anchor:start;baseline-shift:baseline;color:#000000;fill:#ffffff;fill-opacity:1;fill-rule:nonzero;stroke:none;stroke-width:1.20910001000000000;marker:none;visibility:visible;display:inline;overflow:visible;enable-background:accumulate;font-family:Sans;-inkscape-font-specification:Sans"
       d="M 77.71875 13.09375 A 1.2551767 1.2551767 0 0 0 76.6875 14.4375 L 76.6875 20.25 A 1.2551767 1.2551767 0 0 0 77.9375 21.53125 A 1.2551767 1.2551767 0 0 0 79.1875 20.25 L 79.1875 14.4375 A 1.2551767 1.2551767 0 0 0 77.71875 13.09375 z M 64.625 18.59375 A 1.2708827 1.2708827 0 0 0 63.875 20.75 L 67.9375 24.9375 A 1.2551767 1.2551767 0 0 0 68.6875 25.3125 A 1.2551767 1.2551767 0 0 0 69.71875 23.15625 L 65.6875 19 A 1.2708827 1.2708827 0 0 0 64.625 18.59375 z M 91.21875 18.59375 A 1.2568477 1.2568477 0 0 0 90.3125 19 L 86.125 23.15625 A 1.2551254 1.2551254 0 0 0 86.90625 25.3125 A 1.2551254 1.2551254 0 0 0 87.9375 24.9375 L 92.125 20.75 A 1.2568477 1.2568477 0 0 0 91.21875 18.59375 z M 78.5625 22.78125 C 72.93371 22.78125 68.34375 27.3712 68.34375 33 C 68.34375 38.628788 72.93371 43.21875 78.5625 43.21875 C 84.19129 43.21875 88.75 38.628788 88.75 33 C 88.75 27.3712 84.19129 22.78125 78.5625 22.78125 z M 59.09375 31.875 A 1.2695312 1.2695312 0 0 0 59.25 34.40625 L 65.15625 34.40625 A 1.2695312 1.2695312 0 0 0 65.15625 31.875 L 59.25 31.875 A 1.2695312 1.2695312 0 0 0 59.09375 31.875 z M 90.6875 31.875 A 1.2695312 1.2695312 0 0 0 90.875 34.40625 L 96.75 34.40625 A 1.2695312 1.2695312 0 0 0 96.75 31.875 L 90.875 31.875 A 1.2695312 1.2695312 0 0 0 90.6875 31.875 z M 68.59375 41 A 1.2568477 1.2568477 0 0 0 67.9375 41.375 L 63.875 45.5625 A 1.2551767 1.2551767 0 0 0 64.65625 47.6875 A 1.2551767 1.2551767 0 0 0 65.6875 47.3125 L 69.71875 43.125 A 1.2568477 1.2568477 0 0 0 68.59375 41 z M 86.84375 41 A 1.2568477 1.2568477 0 0 0 86.125 43.125 L 90.3125 47.3125 A 1.2551767 1.2551767 0 0 0 91.1875 47.6875 A 1.2551767 1.2551767 0 0 0 92.125 45.5625 L 87.9375 41.375 A 1.2568477 1.2568477 0 0 0 86.84375 41 z M 77.71875 44.6875 A 1.2551767 1.2551767 0 0 0 76.6875 46.0625 L 76.6875 51.84375 A 1.2551767 1.2551767 0 0 0 77.65625 53.09375 A 1.2551767 1.2551767 0 0 0 79.1875 51.84375 L 79.1875 46.0625 A 1.2551767 1.2551767 0 0 0 77.71875 44.6875 z "
       transform="matrix(0.8,0,0,-0.8,0,144)"
       id="circle4242" /><g
       id="Layer_3"
       transform="matrix(0.8,0,0,-0.8,-239.39999,131.01144)" /><g
       id="Layer_5"
       transform="matrix(0.8,0,0,-0.8,-239.39999,131.01144)" /><g
       id="Layer_4"
       transform="matrix(0.8,0,0,-0.8,-239.39999,131.01144)" /><g
       id="Layer_6"
       transform="matrix(0.8,0,0,-0.8,-239.39999,131.01144)"><g
         id="g5378" /><g
         id="g5380" /><g
         id="g5382" /><g
         id="g5384" /><g
         id="g5386" /><g
         id="g5388" /></g></g></svg>